<svg xmlns="http://www.w3.org/2000/svg" xmlns:xlink="http://www.w3.org/1999/xlink" width="79" height="98" viewBox="0 0 79 98">
    <defs>
        <path id="prefix__a" d="M0 0L78.065 0 78.065 97.397 0 97.397z"/>
    </defs>
    <g fill="none" fill-rule="evenodd">
        <mask id="prefix__b" fill="#fff">
            <use xlink:href="#prefix__a"/>
        </mask>
        <path fill="#FFF" d="M.048 38.919c-.032-.49-.048-.977-.048-1.46C0 16.773 17.476 0 39.033 0 60.59 0 78.065 16.773 78.065 37.46c0 .483-.016.97-.048 1.46.032.677.048 1.358.048 2.042 0 22.623-34.985 56.436-39.032 56.436C34.985 97.397 0 63.584 0 40.96c0-.684.016-1.365.048-2.042" mask="url(#prefix__b)"/>
        <path fill="#0D744E" fill-rule="nonzero" d="M39 17c-8.271 0-15 6.392-15 14.25 0 2.623 2.236 4.75 5 4.75s5-2.127 5-4.75c0-2.619 2.241-4.75 5-4.75s5 2.131 5 4.75c0 1.53-.747 2.93-2.046 3.836C36.9 38.602 34 43.675 34 49.002v1.248c0 2.623 2.236 4.75 5 4.75s5-2.127 5-4.75v-1.248c0-3.1 2.422-5.248 3.867-6.255C51.705 40.068 54 35.77 54 31.25 54 23.392 47.271 17 39 17z"/>
        <circle cx="39" cy="66" r="7" fill="#0D744E" fill-rule="nonzero"/>
    </g>
</svg>
