<?xml version="1.0" encoding="UTF-8"?>
<svg width="130px" height="85px" viewBox="0 0 130 85" version="1.1" xmlns="http://www.w3.org/2000/svg" xmlns:xlink="http://www.w3.org/1999/xlink">
    <title>alu</title>
    <g id="alu" stroke="none" stroke-width="1" fill="none" fill-rule="evenodd">
        <g id="CEN_recycling_aluminium" transform="translate(39.000000, 11.000000)">
            <path d="M4.2194,46.0884 C1.545,41.797 0,36.729 0,31.3 C0,22.011418 4.52287,13.7792314 11.4864424,8.6856066 C16.1161022,5.2991624 21.824582,3.3 28,3.3 C35.3774,3.3 42.2,5.9 47.0898,10.8162" id="Path" stroke="#FFFFFF" stroke-width="4"></path>
            <polygon id="Path" fill="#FCFCFC" fill-rule="nonzero" points="36.301 14.378 36.3126 10.0966 46.4028 10.1254 46.4316 0.0316 50.7096 0.0466 50.6708 14.4166"></polygon>
            <path d="M52.1376,16.7666 C54.8118,21.0582 56.357,26.1262 56.357,31.555 C56.357,47.019 43.8208,59.555 28.357,59.555 C20.9796,59.555 14.157,56.955 9.2672,52.039" id="Path" stroke="#FFFFFF" stroke-width="4"></path>
            <polygon id="Path" fill="#FCFCFC" fill-rule="nonzero" points="20.0556 48.477 20.0442 52.7582 9.9538 52.7294 9.925 62.8234 5.6472 62.8086 5.6856 48.4384"></polygon>
            <g id="Group" transform="translate(7.600000, 18.000000)" fill="#FFFFFF" fill-rule="nonzero" stroke="#FFFFFF" stroke-width="1.13386002">
                <path d="M0.6272,10.6612 C0.5964,8.5994 1.7658,5.4296 7.2744,5.4296 C9.7978,5.4296 13.583,6.1068 13.4908,10.6922 L13.337,17.9242 C13.3062,19.155 13.337,19.8324 14.968,19.7706 L14.968,21.6786 C14.5986,21.771 14.3218,21.8018 13.737,21.8018 C12.229,21.8018 11.2444,21.5554 10.9366,19.5244 C9.8594,21.494 7.7052,22.2942 5.5818,22.2942 C2.3196,22.2942 0.0732,20.8784 0.0732,17.5856 C0.0732,14.9084 1.458,13.1848 7.736,12.631 C10.0134,12.4464 10.7826,12.5082 10.7826,10.4768 C10.7826,9.7688 10.721,7.3376 7.2744,7.3376 C6.2894,7.3376 3.12,7.3992 3.212,10.6612 L0.6272,10.6612 Z M10.7826,13.6772 C9.9518,14.3234 9.0592,14.2002 7.3358,14.4464 C4.9356,14.8158 2.8734,15.0006 2.8734,17.493 C2.8734,19.309 4.1352,20.386 5.8894,20.386 C8.0128,20.386 10.5056,19.3704 10.721,15.0004 L10.7826,13.6772 Z" id="Shape"></path>
                <polygon id="Path" points="21.4762 0.1366 21.4762 21.6786 18.768 21.6786 18.768 0.1366"></polygon>
                <path d="M37.0126,21.6876 L37.0016,19.4628 L36.9398,19.4628 C35.3706,22.2018 32.2012,22.2942 31.6468,22.2942 C27.0304,22.2942 26.5074,18.755 26.5074,16.416 L26.5074,6.045 L29.216,6.045 L29.216,15.6158 C29.216,19.555 30.57,20.386 32.5086,20.386 C37.0632,20.386 37.0016,15.6774 37.0016,14.5694 L37.0016,6.0448 L39.7098,6.0448 L39.7098,21.6782 L37.0126,21.6876 Z" id="Path"></path>
            </g>
        </g>
    </g>
</svg>