<svg width="200" height="80" viewBox="0 0 200 80" fill="none" xmlns="http://www.w3.org/2000/svg">
<path d="M122.978 28.3011H106.642C103.344 28.3011 100.664 25.6292 100.664 22.3246C100.664 19.0311 103.344 16.3439 106.642 16.3439H122.978C126.282 16.3439 128.967 19.0311 128.967 22.3246C128.967 25.6292 126.282 28.3011 122.978 28.3011" fill="#EC8803"/>
<path d="M122.978 44.6371C110.678 44.6371 100.664 34.634 100.664 22.3255C100.664 10.0171 110.678 0 122.978 0C126.282 0 128.967 2.67884 128.967 5.98209C128.967 9.28673 126.282 11.9572 122.978 11.9572C117.268 11.9572 112.627 16.6068 112.627 22.3255C112.627 28.0386 117.268 32.6855 122.978 32.6855C126.282 32.6855 128.967 35.3615 128.967 38.6578C128.967 41.9569 126.282 44.6371 122.978 44.6371Z" fill="#D70E2D"/>
<path d="M8.22443 44.637C7.60141 44.637 6.97421 44.5381 6.34841 44.336C3.2138 43.306 1.51618 39.9219 2.54897 36.7943L13.3466 4.10323C14.3821 0.974206 17.7662 -0.726202 20.9064 0.310768C24.034 1.33659 25.7414 4.72486 24.7058 7.85667L13.8999 40.5421C13.0706 43.0481 10.7277 44.637 8.22443 44.637" fill="#C79008"/>
<path d="M31.3253 44.6371C28.9099 44.6371 26.638 43.1639 25.7335 40.7708L13.4306 8.08813C12.2654 4.99674 13.8264 1.55411 16.922 0.394485C20.0036 -0.776287 23.4574 0.791712 24.6184 3.87475L36.9255 36.5491C38.0851 39.6488 36.5199 43.0998 33.4341 44.2566C32.7344 44.5201 32.0278 44.6371 31.3253 44.6371" fill="#F7B905"/>
<path d="M78.3501 44.637C75.0469 44.637 72.368 41.9693 72.368 38.6577C72.368 35.3614 75.0469 32.6854 78.3501 32.6854C84.0688 32.6854 88.7129 28.0385 88.7129 22.331C88.7129 16.6124 84.0688 11.9655 78.3501 11.9655C75.0469 11.9655 72.368 9.28667 72.368 5.98203C72.368 2.68575 75.0469 0.00830078 78.3501 0.00830078C90.6614 0.00830078 100.664 10.0226 100.664 22.331C100.664 34.6339 90.6614 44.637 78.3501 44.637Z" fill="#EC8803"/>
<path d="M43.2846 44.6371C39.9758 44.6371 37.3053 41.9694 37.3053 38.6578V5.98627C37.3053 2.68581 39.9758 0.0167236 43.2846 0.0167236C46.5851 0.0167236 49.2625 2.68581 49.2625 5.98627V38.6578C49.2625 41.9694 46.5851 44.6371 43.2846 44.6371Z" fill="#00B2CF"/>
<path d="M66.3956 44.6371C63.0924 44.6371 60.4177 41.9694 60.4177 38.6578V5.98627C60.4177 2.68581 63.0924 0.0167236 66.3956 0.0167236C69.6961 0.0167236 72.3694 2.68581 72.3694 5.98627V38.6578C72.3694 41.9694 69.6961 44.6371 66.3956 44.6371Z" fill="#00B2CF"/>
<path d="M66.3957 44.6371C64.5224 44.6371 62.6798 43.766 61.516 42.1199L38.4044 9.43449C36.4978 6.74311 37.1375 3.01336 39.8261 1.10528C42.5272 -0.800012 46.2542 -0.161662 48.1651 2.54087L71.2739 35.2166C73.1792 37.9093 72.538 41.6377 69.8466 43.5416C68.7971 44.2887 67.5929 44.6371 66.3957 44.6371" fill="#0186B2"/>
<path d="M141.443 18.8113L140.155 15.8607L138.872 18.8113H141.443V18.8113ZM136.66 20.8783L139.372 14.8293C139.521 14.5046 139.779 14.3066 140.144 14.3066H140.207C140.575 14.3066 140.82 14.5046 140.967 14.8293L143.683 20.8783C143.732 20.9731 143.753 21.0651 143.753 21.1501C143.753 21.4902 143.498 21.762 143.151 21.762C142.85 21.762 142.639 21.5877 142.523 21.3187L141.934 19.9486H138.383L137.764 21.3592C137.662 21.6198 137.447 21.762 137.176 21.762C136.841 21.762 136.58 21.4999 136.58 21.1724C136.58 21.0734 136.614 20.9842 136.66 20.8783Z" fill="#C79008"/>
<path d="M149.006 18.6895V18.6644C149.006 17.7682 148.264 17.1564 147.389 17.1564C146.511 17.1564 145.822 17.7599 145.822 18.6644V18.6895C145.822 19.5843 146.524 20.2018 147.389 20.2018C148.264 20.2018 149.006 19.5843 149.006 18.6895M145.159 22.9113C144.94 22.8262 144.802 22.6478 144.802 22.4095C144.802 22.1335 145.042 21.8882 145.335 21.8882C145.427 21.8882 145.502 21.9077 145.565 21.9426C146.069 22.2255 146.616 22.3802 147.254 22.3802C148.377 22.3802 148.996 21.8004 148.996 20.6896V20.2631C148.536 20.8596 147.961 21.2736 147.053 21.2736C145.765 21.2736 144.546 20.3147 144.546 18.6979V18.677C144.546 17.0546 145.768 16.0859 147.053 16.0859C147.984 16.0859 148.554 16.5194 148.984 17.0309V16.7689C148.984 16.4246 149.266 16.1445 149.612 16.1445C149.97 16.1445 150.249 16.4246 150.249 16.78V20.5878C150.249 21.5175 150.008 22.2032 149.548 22.6604C149.052 23.1649 148.271 23.4005 147.285 23.4005C146.511 23.4005 145.822 23.2332 145.159 22.9113" fill="#C79008"/>
<path d="M155.603 18.5751C155.522 17.7597 155.044 17.1228 154.207 17.1228C153.43 17.1228 152.893 17.7179 152.775 18.5751H155.603V18.5751ZM154.352 21.8379C152.755 21.8379 151.524 20.6811 151.524 18.9807V18.9598C151.524 17.3848 152.638 16.0858 154.217 16.0858C155.968 16.0858 156.835 17.5298 156.835 18.8037C156.835 19.1591 156.563 19.4072 156.241 19.4072H152.786C152.921 20.302 153.559 20.8024 154.371 20.8024C154.904 20.8024 155.32 20.6184 155.676 20.3243C155.773 20.2532 155.853 20.2114 156 20.2114C156.283 20.2114 156.502 20.4274 156.502 20.7201C156.502 20.879 156.425 21.0128 156.334 21.1062C155.835 21.562 155.204 21.8379 154.352 21.8379" fill="#C79008"/>
<path d="M158.123 16.78C158.123 16.4245 158.394 16.1416 158.753 16.1416C159.102 16.1416 159.39 16.4245 159.39 16.78V17.0545C159.741 16.5402 160.252 16.0914 161.104 16.0914C162.347 16.0914 163.068 16.9249 163.068 18.1988V21.1411C163.068 21.4909 162.797 21.7613 162.442 21.7613C162.084 21.7613 161.806 21.4909 161.806 21.1411V18.5849C161.806 17.7305 161.377 17.2385 160.63 17.2385C159.895 17.2385 159.39 17.75 159.39 18.603V21.1411C159.39 21.4909 159.102 21.7613 158.753 21.7613C158.405 21.7613 158.123 21.4909 158.123 21.1411V16.78V16.78Z" fill="#C79008"/>
<path d="M164.283 18.9883V18.9744C164.283 17.4092 165.49 16.092 167.149 16.092C168.018 16.092 168.614 16.3736 169.079 16.7806C169.165 16.8558 169.276 17.0105 169.276 17.2182C169.276 17.543 169.019 17.7911 168.692 17.7911C168.537 17.7911 168.4 17.7297 168.319 17.6656C167.999 17.3938 167.642 17.1973 167.14 17.1973C166.222 17.1973 165.547 17.9904 165.547 18.9479V18.9744C165.547 19.9486 166.222 20.7305 167.193 20.7305C167.692 20.7305 168.077 20.5326 168.425 20.2441C168.499 20.18 168.619 20.1089 168.764 20.1089C169.072 20.1089 169.315 20.364 169.315 20.6608C169.315 20.8267 169.244 20.9619 169.132 21.0595C168.639 21.5264 168.045 21.8358 167.129 21.8358C165.49 21.8358 164.283 20.5591 164.283 18.9883" fill="#C79008"/>
<path d="M170.611 16.7799C170.611 16.4245 170.883 16.1416 171.239 16.1416C171.591 16.1416 171.874 16.4245 171.874 16.7799V21.141C171.874 21.4909 171.591 21.7613 171.239 21.7613C170.894 21.7613 170.611 21.4909 170.611 21.141V16.7799ZM170.517 14.7227C170.517 14.3534 170.83 14.1108 171.239 14.1108C171.642 14.1108 171.956 14.3534 171.956 14.7227V14.7882C171.956 15.1617 171.642 15.4126 171.239 15.4126C170.83 15.4126 170.517 15.1617 170.517 14.7882V14.7227V14.7227Z" fill="#C79008"/>
<path d="M176.926 19.7294V19.3587C176.605 19.2291 176.179 19.1385 175.679 19.1385C174.863 19.1385 174.381 19.4827 174.381 20.0542V20.0751C174.381 20.6047 174.851 20.9113 175.464 20.9113C176.288 20.9113 176.926 20.4263 176.926 19.7294ZM173.154 20.1308V20.1085C173.154 18.9155 174.08 18.3356 175.425 18.3356C176.04 18.3356 176.477 18.4262 176.907 18.5642V18.4262C176.907 17.6443 176.428 17.2262 175.541 17.2262C175.061 17.2262 174.667 17.3126 174.318 17.4464C174.244 17.4715 174.187 17.4743 174.126 17.4743C173.833 17.4743 173.595 17.2527 173.595 16.9544C173.595 16.7244 173.745 16.5321 173.935 16.4568C174.458 16.2589 174.987 16.1321 175.705 16.1321C176.533 16.1321 177.146 16.3481 177.532 16.7481C177.942 17.144 178.127 17.7293 178.127 18.4485V21.1622C178.127 21.5009 177.857 21.7615 177.516 21.7615C177.146 21.7615 176.9 21.5176 176.9 21.2361V21.0284C176.522 21.4772 175.946 21.8257 175.1 21.8257C174.072 21.8257 173.154 21.2361 173.154 20.1308" fill="#C79008"/>
<path d="M139.806 43.0099C141.333 43.0099 142.338 41.9701 142.338 40.5485V40.5234C142.338 39.0976 141.333 38.0411 139.806 38.0411H138.359V43.0099H139.806ZM137.082 37.5198C137.082 37.1588 137.361 36.8717 137.72 36.8717H139.806C142.091 36.8717 143.683 38.4467 143.683 40.5053V40.5234C143.683 42.582 142.091 44.1723 139.806 44.1723H137.72C137.361 44.1723 137.082 43.8936 137.082 43.527V37.5198V37.5198Z" fill="#C79008"/>
<path d="M148.858 41.0363C148.774 40.2237 148.298 39.5867 147.46 39.5867C146.692 39.5867 146.146 40.1819 146.036 41.0363H148.858ZM147.605 44.2963C146.009 44.2963 144.783 43.1409 144.783 41.4391V41.4209C144.783 39.846 145.899 38.5511 147.471 38.5511C149.225 38.5511 150.094 39.9923 150.094 41.2676C150.094 41.6216 149.821 41.8711 149.501 41.8711H146.041C146.176 42.7659 146.818 43.2677 147.627 43.2677C148.16 43.2677 148.577 43.0837 148.935 42.7882C149.028 42.7102 149.11 42.6712 149.258 42.6712C149.538 42.6712 149.757 42.8942 149.757 43.1813C149.757 43.3374 149.687 43.474 149.591 43.5687C149.087 44.0189 148.462 44.2963 147.605 44.2963" fill="#C79008"/>
<path d="M151.17 43.623C151.035 43.5491 150.929 43.3916 150.929 43.1811C150.929 42.9052 151.15 42.671 151.439 42.671C151.55 42.671 151.642 42.7073 151.713 42.7477C152.246 43.1031 152.798 43.2773 153.3 43.2773C153.838 43.2773 154.156 43.0459 154.156 42.6794V42.6654C154.156 42.2334 153.571 42.0912 152.92 41.8905C152.11 41.6633 151.203 41.3288 151.203 40.2751V40.2542C151.203 39.2103 152.062 38.5747 153.164 38.5747C153.748 38.5747 154.364 38.742 154.893 39.0179C155.072 39.1211 155.197 39.2827 155.197 39.5016C155.197 39.7901 154.967 40.0103 154.673 40.0103C154.574 40.0103 154.51 39.9922 154.422 39.9504C153.976 39.7218 153.518 39.5754 153.131 39.5754C152.639 39.5754 152.361 39.8082 152.361 40.1204V40.1371C152.361 40.5483 152.952 40.7128 153.603 40.919C154.404 41.1699 155.313 41.5351 155.313 42.5261V42.5498C155.313 43.708 154.411 44.2794 153.267 44.2794C152.566 44.2794 151.807 44.0592 151.17 43.623" fill="#C79008"/>
<path d="M160.011 42.1938V41.8175C159.685 41.6921 159.26 41.5959 158.761 41.5959C157.946 41.5959 157.47 41.9457 157.47 42.5144V42.5353C157.47 43.0705 157.936 43.3716 158.545 43.3716C159.373 43.3716 160.011 42.8935 160.011 42.1938ZM156.237 42.5897V42.5674C156.237 41.3771 157.164 40.7973 158.513 40.7973C159.126 40.7973 159.565 40.8879 159.987 41.0217V40.8879C159.987 40.1059 159.514 39.692 158.622 39.692C158.145 39.692 157.749 39.7742 157.408 39.9052C157.332 39.9275 157.27 39.9429 157.207 39.9429C156.909 39.9429 156.673 39.7115 156.673 39.4146C156.673 39.1916 156.831 38.9881 157.017 38.9184C157.54 38.7177 158.077 38.5951 158.793 38.5951C159.613 38.5951 160.23 38.8139 160.617 39.2097C161.02 39.6042 161.211 40.191 161.211 40.9102V43.6224C161.211 43.9639 160.939 44.2246 160.598 44.2246C160.23 44.2246 159.981 43.9779 159.981 43.6921V43.4914C159.607 43.9347 159.031 44.2887 158.189 44.2887C157.153 44.2887 156.237 43.6921 156.237 42.5897" fill="#C79008"/>
<path d="M162.718 39.2436C162.718 38.8868 162.994 38.6066 163.345 38.6066C163.702 38.6066 163.985 38.8868 163.985 39.2436V39.8053C164.276 39.1153 164.815 38.5955 165.369 38.5955C165.769 38.5955 165.996 38.8561 165.996 39.2185C165.996 39.5516 165.777 39.7732 165.496 39.8248C164.599 39.9809 163.985 40.6666 163.985 41.9698V43.5991C163.985 43.9392 163.702 44.2235 163.345 44.2235C163.001 44.2235 162.718 43.9559 162.718 43.5991V39.2436V39.2436Z" fill="#C79008"/>
<path d="M167.026 39.2436C167.026 38.8868 167.295 38.6066 167.652 38.6066C168.007 38.6066 168.287 38.8868 168.287 39.2436V39.8053C168.579 39.1153 169.121 38.5955 169.676 38.5955C170.071 38.5955 170.299 38.8561 170.299 39.2185C170.299 39.5516 170.08 39.7732 169.8 39.8248C168.906 39.9809 168.287 40.6666 168.287 41.9698V43.5991C168.287 43.9392 168.007 44.2235 167.652 44.2235C167.308 44.2235 167.026 43.9559 167.026 43.5991V39.2436V39.2436Z" fill="#C79008"/>
<path d="M175.451 41.4534V41.4311C175.451 40.4624 174.752 39.6596 173.762 39.6596C172.749 39.6596 172.101 40.4498 172.101 41.4115V41.4311C172.101 42.3886 172.798 43.1956 173.784 43.1956C174.805 43.1956 175.451 42.3997 175.451 41.4534M170.841 41.4534V41.4311C170.841 39.8533 172.09 38.5515 173.784 38.5515C175.474 38.5515 176.711 39.8352 176.711 41.4115V41.4311C176.711 42.9949 175.464 44.2967 173.762 44.2967C172.078 44.2967 170.841 43.0172 170.841 41.4534" fill="#C79008"/>
<path d="M178.063 37.1347C178.063 36.7918 178.337 36.5103 178.691 36.5103C179.04 36.5103 179.321 36.7918 179.321 37.1347V43.6004C179.321 43.9558 179.04 44.2318 178.691 44.2318C178.345 44.2318 178.063 43.9558 178.063 43.6004V37.1347Z" fill="#C79008"/>
<path d="M181.045 37.1347C181.045 36.7918 181.311 36.5103 181.665 36.5103C182.029 36.5103 182.306 36.7918 182.306 37.1347V43.6004C182.306 43.9558 182.029 44.2318 181.665 44.2318C181.323 44.2318 181.045 43.9558 181.045 43.6004V37.1347Z" fill="#C79008"/>
<path d="M188.262 41.4534V41.4311C188.262 40.4624 187.559 39.6596 186.568 39.6596C185.558 39.6596 184.911 40.4498 184.911 41.4115V41.4311C184.911 42.3886 185.613 43.1956 186.59 43.1956C187.611 43.1956 188.262 42.3997 188.262 41.4534M183.651 41.4534V41.4311C183.651 39.8533 184.903 38.5515 186.59 38.5515C188.283 38.5515 189.52 39.8352 189.52 41.4115V41.4311C189.52 42.9949 188.27 44.2967 186.568 44.2967C184.893 44.2967 183.651 43.0172 183.651 41.4534" fill="#C79008"/>
<path d="M137.082 26.2097C137.082 25.8571 137.36 25.5644 137.721 25.5644H137.86C138.175 25.5644 138.352 25.7219 138.532 25.9407L142.179 30.667V26.1804C142.179 25.8334 142.458 25.5532 142.808 25.5532C143.158 25.5532 143.443 25.8334 143.443 26.1804V32.3144C143.443 32.6671 143.166 32.9472 142.818 32.9472H142.762C142.458 32.9472 142.268 32.7925 142.09 32.5639L138.342 27.6982V32.3326C138.342 32.6768 138.056 32.957 137.714 32.957C137.36 32.957 137.082 32.6768 137.082 32.3326V26.2097V26.2097Z" fill="#C79008"/>
<path d="M148.577 30.9253V30.5503C148.256 30.4263 147.827 30.3301 147.326 30.3301C146.512 30.3301 146.036 30.673 146.036 31.2486V31.2695C146.036 31.7992 146.503 32.0988 147.106 32.0988C147.942 32.0988 148.577 31.6222 148.577 30.9253ZM144.802 31.3169V31.2974C144.802 30.1113 145.731 29.5273 147.074 29.5273C147.693 29.5273 148.129 29.6193 148.554 29.7559V29.6193C148.554 28.836 148.078 28.422 147.188 28.422C146.713 28.422 146.316 28.5085 145.969 28.6451C145.901 28.6618 145.832 28.6701 145.768 28.6701C145.482 28.6701 145.243 28.4388 145.243 28.1517C145.243 27.9245 145.397 27.7252 145.587 27.6527C146.107 27.4548 146.638 27.3265 147.36 27.3265C148.179 27.3265 148.798 27.5481 149.183 27.9412C149.593 28.3356 149.778 28.9238 149.778 29.6416V32.3525C149.778 32.6982 149.506 32.9574 149.165 32.9574C148.798 32.9574 148.547 32.7079 148.547 32.425V32.2187C148.171 32.6675 147.597 33.0229 146.751 33.0229C145.719 33.0229 144.802 32.425 144.802 31.3169" fill="#C79008"/>
<path d="M150.982 30.1848V30.1681C150.982 28.5973 152.198 27.283 153.851 27.283C154.718 27.283 155.313 27.5687 155.781 27.9743C155.867 28.0454 155.98 28.2001 155.98 28.4119C155.98 28.7367 155.718 28.9848 155.394 28.9848C155.24 28.9848 155.105 28.9234 155.019 28.8593C154.698 28.5875 154.344 28.391 153.839 28.391C152.921 28.391 152.248 29.1841 152.248 30.136V30.1681C152.248 31.1451 152.921 31.927 153.89 31.927C154.393 31.927 154.779 31.7263 155.123 31.435C155.198 31.3695 155.32 31.297 155.466 31.297C155.774 31.297 156.01 31.5521 156.01 31.8573C156.01 32.0176 155.951 32.1542 155.837 32.2504C155.341 32.7145 154.745 33.0309 153.834 33.0309C152.198 33.0309 150.982 31.75 150.982 30.1848" fill="#C79008"/>
<path d="M157.309 27.9736C157.309 27.6168 157.58 27.3381 157.936 27.3381C158.293 27.3381 158.573 27.6168 158.573 27.9736V32.332C158.573 32.6888 158.293 32.9564 157.936 32.9564C157.596 32.9564 157.309 32.6888 157.309 32.332V27.9736V27.9736ZM157.217 25.9206C157.217 25.5485 157.53 25.3046 157.936 25.3046C158.344 25.3046 158.655 25.5485 158.655 25.9206V25.9792C158.655 26.3541 158.344 26.6064 157.936 26.6064C157.53 26.6064 157.217 26.3541 157.217 25.9792V25.9206V25.9206Z" fill="#C79008"/>
<path d="M164.521 30.1848V30.1681C164.521 29.1924 163.825 28.391 162.841 28.391C161.824 28.391 161.178 29.1841 161.178 30.136V30.1681C161.178 31.1256 161.876 31.927 162.854 31.927C163.878 31.927 164.521 31.1312 164.521 30.1848M159.918 30.1848V30.1681C159.918 28.5875 161.165 27.283 162.854 27.283C164.545 27.283 165.788 28.568 165.788 30.136V30.1681C165.788 31.7263 164.538 33.0309 162.841 33.0309C161.158 33.0309 159.918 31.75 159.918 30.1848" fill="#C79008"/>
<path d="M167.066 27.9737C167.066 27.6169 167.34 27.3381 167.692 27.3381C168.046 27.3381 168.332 27.6169 168.332 27.9737V28.2468C168.685 27.7325 169.196 27.2823 170.049 27.2823C171.291 27.2823 172.01 28.1158 172.01 29.3939V32.332C172.01 32.6888 171.74 32.9564 171.384 32.9564C171.028 32.9564 170.745 32.6888 170.745 32.332V29.7814C170.745 28.9242 170.317 28.4308 169.567 28.4308C168.841 28.4308 168.332 28.9479 168.332 29.7953V32.332C168.332 32.6888 168.046 32.9564 167.692 32.9564C167.349 32.9564 167.066 32.6888 167.066 32.332V27.9737V27.9737Z" fill="#C79008"/>
<path d="M176.937 30.9253V30.5503C176.618 30.4263 176.189 30.3301 175.69 30.3301C174.87 30.3301 174.395 30.673 174.395 31.2486V31.2695C174.395 31.7992 174.862 32.0988 175.465 32.0988C176.306 32.0988 176.937 31.6222 176.937 30.9253ZM173.163 31.3169V31.2974C173.163 30.1113 174.09 29.5273 175.436 29.5273C176.052 29.5273 176.494 29.6193 176.92 29.7559V29.6193C176.92 28.836 176.437 28.422 175.553 28.422C175.07 28.422 174.675 28.5085 174.332 28.6451C174.26 28.6618 174.197 28.6701 174.132 28.6701C173.84 28.6701 173.602 28.4388 173.602 28.1517C173.602 27.9245 173.762 27.7252 173.946 27.6527C174.465 27.4548 174.998 27.3265 175.718 27.3265C176.544 27.3265 177.156 27.5481 177.548 27.9412C177.95 28.3356 178.14 28.9238 178.14 29.6416V32.3525C178.14 32.6982 177.867 32.9574 177.521 32.9574C177.156 32.9574 176.907 32.7079 176.907 32.425V32.2187C176.532 32.6675 175.955 33.0229 175.111 33.0229C174.08 33.0229 173.163 32.425 173.163 31.3169" fill="#C79008"/>
<path d="M179.716 25.8592C179.716 25.5177 179.991 25.2375 180.348 25.2375C180.7 25.2375 180.976 25.5177 180.976 25.8592V32.3333C180.976 32.6887 180.7 32.9563 180.348 32.9563C179.999 32.9563 179.716 32.6887 179.716 32.3333V25.8592Z" fill="#C79008"/>
<path d="M186.744 30.1366V30.163C186.744 31.2279 187.473 31.9262 188.33 31.9262C189.177 31.9262 189.923 31.2195 189.923 30.163V30.1366C189.923 29.0801 189.177 28.3818 188.33 28.3818C187.464 28.3818 186.744 29.048 186.744 30.1366M191.168 32.3331C191.168 32.6886 190.887 32.9562 190.542 32.9562C190.186 32.9562 189.908 32.6886 189.908 32.3331V31.9889C189.498 32.5631 188.925 33.0231 188.026 33.0231C186.733 33.0231 185.471 31.9889 185.471 30.163V30.1366C185.471 28.3149 186.715 27.2835 188.026 27.2835C188.933 27.2835 189.512 27.7323 189.908 28.2508V25.8591C189.908 25.5134 190.186 25.2374 190.532 25.2374C190.887 25.2374 191.168 25.5134 191.168 25.8591V32.3331V32.3331Z" fill="#C79008"/>
<path d="M196.52 29.7662C196.44 28.9522 195.964 28.3139 195.126 28.3139C194.355 28.3139 193.816 28.9132 193.695 29.7662H196.52V29.7662ZM195.27 33.0318C193.676 33.0318 192.442 31.8736 192.442 30.169V30.1523C192.442 28.5773 193.558 27.2825 195.136 27.2825C196.892 27.2825 197.755 28.7222 197.755 29.9975C197.755 30.3544 197.486 30.6011 197.157 30.6011H193.704C193.846 31.4973 194.478 31.9976 195.292 31.9976C195.823 31.9976 196.241 31.8136 196.596 31.5223C196.69 31.4485 196.773 31.4053 196.917 31.4053C197.203 31.4053 197.417 31.6213 197.417 31.9126C197.417 32.0701 197.349 32.2067 197.253 32.2959C196.755 32.7503 196.127 33.0318 195.27 33.0318Z" fill="#C79008"/>
<path d="M188.32 56.525H11.6812C5.25733 56.525 0 61.781 0 68.2063C0 74.6302 5.25733 79.8861 11.6812 79.8861H188.32C194.744 79.8861 200 74.6302 200 68.2063C200 61.781 194.744 56.525 188.32 56.525" fill="#0687B3"/>
<path d="M187.251 68.3569C187.251 70.2524 185.891 71.8023 183.932 71.8023C181.973 71.8023 180.582 70.2217 180.582 68.3248V68.2941C180.582 66.3972 181.941 64.8487 183.9 64.8487C185.86 64.8487 187.251 66.4293 187.251 68.3248V68.3569V68.3569ZM183.932 62.6047C180.519 62.6047 178.038 65.1804 178.038 68.3248V68.3569C178.038 71.5012 180.487 74.0462 183.9 74.0462C187.314 74.0462 189.795 71.4692 189.795 68.3248V68.2941C189.795 65.1484 187.344 62.6047 183.932 62.6047M173.659 68.3569C173.659 70.3165 172.315 71.6601 170.325 71.6601H168.445V64.9909H170.325C172.315 64.9909 173.659 66.3651 173.659 68.3248V68.3569V68.3569ZM170.325 62.7943H167.228C166.548 62.7943 166.011 63.3323 166.011 64.0111V72.6385C166.011 73.3187 166.548 73.8553 167.228 73.8553H170.325C173.803 73.8553 176.203 71.4385 176.203 68.3248V68.2941C176.203 65.1804 173.803 62.7943 170.325 62.7943M156.909 69.2266L158.442 65.5749L159.975 69.2266H156.909V69.2266ZM163.815 72.2915L159.96 63.5846C159.691 62.9852 159.217 62.6201 158.552 62.6201H158.411C157.746 62.6201 157.256 62.9852 156.988 63.5846L153.133 72.2915C153.053 72.4657 152.991 72.6385 152.991 72.8128C152.991 73.4441 153.481 73.9501 154.113 73.9501C154.619 73.9501 155.03 73.6657 155.233 73.1919L156.008 71.3758H160.875L161.618 73.1138C161.84 73.6184 162.219 73.9501 162.787 73.9501C163.436 73.9501 163.94 73.4288 163.94 72.7807C163.94 72.6232 163.893 72.4657 163.815 72.2915M152.798 64.7233C152.957 64.5003 153.115 64.2006 153.115 63.8689C153.115 63.2055 152.671 62.6842 151.93 62.6842C151.424 62.6842 151.06 62.9685 150.761 63.4103L148.026 67.3129L145.342 63.4424C145.041 63.0006 144.693 62.6995 144.139 62.6995C143.46 62.6995 142.922 63.2208 142.922 63.8689C142.922 64.2173 143.049 64.5003 143.223 64.7386L146.795 69.589V72.7333C146.795 73.4135 147.331 73.9501 148.012 73.9501C148.691 73.9501 149.229 73.4135 149.229 72.7333V69.5416L152.798 64.7233V64.7233ZM139.588 68.3569C139.588 70.2524 138.228 71.8023 136.269 71.8023C134.31 71.8023 132.919 70.2217 132.919 68.3248V68.2941C132.919 66.3972 134.278 64.8487 136.236 64.8487C138.197 64.8487 139.588 66.4293 139.588 68.3248V68.3569V68.3569ZM136.269 62.6047C132.856 62.6047 130.374 65.1804 130.374 68.3248V68.3569C130.374 71.5012 132.824 74.0462 136.236 74.0462C139.651 74.0462 142.132 71.4692 142.132 68.3248V68.2941C142.132 65.1484 139.681 62.6047 136.269 62.6047M126.439 66.6983C126.439 67.646 125.727 68.3722 124.51 68.3722H122.584V64.9909H124.464C125.68 64.9909 126.439 65.5749 126.439 66.6662V66.6983V66.6983ZM124.669 62.7943H121.366C120.687 62.7943 120.149 63.3323 120.149 64.0111V72.7333C120.149 73.4135 120.687 73.9501 121.366 73.9501C122.046 73.9501 122.584 73.4135 122.584 72.7333V70.5367H124.432C126.913 70.5367 128.905 69.2098 128.905 66.6495V66.6188C128.905 64.3595 127.308 62.7943 124.669 62.7943M111.049 69.2266L112.582 65.5749L114.114 69.2266H111.049ZM117.954 72.2915L114.1 63.5846C113.83 62.9852 113.356 62.6201 112.692 62.6201H112.55C111.887 62.6201 111.396 62.9852 111.129 63.5846L107.272 72.2915C107.194 72.4657 107.131 72.6385 107.131 72.8128C107.131 73.4441 107.62 73.9501 108.252 73.9501C108.759 73.9501 109.17 73.6657 109.374 73.1919L110.149 71.3758H115.016L115.759 73.1138C115.979 73.6184 116.359 73.9501 116.928 73.9501C117.576 73.9501 118.081 73.4288 118.081 72.7807C118.081 72.6232 118.033 72.4657 117.954 72.2915M98.1232 68.3569C98.1232 70.2524 96.7629 71.8023 94.8046 71.8023C92.845 71.8023 91.454 70.2217 91.454 68.3248V68.2941C91.454 66.3972 92.8129 64.8487 94.7712 64.8487C96.7322 64.8487 98.1232 66.4293 98.1232 68.3248V68.3569V68.3569ZM94.8046 62.6047C91.3913 62.6047 88.909 65.1804 88.909 68.3248V68.3569C88.909 71.5012 91.3592 74.0462 94.7712 74.0462C98.1859 74.0462 100.667 71.4692 100.667 68.3248V68.2941C100.667 65.1484 98.2166 62.6047 94.8046 62.6047M87.9445 63.9163C87.9445 63.3002 87.4385 62.7943 86.8225 62.7943H79.7114C79.094 62.7943 78.5894 63.3002 78.5894 63.9163C78.5894 64.5323 79.094 65.0383 79.7114 65.0383H82.0502V72.7333C82.0502 73.4135 82.5868 73.9501 83.267 73.9501C83.9471 73.9501 84.4837 73.4135 84.4837 72.7333V65.0383H86.8225C87.4385 65.0383 87.9445 64.5323 87.9445 63.9163M77.1817 71.7855C77.1817 71.1695 76.6604 70.6636 76.0444 70.6636C75.7601 70.6636 75.5064 70.7737 75.3169 70.9326C74.6214 71.4859 73.9426 71.8023 72.9154 71.8023C71.0184 71.8023 69.7083 70.2217 69.7083 68.3248V68.2941C69.7083 66.3972 71.0505 64.8487 72.9154 64.8487C73.7851 64.8487 74.4959 65.133 75.1761 65.639C75.3489 65.7491 75.5705 65.8759 75.9022 65.8759C76.5657 65.8759 77.1037 65.3547 77.1037 64.6912C77.1037 64.2633 76.8807 63.9163 76.6298 63.7267C75.7127 63.0466 74.5907 62.6047 72.9321 62.6047C69.5341 62.6047 67.1647 65.1804 67.1647 68.3248V68.3569C67.1647 71.5333 69.5815 74.0462 72.8359 74.0462C74.6074 74.0462 75.7768 73.5236 76.7706 72.6539C76.9936 72.4657 77.1817 72.1647 77.1817 71.7855M65.4252 72.7807C65.4252 72.1814 64.9346 71.6908 64.3353 71.6908H59.3261V69.3687H63.5436C64.1457 69.3687 64.6336 68.8935 64.6336 68.2941C64.6336 67.6934 64.1457 67.2028 63.5436 67.2028H59.3261V64.9588H64.2558C64.8566 64.9588 65.3458 64.4849 65.3458 63.8856C65.3458 63.2849 64.8566 62.7943 64.2558 62.7943H58.1232C57.4444 62.7943 56.9065 63.3323 56.9065 64.0111V72.6385C56.9065 73.3187 57.4444 73.8553 58.1232 73.8553H64.3353C64.9346 73.8553 65.4252 73.3814 65.4252 72.7807M55.0904 63.8689C55.0904 63.2055 54.6471 62.6842 53.9043 62.6842C53.3997 62.6842 53.0345 62.9685 52.7349 63.4103L50.0003 67.3129L47.3159 63.4424C47.0148 63.0006 46.6678 62.6995 46.1144 62.6995C45.4343 62.6995 44.8977 63.2208 44.8977 63.8689C44.8977 64.2173 45.0245 64.5003 45.1973 64.7386L48.7696 69.589V72.7333C48.7696 73.4135 49.3062 73.9501 49.9864 73.9501C50.6651 73.9501 51.2031 73.4135 51.2031 72.7333V69.5416L54.774 64.7233C54.9315 64.5003 55.0904 64.2006 55.0904 63.8689M41.5624 68.3569C41.5624 70.2524 40.202 71.8023 38.2438 71.8023C36.2841 71.8023 34.8931 70.2217 34.8931 68.3248V68.2941C34.8931 66.3972 36.2521 64.8487 38.2117 64.8487C40.1714 64.8487 41.5624 66.4293 41.5624 68.3248V68.3569V68.3569ZM38.2438 62.6047C34.8304 62.6047 32.3495 65.1804 32.3495 68.3248V68.3569C32.3495 71.5012 34.7984 74.0462 38.2117 74.0462C41.6251 74.0462 44.106 71.4692 44.106 68.3248V68.2941C44.106 65.1484 41.6558 62.6047 38.2438 62.6047M28.019 66.6035C28.019 67.5345 27.3403 68.1673 26.1542 68.1673H23.6886V64.9909H26.1082C27.2915 64.9909 28.019 65.5289 28.019 66.5714V66.6035V66.6035ZM30.4832 66.4766V66.4446C30.4832 65.402 30.1529 64.5323 29.5369 63.9163C28.8093 63.1887 27.7194 62.7943 26.3117 62.7943H22.4718C21.793 62.7943 21.255 63.3323 21.255 64.0111V72.7333C21.255 73.4135 21.793 73.9501 22.4718 73.9501C23.1534 73.9501 23.6886 73.4135 23.6886 72.7333V70.3165H25.6329L28.0037 73.3187C28.288 73.6825 28.6518 73.9501 29.2038 73.9501C29.7891 73.9501 30.3578 73.5083 30.3578 72.8281C30.3578 72.4504 30.1989 72.1967 29.962 71.897L28.2727 69.8412C29.6149 69.2893 30.4832 68.2147 30.4832 66.4766M16.8312 66.6983C16.8312 67.646 16.1204 68.3722 14.9036 68.3722H12.976V64.9909H14.8562C16.073 64.9909 16.8312 65.5749 16.8312 66.6662V66.6983V66.6983ZM15.0611 62.7943H11.7592C11.0805 62.7943 10.5425 63.3323 10.5425 64.0111V72.7333C10.5425 73.4135 11.0805 73.9501 11.7592 73.9501C12.438 73.9501 12.976 73.4135 12.976 72.7333V70.5367H14.8242C17.3051 70.5367 19.2968 69.2098 19.2968 66.6495V66.6188C19.2968 64.3595 17.7009 62.7943 15.0611 62.7943Z" fill="#F5F5EA"/>
</svg>
