<?xml version="1.0" encoding="UTF-8"?>
<svg width="130px" height="85px" viewBox="0 0 130 85" version="1.1" xmlns="http://www.w3.org/2000/svg" xmlns:xlink="http://www.w3.org/1999/xlink">
    <!-- Generator: Sketch 64 (93537) - https://sketch.com -->
    <title>biodegradable</title>
    <desc>Created with Sketch.</desc>
    <g id="biodegradable" stroke="none" stroke-width="1" fill="none" fill-rule="evenodd">
        <g id="Group-5" transform="translate(36.000000, 9.000000)" fill="#FFFFFF">
            <path d="M12.9724885,25.4410245 C15.0473801,22.1992552 23.7838287,10.0380524 38.3984965,9.46855245 C38.3984965,9.46855245 26.2752448,13.9233497 23.3272682,19.4325769 C23.3272682,19.4325769 29.6346154,24.3669161 34.8929441,21.2996748 C40.1512727,18.2324336 45.0441469,8.8112028 60.307965,11.6594056 C54.6113252,-1.85116783 19.2461248,-6.52523776 18.533957,13.6312203 C16.4663276,15.8023951 12.5768136,19.7303287 10.3042017,23.8487203 C9.81130664,24.7424441 10.2945969,25.8723077 11.2857752,26.1159441 C11.3042822,26.1203951 11.3227892,26.1248462 11.3417647,26.1292972 C11.9731108,26.2724336 12.6234325,25.9863951 12.9724885,25.4410245" id="Fill-1"></path>
            <path d="M38.3762413,56.2367311 C34.531472,56.0607976 19.6311406,54.5753185 11.8307944,42.2034406 C11.8307944,42.2034406 21.7503084,50.4749654 27.995458,50.2734969 C27.995458,50.2734969 29.115014,42.3437657 23.8295105,39.3236119 C18.5439133,36.3036923 7.93846923,36.7766748 2.77337832,22.1338951 C-6.07905524,33.8225839 7.55591329,66.7868885 25.3681678,57.3251297 C28.2824336,58.0305038 33.6283776,59.4346927 38.3314965,59.3435633 C39.351958,59.323885 40.088958,58.3402031 39.8043252,57.359801 C39.7989371,57.3417626 39.793549,57.3234899 39.787458,57.3049829 C39.5960629,56.6865213 39.023049,56.2662486 38.3762413,56.2367311" id="Fill-2"></path>
            <path d="M52.3443357,18.838479 C54.1144476,22.2561818 60.2782133,35.9028636 53.4638916,48.8442182 C53.4638916,48.8442182 55.6676294,36.1179196 52.3703392,30.8103951 C52.3703392,30.8103951 44.9434126,33.8054825 44.9705874,39.8931119 C44.9979965,45.9803196 50.7100979,54.9285678 40.6118392,66.7229105 C55.1606783,68.5450294 76.8911678,40.2545839 59.7911748,29.5598846 C58.9447727,26.6833357 57.4878741,21.3514476 55.0573671,17.323951 C54.530035,16.4501399 53.3097448,16.3037238 52.6031993,17.0402552 C52.5900804,17.0540769 52.5769615,17.0678986 52.5638427,17.0821888 C52.1241259,17.5572797 52.0465839,18.2635909 52.3443357,18.838479" id="Fill-3"></path>
        </g>
    </g>
</svg>