<svg width="200" height="43" viewBox="0 0 200 43" fill="none" xmlns="http://www.w3.org/2000/svg">
<g clip-path="url(#clip0_1517_2114)">
<path d="M32.883 14.6311C32.325 14.3615 31.7837 14.04 31.2593 13.6667C30.3674 13.0306 29.8642 12.6795 29.7497 12.6133C25.9052 10.3793 21.2904 10.2785 17.7052 13.1481C17.3329 13.4464 16.801 13.5649 16.1097 13.5037C15.8173 13.3714 15.5413 13.1921 15.2815 12.9659C15.0761 12.7872 14.881 12.5299 14.6963 12.1941C13.1526 9.3921 11.6163 6.58766 10.0874 3.78074C9.82669 3.30272 9.68595 2.90568 9.66521 2.58963C9.5541 0.914076 10.8548 0.539261 12.2489 0.320002C21.4178 -1.12296 31.1274 2.7837 34.6652 11.8074C35.0474 12.7837 34.9852 13.6489 34.1037 14.2474C33.8143 14.443 33.4074 14.5709 32.883 14.6311Z" fill="#409436"/>
<path d="M167.551 8.37037C167.553 8.38101 167.557 8.391 167.564 8.39916C167.571 8.40732 167.58 8.41331 167.591 8.41642C167.601 8.41954 167.612 8.41965 167.622 8.41674C167.632 8.41383 167.642 8.40802 167.649 8.4C169.538 6.3526 172.111 4.86371 174.964 4.74371C176.058 4.6963 176.441 5.19704 176.216 6.2326C175.972 7.35062 175.741 8.47062 175.521 9.5926C175.391 10.2607 174.929 10.4519 174.265 10.44C171.881 10.3956 170.013 10.8059 168.345 12.603C168.076 12.8933 167.926 13.1556 167.926 13.5793C167.927 18.9047 167.926 24.2301 167.924 29.5556C167.924 30.5126 167.538 30.8163 166.6 30.8163C165.391 30.8153 164.184 30.8143 162.979 30.8133C162.199 30.8133 161.741 30.5867 161.741 29.7644C161.74 21.9936 161.74 14.2227 161.742 6.45186C161.742 5.83556 161.927 5.34815 162.601 5.34223C163.846 5.33037 165.09 5.32741 166.333 5.33334C166.985 5.3363 167.24 5.70667 167.302 6.3363C167.369 7.02272 167.452 7.70074 167.551 8.37037Z" fill="#006A9A"/>
<path d="M45.9274 16.1111C46.557 10.1304 50.6341 5.66074 56.7081 4.99852C59.7852 4.6637 63.6326 4.85185 66.3659 6.40296C66.6237 6.54914 66.7348 6.82173 66.6993 7.22074C66.6133 8.19457 66.4948 9.16346 66.3437 10.1274C66.2222 10.9007 65.7526 11.4074 64.9585 11.0341C60.0133 8.70963 53.6489 9.14963 52.2667 15.5319C51.7081 18.1141 51.9556 21.3985 53.5007 23.6178C56.117 27.3763 61.1733 26.8148 64.8785 25.2356C65.7437 24.8667 66.24 25.1541 66.3793 26.043C66.5254 26.9753 66.6351 27.9116 66.7081 28.8519C66.7481 29.3585 66.4948 29.6044 66.0518 29.8415C63.7111 31.0904 60.9763 31.3689 58.3318 31.2933C49.6104 31.0444 45.0578 24.357 45.9274 16.1111Z" fill="#006A9A"/>
<path d="M73.1007 19.0756C73.6399 23.1304 76.1288 25.8237 80.2133 26.3556C82.8222 26.6948 85.7999 26.0296 88.2444 25.1393C89.0429 24.8489 89.634 25.0474 89.7437 25.9259C89.9096 27.2523 89.9955 28.2405 90.0014 28.8904C90.0059 29.2711 89.6518 29.5556 89.2918 29.7052C85.2444 31.3867 80.3911 31.8519 76.1081 30.6489C69.437 28.7748 66.1037 22.6978 66.9659 16C67.7155 10.1674 71.6992 5.72 77.6577 4.97778C85.8607 3.95852 92.6148 9.43408 90.9955 18.1852C90.8622 18.9067 90.3851 19.0015 89.6977 19C84.1866 18.9951 78.6755 18.9961 73.1644 19.003C73.116 19.003 73.0948 19.0272 73.1007 19.0756ZM81.4044 9.9363C77.6073 9.1363 74.3362 11.1437 73.5422 14.9763C73.5323 15.0247 73.552 15.0489 73.6014 15.0489L85.1229 15.077C85.1335 15.0772 85.1441 15.0753 85.154 15.0714C85.1639 15.0674 85.1728 15.0616 85.1804 15.0541C85.188 15.0467 85.194 15.0378 85.1982 15.028C85.2023 15.0182 85.2044 15.0077 85.2044 14.997C85.2429 12.5659 83.8577 10.4519 81.4044 9.9363Z" fill="#006A9A"/>
<path d="M98.1334 7.45778C102.769 3.67556 109.956 3.84296 113.544 9.0237C113.576 9.07111 113.609 9.07161 113.642 9.02519C114.092 8.38519 114.392 7.98914 114.542 7.83704C117.153 5.18667 121.329 4.47704 124.924 5.05926C130.581 5.9763 133 10.557 133.13 15.843C133.198 18.5956 133.2 23.1837 133.138 29.6074C133.13 30.4133 132.868 30.8059 132.047 30.8104C130.772 30.8183 129.496 30.8183 128.219 30.8104C127.67 30.8074 127.173 30.6 127.119 30.0074C127.046 29.237 127.095 28.28 127.092 27.7185C127.069 23.9477 127.065 20.1773 127.079 16.4074C127.084 14.4844 126.727 11.9215 125.062 10.6963C122.736 8.98667 117.662 9.53037 116.452 12.4904C116.085 13.3881 115.903 14.4316 115.905 15.6207C115.912 20.2696 115.92 24.9185 115.929 29.5674C115.93 30.4178 115.679 30.8059 114.816 30.8104C113.557 30.8173 112.298 30.8227 111.039 30.8267C110.058 30.8311 109.927 30.2074 109.927 29.3496C109.925 25.0227 109.925 20.6963 109.926 16.3704C109.926 15.9032 109.857 15.1743 109.719 14.1837C109.437 12.1719 108.406 10.4385 106.322 9.9837C103.769 9.42667 100.895 9.86815 99.0474 11.8622C98.8371 12.0889 98.7408 12.2874 98.7408 12.6178C98.7418 18.276 98.7413 23.9343 98.7393 29.5926C98.7393 30.597 98.3008 30.8148 97.3497 30.8148C96.2336 30.8148 95.119 30.8148 94.006 30.8148C93.1319 30.8133 92.7052 30.5526 92.7052 29.6563C92.7032 21.9526 92.7032 14.2484 92.7052 6.5437C92.7052 5.69926 92.9585 5.34074 93.806 5.3363C94.7719 5.33235 95.7378 5.33284 96.7037 5.33778C97.8682 5.3437 97.8697 6.60148 98.0163 7.41482C98.0311 7.49482 98.0702 7.50914 98.1334 7.45778Z" fill="#006A9A"/>
<path d="M140.296 7.35704C140.299 7.37205 140.306 7.38597 140.317 7.3974C140.327 7.40884 140.34 7.41738 140.355 7.42219C140.369 7.42699 140.385 7.42788 140.4 7.42477C140.415 7.42165 140.429 7.41465 140.44 7.40445C142.19 5.86815 144.184 5.08445 146.545 4.8963C164.391 3.47408 165.148 31.9185 147.148 31.2933C144.61 31.2044 142.815 30.4326 140.784 29.0326C140.731 28.9961 140.705 29.0099 140.705 29.0741C140.703 32.7146 140.702 36.3511 140.701 39.9837C140.701 41.0193 140.772 41.7304 139.569 41.757C138.158 41.7896 136.918 41.7946 135.85 41.7719C134.99 41.7531 134.596 41.2973 134.667 40.4045C134.72 39.7358 134.734 38.8395 134.708 37.7156C134.633 34.4859 134.692 31.2578 134.689 28.0282C134.685 20.7936 134.686 13.559 134.693 6.32445C134.695 5.42223 135.255 5.33334 136.036 5.33186C137.083 5.33087 138.129 5.33334 139.175 5.33926C140.016 5.34519 140.167 6.73334 140.296 7.35704ZM146.905 9.79111C141.05 9.99704 139.812 16.1882 140.693 20.7422C141.467 24.7437 144.634 27.197 148.739 26.2548C153.72 25.1111 154.797 19.1022 153.668 14.9956C152.784 11.7748 150.372 9.66963 146.905 9.79111Z" fill="#006A9A"/>
<path d="M181.788 19.0844C182.185 23.0696 184.902 25.8652 188.879 26.3422C191.502 26.6578 194.31 26.0711 196.772 25.1881C197.667 24.8667 198.295 24.9422 198.413 25.9926C198.475 26.5348 198.547 27.4143 198.63 28.6311C198.67 29.2133 198.539 29.4444 197.991 29.6844C189.206 33.52 176.671 30.9259 175.573 19.6C174.945 13.1111 178.19 6.89481 184.813 5.25778C191.047 3.71703 198.453 6.45777 199.679 13.4341C199.982 15.1605 199.973 16.7783 199.653 18.2874C199.525 18.8933 198.975 19.0015 198.388 19C192.879 18.9951 187.37 18.996 181.861 19.003C181.806 19.003 181.782 19.0301 181.788 19.0844ZM190.222 9.96296C186.412 9.07555 183.002 11.0815 182.212 14.9867C182.201 15.038 182.221 15.0637 182.273 15.0637L193.796 15.0696C193.851 15.0696 193.879 15.0425 193.879 14.9881C193.905 12.6518 192.576 10.5096 190.222 9.96296Z" fill="#006A9A"/>
<path d="M73.5423 14.9763C74.3363 11.1437 77.6075 9.1363 81.4045 9.9363C83.8578 10.4519 85.243 12.5659 85.2045 14.997C85.2045 15.0077 85.2024 15.0182 85.1983 15.028C85.1941 15.0378 85.1881 15.0467 85.1805 15.0541C85.173 15.0616 85.164 15.0674 85.1541 15.0714C85.1442 15.0753 85.1336 15.0772 85.123 15.077L73.6015 15.0489C73.5521 15.0489 73.5324 15.0247 73.5423 14.9763Z" fill="#F7F7F7"/>
<path d="M140.693 20.7422C139.812 16.1881 141.05 9.99704 146.905 9.79111C150.372 9.66963 152.784 11.7748 153.668 14.9956C154.797 19.1022 153.72 25.1111 148.739 26.2548C144.634 27.197 141.467 24.7437 140.693 20.7422Z" fill="#F7F7F7"/>
<path d="M182.212 14.9867C183.001 11.0815 186.412 9.07555 190.222 9.96296C192.576 10.5096 193.905 12.6519 193.878 14.9881C193.878 15.0425 193.851 15.0696 193.796 15.0696L182.273 15.0637C182.221 15.0637 182.201 15.038 182.212 14.9867Z" fill="#F7F7F7"/>
<path d="M32.883 14.6311C32.401 15.4341 31.7837 15.6849 31.0311 15.3837C30.5807 15.203 30.1896 14.7644 29.803 14.4207C26.5274 11.5111 21.523 10.5615 17.9348 13.4815C17.3007 13.997 16.6992 14.1526 16.1096 13.5037C16.801 13.5649 17.3328 13.4464 17.7052 13.1481C21.2904 10.2785 25.9052 10.3793 29.7496 12.6133C29.8642 12.6795 30.3674 13.0306 31.2592 13.6667C31.7837 14.04 32.3249 14.3615 32.883 14.6311Z" fill="#26682D"/>
<path d="M7.41334 13.1467C7.54963 13.6 7.58618 13.9714 7.52297 14.2607C6.42519 19.2889 8.41482 25.0193 13.48 27.0696C14.2044 27.363 14.5526 27.9496 14.7911 28.6607C14.6805 29.2859 14.5506 29.717 14.4015 29.9541C12.7096 32.6583 11.0227 35.3635 9.34074 38.0696C8.9763 38.6563 8.64692 39.0558 8.3526 39.2682C7.0163 40.2311 5.96741 39.2889 5.10667 38.1807C-0.527404 30.9363 -2.03407 20.7541 3.95259 13.1926C4.35655 12.682 4.70371 12.3565 4.99408 12.2163C5.89482 11.7822 6.92 12.2815 7.41334 13.1467Z" fill="#409436"/>
<path d="M14.7911 28.6607C14.5525 27.9496 14.2044 27.363 13.48 27.0696C8.41477 25.0193 6.42514 19.2889 7.52292 14.2607C7.58613 13.9714 7.54958 13.6 7.41329 13.1467C8.61477 12.8356 9.63551 13.7674 9.29329 14.9956C8.06218 19.4178 9.38959 24.8948 14.1066 26.6607C15.1298 27.0439 15.358 27.7106 14.7911 28.6607Z" fill="#26682D"/>
<path d="M19.4755 35.8889C20.557 35.2904 21.8518 34.7511 22.7466 34.1911C26.2429 32.0044 28.4963 28.2637 27.9822 24.0563C27.9111 23.4706 27.9047 23.0637 27.9629 22.8356C28.0726 22.399 28.3111 21.9743 28.6785 21.5615C29.2582 21.3847 29.6617 21.2963 29.8888 21.2963C33.3456 21.2963 36.8024 21.2963 40.2592 21.2963C41.6163 21.2963 42.477 22.7126 42.0696 23.96C39.0503 33.2148 30.6074 40.6267 20.2963 38.8904C19.837 38.8133 19.3422 38.2593 19.1763 37.8119C18.9432 37.1827 19.0429 36.5417 19.4755 35.8889Z" fill="#409436"/>
<path d="M28.6785 21.5615C28.3111 21.9743 28.0726 22.399 27.9629 22.8356C27.9047 23.0637 27.9111 23.4706 27.9822 24.0563C28.4963 28.2637 26.2429 32.0044 22.7466 34.1911C21.8518 34.7511 20.557 35.2904 19.4755 35.8889C18.7348 34.7956 19.1481 33.7867 20.3377 33.4237C24.7333 32.0815 28.477 28.1363 27.5659 23.2385C27.4014 22.3556 27.6785 21.6548 28.6785 21.5615Z" fill="#26682D"/>
<path d="M47.5023 40.8696C45.523 39.0267 46.8326 35.7407 49.5912 35.9956C50.5912 36.0889 51.3097 36.6356 51.7289 37.523C51.7635 37.596 51.7403 37.6336 51.6593 37.6356L50.6341 37.6637C50.5847 37.6657 50.5433 37.6489 50.5097 37.6133C50.0712 37.163 49.5808 36.9817 49.0386 37.0696C47.2297 37.3644 47.1452 39.9393 48.8741 40.4207C49.4608 40.5837 49.9764 40.4365 50.4208 39.9793C50.4544 39.9447 50.4954 39.9259 50.5438 39.923L51.5467 39.877C51.7215 39.8691 51.765 39.9412 51.6771 40.0933C50.8267 41.5615 48.8534 42.1274 47.5023 40.8696Z" fill="#31A5D9"/>
<path d="M125.14 36.0519L124.42 36.0607C124.357 36.0615 124.306 36.1132 124.307 36.1762L124.315 36.8547C124.316 36.9176 124.368 36.9681 124.431 36.9673L125.151 36.9585C125.214 36.9578 125.264 36.9061 125.263 36.8431L125.255 36.1646C125.254 36.1016 125.203 36.0512 125.14 36.0519Z" fill="#31A5D9"/>
<path d="M182.64 36.0451L181.908 36.0527C181.855 36.0533 181.813 36.0962 181.814 36.1486L181.822 36.8744C181.822 36.9268 181.865 36.9688 181.917 36.9683L182.649 36.9606C182.702 36.96 182.744 36.9171 182.743 36.8648L182.735 36.1389C182.735 36.0865 182.692 36.0445 182.64 36.0451Z" fill="#31A5D9"/>
<path d="M195.004 36.0335L194.32 36.0406C194.263 36.0412 194.218 36.0875 194.218 36.1439L194.226 36.8669C194.227 36.9233 194.273 36.9686 194.329 36.968L195.014 36.9608C195.07 36.9602 195.115 36.914 195.115 36.8575L195.107 36.1346C195.107 36.0782 195.06 36.0329 195.004 36.0335Z" fill="#31A5D9"/>
<path d="M82.5969 36.0698L81.8058 36.0754C81.769 36.0756 81.7393 36.1057 81.7396 36.1425L81.7449 36.898C81.7451 36.9349 81.7752 36.9645 81.812 36.9642L82.6031 36.9587C82.6399 36.9585 82.6696 36.9284 82.6693 36.8916L82.664 36.136C82.6638 36.0992 82.6337 36.0696 82.5969 36.0698Z" fill="#31A5D9"/>
<path d="M93.88 39.2548L93.8563 40.3896C93.8561 40.4016 93.8583 40.4135 93.8628 40.4247C93.8672 40.4358 93.8739 40.4459 93.8823 40.4545C93.8907 40.463 93.9007 40.4698 93.9118 40.4745C93.9228 40.4791 93.9347 40.4815 93.9467 40.4815H95.6312C95.6546 40.4815 95.6772 40.4906 95.694 40.5069C95.7109 40.5232 95.7208 40.5454 95.7215 40.5689L95.7482 41.3511C95.7486 41.3632 95.7465 41.3753 95.7422 41.3866C95.7378 41.3979 95.7312 41.4082 95.7228 41.4169C95.7144 41.4256 95.7043 41.4326 95.6931 41.4373C95.6819 41.442 95.6699 41.4445 95.6578 41.4444H92.9023C92.8783 41.4444 92.8553 41.4349 92.8384 41.418C92.8214 41.401 92.8119 41.378 92.8119 41.3541L92.8193 36.1644C92.8193 36.1405 92.8288 36.1175 92.8458 36.1005C92.8627 36.0836 92.8857 36.0741 92.9097 36.0741H95.6504C95.6744 36.0741 95.6974 36.0836 95.7143 36.1005C95.7313 36.1175 95.7408 36.1405 95.7408 36.1644V36.9467C95.7408 36.9706 95.7313 36.9936 95.7143 37.0106C95.6974 37.0275 95.6744 37.037 95.6504 37.037H93.9319C93.9198 37.037 93.9078 37.0395 93.8966 37.0442C93.8854 37.0489 93.8754 37.0558 93.8669 37.0645C93.8585 37.0733 93.8519 37.0836 93.8475 37.0949C93.8432 37.1062 93.8411 37.1183 93.8415 37.1304L93.8771 38.1644C93.8778 38.1882 93.8879 38.2106 93.9051 38.227C93.9223 38.2433 93.9452 38.2523 93.9689 38.2519L95.6341 38.2104C95.646 38.2102 95.6578 38.2123 95.6688 38.2167C95.6799 38.221 95.6899 38.2275 95.6985 38.2358C95.707 38.244 95.7138 38.2539 95.7185 38.2648C95.7232 38.2757 95.7258 38.2874 95.726 38.2993L95.7452 39.0607C95.7454 39.0727 95.7432 39.0846 95.7388 39.0958C95.7343 39.1069 95.7277 39.1171 95.7193 39.1256C95.7109 39.1342 95.7008 39.1409 95.6898 39.1456C95.6787 39.1502 95.6668 39.1526 95.6549 39.1526L93.9689 39.1674C93.9457 39.1678 93.9236 39.1771 93.907 39.1933C93.8905 39.2096 93.8808 39.2316 93.88 39.2548Z" fill="#31A5D9"/>
<path d="M131.516 36.0726H130.742C130.7 36.0726 130.665 36.1071 130.665 36.1496V41.3674C130.665 41.41 130.7 41.4444 130.742 41.4444H131.516C131.558 41.4444 131.593 41.41 131.593 41.3674V36.1496C131.593 36.1071 131.558 36.0726 131.516 36.0726Z" fill="#31A5D9"/>
<path d="M166.158 36.077L165.349 36.0742C165.325 36.0741 165.306 36.0932 165.306 36.117L165.287 41.3999C165.287 41.4236 165.306 41.4429 165.33 41.443L166.139 41.4458C166.162 41.4459 166.182 41.4268 166.182 41.403L166.2 36.1201C166.2 36.0964 166.181 36.0771 166.158 36.077Z" fill="#31A5D9"/>
<path d="M170.084 39.0578C170.081 39.0519 170.077 39.0472 170.071 39.0445C170.065 39.0418 170.058 39.0413 170.052 39.043C170.045 39.0448 170.04 39.0487 170.036 39.0541C170.032 39.0595 170.03 39.066 170.031 39.0726L170.04 41.3496C170.04 41.4128 170.009 41.4444 169.947 41.4444H169.074C168.999 41.4444 168.961 41.4074 168.961 41.3333L168.981 36.157C168.981 36.0988 169.01 36.0696 169.068 36.0696C170.071 36.0726 171.57 35.8281 172.253 36.7244C172.972 37.6696 172.553 38.9363 171.41 39.3437C171.36 39.3615 171.349 39.3931 171.378 39.4385L172.628 41.3733C172.633 41.3803 172.635 41.3883 172.636 41.3966C172.636 41.4049 172.634 41.4131 172.63 41.4204C172.626 41.4277 172.62 41.4338 172.613 41.438C172.606 41.4422 172.598 41.4445 172.59 41.4444H171.489C171.438 41.4444 171.4 41.4217 171.375 41.3763L170.084 39.0578ZM170.027 37.0311L170.033 38.557C170.033 38.5853 170.044 38.6125 170.064 38.6325C170.084 38.6525 170.111 38.6637 170.139 38.6637L170.428 38.6622C170.577 38.6617 170.724 38.6406 170.862 38.6001C170.999 38.5596 171.124 38.5005 171.229 38.4262C171.334 38.3519 171.417 38.2639 171.473 38.1671C171.53 38.0703 171.559 37.9667 171.558 37.8622V37.7141C171.558 37.5031 171.437 37.3013 171.224 37.153C171.011 37.0046 170.723 36.9219 170.422 36.923L170.133 36.9244C170.105 36.9244 170.078 36.9357 170.058 36.9557C170.038 36.9757 170.027 37.0028 170.027 37.0311Z" fill="#31A5D9"/>
<path d="M188.738 36.0756H187.893C187.87 36.0756 187.852 36.0941 187.852 36.117V41.4C187.852 41.4229 187.87 41.4415 187.893 41.4415H188.738C188.761 41.4415 188.779 41.4229 188.779 41.4V36.117C188.779 36.0941 188.761 36.0756 188.738 36.0756Z" fill="#31A5D9"/>
<path d="M170.027 37.0311C170.027 37.0028 170.038 36.9757 170.058 36.9557C170.078 36.9357 170.105 36.9244 170.133 36.9244L170.422 36.923C170.723 36.9219 171.011 37.0046 171.224 37.153C171.437 37.3013 171.558 37.5031 171.558 37.7141V37.8622C171.559 37.9667 171.53 38.0703 171.473 38.1671C171.417 38.2639 171.334 38.3519 171.229 38.4262C171.124 38.5005 170.999 38.5596 170.862 38.6001C170.724 38.6406 170.577 38.6617 170.428 38.6622L170.139 38.6637C170.111 38.6637 170.084 38.6525 170.064 38.6325C170.044 38.6125 170.033 38.5853 170.033 38.557L170.027 37.0311Z" fill="#F7F7F7"/>
<path d="M56.2755 39.4044C56.2755 39.9695 56.0511 40.5113 55.6515 40.9108C55.252 41.3104 54.7102 41.5348 54.1451 41.5348C53.5801 41.5348 53.0383 41.3104 52.6387 40.9108C52.2392 40.5113 52.0148 39.9695 52.0148 39.4044C52.0148 39.1247 52.0699 38.8477 52.1769 38.5892C52.284 38.3307 52.4409 38.0959 52.6387 37.898C52.8366 37.7002 53.0714 37.5433 53.3299 37.4362C53.5884 37.3292 53.8654 37.2741 54.1451 37.2741C54.4249 37.2741 54.7019 37.3292 54.9604 37.4362C55.2189 37.5433 55.4537 37.7002 55.6515 37.898C55.8494 38.0959 56.0063 38.3307 56.1133 38.5892C56.2204 38.8477 56.2755 39.1247 56.2755 39.4044ZM54.1197 40.6146C54.4245 40.6209 54.7195 40.4989 54.9399 40.2754C55.1602 40.0519 55.2878 39.7451 55.2945 39.4226C55.2979 39.2629 55.2714 39.1042 55.2168 38.9554C55.1621 38.8067 55.0802 38.6708 54.9759 38.5557C54.8715 38.4405 54.7467 38.3483 54.6085 38.2843C54.4703 38.2202 54.3215 38.1857 54.1706 38.1825C53.8658 38.1761 53.5707 38.2981 53.3504 38.5216C53.1301 38.7452 53.0025 39.0519 52.9958 39.3744C52.9924 39.5341 53.0188 39.6929 53.0735 39.8416C53.1282 39.9904 53.21 40.1262 53.3144 40.2414C53.4188 40.3565 53.5436 40.4487 53.6818 40.5128C53.8199 40.5768 53.9687 40.6114 54.1197 40.6146Z" fill="#31A5D9"/>
<path d="M64.5941 37.6178C64.8741 37.4756 65.1215 37.3407 65.4163 37.2978C66.8504 37.0889 67.9423 38.3407 67.7748 39.7052C67.5793 41.2963 65.8756 41.9793 64.5363 41.2074C64.4751 41.1719 64.4445 41.1896 64.4445 41.2607V42.6667C64.4445 42.7161 64.4198 42.7407 64.3704 42.7407H63.5926C63.5432 42.7407 63.5186 42.7161 63.5186 42.6667V37.4904C63.5186 37.4459 63.5408 37.4222 63.5852 37.4193L64.286 37.3689C64.3393 37.3659 64.3778 37.3882 64.4015 37.4356L64.4756 37.5793C64.4808 37.5896 64.488 37.5989 64.4968 37.6065C64.5055 37.614 64.5158 37.6198 64.5268 37.6234C64.5378 37.6269 64.5494 37.6283 64.561 37.6273C64.5726 37.6264 64.5838 37.6231 64.5941 37.6178ZM66.8252 39.4044C66.8252 39.0925 66.7013 38.7933 66.4807 38.5727C66.2601 38.3521 65.9609 38.2282 65.6489 38.2282C65.337 38.2282 65.0378 38.3521 64.8172 38.5727C64.5966 38.7933 64.4726 39.0925 64.4726 39.4044C64.4726 39.7164 64.5966 40.0156 64.8172 40.2362C65.0378 40.4568 65.337 40.5807 65.6489 40.5807C65.9609 40.5807 66.2601 40.4568 66.4807 40.2362C66.7013 40.0156 66.8252 39.7164 66.8252 39.4044Z" fill="#31A5D9"/>
<path d="M74.437 39.4015C74.437 39.9661 74.2127 40.5076 73.8134 40.9068C73.4142 41.3061 72.8727 41.5304 72.3081 41.5304C71.7435 41.5304 71.202 41.3061 70.8027 40.9068C70.4035 40.5076 70.1792 39.9661 70.1792 39.4015C70.1792 38.8369 70.4035 38.2954 70.8027 37.8961C71.202 37.4969 71.7435 37.2726 72.3081 37.2726C72.8727 37.2726 73.4142 37.4969 73.8134 37.8961C74.2127 38.2954 74.437 38.8369 74.437 39.4015ZM72.2916 40.6133C72.4433 40.6146 72.5938 40.5845 72.7346 40.5248C72.8753 40.4651 73.0035 40.3768 73.1117 40.2651C73.22 40.1533 73.3063 40.0203 73.3657 39.8736C73.425 39.7269 73.4563 39.5694 73.4577 39.4101C73.4591 39.2508 73.4306 39.0927 73.3738 38.945C73.317 38.7973 73.233 38.6628 73.1267 38.5492C73.0204 38.4356 72.8938 38.3451 72.7541 38.2829C72.6145 38.2207 72.4645 38.188 72.3128 38.1867C72.161 38.1854 72.0105 38.2155 71.8697 38.2752C71.729 38.335 71.6009 38.4232 71.4926 38.5349C71.3843 38.6467 71.298 38.7797 71.2387 38.9264C71.1793 39.0731 71.148 39.2306 71.1466 39.3899C71.1453 39.5492 71.1738 39.7073 71.2306 39.855C71.2873 40.0027 71.3713 40.1372 71.4776 40.2508C71.5839 40.3644 71.7105 40.4549 71.8502 40.5171C71.9898 40.5793 72.1398 40.612 72.2916 40.6133Z" fill="#31A5D9"/>
<path d="M90.2993 39.4044C90.2993 39.9695 90.0749 40.5113 89.6753 40.9108C89.2758 41.3104 88.734 41.5348 88.1689 41.5348C87.6039 41.5348 87.0621 41.3104 86.6625 40.9108C86.263 40.5113 86.0386 39.9695 86.0386 39.4044C86.0386 39.1247 86.0937 38.8477 86.2007 38.5892C86.3078 38.3307 86.4647 38.0959 86.6625 37.898C86.8604 37.7002 87.0952 37.5433 87.3537 37.4362C87.6122 37.3292 87.8892 37.2741 88.1689 37.2741C88.4487 37.2741 88.7257 37.3292 88.9842 37.4362C89.2427 37.5433 89.4775 37.7002 89.6753 37.898C89.8732 38.0959 90.0301 38.3307 90.1372 38.5892C90.2442 38.8477 90.2993 39.1247 90.2993 39.4044ZM88.1171 40.611C88.2681 40.6166 88.4189 40.5907 88.5607 40.5349C88.7025 40.4791 88.8326 40.3944 88.9435 40.2857C89.0545 40.1771 89.1441 40.0465 89.2073 39.9015C89.2705 39.7565 89.306 39.5999 89.3119 39.4407C89.3177 39.2815 89.2937 39.1227 89.2413 38.9735C89.1889 38.8242 89.1091 38.6875 89.0064 38.571C88.9037 38.4545 88.7802 38.3605 88.6428 38.2944C88.5055 38.2284 88.3571 38.1915 88.206 38.186C88.0549 38.1805 87.9042 38.2063 87.7624 38.2622C87.6206 38.318 87.4905 38.4026 87.3796 38.5113C87.2686 38.62 87.179 38.7506 87.1158 38.8955C87.0526 39.0405 87.017 39.1971 87.0112 39.3563C87.0054 39.5156 87.0293 39.6743 87.0817 39.8236C87.1342 39.9728 87.214 40.1096 87.3167 40.2261C87.4194 40.3426 87.5429 40.4366 87.6802 40.5026C87.8176 40.5687 87.966 40.6055 88.1171 40.611Z" fill="#31A5D9"/>
<path d="M110.893 39.7822C111.024 40.8089 112.32 40.8652 112.924 40.2015C112.956 40.1659 112.996 40.1481 113.044 40.1481H113.884C113.941 40.1481 113.958 40.1738 113.935 40.2252C112.847 42.6741 109.348 41.3822 109.978 38.8785C110.625 36.3022 114.393 37.0711 114.09 39.6252C114.088 39.6469 114.077 39.6669 114.061 39.6814C114.045 39.6959 114.023 39.7039 114.002 39.7037H110.963C110.91 39.7037 110.886 39.7299 110.893 39.7822ZM110.984 38.9689L113.016 38.957C113.022 38.957 113.027 38.9549 113.031 38.951C113.035 38.9471 113.037 38.9418 113.037 38.9363V38.9244C113.036 38.7188 112.928 38.5222 112.736 38.3778C112.545 38.2333 112.286 38.1529 112.016 38.1541H111.978C111.844 38.1547 111.712 38.1754 111.588 38.215C111.465 38.2547 111.353 38.3125 111.258 38.3851C111.164 38.4578 111.089 38.5439 111.039 38.6384C110.988 38.733 110.962 38.8342 110.963 38.9363V38.9481C110.963 38.9536 110.965 38.9589 110.969 38.9628C110.973 38.9667 110.978 38.9689 110.984 38.9689Z" fill="#31A5D9"/>
<path d="M161.603 39.7867C161.791 40.8104 163.074 40.8667 163.668 40.2015C163.7 40.1659 163.74 40.1481 163.788 40.1481H164.591C164.667 40.1481 164.689 40.1827 164.656 40.2519C163.729 42.203 160.976 41.8474 160.644 39.7304C160.176 36.7437 164.944 36.2904 164.825 39.6193C164.824 39.6419 164.815 39.6634 164.799 39.6792C164.782 39.6949 164.76 39.7037 164.738 39.7037H161.671C161.661 39.7037 161.651 39.706 161.642 39.7104C161.633 39.7147 161.625 39.7211 161.618 39.729C161.612 39.7369 161.607 39.7461 161.604 39.7561C161.602 39.7661 161.601 39.7765 161.603 39.7867ZM161.699 38.9659L163.747 38.9719C163.75 38.9719 163.753 38.9712 163.756 38.97C163.759 38.9689 163.761 38.9671 163.763 38.9649C163.766 38.9627 163.767 38.9601 163.769 38.9572C163.77 38.9543 163.77 38.9513 163.77 38.9481V38.9393C163.771 38.7311 163.664 38.5312 163.472 38.3835C163.281 38.2357 163.021 38.1521 162.75 38.1511H162.702C162.568 38.1506 162.434 38.1705 162.31 38.2095C162.186 38.2486 162.072 38.3061 161.977 38.3787C161.882 38.4514 161.806 38.5377 161.754 38.6329C161.703 38.7281 161.676 38.8302 161.676 38.9333V38.9422C161.676 38.9485 161.678 38.9545 161.682 38.959C161.687 38.9634 161.693 38.9659 161.699 38.9659Z" fill="#31A5D9"/>
<path d="M173.732 39.8059C173.886 40.843 175.17 40.8326 175.77 40.2C175.804 40.1654 175.845 40.1482 175.893 40.1482H176.698C176.768 40.1482 176.789 40.1803 176.76 40.2444C176.179 41.4993 174.844 41.9111 173.683 41.1837C172.427 40.397 172.406 38.5067 173.642 37.6445C175.15 36.5926 177.067 37.8089 176.905 39.6489C176.901 39.6854 176.881 39.7037 176.844 39.7037H173.821C173.751 39.7037 173.721 39.7378 173.732 39.8059ZM173.81 38.9689L175.861 38.9719C175.867 38.9719 175.874 38.9692 175.879 38.9645C175.883 38.9598 175.886 38.9534 175.886 38.9467V38.9363C175.886 38.8331 175.86 38.7309 175.808 38.6355C175.757 38.5402 175.681 38.4535 175.586 38.3804C175.491 38.3073 175.378 38.2494 175.253 38.2098C175.129 38.1702 174.995 38.1497 174.861 38.1496H174.81C174.539 38.1494 174.278 38.2319 174.086 38.3788C173.894 38.5258 173.785 38.7252 173.785 38.9333V38.9437C173.785 38.9504 173.788 38.9568 173.793 38.9615C173.797 38.9662 173.804 38.9689 173.81 38.9689Z" fill="#31A5D9"/>
<path d="M181.261 40.0652C180.524 42.3363 177.227 41.8163 177.15 39.5037C177.067 37.0415 180.621 36.363 181.28 38.7556C181.283 38.7666 181.284 38.7782 181.282 38.7895C181.28 38.8009 181.275 38.8115 181.268 38.8207C181.261 38.8299 181.252 38.8374 181.242 38.8425C181.232 38.8477 181.22 38.8504 181.209 38.8504L180.487 38.8518C180.431 38.8528 180.382 38.8346 180.339 38.797C180.19 38.6681 180.074 38.4637 179.916 38.3763C178.324 37.5007 177.446 39.8533 178.769 40.4785C179.359 40.757 179.865 40.6109 180.289 40.04C180.327 39.9886 180.378 39.963 180.441 39.963H181.187C181.199 39.9631 181.211 39.9661 181.222 39.9717C181.233 39.9773 181.242 39.9855 181.249 39.9954C181.257 40.0053 181.261 40.0168 181.263 40.029C181.265 40.0411 181.264 40.0535 181.261 40.0652Z" fill="#31A5D9"/>
<path d="M183.975 41.0667C182.621 39.9541 183.163 37.6415 184.923 37.3081C186.006 37.1022 186.964 37.6593 187.33 38.7111C187.351 38.7704 187.33 38.8015 187.268 38.8044L186.473 38.843C186.455 38.8439 186.438 38.8412 186.422 38.8351C186.406 38.829 186.391 38.8195 186.379 38.8074C186.215 38.64 186.093 38.4237 185.88 38.3304C184.204 37.6 183.501 40.0222 184.927 40.5244C185.495 40.7239 185.97 40.5585 186.351 40.0281C186.386 39.9807 186.433 39.9575 186.492 39.9585L187.249 39.9733C187.321 39.9753 187.345 40.0099 187.32 40.077C186.821 41.477 185.185 42.0622 183.975 41.0667Z" fill="#31A5D9"/>
<path d="M196.677 39.7763C196.779 40.8281 198.116 40.8593 198.707 40.1985C198.736 40.1649 198.773 40.1481 198.818 40.1481H199.554C199.74 40.1481 199.781 40.2257 199.679 40.3807C199.087 41.2756 198.352 41.6494 197.474 41.5022C195.578 41.1852 194.991 38.7585 196.604 37.6474C198.127 36.597 199.985 37.8222 199.853 39.6341C199.849 39.6805 199.825 39.7037 199.779 39.7037H196.742C196.694 39.7037 196.672 39.7279 196.677 39.7763ZM196.769 38.963H198.787C198.792 38.963 198.797 38.9608 198.801 38.9569C198.805 38.953 198.807 38.9477 198.807 38.9422V38.9289C198.807 38.8264 198.781 38.7248 198.73 38.6301C198.68 38.5354 198.605 38.4493 198.511 38.3768C198.417 38.3043 198.306 38.2468 198.183 38.2076C198.06 38.1683 197.928 38.1481 197.796 38.1481H197.76C197.492 38.1481 197.234 38.2304 197.045 38.3768C196.855 38.5232 196.748 38.7218 196.748 38.9289V38.9422C196.748 38.9477 196.75 38.953 196.754 38.9569C196.758 38.9608 196.763 38.963 196.769 38.963Z" fill="#31A5D9"/>
<path d="M61.8489 38.6459C61.6089 38.1052 60.8533 38.0681 60.5392 38.5215C60.1644 39.0578 60.28 40.7022 60.3052 41.36C60.3071 41.4163 60.28 41.4444 60.2237 41.4444H59.4459C59.3827 41.4444 59.3526 41.4133 59.3555 41.3511C59.3871 40.563 59.3782 39.7798 59.3289 39.0015C59.2755 38.1867 58.3866 37.9556 57.8592 38.5244C57.5022 38.9111 57.6267 40.7748 57.6311 41.3407C57.6321 41.4099 57.5975 41.4444 57.5274 41.4444H56.8148C56.7654 41.4444 56.7407 41.4198 56.7407 41.3704V37.4889C56.7407 37.4435 56.7629 37.4198 56.8074 37.4178L57.5392 37.3793C57.5509 37.3787 57.5625 37.3804 57.5735 37.3845C57.5844 37.3885 57.5944 37.3948 57.6029 37.4028C57.6113 37.4108 57.6181 37.4205 57.6227 37.4312C57.6273 37.442 57.6296 37.4535 57.6296 37.4652V37.7037C57.6299 37.7179 57.6343 37.7316 57.6424 37.7432C57.6505 37.7548 57.6619 37.7637 57.6751 37.7688C57.6883 37.7739 57.7028 37.7749 57.7166 37.7718C57.7303 37.7686 57.7429 37.7614 57.7526 37.7511L57.9452 37.5393C57.9783 37.5023 58.02 37.4738 58.0667 37.4563C58.8696 37.1521 59.5471 37.3091 60.0992 37.9274C60.1338 37.9659 60.1738 37.9719 60.2192 37.9452C60.2578 37.9215 60.2864 37.8914 60.3052 37.8548C60.3249 37.8143 60.3511 37.7788 60.3837 37.7481C61.4192 36.7956 62.8444 37.4622 62.8992 38.8444C62.9328 39.6859 62.9392 40.5284 62.9185 41.3719C62.9165 41.4202 62.8918 41.4444 62.8444 41.4444H62.0444C61.9921 41.4444 61.9659 41.4188 61.9659 41.3674C61.9585 40.6696 62.1126 39.2415 61.8489 38.6459Z" fill="#31A5D9"/>
<path d="M75.8889 37.7052C76.7304 37.0938 77.523 37.163 78.2667 37.9126C78.3062 37.9511 78.3477 37.9536 78.3911 37.92C78.5304 37.8104 78.6504 37.6356 78.7852 37.5467C79.8445 36.8415 81.0341 37.6711 81.0711 38.8815C81.0948 39.7042 81.0909 40.5289 81.0593 41.3556C81.0573 41.4158 81.0257 41.4459 80.9645 41.4459L80.2222 41.4444C80.1571 41.4435 80.126 41.4104 80.1289 41.3452C80.1813 40.3022 80.1645 39.4474 80.0786 38.7807C79.9748 37.9763 78.6667 38.0163 78.5185 38.9615C78.4326 39.5106 78.4134 40.3077 78.4608 41.3526C78.4627 41.4138 78.4331 41.4444 78.3719 41.4444H77.5956C77.5763 41.4444 77.5579 41.4368 77.5443 41.4232C77.5306 41.4096 77.523 41.3911 77.523 41.3718C77.5161 40.64 77.5121 39.9121 77.5111 39.1881C77.5082 37.8874 75.9215 37.8326 75.8193 39.2489C75.7679 39.9501 75.7576 40.6533 75.7882 41.3585C75.7902 41.4158 75.7625 41.4444 75.7052 41.4444H74.963C74.9136 41.4444 74.8889 41.4197 74.8889 41.3704V37.5259C74.8889 37.4568 74.9235 37.4207 74.9926 37.4178L75.6741 37.3807C75.7034 37.3796 75.7321 37.3892 75.7545 37.4075C75.777 37.4258 75.7916 37.4517 75.7956 37.48L75.8252 37.6785C75.8321 37.722 75.8534 37.7309 75.8889 37.7052Z" fill="#31A5D9"/>
<path d="M84.9037 40.1259C84.5837 39.443 82.9911 39.6578 83.3245 38.2933C83.6622 36.9126 85.6385 36.923 85.6904 38.4178C85.6914 38.4602 85.6706 38.4815 85.6282 38.4815H85.0282C85.0041 38.4815 84.9804 38.475 84.9598 38.4627C84.9392 38.4505 84.9224 38.4329 84.9111 38.4118L84.7822 38.1659C84.7566 38.1175 84.718 38.0859 84.6667 38.0711C84.4346 38.0059 84.2627 38.081 84.1511 38.2963C84.1294 38.3383 84.1169 38.3844 84.1145 38.4316C84.1121 38.4789 84.1199 38.5261 84.1373 38.57C84.1547 38.614 84.1813 38.6537 84.2154 38.6865C84.2495 38.7192 84.2902 38.7443 84.3348 38.76C84.8356 38.9363 85.5008 39.203 85.7126 39.723C86.4682 41.5733 83.2815 42.4252 83.1215 40.1941C83.1175 40.1397 83.1427 40.1116 83.1971 40.1096L83.877 40.0756C83.902 40.0744 83.9266 40.0823 83.9462 40.0978C83.9658 40.1134 83.9791 40.1354 83.9837 40.16L84.04 40.4711C84.0458 40.5001 84.0597 40.5263 84.08 40.5467C84.5096 40.9704 85.12 40.5867 84.9037 40.1259Z" fill="#31A5D9"/>
<path d="M97.3437 37.6815C97.3458 37.6953 97.3519 37.7082 97.3612 37.7186C97.3704 37.7291 97.3825 37.7366 97.396 37.7404C97.4094 37.7441 97.4236 37.7439 97.437 37.7398C97.4503 37.7356 97.4622 37.7277 97.4711 37.717C98.0874 36.9748 99.2652 37.3141 99.8059 37.9274C99.8425 37.9699 99.8785 37.9694 99.9141 37.9259C100.942 36.7022 102.57 37.3852 102.618 38.917C102.642 39.7358 102.643 40.5551 102.619 41.3748C102.617 41.4212 102.593 41.4444 102.547 41.4444H101.747C101.694 41.4444 101.668 41.4183 101.668 41.3659C101.667 40.6963 101.933 38.4548 101.113 38.2459C99.6252 37.8667 99.9867 40.6237 100.006 41.3585C100.006 41.3697 100.004 41.3808 100 41.3912C99.9963 41.4016 99.9902 41.4111 99.9823 41.4191C99.9744 41.4271 99.965 41.4335 99.9545 41.4378C99.9441 41.4422 99.9328 41.4444 99.9215 41.4444H99.1496C99.0914 41.4444 99.0627 41.4148 99.0637 41.3556C99.0924 40.4084 99.083 39.6237 99.0356 39.0015C98.9496 37.8489 97.4222 37.9822 97.3467 39.1985C97.3269 39.5077 97.3245 40.2281 97.3393 41.36C97.3393 41.3824 97.3304 41.4039 97.3145 41.4197C97.2987 41.4355 97.2772 41.4444 97.2548 41.4444H96.5185C96.4691 41.4444 96.4445 41.4198 96.4445 41.3704V37.4681C96.4445 37.4555 96.447 37.443 96.4518 37.4313C96.4566 37.4196 96.4637 37.409 96.4727 37.4001C96.4816 37.3911 96.4922 37.384 96.5039 37.3792C96.5156 37.3743 96.5281 37.3719 96.5408 37.3719L97.2045 37.3689C97.2667 37.3689 97.3022 37.4 97.3111 37.4622L97.3437 37.6815Z" fill="#31A5D9"/>
<path d="M104.307 37.6074C105.354 37.0504 106.569 37.2385 107.173 38.2711C108.333 40.2533 106.212 42.3911 104.227 41.1822C104.174 41.1496 104.148 41.1644 104.148 41.2267V42.6667C104.148 42.716 104.123 42.7407 104.074 42.7407H103.296C103.247 42.7407 103.222 42.716 103.222 42.6667V37.4815C103.222 37.4074 103.259 37.3704 103.333 37.3704H104.01C104.034 37.3704 104.058 37.377 104.079 37.3895C104.099 37.4021 104.116 37.42 104.127 37.4415L104.196 37.5733C104.221 37.6227 104.258 37.6341 104.307 37.6074ZM105.341 40.5955C105.648 40.5982 105.944 40.4751 106.164 40.2534C106.383 40.0316 106.508 39.7294 106.511 39.4131C106.512 39.2565 106.484 39.1011 106.427 38.9559C106.37 38.8107 106.285 38.6785 106.179 38.5669C106.072 38.4552 105.945 38.3662 105.805 38.3051C105.664 38.2439 105.514 38.2117 105.361 38.2104C105.054 38.2077 104.758 38.3308 104.538 38.5525C104.319 38.7743 104.194 39.0766 104.191 39.3928C104.19 39.5495 104.218 39.7048 104.275 39.85C104.332 39.9952 104.417 40.1274 104.523 40.2391C104.63 40.3507 104.757 40.4397 104.898 40.5009C105.038 40.562 105.188 40.5942 105.341 40.5955Z" fill="#31A5D9"/>
<path d="M115.948 39.9259C115.317 39.6207 114.498 39.3941 114.483 38.5348C114.458 37.0415 116.824 36.7615 116.907 38.4163C116.909 38.4598 116.888 38.4815 116.844 38.4815H116.225C116.179 38.4815 116.144 38.4612 116.122 38.4207C115.953 38.1126 115.541 37.7748 115.351 38.2904C115.19 38.7289 115.911 38.8978 116.184 39.037C116.887 39.397 117.247 40.0519 116.862 40.8282C116.247 42.0622 114.409 41.6252 114.333 40.2015C114.33 40.1442 114.357 40.1136 114.413 40.1096L115.053 40.0637C115.076 40.0625 115.099 40.0693 115.118 40.0828C115.137 40.0963 115.15 40.1157 115.156 40.1378L115.261 40.5496C115.264 40.5592 115.269 40.5675 115.277 40.5733C115.582 40.8242 115.85 40.8049 116.081 40.5156C116.118 40.4702 116.143 40.4173 116.156 40.3607C116.169 40.3041 116.17 40.2453 116.157 40.1887C116.144 40.132 116.119 40.079 116.082 40.0335C116.046 39.988 116 39.9512 115.948 39.9259Z" fill="#31A5D9"/>
<path d="M120.529 41.0889C120.289 41.2637 120.133 41.4341 119.831 41.4815C118.881 41.6286 118.157 41.36 117.661 40.6756C117.041 39.8222 117.113 38.5556 117.899 37.8252C118.566 37.2059 119.767 37.04 120.489 37.717C120.559 37.7822 120.601 37.7674 120.615 37.6726L120.638 37.4978C120.645 37.4464 120.675 37.4193 120.726 37.4163L121.398 37.3704C121.414 37.3694 121.429 37.3715 121.444 37.3767C121.458 37.3819 121.472 37.3901 121.483 37.4006C121.494 37.4112 121.503 37.4239 121.509 37.4381C121.515 37.4523 121.519 37.4675 121.518 37.483V41.3704C121.518 41.4198 121.494 41.4444 121.444 41.4444H120.701C120.63 41.4444 120.596 41.4089 120.6 41.3378L120.612 41.1348C120.613 41.1248 120.611 41.1148 120.606 41.1059C120.601 41.097 120.594 41.0897 120.585 41.0849C120.576 41.08 120.566 41.0778 120.556 41.0785C120.546 41.0792 120.537 41.0828 120.529 41.0889ZM120.502 39.3941C120.502 39.0884 120.381 38.7952 120.165 38.5791C119.948 38.3629 119.655 38.2415 119.35 38.2415C119.044 38.2415 118.751 38.3629 118.535 38.5791C118.318 38.7952 118.197 39.0884 118.197 39.3941C118.197 39.6998 118.318 39.9929 118.535 40.2091C118.751 40.4252 119.044 40.5467 119.35 40.5467C119.655 40.5467 119.948 40.4252 120.165 40.2091C120.381 39.9929 120.502 39.6998 120.502 39.3941Z" fill="#31A5D9"/>
<path d="M128.939 41.0978C128.687 41.3348 128.493 41.477 128.136 41.5081C124.833 41.7985 125.003 36.8874 128.11 37.3082C128.408 37.3486 128.678 37.481 128.92 37.7052C128.928 37.7131 128.938 37.7187 128.949 37.7215C128.96 37.7242 128.972 37.724 128.982 37.7209C128.993 37.7177 129.003 37.7117 129.011 37.7035C129.019 37.6952 129.024 37.6851 129.027 37.6741L129.081 37.4563C129.098 37.3882 129.142 37.3565 129.212 37.3615L129.908 37.403C129.969 37.4069 130 37.4395 130 37.5007V41.3289C130 41.4069 129.961 41.4459 129.883 41.4459L129.118 41.4444C129.106 41.4443 129.093 41.4413 129.081 41.4357C129.07 41.43 129.06 41.4218 129.052 41.4117C129.044 41.4016 129.038 41.3899 129.035 41.3773C129.033 41.3648 129.033 41.3518 129.036 41.3393L129.073 41.1733C129.076 41.1566 129.075 41.139 129.068 41.1233C129.061 41.1075 129.049 41.0944 129.034 41.086C129.019 41.0775 129.002 41.074 128.985 41.0762C128.968 41.0783 128.952 41.0859 128.939 41.0978ZM127.941 40.5576C128.089 40.5415 128.233 40.4955 128.363 40.4223C128.494 40.349 128.609 40.2499 128.702 40.1306C128.795 40.0113 128.864 39.8742 128.905 39.727C128.947 39.5799 128.96 39.4256 128.943 39.273C128.926 39.1204 128.881 38.9725 128.809 38.8376C128.737 38.7028 128.64 38.5837 128.523 38.4872C128.407 38.3907 128.273 38.3186 128.13 38.2751C127.987 38.2315 127.837 38.2174 127.689 38.2335C127.54 38.2496 127.397 38.2956 127.266 38.3689C127.136 38.4421 127.021 38.5412 126.928 38.6605C126.835 38.7798 126.766 38.9169 126.724 39.0641C126.683 39.2112 126.67 39.3655 126.687 39.5181C126.703 39.6707 126.749 39.8187 126.821 39.9535C126.893 40.0883 126.99 40.2074 127.106 40.3039C127.223 40.4004 127.356 40.4725 127.5 40.5161C127.643 40.5596 127.793 40.5737 127.941 40.5576Z" fill="#31A5D9"/>
<path d="M143.518 37.6207C145.284 36.5763 147.31 38.2504 146.597 40.1259C146.087 41.4681 144.751 41.8978 143.49 41.2104C143.424 41.1738 143.391 41.1936 143.39 41.2696L143.379 42.6252C143.379 42.656 143.366 42.6854 143.345 42.707C143.323 42.7286 143.294 42.7407 143.264 42.7407H142.597C142.52 42.7407 142.481 42.7022 142.481 42.6252V37.477C142.481 37.4561 142.49 37.4359 142.504 37.421C142.519 37.406 142.539 37.3974 142.56 37.397L143.267 37.3896C143.279 37.3897 143.292 37.393 143.303 37.3992C143.314 37.4054 143.323 37.4144 143.329 37.4252L143.43 37.597C143.451 37.6346 143.481 37.6425 143.518 37.6207ZM145.769 39.4044C145.769 39.25 145.738 39.097 145.679 38.9543C145.62 38.8116 145.534 38.6819 145.424 38.5727C145.315 38.4634 145.185 38.3768 145.043 38.3177C144.9 38.2586 144.747 38.2281 144.593 38.2281C144.281 38.2281 143.981 38.3521 143.761 38.5727C143.54 38.7933 143.416 39.0925 143.416 39.4044C143.416 39.7164 143.54 40.0156 143.761 40.2362C143.981 40.4568 144.281 40.5807 144.593 40.5807C144.747 40.5807 144.9 40.5503 145.043 40.4912C145.185 40.4321 145.315 40.3454 145.424 40.2362C145.534 40.127 145.62 39.9973 145.679 39.8546C145.738 39.7119 145.769 39.5589 145.769 39.4044Z" fill="#31A5D9"/>
<path d="M150.366 37.7259L150.375 37.4548C150.375 37.4416 150.378 37.4286 150.384 37.4165C150.389 37.4045 150.397 37.3937 150.407 37.3849C150.417 37.376 150.428 37.3692 150.441 37.365C150.453 37.3607 150.467 37.359 150.48 37.36L151.167 37.4104C151.229 37.4153 151.259 37.4484 151.259 37.5096V41.3289C151.259 41.4059 151.221 41.4444 151.144 41.4444H150.47C150.445 41.4444 150.42 41.4345 150.403 41.4168C150.385 41.3991 150.374 41.375 150.373 41.3496L150.369 41.1096C150.367 41.0128 150.333 41.0005 150.267 41.0726C149.94 41.4281 149.494 41.5758 148.929 41.5156C146.015 41.2015 146.56 36.7852 149.554 37.3393C149.856 37.3956 150.086 37.5368 150.244 37.763C150.252 37.7746 150.264 37.7833 150.277 37.788C150.291 37.7926 150.305 37.7929 150.319 37.7888C150.332 37.7847 150.344 37.7764 150.353 37.7651C150.361 37.7538 150.366 37.7401 150.366 37.7259ZM150.255 39.3941C150.255 39.0884 150.133 38.7952 149.917 38.5791C149.701 38.3629 149.408 38.2415 149.102 38.2415C148.796 38.2415 148.503 38.3629 148.287 38.5791C148.071 38.7952 147.95 39.0884 147.95 39.3941C147.95 39.6998 148.071 39.9929 148.287 40.2091C148.503 40.4252 148.796 40.5467 149.102 40.5467C149.408 40.5467 149.701 40.4252 149.917 40.2091C150.133 39.9929 150.255 39.6998 150.255 39.3941Z" fill="#31A5D9"/>
<path d="M157.181 37.6859L157.187 37.48C157.187 37.4507 157.2 37.4228 157.221 37.4023C157.242 37.3818 157.27 37.3704 157.299 37.3704H158.027C158.093 37.3704 158.126 37.404 158.126 37.4711L158.105 41.3733C158.105 41.4207 158.081 41.4444 158.034 41.4444H157.286C157.261 41.4445 157.236 41.4347 157.218 41.4172C157.2 41.3997 157.19 41.376 157.19 41.3511L157.184 41.1452C157.183 41.1329 157.179 41.121 157.172 41.111C157.165 41.1009 157.155 41.0932 157.144 41.0886C157.132 41.0841 157.12 41.0829 157.108 41.0853C157.095 41.0878 157.084 41.0936 157.076 41.1022C156.843 41.3363 156.605 41.4711 156.361 41.5067C153.556 41.9111 152.843 37.9096 155.502 37.3156C156.121 37.1773 156.649 37.3141 157.084 37.7259C157.147 37.7852 157.179 37.7719 157.181 37.6859ZM156.072 40.5597C156.22 40.5444 156.363 40.4991 156.494 40.4264C156.625 40.3537 156.74 40.255 156.833 40.1359C156.927 40.0169 156.997 39.8798 157.039 39.7325C157.081 39.5852 157.094 39.4306 157.078 39.2776C157.063 39.1245 157.018 38.9759 156.946 38.8404C156.875 38.7048 156.779 38.5849 156.663 38.4875C156.547 38.39 156.414 38.317 156.271 38.2726C156.128 38.2281 155.979 38.2131 155.831 38.2284C155.683 38.2437 155.539 38.289 155.408 38.3617C155.278 38.4345 155.162 38.5332 155.069 38.6522C154.975 38.7713 154.906 38.9084 154.863 39.0556C154.821 39.2029 154.808 39.3575 154.824 39.5106C154.84 39.6637 154.884 39.8122 154.956 39.9478C155.027 40.0834 155.123 40.2033 155.239 40.3007C155.355 40.3981 155.488 40.4711 155.631 40.5156C155.774 40.56 155.924 40.575 156.072 40.5597Z" fill="#31A5D9"/>
<path d="M192.481 41.0593C192.336 41.2874 192.177 41.4173 192.003 41.4489C190.843 41.6632 190.02 41.3398 189.533 40.4785C188.43 38.5274 190.662 36.2593 192.508 37.7437C192.564 37.7891 192.593 37.7758 192.593 37.7037V37.4667C192.593 37.455 192.595 37.4435 192.6 37.4327C192.604 37.422 192.611 37.4123 192.619 37.4043C192.628 37.3962 192.638 37.39 192.649 37.386C192.66 37.3819 192.671 37.3801 192.683 37.3807L193.45 37.4178C193.496 37.4198 193.519 37.4435 193.519 37.4889V41.3704C193.519 41.4198 193.494 41.4444 193.444 41.4444H192.668C192.649 41.4445 192.63 41.4369 192.616 41.4233C192.602 41.4097 192.594 41.3912 192.594 41.3719L192.59 41.0904C192.589 41.0779 192.585 41.0659 192.577 41.0561C192.569 41.0463 192.559 41.0392 192.547 41.0357C192.535 41.0323 192.522 41.0327 192.51 41.0369C192.499 41.0412 192.489 41.049 192.481 41.0593ZM192.499 39.3896C192.499 39.0843 192.378 38.7915 192.162 38.5757C191.946 38.3598 191.653 38.2385 191.348 38.2385C191.043 38.2385 190.75 38.3598 190.534 38.5757C190.318 38.7915 190.197 39.0843 190.197 39.3896C190.197 39.6949 190.318 39.9877 190.534 40.2036C190.75 40.4195 191.043 40.5407 191.348 40.5407C191.653 40.5407 191.946 40.4195 192.162 40.2036C192.378 39.9877 192.499 39.6949 192.499 39.3896Z" fill="#31A5D9"/>
<path d="M69.2637 37.7467C69.485 37.4978 69.7645 37.3595 70.1022 37.3319C70.1161 37.3306 70.13 37.3323 70.1431 37.3368C70.1562 37.3413 70.1682 37.3486 70.1783 37.3581C70.1884 37.3677 70.1964 37.3792 70.2016 37.3921C70.2069 37.4049 70.2094 37.4187 70.2089 37.4326L70.1748 38.123C70.1735 38.1482 70.1631 38.172 70.1456 38.19C70.1282 38.208 70.1048 38.219 70.08 38.2207C69.3882 38.2622 69.2237 38.6963 69.2237 39.3393C69.2227 40.0069 69.2222 40.6746 69.2222 41.3422C69.2222 41.4104 69.1882 41.4444 69.12 41.4444H68.3334C68.284 41.4444 68.2593 41.4198 68.2593 41.3704V37.4682C68.2593 37.4422 68.2696 37.4173 68.2879 37.399C68.3063 37.3807 68.3311 37.3704 68.3571 37.3704H69.0489C69.0739 37.3704 69.098 37.3803 69.116 37.398C69.134 37.4157 69.1444 37.4398 69.1452 37.4652L69.1496 37.7052C69.15 37.7183 69.1542 37.731 69.1619 37.7416C69.1695 37.7523 69.1802 37.7604 69.1925 37.7648C69.2049 37.7693 69.2182 37.77 69.2309 37.7667C69.2436 37.7635 69.2551 37.7565 69.2637 37.7467Z" fill="#31A5D9"/>
<path d="M109.004 37.7156C109.225 37.4726 109.503 37.3447 109.84 37.3319C109.904 37.3299 109.934 37.3605 109.93 37.4237L109.896 38.1333C109.893 38.2015 109.858 38.2365 109.79 38.2385C109.213 38.2533 108.925 38.519 108.926 39.0356C108.927 39.8059 108.926 40.5753 108.924 41.3437C108.924 41.4109 108.891 41.4444 108.824 41.4444H108.037C107.988 41.4444 107.963 41.4198 107.963 41.3704V37.4815C107.963 37.4074 108 37.3704 108.074 37.3704H108.722C108.749 37.3705 108.775 37.3794 108.796 37.3958C108.817 37.4122 108.832 37.435 108.839 37.4607L108.896 37.6889C108.899 37.6999 108.905 37.7098 108.913 37.7178C108.921 37.7257 108.932 37.7313 108.943 37.7341C108.954 37.7368 108.965 37.7365 108.976 37.7332C108.987 37.73 108.997 37.7239 109.004 37.7156Z" fill="#31A5D9"/>
<path d="M123.185 37.7141C123.348 37.5353 123.551 37.4183 123.793 37.363C123.832 37.3542 123.872 37.3544 123.911 37.3637C123.95 37.3729 123.987 37.3909 124.018 37.4164C124.049 37.4418 124.074 37.4739 124.09 37.5104C124.107 37.5468 124.115 37.5866 124.114 37.6267L124.104 38.117C124.102 38.1812 124.069 38.2158 124.006 38.2207C123.4 38.2662 123.098 38.6 123.101 39.2222C123.104 39.9343 123.109 40.6469 123.116 41.36C123.117 41.4163 123.088 41.4444 123.031 41.4444H122.259C122.185 41.4444 122.148 41.4074 122.148 41.3333V37.4904C122.148 37.4459 122.17 37.4222 122.215 37.4193L122.938 37.3719C122.969 37.3698 123.001 37.3802 123.024 37.4007C123.048 37.4212 123.063 37.4503 123.065 37.4815L123.08 37.6785C123.081 37.6902 123.086 37.7014 123.093 37.7106C123.1 37.7198 123.11 37.7267 123.121 37.7305C123.132 37.7343 123.144 37.7347 123.156 37.7318C123.167 37.7289 123.177 37.7227 123.185 37.7141Z" fill="#31A5D9"/>
<path d="M152.92 37.7244C153.152 37.4805 153.441 37.3491 153.788 37.3304C153.835 37.3284 153.857 37.3506 153.856 37.397L153.837 38.1319C153.835 38.197 153.801 38.2296 153.736 38.2296C153.135 38.2267 152.942 38.5689 152.899 39.1348C152.841 39.8859 152.929 40.6237 152.84 41.3822C152.835 41.4237 152.812 41.4444 152.77 41.4444H152.037C151.963 41.4444 151.926 41.4074 151.926 41.3333V37.4889C151.926 37.4435 151.948 37.4193 151.993 37.4163L152.677 37.3615C152.69 37.3605 152.703 37.3621 152.715 37.3663C152.727 37.3706 152.738 37.3773 152.748 37.3861C152.757 37.3948 152.765 37.4055 152.77 37.4173C152.775 37.4291 152.778 37.4419 152.778 37.4548V37.6681C152.777 37.6845 152.782 37.7006 152.791 37.7142C152.8 37.7278 152.814 37.7383 152.829 37.7443C152.844 37.7504 152.861 37.7518 152.877 37.7482C152.894 37.7447 152.908 37.7364 152.92 37.7244Z" fill="#31A5D9"/>
<path d="M125.151 37.3742L124.413 37.3755C124.355 37.3756 124.308 37.4227 124.308 37.4808L124.315 41.3416C124.315 41.3997 124.362 41.4467 124.42 41.4466L125.158 41.4453C125.216 41.4452 125.263 41.398 125.263 41.3399L125.256 37.4792C125.256 37.4211 125.209 37.3741 125.151 37.3742Z" fill="#31A5D9"/>
<path d="M182.677 37.3748H181.877C181.843 37.3748 181.815 37.4027 181.815 37.437V41.3867C181.815 41.421 181.843 41.4489 181.877 41.4489H182.677C182.711 41.4489 182.739 41.421 182.739 41.3867V37.437C182.739 37.4027 182.711 37.3748 182.677 37.3748Z" fill="#31A5D9"/>
<path d="M194.184 41.5082C194.213 40.1699 194.227 38.8306 194.225 37.4904C194.225 37.443 194.249 37.4178 194.296 37.4148L194.996 37.3615C195.01 37.3605 195.024 37.3624 195.038 37.3671C195.052 37.3719 195.064 37.3794 195.075 37.3891C195.085 37.3988 195.094 37.4106 195.1 37.4237C195.105 37.4368 195.108 37.4509 195.108 37.4652C195.116 38.8232 195.115 40.1877 195.104 41.5585C195.097 42.4375 194.678 42.8301 193.847 42.7363C193.788 42.7294 193.756 42.6963 193.751 42.637L193.699 41.9244C193.699 41.9168 193.701 41.9091 193.705 41.9027C193.709 41.8963 193.716 41.8914 193.723 41.8889C194.026 41.7901 194.18 41.6632 194.184 41.5082Z" fill="#31A5D9"/>
<path d="M82.6231 37.4067L81.7787 37.4081C81.7558 37.4082 81.7372 37.4268 81.7373 37.4497L81.7442 41.4023C81.7442 41.4252 81.7628 41.4437 81.7857 41.4437L82.6302 41.4422C82.6531 41.4422 82.6716 41.4236 82.6716 41.4007L82.6647 37.4481C82.6646 37.4252 82.646 37.4066 82.6231 37.4067Z" fill="#31A5D9"/>
<path d="M110.984 38.9689C110.978 38.9689 110.973 38.9667 110.969 38.9628C110.965 38.9589 110.963 38.9537 110.963 38.9482V38.9363C110.962 38.8342 110.988 38.733 111.039 38.6384C111.089 38.5439 111.164 38.4578 111.258 38.3851C111.352 38.3125 111.465 38.2547 111.588 38.215C111.711 38.1754 111.844 38.1547 111.978 38.1541H112.016C112.286 38.1529 112.545 38.2333 112.736 38.3778C112.927 38.5222 113.036 38.7188 113.037 38.9244V38.9363C113.037 38.9418 113.035 38.9471 113.031 38.951C113.027 38.9549 113.022 38.957 113.016 38.957L110.984 38.9689Z" fill="#F7F7F7"/>
<path d="M161.699 38.9659C161.693 38.9659 161.687 38.9634 161.682 38.959C161.678 38.9545 161.676 38.9485 161.676 38.9422V38.9333C161.676 38.8302 161.703 38.7281 161.754 38.6329C161.806 38.5377 161.882 38.4514 161.977 38.3787C162.072 38.3061 162.186 38.2486 162.31 38.2095C162.434 38.1705 162.568 38.1506 162.702 38.1511H162.75C163.021 38.1521 163.281 38.2357 163.472 38.3835C163.664 38.5312 163.771 38.7311 163.77 38.9393V38.9481C163.77 38.9513 163.77 38.9543 163.769 38.9572C163.767 38.9601 163.766 38.9627 163.763 38.9649C163.761 38.9671 163.759 38.9689 163.756 38.97C163.753 38.9712 163.75 38.9719 163.747 38.9719L161.699 38.9659Z" fill="#F7F7F7"/>
<path d="M173.81 38.9689C173.804 38.9689 173.797 38.9662 173.793 38.9615C173.788 38.9568 173.785 38.9504 173.785 38.9437V38.9333C173.785 38.7252 173.894 38.5258 174.086 38.3788C174.278 38.2319 174.539 38.1494 174.81 38.1496H174.861C174.995 38.1497 175.129 38.1702 175.253 38.2097C175.378 38.2493 175.491 38.3073 175.586 38.3804C175.681 38.4534 175.757 38.5401 175.808 38.6355C175.86 38.7309 175.886 38.8331 175.886 38.9363V38.9467C175.886 38.9533 175.883 38.9598 175.879 38.9645C175.874 38.9692 175.867 38.9718 175.861 38.9718L173.81 38.9689Z" fill="#F7F7F7"/>
<path d="M196.769 38.963C196.763 38.963 196.758 38.9608 196.754 38.9569C196.75 38.953 196.748 38.9477 196.748 38.9422V38.9289C196.748 38.7218 196.855 38.5232 197.045 38.3768C197.234 38.2304 197.492 38.1481 197.76 38.1481H197.796C197.928 38.1481 198.06 38.1683 198.183 38.2076C198.306 38.2468 198.417 38.3043 198.511 38.3768C198.605 38.4493 198.68 38.5354 198.73 38.6301C198.781 38.7248 198.807 38.8264 198.807 38.9289V38.9422C198.807 38.9477 198.805 38.953 198.801 38.9569C198.797 38.9608 198.792 38.963 198.787 38.963H196.769Z" fill="#F7F7F7"/>
<path d="M52.9958 39.3744C52.9818 40.046 53.485 40.6013 54.1197 40.6145C54.7545 40.6278 55.2805 40.0942 55.2946 39.4226C55.3087 38.751 54.8055 38.1958 54.1707 38.1825C53.5359 38.1692 53.0099 38.7028 52.9958 39.3744Z" fill="#F7F7F7"/>
<path d="M71.1467 39.3899C71.1408 40.06 71.6534 40.6077 72.2916 40.6133C72.9297 40.6189 73.4518 40.0802 73.4577 39.4101C73.4635 38.74 72.9509 38.1923 72.3128 38.1867C71.6746 38.1811 71.1525 38.7198 71.1467 39.3899Z" fill="#F7F7F7"/>
<path d="M87.0112 39.3563C86.9866 40.026 87.4817 40.5877 88.1171 40.611C88.7524 40.6343 89.2873 40.1104 89.3119 39.4407C89.3364 38.771 88.8413 38.2093 88.206 38.186C87.5707 38.1627 87.0357 38.6867 87.0112 39.3563Z" fill="#F7F7F7"/>
<path d="M65.649 40.5807C66.2986 40.5807 66.8252 40.0541 66.8252 39.4044C66.8252 38.7548 66.2986 38.2281 65.649 38.2281C64.9993 38.2281 64.4727 38.7548 64.4727 39.4044C64.4727 40.0541 64.9993 40.5807 65.649 40.5807Z" fill="#F7F7F7"/>
<path d="M104.191 39.3928C104.185 40.0515 104.7 40.5899 105.341 40.5955C105.981 40.6011 106.505 40.0717 106.511 39.4131C106.517 38.7545 106.002 38.216 105.362 38.2104C104.721 38.2048 104.197 38.7342 104.191 39.3928Z" fill="#F7F7F7"/>
<path d="M119.35 40.5467C119.986 40.5467 120.502 40.0306 120.502 39.3941C120.502 38.7575 119.986 38.2415 119.35 38.2415C118.713 38.2415 118.197 38.7575 118.197 39.3941C118.197 40.0306 118.713 40.5467 119.35 40.5467Z" fill="#F7F7F7"/>
<path d="M126.687 39.5181C126.756 40.1599 127.318 40.6253 127.941 40.5576C128.564 40.4899 129.013 39.9148 128.943 39.273C128.873 38.6312 128.312 38.1658 127.689 38.2335C127.066 38.3012 126.617 38.8763 126.687 39.5181Z" fill="#F7F7F7"/>
<path d="M144.593 40.5807C145.242 40.5807 145.769 40.0541 145.769 39.4044C145.769 38.7548 145.242 38.2281 144.593 38.2281C143.943 38.2281 143.416 38.7548 143.416 39.4044C143.416 40.0541 143.943 40.5807 144.593 40.5807Z" fill="#F7F7F7"/>
<path d="M149.102 40.5467C149.739 40.5467 150.255 40.0306 150.255 39.3941C150.255 38.7575 149.739 38.2415 149.102 38.2415C148.466 38.2415 147.95 38.7575 147.95 39.3941C147.95 40.0306 148.466 40.5467 149.102 40.5467Z" fill="#F7F7F7"/>
<path d="M154.824 39.5106C154.89 40.1543 155.449 40.6241 156.072 40.5597C156.694 40.4954 157.145 39.9213 157.078 39.2776C157.012 38.6338 156.453 38.1641 155.831 38.2284C155.208 38.2928 154.757 38.8668 154.824 39.5106Z" fill="#F7F7F7"/>
<path d="M191.348 40.5407C191.984 40.5407 192.499 40.0254 192.499 39.3896C192.499 38.7539 191.984 38.2385 191.348 38.2385C190.712 38.2385 190.197 38.7539 190.197 39.3896C190.197 40.0254 190.712 40.5407 191.348 40.5407Z" fill="#F7F7F7"/>
</g>
<defs>
<clipPath id="clip0_1517_2114">
<rect width="200" height="42.8148" fill="white"/>
</clipPath>
</defs>
</svg>
