<svg width="200" height="64" viewBox="0 0 200 64" fill="none" xmlns="http://www.w3.org/2000/svg">
<path fill-rule="evenodd" clip-rule="evenodd" d="M10.8154 18.8263L15.0501 20.5641C5.86274 27.9169 7.6997 58.197 37.4134 49.8171L35.1806 45.7063C15.1288 51.7935 11.6959 30.8425 17.7649 25.1521C17.7649 27.0782 17.9248 27.6005 17.9248 27.6005H22.7151L22.639 17.7214L12.0942 14.3187L10.8154 18.8263Z" fill="#DCB702"/>
<path fill-rule="evenodd" clip-rule="evenodd" d="M51.0759 44.4532L46.8441 42.7154C56.0307 35.3626 54.1939 5.08246 24.4803 13.4624L26.7155 17.5757C46.7655 11.486 50.1981 32.437 44.1295 38.1274C44.1295 36.2013 43.9672 35.679 43.9672 35.679H39.1747L39.2559 45.5606L49.7998 48.9608L51.0759 44.4532Z" fill="#DCB702"/>
<path fill-rule="evenodd" clip-rule="evenodd" d="M9.23787 26.3079C9.23787 27.6078 8.7029 30.0231 8.7029 30.0231L0 28.1642V24.6084C0 24.6084 5.93589 23.7864 9.23787 26.3079" fill="#DCB702"/>
<path fill-rule="evenodd" clip-rule="evenodd" d="M1.84753 45.6266L3.76157 48.9607C3.76157 48.9607 10.2066 46.0571 10.9752 44.5503C11.7464 42.1849 8.21669 41.1085 8.21669 41.1085L1.84753 45.6266Z" fill="#DCB702"/>
<path fill-rule="evenodd" clip-rule="evenodd" d="M21.7806 63.7413L18.9376 61.0342C18.9376 61.0342 20.94 53.8086 23.256 52.6559C24.0515 54.7243 24.9422 57.2617 24.9422 57.2617L21.7806 63.7413Z" fill="#DCB702"/>
<path fill-rule="evenodd" clip-rule="evenodd" d="M37.4133 53.808L40.3594 60.0462L43.8798 58.755L40.6478 52.194L37.4133 53.808Z" fill="#DCB702"/>
<path fill-rule="evenodd" clip-rule="evenodd" d="M53.0739 41.4692C51.708 39.2024 54.1266 37.457 54.1266 37.457C54.1266 37.457 57.6228 36.7022 63.2794 41.4692C62.7556 42.7901 61.886 43.1104 61.2794 44.8036C59.9937 43.5821 57.2318 42.4847 53.0739 41.4692" fill="#DCB702"/>
<path fill-rule="evenodd" clip-rule="evenodd" d="M51.7321 19.3844C52.2712 21.1813 52.6743 21.989 52.8104 22.605C55.7475 22.9526 61.4318 19.9211 61.4318 19.9211L59.7065 16.1663C59.7065 16.1663 51.7423 18.4693 51.7321 19.3844" fill="#DCB702"/>
<path fill-rule="evenodd" clip-rule="evenodd" d="M36.4896 8.03014C36.4896 8.03014 39.5625 9.10099 40.5852 9.69977C40.9777 8.5842 43.418 1.66715 43.418 1.66715L39.9551 0L36.4896 8.03014Z" fill="#DCB702"/>
<path fill-rule="evenodd" clip-rule="evenodd" d="M15.7043 5.40082L19.0623 3.23328L22.6328 10.3836L19.1698 12.0093L15.7043 5.40082Z" fill="#DCB702"/>
<path fill-rule="evenodd" clip-rule="evenodd" d="M86.5378 40.5106C85.4951 41.0217 83.1549 41.5704 80.1034 41.5704C71.4384 41.5704 66.9746 36.2711 66.9746 29.2529C66.9746 20.8442 73.075 16.1663 80.6617 16.1663C83.601 16.1663 85.8316 16.7501 86.836 17.2637L85.6838 21.6861C84.5264 21.21 82.9305 20.7715 80.9243 20.7715C76.4197 20.7715 72.9272 23.4425 72.9272 28.9247C72.9272 33.8582 75.8996 36.9651 80.96 36.9651C82.668 36.9651 84.5697 36.5993 85.6838 36.1609L86.5378 40.5106Z" fill="#087A40"/>
<path fill-rule="evenodd" clip-rule="evenodd" d="M104.715 31.0233H95.6562V36.9437H105.774V41.5704H90.0693V16.6282H105.263V21.2549H95.6562V26.4346H104.715V31.0233Z" fill="#087A40"/>
<path fill-rule="evenodd" clip-rule="evenodd" d="M130.896 32.0192C130.788 29.0232 130.678 25.398 130.678 21.7678H130.567C129.799 24.9516 128.772 28.5031 127.818 31.4281L124.816 41.162H120.457L117.821 31.5017C117.015 28.5793 116.174 25.0251 115.587 21.7678H115.512C115.366 25.1368 115.258 28.9851 115.072 32.0953L114.633 41.5704H109.469L111.045 16.6282H118.479L120.899 24.9516C121.665 27.8385 122.436 30.9487 122.983 33.8686H123.098C123.791 30.9842 124.635 27.6914 125.438 24.9135L128.077 16.6282H135.365L136.721 41.5704H131.263L130.896 32.0192Z" fill="#087A40"/>
<path fill-rule="evenodd" clip-rule="evenodd" d="M140.878 17.1443C142.628 16.8472 145.082 16.6282 148.544 16.6282C152.044 16.6282 154.537 17.2879 156.213 18.6123C157.815 19.8612 158.891 21.9183 158.891 24.343C158.891 26.7652 158.07 28.8249 156.585 30.2223C154.649 32.0175 151.781 32.8283 148.432 32.8283C147.689 32.8283 147.018 32.7931 146.498 32.7175V41.5704H140.878V17.1443ZM146.498 28.3842C146.983 28.495 147.577 28.5303 148.396 28.5303C151.411 28.5303 153.271 27.0246 153.271 24.489C153.271 22.2129 151.672 20.8532 148.845 20.8532C147.689 20.8532 146.906 20.964 146.498 21.0748V28.3842Z" fill="#087A40"/>
<path fill-rule="evenodd" clip-rule="evenodd" d="M162.125 17.1443C163.948 16.8472 166.662 16.6282 169.677 16.6282C173.395 16.6282 176.002 17.1796 177.79 18.5745C179.28 19.7504 180.096 21.4802 180.096 23.7538C180.096 26.9138 177.823 29.0792 175.671 29.8522V29.9604C177.415 30.6629 178.384 32.3096 179.017 34.5934C179.8 37.3832 180.578 40.6136 181.062 41.5704H175.257C174.849 40.873 174.252 38.8536 173.508 35.8019C172.837 32.7175 171.761 31.8715 169.452 31.8363H167.741V41.5704H162.125V17.1443ZM167.741 27.795H169.975C172.804 27.795 174.477 26.4001 174.477 24.2322C174.477 21.9535 172.913 20.8154 170.309 20.7777C168.935 20.7777 168.152 20.8885 167.741 20.964V27.795Z" fill="#087A40"/>
<path fill-rule="evenodd" clip-rule="evenodd" d="M184.296 16.6282V41.5704H200V36.9462H189.883V31.0208H198.941V26.4346H189.883V21.2524H199.489V16.6282H184.296Z" fill="#087A40"/>
<path fill-rule="evenodd" clip-rule="evenodd" d="M71.6705 48.4988V53.2081C71.6705 54.6164 72.2219 55.3343 73.205 55.3343C74.2115 55.3343 74.7628 54.654 74.7628 53.2081V48.4988H76.6744V53.0876C76.6744 55.6104 75.3532 56.8129 73.14 56.8129C71.0021 56.8129 69.746 55.6682 69.746 53.06V48.4988H71.6705Z" fill="#087A40"/>
<path fill-rule="evenodd" clip-rule="evenodd" d="M90.993 48.6685C91.5713 48.5722 92.4326 48.4988 93.3842 48.4988C94.5651 48.4988 95.3922 48.6811 95.9583 49.1471C96.4316 49.5396 96.6927 50.1145 96.6927 50.8717C96.6927 51.9252 95.9705 52.647 95.2897 52.9053V52.9407C95.8411 53.1737 96.1461 53.7283 96.3462 54.4855C96.5975 55.4149 96.8439 56.4938 96.9977 56.8129H95.1555C95.0287 56.5799 94.8383 55.9037 94.6017 54.8882C94.3943 53.8625 94.0478 53.5789 93.3158 53.5688H92.7717V56.8129H90.993V48.6685ZM92.7717 52.219H93.4817C94.3772 52.219 94.9091 51.7555 94.9091 51.0312C94.9091 50.274 94.4138 49.8916 93.5867 49.8815C93.1524 49.8815 92.9035 49.917 92.7717 49.9423V52.219Z" fill="#087A40"/>
<path fill-rule="evenodd" clip-rule="evenodd" d="M112.317 48.4988V53.2081C112.317 54.6164 112.866 55.3343 113.852 55.3343C114.861 55.3343 115.409 54.6515 115.409 53.2081V48.4988H117.321V53.0851C117.321 55.6104 116.002 56.8129 113.784 56.8129C111.649 56.8129 110.393 55.6682 110.393 53.06V48.4988H112.317Z" fill="#087A40"/>
<path fill-rule="evenodd" clip-rule="evenodd" d="M138.568 56.3507C137.979 56.5456 136.876 56.8129 135.768 56.8129C134.238 56.8129 133.132 56.4356 132.363 55.7112C131.595 55.0116 131.168 53.9499 131.178 52.7508C131.193 50.0452 133.222 48.4988 135.969 48.4988C137.048 48.4988 137.879 48.7036 138.293 48.901L137.894 50.3699C137.439 50.1776 136.863 50.0252 135.943 50.0252C134.364 50.0252 133.171 50.8921 133.171 52.6558C133.171 54.3346 134.251 55.3239 135.807 55.3239C136.241 55.3239 136.588 55.274 136.737 55.204V53.5002H135.447V52.0612H138.568V56.3507Z" fill="#087A40"/>
<path fill-rule="evenodd" clip-rule="evenodd" d="M154.811 48.4988V53.2081C154.811 54.6164 155.363 55.3343 156.346 55.3343C157.352 55.3343 157.904 54.6515 157.904 53.2081V48.4988H159.815V53.0851C159.815 55.6104 158.497 56.8129 156.281 56.8129C154.143 56.8129 152.887 55.6682 152.887 53.06V48.4988H154.811Z" fill="#087A40"/>
<path fill-rule="evenodd" clip-rule="evenodd" d="M175.685 54.6763L175.109 56.8129H173.21L175.685 48.4988H178.088L180.6 56.8129H178.63L178.006 54.6763H175.685ZM177.74 53.2715L177.236 51.5072C177.089 51.0126 176.948 50.3982 176.826 49.9061H176.801C176.682 50.3982 176.562 51.0254 176.428 51.5072L175.951 53.2715H177.74Z" fill="#087A40"/>
<path fill-rule="evenodd" clip-rule="evenodd" d="M194.827 56.8129V53.4097L192.148 48.4988H194.338L195.208 50.4938C195.471 51.1009 195.645 51.5474 195.859 52.0856H195.885C196.075 51.5703 196.278 51.0882 196.528 50.4938L197.385 48.4988H199.538L196.744 53.3485V56.8129H194.827Z" fill="#087A40"/>
</svg>
