<?xml version="1.0" encoding="UTF-8"?>
<svg width="130px" height="85px" viewBox="0 0 130 85" version="1.1" xmlns="http://www.w3.org/2000/svg" xmlns:xlink="http://www.w3.org/1999/xlink">
    <title>CEN</title>
    <g id="CEN" stroke="none" stroke-width="1" fill="none" fill-rule="evenodd">
        <g id="CEN_recycling_steel" transform="translate(21.000000, 23.000000)" fill="#FFFFFF" fill-rule="nonzero">
            <path d="M17.111271,37.8053801 C17.111271,37.8053801 12.7458745,39.9522368 7.69854604,38.4899645 C2.46638883,36.9740209 0,33.7373059 0,33.7373059 L5.888729,8 C5.888729,8 8.90788465,10.909867 13.8116485,12.0207558 C18.7684969,13.1434742 23,12.0682933 23,12.0682933 L17.111271,37.8053801 Z" id="Path"></path>
            <ellipse id="Oval" transform="translate(15.492284, 5.619150) rotate(11.783013) translate(-15.492284, -5.619150) " cx="15.4922839" cy="5.61914954" rx="8.86389241" ry="3.71287554"></ellipse>
            <rect id="Rectangle" x="28" y="5" width="3" height="9"></rect>
            <rect id="Rectangle" x="35" y="5" width="3" height="9"></rect>
            <rect id="Rectangle" x="35" y="28" width="3" height="9"></rect>
            <rect id="Rectangle" x="29" y="28" width="3" height="9"></rect>
            <rect id="Rectangle" x="22" y="28" width="3" height="9"></rect>
            <g id="Group" transform="translate(41.000000, 4.000000)">
                <path d="M33.7869665,0.109130435 C43.2151381,0.109130435 50.8580962,7.89543478 50.8580962,17.5004348 C50.8580962,27.1054348 43.2151381,34.9641304 33.7869665,34.9641304 L33.7869665,34.9641304 L0.0401171548,33.6463043 L0.410774059,24.4206522 L33.7867531,25.8119565 L33.7867531,25.7982609 C38.1341297,25.5178261 41.5754561,21.9997826 41.5754561,17.5 C41.5754561,13.0926087 38.273046,9.68326087 34.0524226,9.28173913 L34.0524226,9.28173913 L34.0530628,9.29804348 L0.410774059,10.7004348 L0.0401171548,1.475 Z M1.62309638,25.6881058 L1.35135336,32.4513865 L7.98990856,32.7282173 L8.26165158,25.9649366 L1.62309638,25.6881058 Z M7.87649453,2.2509273 L1.22016804,2.52531976 L1.49262976,9.22881454 L8.14895625,8.95442209 L7.87649453,2.2509273 Z" id="Combined-Shape"></path>
            </g>
        </g>
    </g>
</svg>