<svg width="200" height="100" viewBox="0 0 200 100" fill="none" xmlns="http://www.w3.org/2000/svg">
<rect width="200" height="100" fill="white"/>
<path d="M53.3013 7.94668C52.2453 8.21334 51.3493 8.99201 50.9653 9.97334C50.656 10.7947 50.5813 12.192 50.8266 13.024C51.1786 14.2507 51.584 14.848 53.0773 16.32C54.7733 17.984 54.976 18.3467 54.9866 19.488C54.9866 20.1493 54.944 20.3627 54.7626 20.608C54.4746 21.0027 54.0266 21.2053 53.6853 21.12C53.3973 21.056 52.8213 20.5333 52.6186 20.1707C52.512 19.9893 52.4373 20.0213 51.4773 20.64C50.912 21.0027 50.4533 21.3653 50.4533 21.44C50.4533 21.7387 51.6373 22.8693 52.2453 23.168C52.7786 23.424 52.9813 23.456 53.92 23.4667C54.816 23.4667 55.072 23.424 55.5413 23.2107C56.192 22.9227 56.992 22.112 57.2693 21.4613C57.92 19.9467 57.8453 18.3787 57.056 16.7253C56.704 15.9893 56.4373 15.6373 55.2106 14.3573C53.5786 12.6613 53.3333 12.2773 53.3333 11.4133C53.3333 10.656 53.632 10.2933 54.2506 10.2933C54.592 10.2933 54.72 10.368 55.0826 10.752L55.4986 11.2107L56.5013 10.528L57.4933 9.85601L57.312 9.52534C57.0133 9.01334 56.1493 8.29868 55.5946 8.10668C54.976 7.89334 53.8453 7.81868 53.3013 7.94668Z" fill="#E41E2B"/>
<path d="M80.0427 7.97868C78.2294 8.44801 77.2374 10.24 77.5467 12.48C77.7387 13.8347 78.2187 14.6133 79.8934 16.288C81.5894 17.9947 81.8454 18.4107 81.8454 19.456C81.8454 20.288 81.632 20.7787 81.1627 21.0133C80.6827 21.2693 80.288 21.1307 79.7654 20.5333L79.3067 20.0107L78.272 20.672C77.696 21.0347 77.2267 21.3653 77.2267 21.408C77.2267 21.5893 78.1227 22.56 78.5707 22.8693C80.1174 23.8933 82.3787 23.68 83.4774 22.4213C84.5547 21.184 84.832 19.104 84.16 17.3013C83.808 16.352 83.1467 15.4453 81.8987 14.1867C80.4587 12.736 80.16 12.2773 80.16 11.4453C80.16 10.9547 80.2134 10.7947 80.416 10.5707C80.8854 10.0693 81.6534 10.2507 82.112 10.9547L82.304 11.2427L83.1467 10.656C83.616 10.3253 84.0747 10.0267 84.16 9.97335C84.2987 9.88801 84.2987 9.83468 84.1174 9.49335C83.4667 8.27735 81.6 7.58401 80.0427 7.97868Z" fill="#E41E2B"/>
<path d="M66.1333 15.68V23.3067H67.4666H68.8V15.68V8.05335H67.4666H66.1333V15.68Z" fill="#E41E2B"/>
<path d="M92.0533 9.28001V10.5067H93.1733H94.2933V16.9067V23.3067H95.6267H96.96V16.9067V10.5067H98.08H99.2V9.28001V8.05335H95.6267H92.0533V9.28001Z" fill="#E41E2B"/>
<path d="M107.413 15.68V23.3067H110.784H114.155L114.091 22.9547C114.059 22.7733 114.005 22.24 113.963 21.7813L113.888 20.96H112.043H110.187V18.7733V16.5867H111.467H112.747V15.4133V14.24H111.467H110.187V12.32V10.4H111.989H113.781L113.856 9.62135C113.899 9.20535 113.963 8.67201 113.995 8.44801L114.059 8.05335H110.731H107.413V15.68Z" fill="#E41E2B"/>
<path d="M122.453 15.68V23.3067H123.627H124.8V18.0053C124.8 15.0933 124.821 12.736 124.853 12.768C124.885 12.7893 125.248 14.9227 125.653 17.504C126.069 20.0747 126.421 22.2933 126.453 22.432C126.507 22.6667 126.539 22.6773 127.605 22.6453L128.693 22.6133L129.451 17.7067C129.867 15.008 130.24 12.704 130.272 12.5867C130.293 12.4693 130.325 14.8373 130.336 17.8347L130.347 23.3067H131.52H132.693V15.68V8.05335L130.912 8.07468L129.12 8.10668L128.576 11.68C128.277 13.6427 127.947 15.8293 127.84 16.5333C127.68 17.5467 127.627 17.7493 127.563 17.4933C127.52 17.312 127.157 15.1253 126.763 12.608L126.037 8.05335H124.245H122.453V15.68Z" fill="#E41E2B"/>
<path d="M143.637 8.23468C143.573 8.46935 141.013 23.0293 141.013 23.1893C141.013 23.264 141.472 23.3067 142.379 23.3067H143.755L143.936 21.728C144.043 20.864 144.149 20.0747 144.171 19.968C144.224 19.808 144.373 19.7867 145.28 19.7867C145.856 19.7867 146.357 19.8187 146.379 19.8613C146.411 19.9147 146.507 20.5973 146.603 21.3867C146.699 22.176 146.805 22.9333 146.837 23.0613C146.88 23.296 146.923 23.3067 148.267 23.3067C149.035 23.3067 149.653 23.2853 149.653 23.2533C149.653 23.232 149.056 19.8293 148.32 15.712C147.584 11.5947 146.987 8.18135 146.987 8.13868C146.987 8.08535 146.251 8.05335 145.344 8.05335C143.861 8.05335 143.691 8.07468 143.637 8.23468ZM146.059 17.1413L146.112 17.5467H145.323C144.64 17.5467 144.533 17.5253 144.533 17.3547C144.533 17.2053 145.248 11.5413 145.291 11.36C145.301 11.328 145.461 12.5333 145.653 14.0267C145.845 15.52 146.027 16.928 146.059 17.1413Z" fill="#E41E2B"/>
<path d="M0 21.2267V22.24H21.92H43.84V21.2267V20.2133H21.92H0V21.2267Z" fill="#E41E2B"/>
<path d="M156.16 21.2267V22.24H178.08H200V21.2267V20.2133H178.08H156.16V21.2267Z" fill="#E41E2B"/>
<path d="M108.8 43.68V56.16H154.4H200V43.68V31.2H154.4H108.8V43.68ZM134.4 32.192C135.371 32.704 135.595 33.7707 134.987 34.9867C134.197 36.5333 132.8 36.9493 132.8 35.648C132.8 34.8907 133.344 34.24 134.112 34.0907C134.72 33.9627 134.592 33.184 133.941 33.0667C132.811 32.8533 130.421 34.368 128.224 36.6933C124.587 40.5547 122.24 45.2693 122.368 48.4693C122.4 49.3867 122.453 49.6 122.752 50.2187C123.424 51.584 124.395 52.1067 126.4 52.192C127.915 52.2453 128.629 52.128 132.747 51.1467C136.544 50.24 137.685 50.0267 139.467 49.8667C142.656 49.5787 144.896 50.1653 147.328 51.9147C148.48 52.7573 149.397 53.5467 149.557 53.8347C149.664 54.0267 149.632 54.0267 149.205 53.76C147.733 52.8533 145.877 52.3627 144.235 52.448C143.125 52.5013 142.528 52.736 141.813 53.3973L141.312 53.856L141.088 53.5467C140.469 52.672 139.488 52.064 138.133 51.7227C137.579 51.584 137.109 51.5627 135.787 51.6053C133.952 51.6693 133.376 51.7547 129.92 52.5867C126.667 53.3653 125.643 53.5253 124.267 53.4613C121.653 53.344 119.915 51.9893 119.36 49.6533C119.168 48.8747 119.189 47.136 119.403 45.984C120.139 42.1013 123.243 37.5573 127.211 34.5813C130.069 32.4373 133.013 31.456 134.4 32.192ZM168.352 32.3627L168.736 32.5973L169.461 32.3733C169.92 32.224 170.603 32.1173 171.307 32.0853C173.077 31.9893 173.909 32.2773 176.885 34.016C177.643 34.4533 178.315 34.8373 178.379 34.8587C178.453 34.88 178.123 35.3173 177.664 35.8187L176.821 36.7467L176.224 36.416C175.893 36.2347 174.955 35.648 174.133 35.1147C171.915 33.6747 170.443 33.12 169.451 33.376C169.184 33.44 169.173 33.4827 169.173 34.1653C169.173 35.6267 168.16 37.7067 166.699 39.2533C165.675 40.3307 164.992 40.736 164.139 40.7467C163.605 40.7467 163.488 40.704 163.232 40.448C162.965 40.1813 162.933 40.0747 162.933 39.4347C162.933 38.8267 162.997 38.592 163.339 37.8773C164.096 36.2773 165.205 35.0187 167.04 33.6533L167.947 32.9813L167.339 33.0347C165.323 33.1947 161.621 36.2133 158.773 40C156.619 42.8693 155.296 45.4827 154.656 48.1067C154.293 49.6427 154.453 50.7413 155.147 51.3493C156.331 52.384 158.24 51.5093 160.16 49.0667C161.312 47.5947 162.133 45.7813 162.133 44.6933C162.133 44.032 161.995 43.7867 161.589 43.7867C160.672 43.7867 159.755 44.9067 159.189 46.688C159.083 47.0293 158.944 47.3067 158.88 47.3067C158.709 47.3067 157.259 48.3093 156.587 48.8853C155.957 49.4293 155.936 49.3867 156.267 48.1173C156.555 46.9973 157.12 45.7173 157.707 44.9067C158.603 43.648 160.021 42.72 161.173 42.6347C161.952 42.5813 162.379 42.784 162.677 43.3813C162.88 43.776 162.901 43.9467 162.848 44.7467C162.645 47.904 159.616 51.9253 156.512 53.1413C155.915 53.376 155.605 53.4293 154.773 53.4293C153.867 53.44 153.696 53.408 153.216 53.152C150.923 51.9467 150.763 48.5013 152.8 44.4267C155.733 38.5707 161.173 33.4293 165.707 32.2027C166.517 31.9787 167.872 32.064 168.352 32.3627ZM189.227 32.4693C188.171 34.336 185.909 36.352 183.957 37.1627C182.635 37.7067 180.747 37.9627 179.701 37.7173L179.413 37.6533L180.213 36.7147L181.024 35.7867H181.749C183.808 35.7867 186.475 34.592 188.64 32.704C189.056 32.352 189.397 32.0533 189.419 32.0533C189.44 32.0533 189.355 32.2347 189.227 32.4693ZM184.32 32.3733C184.736 32.5973 184.693 33.4613 184.192 34.624C184.011 35.0507 183.925 35.136 183.563 35.232C183.339 35.2853 183.147 35.296 183.147 35.2533C183.147 35.2107 183.285 34.8693 183.456 34.496C183.893 33.5573 183.957 33.248 183.744 33.1627C183.424 33.0347 182.549 33.696 181.067 35.1893C179.467 36.8 178.379 38.144 176.939 40.2667C175.648 42.1653 173.984 45.0133 174.101 45.12C174.315 45.3333 179.488 40.384 180.64 38.8587C181.099 38.2613 181.237 38.144 181.589 38.0907C181.813 38.048 182.016 38.0373 182.037 38.0587C182.069 38.08 181.909 38.336 181.685 38.624C179.765 41.1733 176.331 44.544 173.973 46.1867C173.163 46.7627 173.131 46.8053 172.757 47.68C171.68 50.2613 171.552 51.6373 172.416 51.424C172.779 51.3387 173.696 50.304 174.613 48.9493C177.664 44.4373 179.616 42.6133 181.387 42.6133C181.771 42.6133 181.931 42.6773 182.251 42.9547L182.635 43.296L182.816 43.0613C182.987 42.8373 183.061 42.816 184.117 42.848L185.248 42.88L182.912 46.8267C181.632 48.992 180.555 50.88 180.512 51.0187C180.256 52.0213 181.941 50.7413 183.253 48.9173C183.915 48.0107 183.968 47.9573 184.352 47.9573C184.565 47.9467 184.747 47.9787 184.747 48.0107C184.747 48.1173 184.075 49.0667 183.296 50.0373C181.984 51.6907 180.608 52.928 179.595 53.3653C179.157 53.5573 178.411 53.5253 178.144 53.3013C177.888 53.0987 177.675 52.384 177.771 52.064C177.813 51.936 177.589 52.064 177.163 52.4267C176.789 52.736 176.245 53.1093 175.947 53.2373C174.667 53.8453 173.653 53.28 173.653 51.9787V51.52L172.949 52.192C171.691 53.3867 170.688 53.7707 169.92 53.3227C169.013 52.7787 168.971 51.4027 169.803 48.928L170.197 47.712L169.888 47.776C169.717 47.808 169.472 47.84 169.344 47.84C169.152 47.84 168.96 48.0747 168.469 48.864C166.88 51.4347 164.459 53.4933 163.029 53.4933C160.715 53.4933 161.045 50.048 163.712 46.4747C164.885 44.896 166.656 43.3387 167.829 42.8267C168.448 42.56 169.451 42.5387 169.792 42.784C170.56 43.3173 170.507 44.7467 169.664 46.688C169.504 47.072 169.504 47.0933 169.675 47.0933C169.781 47.0933 170.037 47.04 170.24 46.9867C170.571 46.9013 170.667 46.784 171.029 46.0587C172.192 43.7013 173.963 40.8747 175.403 39.0933C177.909 35.9787 180.565 33.4933 182.368 32.5867C183.019 32.256 183.915 32.16 184.32 32.3733ZM134.923 37.4293C135.083 37.5147 135.317 37.728 135.424 37.888C135.733 38.336 135.68 39.5627 135.328 40.5333C135.179 40.9387 135.061 41.2907 135.083 41.312C135.157 41.376 135.883 41.0347 136.352 40.7147C136.597 40.5333 137.259 39.9787 137.813 39.4667C138.976 38.4107 140.192 37.5573 140.779 37.3867C142.176 37.0027 143.253 37.6107 143.253 38.784C143.253 39.7547 142.165 41.3333 141.493 41.3333C141.184 41.3333 140.8 40.992 140.8 40.7147C140.811 40.4373 141.163 39.7013 141.408 39.4987C141.525 39.392 141.803 39.2427 142.037 39.168C142.539 38.9867 142.613 38.7413 142.251 38.5067C142.005 38.3467 141.952 38.3467 141.483 38.5493C140.875 38.816 139.221 40.448 138.624 41.3653C137.056 43.7653 136.48 45.664 137.12 46.2933C138.027 47.2107 139.829 45.8347 142.805 41.92C145.643 38.1973 147.936 36.64 149.259 37.536C149.579 37.76 149.664 37.7707 149.771 37.6427C149.856 37.536 150.176 37.4933 150.997 37.4933C151.605 37.4933 152.107 37.5253 152.107 37.5573C152.107 37.5893 151.072 39.3387 149.813 41.44C148.555 43.5307 147.477 45.3653 147.424 45.5147C147.371 45.664 147.36 45.8453 147.413 45.92C147.616 46.2507 149.301 44.7893 150.432 43.2853C150.741 42.88 150.816 42.8373 151.232 42.8267H151.691L150.859 43.9147C149.803 45.312 147.861 47.2533 147.051 47.7227C146.624 47.9787 146.261 48.1067 145.867 48.1387C145.333 48.1813 145.259 48.16 144.96 47.8613C144.704 47.6053 144.64 47.4453 144.64 47.0933V46.6453L144.107 47.1253C143.104 48.032 141.952 48.384 141.184 48.0427C140.768 47.8507 140.544 47.2747 140.619 46.56C140.661 46.2293 140.725 45.8667 140.768 45.7493C140.811 45.632 140.555 45.792 140.149 46.144C138.549 47.52 137.536 48.1067 136.501 48.224C135.979 48.288 135.819 48.256 135.307 48.0107C134.453 47.584 134.144 47.0293 134.155 45.9307C134.165 44.992 134.421 44.1493 135.051 42.944C135.275 42.5067 135.445 42.1333 135.424 42.112C135.403 42.0907 135.211 42.112 134.976 42.1653C134.603 42.24 134.496 42.3467 133.611 43.68C131.669 46.5813 129.131 48.544 127.819 48.1707C127.296 48.0213 127.072 47.8613 126.848 47.4987C125.867 45.9093 127.307 42.464 130.133 39.616C131.765 37.9733 132.907 37.2907 134.059 37.28C134.368 37.28 134.763 37.3547 134.923 37.4293ZM155.808 37.568C155.787 37.6213 155.509 38.0693 155.2 38.5813L154.635 39.52H153.579C153.003 39.52 152.533 39.488 152.533 39.4453C152.533 39.4027 152.789 38.9547 153.099 38.432L153.653 37.504L154.752 37.4933C155.36 37.4933 155.829 37.5253 155.808 37.568ZM184.021 52.1813C184.277 52.416 184.267 52.9813 184 53.2267C183.52 53.664 182.72 53.3227 182.72 52.6827C182.72 52.1067 183.573 51.776 184.021 52.1813Z" fill="#E41E2B"/>
<path d="M167.445 34.2933C165.621 35.5093 163.627 38.176 163.627 39.4027C163.627 39.5627 163.723 39.7867 163.84 39.8933C164.032 40.064 164.107 40.0747 164.48 39.9573C165.419 39.68 166.987 38.0267 167.68 36.5867C168.245 35.4347 168.629 33.76 168.331 33.76C168.277 33.76 167.872 33.9947 167.445 34.2933Z" fill="#E41E2B"/>
<path d="M168.256 43.8827C167.819 44.1493 167.499 44.576 167.349 45.0773C167.243 45.4293 167.253 45.536 167.477 45.9947C167.659 46.3467 167.861 46.5813 168.16 46.7413C168.395 46.88 168.629 46.9867 168.672 46.9867C168.843 46.9867 169.515 45.3547 169.568 44.7893C169.675 43.776 169.088 43.3707 168.256 43.8827Z" fill="#E41E2B"/>
<path d="M181.248 43.9573C180.704 44.2347 179.083 46.0053 178.261 47.2427C177.163 48.8747 176.597 50.08 176.587 50.752C176.587 51.2747 176.597 51.3067 176.875 51.3387C177.515 51.4133 178.635 49.9947 180.875 46.2507C181.877 44.576 182.155 44.0427 182.069 43.9253C181.909 43.744 181.675 43.7547 181.248 43.9573Z" fill="#E41E2B"/>
<path d="M165.717 47.1787C164.939 48.3413 164.448 49.3547 164.299 50.08C164.171 50.7307 164.235 51.0187 164.533 51.2107C164.949 51.4773 165.461 51.2427 166.347 50.3573C167.051 49.6533 168.213 48.0533 168.213 47.7867C168.213 47.7227 168.043 47.584 167.829 47.4667C167.616 47.36 167.211 47.008 166.933 46.6987L166.411 46.1333L165.717 47.1787Z" fill="#E41E2B"/>
<path d="M133.547 38.5493C132.331 39.2 132.16 40.64 133.237 41.1413C134.048 41.5147 134.059 41.5147 134.357 40.8747C134.496 40.544 134.677 40.0213 134.741 39.6907C134.848 39.1893 134.848 39.0507 134.688 38.72C134.475 38.2827 134.144 38.2293 133.547 38.5493Z" fill="#E41E2B"/>
<path d="M148.32 38.56C147.787 38.8267 147.253 39.36 146.176 40.7467C144.256 43.2213 143.157 45.3333 143.509 45.8987C143.552 45.9733 143.723 46.0267 143.883 46.0267C144.523 46.0267 145.739 44.4587 147.776 41.0347C149.12 38.7733 149.216 38.5813 149.013 38.4533C148.8 38.3147 148.811 38.3147 148.32 38.56Z" fill="#E41E2B"/>
<path d="M130.923 41.792C130.112 42.9973 129.771 43.68 129.536 44.512C129.333 45.2587 129.387 45.632 129.76 45.8773C130.016 46.048 130.059 46.048 130.464 45.8667C131.211 45.5253 132.288 44.3627 133.269 42.8053L133.653 42.1973L132.96 41.8667C132.565 41.6747 132.139 41.376 131.979 41.1733C131.808 40.9707 131.659 40.8 131.627 40.8C131.595 40.8 131.275 41.248 130.923 41.792Z" fill="#E41E2B"/>
<path d="M183.115 52.2987C182.752 52.6933 182.997 53.28 183.52 53.28C183.776 53.28 184.107 52.928 184.107 52.672C184.107 52.4693 183.712 52.1067 183.488 52.1067C183.371 52.1067 183.211 52.192 183.115 52.2987ZM183.808 52.6933C183.851 53.088 183.808 53.1413 183.584 52.928C183.467 52.8213 183.435 52.8213 183.392 52.928C183.296 53.2053 183.147 53.056 183.147 52.6933C183.147 52.352 183.179 52.32 183.456 52.32C183.723 52.32 183.765 52.3627 183.808 52.6933Z" fill="#E41E2B"/>
<path d="M183.36 52.5333C183.36 52.5867 183.413 52.64 183.467 52.64C183.531 52.64 183.573 52.5867 183.573 52.5333C183.573 52.4693 183.531 52.4267 183.467 52.4267C183.413 52.4267 183.36 52.4693 183.36 52.5333Z" fill="#E41E2B"/>
<path d="M19.7867 42.1547C16.7254 42.5813 12.8534 44.7787 9.20535 48.1813C4.51202 52.5333 1.40802 57.6107 0.352022 62.6667C-0.0319783 64.4907 -0.0533117 67.072 0.298688 68.352C1.01335 70.9333 2.67735 72.6293 5.33335 73.4613C6.04802 73.6853 6.33602 73.7067 8.10669 73.7067C10.4 73.7067 10.784 73.6427 15.5734 72.48C20.3734 71.3173 21.9307 71.04 24.384 70.9227C27.2427 70.7733 29.4507 71.328 31.1147 72.608C31.552 72.9387 32.1174 73.5787 32.608 74.2827C32.6294 74.3147 32.8107 74.1333 33.0134 73.8987C33.4827 73.344 34.3787 72.7467 35.1787 72.4587C35.9894 72.1493 38.3254 72.128 39.68 72.416C41.376 72.768 43.2107 73.4933 44.48 74.3147L44.8533 74.5493L44.576 74.1867C44.1493 73.6213 42.336 72.1387 40.9067 71.168C37.728 69.0347 35.328 68.352 31.36 68.4587C28.2027 68.544 26.4534 68.8427 20.0534 70.4C14.2507 71.808 12.416 72.1173 10.4534 72.0213C7.41335 71.8507 5.62135 70.6453 4.82135 68.2347C4.59735 67.5413 4.55469 67.2107 4.55469 66.08C4.54402 64.4907 4.71469 63.552 5.41869 61.44C5.97335 59.7547 7.28535 57.0347 8.37335 55.3067C12.064 49.472 17.3227 44.5013 20.64 43.7333C21.5254 43.52 22.0054 43.5947 22.3574 43.968C22.72 44.3627 22.688 45.1733 22.304 45.1733C21.5787 45.1733 20.6507 45.8133 20.256 46.5707C19.7867 47.4987 20.1174 48.5867 20.864 48.5867C21.728 48.5867 22.6454 47.7333 23.3174 46.2933C23.776 45.3013 23.8507 44.7147 23.6267 43.9467C23.2107 42.5067 21.8454 41.8667 19.7867 42.1547Z" fill="#E41E2B"/>
<path d="M69.44 42.2933C67.6907 42.5707 64.9813 43.7867 62.6133 45.3653C57.5147 48.7573 52.5333 54.5387 49.6 60.48C48.224 63.2747 47.6373 65.184 47.5093 67.36C47.136 73.408 51.9147 75.6267 57.4187 71.9787C58.3467 71.36 60.4373 69.312 61.2373 68.2133C63.5627 65.0773 64.8427 61.3653 64.2667 59.4133C64.0533 58.656 63.4987 58.048 62.88 57.8773C62.3147 57.7173 62.0693 57.728 61.3013 57.9307C59.8187 58.3147 58.1867 59.4347 57.0667 60.832C56.0213 62.1547 54.976 64.512 54.56 66.496C54.2933 67.7867 54.304 67.7973 55.2 66.9547C56.1387 66.08 57.056 65.408 58.016 64.8853C58.688 64.5333 58.7093 64.5013 58.88 63.8827C59.456 61.8347 60.704 60 61.792 59.584C62.3467 59.3707 62.8907 59.4347 63.136 59.744C63.6587 60.4053 63.2853 62.4 62.2507 64.5333C60.896 67.2853 58.144 70.2187 56.1067 71.0613C55.264 71.4133 54.1973 71.4027 53.472 71.04C51.9253 70.2613 51.5733 68.32 52.416 65.1627C53.0133 62.8693 53.9413 60.6827 55.264 58.432C56.192 56.8533 58.0693 54.144 59.2747 52.64C62.5813 48.512 67.072 44.7573 69.792 43.84C70.5813 43.584 71.7867 43.4667 71.7867 43.6693C71.7867 43.712 71.5307 43.9253 71.2107 44.1387C70.2827 44.7573 68.5867 46.1653 67.7653 47.008C66.752 48.0427 65.8987 49.2587 65.2693 50.56C64.2453 52.6507 64.224 54.176 65.2053 54.7733C65.664 55.0507 66.688 55.0613 67.4133 54.784C69.6107 53.952 72.512 50.1973 73.3973 47.04C73.568 46.4533 73.6427 45.8773 73.6427 45.1947C73.6533 44.032 73.632 44.0533 74.9867 44.064C76.576 44.064 78.1333 44.7573 81.3867 46.88C83.232 48.0853 84.7787 49.0133 84.928 49.0133C84.96 49.0133 85.5147 48.448 86.1653 47.744L87.3493 46.4853L85.728 45.536C84.832 45.024 83.648 44.3413 83.0933 44.0107C80.864 42.72 79.424 42.272 77.4933 42.2613C76.0747 42.2613 75.2853 42.3787 73.8987 42.7947C73.0133 43.0613 72.9493 43.0613 72.7573 42.8907C72.2027 42.3893 70.624 42.1013 69.44 42.2933ZM72.64 45.1627C72.64 46.4747 71.808 48.736 70.72 50.3573C69.92 51.552 68.1813 53.2587 67.3173 53.6853C66.5173 54.08 66.1653 54.112 65.7707 53.8027C64.5867 52.864 67.264 48.3413 70.464 45.8987C71.232 45.312 72.32 44.64 72.512 44.64C72.5973 44.64 72.64 44.8107 72.64 45.1627Z" fill="#E41E2B"/>
<path d="M103.136 42.5707C102.08 43.6693 99.8613 45.28 98.2826 46.1013C96.3306 47.104 94.0586 47.7227 92.2453 47.744L91.2533 47.7547L90.3253 48.7787C89.152 50.1013 88.9173 50.3893 89.0133 50.4853C89.056 50.528 89.9093 50.56 90.912 50.56C92.5866 50.56 92.8426 50.5387 93.8133 50.2613C96.5653 49.504 99.52 47.5413 101.536 45.1413C102.389 44.1173 103.701 42.1867 103.541 42.1867C103.52 42.1867 103.339 42.3573 103.136 42.5707Z" fill="#E41E2B"/>
<path d="M93.792 42.7627C92.1066 43.392 90.2506 44.8213 87.3493 47.7227C82.528 52.5653 79.6266 56.608 76.448 62.9547L75.8506 64.128L75.232 64.2987C74.5386 64.5013 74.1333 64.5333 74.1333 64.384C74.1333 64.3413 74.272 63.9893 74.4426 63.616C75.2213 61.888 75.5946 59.968 75.3066 59.0827C75.04 58.2507 74.3466 57.76 73.4186 57.76C71.872 57.76 69.984 58.8907 67.7333 61.1627C64.6506 64.2667 62.6453 67.936 62.432 70.8267C62.3466 72 62.56 72.7467 63.136 73.2587C64.128 74.1547 65.4506 73.984 67.3173 72.7253C69.472 71.264 71.5306 68.9387 73.1306 66.1547C73.5146 65.4827 73.568 65.44 73.92 65.44C74.1226 65.4293 74.5066 65.3867 74.7733 65.3333C75.04 65.2907 75.264 65.2587 75.2746 65.2693C75.2853 65.28 75.04 66.0587 74.72 66.9973C73.4613 70.752 73.504 72.832 74.88 73.5147C76.192 74.1867 77.5466 73.6 79.6053 71.4773L80.448 70.624L80.3733 71.1147C80.2773 71.776 80.48 72.7253 80.8213 73.12C81.2053 73.5893 81.6426 73.7813 82.3146 73.7813C83.104 73.792 84.352 73.1627 85.504 72.1707L86.368 71.4347L86.4213 72.1813C86.4853 73.024 86.688 73.3867 87.264 73.6853C87.9786 74.0587 89.152 73.7173 90.5493 72.7253C91.3813 72.128 93.248 70.2933 94.1546 69.1733C95.0293 68.0853 96.64 65.8667 96.64 65.7493C96.64 65.696 96.4053 65.6533 96.128 65.6533H95.616L94.592 67.008C94.0373 67.7653 93.2586 68.7147 92.864 69.1413C92.0746 69.9947 90.9866 70.7733 90.6026 70.7733C90.3893 70.7733 90.3466 70.72 90.3466 70.4533C90.3466 70.0267 90.1973 70.2827 93.984 63.872C95.7973 60.8107 97.28 58.2827 97.28 58.2507C97.28 58.2187 96.544 58.1867 95.648 58.1867H94.0266L93.824 58.56L93.6213 58.9333L93.12 58.464C92.48 57.8667 91.9893 57.7173 91.136 57.8773C89.728 58.1333 88.1813 59.1573 86.5066 60.9387C85.0773 62.432 83.9893 63.8613 81.76 67.1467C79.9253 69.8667 78.9653 70.88 78.24 70.88C77.792 70.88 77.632 70.6773 77.568 70.048C77.4826 69.1307 78.048 67.264 79.1466 64.768C79.5733 63.808 79.6053 63.776 80.352 63.2853C83.744 61.0453 88.672 56.2987 91.8826 52.1707C92.3306 51.5947 92.6933 51.1147 92.672 51.0933C92.6506 51.0827 92.384 51.104 92.0853 51.136C91.52 51.2 91.52 51.2 90.6666 52.256C88.736 54.656 85.5573 57.92 83.36 59.7867C82.3573 60.64 80.8426 61.728 80.7786 61.664C80.64 61.536 83.008 57.472 84.7466 54.8267C87.328 50.9227 90.1546 47.5307 92.672 45.3227C94.1973 43.9893 95.072 43.4987 95.3493 43.8293C95.52 44.0427 95.296 44.8747 94.72 46.112C94.3893 46.816 94.336 46.9867 94.4853 46.944C94.5813 46.912 94.8693 46.8373 95.1146 46.7733C95.5413 46.6667 95.5733 46.6347 95.872 45.8347C96.4373 44.3733 96.544 43.6907 96.32 43.0933C96.096 42.496 94.9333 42.336 93.792 42.7627ZM74.0693 59.584C74.3146 59.8613 74.3466 60.0107 74.3466 60.6507C74.3466 61.12 74.2613 61.632 74.1226 62.0587C73.856 62.8587 73.184 64.16 73.0026 64.2347C72.8426 64.2987 72.128 63.936 71.6906 63.5627C70.912 62.912 70.6666 61.76 71.1146 60.9067C71.3813 60.3947 72.192 59.616 72.672 59.4133C73.2693 59.1467 73.76 59.2107 74.0693 59.584ZM92.736 59.6373C92.832 59.7227 92.9066 59.84 92.9066 59.8933C92.9066 60.0213 90.528 64.032 89.312 65.952C87.424 68.9387 86.08 70.56 85.3333 70.72C84.8 70.8373 84.48 70.56 84.48 69.9733C84.48 67.9253 88.8106 61.4613 91.2426 59.872C91.9253 59.4347 92.448 59.3493 92.736 59.6373ZM70.6666 64.0213C71.0293 64.384 71.5733 64.8 71.8826 64.9493C72.1813 65.1093 72.4266 65.2693 72.4266 65.3227C72.4266 65.4613 71.3386 67.168 70.7626 67.9147C70.0373 68.8747 68.7146 70.144 68.1386 70.4213C67.5306 70.7307 66.9973 70.7413 66.688 70.4533C65.8133 69.632 66.624 67.2747 68.896 63.9787L69.6853 62.8373L69.8453 63.0933C69.9413 63.2427 70.3146 63.6587 70.6666 64.0213Z" fill="#E41E2B"/>
<path d="M21.2587 49.9733C17.6213 50.7307 12.1707 56.9067 11.072 61.4933C10.912 62.1653 10.8693 62.6453 10.9013 63.36C10.9547 64.512 11.2213 65.0987 11.9253 65.6C12.352 65.888 12.4693 65.92 13.2053 65.92C13.9093 65.92 14.1333 65.8667 14.7307 65.5893C16.1493 64.9173 17.7173 63.6587 19.1787 62.0267C19.8933 61.2267 21.472 58.9973 22.4533 57.3867C22.5387 57.248 23.552 56.928 23.968 56.9067C24.0427 56.9067 23.744 57.6427 23.3067 58.528C22.3787 60.416 22.08 61.4613 22.08 62.7307C22.08 63.8827 22.3467 64.6293 22.9547 65.1733C24.384 66.4747 26.1867 66.304 28.6933 64.64C29.248 64.2667 30.2187 63.5093 30.8373 62.944L31.9787 61.9307L31.8293 62.4853C31.36 64.2667 31.6267 65.408 32.608 65.824C33.6747 66.2827 35.424 65.6107 36.928 64.1813L37.5467 63.5947V64.1707C37.5467 64.8427 37.7813 65.376 38.2187 65.696C38.7093 66.0587 39.6587 65.9947 40.5333 65.5573C42.2613 64.672 44.4693 62.5173 46.8587 59.3813C47.9253 57.9733 47.8933 58.08 47.232 58.08H46.6667L45.9307 58.9973C44.864 60.32 43.168 62.0587 42.5707 62.4427C42.2933 62.624 41.9307 62.7733 41.7813 62.7733C41.536 62.7733 41.4933 62.7307 41.4933 62.4533C41.4933 62.0053 41.4827 62.0267 45.2053 55.808L48.5227 50.2933H46.88C45.2373 50.2933 45.2267 50.2933 45.056 50.56L44.8853 50.8267L44.512 50.496C44.032 50.08 43.744 49.9733 43.0933 49.9733C41.8453 49.9733 40.288 50.8693 38.4213 52.6827C37.024 54.0373 36.2347 54.944 34.5067 57.2267C30.9547 61.888 28.416 64.0427 26.9653 63.616C26.016 63.3493 25.7067 62.4107 26.0907 60.9173C26.4107 59.6587 27.9147 56.7893 29.0667 55.264C30.3467 53.5573 32.192 51.8827 33.12 51.5733C33.8133 51.3493 34.3467 51.6373 34.3467 52.2667C34.3467 52.5973 34.3253 52.6187 33.8773 52.6827C33.1733 52.7893 32.608 53.2587 32.2133 54.0693C31.7547 55.008 31.8827 55.5627 32.6187 55.7867C33.28 55.9893 34.304 55.104 34.9333 53.8027C35.5733 52.4693 35.5627 51.4347 34.9227 50.72C34.3893 50.1333 33.8027 49.9307 32.7573 49.9947C31.328 50.08 30.1653 50.752 27.904 52.8107C26.0053 54.528 25.5893 54.8693 24.7573 55.36C24.032 55.7973 23.4133 56.032 23.296 55.9253C23.2747 55.8933 23.3707 55.5733 23.52 55.2107C23.872 54.3573 24.2133 52.928 24.2133 52.32C24.2133 51.712 24.032 51.072 23.7653 50.688C23.3387 50.0907 22.2187 49.7707 21.2587 49.9733ZM22.7093 51.7333C23.2427 52.256 23.104 53.6427 22.3467 55.2747C21.9733 56.0747 21.9733 56.0747 21.632 56.0107C21.0347 55.8933 20.1707 55.4133 19.8827 55.04C19.168 54.1013 19.68 52.576 20.9707 51.776C21.7387 51.3067 22.2613 51.296 22.7093 51.7333ZM43.9573 51.5733C44.064 51.6373 44.16 51.776 44.16 51.8933C44.16 52.2453 40.1813 58.8693 39.008 60.48C38.3253 61.408 37.2693 62.528 36.8853 62.7307C36.4693 62.944 36.0107 62.912 35.7867 62.6667C35.6053 62.464 35.5947 62.3787 35.712 61.8347C36 60.4267 37.4507 57.9733 39.744 54.9973C41.2587 53.024 42.1973 52.064 42.9227 51.7227C43.5307 51.4347 43.6587 51.424 43.9573 51.5733ZM18.6667 55.3707C19.0187 55.904 19.7013 56.4053 20.5547 56.7573C20.96 56.9173 21.3013 57.0667 21.3227 57.088C21.376 57.12 20.6933 58.24 20.064 59.1467C18.0587 62.0373 16.16 63.3707 15.3067 62.5067C14.7627 61.9733 14.9867 60.544 15.904 58.6987C16.3307 57.856 18.1973 54.9867 18.3253 54.9867C18.368 54.9867 18.5173 55.1573 18.6667 55.3707Z" fill="#E41E2B"/>
<path d="M50.0053 51.6693C49.5467 52.4267 49.1733 53.0667 49.1733 53.1093C49.1733 53.1413 49.856 53.1733 50.6987 53.1733H52.2133L52.8853 52.0747C53.248 51.4773 53.6427 50.8267 53.7707 50.6347L53.9947 50.2933H52.4053L50.8267 50.304L50.0053 51.6693Z" fill="#E41E2B"/>
<path d="M108.8 73.0133V85.4933H154.4H200V73.0133V60.5333H154.4H108.8V73.0133ZM176.619 63.104C177.109 63.2107 178.101 63.552 178.837 63.8507L180.16 64.3947V66.336C180.16 67.392 180.192 68.3627 180.213 68.48C180.245 68.5973 180.224 68.768 180.171 68.8533C180.085 68.9707 179.883 68.832 179.179 68.1493C177.664 66.6987 176.288 65.888 175.168 65.792C174.091 65.7067 173.536 66.1973 173.696 67.0933C173.803 67.6587 174.379 68.2027 175.627 68.9173C177.184 69.8027 178.272 70.6027 179.36 71.68C180.128 72.4373 180.427 72.8107 180.725 73.44C182.325 76.7253 180.373 80.6187 176.48 81.9307C175.253 82.336 173.621 82.4107 172.373 82.0907C171.349 81.8347 169.717 81.088 168.939 80.5227L168.427 80.1387V77.9093C168.427 76.6827 168.469 75.68 168.523 75.68C168.565 75.68 169.141 76.1813 169.803 76.8C171.797 78.6773 172.821 79.2213 173.824 78.976C174.357 78.8373 174.688 78.56 174.901 78.048C175.104 77.568 175.008 76.896 174.688 76.4053C174.539 76.192 173.493 75.4027 172 74.368C169.013 72.32 168.821 72.1707 168.48 71.584C168.181 71.0613 167.893 69.9093 167.893 69.1733C167.893 68.384 168.192 67.2533 168.629 66.336C169.355 64.8107 170.741 63.5947 172.309 63.0933C173.333 62.7627 175.168 62.7733 176.619 63.104ZM126.816 65.0773C127.008 65.984 127.136 66.7627 127.104 66.8053C127.061 66.8373 126.901 66.7413 126.741 66.592C126.208 66.08 124.8 65.2373 123.936 64.9067C122.837 64.4907 121.963 64.288 120.821 64.2027L119.893 64.128V68.096V72.0747L121.899 72.032C123.776 72 123.925 71.9893 124.427 71.7333C124.821 71.5307 125.077 71.296 125.429 70.7947C125.685 70.4213 125.92 70.144 125.952 70.176C126.016 70.2507 127.147 75.1787 127.104 75.232C127.083 75.2533 126.795 75.0293 126.475 74.7413C125.237 73.664 123.659 73.1413 121.365 73.0453L119.893 72.9813V76.2347C119.893 80.1707 119.925 80.3307 120.843 81.248L121.461 81.8667H117.312H113.173V73.7067C113.173 68.096 113.141 65.3867 113.056 65.0027C112.96 64.576 112.821 64.32 112.448 63.9253L111.968 63.4133H119.221H126.475L126.816 65.0773ZM142.709 65.0773C142.901 65.9947 143.04 66.7627 143.008 66.784C142.976 66.816 142.645 66.6027 142.261 66.304C141.269 65.5573 140.363 65.0773 139.253 64.704C138.304 64.3947 137.013 64.16 136.203 64.16H135.787V68.1173V72.0747L137.792 72.032C140.245 71.9893 140.523 71.8933 141.291 70.816C141.568 70.432 141.803 70.144 141.835 70.1653C141.899 70.24 143.029 75.2 142.987 75.2427C142.955 75.264 142.688 75.0507 142.379 74.7733C141.707 74.1653 140.416 73.536 139.307 73.28C138.869 73.1733 137.899 73.0667 137.152 73.0347L135.787 72.9813V77.0027V81.0133H136.725C138.752 81.0133 140.608 80.288 142.379 78.7947C142.688 78.5387 142.965 78.336 142.987 78.3573C143.008 78.3787 142.912 79.0293 142.773 79.7867C142.635 80.5547 142.485 81.3333 142.453 81.5147L142.389 81.8667H135.733H129.077L129.045 73.4613C129.013 64.0747 129.056 64.6507 128.235 63.808L127.851 63.4133H135.104H142.347L142.709 65.0773ZM151.456 63.6907C152.363 63.9467 152.949 64.6187 153.973 66.6133C156.587 71.6587 157.845 72.3733 158.933 69.408C159.339 68.3093 159.595 67.2427 159.947 65.3333C160.096 64.48 160.245 63.7013 160.277 63.5947C160.331 63.424 160.576 63.4133 163.488 63.4133H166.635L166.603 71.4347C166.592 75.8507 166.613 79.6053 166.667 79.7867C166.827 80.3947 167.136 80.8747 167.691 81.376L168.235 81.8667H164.064H159.893L159.872 76.4373L159.84 70.9973L157.333 76.8533C155.957 80.0747 154.795 82.72 154.763 82.72C154.731 82.72 153.152 80.0747 151.243 76.8427L147.787 70.9653L147.701 74.7307C147.595 79.9253 147.691 80.5227 148.821 81.4827L149.269 81.8667H147.435H145.6V73.568C145.6 68.2453 145.557 65.1413 145.493 64.8853C145.429 64.672 145.163 64.2773 144.907 64C144.64 63.7333 144.427 63.4987 144.427 63.488C144.427 63.4667 145.877 63.4773 147.659 63.4987C150.091 63.52 151.019 63.5733 151.456 63.6907ZM187.093 65.1733C187.456 65.9947 188.395 67.936 189.163 69.4933C192.352 75.8827 194.731 79.84 196.267 81.2693C196.555 81.5467 196.8 81.792 196.8 81.8133C196.8 81.8453 195.157 81.8667 193.163 81.8667C190.592 81.8667 189.387 81.824 189.077 81.7387C188.267 81.4933 187.872 80.9493 186.464 78.1333C185.76 76.7147 185.013 75.3387 184.832 75.072C184.043 73.984 183.157 74.0373 182.059 75.2427C181.749 75.5947 181.547 75.7547 181.579 75.6267C181.632 75.424 185.771 64.6187 186.091 63.8613C186.176 63.648 186.283 63.52 186.336 63.584C186.379 63.6373 186.72 64.352 187.093 65.1733Z" fill="#E41E2B"/>
<path d="M94.112 71.8827C93.696 72.2453 93.6853 72.9813 94.1013 73.3973C94.5173 73.824 95.1893 73.8027 95.5947 73.344C96.0107 72.8853 96 72.3627 95.584 71.936C95.168 71.5307 94.5493 71.5093 94.112 71.8827ZM95.424 71.9893C96.0213 72.5013 95.6587 73.5467 94.88 73.5467C94.3467 73.5467 93.9733 73.1947 93.9733 72.6827C93.9733 71.8507 94.8053 71.4453 95.424 71.9893Z" fill="#E41E2B"/>
<path d="M94.4 72.6293C94.4 72.96 94.4533 73.2267 94.5066 73.2267C94.5706 73.2267 94.6133 73.1307 94.6133 73.0133C94.6133 72.7147 95.0186 72.736 95.136 73.0347C95.2106 73.216 95.232 73.1307 95.2213 72.6933L95.2 72.1067L94.8053 72.0747L94.4 72.0427V72.6293ZM95.0186 72.4053C95.04 72.5333 94.9866 72.5867 94.8373 72.5867C94.6773 72.5867 94.6133 72.5227 94.6133 72.3627C94.6133 72.096 94.9653 72.128 95.0186 72.4053Z" fill="#E41E2B"/>
<path d="M0 90.9867V92H100H200V90.9867V89.9733H100H0V90.9867Z" fill="#E41E2B"/>
</svg>
