<svg width="200" height="102" viewBox="0 0 200 102" fill="none" xmlns="http://www.w3.org/2000/svg">
<rect width="200" height="102" fill="white"/>
<path fill-rule="evenodd" clip-rule="evenodd" d="M139.265 5.46923C139.265 5.46923 135.576 6.94865 131.269 11.6921C126.946 16.4507 124.468 21.7732 126.313 23.1793C127.028 23.7272 128.665 23.8132 131.649 21.1267C133.984 19.0369 136.354 16.3006 137.955 12.3791C139.882 7.68035 139.265 5.52234 139.265 5.46923ZM162.828 13.9892C158.045 11.5479 154.543 8.55283 150.908 6.68058C147.435 4.90359 145.2 4.16093 142.396 4.5369C141.925 4.59928 141.237 4.8311 141.237 4.8311C141.237 4.8311 142.695 9.7566 136.933 18.0506C131.115 26.4492 125.842 26.4087 124.34 24.0847C122.766 21.651 124.793 16.6808 128.176 12.2569C131.73 7.63905 137.962 3.7993 137.962 3.7993C137.962 3.7993 135.983 2.58794 131.098 5.35627C126.339 8.05548 118.117 14.473 110.519 25.3053C102.93 36.124 101.409 42.0847 100.324 46.7792C99.2311 51.4603 100.234 56.4945 105.427 56.4945C110.629 56.4945 116.671 48.5528 118.379 45.7938C121.555 40.6559 123.618 32.7724 119.311 33.8581C117.176 34.3959 115.448 36.7622 114.373 39.018C113.251 41.3522 112.808 43.5818 112.808 43.5818C112.808 43.5818 111.007 44.2242 108.592 46.029C106.177 47.838 104.593 49.5653 104.593 49.5653C104.593 49.5653 104.613 45.8166 107.606 39.7522C110.583 33.6811 116.065 30.9094 119.175 30.6514C121.98 30.4154 125.617 32.796 122.54 41.5739C119.465 50.3475 110.357 60.9808 100.795 61.1359C91.957 61.2514 86.1776 49.9817 98.4614 30.326C112.038 8.57559 127.995 1.90429 133.179 1.15488C138.353 0.408006 140.043 2.69163 140.043 2.69163C140.043 2.69163 144.377 0.683659 149.877 1.05878C156.217 1.49376 161.111 5.96658 167.561 9.10498C165.869 10.7378 164.267 12.4204 162.828 13.9892ZM191.233 6.66288C186.854 9.47589 180.794 12.0267 174.959 11.4754C173.485 12.9987 171.911 14.7529 170.318 16.6892C180.441 18.6803 189.278 12.4204 193.991 7.08437C196.922 3.75377 198.368 0.778073 198.368 0.778073C198.368 0.778073 195.565 3.87685 191.233 6.66288ZM177.79 35.147C177.927 34.9253 177.971 34.7222 177.971 34.7222C177.971 34.7222 177.871 33.8708 177.049 33.8353C176.09 33.7991 174.778 33.9795 171.341 37.7923C167.912 41.5873 165.833 44.8842 164.023 48.187C162.051 51.7814 161.255 54.4638 162.396 55.1601C162.713 55.359 163.2 55.3725 163.589 55.2823C164.348 55.0884 165.218 54.3727 166.548 52.8444C167.171 52.1296 167.85 51.1121 168.674 49.9817C170.944 46.8838 176.66 37.1154 177.79 35.147ZM142.025 39.3071C142.603 37.8066 143.328 34.8579 141.799 33.7089C140.17 32.4697 135.999 35.3594 135.983 38.3217C135.963 41.3429 138.923 42.7178 139.637 42.9041C140.043 43.0212 140.179 43.0035 140.378 42.6773C140.496 42.464 141.454 40.8135 142.025 39.3071ZM138.886 44.8202C138.767 44.7847 137.42 44.1694 136.019 43.0035C134.617 41.836 133.911 40.4974 133.856 40.3895C133.803 40.2892 133.739 40.3659 133.675 40.4527C133.621 40.5336 133.359 40.7595 131.143 44.0261C128.917 47.2901 125.507 54.0389 128.602 55.1778C130.582 55.9061 133.875 52.4508 135.666 50.1486C137.329 48.0133 138.896 45.3006 138.986 45.1009C139.076 44.912 138.994 44.8615 138.886 44.8202ZM173.901 52.6008C173.069 53.9352 172.12 56.5122 174.886 54.9021C178.243 52.949 183.055 45.6623 183.055 45.6623H185.227C185.227 45.6623 182.368 50.1941 178.641 54.3281C175.213 58.1181 171.042 61.5549 168.111 61.2245C164.675 60.8148 165.751 56.3133 165.751 56.3133C165.751 56.3133 160.83 61.5423 157.438 61.1806C152.861 60.6647 154.254 54.9932 154.254 54.9932C154.254 54.9932 149.071 61.3737 145.543 61.1806C140.007 60.8451 141.392 54.0845 142.93 49.3621C143.752 46.829 144.53 44.8303 144.53 44.8303C144.53 44.8303 143.969 44.9795 142.784 45.1472C142.177 45.2366 141.048 45.3007 141.048 45.3007C141.048 45.3007 138.751 49.3756 136.904 51.827C135.059 54.2826 127.225 62.7081 122.604 61.0129C118.335 59.466 119.746 52.9169 122.223 47.7335C125.852 40.1627 136.045 29.2808 141.925 30.7054C148.013 32.1848 142.061 43.3154 142.061 43.3154C142.061 43.3154 142.069 43.3508 142.124 43.3728C142.251 43.4284 142.567 43.4604 143.301 43.3154C144.467 43.0929 145.536 42.6453 145.536 42.6453C145.536 42.6453 151.657 29.8101 158.424 21.4116C165.19 13.013 178.695 -1.46003 183.996 2.04001C185.299 2.89478 184.71 5.86206 182.964 9.45735C182.187 9.70181 181.39 9.9193 180.568 10.0862C181.744 7.96949 182.512 6.18239 182.74 4.93057C183.534 0.597676 173.404 9.73806 166.167 19.5891C158.94 29.4384 154.598 38.3537 154.598 38.3537C154.598 38.3537 156.064 37.5259 158.334 35.689C160.713 33.7763 163.97 30.7737 167.515 27.1067C169.911 24.636 172.716 21.533 175.349 18.0692C176.127 18.0279 176.895 17.9512 177.646 17.834C174.714 21.7774 171.639 25.3879 169.017 28.0374C166.141 30.9541 163.02 34.1026 160.287 36.3904C155.973 40.027 152.636 42.0847 152.636 42.0847C152.636 42.0847 146.304 54.844 149.741 55.6633C151.766 56.1464 155.765 49.9817 155.765 49.9817C155.765 49.9817 160.975 42.0257 164.123 38.4439C168.402 33.5639 172.101 30.7416 175.792 30.6919C177.945 30.6472 179.212 32.9401 179.212 32.9401L180.215 31.3755H186.456C186.456 31.3755 174.842 51.1121 173.901 52.6008ZM103.808 16.3866H97.8815L94.5365 21.8052H100.46L103.808 16.3866ZM75.7753 35.1285C78.2907 31.6782 85.2453 19.5747 85.2453 19.5747C85.2453 19.5747 85.1197 18.725 84.3062 18.6888C83.346 18.6483 81.7545 18.9686 78.5613 22.9584C75.3681 26.9474 72.9075 30.1305 71.1086 33.4282C69.136 37.0327 68.2686 39.5785 69.4074 40.2622C69.7143 40.4569 70.2125 40.4797 70.5918 40.3895C71.3336 40.2082 72.3022 39.4664 73.6223 37.933C74.2377 37.214 74.9517 36.2597 75.7753 35.1285ZM43.99 18.784C42.3521 17.5448 38.1912 20.443 38.1727 23.3968C38.1465 26.4315 41.9366 27.2955 42.4162 27.3132C42.4162 27.3132 42.8411 27.4313 43.013 27.0688C43.1201 26.8471 43.6276 25.8928 44.2075 24.3915C44.7757 22.8868 45.5082 19.9372 43.99 18.784ZM41.5201 29.2133C41.4207 29.1821 39.8384 28.7286 38.3084 27.7524C36.7801 26.7662 36.0754 25.3103 36.0206 25.2109C35.9557 25.1156 35.9025 25.1873 35.8402 25.2732C35.7769 25.3559 35.4414 25.7799 33.2253 29.0456C31.0006 32.3112 27.708 39.0053 30.7924 40.1492C32.7726 40.8818 36.0922 37.4045 37.8835 35.1066C39.5476 32.9721 41.5387 29.693 41.6196 29.5025C41.7022 29.3035 41.628 29.258 41.5201 29.2133ZM89.9137 31.2078H92.0843C92.0843 31.2078 81.22 46.92 75.079 46.2094C71.632 45.8166 72.6453 41.5781 72.6453 41.5781C72.6453 41.5781 67.8336 47.2226 63.4198 46.1006C59.4123 45.0747 61.9994 38.3992 61.9994 38.3992C61.5366 38.5796 52.8539 48.3758 46.766 46.029C40.3889 43.5641 43.6908 35.3729 44.903 32.9123C45.9348 30.836 47.0644 28.8062 47.0644 28.8062C47.0644 28.8062 46.0874 29.086 45.4821 29.2268C44.876 29.3667 43.9445 29.548 43.9445 29.548C43.9445 29.548 40.9326 34.4549 39.0865 36.9063C37.2513 39.3535 29.4083 47.7782 24.7854 46.1006C20.1634 44.4189 21.3031 37.9558 23.8986 32.8229C28.1059 24.4867 38.0918 14.2556 44.0979 15.7805C50.1775 17.3324 45.1567 27.1961 45.1567 27.1961C45.1567 27.1961 46.3681 27.3495 49.2637 25.3736C53.4331 22.5285 58.9326 14.8667 64.8941 15.7628C67.6979 16.1792 70.3035 19.0555 66.7394 24.5137C65.5989 26.2604 63.6811 27.8342 62.2067 26.2865C61.3031 25.328 62.0988 23.573 63.0573 22.3658C64.4052 20.6605 66.2682 20.8957 66.2682 20.8957C66.2682 20.8957 67.2545 18.6348 64.7576 18.6753C62.7218 18.72 57.6024 23.4474 54.6992 28.227C52.0405 32.6097 48.0245 40.0852 52.0683 41.7096C55.7664 43.2067 62.8221 34.8258 66.0878 30.4483C69.3451 26.0513 76.7885 16.1017 83.0308 15.6852C85.1652 15.5504 86.4591 17.5128 86.4591 17.5128L87.1807 16.3681H93.4137C93.4137 16.3681 81.6643 36.0018 80.7404 37.4905C80.0188 38.6572 79.0587 41.2704 81.7191 39.8002C84.3778 38.3259 89.9137 31.2078 89.9137 31.2078ZM86.5308 62.6643C81.8 59.3446 76.0568 57.888 70.8279 58.0877C65.5449 58.3111 63.1753 62.2512 63.1753 62.2512C60.7872 58.0877 56.0749 55.5403 48.7925 55.5984C37.0338 55.7392 25.3746 61.1806 16.1297 61.1806C7.26415 61.1806 0.788411 55.5984 1.0059 45.707C1.37681 28.372 16.0387 12.7281 26.9847 5.69515C33.2885 1.63875 38.5613 0.444254 42.0091 0.828651C44.5237 1.10852 47.5533 4.01257 45.6448 8.29573C42.8411 14.5683 38.9693 14.0524 39.1143 11.0455C39.1859 9.10498 40.4892 7.87424 41.467 7.20492C42.0807 6.775 43.1749 6.65361 43.754 6.63928C44.2977 6.16974 44.7226 2.74642 40.2093 3.87685C35.6952 5.00728 30.2588 9.43121 25.0838 15.1516C19.9096 20.8645 11.86 31.6917 9.86894 43.0567C8.9383 48.3227 9.5621 57.9183 22.0356 57.8155C32.6208 57.7244 48.2319 50.7463 62.5785 50.8769C68.1506 50.9233 72.9985 52.4187 76.77 54.7673C80.4968 57.0551 84.9485 60.3882 86.5308 62.6643Z" fill="#0A0B09"/>
<path fill-rule="evenodd" clip-rule="evenodd" d="M25.6857 94.0398C24.1186 93.2845 22.9013 92.2021 22.0339 90.7927C21.1665 89.3849 20.7324 87.7445 20.7324 85.8739V70.3867H24.1135V85.5013C24.1135 87.5531 24.75 89.1649 26.0237 90.3366C27.2975 91.5092 29.0045 92.095 31.1465 92.095C33.3112 92.095 35.0233 91.5092 36.2861 90.3366C37.5489 89.1649 38.1803 87.5531 38.1803 85.5013V70.3867H41.5614V85.8739C41.5614 87.7672 41.1332 89.4127 40.2759 90.8104C39.4194 92.208 38.2022 93.2845 36.6241 94.0398C35.0461 94.7943 33.2202 95.1727 31.1465 95.1727C29.0719 95.1727 27.2519 94.7943 25.6857 94.0398Z" fill="#0A0B09"/>
<path fill-rule="evenodd" clip-rule="evenodd" d="M58.2304 76.237V79.2793C57.599 79.1444 56.9677 79.077 56.3371 79.077C54.5559 79.077 53.0959 79.5558 51.9587 80.5143C50.8198 81.4727 50.25 82.819 50.25 84.5546V94.7327H47.0045V76.3044H50.0814V79.1781C50.7583 78.0958 51.6763 77.3025 52.8379 76.7942C53.9987 76.2867 55.1755 76.0338 56.3708 76.0338C57.0688 76.0338 57.6901 76.1013 58.2304 76.237Z" fill="#0A0B09"/>
<mask id="mask0_0_13344" style="mask-type:luminance" maskUnits="userSpaceOnUse" x="61" y="75" width="41" height="27">
<path fill-rule="evenodd" clip-rule="evenodd" d="M61.341 75.8644H101.816V101.106H61.341V75.8644Z" fill="white"/>
</mask>
<g mask="url(#mask0_0_13344)">
<path fill-rule="evenodd" clip-rule="evenodd" d="M78.4172 76.3044V94.7327H75.3403V92.1962C74.5732 93.2558 73.6097 94.017 72.4489 94.479C71.2881 94.9401 70.0759 95.1727 68.814 95.1727C67.3489 95.1727 66.0524 94.8844 64.9253 94.3095C63.7983 93.7355 62.9191 92.9186 62.2885 91.8582C61.6571 90.7994 61.341 89.5594 61.341 88.139V76.3044H64.5873V87.5295C64.5873 88.9735 65.0096 90.1065 65.8551 90.9284C66.7006 91.7511 67.901 92.1625 69.4563 92.1625C70.5834 92.1625 71.5747 91.9492 72.432 91.521C73.2885 91.0927 73.9587 90.5111 74.4442 89.7785C74.9289 89.046 75.1709 88.2182 75.1709 87.2935V76.3044H78.4172Z" fill="#0A0B09"/>
<path fill-rule="evenodd" clip-rule="evenodd" d="M95.4082 90.2523C96.3885 89.7676 97.1666 89.0696 97.7407 88.1558C98.3156 87.2437 98.6039 86.1664 98.6039 84.9272C98.6039 83.7091 98.3156 82.6394 97.7407 81.7146C97.1666 80.7899 96.3826 80.0751 95.3905 79.5676C94.3991 79.0601 93.3058 78.8064 92.1113 78.8064C90.9159 78.8064 89.8395 79.0652 88.8819 79.5844C87.9234 80.1029 87.174 80.8236 86.6336 81.7475C86.0924 82.6731 85.8219 83.731 85.8219 84.9272C85.8219 86.1217 86.0924 87.1746 86.6336 88.0875C87.174 89.0013 87.9234 89.7111 88.8819 90.2186C89.8395 90.7252 90.9159 90.9789 92.1113 90.9789C93.3285 90.9789 94.4278 90.737 95.4082 90.2523ZM101.816 76.3044V93.0071C101.816 94.6543 101.404 96.0907 100.582 97.3198C99.7588 98.548 98.6089 99.4947 97.1329 100.16C95.656 100.825 93.9591 101.157 92.0438 101.157C89.0901 101.157 86.4752 100.571 84.1991 99.3986L85.4155 96.6597C87.4893 97.7421 89.6877 98.2825 92.0101 98.2825C93.9709 98.2825 95.5548 97.8037 96.7603 96.8452C97.9666 95.8867 98.5693 94.5751 98.5693 92.9068V90.8103C97.8031 91.8025 96.8505 92.5679 95.7125 93.1091C94.5745 93.6503 93.2721 93.9209 91.8061 93.9209C90.003 93.9209 88.3963 93.5323 86.9885 92.7542C85.5799 91.977 84.4866 90.8997 83.7085 89.5257C82.9304 88.1508 82.5418 86.6174 82.5418 84.9272C82.5418 83.2362 82.9304 81.6969 83.7085 80.3111C84.4866 78.9244 85.5799 77.837 86.9885 77.0488C88.3963 76.2589 90.003 75.8644 91.8061 75.8644C93.3167 75.8644 94.6579 76.1637 95.8305 76.7605C97.0022 77.3581 97.9725 78.1978 98.7388 79.2793V76.3044H101.816Z" fill="#0A0B09"/>
</g>
<path fill-rule="evenodd" clip-rule="evenodd" d="M123.828 76.3044V94.7327H120.751V92.1962C119.984 93.2558 119.022 94.017 117.861 94.479C116.699 94.9401 115.487 95.1727 114.225 95.1727C112.76 95.1727 111.463 94.8844 110.336 94.3095C109.209 93.7355 108.33 92.9186 107.7 91.8582C107.068 90.7994 106.752 89.5594 106.752 88.139V76.3044H109.998V87.5295C109.998 88.9735 110.421 90.1065 111.266 90.9284C112.112 91.7511 113.312 92.1625 114.867 92.1625C115.994 92.1625 116.987 91.9492 117.843 91.521C118.7 91.0927 119.371 90.5111 119.855 89.7785C120.34 89.046 120.582 88.2182 120.582 87.2935V76.3044H123.828Z" fill="#0A0B09"/>
<mask id="mask1_0_13344" style="mask-type:luminance" maskUnits="userSpaceOnUse" x="127" y="75" width="41" height="27">
<path fill-rule="evenodd" clip-rule="evenodd" d="M127.818 75.8973H167.718V101.106H127.818V75.8973Z" fill="white"/>
</mask>
<g mask="url(#mask1_0_13344)">
<path fill-rule="evenodd" clip-rule="evenodd" d="M139.94 90.8778C141.281 89.9092 142.02 88.3531 142.155 86.2111H137.354C133.16 86.2111 131.064 87.2597 131.064 89.3554C131.064 90.281 131.453 91.0076 132.231 91.537C133.008 92.0672 134.039 92.3319 135.324 92.3319C137.06 92.3319 138.598 91.8464 139.94 90.8778ZM147.802 91.8919V94.597C147.396 94.7774 146.866 94.8676 146.212 94.8676C145.198 94.8676 144.318 94.6096 143.576 94.0904C142.831 93.5719 142.391 92.8166 142.257 91.8245C141.512 92.9068 140.503 93.7304 139.229 94.2935C137.956 94.8566 136.564 95.1382 135.054 95.1382C133.003 95.1382 131.284 94.6425 129.898 93.6503C128.511 92.6582 127.818 91.2613 127.818 89.4574C127.818 87.6096 128.613 86.1605 130.201 85.1127C131.791 84.064 134.152 83.5405 137.286 83.5405H142.155V83.3037C142.155 81.8832 141.676 80.7798 140.718 79.9899C139.76 79.2009 138.469 78.8064 136.846 78.8064C135.809 78.8064 134.772 78.975 133.736 79.3139C132.698 79.6519 131.796 80.1366 131.031 80.768L129.238 78.4001C130.207 77.5672 131.38 76.9417 132.755 76.5236C134.129 76.1072 135.538 75.8973 136.981 75.8973C139.551 75.8973 141.586 76.5405 143.084 77.826C144.584 79.1107 145.333 80.8809 145.333 83.1351V90.5743C145.333 91.5648 145.841 92.0605 146.855 92.0605C147.216 92.0605 147.531 92.0048 147.802 91.8919Z" fill="#0A0B09"/>
<path fill-rule="evenodd" clip-rule="evenodd" d="M167.718 76.3044L158.385 96.9986C157.777 98.3499 156.965 99.3826 155.951 100.092C154.936 100.801 153.741 101.157 152.366 101.157C151.735 101.157 151.053 101.079 150.32 100.92C149.588 100.763 148.917 100.537 148.309 100.243L149.256 97.5381C150.359 98.0338 151.352 98.2825 152.231 98.2825C153.787 98.2825 154.936 97.4707 155.68 95.8488L156.255 94.597L147.835 76.3044H151.453L157.878 91.1138L164.201 76.3044H167.718Z" fill="#0A0B09"/>
</g>
</svg>
