<?xml version="1.0" encoding="UTF-8"?>
<svg width="130px" height="85px" viewBox="0 0 130 85" version="1.1" xmlns="http://www.w3.org/2000/svg" xmlns:xlink="http://www.w3.org/1999/xlink">
    <!-- Generator: Sketch 64 (93537) - https://sketch.com -->
    <title>compostable</title>
    <desc>Created with Sketch.</desc>
    <g id="compostable" stroke="none" stroke-width="1" fill="none" fill-rule="evenodd">
        <g id="Group-17" transform="translate(37.000000, 9.000000)" fill="#FFFFFF">
            <path d="M30.6158594,1.92572656 C23.4946492,-2.33505469 17.1636727,1.80402734 17.1636727,1.80402734 L37.0070312,12.0908828 C37.0070312,12.0908828 37.7369648,6.18650781 30.6158594,1.92572656" id="Fill-1"></path>
            <path d="M29.3983438,15.8648672 C36.3990586,17.6304219 36.8243516,13.0647383 36.8243516,13.0647383 L17.0421566,2.71716406 C17.0421566,2.71716406 22.3979691,14.0993125 29.3983438,15.8648672" id="Fill-2"></path>
            <path d="M41.933625,30.3188086 C47.1282188,34.5332656 49.0128555,39.5417773 49.0175676,44.3451016 C49.0191367,48.62525 47.5234141,52.7601969 45.4202422,55.8961109 C43.330418,59.0121344 40.6996211,60.7585836 38.6108438,61.6460719 C38.2334453,61.8067672 37.8552617,61.8002242 37.5411992,61.8575406 C37.2831445,61.8596344 37.0282305,61.8596344 36.7780273,61.856232 L36.8157148,61.8389586 L36.8599453,61.7991773 C36.8785273,61.7654156 42.6632969,56.6234273 42.6865898,50.0343961 C42.6947031,46.0436562 40.4884141,41.605168 33.7413047,37.7000625 C28.8722891,34.8787344 21.4463598,33.4463477 14.8225199,32.6923359 C8.50070352,31.9767969 2.91798086,31.893832 1.05114102,31.8878125 L7.95789883,19.0604531 C8.03615273,19.0594062 8.13455898,19.058853 8.2520707,19.058853 C10.379059,19.0557422 18.7551059,19.2946914 28.0214414,22.6284648 C24.8531527,25.0959492 22.3979691,27.0036172 22.3979691,27.0036172 C22.3979691,27.0036172 24.9225082,27.1616953 26.6932188,27.9018359 C28.5456641,28.6757383 29.3978203,29.3164258 29.3978203,29.3164258 L32.8975234,24.6575703 C35.9758594,26.1273828 39.0505313,27.980875 41.933625,30.3188086 M36.5676055,60.9938687 C36.4780977,61.0812828 36.4134531,61.1422633 36.3755039,61.177857 C36.270293,61.228107 35.8094063,61.6722437 35.3338633,61.7834742 C35.3233945,61.7858297 35.317375,61.797607 35.309,61.8046734 C13.4309613,60.549732 24.6419457,37.8285664 25.8665277,35.4702187 C28.6864688,36.2239687 31.2811484,37.1774102 33.3471563,38.3794844 C39.9411602,42.2204687 41.893582,46.3514375 41.9011756,50.0343961 C41.9037891,53.0889156 40.5219141,55.8927086 39.1219805,57.9299273 C38.4234531,58.9480133 37.722832,59.7726891 37.1988711,60.3416656 C36.9371523,60.6258922 36.7188789,60.8459977 36.5676055,60.9938687 M60.4410664,14.0993125 C60.4410664,14.0993125 57.6979922,7.58644141 51.3107461,7.58644141 C47.3158711,7.58644141 44.73925,9.46689062 41.0848711,12.395 C38.9934766,14.0707852 33.3076367,18.5103203 28.7524219,22.0589648 C19.1730707,18.5137227 10.4677816,18.2768672 8.2520707,18.2737266 C8.0761957,18.2737266 7.94167227,18.2752969 7.84980898,18.2768672 C7.8040082,18.2773906 7.76893789,18.2786992 7.74512148,18.2792227 C7.73308242,18.2797461 7.72392227,18.2797461 7.7173793,18.2802695 L7.70926602,18.2802695 L7.7048168,18.2802695 L7.69984414,18.280793 C7.69827383,18.280793 7.69670352,18.280793 7.69120742,18.2813164 C7.6880668,18.2813164 7.68466445,18.2818398 7.67393398,18.2828867 C7.66791445,18.2839336 7.66137148,18.2839336 7.6406957,18.2883828 C7.62918008,18.291 7.61609414,18.2925703 7.5791918,18.3064414 C7.56008633,18.3145547 7.53496133,18.3231914 7.4870668,18.3574766 C7.46325039,18.376582 7.40985977,18.4168867 7.37164883,18.493832 L0.0573949219,32.078082 C0.0204925781,32.1388008 2.97189167e-06,32.2097266 2.97189167e-06,32.2814375 C2.97189167e-06,32.2835313 2.97189167e-06,32.285625 2.97189167e-06,32.287457 C-0.00123007812,32.3136289 0.00269570313,32.34425 0.0118558594,32.3764414 C0.0259886719,32.4334961 0.0526839844,32.4863633 0.0903714844,32.5319023 C0.114187891,32.5625234 0.142191797,32.5886953 0.172812891,32.6067539 C0.237195703,32.6504609 0.313094141,32.6740156 0.392656641,32.6740156 C0.401031641,32.6740156 0.538172266,32.6729688 0.810883203,32.6724453 C2.37177383,32.6724453 8.15889883,32.7279297 14.7337973,33.4725195 C15.1554262,33.5198906 15.5801957,33.5706641 16.0073207,33.6243164 C14.4328207,35.2035273 8.53027773,41.5711445 8.53027773,51.4356383 C8.53027773,62.2598023 18.6598402,66.7726188 24.0559574,66.961318 C30.4313477,67.1840406 33.1037578,65.105732 37.7249258,62.9384391 C40.1183438,61.8159273 43.9174531,59.5900094 46.0755859,56.3276852 C48.2261289,53.0616969 49.8016758,48.8126406 49.8027227,44.3451016 C49.8076953,39.3352812 47.7969102,34.0519648 42.4274883,29.7084805 C39.5315703,27.3647891 36.4550664,25.501875 33.3767305,24.0192383 L39.6846758,15.6209453 C39.6846758,15.6209453 38.5284023,21.2209414 45.3456523,21.708 C52.1629023,22.1947969 60.197668,15.1341484 60.197668,15.1341484 C60.197668,15.1341484 41.0843477,15.4989844 40.7195117,15.1341484 C40.3549375,14.7693125 40.4761133,14.5863711 40.7195117,14.3427109 C40.9631719,14.0990508 60.4410664,14.0993125 60.4410664,14.0993125" id="Fill-3"></path>
            <path d="M62.8355312,2.47612109 C62.7648672,2.49862891 62.5834961,2.50988281 62.2911562,2.50988281 L62.085707,2.50988281 L62.085707,1.82889062 L62.2911562,1.82889062 C62.5793086,1.82889062 62.760418,1.84066797 62.8339609,1.86422266 C62.9075039,1.88777734 62.9642969,1.92651172 63.0043398,1.9806875 C63.0441211,2.03486328 63.0640117,2.09689063 63.0640117,2.16624609 C63.0640117,2.23795703 63.0435977,2.30181641 63.0027695,2.35808594 C62.9616797,2.41435547 62.9061953,2.45361328 62.8355312,2.47612109 M63.2726016,3.12021094 C63.2008906,3.02625391 63.1448828,2.96213281 63.103793,2.92863281 C63.0629648,2.89487109 63.0046016,2.86346484 62.9289648,2.8349375 C63.1417422,2.80431641 63.3068867,2.72501562 63.4243984,2.59729687 C63.5419102,2.46957812 63.6007969,2.3156875 63.6007969,2.135625 C63.6007969,2.00476563 63.5696523,1.88568359 63.5071016,1.77837891 C63.4448125,1.67107422 63.367082,1.59125 63.2741719,1.53916797 C63.181,1.48708594 63.0506641,1.45384766 62.8831641,1.43945312 C62.8258477,1.43526562 62.5599414,1.43343359 62.085707,1.43343359 L61.579543,1.43343359 L61.579543,3.92682813 L62.085707,3.92682813 L62.085707,2.90246094 L62.2176133,2.90246094 C62.3586797,2.90246094 62.4751445,2.93779297 62.5672695,3.00819531 C62.6591328,3.07885938 62.7755977,3.25002344 62.9169258,3.52194922 L63.1252539,3.92682813 L63.7510234,3.92682813 L63.4565898,3.42380469 C63.3524258,3.24583594 63.2909219,3.1448125 63.2726016,3.12021094" id="Fill-4"></path>
            <path d="M64.2817891,3.61093359 C64.1140273,3.90955469 63.8816211,4.14248437 63.5840469,4.31024609 C63.2864727,4.47800781 62.9731953,4.56175781 62.6439531,4.56175781 C62.3168047,4.56175781 62.0040508,4.47800781 61.7054297,4.31024609 C61.4070703,4.14248437 61.1744023,3.90955469 61.0076875,3.61093359 C60.8412344,3.3123125 60.7577461,2.99851172 60.7577461,2.66926953 C60.7577461,2.33819531 60.8430664,2.02125391 61.0139688,1.71870703 C61.1846094,1.41589844 61.4183242,1.18401563 61.7145898,1.02227344 C62.0111172,0.860792969 62.3209922,0.780183594 62.6439531,0.780183594 C62.9671758,0.780183594 63.2773125,0.860792969 63.5748867,1.02227344 C63.8724609,1.18401563 64.1064375,1.41589844 64.2770781,1.71870703 C64.4479805,2.02125391 64.5333008,2.33819531 64.5333008,2.66926953 C64.5333008,2.99851172 64.4495508,3.3123125 64.2817891,3.61093359 M64.6727969,1.48865625 C64.4613281,1.11230469 64.1702969,0.823628906 63.8002266,0.622105469 C63.4301563,0.42084375 63.0438594,0.320082031 62.6408125,0.320082031 C62.2380273,0.320082031 61.8517305,0.42084375 61.4816602,0.622105469 C61.1115898,0.823628906 60.8205586,1.11230469 60.6090898,1.48865625 C60.3973594,1.86474609 60.291625,2.25837109 60.291625,2.66926953 C60.291625,3.07833594 60.3952656,3.46829688 60.6028086,3.83941406 C60.8103516,4.21053125 61.0998125,4.49973047 61.4709297,4.70727344 C61.8420469,4.91481641 62.2320078,5.01871875 62.6408125,5.01871875 C63.0498789,5.01871875 63.4398398,4.91481641 63.810957,4.70727344 C64.1820742,4.49973047 64.4715352,4.21053125 64.6790781,3.83941406 C64.8866211,3.46829688 64.9902617,3.07833594 64.9902617,2.66926953 C64.9902617,2.25837109 64.8845273,1.86474609 64.6727969,1.48865625" id="Fill-5"></path>
        </g>
    </g>
</svg>