<?xml version="1.0" encoding="UTF-8"?>
<svg width="333px" height="333px" viewBox="0 0 333 333" version="1.1" xmlns="http://www.w3.org/2000/svg" xmlns:xlink="http://www.w3.org/1999/xlink">
    <!-- Generator: Sketch 64 (93537) - https://sketch.com -->
    <title>composicion_papel</title>
    <desc>Created with Sketch.</desc>
    <defs>
        <polygon id="path-1" points="0.0315766736 0.0779329412 79.5370268 0.0779329412 79.5370268 2.50588235 0.0315766736 2.50588235"></polygon>
        <polygon id="path-3" points="0.188984904 0.0172370256 41.3525691 0.0172370256 41.3525691 46.3567941 0.188984904 46.3567941"></polygon>
        <polygon id="path-5" points="0.596405039 0.746762144 30.5780591 0.746762144 30.5780591 15.3538241 0.596405039 15.3538241"></polygon>
    </defs>
    <g id="composicion_papel" stroke="none" stroke-width="1" fill="none" fill-rule="evenodd">
        <circle id="Mezclados" fill="#9BA498" transform="translate(166.500000, 166.500000) rotate(-179.600000) translate(-166.500000, -166.500000) " cx="166.5" cy="166.5" r="132.5"></circle>
        <g id="Porcentaje">
            <circle id="Oval" cx="167" cy="167" r="167"></circle>
            <path d="M167,167 L333,146.533387 C322.645746,63.7274539 251.651325,1 167,1 L167,167 Z" id="23%" fill="#75AAF1" fill-rule="nonzero"></path>
        </g>
        <path d="M168.861814,97.861814 C130.754166,97.861814 99.861814,128.754166 99.861814,166.861814 C99.861814,204.969462 130.754166,235.861814 168.861814,235.861814 C206.969462,235.861814 237.861814,204.969462 237.861814,166.861814 C237.861814,128.754166 206.969462,97.861814 168.861814,97.861814 Z" id="Path" fill="#0D744E" fill-rule="nonzero" transform="translate(168.861814, 166.861814) rotate(-90.000000) translate(-168.861814, -166.861814) "></path>
        <g id="Ilustraci贸n-Papel-y-cart贸n" transform="translate(118.000000, 138.000000)">
            <g id="Group-88-Copy" transform="translate(0.000000, 0.517647)">
                <path d="M0,53.0411765 C0,53.2040588 5.91298225,53.3360353 13.2076923,53.3360353 C20.5024024,53.3360353 26.4153846,53.2040588 26.4153846,53.0411765 C26.4153846,52.8782941 20.5024024,52.7463176 13.2076923,52.7463176 C5.91298225,52.7463176 0,52.8782941 0,53.0411765" id="Fill-1" fill="#000000"></path>
                <polygon id="Fill-3" fill="#E6E6E6" points="2.33076923 52.5070059 17.0923077 52.5070059 17.0923077 51.9047588 2.33076923 51.9047588"></polygon>
                <polygon id="Fill-4" fill="#E6E6E6" points="3.10769231 52.5070059 17.8692308 52.5070059 17.8692308 51.9047588 3.10769231 51.9047588"></polygon>
                <polygon id="Fill-5" fill="#E6E6E6" points="2.33076923 51.6717118 17.0923077 51.6717118 17.0923077 51.0694647 2.33076923 51.0694647"></polygon>
                <polygon id="Fill-6" fill="#E6E6E6" points="2.33076923 50.0011235 17.0923077 50.0011235 17.0923077 49.3988765 2.33076923 49.3988765"></polygon>
                <polygon id="Fill-7" fill="#FFFFFF" points="2.33076923 50.0011235 17.0923077 50.0011235 17.0923077 49.3988765 2.33076923 49.3988765"></polygon>
                <polygon id="Fill-8" fill="#E6E6E6" points="2.33076923 49.1654118 17.0923077 49.1654118 17.0923077 48.564 2.33076923 48.564"></polygon>
                <polygon id="Fill-9" fill="#FFFFFF" points="1.55384615 49.1658294 16.3153846 49.1658294 16.3153846 48.5635824 1.55384615 48.5635824"></polygon>
                <polygon id="Fill-10" fill="#E6E6E6" points="2.33076923 48.3305353 17.0923077 48.3305353 17.0923077 47.7282882 2.33076923 47.7282882"></polygon>
                <polygon id="Fill-11" fill="#FFFFFF" points="2.33076923 48.3305353 17.0923077 48.3305353 17.0923077 47.7282882 2.33076923 47.7282882"></polygon>
                <g id="Group-14" transform="translate(10.100000, 51.788235)">
                    <mask id="mask-2" fill="white">
                        <use xlink:href="#path-1"></use>
                    </mask>
                    <g id="Clip-13"></g>
                    <path d="M0.0315766736,1.29203294 C0.0315766736,1.96235647 17.8291415,2.50613294 39.7843018,2.50613294 C61.7387411,2.50613294 79.5370268,1.96235647 79.5370268,1.29203294 C79.5370268,0.621709412 61.7387411,0.0779329412 39.7843018,0.0779329412 C17.8291415,0.0779329412 0.0315766736,0.621709412 0.0315766736,1.29203294" id="Fill-12" fill="#000000" mask="url(#mask-2)"></path>
                </g>
                <polygon id="Fill-15" fill="#FFF2E1" points="16.3153846 20.0470588 23.4910772 51.7882353 41.9538462 51.7882353 35.1482216 20.0470588"></polygon>
                <polygon id="Fill-16" fill="#C6B29E" points="14.7615385 21.7176471 22.1543575 53.4588235 41.1769231 53.4588235 34.1652149 21.7176471"></polygon>
                <polygon id="Fill-17" fill="#C6B29E" points="14.7615385 22.5529412 22.1543575 53.4588235 41.1769231 53.4588235 34.1652149 22.5529412"></polygon>
                <polygon id="Fill-18" fill="#E5D8CA" points="15.5384615 20.0470588 22.7141541 51.7882353 41.1769231 51.7882353 34.3712986 20.0470588"></polygon>
                <polygon id="Fill-19" fill="#EFE1D0" points="16.3153846 20.0470588 23.4910772 51.7882353 41.9538462 51.7882353 35.1482216 20.0470588"></polygon>
                <polygon id="Fill-20" fill="#FFF2E1" points="17.0923077 20.0470588 24.2680003 51.7882353 42.7307692 51.7882353 35.9251447 20.0470588"></polygon>
                <g id="Group-87" transform="translate(11.653846, 0.000000)">
                    <path d="M3.82049756,32.5363536 L49.7285294,32.5363536 L49.7285294,51.9840842 C49.7285294,52.8150744 49.0856503,53.4895012 48.2919281,53.4895012 L5.25709888,53.4895012 C4.46337665,53.4895012 3.82049756,52.8150744 3.82049756,51.9840842 L3.82049756,32.5363536 Z" id="Fill-21" fill="#C69C6D"></path>
                    <path d="M4.61055645,32.5363536 L23.1369671,32.5363536 C23.5736939,32.5363536 23.9270978,32.9066862 23.9270978,33.364333 L23.9270978,52.6615218 C23.9270978,53.1184159 23.5736939,53.4895012 23.1369671,53.4895012 L5.25128064,53.4895012 C4.46114992,53.4895012 3.82042573,52.8180852 3.82042573,51.9901058 L3.82042573,33.364333 C3.82042573,32.9066862 4.17454795,32.5363536 4.61055645,32.5363536" id="Fill-23" fill="#DDB287"></path>
                    <polygon id="Fill-25" fill="#A0815F" points="3.86237449 44.293661 3.86237449 48.8099122 21.819891 48.8099122 23.974793 39.8730037 23.974793 32.5363536"></polygon>
                    <polygon id="Fill-27" fill="#DDB287" points="4.5392292 32.4302217 24.6459013 32.4302217 21.223917 44.3952766 1.11724485 44.3952766"></polygon>
                    <polygon id="Fill-29" fill="#736357" points="3.5960286 33.2895137 23.7027007 33.2895137 20.5105726 43.7491516 21.2238451 44.5011075 1.11789132 44.5011075 0.403900462 43.7499043"></polygon>
                    <polygon id="Fill-31" fill="#C69C6D" points="3.82049756 32.5363536 23.9271697 32.5363536 20.5051853 43.7479473 0.398513207 43.7479473"></polygon>
                    <polygon id="Fill-33" fill="#A0815F" points="49.7290322 32.4302217 23.9269542 32.5137723 23.9750803 39.8504225 26.8109313 48.5682928 50.657795 48.332695"></polygon>
                    <polygon id="Fill-35" fill="#C69C6D" points="44.6194005 32.4302217 24.514165 32.6763574 27.9023892 44.4238796 48.0076247 44.3305437"></polygon>
                    <polygon id="Fill-37" fill="#736357" points="29.3728943 43.3100215 27.9018145 44.4240301 49.115388 44.2938115 48.8129834 43.3747544"></polygon>
                    <polygon id="Fill-39" fill="#DDB287" points="45.3380603 32.4302217 25.2328248 32.6763574 28.7790751 43.8457994 48.8843106 43.5996637"></polygon>
                    <polygon id="Fill-41" fill="#D8CA8B" points="62.0976668 0.385612586 65.9276459 8.32292415 60.5662498 8.41099105"></polygon>
                    <path d="M34.4799402,21.8529354 C34.4799402,21.8529354 42.5213161,33.8910031 43.2388984,35.3956675 C43.9571991,36.9003319 44.669035,38.9311395 44.669035,38.9311395 L47.6787148,41.1132416 L47.6787148,45.3261513 C47.6787148,45.3261513 47.5408011,45.4955107 48.2591018,46.2482193 C48.9766841,47.0001751 48.9271214,47.3802929 49.5017619,47.3802929 C50.0756841,47.3802929 49.8609122,47.7340659 49.8609122,47.7340659 L50.1080077,48.9376469 C50.1080077,48.9376469 49.705041,49.8408971 50.7099436,50.7433947 C51.7155645,51.6466449 56.5949809,53.9032651 56.5949809,53.9032651 L57.7428254,37.8781003 L47.6909259,18.0908982 L34.4799402,21.8529354 Z" id="Fill-43" fill="#D8CA8B"></path>
                    <path d="M45.3384913,29.8278824 C45.2479854,29.5712088 48.8811501,37.4016358 48.8811501,37.4016358 L40.3671324,27.6713725 L44.2574488,28.2268714 L45.3384913,29.8278824 Z" id="Fill-45" fill="#C4B36A"></path>
                    <polygon id="Fill-47" fill="#C4B36A" points="47.5469066 45.3264524 52.705742 44.4239548 49.4683609 47.380594"></polygon>
                    <polygon id="Fill-49" fill="#C4B36A" points="50.0011245 48.8099122 54.8079925 45.7907983 53.750654 48.8099122"></polygon>
                    <path d="M62.0976668,0.385612586 L60.5662498,8.41099105 C68.6069074,8.21001787 69.3733342,7.54913977 69.3733342,7.54913977 C66.1179956,10.758689 46.5895555,26.0657699 42.5692267,27.6712972 L45.4409928,20.448306 L34.4797247,21.8528602 C42.2819065,17.0377836 62.0976668,0.385612586 62.0976668,0.385612586" id="Fill-51" fill="#A09773"></path>
                    <g id="Group-55" transform="translate(42.379739, 7.527085)">
                        <mask id="mask-4" fill="white">
                            <use xlink:href="#path-3"></use>
                        </mask>
                        <g id="Clip-54"></g>
                        <path d="M41.3526409,29.5234118 C41.3526409,29.5234118 39.4304683,27.4941096 36.6161663,26.2702055 C40.3563579,25.266845 40.3441468,23.2179724 38.9657278,23.2179724 L37.1943984,23.2179724 C37.1943984,23.2179724 38.1174147,22.0821352 37.415635,22.1574061 C36.7145735,22.2326769 35.7549238,22.4923614 35.7549238,22.4923614 C36.1241304,21.0253324 35.6816572,20.2146653 35.3857173,19.4627095 C35.0904957,18.7100009 31.5844702,11.6089486 31.141997,11.4584068 C29.2226976,10.1042842 26.9930924,0.0172370256 26.9930924,0.0172370256 L0.188984904,20.1416526 C0.188984904,20.1416526 3.09235618,22.7512931 3.24032611,23.3527072 C3.38757775,23.954874 5.60209869,28.5418799 5.60209869,28.5418799 L8.70228434,33.1341547 C8.70228434,33.1341547 7.22617648,37.0467337 8.1118412,37.0467337 C8.99750591,37.0467337 10.7695536,36.4551048 10.3263621,36.7561882 C9.88317063,37.0572716 9.58794906,37.5194347 10.4743321,37.5194347 L12.3929131,37.5194347 L11.310434,40.6687672 C11.310434,40.6687672 12.9833563,46.1560125 14.6074341,46.3065542 C16.2315119,46.4563432 25.1384401,47.2790536 41.3526409,29.5234118" id="Fill-53" fill="#EFE5AF" mask="url(#mask-4)"></path>
                    </g>
                    <g id="Group-58" transform="translate(53.154249, 33.119176)">
                        <mask id="mask-6" fill="white">
                            <use xlink:href="#path-5"></use>
                        </mask>
                        <g id="Clip-57"></g>
                        <polygon id="Fill-56" fill="#DDCF97" mask="url(#mask-6)" points="0.596405039 15.3538241 30.5782746 3.93147198 25.8418001 0.746762144 1.65374361 12.3347101"></polygon>
                    </g>
                    <polygon id="Fill-59" fill="#C9B875" points="78.996049 33.8655616 58.9224187 43.4829186 82.1659098 35.9972322"></polygon>
                    <polygon id="Fill-61" fill="#C9B875" points="76.4107413 30.7497999 51.0820234 40.6614659 79.0145812 31.1208852"></polygon>
                    <path d="M72.3341695,19.1068289 L46.1111673,29.7275464 L47.6907104,33.5896939 L76.265429,24.5617077 L73.1063427,19.8971728 C73.1063427,19.8971728 74.0760486,19.1444643 72.3341695,19.1068289" id="Fill-63" fill="#DDCF97"></path>
                    <polygon id="Fill-65" fill="#C9B875" points="60.5660343 8.41076524 62.9091311 12.4016259 69.3731187 7.54891396"></polygon>
                    <polygon id="Fill-67" fill="#C9B875" points="45.4409209 20.4485319 47.4069098 24.0397043 42.5691549 27.671523"></polygon>
                    <path d="M51.082167,40.6618423 C50.9916611,40.4051687 47.5466912,41.1134674 47.5466912,41.1134674 L44.603095,38.9313653 L50.0011245,39.0608312 L51.082167,40.6618423 Z" id="Fill-69" fill="#C4B36A"></path>
                    <path d="M29.6535344,1.20109702 C29.6535344,1.20109702 27.235016,13.3671252 27.9604997,14.8875964 C37.151875,15.9014948 45.6170483,18.94319 46.8266666,18.94319 C48.2776339,13.6207879 49.7286012,6.01692626 49.7286012,6.01692626 C41.5054953,3.98912945 35.7001893,2.21499542 29.6535344,1.20109702" id="Fill-71" fill="#FFF2E1"></path>
                    <path d="M49.7288167,6.01677572 L38.7768866,10.0723693 C38.7768866,10.0723693 29.1724884,0.99846788 29.5740185,1.60665638 C29.9762669,2.21484488 38.7768866,11.5085372 38.7768866,11.5085372 L49.4414965,7.47853571 L49.7288167,6.01677572 Z" id="Fill-73" fill="#D3D2C1"></path>
                    <line x1="8.17217845" y1="24.3468847" x2="17.510087" y2="24.3468847" id="Stroke-75" stroke="#998675"></line>
                    <line x1="8.17217845" y1="26.6050103" x2="23.2564923" y2="26.6050103" id="Stroke-77" stroke="#998675"></line>
                    <line x1="8.89047911" y1="28.1104274" x2="21.1015904" y2="28.1104274" id="Stroke-79" stroke="#998675"></line>
                    <line x1="9.60877977" y1="29.6158444" x2="23.974793" y2="29.6158444" id="Stroke-81" stroke="#998675"></line>
                    <line x1="9.60877977" y1="31.1212615" x2="23.974793" y2="31.1212615" id="Stroke-83" stroke="#998675"></line>
                    <path d="M41.4934997,12.4014001 C41.6931872,12.5541999 45.7932474,13.6207879 45.7932474,13.6207879 C45.7932474,13.6207879 45.2545219,15.6907364 45.209269,15.9730021 C44.0420304,15.5966479 41.5394709,14.9922229 40.9892526,14.7498508 C40.8549304,14.4675851 41.4934997,12.4014001 41.4934997,12.4014001" id="Fill-85" fill="#FBB03B"></path>
                </g>
            </g>
        </g>
        <text id="Otros-residuos" font-family="SourceSansPro-SemiBold, Source Sans Pro" font-size="16" font-weight="500" fill="#FFFFFF">
            <tspan x="119.792" y="66">Otros</tspan>
            <tspan x="99.232" y="86">residuos</tspan>
        </text>
        <g id="Group-2" transform="translate(180.000000, 31.000000)" fill="#FFFFFF" font-family="SourceSansPro-SemiBold, Source Sans Pro" font-weight="500">
            <text id="23%" font-size="36">
                <tspan x="0" y="35">23%</tspan>
            </text>
            <text id="Papel-y-cart贸n" font-size="16">
                <tspan x="0" y="55">Papel y cart贸n</tspan>
            </text>
        </g>
    </g>
</svg>