<?xml version="1.0" encoding="UTF-8"?>
<svg width="333px" height="333px" viewBox="0 0 333 333" version="1.1" xmlns="http://www.w3.org/2000/svg" xmlns:xlink="http://www.w3.org/1999/xlink">
    <!-- Generator: Sketch 64 (93537) - https://sketch.com -->
    <title>composicion_compostables</title>
    <desc>Created with Sketch.</desc>
    <defs>
        <polygon id="path-1" points="0 0.448263529 4.27308464 0.448263529 4.27308464 6.74859294 0 6.74859294"></polygon>
        <polygon id="path-3" points="0.0414861538 0.300423529 37.2180189 0.300423529 37.2180189 33.4768217 0.0414861538 33.4768217"></polygon>
    </defs>
    <g id="composicion_compostables" stroke="none" stroke-width="1" fill="none" fill-rule="evenodd">
        <circle id="Mezclados" fill="#9BA498" transform="translate(166.638186, 166.638186) rotate(-179.600000) translate(-166.638186, -166.638186) " cx="166.638186" cy="166.638186" r="132.5"></circle>
        <g id="Porcentaje" transform="translate(-1.000000, 0.000000)">
            <circle id="Oval-Copy-4" cx="167" cy="167" r="167"></circle>
            <path d="M167,167.516728 L167.002256,167.503573 C167.003748,167.497867 167.005971,167.498848 167.008889,167.504141 L167.016483,167.524898 L167.024091,167.542495 L167,167.543752 L167.015849,167.559464 L167.017336,167.560784 L167.036467,167.579856 L167.029162,167.55695 L167.06469,167.547399 L208.283727,329 C282.317201,310.425558 335,244.226664 335,167.543124 C335,75.5638963 259.783838,1 167,1 L167,167.516728 Z" id="46%-copy" fill="#827B61" fill-rule="nonzero"></path>
        </g>
        <path d="M169,98 C130.892352,98 100,128.892352 100,167 C100,205.107648 130.892352,236 169,236 C207.107648,236 238,205.107648 238,167 C238,128.892352 207.107648,98 169,98 Z" id="Path" fill="#0D744E" fill-rule="nonzero" transform="translate(169.000000, 167.000000) rotate(-90.000000) translate(-169.000000, -167.000000) "></path>
        <g id="Ilustración-Residuos-compostables" transform="translate(118.138186, 138.138186)">
            <g id="Group-4" stroke-width="1" transform="translate(25.916609, 13.810193)">
                <path d="M6.04398582e-13,33.5867576 C6.04398582e-13,34.5888282 11.8593692,35.4018165 26.4884615,35.4018165 C41.1168077,35.4018165 52.9761769,34.5888282 52.9761769,33.5867576 C52.9761769,32.5846871 41.1168077,31.7716988 26.4884615,31.7716988 C11.8593692,31.7716988 6.04398582e-13,32.5846871 6.04398582e-13,33.5867576" id="Fill-1" fill="#5B5540"></path>
                <path d="M25.9949554,30.8620612 C25.9949554,31.7350024 32.0350708,32.4432376 39.4854169,32.4432376 C46.9365092,32.4432376 52.9766246,31.7350024 52.9766246,30.8620612 C52.9766246,29.98912 46.9365092,29.2808847 39.4854169,29.2808847 C32.0350708,29.2808847 25.9949554,29.98912 25.9949554,30.8620612" id="Fill-5" fill="#5B5540"></path>
                <path d="M34.3074823,34.7428612 C34.3074823,35.6559906 38.9381131,36.3965082 44.6499208,36.3965082 C50.3617285,36.3965082 54.9923592,35.6559906 54.9923592,34.7428612 C54.9923592,33.8297318 50.3617285,33.0892141 44.6499208,33.0892141 C38.9381131,33.0892141 34.3074823,33.8297318 34.3074823,34.7428612" id="Fill-7" fill="#5B5540"></path>
                <path d="M10.4262315,34.7428612 C10.4262315,35.6559906 16.0589469,36.3965082 23.0078777,36.3965082 C29.9560623,36.3965082 35.5887777,35.6559906 35.5887777,34.7428612 C35.5887777,33.8297318 29.9560623,33.0892141 23.0078777,33.0892141 C16.0589469,33.0892141 10.4262315,33.8297318 10.4262315,34.7428612" id="Fill-9" fill="#5B5540"></path>
                <path d="M47.6387146,-2.34061136e-15 C47.6387146,-2.34061136e-15 49.1839992,2.16884706 47.0910377,3.00884706 C44.9988223,3.84884706 44.1713377,5.41882353 44.1713377,5.41882353 L40.9800377,5.41882353 C40.9800377,5.41882353 44.9756915,0.131764706 47.6387146,-2.34061136e-15" id="Fill-61" fill="#C18421"></path>
                <path d="M47.2578777,19.8604329 C47.2578777,19.8604329 49.5746854,23.9313035 45.3626469,25.2331388 C43.7718469,25.7246212 40.9394469,25.3365741 38.6226392,21.8856565 C37.5698162,28.1576565 42.8346777,30.8120565 42.8346777,30.8120565 C42.8346777,30.8120565 50.2066777,30.44048 51.2595008,27.2787859 C52.3123238,24.1170918 50.2066777,21.7407153 47.2578777,19.8604329" id="Fill-63" fill="#FED434"></path>
                <path d="M48.0063446,20.3658165 C47.7630985,20.1938635 47.5153754,20.0245459 47.2579523,19.8604988 C47.2579523,19.8604988 49.57476,23.9313694 45.3619754,25.2332047 C43.7719215,25.7246871 40.9395215,25.3359812 38.6227138,21.8857224 C37.5698908,28.1570635 42.8347523,30.8121224 42.8347523,30.8121224 C42.8347523,30.8121224 46.2685523,30.6368753 48.7830908,29.5214871 C49.6128138,26.7959341 48.7166831,22.7876518 48.0063446,20.3658165" id="Fill-65" fill="#E8BB3A"></path>
                <path d="M44.0005431,25.4026541 C42.4194431,25.3512659 40.3734892,24.4941365 38.6230123,21.8858541 C38.00072,25.5904188 39.58182,28.0247718 40.9816046,29.4036894 C42.0568123,28.6460424 43.1894738,26.7743247 44.0005431,25.4026541" id="Fill-67" fill="#FED434"></path>
                <path d="M42.8349762,4.86982588 C42.8349762,4.86982588 48.3109992,6.26455529 44.8361608,12.1228141 C41.3605762,17.9804141 39.5705531,19.2822494 39.9913838,23.1877553 C40.4129608,27.0926024 42.3081915,31.2767906 46.9418069,31.8348141 C49.9771608,32.2004612 52.1536915,32.4060141 53.9161069,31.9296847 C54.3526069,31.8117553 54.65853,32.3012612 54.3309685,32.58192 C49.6025915,36.6277553 44.4586069,37.2325553 39.9309454,35.3272376 C34.7265223,33.1366494 34.3049454,26.0701082 34.3049454,26.0701082 C34.3049454,26.0701082 39.0437685,2.08036706 42.8349762,4.86982588" id="Fill-69" fill="#E09E1B"></path>
                <path d="M42.8349762,4.86982588 C42.8349762,4.86982588 36.0949685,2.26615529 32.0933454,9.23980235 C28.0917223,16.2141082 27.7760992,23.0948612 25.98533,25.4191906 C24.1953069,27.74352 18.7192838,32.5786259 7.34566077,28.3944376 C6.81962231,28.5808847 7.13524538,32.9508612 16.5076838,34.7171671 C25.8801223,36.4841318 32.1985531,34.3455906 34.5153608,29.1382494 C36.8321685,23.9315671 42.8349762,4.86982588 42.8349762,4.86982588" id="Fill-71" fill="#FED434"></path>
                <path d="M35.4198485,30.5076141 C35.9406638,31.7191906 36.6987562,32.9709553 37.8060485,33.9703906 C40.8115562,34.8683671 45.7376638,35.0482259 50.64661,32.18432 C49.5646869,32.1355671 48.3484562,32.0044612 46.9419562,31.8351435 C42.3083408,31.27712 40.41311,27.0929318 39.9915331,23.1874259 C39.8721485,22.0773082 39.9370638,21.1793318 40.1624023,20.3254965 C38.6021946,23.5207906 36.4144715,28.0791906 35.4198485,30.5076141" id="Fill-73" fill="#C18421"></path>
                <path d="M38.7129985,17.5480282 C39.1151754,17.7931106 47.0997677,7.35866353 42.8347523,4.86962824 C40.5030215,12.1305224 38.7129985,17.5480282 38.7129985,17.5480282" id="Fill-75" fill="#C18421"></path>
                <path d="M34.30502,26.0699765 C34.30502,26.0699765 31.4681431,15.8186824 29.4192046,15.1783059 C27.7896046,19.8216941 27.2561046,23.7693647 25.9854046,25.4190588 C25.3593815,26.2320471 24.2804431,27.3513882 22.6583046,28.2849412 C22.4389354,31.0124706 22.2434431,33.6787294 22.1725585,35.3139294 C27.9037662,35.3903529 31.9688123,33.5640941 34.0035738,30.1256941 C34.3550123,27.8962353 34.30502,26.0699765 34.30502,26.0699765" id="Fill-77" fill="#E8BB3A"></path>
                <path d="M29.9180085,17.4901176 C29.9180085,17.4901176 34.1002008,26.1154353 34.05767,24.3208 C34.0158854,22.5255059 30.2769085,15.4648941 29.9180085,17.4901176" id="Fill-79" fill="#C18421"></path>
            </g>
            <g id="Group-3" stroke-width="1" transform="translate(6.145472, 37.748256)">
                <path d="M-2.27974904e-13,9.52127786 C-2.27974904e-13,10.1267367 4.42618462,10.6175602 9.88579231,10.6175602 C15.3454,10.6175602 19.7708385,10.1267367 19.7708385,9.52127786 C19.7708385,8.91581903 15.3454,8.4249955 9.88579231,8.4249955 C4.42618462,8.4249955 -2.27974904e-13,8.91581903 -2.27974904e-13,9.52127786" id="Fill-3" fill="#5B5540"></path>
                <path d="M12.8508585,1.76092962 C10.8742969,3.34671786 6.13248923,8.22925903 3.27098923,7.13758845 C6.88162769,10.3322237 11.8830969,11.0747179 14.31332,8.82285903 C16.5286508,6.77062374 15.8205508,2.95735315 12.8113123,0.00318844565 C12.7172969,-0.0890468485 12.9493508,1.85118845 12.8508585,1.76092962" id="Fill-11" fill="#FFFFFF"></path>
                <path d="M8.75835385,0.556666093 C8.75835385,0.556666093 9.30006154,3.69464256 5.05220769,3.41134845 C6.54451538,4.96485433 5.14846154,7.35770139 3.27113846,7.10537198 C5.05220769,8.61671315 9.36721538,8.40654845 9.31871538,4.71252492 C13.1211154,5.51036021 14.4858308,2.61417198 12.8017615,0.0111602104 C12.2719923,2.60165433 8.75835385,0.556666093 8.75835385,0.556666093" id="Fill-13" fill="#FED434"></path>
            </g>
            <path d="M104.540034,57.0174212 C104.540034,57.0174212 112.750711,33.5455153 78.8439877,29.8785035 C78.1687185,43.3329976 86.5801108,55.2076329 104.540034,57.0174212" id="Fill-15" fill="#0B6444"></path>
            <path d="M85.8955146,0.287905882 C85.8955146,0.287905882 85.2896377,12.1467294 75.0292762,10.4996706 C72.4184838,3.74672941 78.8540608,1.11143529 85.8955146,0.287905882" id="Fill-19" fill="#9CD060"></path>
            <path d="M91.5189777,25.5458165 C91.5189777,25.5458165 94.7841469,17.2031341 79.9498623,17.3711341 C79.8715162,26.2474635 91.5189777,25.5458165 91.5189777,25.5458165" id="Fill-21" fill="#FBB03B"></path>
            <g id="Group-25" stroke-width="1" transform="translate(0.000000, 5.629186)">
                <mask id="mask-2" fill="white">
                    <use xlink:href="#path-1"></use>
                </mask>
                <g id="Clip-24"></g>
                <path d="M2.92477385,6.74859294 C2.92477385,6.74859294 7.01295077,4.21541647 0.951943077,0.448263529 C-2.02297231,4.02106353 2.92477385,6.74859294 2.92477385,6.74859294" id="Fill-23" fill="#FBB03B" mask="url(#mask-2)"></path>
            </g>
            <g id="Group" stroke-width="1" transform="translate(6.727472, 0.131501)">
                <path d="M37.9936315,1.63058824 C36.6236931,3.09778824 35.2388315,4.52545882 33.7927854,5.93468235 C33.0690162,6.63764706 32.3318162,7.33270588 31.5483546,8.01327059 C31.1543854,8.35388235 30.7507162,8.68922353 30.2978008,9.01995294 C30.0582854,9.18663529 29.83817,9.34870588 29.5158315,9.51934118 C29.4494238,9.55887059 29.3382469,9.60696471 29.2434854,9.64847059 L29.0681392,9.7216 C28.9301008,9.77957647 28.9278623,9.78616471 28.8189238,9.83887059 C28.4257008,10.0464 28.0026315,10.3125647 27.5900085,10.5807059 C27.1758931,10.8508235 26.7625238,11.1321412 26.3513931,11.4187294 C25.5291315,11.9912471 24.7143315,12.5822118 23.9040085,13.1791059 C22.2848546,14.3742118 20.6806238,15.5969882 19.0957931,16.8309647 L19.0957931,16.8309647 L18.9555162,16.9436235 L18.7973315,16.9647059 L10.5403931,18.0748235 L10.4098162,17.4265412 L18.5951238,15.96 L18.2966623,16.0930824 L18.2966623,16.0930824 C19.7837469,14.7477647 21.2835162,13.4208941 22.8123854,12.1091765 C23.5779392,11.4543059 24.3487162,10.8033882 25.1403854,10.1630118 C25.5358469,9.84216471 25.9365315,9.52395294 26.3499008,9.21035294 C26.7662546,8.89543529 27.1811162,8.58644706 27.6728315,8.27943529 C27.9444315,8.10550588 28.3406392,7.93289412 28.3563085,7.90522353 C28.4839008,7.82682353 28.6652162,7.67990588 28.82937,7.54550588 C29.1696162,7.25562353 29.5135931,6.92621176 29.8501085,6.58823529 C30.5231392,5.90964706 31.1775162,5.19218824 31.8207008,4.46550588 C33.1040854,3.01082353 34.3561315,1.50607059 35.5604238,3.51091705e-15 L37.9936315,1.63058824 Z" id="Fill-26" fill="#EFDFAC"></path>
                <path d="M26.1100123,11.7687624 L23.1738969,19.8248565 L23.1276354,19.9513506 L23.0694354,19.9921976 L23.0694354,19.9921976 C21.0272123,21.7677271 19.0073738,23.5761976 17.0852815,25.4472565 C16.6069969,25.9163388 16.1346815,26.3900329 15.6854969,26.8749271 C15.4616508,27.1173741 15.2400431,27.3617976 15.0348508,27.6108329 C14.8341354,27.8565741 14.6289431,28.1181271 14.50732,28.3546447 C14.3894277,28.6102682 14.2521354,28.95088 14.0917123,29.2414212 C13.9365123,29.5385506 13.7671354,29.8277741 13.5865662,30.1110682 C13.2246815,30.6789741 12.8344431,31.2172329 12.3882431,31.7482447 L11.7957969,31.3483388 C12.2061815,30.8594918 12.5934354,30.3271624 12.93592,29.7889035 C13.1082815,29.5187859 13.2687046,29.2440565 13.4142046,28.9647153 C13.5686585,28.6833976 13.6701354,28.42448 13.8230969,28.0924329 C14.0006815,27.7505035 14.2155738,27.4915859 14.4319585,27.2227859 C14.6498354,26.9579388 14.8781585,26.7069271 15.1079738,26.4572329 C15.5698431,25.9598212 16.0473815,25.4801976 16.5308892,25.0058447 C18.4723815,23.11568 20.4937123,21.3072094 22.54862,19.52048 L22.54862,19.52048 L22.4441585,19.6878212 L23.4671354,11.2733271 L26.1100123,11.7687624 Z" id="Fill-28" fill="#EFDFAC"></path>
                <polygon id="Fill-30" fill="#EFDFAC" points="16.98567 25.2984941 17.9056777 29.2553882 16.3111469 25.4691294"></polygon>
                <polygon id="Fill-32" fill="#EFDFAC" points="15.3740523 17.4799718 13.0602292 20.92496 12.9714369 21.0573835 12.8259369 21.0923012 10.1994754 21.7214776 10.0047292 21.0857129 12.6304446 20.4565365 12.3968985 20.6232188 14.2384062 16.9621365"></polygon>
                <path d="M24.8628908,12.6633788 C23.4936985,12.5454494 22.1282369,12.4729788 20.7627754,12.4077553 C19.3973138,12.3412141 18.0340908,12.3115671 16.6693754,12.2614965 L16.6104292,12.2608376 C15.0987215,12.0612141 13.5832831,11.8925553 12.0536677,11.8490729 L12.1297754,11.1935435 C13.6377523,11.4241318 15.1599062,11.5295435 16.6865369,11.6053082 L16.6268446,11.6039906 C17.9758908,11.4168847 19.3264292,11.2495435 20.6739831,11.0466259 C22.0222831,10.8437082 23.3698369,10.6342024 24.7144062,10.3785788 L24.8628908,12.6633788 Z" id="Fill-34" fill="#EFDFAC"></path>
                <polygon id="Fill-36" fill="#EFDFAC" points="10.82811 30.6949176 8.83364077 31.6574588 8.93586385 31.5849882 4.52311 35.6453176 4.43058692 35.5741647 8.37326385 31.1528 8.40982538 31.1112941 8.47548692 31.0796706 10.4699562 30.1171294"></polygon>
                <polygon id="Fill-38" fill="#EFDFAC" points="11.5944846 17.2858165 9.35602308 17.1211106 9.56569231 17.0637929 2.49844589e-13 22.4187106 9.14635385 16.5196047 9.21873077 16.4721694 9.35602308 16.4622871 11.5944846 16.2975812"></polygon>
                <polygon id="Fill-40" fill="#EFDFAC" points="0.40546 18.6858824 5.81656769 18.4381647 5.77776769 19.4257412 0.398744615 18.8505882"></polygon>
                <polygon id="Fill-42" fill="#EFDFAC" points="11.0213638 21.5578918 10.4751792 23.7096094 10.2767023 21.5117741"></polygon>
                <polygon id="Fill-44" fill="#EFDFAC" points="11.4068269 13.5199153 14.5854423 11.38928 15.0279115 11.9196329 11.7821423 13.9692329"></polygon>
                <line x1="10.6491823" y1="15.4374212" x2="12.0922438" y2="17.7505506" id="Stroke-46" stroke="#EFDFAC"></line>
            </g>
            <path d="M22.3821531,14.4548518 C22.3821531,14.4548518 22.9947454,7.96741647 12.4277146,10.4735812 C14.2028146,16.8299106 22.3821531,14.4548518 22.3821531,14.4548518" id="Fill-48" fill="#F7931E"></path>
            <g id="Group-2" stroke-width="1" transform="translate(30.592308, 0.358598)">
                <path d="M11.0098731,34.0234259 C11.0098731,34.0234259 9.04450385,33.7322259 8.57965,33.4291671 C8.11479615,33.1254494 27.5946346,2.48554353 27.5946346,2.48554353 L29.2033423,0.423425882 L30.6486423,0.423425882 L31.5022423,0.912931765 L29.8599577,1.65015529 C29.8599577,1.65015529 31.8962115,1.26540235 32.2901808,1.55528471 C32.6848962,1.84516706 32.6848962,3.16017882 33.3415115,3.39274353 C33.9981269,3.62464941 34.98305,3.90530824 34.98305,3.90530824 C34.98305,3.90530824 33.2534654,4.48046118 34.1510885,4.53843765 C35.0487115,4.59641412 35.7717346,4.59377882 35.8373962,4.88432 C35.9030577,5.17420235 35.57475,5.57872 36.1657038,5.86860235 C36.7566577,6.15848471 39.3182038,8.12968471 39.3182038,9.17392 C39.1868808,9.92761412 39.1868808,9.92761412 39.1868808,9.92761412 C39.1868808,9.92761412 38.0706346,9.34719059 38.0049731,9.81100235 C37.9393115,10.2754729 37.2177808,10.6233318 37.2177808,10.6233318 C37.2177808,10.6233318 20.0084885,27.0352847 19.2854654,27.3251671 C18.5631885,27.6150494 18.1692192,27.8469553 17.9394038,28.0208847 C17.7095885,28.1948141 11.0098731,34.0234259 11.0098731,34.0234259" id="Fill-50" fill="#684F2B"></path>
                <g id="Group-54">
                    <mask id="mask-4" fill="white">
                        <use xlink:href="#path-3"></use>
                    </mask>
                    <g id="Clip-53"></g>
                    <path d="M8.64538615,33.4725176 C8.64538615,33.4725176 5.62420923,31.5586353 5.88685538,31.1528 C6.14950154,30.7469647 6.80611692,30.1092235 6.28082462,30.1092235 C5.75553231,30.1092235 5.23024,29.9926118 5.36156308,29.7607059 C5.49288615,29.5288 8.12009385,27.0931294 6.67479385,27.7308706 C5.23024,28.3692706 3.78494,29.4708235 3.85060154,29.1809412 C3.91626308,28.8910588 3.32530923,28.2533176 2.80001692,28.0793882 C2.27397846,27.9054588 0.0414861538,24.8893647 0.0414861538,24.8893647 C0.435455385,24.5994824 21.1248092,6.91138824 24.6056169,4.06988235 C28.0871708,1.22837647 28.9407708,0.300094118 29.2034169,0.300094118 C29.4660631,0.300094118 30.0570169,0.938494118 30.0570169,0.938494118 C30.0570169,0.938494118 28.2184938,2.44588235 28.6781246,2.21397647 C29.1377554,1.98207059 30.9770246,1.57623529 31.3709938,1.98207059 C31.7649631,2.38790588 31.9619477,3.37416471 31.8306246,4.01190588 C31.6993015,4.64964706 33.1446015,4.53369412 33.1446015,4.53369412 C33.1446015,4.53369412 29.0064323,8.47741176 30.9113631,7.20127059 C32.8155477,5.92578824 34.6548169,5.46197647 34.6548169,5.46197647 C34.6548169,5.46197647 33.93254,6.15769412 34.6548169,6.33162353 C35.3770938,6.50555294 37.2820246,8.0136 37.2163631,8.47741176 C37.1507015,8.94122353 24.0146631,20.9456471 22.7014323,21.4680941 C21.3874554,21.9898824 9.04756308,33.7340706 8.64538615,33.4725176" id="Fill-52" fill="#E8B65D" mask="url(#mask-4)"></path>
                </g>
                <line x1="11.7837092" y1="27.7311341" x2="31.1740092" y2="10.1010165" id="Stroke-55" stroke="#BC8C3F" stroke-width="1.078"></line>
                <line x1="4.42745308" y1="26.8032471" x2="14.12223" y2="17.9881882" id="Stroke-57" stroke="#BC8C3F" stroke-width="1.078"></line>
                <line x1="21.2417315" y1="9.17326118" x2="29.2188623" y2="1.92027294" id="Stroke-59" stroke="#BC8C3F" stroke-width="1.078"></line>
            </g>
            <path d="M94.8732377,16.0996706 C94.8732377,16.0996706 87.3408146,15.0462118 90.32543,6.76084706 C100.211968,10.0055529 94.8732377,16.0996706 94.8732377,16.0996706" id="Fill-17" fill="#DFF1D1"></path>
        </g>
        <text id="Otros-residuos" font-family="SourceSansPro-SemiBold, Source Sans Pro" font-size="16" font-weight="500" fill="#FFFFFF">
            <tspan x="119.792" y="66">Otros</tspan>
            <tspan x="99.232" y="86">residuos</tspan>
        </text>
        <g id="Group-2" transform="translate(180.000000, 31.000000)" fill="#FFFFFF" font-family="SourceSansPro-SemiBold, Source Sans Pro" font-weight="500">
            <text id="46%" font-size="36">
                <tspan x="0" y="35">46%</tspan>
            </text>
            <text id="Compostables" font-size="16">
                <tspan x="0" y="55">Compostables</tspan>
            </text>
        </g>
    </g>
</svg>