<?xml version="1.0" encoding="UTF-8"?>
<svg width="333px" height="333px" viewBox="0 0 333 333" version="1.1" xmlns="http://www.w3.org/2000/svg" xmlns:xlink="http://www.w3.org/1999/xlink">
    <!-- Generator: Sketch 64 (93537) - https://sketch.com -->
    <title>composicion_plastico</title>
    <desc>Created with Sketch.</desc>
    <defs>
        <polygon id="path-1" points="0.7244 0.52056 22.399 0.52056 22.399 3.49976 0.7244 3.49976"></polygon>
        <polygon id="path-3" points="0 71 101 71 101 0 0 0"></polygon>
    </defs>
    <g id="composicion_plastico" stroke="none" stroke-width="1" fill="none" fill-rule="evenodd">
        <circle id="Mezclados" fill="#9BA498" transform="translate(166.361814, 170.500000) rotate(-179.600000) translate(-166.361814, -170.500000) " cx="166.361814" cy="170.5" r="132.5"></circle>
        <g id="Porcentaje">
            <circle id="Oval-Copy-5" cx="167" cy="167" r="167"></circle>
            <path d="M167.059801,0 L167.059801,167.913939 L167.030354,167.902711 C167.018444,167.897564 167.00817,167.89254 167,167.887951 C167.024312,167.901608 167.086218,167.960298 167.111427,168 L309,78.019923 C278.429547,29.8745132 225.248117,0 167.059801,0 Z" id="16%-copy-2" fill="#FFCB02" fill-rule="nonzero"></path>
        </g>
        <path d="M167.723628,101.861814 C129.61598,101.861814 98.723628,132.754166 98.723628,170.861814 C98.723628,208.969462 129.61598,239.861814 167.723628,239.861814 C205.831276,239.861814 236.723628,208.969462 236.723628,170.861814 C236.723628,132.754166 205.831276,101.861814 167.723628,101.861814 Z" id="Path" fill="#0D744E" fill-rule="nonzero" transform="translate(167.723628, 170.861814) rotate(-90.000000) translate(-167.723628, -170.861814) "></path>
        <g id="Plásticos" transform="translate(116.861814, 135.000000)">
            <g id="Group-3" transform="translate(78.000000, 67.000000)">
                <mask id="mask-2" fill="white">
                    <use xlink:href="#path-1"></use>
                </mask>
                <g id="Clip-2"></g>
                <path d="M0.7244,2.01016 C0.7244,2.83336 5.5764,3.49976 11.5614,3.49976 C17.5474,3.49976 22.3994,2.83336 22.3994,2.01016 C22.3994,1.18696 17.5474,0.52056 11.5614,0.52056 C5.5764,0.52056 0.7244,1.18696 0.7244,2.01016" id="Fill-1" fill="#CEAA3A" mask="url(#mask-2)"></path>
            </g>
            <path d="M50,65.5 C50,66.3289474 60.5210261,67 73.5,67 C86.4789739,67 97,66.3289474 97,65.5 C97,64.6710526 86.4789739,64 73.5,64 C60.5210261,64 50,64.6710526 50,65.5" id="Fill-4" fill="#CEAA3A"></path>
            <path d="M0,65.5 C0,66.3289474 9.62591903,67 21.5,67 C33.374081,67 43,66.3289474 43,65.5 C43,64.6710526 33.374081,64 21.5,64 C9.62591903,64 0,64.6710526 0,65.5" id="Fill-6" fill="#CEAA3A"></path>
            <path d="M44,69.5 C44,70.3281775 48.25312,71 53.5,71 C58.74688,71 63,70.3281775 63,69.5 C63,68.6718225 58.74688,68 53.5,68 C48.25312,68 44,68.6718225 44,69.5" id="Fill-8" fill="#CEAA3A"></path>
            <path d="M34,69.5 C34,70.3281775 36.015006,71 38.5,71 C40.984994,71 43,70.3281775 43,69.5 C43,68.6718225 40.984994,68 38.5,68 C36.015006,68 34,68.6718225 34,69.5" id="Fill-10" fill="#CEAA3A"></path>
            <path d="M66.3270048,35.044527 C66.3570077,36.3610904 65.2919052,37.4523491 63.9467757,37.4817366 L61.8165708,37.5287568 C60.4724414,37.5581443 59.3583342,36.5148854 59.3283313,35.198322 L59.0563052,23.3179047 C59.0263023,22.0003617 60.0924049,20.909103 61.4365342,20.8797155 L63.5667392,20.8336749 C64.9108685,20.8042874 66.0259758,21.8475463 66.0559787,23.1641097 L66.3270048,35.044527 Z M86.9239868,60.8664103 C86.707966,51.4378964 86.1179092,25.6022989 85.9968975,20.2919639 C85.8478832,13.7679221 76.7540081,6.45335449 75.1908577,5.06528132 C73.6277073,3.67622857 74.3687786,1 74.3687786,1 L70.7474301,1.07934645 L69.6563252,1.10285652 L65.3649122,1.19689676 C65.3649122,1.19689676 65.4139169,3.85647237 63.9157728,5.31213696 C62.4176286,6.76780155 52.8527082,14.4908565 53.0017225,21.0148983 C53.130735,26.6631904 53.7897984,55.5110144 53.9648152,63.1635392 C53.9838171,64.0001055 53.9968183,64.5809999 54.0028189,64.8523452 C54.0058192,64.9659771 54.0098196,65.1354455 54.0098196,65.1354455 C54.1588339,67.0916785 55.6499774,68.038938 57.465152,67.998775 L68.7002332,67.7528989 C69.7983388,67.7284093 70.7524306,67.189637 71.3574888,66.3863766 C71.9995506,67.1631882 72.9766447,67.6588587 74.0747503,67.6353486 L84.546758,67.4051459 C86.4289391,67.3640033 87.0399979,65.9720118 86.9979939,64.1294108 L86.9599902,62.4406048 C86.946989,61.8675471 86.9339877,61.3366115 86.9239868,60.8664103 L86.9239868,60.8664103 Z" id="Fill-12" fill="#E6E6E6"></path>
            <path d="M70.3270048,34.5183628 C70.3570077,35.8145785 69.2919052,36.8889716 67.9467757,36.917905 L65.8165708,36.9641984 C64.4724414,36.9931318 63.3583342,35.9659966 63.3283313,34.6697809 L63.0563052,22.9729775 C63.0263023,21.6757974 64.0924049,20.6014043 65.4365342,20.572471 L67.5667392,20.527142 C68.9108685,20.4982086 70.0259758,21.5253438 70.0559787,22.8215595 L70.3270048,34.5183628 Z M90.9239868,59.9411644 C90.707966,50.6583698 90.1179092,25.222066 89.9968975,19.9938032 C89.8478832,13.5705916 80.7540081,6.36907193 79.1908577,5.00245168 C77.6277073,3.63486699 78.3687786,1 78.3687786,1 L74.7474301,1.07812014 L73.6563252,1.10126685 L69.3649122,1.19385368 C69.3649122,1.19385368 69.4139169,3.81232509 67.9157728,5.24549212 C66.4176286,6.67865916 56.8527082,14.2823529 57.0017225,20.7055645 C57.130735,26.2665612 57.7897984,53.7031264 57.9648152,61.2373801 C57.9838171,62.0610171 57.9968183,62.6329337 58.0028189,62.9000853 C58.0058192,63.011961 58.0098196,63.1788102 58.0098196,63.1788102 C58.1578338,65.1048093 59.6499774,66.0374287 61.465152,65.9988509 L72.7002332,65.7558104 C73.7983388,65.7326637 74.7524306,65.2022183 75.3574888,64.410408 C75.9995506,65.1752138 76.9766447,65.6641881 78.0747503,65.6400769 L88.546758,65.4143965 C90.4289391,65.3738898 91.0399979,64.0034117 90.9979939,62.188324 L90.9599902,60.5256188 C90.946989,59.9614177 90.9339877,60.4040985 90.9239868,59.9411644 L90.9239868,59.9411644 Z" id="Fill-14" fill="#FFFFFF"></path>
            <g id="Group-48" transform="translate(2.000000, 6.000000)">
                <path d="M12.2337561,14.7330742 C12.2337561,14.7330742 11.6210732,6.24325161 15.1420488,4.69955806 C18.6620488,3.15586452 11.9079024,20.3499935 12.2337561,14.7330742 M31.366439,16.5857032 C31.366439,16.5857032 33.5098537,4.39062258 34.5810732,4.0816871 C35.6522927,3.77373548 33.6630244,13.0349129 32.9742439,15.3509452 C32.2854634,17.6659935 30.8220488,19.5009129 31.366439,16.5857032 M4.73326829,59.4982194 C10.5498537,61.6588 18.2035122,60.1151065 24.0200976,60.7329774 C29.8357073,61.3498645 39.0200976,60.7329774 39.326439,52.7055742 C39.6327805,44.6791548 36.2649756,47.7665419 35.6522927,46.5317839 C35.0405854,45.2970258 40.2444878,42.5185742 34.4279024,40.0480742 C35.3469268,35.725929 37.7957073,32.6395258 34.121561,28.6253323 C30.4483902,24.6121226 35.464,21.0741226 36.841561,13.5976871 C36.841561,13.5976871 38.7137561,4.23615484 35.3469268,1.14975161 C31.979122,-1.93763548 30.1420488,1.76663871 29.224,7.78694516 C28.3059512,13.8072516 21.2649756,24.1831548 15.4483902,23.9342355 C9.63180488,23.6863 17.2844878,12.5724935 18.2035122,7.63247742 C19.121561,2.69246129 15.1010732,1.45770323 13.2844878,1.45770323 C11.4679024,1.45770323 6.57034146,4.60117097 6.34107317,21.3702677 C6.12839024,36.8819774 -6.59356098,46.5317839 4.73326829,59.4982194" id="Fill-16" fill-opacity="0.7" fill="#FFFFFF"></path>
                <path d="M12.1990244,13.8281097 C12.2097561,14.3839968 12.2341463,14.733271 12.2341463,14.733271 C11.9268293,20.0284645 17.9092683,5.05394839 15.6439024,4.61809355 C15.6468293,4.61710968 15.6497561,4.61514194 15.6526829,4.61415806 C16.9180488,4.25012581 17.7121951,4.58857742 18.2068293,5.07854516 C18.3658537,5.79480323 18.3882927,6.63502903 18.2029268,7.63267419 C17.4546341,11.6576903 12.2360976,19.7824968 13.4770732,22.7862548 C13.284878,23.1384806 14.177561,23.6048355 14.177561,23.6048355 C14.177561,23.6048355 11.1043902,22.6544161 11.6897561,18.6500613 C11.835122,17.6524161 11.9112195,15.8273355 12.1990244,13.8281097" id="Fill-18" fill="#88E4ED"></path>
                <path d="M31.2478049,24.8508097 C29.1385366,27.4541323 31.2478049,18.1290032 31.2478049,18.1290032 C31.2478049,18.1290032 31.56,13.5943419 32.7707317,9.55358387 C32.0117073,12.9174387 31.3668293,16.5853097 31.3668293,16.5853097 C30.8214634,19.5015032 32.284878,17.6656 32.9736585,15.3505516 C33.662439,13.0355032 35.6526829,3.77334194 34.5814634,4.08227742 C34.5707317,4.08522903 34.5590244,4.09703548 34.5492683,4.10195484 C34.5590244,4.07539032 34.5707317,4.04489032 34.5814634,4.02029355 C35.3229268,2.21489032 35.915122,2.41461613 36.4907317,3.12792258 C37.7121951,7.26116452 35.3463415,14.424729 35.3463415,14.424729 C35.3619512,14.4936 35.3726829,14.5575516 35.3873171,14.6254387 C33.9921951,19.0794226 32.2712195,23.5875194 31.2478049,24.8508097" id="Fill-20" fill="#88E4ED"></path>
                <path d="M15.7617561,8.35454032 C16.1383415,9.13770161 16.5841951,10.1697823 16.9539512,11.3238629 C15.929561,13.7658306 14.5754146,16.5511694 13.8329756,18.8858952 C13.3861463,18.1686532 12.9715122,17.1424758 12.6241951,15.8053952 C13.3822439,15.2839435 15.0105366,11.4035565 15.7617561,8.35454032" id="Fill-22" fill="#BBF2FF"></path>
                <path d="M31.4637073,16.04605 C31.6773659,14.3518242 32.0754146,11.8734532 32.7710244,9.55348548 C32.1856585,12.1450016 31.6705366,14.909679 31.4637073,16.04605" id="Fill-24" fill="#BBF2FF"></path>
                <path d="M31.3668293,16.5854081 C31.3668293,16.5854081 31.4019512,16.3846984 31.4634146,16.0462468 C31.36,16.8697468 31.2995122,17.5004081 31.2712195,17.8418113 C31.2292683,17.6125694 31.2487805,17.2150855 31.3668293,16.5854081" id="Fill-26" fill="#BBF2FF"></path>
                <path d="M30.5549268,21.7822145 C30.8329756,19.9659887 31.2476098,18.1291016 31.2476098,18.1291016 C31.2476098,18.1291016 31.2554146,18.0218597 31.2710244,17.8418113 C31.4222439,18.6741661 32.4339512,17.1658919 32.974439,15.35065 C33.4037073,13.9063274 34.3402927,9.75734355 34.7227317,6.91690806 C35.1373659,8.52652097 35.596878,10.3840694 35.9851707,12.1225694 C35.6515122,13.4950694 35.3461463,14.4248274 35.3461463,14.4248274 C35.3617561,14.4936984 35.3724878,14.55765 35.387122,14.6255371 C33.9929756,19.079521 32.2710244,23.5876177 31.2476098,24.8509081 C30.774439,25.4353274 30.5139512,25.41565 30.3949268,25.0368597 C30.432,24.142521 30.4846829,23.0327145 30.5549268,21.7822145" id="Fill-28" fill="#BBF2FF"></path>
                <path d="M32.7708293,34.4834968 C32.7708293,34.4834968 27.7044878,45.9170613 12.1932683,44.3704161 C4.644,43.6177548 15.2586341,49.0920129 25.3679024,47.0859 C35.4771707,45.0788032 37.2361951,30.6168839 32.7708293,34.4834968" id="Fill-30" fill="#F2F2F2"></path>
                <path d="M32.7708293,47.3034339 C32.7708293,47.3034339 25.9659512,51.0077081 18.3337561,49.77295 C10.7025366,48.5381919 17.1054634,52.891821 28.2000976,51.625579 C39.2937561,50.3593371 35.6547317,46.0785145 32.7708293,47.3034339" id="Fill-32" fill="#F2F2F2"></path>
                <path d="M19.6946341,25.1251129 C19.6946341,25.1251129 14.6009756,27.9517742 12.1931707,26.8222903 C9.78439024,25.6928065 11.2526829,30.9073226 13.3053659,31.0362097 C18.0497561,31.3333387 25.6253659,22.242371 19.6946341,25.1251129" id="Fill-34" fill="#F2F2F2"></path>
                <path d="M7.05980488,31.0432935 C7.05980488,31.0432935 6.69102439,35.2926323 9.96907317,35.9724871 C13.2480976,36.6523419 13.554439,37.3144871 12.3290732,37.6785194 C11.1046829,38.0415677 7.62078049,39.8115516 6.05395122,35.9724871 C4.82956098,32.9726645 7.04712195,30.071229 7.05980488,31.0432935" id="Fill-36" fill="#E6E6E6"></path>
                <path d="M4.98156098,55.8863306 C4.98156098,55.8863306 20.1493659,58.5624597 18.3347317,58.9530565 C16.519122,59.3436532 6.87619512,58.9323952 5.95814634,58.2889435 C5.03912195,57.6454919 3.58058537,55.6344597 4.98156098,55.8863306" id="Fill-38" fill="#F2F2F2"></path>
                <path d="M14.2512195,56.0486694 C14.2512195,56.0486694 18.8629268,58.72775 25.3682927,59.1055565 C31.8726829,59.4833629 34.8609756,57.1466694 35.3487805,57.576621 C35.8365854,58.0075565 33.704878,60.3944274 26.02,59.67325 C18.3341463,58.9530565 12.6658537,56.1805081 14.2512195,56.0486694" id="Fill-40" fill="#BBF2FF"></path>
                <path d="M4.98292683,35.9932468 C4.98292683,35.9932468 1.44634146,42.8045855 1.6902439,47.0854081 C1.93414634,51.3662306 2.65414634,53.5927306 3.3302439,54.0787629 C4.00731707,54.5638113 4.2395122,54.3178435 3.3302439,50.5053435 C2.42195122,46.6928435 2.78780488,45.3665855 3.88536585,40.6804081 C4.98292683,35.9932468 5.95853659,35.6242952 4.98292683,35.9932468" id="Fill-42" fill="#BBF2FF"></path>
                <path d="M36.6140488,50.5053435 C36.6140488,50.5053435 32.180878,53.1795048 26.9340488,52.4730855 C21.6872195,51.7666661 29.3847805,54.7418919 33.576,53.1470371 C37.7672195,51.5521823 37.3047805,50.1393435 36.6140488,50.5053435" id="Fill-44" fill="#BBF2FF"></path>
                <path d="M8.09268293,23.6048355 C8.09268293,23.6048355 7.27317073,32.7341742 10.9453659,34.2099806 C14.6165854,35.6857871 12.2546341,35.6661097 10.3141463,34.6350129 C8.37268293,33.6039161 6.45365854,30.5568677 7.23902439,24.1253032 C7.72682927,20.1288194 8.09268293,23.6048355 8.09268293,23.6048355" id="Fill-46" fill="#BBF2FF"></path>
            </g>
            <path d="M91.1572996,21.8243865 L91.1572996,20.2799473 L88.1642833,20 L85.171267,20.2799473 L85.171267,21.8243865 C85.171267,21.8243865 78,36.9141148 78,53.406417 C78,69.899665 80.7924842,70 82.1243765,70 C83.4572664,70 84.1815763,68.636119 84.2554041,68.1452654 C84.3292318,67.6544118 84.9936814,66.9517062 85.5862986,68.636119 C86.1789159,70.3205318 88.8576654,69.9696519 88.8576654,69.9696519 C88.8576654,69.9696519 91.5194546,70.3205318 92.1120718,68.636119 C92.7046891,66.9517062 93.3691387,67.6544118 93.4429664,68.1452654 C93.5177918,68.636119 94.2570668,70 95.5899568,70 C96.9228467,70 99,69.899665 99,53.406417 C99,36.9141148 91.1572996,21.8243865 91.1572996,21.8243865" id="Fill-49" fill="#89D7F5" opacity="0.7"></path>
            <g id="Group-57" transform="translate(81.000000, 19.000000)" fill="#4DB0C1">
                <path d="M11.2973684,2.3222 L11.2973684,0.779922222 L8.05,0.500366667 L7.11631579,0.564588889 L10.2447368,0.779922222 L10.2447368,2.3222 C10.2447368,2.3222 18.1078947,17.3908111 18.1078947,33.8600333 C18.1078947,46.8527556 16.4384211,49.6577556 14.9584211,50.2631444 C15.2005263,50.3660889 15.5721053,50.4303111 15.8721053,50.4303111 C17.2784211,50.4303111 19.5215789,50.3302 19.5215789,33.8600333 C19.5215789,17.3908111 11.2973684,2.3222 11.2973684,2.3222" id="Fill-51"></path>
                <path d="M3.53378947,49.0688 C2.90852632,47.3867444 2.19589474,48.0875222 2.118,48.5786333 C2.05694737,48.9639667 1.55589474,49.8857444 0.662210526,50.2635222 C1.058,50.4259667 1.42536842,50.4306889 1.72221053,50.4306889 C2.638,50.4306889 3.28852632,49.8536333 3.65378947,49.3162444 C3.60957895,49.2378556 3.56642105,49.1575778 3.53378947,49.0688" id="Fill-53"></path>
                <path d="M11.8332632,48.5781611 C11.7553684,48.0879944 11.0522105,47.3862722 10.4269474,49.0683278 C10.0385263,50.1157167 8.80273684,50.3744944 7.92484211,50.4217167 C8.46063158,50.45005 8.86484211,50.3999944 8.86484211,50.3999944 C8.86484211,50.3999944 11.3743158,50.7107167 12.1774737,49.3261611 C11.9774737,49.0333833 11.8606316,48.7509944 11.8332632,48.5781611" id="Fill-55"></path>
            </g>
            <g id="Group-64" transform="translate(78.000000, 19.000000)" fill="#FFFFFF">
                <path d="M7.7325,2.3222 L7.7325,0.779922222 L11.5985,0.500366667 L12.5955,0.564588889 L9.7325,0.779922222 L9.7325,2.3222 C9.7325,2.3222 2.5435,17.3908111 2.5435,33.8600333 C2.5435,46.8527556 4.2705,49.6577556 5.6765,50.2631444 C5.4465,50.3660889 5.1645,50.4303111 4.8785,50.4303111 C3.5435,50.4303111 0.6655,50.3302 0.6655,33.8600333 C0.6655,17.3908111 7.7325,2.3222 7.7325,2.3222" id="Fill-58"></path>
                <path d="M16.671,49.0688 C17.265,47.3867444 17.942,48.0875222 18.016,48.5786333 C18.074,48.9639667 18.55,49.8857444 19.399,50.2635222 C19.023,50.4259667 18.674,50.4306889 18.392,50.4306889 C17.522,50.4306889 16.904,49.8536333 16.557,49.3162444 C16.599,49.2378556 16.64,49.1575778 16.671,49.0688" id="Fill-60"></path>
                <path d="M8.7865,48.5781611 C8.8605,48.0879944 9.5285,47.3862722 10.1225,49.0683278 C10.4915,50.1157167 11.6655,50.3744944 12.4995,50.4217167 C11.9905,50.45005 11.6065,50.3999944 11.6065,50.3999944 C11.6065,50.3999944 9.2225,50.7107167 8.4595,49.3261611 C8.6495,49.0333833 8.7605,48.7509944 8.7865,48.5781611" id="Fill-62"></path>
            </g>
            <path d="M85.7571632,18 L92.2428368,18 C92.6608324,18 93,17.7365028 93,17.4117647 L93,14.5882353 C93,14.2634972 92.6608324,14 92.2428368,14 L85.7571632,14 C85.3391676,14 85,14.2634972 85,14.5882353 L85,17.4117647 C85,17.7365028 85.3391676,18 85.7571632,18" id="Fill-65" fill="#009245"></path>
            <mask id="mask-4" fill="white">
                <use xlink:href="#path-3"></use>
            </mask>
            <g id="Clip-68"></g>
            <polygon id="Fill-67" fill="#4DB0C1" mask="url(#mask-4)" points="89 21 93 21 93 20 89 20"></polygon>
            <polygon id="Fill-69" fill="#4DB0C1" mask="url(#mask-4)" points="89 19 93 19 93 18 89 18"></polygon>
            <polygon id="Fill-70" fill="#006837" mask="url(#mask-4)" points="87 19 93 19 93 18 87 18"></polygon>
            <polygon id="Fill-71" fill="#FFFFFF" mask="url(#mask-4)" points="86 20 95 20 95 19 86 19"></polygon>
            <polygon id="Fill-72" fill="#89D7F5" mask="url(#mask-4)" points="86 20 95 20 95 19 86 19"></polygon>
            <path d="M82,39 C81.1190502,46.2902131 80.5520672,55.3614935 81.4649098,64" id="Stroke-73" stroke="#FFFFFF" stroke-width="0.89" stroke-linecap="round" mask="url(#mask-4)"></path>
            <path d="M87,25 C86.7207294,26.8908302 86.3459693,29.6637005 86,33" id="Stroke-74" stroke="#FFFFFF" stroke-width="0.89" stroke-linecap="round" mask="url(#mask-4)"></path>
            <path d="M88.7055,23 C88.7055,23 88.5505,23.3520408 88.2945,24" id="Stroke-75" stroke="#FFFFFF" stroke-width="0.89" stroke-linecap="round" mask="url(#mask-4)"></path>
            <polygon id="Fill-76" fill="#CCCCCC" mask="url(#mask-4)" points="66 3 76 3 76 2 66 2"></polygon>
            <path d="M63.811969,1 L74.1889332,1 C74.6373205,1 75,0.775986659 75,0.499722068 L75,0.499722068 C75,0.223457476 74.6373205,0 74.1889332,0 L63.811969,0 C63.3635817,0 63,0.223457476 63,0.499722068 L63,0.499722068 C63,0.775986659 63.3635817,1 63.811969,1" id="Fill-77" fill="#E6E6E6" mask="url(#mask-4)"></path>
            <path d="M66.8241758,1 L75.1758242,1 C75.6309524,1 76,0.775986659 76,0.499722068 L76,0.499722068 C76,0.223457476 75.6309524,0 75.1758242,0 L66.8241758,0 C66.3690476,0 66,0.223457476 66,0.499722068 L66,0.499722068 C66,0.775986659 66.3690476,1 66.8241758,1" id="Fill-78" fill="#FFFFFF" mask="url(#mask-4)"></path>
            <path d="M72,45.812834 L72,59.9809105 L73,61 L73,41.7648121 C73,41.7648121 72,38.3917979 72,45.812834" id="Fill-79" fill="#E6E6E6" mask="url(#mask-4)"></path>
            <path d="M51.1524012,70 L58.8475988,70 C59.4838288,70 60,69.3942734 60,68.6476578 L60,63.3513837 C60,62.6047682 59.4838288,62 58.8475988,62 L51.1524012,62 C50.5161712,62 50,62.6047682 50,63.3513837 L50,68.6476578 C50,69.3942734 50.5161712,70 51.1524012,70" id="Fill-80" fill="#F15A24" mask="url(#mask-4)"></path>
            <path d="M50.8976558,63 L59.1023442,63 C59.5981377,63 60,62.7761601 60,62.5 L60,62.5 C60,62.2238399 59.5981377,62 59.1023442,62 L50.8976558,62 C50.4018623,62 50,62.2238399 50,62.5 L50,62.5 C50,62.7761601 50.4018623,63 50.8976558,63" id="Fill-81" fill="#FF6F43" mask="url(#mask-4)"></path>
            <path d="M52.3435729,62.8835 L60.6564271,62.8835 C60.846108,62.8835 61,62.7115 61,62.4995 L61,62.4995 C61,62.2875 60.846108,62.1165 60.6564271,62.1165 L52.3435729,62.1165 C52.153892,62.1165 52,62.2875 52,62.4995 L52,62.4995 C52,62.7115 52.153892,62.8835 52.3435729,62.8835" id="Fill-82" fill="#AA330E" mask="url(#mask-4)"></path>
            <path d="M50,69.5 C50,70.328495 52.2389388,71 54.9995549,71 C57.7610612,71 60,70.328495 60,69.5 C60,68.671505 57.7610612,68 54.9995549,68 C52.2389388,68 50,68.671505 50,69.5" id="Fill-83" fill="#F15A24" mask="url(#mask-4)"></path>
            <path d="M36.4633135,70 L41.5377236,70 C42.3456054,70 43,69.4934544 43,68.869089 L43,68.130911 C43,67.5065456 42.3456054,67 41.5377236,67 L36.4633135,67 C35.6554317,67 35,67.5065456 35,68.130911 L35,68.869089 C35,69.4934544 35.6554317,70 36.4633135,70" id="Fill-84" fill="#FFFFFF" mask="url(#mask-4)"></path>
            <path d="M35.7176562,66 L42.2813067,66 C42.6785066,66 43,65.7761733 43,65.500361 L43,65.500361 C43,65.2238267 42.6785066,65 42.2813067,65 L35.7176562,65 C35.3214934,65 35,65.2238267 35,65.500361 L35,65.500361 C35,65.7761733 35.3214934,66 35.7176562,66" id="Fill-85" fill="#E6E6E6" mask="url(#mask-4)"></path>
            <path d="M36.2290944,65.7415 L41.7709056,65.7415 C41.8968129,65.7415 42,65.6335 42,65.4995 L42,65.4995 C42,65.3665 41.8968129,65.2585 41.7709056,65.2585 L36.2290944,65.2585 C36.1031871,65.2585 36,65.3665 36,65.4995 L36,65.4995 C36,65.6335 36.1031871,65.7415 36.2290944,65.7415" id="Fill-86" fill="#AAAAAA" mask="url(#mask-4)"></path>
            <path d="M35,68.5 C35,68.7759657 36.790517,69 39,69 C41.209483,69 43,68.7759657 43,68.5 C43,68.2240343 41.209483,68 39,68 C36.790517,68 35,68.2240343 35,68.5" id="Fill-87" fill="#FFFFFF" mask="url(#mask-4)"></path>
            <path d="M38.8077129,36.2661202 C36.682692,39.215158 36.3887168,42.8298122 38.1517282,44.3395804 C39.9147395,45.8493485 43.0669938,44.6829176 45.1920146,41.7338798 C47.3178754,38.784842 47.6110106,35.1701878 45.8479993,33.6604196 C44.0849879,32.1506515 40.9327337,33.3170824 38.8077129,36.2661202" id="Fill-88" fill="#3C6BEF" mask="url(#mask-4)"></path>
            <path d="M38.7444008,34.1931693 C36.6484988,37.1208985 36.4074085,40.751018 38.2050272,42.3013816 C40.0026459,43.8517451 43.1596972,42.7352943 45.2555992,39.8075651 C47.3515012,36.8798359 47.5925915,33.248771 45.7949728,31.6984075 C43.9973541,30.1480439 40.8403028,31.2654401 38.7444008,34.1931693" id="Fill-89" fill="#3C6BEF" mask="url(#mask-4)"></path>
            <polygon id="Fill-90" fill="#3C6BEF" mask="url(#mask-4)" points="41.4706949 30 45 33.4035804 37.1818731 43 33 38.8999605"></polygon>
            <path d="M33.7444008,31.1931693 C31.6484988,34.1208985 31.4074085,37.751018 33.2050272,39.3013816 C35.0026459,40.8517451 38.1596972,39.7352943 40.2555992,36.8075651 C42.3515012,33.8798359 42.5925915,30.248771 40.7949728,28.6984075 C38.9973541,27.1480439 35.8403028,28.2654401 33.7444008,31.1931693" id="Fill-91" fill="#3C6BEF" mask="url(#mask-4)"></path>
            <path d="M35.7446843,34.1927074 C33.6487081,37.1203394 33.4071612,40.7512048 35.2050583,42.3015147 C37.0029553,43.8518247 40.160196,42.7349246 42.2553157,39.8072926 C44.3512919,36.8787204 44.5928388,33.2487952 42.7949417,31.6984853 C40.9970447,30.1481753 37.8406605,31.2650754 35.7446843,34.1927074" id="Fill-92" fill="#274FE0" mask="url(#mask-4)"></path>
            <polygon id="Fill-93" fill="#274FE0" mask="url(#mask-4)" points="39.4705882 30 43 33.4035869 35.1814706 43 31 38.9003796"></polygon>
            <path d="M33.7446843,31.1927074 C31.6487081,34.1203394 31.4071612,37.7512048 33.2050583,39.3015147 C35.0029553,40.8518247 38.160196,39.7349246 40.2553157,36.8072926 C42.3512919,33.8787204 42.5928388,30.2487952 40.7949417,28.6984853 C38.9970447,27.1481753 35.8406605,28.2650754 33.7446843,31.1927074" id="Fill-94" fill="#274FE0" mask="url(#mask-4)"></path>
            <path d="M34.5511451,31.5598184 C32.8042544,33.8018746 32.4850761,36.4879655 33.837741,37.5593018 C35.1895016,38.6306382 37.7022394,37.6814798 39.4491301,35.4403353 C41.1951166,33.1982791 41.515199,30.5121882 40.1625342,29.4408519 C38.8098693,28.3695155 36.2980358,29.3177622 34.5511451,31.5598184" id="Fill-95" fill="#0E339B" mask="url(#mask-4)"></path>
            <path d="M37.3241116,36.8952987 C36.7030766,37.5760624 36.2690198,38.2995278 36,39 C36.9339375,38.6156847 37.8793227,37.9776227 38.6758884,37.1055225 C39.2969234,36.4247588 39.7309802,35.7004722 40,35 C39.0660625,35.3851365 38.1197233,36.0231985 37.3241116,36.8952987" id="Fill-96" fill="#052468" mask="url(#mask-4)"></path>
            <path d="M13.8751387,9.43538253 C13.8751387,9.43538253 9.7630565,9.54149365 8.53674346,19.8384172 C8.07398382,23.0897282 7.890731,22.3859131 8.06472862,19.6319979 C8.23780073,16.8772538 9.07724671,11.0345103 12.93296,9.11787816 C13.4919737,8.96202745 14.3156858,8.8724962 13.8751387,9.43538253" id="Fill-97" fill="#FFFFFF" mask="url(#mask-4)"></path>
            <path d="M17,29.996786 C17,29.996786 27.4851744,30.5538538 29,17 C26.0680233,22.8014003 24.4947674,27.581656 17,29.996786" id="Fill-98" fill="#FFFFFF" mask="url(#mask-4)"></path>
            <path d="M29.9506049,32 C29.9506049,32 30.7777934,42.3086316 25.0578323,45.053754 C19.3378713,47.799764 19.0165038,46.9282121 21.3934823,46.6317779 C23.7704608,46.3362312 28.3618324,46.5474628 31.4034141,39.6007853 C33.3373238,35.1853361 29.9506049,32 29.9506049,32" id="Fill-99" fill="#FFFFFF" mask="url(#mask-4)"></path>
            <path d="M33.1503472,8 C33.1503472,8 34.4849777,12.2696292 33.8088174,14.791773 C33.132657,17.3139168 31,20 31,20 C31,20 31.202455,11.4472301 33.1503472,8" id="Fill-100" fill="#FFFFFF" mask="url(#mask-4)"></path>
            <path d="M6,53 C6,53 10.5721426,59.2368107 19,61.6987096 C16.5437985,63.0083031 8.91615152,60.0377827 6,53" id="Fill-101" fill="#FFFFFF" mask="url(#mask-4)"></path>
            <path d="M18,41 C18,41 25.120836,38.9467681 26.8913647,32 C27.5989954,37.3158895 24.8739881,40.4407645 18,41" id="Fill-102" fill="#FFFFFF" mask="url(#mask-4)"></path>
        </g>
        <text id="Resto-de-los-residuo" font-family="SourceSansPro-SemiBold, Source Sans Pro" font-size="16" font-weight="500" fill="#FFFFFF">
            <tspan x="125.927628" y="264.361814">Resto de los </tspan>
            <tspan x="137.839628" y="284.361814">residuos</tspan>
        </text>
        <text id="Otros-residuos" font-family="SourceSansPro-SemiBold, Source Sans Pro" font-size="16" font-weight="500" fill="#FFFFFF">
            <tspan x="119.792" y="66">Otros</tspan>
            <tspan x="99.232" y="86">residuos</tspan>
        </text>
        <g id="Group-2" transform="translate(180.000000, 31.000000)" fill="#FFFFFF" font-family="SourceSansPro-SemiBold, Source Sans Pro" font-weight="500">
            <text id="16%" font-size="36">
                <tspan x="0" y="35">16%</tspan>
            </text>
            <text id="Plásticos" font-size="16">
                <tspan x="0" y="55">Plásticos</tspan>
            </text>
        </g>
    </g>
</svg>