<?xml version="1.0" encoding="UTF-8"?>
<svg width="156px" height="164px" viewBox="0 0 156 164" version="1.1" xmlns="http://www.w3.org/2000/svg" xmlns:xlink="http://www.w3.org/1999/xlink">
    <!-- Generator: Sketch 64 (93537) - https://sketch.com -->
    <title>contenedor_paquetes</title>
    <desc>Created with Sketch.</desc>
    <defs>
        <path d="M78.9980475,12.319719 C79.0127491,12.1937524 78.9428372,12.071739 78.8419279,12.0472154 L77.7454856,11.7807515 C77.6445764,11.756228 77.5508261,11.8384672 77.5361245,11.9644338 C77.4917029,12.3450478 77.2129621,12.5895796 76.9080409,12.5154805 C76.6030843,12.4413635 76.3952606,12.0785839 76.4396822,11.6979699 C76.4543838,11.5720033 76.3844718,11.4499899 76.2835626,11.4254663 L75.3698607,11.2034131 C75.2689515,11.1788895 75.1752011,11.2611287 75.1604995,11.3870953 C75.1160779,11.7677094 74.8373371,12.0122411 74.532416,11.9381421 C74.2274594,11.864025 74.0196356,11.5012455 74.0640572,11.1206314 C74.0787588,10.9946648 74.0088469,10.8726514 73.9079376,10.8481279 L72.9942357,10.6260746 C72.8933265,10.6015511 72.7995762,10.6837903 72.7848746,10.8097569 C72.740453,11.1903709 72.4617122,11.4349027 72.156791,11.3608036 C71.8518344,11.2866866 71.6440107,10.923907 71.6884323,10.543293 C71.7031339,10.4173264 71.6332219,10.295313 71.5323127,10.2707894 L70.4358704,10.0043255 C70.3349612,9.97980197 70.2412108,10.0620412 70.2265092,10.1880078 L70.0667844,11.5565652 C70.0520828,11.6825317 70.1219964,11.8045315 70.222904,11.8290687 C70.5278246,11.9031723 70.7356854,12.2659562 70.6912628,12.6465793 C70.6468401,13.0272025 70.3680998,13.2717297 70.0631792,13.1976261 C69.9622684,13.1731162 69.8685196,13.2553418 69.853818,13.3813083 L69.7207141,14.5217728 C69.7060125,14.6477394 69.775926,14.7697391 69.8768336,14.7942764 C70.1817542,14.86838 70.389615,15.2311638 70.3451924,15.611787 C70.3007697,15.9924102 70.0220294,16.2369374 69.7171088,16.1628337 C69.616198,16.1383239 69.5224493,16.2205494 69.5077477,16.346516 L69.3746437,17.4869805 C69.3599421,17.6129471 69.4298556,17.7349468 69.5307633,17.759484 C69.8356839,17.8335876 70.0435447,18.1963715 69.999122,18.5769947 C69.9546993,18.9576178 69.6759591,19.202145 69.3710385,19.1280414 C69.2701276,19.1035315 69.1763789,19.1857571 69.1616773,19.3117236 L69.0019525,20.680281 C68.9872509,20.8062476 69.0571628,20.928261 69.1580721,20.9527846 L70.2545144,21.2192485 C70.3554236,21.243772 70.4491739,21.1615328 70.4638755,21.0355662 C70.5082971,20.6549522 70.7870014,20.4104116 71.0919591,20.4845195 C71.3968791,20.5586277 71.6047394,20.9214161 71.5603178,21.3020301 C71.5456223,21.4280078 71.6155282,21.5500101 71.7164374,21.5745337 L72.6301393,21.7965869 C72.7310485,21.8211105 72.8247989,21.7388713 72.8395005,21.6129047 C72.8839221,21.2322906 73.1626263,20.98775 73.467584,21.0618579 C73.7725041,21.1359661 73.9803644,21.4987545 73.9359428,21.8793686 C73.9212412,22.0053352 73.9911531,22.1273486 74.0920624,22.1518721 L75.0057643,22.3739254 C75.1066735,22.3984489 75.2004238,22.3162097 75.2151254,22.1902431 C75.259547,21.8096291 75.5382513,21.5650885 75.843209,21.6391964 C76.148129,21.7133046 76.3559893,22.076093 76.3115677,22.456707 C76.2968661,22.5826736 76.3667781,22.704687 76.4676873,22.7292106 L77.5641296,22.9956745 C77.6650388,23.020198 77.7587892,22.9379588 77.7734908,22.8119922 L77.9332156,21.4434348 C77.9479172,21.3174683 77.8780036,21.1954685 77.777096,21.1709313 C77.4721388,21.0968188 77.2643146,20.7340438 77.3087372,20.3534207 C77.3531599,19.9727975 77.6318636,19.7282614 77.9368208,19.8023739 C78.0377316,19.8268838 78.1314804,19.7446582 78.146182,19.6186917 L78.2792859,18.4782272 C78.2939875,18.3522606 78.224074,18.2302609 78.1231664,18.2057236 C77.8182092,18.1316111 77.610385,17.7688362 77.6548076,17.388213 C77.6992303,17.0075898 77.977934,16.7630538 78.2828912,16.8371663 C78.383802,16.8616761 78.4775507,16.7794506 78.4922523,16.653484 L78.6253563,15.5130195 C78.6400579,15.3870529 78.5701444,15.2650532 78.4692367,15.240516 C78.1642796,15.1664035 77.9564553,14.8036285 78.000878,14.4230053 C78.0453007,14.0423822 78.3240044,13.7978461 78.6289615,13.8719586 C78.7298724,13.8964685 78.8236211,13.8142429 78.8383227,13.6882764 L78.9980475,12.319719 Z M77.3231581,13.7891769 L76.5245341,20.6319638 C76.5098325,20.7579304 76.4160822,20.8401697 76.3151729,20.8156461 L70.8329615,19.4833266 C70.7320523,19.458803 70.6621403,19.3367896 70.6768419,19.2108231 L71.4754659,12.3680362 C71.4901675,12.2420696 71.5839178,12.1598303 71.6848271,12.1843539 L77.1670385,13.5166734 C77.2679477,13.541197 77.3378597,13.6632104 77.3231581,13.7891769 Z M76.9077633,14.1280298 L76.2089674,20.1154684 C76.1961034,20.2256891 76.1140719,20.2976484 76.0257763,20.2761903 L71.2288413,19.1104108 C71.1405457,19.0889527 71.0793728,18.9821909 71.0922367,18.8719702 L71.7910326,12.8845316 C71.8038966,12.7743109 71.8859281,12.7023516 71.9742237,12.7238097 L76.7711587,13.8895892 C76.8594543,13.9110473 76.9206272,14.0178091 76.9077633,14.1280298 Z" id="path-1"></path>
    </defs>
    <g id="contenedor_paquetes" stroke="none" stroke-width="1" fill="none" fill-rule="evenodd">
        <g id="Group" transform="translate(10.000000, 88.000000)">
            <path d="M66,0 L136,0 L136,71.43379 C136,73.9543379 135.097613,76 133.983493,76 L68.0165065,76 C66,76 66,76 66,71.43379 L66,0 Z" id="Fill-154" fill="#C69C6D" transform="translate(101.000000, 38.000000) rotate(-180.000000) translate(-101.000000, -38.000000) "></path>
            <path d="M73.5024647,0 C75.9385741,0 76,0 76,2.51133898 L76,73.4863448 C76,75.9976837 75.9385741,75.9976837 73.5024647,75.9976837 L4.52280943,75.9976837 C0,75.9976837 0,76.2513352 0,71.4498772 L0,2.51133898 C0,0 0,0 2.49753533,0 L73.5024647,0 Z" id="Fill-155" fill="#DDB287"></path>
            <line x1="38.5" y1="0.575757576" x2="38.5" y2="75.4242424" id="Line-5" stroke="#C69C6D" stroke-width="0.5" stroke-linecap="square"></line>
            <path d="M48.6521739,18.6666667 L46.891,20.4166667 L45.1304348,18.6666667 L42.7826087,21 L40.4347826,18.6666667 L38.0869565,21 L35.7391304,18.6666667 L33.3913043,21 L31.0434783,18.6666667 L28.6956522,21 L26.3478261,18.6666667 L24,21 L24,0 L51,0 L51,21 L48.6521739,18.6666667 Z" id="Combined-Shape" fill="#A0815F"></path>
            <path d="M111.695652,12.6757812 L110.717,14.4187812 L109.73913,12.6757812 L108.434783,15 L107.130435,12.6757812 L105.826087,15 L104.521739,12.6757812 L103.217391,15 L101.913043,12.6757812 L100.608696,15 L99.3043478,12.6757812 L98,15 L98,0 L113,0 L113,15 L113,15 L111.695652,12.6757812 Z" id="Combined-Shape-Copy" fill="#A0815F"></path>
            <path d="M69.8895748,3.18875113 C69.8643052,3.05731919 69.7609382,2.97571735 69.6587356,3.00649092 L68.5482407,3.34086504 C68.4460382,3.3716386 68.3836454,3.50315136 68.408915,3.63458329 C68.4852683,4.03171117 68.2997654,4.42274385 67.9909377,4.51573805 C67.6820711,4.60873388 67.3747734,4.36608529 67.2984201,3.96895741 C67.2731505,3.83752548 67.1697834,3.75592363 67.0675809,3.7866972 L66.1421684,4.0653423 C66.0399659,4.09611586 65.9775731,4.22762862 66.0028427,4.35906055 C66.079196,4.75618843 65.8936931,5.14722111 65.5848654,5.24021531 C65.2759989,5.33321114 64.9687011,5.09056255 64.8923478,4.69343467 C64.8670782,4.56200274 64.7637111,4.48040089 64.6615086,4.51117446 L63.7360962,4.78981956 C63.6338936,4.82059312 63.5715008,4.95210588 63.5967704,5.08353781 C63.6731237,5.48066569 63.4876209,5.87169837 63.1787931,5.96469257 C62.8699266,6.0576884 62.5626288,5.81503981 62.4862755,5.41791193 C62.4610059,5.28648 62.3576388,5.20487815 62.2554363,5.23565172 L61.1449414,5.57002584 C61.0427388,5.6007994 60.980346,5.73231216 61.0056156,5.86374409 L61.280156,7.2916795 C61.3054256,7.42311143 61.4087899,7.504699 61.5109952,7.47393971 C61.8198239,7.38095027 62.1271577,7.62358296 62.2035129,8.02072036 C62.279868,8.41785775 62.0943642,8.80888568 61.7855356,8.90187512 C61.6833358,8.93266296 61.6209402,9.06416144 61.6462098,9.19559337 L61.8749935,10.3855395 C61.9002631,10.5169715 62.0036274,10.598559 62.1058327,10.5677998 C62.4146613,10.4748103 62.7219952,10.717443 62.7983503,11.1145804 C62.8747055,11.5117178 62.6892017,11.9027457 62.3803731,11.9957352 C62.2781733,12.026523 62.2157777,12.1580215 62.2410473,12.2894534 L62.469831,13.4793996 C62.4951006,13.6108315 62.5984649,13.6924191 62.7006702,13.6616598 C63.0094988,13.5686704 63.3168326,13.8113031 63.3931878,14.2084404 C63.469543,14.6055778 63.2840392,14.9966058 62.9752105,15.0895952 C62.8730107,15.1203831 62.8106152,15.2518815 62.8358848,15.3833135 L63.1104252,16.8112489 C63.1356948,16.9426808 63.2390618,17.0242826 63.3412644,16.9935091 L64.4517593,16.659135 C64.5539618,16.6283614 64.6163546,16.4968486 64.591085,16.3654167 C64.5147317,15.9682888 64.7001976,15.5772673 65.0090623,15.4842619 C65.3178918,15.3912773 65.6252266,15.6339147 65.7015799,16.0310426 C65.7268587,16.1624821 65.8302166,16.2440764 65.9324191,16.2133028 L66.8578316,15.9346577 C66.9600341,15.9038841 67.0224269,15.7723714 66.9971573,15.6409394 C66.920804,15.2438116 67.1062698,14.85279 67.4151346,14.7597847 C67.7239641,14.6668 68.0312989,14.9094375 68.1076522,15.3065653 C68.1329218,15.4379973 68.2362889,15.5195991 68.3384914,15.4888255 L69.2639038,15.2101804 C69.3661064,15.1794069 69.4284992,15.0478941 69.4032296,14.9164622 C69.3268763,14.5193343 69.5123421,14.1283128 69.8212069,14.0353074 C70.1300364,13.9423227 70.4373712,14.1849602 70.5137245,14.5820881 C70.5389941,14.71352 70.6423612,14.7951218 70.7445637,14.7643483 L71.8550586,14.4299742 C71.9572612,14.3992006 72.019654,14.2676878 71.9943844,14.1362559 L71.719844,12.7083205 C71.6945744,12.5768886 71.5912101,12.495301 71.4890048,12.5260603 C71.1801391,12.6190609 70.8728423,12.376417 70.7964871,11.9792796 C70.720132,11.5821422 70.9055988,11.1911255 71.2144644,11.0981249 C71.3166642,11.067337 71.3790598,10.9358386 71.3537902,10.8044066 L71.1250065,9.61446046 C71.0997369,9.48302852 70.9963726,9.40144096 70.8941673,9.43220024 C70.5853017,9.52520083 70.2780048,9.28255699 70.2016497,8.8854196 C70.1252945,8.4882822 70.3107613,8.09726542 70.6196269,8.00426484 C70.7218267,7.97347699 70.7842223,7.84197852 70.7589527,7.71054658 L70.530169,6.52060041 C70.5048994,6.38916848 70.4015351,6.30758091 70.2993298,6.3383402 C69.9904642,6.43134078 69.6831674,6.18869695 69.6068122,5.79155955 C69.530457,5.39442216 69.7159238,5.00340538 70.0247895,4.91040479 C70.1269893,4.87961695 70.1893848,4.74811847 70.1641152,4.61668654 L69.8895748,3.18875113 Z M68.7749688,5.53849716 L70.1476707,12.6781742 C70.1729403,12.8096061 70.1105475,12.9411189 70.0083449,12.9718924 L64.4558704,14.643763 C64.3536679,14.6745366 64.2503008,14.5929348 64.2250312,14.4615028 L62.8523293,7.32182581 C62.8270597,7.19039387 62.8894525,7.05888112 62.9916551,7.02810755 L68.5441296,5.35623695 C68.6463321,5.32546339 68.7496992,5.40706523 68.7749688,5.53849716 Z M68.4905977,6.09618502 L69.6917118,12.3434024 C69.7138227,12.4584054 69.659229,12.573479 69.5698018,12.6004059 L64.7113866,14.0632927 C64.6219594,14.0902195 64.5315132,14.0188179 64.5094023,13.903815 L63.3082882,7.65659758 C63.2861773,7.54159464 63.340771,7.42652098 63.4301982,7.39959411 L68.2886134,5.93670733 C68.3780406,5.90978046 68.4684868,5.98118208 68.4905977,6.09618502 Z" id="Shape" fill="#E5E3C3" fill-rule="nonzero"></path>
            <path d="M78.9980475,12.319719 C79.0127491,12.1937524 78.9428372,12.071739 78.8419279,12.0472154 L77.7454856,11.7807515 C77.6445764,11.756228 77.5508261,11.8384672 77.5361245,11.9644338 C77.4917029,12.3450478 77.2129621,12.5895796 76.9080409,12.5154805 C76.6030843,12.4413635 76.3952606,12.0785839 76.4396822,11.6979699 C76.4543838,11.5720033 76.3844718,11.4499899 76.2835626,11.4254663 L75.3698607,11.2034131 C75.2689515,11.1788895 75.1752011,11.2611287 75.1604995,11.3870953 C75.1160779,11.7677094 74.8373371,12.0122411 74.532416,11.9381421 C74.2274594,11.864025 74.0196356,11.5012455 74.0640572,11.1206314 C74.0787588,10.9946648 74.0088469,10.8726514 73.9079376,10.8481279 L72.9942357,10.6260746 C72.8933265,10.6015511 72.7995762,10.6837903 72.7848746,10.8097569 C72.740453,11.1903709 72.4617122,11.4349027 72.156791,11.3608036 C71.8518344,11.2866866 71.6440107,10.923907 71.6884323,10.543293 C71.7031339,10.4173264 71.6332219,10.295313 71.5323127,10.2707894 L70.4358704,10.0043255 C70.3349612,9.97980197 70.2412108,10.0620412 70.2265092,10.1880078 L70.0667844,11.5565652 C70.0520828,11.6825317 70.1219964,11.8045315 70.222904,11.8290687 C70.5278246,11.9031723 70.7356854,12.2659562 70.6912628,12.6465793 C70.6468401,13.0272025 70.3680998,13.2717297 70.0631792,13.1976261 C69.9622684,13.1731162 69.8685196,13.2553418 69.853818,13.3813083 L69.7207141,14.5217728 C69.7060125,14.6477394 69.775926,14.7697391 69.8768336,14.7942764 C70.1817542,14.86838 70.389615,15.2311638 70.3451924,15.611787 C70.3007697,15.9924102 70.0220294,16.2369374 69.7171088,16.1628337 C69.616198,16.1383239 69.5224493,16.2205494 69.5077477,16.346516 L69.3746437,17.4869805 C69.3599421,17.6129471 69.4298556,17.7349468 69.5307633,17.759484 C69.8356839,17.8335876 70.0435447,18.1963715 69.999122,18.5769947 C69.9546993,18.9576178 69.6759591,19.202145 69.3710385,19.1280414 C69.2701276,19.1035315 69.1763789,19.1857571 69.1616773,19.3117236 L69.0019525,20.680281 C68.9872509,20.8062476 69.0571628,20.928261 69.1580721,20.9527846 L70.2545144,21.2192485 C70.3554236,21.243772 70.4491739,21.1615328 70.4638755,21.0355662 C70.5082971,20.6549522 70.7870014,20.4104116 71.0919591,20.4845195 C71.3968791,20.5586277 71.6047394,20.9214161 71.5603178,21.3020301 C71.5456223,21.4280078 71.6155282,21.5500101 71.7164374,21.5745337 L72.6301393,21.7965869 C72.7310485,21.8211105 72.8247989,21.7388713 72.8395005,21.6129047 C72.8839221,21.2322906 73.1626263,20.98775 73.467584,21.0618579 C73.7725041,21.1359661 73.9803644,21.4987545 73.9359428,21.8793686 C73.9212412,22.0053352 73.9911531,22.1273486 74.0920624,22.1518721 L75.0057643,22.3739254 C75.1066735,22.3984489 75.2004238,22.3162097 75.2151254,22.1902431 C75.259547,21.8096291 75.5382513,21.5650885 75.843209,21.6391964 C76.148129,21.7133046 76.3559893,22.076093 76.3115677,22.456707 C76.2968661,22.5826736 76.3667781,22.704687 76.4676873,22.7292106 L77.5641296,22.9956745 C77.6650388,23.020198 77.7587892,22.9379588 77.7734908,22.8119922 L77.9332156,21.4434348 C77.9479172,21.3174683 77.8780036,21.1954685 77.777096,21.1709313 C77.4721388,21.0968188 77.2643146,20.7340438 77.3087372,20.3534207 C77.3531599,19.9727975 77.6318636,19.7282614 77.9368208,19.8023739 C78.0377316,19.8268838 78.1314804,19.7446582 78.146182,19.6186917 L78.2792859,18.4782272 C78.2939875,18.3522606 78.224074,18.2302609 78.1231664,18.2057236 C77.8182092,18.1316111 77.610385,17.7688362 77.6548076,17.388213 C77.6992303,17.0075898 77.977934,16.7630538 78.2828912,16.8371663 C78.383802,16.8616761 78.4775507,16.7794506 78.4922523,16.653484 L78.6253563,15.5130195 C78.6400579,15.3870529 78.5701444,15.2650532 78.4692367,15.240516 C78.1642796,15.1664035 77.9564553,14.8036285 78.000878,14.4230053 C78.0453007,14.0423822 78.3240044,13.7978461 78.6289615,13.8719586 C78.7298724,13.8964685 78.8236211,13.8142429 78.8383227,13.6882764 L78.9980475,12.319719 Z M77.3231581,13.7891769 L76.5245341,20.6319638 C76.5098325,20.7579304 76.4160822,20.8401697 76.3151729,20.8156461 L70.8329615,19.4833266 C70.7320523,19.458803 70.6621403,19.3367896 70.6768419,19.2108231 L71.4754659,12.3680362 C71.4901675,12.2420696 71.5839178,12.1598303 71.6848271,12.1843539 L77.1670385,13.5166734 C77.2679477,13.541197 77.3378597,13.6632104 77.3231581,13.7891769 Z M76.9077633,14.1280298 L76.2089674,20.1154684 C76.1961034,20.2256891 76.1140719,20.2976484 76.0257763,20.2761903 L71.2288413,19.1104108 C71.1405457,19.0889527 71.0793728,18.9821909 71.0922367,18.8719702 L71.7910326,12.8845316 C71.8038966,12.7743109 71.8859281,12.7023516 71.9742237,12.7238097 L76.7711587,13.8895892 C76.8594543,13.9110473 76.9206272,14.0178091 76.9077633,14.1280298 Z" id="Shape-Copy" fill="#E5E3C3" fill-rule="nonzero"></path>
            <mask id="mask-2" fill="white">
                <use xlink:href="#path-1"></use>
            </mask>
            <use id="Shape-Copy" fill="#E5E3C3" fill-rule="nonzero" xlink:href="#path-1"></use>
            <rect id="Rectangle" fill-opacity="0.5" fill="#C69C6D" style="mix-blend-mode: multiply;" mask="url(#mask-2)" x="76" y="10" width="5" height="15"></rect>
        </g>
    </g>
</svg>