<?xml version="1.0" encoding="UTF-8"?>
<svg width="156px" height="164px" viewBox="0 0 156 164" version="1.1" xmlns="http://www.w3.org/2000/svg" xmlns:xlink="http://www.w3.org/1999/xlink">
    <!-- Generator: Sketch 64 (93537) - https://sketch.com -->
    <title>contenedor_ecopunto</title>
    <desc>Created with Sketch.</desc>
    <defs>
        <polygon id="path-1" points="0 0.927 127 0.927 127 89.927 0 89.927"></polygon>
        <polygon id="path-3" points="0 0.927 28 0.927 28 89.927 0 89.927"></polygon>
    </defs>
    <g id="contenedor_ecopunto" stroke="none" stroke-width="1" fill="none" fill-rule="evenodd">
        <g id="Group-3" transform="translate(0.000000, 73.073000)">
            <mask id="mask-2" fill="white">
                <use xlink:href="#path-1"></use>
            </mask>
            <g id="Clip-2"></g>
            <path d="M4.74057667,0.927 L127,0.927 L127,89.927 L4.74057667,89.927 C2.12200736,89.927 0,88.8764741 0,87.5814709 L0,3.27252909 C0,1.97692079 2.12200736,0.927 4.74057667,0.927" id="Fill-1" fill="#0D744E" mask="url(#mask-2)"></path>
        </g>
        <g id="Group-24" transform="translate(127.000000, 73.073000)">
            <mask id="mask-4" fill="white">
                <use xlink:href="#path-3"></use>
            </mask>
            <g id="Clip-23"></g>
            <path d="M26.1798762,2.38841712 L0,0.927 L0,89.927 L25.9976658,89.927 C27.1038019,89.927 28,89.3787417 28,88.7034036 L28,3.60717243 C28,2.97419425 27.2107515,2.44590558 26.1798762,2.38841712" id="Fill-22" fill="#69B482" mask="url(#mask-4)"></path>
        </g>
        <polygon id="Stroke-25" stroke="#0D633E" points="151.7901 78.3275347 130.7901 77.2431 130.7901 160.2431 151.7901 160.2431"></polygon>
        <polygon id="Stroke-25" stroke="#0D633E" points="141.7901 77.8483311 130.7901 77.2431 130.7901 160.2431 141.7901 160.2431"></polygon>
        <polygon id="Fill-27" fill="#89CE9E" points="5 160.073 122 160.073 122 77.073 5 77.073"></polygon>
        <g id="Group" transform="translate(106.500000, 103.500000) scale(-1, 1) translate(-106.500000, -103.500000) translate(97.000000, 93.000000)">
            <path d="M9.45093815,20.79 C14.6689368,20.79 18.9,16.1360708 18.9,10.395 C18.9,4.65392918 14.6689368,0 9.45093815,0 C4.23106324,0 0,4.65392918 0,10.395 C0,16.1360708 4.23106324,20.79 9.45093815,20.79 Z" id="Fill-30" fill="#69B482"></path>
            <path d="M9.45031272,13.86 C11.1896456,13.86 12.6,12.3086903 12.6,10.395 C12.6,8.48130973 11.1896456,6.93 9.45031272,6.93 C7.71035441,6.93 6.3,8.48130973 6.3,10.395 C6.3,12.3086903 7.71035441,13.86 9.45031272,13.86 Z" id="Fill-30" fill="#0D633E"></path>
            <path d="M6.3,10.3947818 C6.3,12.0656445 7.37183113,13.4650847 8.82,13.86 C10.2681689,13.4650847 11.34,12.0656445 11.34,10.3947818 C11.34,8.72391915 10.2681689,7.32491531 8.82,6.93 C7.37183113,7.32491531 6.3,8.72391915 6.3,10.3947818 Z" id="Fill-31" fill="#08492C"></path>
        </g>
        <g id="Group-Copy" transform="translate(86.500000, 103.500000) scale(-1, 1) translate(-86.500000, -103.500000) translate(77.000000, 93.000000)">
            <path d="M9.45093815,20.79 C14.6689368,20.79 18.9,16.1360708 18.9,10.395 C18.9,4.65392918 14.6689368,0 9.45093815,0 C4.23106324,0 0,4.65392918 0,10.395 C0,16.1360708 4.23106324,20.79 9.45093815,20.79 Z" id="Fill-30" fill="#69B482"></path>
            <path d="M9.45031272,13.86 C11.1896456,13.86 12.6,12.3086903 12.6,10.395 C12.6,8.48130973 11.1896456,6.93 9.45031272,6.93 C7.71035441,6.93 6.3,8.48130973 6.3,10.395 C6.3,12.3086903 7.71035441,13.86 9.45031272,13.86 Z" id="Fill-30" fill="#0D633E"></path>
            <path d="M6.3,10.3947818 C6.3,12.0656445 7.37183113,13.4650847 8.82,13.86 C10.2681689,13.4650847 11.34,12.0656445 11.34,10.3947818 C11.34,8.72391915 10.2681689,7.32491531 8.82,6.93 C7.37183113,7.32491531 6.3,8.72391915 6.3,10.3947818 Z" id="Fill-31" fill="#08492C"></path>
        </g>
        <g id="Group-Copy-2" transform="translate(66.500000, 103.500000) scale(-1, 1) translate(-66.500000, -103.500000) translate(57.000000, 93.000000)">
            <path d="M9.45093815,20.79 C14.6689368,20.79 18.9,16.1360708 18.9,10.395 C18.9,4.65392918 14.6689368,0 9.45093815,0 C4.23106324,0 0,4.65392918 0,10.395 C0,16.1360708 4.23106324,20.79 9.45093815,20.79 Z" id="Fill-30" fill="#69B482"></path>
            <path d="M9.45031272,13.86 C11.1896456,13.86 12.6,12.3086903 12.6,10.395 C12.6,8.48130973 11.1896456,6.93 9.45031272,6.93 C7.71035441,6.93 6.3,8.48130973 6.3,10.395 C6.3,12.3086903 7.71035441,13.86 9.45031272,13.86 Z" id="Fill-30" fill="#0D633E"></path>
            <path d="M6.3,10.3947818 C6.3,12.0656445 7.37183113,13.4650847 8.82,13.86 C10.2681689,13.4650847 11.34,12.0656445 11.34,10.3947818 C11.34,8.72391915 10.2681689,7.32491531 8.82,6.93 C7.37183113,7.32491531 6.3,8.72391915 6.3,10.3947818 Z" id="Fill-31" fill="#08492C"></path>
        </g>
        <rect id="Rectangle" fill="#69B482" x="34" y="77" width="22" height="38"></rect>
        <rect id="Rectangle-Copy" fill="#69B482" x="11" y="77" width="22" height="38"></rect>
        <rect id="Rectangle-Copy" fill="#08492C" x="12" y="93" width="20" height="21"></rect>
        <rect id="Rectangle-Copy-2" fill="#08492C" x="35" y="93" width="20" height="21"></rect>
        <rect id="Rectangle-Copy" stroke="#0D633E" fill="#69B482" x="13.5" y="93.5" width="18" height="19"></rect>
        <rect id="Rectangle-Copy-3" stroke="#0D633E" fill="#69B482" x="36.5" y="93.5" width="18" height="19"></rect>
    </g>
</svg>