<?xml version="1.0" encoding="UTF-8"?>
<svg width="156px" height="164px" viewBox="0 0 156 164" version="1.1" xmlns="http://www.w3.org/2000/svg" xmlns:xlink="http://www.w3.org/1999/xlink">
    <!-- Generator: Sketch 64 (93537) - https://sketch.com -->
    <title>contenedor_chapa</title>
    <desc>Created with Sketch.</desc>
    <defs>
        <polygon id="path-1" points="0.2822 0.7683 99.6092 0.7683 99.6092 148 0.2822 148"></polygon>
        <polygon id="path-3" points="0 0.7683 99.327 0.7683 99.327 148 0 148"></polygon>
        <polygon id="path-5" points="0.8993 0.7683 97.3273 0.7683 97.3273 148 0.8993 148"></polygon>
        <polygon id="path-7" points="0 148.232 107.61 148.232 107.61 1 0 1"></polygon>
    </defs>
    <g id="contenedor_chapa" stroke="none" stroke-width="1" fill="none" fill-rule="evenodd">
        <g id="Chapa-Copy" transform="translate(24.000000, 15.000000)">
            <g id="Group-3" transform="translate(8.000000, 0.232000)">
                <mask id="mask-2" fill="white">
                    <use xlink:href="#path-1"></use>
                </mask>
                <g id="Clip-2"></g>
                <path d="M42.2822,0.7683 L57.6102,0.7683 C80.8052,0.7683 99.6092,19.5723 99.6092,42.7683 L99.6092,144.0003 C99.6092,146.2093 97.8192,148.0003 95.6092,148.0003 L4.2822,148.0003 C2.0732,148.0003 0.2822,146.2093 0.2822,144.0003 L0.2822,42.7683 C0.2822,19.5723 19.0862,0.7683 42.2822,0.7683" id="Fill-1" fill="#0D633E" mask="url(#mask-2)"></path>
            </g>
            <g id="Group-6" transform="translate(0.000000, 0.232000)">
                <mask id="mask-4" fill="white">
                    <use xlink:href="#path-3"></use>
                </mask>
                <g id="Clip-5"></g>
                <path d="M42,0.7683 L57.328,0.7683 C80.523,0.7683 99.327,19.5723 99.327,42.7683 L99.327,144.0003 C99.327,146.2093 97.537,148.0003 95.327,148.0003 L4,148.0003 C1.791,148.0003 0,146.2093 0,144.0003 L0,42.7683 C0,19.5723 18.804,0.7683 42,0.7683" id="Fill-4" fill="#89CE9E" mask="url(#mask-4)"></path>
            </g>
            <g id="Group-9" transform="translate(2.000000, 0.232000)">
                <mask id="mask-6" fill="white">
                    <use xlink:href="#path-5"></use>
                </mask>
                <g id="Clip-8"></g>
                <path d="M42.8993,0.7683 L55.3273,0.7683 C78.5233,0.7683 97.3273,19.5723 97.3273,42.7683 L97.3273,144.0003 C97.3273,146.2093 95.5363,148.0003 93.3273,148.0003 L4.8993,148.0003 C2.6903,148.0003 0.8993,146.2093 0.8993,144.0003 L0.8993,42.7683 C0.8993,19.5723 19.7033,0.7683 42.8993,0.7683" id="Fill-7" fill="#69B482" mask="url(#mask-6)"></path>
            </g>
            <path d="M70.9696,42.0081 L70.9696,42.0081 C67.5656,42.0081 64.8056,37.9861 64.8056,34.5351 L64.8056,28.6751 C64.8056,25.2241 62.0456,22.4271 58.6416,22.4271 L41.9956,22.4271 C38.5916,22.4271 35.8316,25.2241 35.8316,28.6751 L35.8316,34.5351 C35.8316,37.9861 33.0716,42.0081 29.6676,42.0081 L29.3686,42.0081 C25.6196,42.0081 22.5516,45.1181 22.5516,48.9181 L22.5516,49.8751 C22.5516,53.6241 25.5776,56.6911 29.2756,56.6911 L36.2656,56.6911 L64.7696,56.6911 L71.6666,56.6911 C75.2116,56.6911 78.0856,53.7781 78.0856,50.1841 L78.0856,49.2211 C78.0856,45.2541 74.8836,42.0081 70.9696,42.0081" id="Fill-10" fill="#0D633E"></path>
            <path d="M78,49.71 L78,48.78 C78,44.946 74.867,41.81 71.034,41.81 C67.699,41.81 65,37.923 65,34.589 L65,28.927 C65,25.592 62.161,22.232 58.827,22.232 L48.438,22.232 C45.104,22.232 43,25.592 43,28.927 L43,34.589 C43,37.923 39.698,42.232 36.363,42.232 L36.071,42.232 C32.398,42.232 30,44.814 30,48.487 L30,49.411 C30,53.034 32.357,56.232 35.979,56.232 L36.91,56.232 L42.826,56.232 L64.828,56.232 L70.744,56.232 L71.584,56.232 C75.056,56.232 78,53.182 78,49.71" id="Fill-12" fill="#08492C"></path>
            <path d="M73.0338,41.8097 C69.6998,41.8097 66.9998,37.9237 66.9998,34.5887 L66.9998,28.9267 C66.9998,25.5927 64.0118,22.2317 60.6778,22.2317 L58.3128,22.2317 C61.6468,22.2317 63.9998,25.5927 63.9998,28.9267 L63.9998,34.5887 C63.9998,37.9237 67.1998,41.8097 70.5338,41.8097 C74.3668,41.8097 77.9998,44.9457 77.9998,48.7797 L77.9998,49.7097 C77.9998,53.1827 74.5418,56.2317 71.0698,56.2317 L72.5948,56.2317 L73.4348,56.2317 C76.9068,56.2317 79.9998,53.1827 79.9998,49.7097 L79.9998,48.7797 C79.9998,44.9457 76.8668,41.8097 73.0338,41.8097" id="Fill-14" fill="#69B482"></path>
            <mask id="mask-8" fill="white">
                <use xlink:href="#path-7"></use>
            </mask>
            <g id="Clip-17"></g>
            <polygon id="Stroke-16" stroke="#0D744E" mask="url(#mask-8)" points="7.258 142.289 92.744 142.289 92.744 78.174 7.258 78.174"></polygon>
        </g>
    </g>
</svg>