<?xml version="1.0" encoding="UTF-8"?>
<svg width="156px" height="164px" viewBox="0 0 156 164" version="1.1" xmlns="http://www.w3.org/2000/svg" xmlns:xlink="http://www.w3.org/1999/xlink">
    <!-- Generator: Sketch 64 (93537) - https://sketch.com -->
    <title>contenedor_paleta</title>
    <desc>Created with Sketch.</desc>
    <defs>
        <polygon id="path-1" points="0 159 83.327 159 83.327 0.654 0 0.654"></polygon>
    </defs>
    <g id="contenedor_paleta" stroke="none" stroke-width="1" fill="none" fill-rule="evenodd">
        <g id="Paleta-Copy" transform="translate(36.000000, 4.000000)">
            <polygon id="Fill-1" fill="#08492C" points="0 114.022 83.327 114.022 83.327 2 0 2"></polygon>
            <polygon id="Fill-2" fill="#0D744E" points="3.645 107.691 79.681 107.691 79.681 6.331 3.645 6.331"></polygon>
            <polygon id="Fill-3" fill="#69B482" points="10.557 100.711 72.77 100.711 72.77 13.309 10.557 13.309"></polygon>
            <g id="Group-19" transform="translate(0.000000, 0.346000)">
                <path d="M21.7131,159 L61.6131,159 C62.2121,159 62.6981,158.515 62.6981,157.916 L62.6981,149.066 C62.6981,148.467 62.2121,147.982 61.6131,147.982 L21.7131,147.982 C21.1141,147.982 20.6291,148.467 20.6291,149.066 L20.6291,157.916 C20.6291,158.515 21.1141,159 21.7131,159" id="Fill-4" fill="#0D633E"></path>
                <path d="M35.6764,159 L61.6134,159 C62.2124,159 62.6974,158.515 62.6974,157.916 L62.6974,149.066 C62.6974,148.467 62.2124,147.982 61.6134,147.982 L35.6764,147.982 C35.0774,147.982 34.5924,148.467 34.5924,149.066 L34.5924,157.916 C34.5924,158.515 35.0774,159 35.6764,159" id="Fill-6" fill="#69B482"></path>
                <mask id="mask-2" fill="white">
                    <use xlink:href="#path-1"></use>
                </mask>
                <g id="Clip-9"></g>
                <polygon id="Fill-8" fill="#08492C" mask="url(#mask-2)" points="24.801 159 58.526 159 58.526 147.982 24.801 147.982"></polygon>
                <path d="M0,112.0115 C0,135.0215 18.653,153.6745 41.663,153.6745 L41.663,153.6745 C64.673,153.6745 83.327,135.0215 83.327,112.0115 L0,112.0115 Z" id="Fill-10" fill="#69B482" mask="url(#mask-2)"></path>
                <path d="M0,112.0115 C0,135.0215 18.653,153.6745 41.663,153.6745 L41.663,153.6745 C64.673,153.6745 36.993,135.0215 36.993,112.0115 L0,112.0115 Z" id="Fill-11" fill="#0D744E" mask="url(#mask-2)"></path>
                <path d="M9.75,112.0115 C9.75,135.0215 24.038,153.6745 41.663,153.6745 L41.663,153.6745 C59.288,153.6745 73.577,135.0215 73.577,112.0115 L9.75,112.0115 Z" id="Fill-12" fill="#08492C" mask="url(#mask-2)"></path>
                <path d="M0.0001,116.676251 C0.0241,116.6713 -0.0159,117.0463 0.1631,117.6923 C0.3251,118.3383 0.7661,119.2453 1.6151,120.1583 C2.4571,121.0743 3.6771,122.0003 5.2021,122.8353 C6.7291,123.6693 8.5451,124.4343 10.5701,125.1373 C14.6241,126.5483 19.5571,127.5583 24.8751,128.2873 C30.1971,129.0133 35.9321,129.3653 41.6631,129.3423 C47.3951,129.3633 53.1301,129.0123 58.4521,128.2873 C63.7691,127.5543 68.7021,126.5483 72.7561,125.1363 C74.7811,124.4333 76.5961,123.6673 78.1241,122.8353 C79.6481,122.0003 80.8681,121.0743 81.7111,120.1583 C82.5601,119.2443 83.0011,118.3393 83.1631,117.6913 C83.3421,117.0443 83.3021,116.6723 83.3261,116.676251 C83.3021,116.6733 83.3621,117.0423 83.2161,117.7043 C83.0831,118.3643 82.6951,119.3223 81.8581,120.2873 C80.2101,122.2503 77.0151,124.1793 72.9461,125.6663 C68.8731,127.1713 63.9321,128.3743 58.5721,129.1463 C53.2111,129.9193 47.4381,130.3213 41.6631,130.3403 C35.8891,130.3193 30.1151,129.9193 24.7541,129.1453 C19.3951,128.3703 14.4541,127.1703 10.3811,125.6653 C6.3121,124.1773 3.1161,122.2503 1.4691,120.2863 C0.6321,119.3223 0.2441,118.3653 0.1111,117.7033 C-0.0359,117.0413 0.0241,116.6743 0.0001,116.676251" id="Fill-13" fill="#0D633E" mask="url(#mask-2)"></path>
                <path d="M0,112.0115 C0,119.2815 18.653,125.1745 41.663,125.1745 L41.663,125.1745 C64.673,125.1745 83.327,119.2815 83.327,112.0115 L0,112.0115 Z" id="Fill-14" fill="#0D744E" mask="url(#mask-2)"></path>
                <path d="M46.6599,117.9848 C46.6599,119.6878 50.9129,121.0678 56.1599,121.0678 C61.4069,121.0678 65.6599,119.6878 65.6599,117.9848 C65.6599,116.2818 61.4069,114.9018 56.1599,114.9018 C50.9129,114.9018 46.6599,116.2818 46.6599,117.9848" id="Fill-15" fill="#69B482" mask="url(#mask-2)"></path>
                <path d="M17.6599,117.9848 C17.6599,119.6878 21.9129,121.0678 27.1599,121.0678 C32.4069,121.0678 36.6599,119.6878 36.6599,117.9848 C36.6599,116.2818 32.4069,114.9018 27.1599,114.9018 C21.9129,114.9018 17.6599,116.2818 17.6599,117.9848" id="Fill-16" fill="#69B482" mask="url(#mask-2)"></path>
                <path d="M47.8631,119.4847 C49.4871,120.4287 52.5921,121.0677 56.1601,121.0677 C59.7281,121.0677 62.8331,120.4287 64.4571,119.4847 C62.8331,118.5407 59.7281,117.9017 56.1601,117.9017 C52.5921,117.9017 49.4871,118.5407 47.8631,119.4847" id="Fill-17" fill="#08492C" mask="url(#mask-2)"></path>
                <path d="M18.8631,119.4847 C20.4871,120.4287 23.5921,121.0677 27.1601,121.0677 C30.7281,121.0677 33.8331,120.4287 35.4571,119.4847 C33.8331,118.5407 30.7281,117.9017 27.1601,117.9017 C23.5921,117.9017 20.4871,118.5407 18.8631,119.4847" id="Fill-18" fill="#08492C" mask="url(#mask-2)"></path>
            </g>
        </g>
    </g>
</svg>