<?xml version="1.0" encoding="UTF-8"?>
<svg width="156px" height="164px" viewBox="0 0 156 164" version="1.1" xmlns="http://www.w3.org/2000/svg" xmlns:xlink="http://www.w3.org/1999/xlink">
    <!-- Generator: Sketch 64 (93537) - https://sketch.com -->
    <title>contenedor_plastico</title>
    <desc>Created with Sketch.</desc>
    <defs>
        <polygon id="path-1" points="0.6748 0.658 155.0068 0.658 155.0068 15.5499 0.6748 15.5499"></polygon>
        <polygon id="path-3" points="0 148.342 155.007 148.342 155.007 1 0 1"></polygon>
    </defs>
    <g id="contenedor_plastico" stroke="none" stroke-width="1" fill="none" fill-rule="evenodd">
        <g id="Contenedor-plástico-Copy" transform="translate(0.000000, 15.000000)">
            <path d="M121.1375,148.342 L123.4375,148.342 C125.2325,148.342 126.6875,146.887 126.6875,145.092 L126.6875,133.994 C126.6875,132.199 125.2325,130.744 123.4375,130.744 L121.1375,130.744 C119.3425,130.744 117.8875,132.199 117.8875,133.994 L117.8875,145.092 C117.8875,146.887 119.3425,148.342 121.1375,148.342" id="Fill-1" fill="#0D633E"></path>
            <path d="M124.3315,144.4105 L124.3315,144.4105 C125.0615,144.4105 125.6535,143.8185 125.6535,143.0885 L125.6535,135.9985 C125.6535,135.2675 125.0615,134.6755 124.3315,134.6755 C123.6015,134.6755 123.0095,135.2675 123.0095,135.9985 L123.0095,143.0885 C123.0095,143.8185 123.6015,144.4105 124.3315,144.4105" id="Fill-3" fill="#08492C"></path>
            <path d="M26.8479,139.2 C26.8479,143.998 30.0809,147.887 34.0679,147.887 C38.0559,147.887 41.2879,143.998 41.2879,139.2 C41.2879,134.402 38.0559,130.513 34.0679,130.513 C30.0809,130.513 26.8479,134.402 26.8479,139.2" id="Fill-5" fill="#0D633E"></path>
            <path d="M32.5048,139.3454 C32.5048,141.3644 33.8648,143.0004 35.5428,143.0004 C37.2208,143.0004 38.5808,141.3644 38.5808,139.3454 C38.5808,137.3264 37.2208,135.6904 35.5428,135.6904 C33.8648,135.6904 32.5048,137.3264 32.5048,139.3454" id="Fill-7" fill="#08492C"></path>
            <path d="M113.1935,131.8661 L131.3815,131.8661 C132.0895,131.8661 132.6645,131.2921 132.6645,130.5831 L132.6645,128.1851 C132.6645,127.4771 132.0895,126.9021 131.3815,126.9021 L113.1935,126.9021 C112.4845,126.9021 111.9105,127.4771 111.9105,128.1851 L111.9105,130.5831 C111.9105,131.2921 112.4845,131.8661 113.1935,131.8661" id="Fill-9" fill="#89CE9E"></path>
            <path d="M113.1935,131.8661 L126.6965,131.8661 C127.4055,131.8661 127.9805,131.2921 127.9805,130.5831 L127.9805,128.1851 C127.9805,127.4771 127.4055,126.9021 126.6965,126.9021 L113.1935,126.9021 C112.4845,126.9021 111.9105,127.4771 111.9105,128.1851 L111.9105,130.5831 C111.9105,131.2921 112.4845,131.8661 113.1935,131.8661" id="Fill-11" fill="#0D633E"></path>
            <path d="M25.2824,132.3174 L44.7424,132.3174 C45.4514,132.3174 46.0254,131.7434 46.0254,131.0344 L46.0254,128.6364 C46.0254,127.9284 45.4514,127.3534 44.7424,127.3534 L25.2824,127.3534 C24.5734,127.3534 23.9994,127.9284 23.9994,128.6364 L23.9994,131.0344 C23.9994,131.7434 24.5734,132.3174 25.2824,132.3174" id="Fill-13" fill="#69B482"></path>
            <path d="M28.3039,132.3174 L44.7429,132.3174 C45.4509,132.3174 46.0259,131.7434 46.0259,131.0344 L46.0259,128.6364 C46.0259,127.9284 45.4509,127.3534 44.7429,127.3534 L28.3039,127.3534 C27.5949,127.3534 27.0209,127.9284 27.0209,128.6364 L27.0209,131.0344 C27.0209,131.7434 27.5949,132.3174 28.3039,132.3174" id="Fill-15" fill="#0D633E"></path>
            <path d="M25.4289,132.3174 L27.1199,132.3174 C27.8279,132.3174 28.4029,131.7434 28.4029,131.0344 L28.4029,128.6364 C28.4029,127.9284 27.8279,127.3534 27.1199,127.3534 L25.4289,127.3534 C24.7199,127.3534 24.1459,127.9284 24.1459,128.6364 L24.1459,131.0344 C24.1459,131.7434 24.7199,132.3174 25.4289,132.3174" id="Fill-17" fill="#0D633E"></path>
            <path d="M134.1863,128.2568 L22.7553,128.2568 C20.6043,128.2568 18.8083,126.6178 18.6123,124.4768 L9.4763,24.6918 L144.8563,24.6918 L138.3373,124.3688 C138.1943,126.5558 136.3783,128.2568 134.1863,128.2568" id="Fill-19" fill="#69B482"></path>
            <path d="M27.4123,124.7552 L18.2763,25.7532 L9.4763,25.7532 L18.6123,124.7552 C18.8083,126.8962 20.6043,127.7532 22.7553,127.7532 L31.5543,127.7532 C29.4043,127.7532 27.6083,126.8962 27.4123,124.7552" id="Fill-21" fill="#0D633E"></path>
            <path d="M129.6277,124.7552 L136.0567,25.7532 L144.8557,25.7532 L138.4277,124.7552 C138.2317,126.8962 136.4357,127.7532 134.2847,127.7532 L125.4857,127.7532 C127.6357,127.7532 129.4317,126.8962 129.6277,124.7552" id="Fill-23" fill="#89CE9E"></path>
            <path d="M1,23.5063 L153.332,23.5063 C153.885,23.5063 154.332,23.0583 154.332,22.5063 L154.332,17.0603 C154.332,16.5083 153.885,16.0603 153.332,16.0603 L1,16.0603 C0.448,16.0603 0,16.5083 0,17.0603 L0,22.5063 C0,23.0583 0.448,23.5063 1,23.5063" id="Fill-25" fill="#89CE9E"></path>
            <path d="M1,24.8609 L153.332,24.8609 C153.885,24.8609 154.332,24.4129 154.332,23.8609 L154.332,18.4149 C154.332,17.8629 153.885,17.4149 153.332,17.4149 L1,17.4149 C0.448,17.4149 0,17.8629 0,18.4149 L0,23.8609 C0,24.4129 0.448,24.8609 1,24.8609" id="Fill-27" fill="#69B482"></path>
            <g id="Group-31" transform="translate(0.000000, 0.342000)">
                <mask id="mask-2" fill="white">
                    <use xlink:href="#path-1"></use>
                </mask>
                <g id="Clip-30"></g>
                <path d="M149.6338,12.4879 L139.9848,3.6689 C137.8658,1.7319 135.0998,0.6579 132.2298,0.6579 L22.1028,0.6579 C19.2328,0.6579 16.4658,1.7319 14.3478,3.6689 L4.6988,12.4879 C4.4488,12.7159 4.1228,12.8429 3.7848,12.8429 L2.0288,12.8429 C1.2808,12.8429 0.6748,13.4489 0.6748,14.1959 L0.6748,14.1959 C0.6748,14.9439 1.2808,15.5499 2.0288,15.5499 L153.6528,15.5499 C154.4008,15.5499 155.0068,14.9439 155.0068,14.1959 L155.0068,14.1959 C155.0068,13.4489 154.4008,12.8429 153.6528,12.8429 L150.5468,12.8429 C150.2088,12.8429 149.8838,12.7159 149.6338,12.4879" id="Fill-29" fill="#F47621" mask="url(#mask-2)"></path>
            </g>
            <path d="M144.223,24.8135 L10.478,24.8135 C10.089,24.8135 9.742,24.6215 9.422,24.7195 L10.142,29.7225 C9.643,29.7225 9.813,29.8045 10.621,29.8045 L144.634,29.8045 L144.966,24.7235 C144.731,24.6765 144.487,24.8135 144.223,24.8135" id="Fill-32" fill="#0D633E"></path>
            <g id="Group-50" transform="translate(16.000000, 25.342000)" fill="#0D633E">
                <polygon id="Fill-34" points="66.4983 0.1535 66.4983 11.4065 71.2363 4.9765"></polygon>
                <polygon id="Fill-36" points="83.4983 0.1535 83.4983 11.4065 88.2363 4.9765"></polygon>
                <polygon id="Fill-38" points="99.4983 0.1535 99.4983 11.4065 104.2363 4.9765"></polygon>
                <polygon id="Fill-40" points="116.4983 0.1535 116.4983 11.4065 121.2363 4.9765"></polygon>
                <polygon id="Fill-42" points="55.4983 0.1535 55.4983 11.4065 50.7603 4.9765"></polygon>
                <polygon id="Fill-44" points="39.4983 0.1535 39.4983 11.4065 34.7603 4.9765"></polygon>
                <polygon id="Fill-46" points="23.4983 0.1535 23.4983 11.4065 18.7603 4.9765"></polygon>
                <polygon id="Fill-48" points="5.4983 0.1535 5.4983 11.4065 0.7603 4.9765"></polygon>
            </g>
            <path d="M132.4702,3.753 L23.2112,3.753 C22.8982,3.753 22.5972,3.911 22.3652,4.087 L11.0672,12.753 L144.6142,12.753 L133.3162,4.087 C133.0852,3.911 132.7832,3.753 132.4702,3.753" id="Fill-51" fill="#F6914D"></path>
            <path d="M139.6477,12.9137 L137.9397,11.7527 L6.3927,11.7527 L4.6847,12.9137 C4.4527,13.1417 4.1487,12.7527 3.8337,12.7527 L140.4987,12.7527 C140.1837,12.7527 139.8797,13.1417 139.6477,12.9137" id="Fill-53" fill="#B75919"></path>
            <mask id="mask-4" fill="white">
                <use xlink:href="#path-3"></use>
            </mask>
            <g id="Clip-56"></g>
            <polygon id="Stroke-55" stroke="#0D744E" mask="url(#mask-4)" points="34.76 112.732 120.246 112.732 120.246 48.617 34.76 48.617"></polygon>
        </g>
    </g>
</svg>