<?xml version="1.0" encoding="UTF-8"?>
<svg width="156px" height="164px" viewBox="0 0 156 164" version="1.1" xmlns="http://www.w3.org/2000/svg" xmlns:xlink="http://www.w3.org/1999/xlink">
    <!-- Generator: Sketch 64 (93537) - https://sketch.com -->
    <title>contenedor_alur</title>
    <desc>Created with Sketch.</desc>
    <defs>
        <polygon id="path-1" points="0 0.927 42 0.927 42 148.927 0 148.927"></polygon>
    </defs>
    <g id="contenedor_alur" stroke="none" stroke-width="1" fill="none" fill-rule="evenodd">
        <g id="MUPI-Copy" transform="translate(11.000000, 14.000000)">
            <g id="Group-3" fill="#DDB287">
                <path d="M45.403045,0 C59.9349335,0 74.4672518,0.666666667 89,2 L89,150 L3.3221364,150 C1.48707602,150 0,148.253058 0,146.09957 L0,5.9004304 C0,3.74593569 1.48707602,2 3.3221364,2 C16.844187,0.666666667 30.8711566,0 45.403045,0 Z" id="Fill-1"></path>
            </g>
            <g id="Group-24" transform="translate(89.000000, 1.073000)">
                <mask id="mask-2" fill="white">
                    <use xlink:href="#path-1"></use>
                </mask>
                <g id="Clip-23"></g>
                <path d="M39.2698143,3.35722173 L0,0.927 L0,148.927 L38.9964987,148.927 C40.6557029,148.927 42,148.015289 42,146.892255 L42,5.38391595 C42,4.33132302 40.8161273,3.45282051 39.2698143,3.35722173" id="Fill-22" fill="#C69C6D" mask="url(#mask-2)"></path>
            </g>
            <path d="M11,150 L80,150 C77.3936781,131.440075 76.0905171,114.028766 76.0905171,97.7660727 C76.0905171,81.8886305 77.3326675,66.018181 79.8169683,50.1547241 C79.9024225,49.6090879 79.5293669,49.0974912 78.98373,49.0120416 C78.9325464,49.004026 78.8808173,49 78.8290098,49 L12.1581424,49 C11.6058778,49.0000364 11.1581788,49.4477353 11.1581788,50 C11.1581788,50.0480902 11.1616479,50.0961177 11.1685591,50.1437086 C13.3150658,64.9246368 14.3883191,80.7987581 14.3883191,97.7660727 C14.3883191,115.171854 13.2588794,132.583163 11,150 Z" id="Fill-29" fill="#0D744E"></path>
            <path d="M20.7828102,49.6464538 C20.6848147,49.7444507 20.6432235,49.8854007 20.6438602,50.0897451 C22.5119832,64.8876767 23.4463644,80.7797625 23.4463644,97.7660727 C23.4463644,115.005298 22.483992,132.249941 20.5592258,149.5 L79.4355326,149.499999 C77.2119773,131.128436 76.1004497,113.883784 76.1004497,97.7660727 C76.1004497,81.8595475 77.1829881,65.9600289 79.348103,50.0675197 C79.3667503,49.9306915 79.3281753,49.7992829 79.2507381,49.6974158 C79.1732967,49.5955433 79.0569899,49.5232153 78.9201769,49.5045766 C78.8754902,49.4984887 78.8298214,49.5 20.7828102,49.6464538 Z" id="Fill-29" stroke="#0D744E" fill="#69B482"></path>
            <path d="M15,150 L79,150 C76.582542,131.623837 75.373813,114.384917 75.373813,98.2832403 C75.373813,85.4720901 59.6979928,88.8385561 44.5757576,89.4229496 C31.188451,89.9402973 18.1427887,86.1447025 18.1427887,98.2832403 C18.1427887,115.516687 17.0951925,132.755607 15,150 Z" id="Fill-29" fill="#69B482"></path>
        </g>
        <rect id="Rectangle" stroke="#C69C6D" stroke-width="0.5" x="16" y="33" width="79" height="131"></rect>
        <path d="M53.8169633,27.5 C67.0878607,27.5 80.8155396,28 95,29 L16,29 C27.9404114,28 40.5460658,27.5 53.8169633,27.5 Z" id="Rectangle" fill="#0D744E"></path>
        <line x1="35" y1="104" x2="77" y2="104" id="Line-6" stroke="#C69C6D" stroke-width="0.5" stroke-linecap="square"></line>
        <rect id="Rectangle-Copy" fill="#08492C" x="68" y="78" width="13" height="23"></rect>
        <rect id="Rectangle-Copy-2" fill="#08492C" transform="translate(47.000000, 124.000000) rotate(-90.000000) translate(-47.000000, -124.000000) " x="37" y="109" width="20" height="30"></rect>
        <rect id="Rectangle-Copy" stroke="#0D633E" fill="#69B482" x="70.5" y="81.5" width="8" height="17"></rect>
        <rect id="Rectangle-Copy-3" stroke="#0D633E" fill="#69B482" transform="translate(47.000000, 124.000000) rotate(-90.000000) translate(-47.000000, -124.000000) " x="40.5" y="112.5" width="13" height="23"></rect>
    </g>
</svg>