<svg width="151" height="73" viewBox="0 0 151 73" fill="none" xmlns="http://www.w3.org/2000/svg">
<path fill-rule="evenodd" clip-rule="evenodd" d="M89.8315 71.1556C89.267 70.5599 88.9852 69.7718 88.9852 68.7913V64.4965H90.8576V68.8124C90.8576 69.3062 90.9896 69.6802 91.2543 69.934C91.5186 70.1879 91.8835 70.3146 92.3491 70.3146C92.8143 70.3146 93.1775 70.1879 93.4384 69.934C93.6995 69.6802 93.8298 69.3062 93.8298 68.8124V64.4965H95.7024V68.7913C95.7024 69.7787 95.4221 70.5686 94.8612 71.1609C94.3007 71.7532 93.4631 72.0494 92.3491 72.0494C91.2346 72.0494 90.3954 71.7516 89.8315 71.1556Z" fill="#0063F6"/>
<path fill-rule="evenodd" clip-rule="evenodd" d="M101.393 67.9981C101.767 67.9981 102.056 67.9259 102.261 67.7812C102.465 67.6367 102.568 67.3881 102.568 67.0354C102.568 66.6687 102.467 66.4166 102.266 66.2792C102.065 66.1415 101.774 66.0728 101.393 66.0728H100.272V67.9981H101.393ZM98.3995 64.4966H101.721C102.588 64.4966 103.267 64.7153 103.758 65.1525C104.248 65.5898 104.493 66.2173 104.493 67.0354C104.493 67.5854 104.373 68.0544 104.133 68.4424C103.893 68.8302 103.555 69.1192 103.117 69.3098L104.429 71.8908H102.504L101.33 69.5743H100.272V71.8908H98.3995V64.4966Z" fill="#0063F6"/>
<path fill-rule="evenodd" clip-rule="evenodd" d="M107.825 71.1556C107.26 70.5599 106.979 69.7718 106.979 68.7913V64.4965H108.851V68.8124C108.851 69.3062 108.983 69.6802 109.248 69.934C109.512 70.1879 109.877 70.3146 110.342 70.3146C110.808 70.3146 111.171 70.1879 111.432 69.934C111.693 69.6802 111.823 69.3062 111.823 68.8124V64.4965H113.696V68.7913C113.696 69.7787 113.415 70.5686 112.855 71.1609C112.294 71.7532 111.457 72.0494 110.342 72.0494C109.228 72.0494 108.389 71.7516 107.825 71.1556Z" fill="#0063F6"/>
<path fill-rule="evenodd" clip-rule="evenodd" d="M118.091 71.584C117.481 71.2739 117.01 70.8277 116.679 70.2458C116.348 69.6642 116.182 68.9817 116.182 68.1991C116.182 67.4163 116.348 66.7338 116.679 66.152C117.01 65.5704 117.481 65.1225 118.091 64.8087C118.701 64.4949 119.408 64.338 120.212 64.338C120.748 64.338 121.222 64.3893 121.635 64.4913C122.048 64.5936 122.43 64.7576 122.783 64.9834V66.7603C122.472 66.5136 122.121 66.3354 121.73 66.226C121.339 66.1167 120.889 66.0622 120.381 66.0622C119.944 66.0622 119.555 66.1488 119.213 66.3215C118.87 66.4946 118.601 66.7429 118.403 67.0672C118.206 67.3915 118.107 67.769 118.107 68.1991C118.107 68.869 118.303 69.3981 118.694 69.7859C119.085 70.1738 119.616 70.3676 120.286 70.3676C120.66 70.3676 120.974 70.3044 121.228 70.1773V68.9925H120.096V67.6806H123.005V71.3619C122.25 71.8204 121.319 72.0494 120.212 72.0494C119.408 72.0494 118.701 71.8944 118.091 71.584Z" fill="#0063F6"/>
<path fill-rule="evenodd" clip-rule="evenodd" d="M126.337 71.1556C125.772 70.5599 125.491 69.7718 125.491 68.7913V64.4965H127.363V68.8124C127.363 69.3062 127.495 69.6802 127.76 69.934C128.024 70.1879 128.389 70.3146 128.854 70.3146C129.32 70.3146 129.683 70.1879 129.944 69.934C130.205 69.6802 130.335 69.3062 130.335 68.8124V64.4965H132.208V68.7913C132.208 69.7787 131.927 70.5686 131.367 71.1609C130.806 71.7532 129.969 72.0494 128.854 72.0494C127.74 72.0494 126.901 71.7516 126.337 71.1556Z" fill="#0063F6"/>
<path fill-rule="evenodd" clip-rule="evenodd" d="M138.787 68.9289L137.888 66.4429L136.979 68.9289H138.787ZM136.968 64.4966H138.809L141.76 71.8908H139.845L139.253 70.3677H136.524L135.931 71.8908H134.006L136.968 64.4966Z" fill="#0063F6"/>
<path fill-rule="evenodd" clip-rule="evenodd" d="M145.336 69.0771L142.606 64.4965H144.606L146.277 67.3633L148.022 64.4965H150.011L147.208 69.0771V71.8909H145.336V69.0771Z" fill="#0063F6"/>
<path fill-rule="evenodd" clip-rule="evenodd" d="M17.0057 41.8305C20.2147 41.8305 22.6843 40.83 24.4145 38.8293C26.1436 36.8288 27.0091 34.0992 27.0091 30.6393C27.0091 27.5552 26.1337 24.992 24.3833 22.9492C22.6324 20.9074 20.2352 19.8855 17.1932 19.8855H13.472C13.1791 19.8855 12.9416 20.1231 12.9416 20.4158V41.3C12.9416 41.593 13.1791 41.8305 13.472 41.8305H17.0057ZM0 10.8758C0 9.84363 0.836554 9.00708 1.86872 9.00708H16.1929C21.0276 9.00708 25.2476 9.88235 28.8533 11.6329C32.458 13.3834 35.2508 15.8951 37.2312 19.1665C39.2102 22.4394 40.2008 26.2628 40.2008 30.6393C40.2008 37.8914 38.0534 43.3836 33.7611 47.1134C29.4679 50.8441 23.5703 52.7089 16.0678 52.7089H1.86872C0.836554 52.7089 0 51.8724 0 50.8403V10.8758Z" fill="#0063F6"/>
<path fill-rule="evenodd" clip-rule="evenodd" d="M66.1533 45.6492C67.5229 45.0101 68.6072 44.1298 69.4077 43.0078C69.4719 42.9176 69.505 42.8084 69.505 42.6977V39.7348C69.505 39.5542 69.4136 39.3833 69.2615 39.286C66.9027 37.7763 64.3204 37.0204 61.5179 37.0204C59.5211 37.0204 57.9884 37.4371 56.9181 38.2684C55.8485 39.1007 55.3136 40.325 55.3136 41.9408C55.3136 43.4629 55.8363 44.6274 56.8825 45.435C57.928 46.2442 59.4252 46.6475 61.3752 46.6475C63.1336 46.6475 64.7271 46.3155 66.1533 45.6492ZM48.2183 50.6053C45.5796 48.4905 44.2604 45.6024 44.2604 41.9408C44.2604 38.1379 45.5196 35.1786 48.04 33.0624C50.5596 30.9476 54.1251 29.8891 58.737 29.8891C60.7807 29.8891 62.7306 30.1029 64.5846 30.5309C66.1196 30.8852 67.5088 31.3542 68.7503 31.9366C69.1026 32.1014 69.505 31.8468 69.505 31.458C69.505 29.3187 68.7436 27.7496 67.2227 26.7513C65.7011 25.7532 63.372 25.2537 60.234 25.2537C56.9883 25.2537 53.9425 25.7258 51.0975 26.6702C49.9083 27.0648 48.6817 26.1857 48.6817 24.9328V21.0146C48.6817 20.2427 49.1617 19.5458 49.8898 19.29C51.2038 18.8286 52.7739 18.4277 54.6006 18.0869C57.0254 17.6357 59.4499 17.4093 61.8746 17.4093C68.054 17.4093 72.6661 18.6819 75.7093 21.2246C78.7511 23.7685 80.2734 27.3219 80.2734 31.8859V50.8743C80.2734 51.8875 79.4518 52.7089 78.4387 52.7089H71.9814C70.9683 52.7089 70.1469 51.8875 70.1469 50.8743V50.7515C70.1469 50.3055 69.6288 50.0576 69.2838 50.3406C66.4886 52.6331 62.8774 53.7786 58.4516 53.7786C54.2674 53.7786 50.8569 52.7203 48.2183 50.6053Z" fill="#0063F6"/>
<path fill-rule="evenodd" clip-rule="evenodd" d="M104.968 45.435C103.018 45.435 101.663 44.996 100.903 44.1158C100.142 43.2367 99.7621 41.7981 99.7621 39.8015V26.7825C99.7621 26.4896 99.9995 26.2521 100.293 26.2521H105.966C106.99 26.2521 107.82 25.422 107.82 24.3979V19.2217C107.82 18.1977 106.99 17.3674 105.966 17.3674H100.293C99.9995 17.3674 99.7621 17.13 99.7621 16.8371V10.7733C99.7621 9.74901 98.9319 8.91895 97.9078 8.91895H91.0595C90.0454 8.91895 89.2194 9.73381 89.2056 10.7479L89.1152 17.3674H85.8563C84.8325 17.3674 84.0022 18.1977 84.0022 19.2217V24.3979C84.0022 25.422 84.8325 26.2521 85.8563 26.2521H88.4637C88.7566 26.2521 88.9939 26.4896 88.9939 26.7825V41.2275C88.9939 45.1743 90.0279 48.252 92.0963 50.4627C94.1641 52.6734 97.1953 53.7787 101.188 53.7787C103.907 53.7787 106.245 53.4613 108.202 52.8268C108.958 52.5817 109.461 51.865 109.461 51.0704V46.975C109.461 45.7816 108.347 44.8865 107.188 45.1697C106.465 45.3466 105.725 45.435 104.968 45.435Z" fill="#0063F6"/>
<path fill-rule="evenodd" clip-rule="evenodd" d="M135.695 45.6492C137.065 45.0101 138.149 44.1298 138.949 43.0078C139.014 42.9176 139.047 42.8084 139.047 42.6977V39.7348C139.047 39.5542 138.955 39.3833 138.803 39.286C136.444 37.7763 133.862 37.0204 131.06 37.0204C129.063 37.0204 127.53 37.4371 126.46 38.2684C125.39 39.1007 124.855 40.325 124.855 41.9408C124.855 43.4629 125.378 44.6274 126.424 45.435C127.47 46.2442 128.967 46.6475 130.917 46.6475C132.675 46.6475 134.268 46.3155 135.695 45.6492ZM117.76 50.6053C115.121 48.4905 113.802 45.6024 113.802 41.9408C113.802 38.1379 115.061 35.1786 117.582 33.0624C120.101 30.9476 123.667 29.8891 128.279 29.8891C130.322 29.8891 132.272 30.1029 134.126 30.5309C135.661 30.8852 137.05 31.3542 138.292 31.9366C138.644 32.1014 139.047 31.8468 139.047 31.458C139.047 29.3187 138.285 27.7496 136.765 26.7513C135.243 25.7532 132.914 25.2537 129.776 25.2537C126.53 25.2537 123.484 25.7258 120.639 26.6702C119.45 27.0648 118.224 26.1857 118.224 24.9328V21.0146C118.224 20.2427 118.703 19.5458 119.431 19.29C120.745 18.8286 122.316 18.4277 124.142 18.0869C126.567 17.6357 128.992 17.4093 131.416 17.4093C137.596 17.4093 142.208 18.6819 145.251 21.2246C148.293 23.7685 149.815 27.3219 149.815 31.8859V50.8743C149.815 51.8875 148.994 52.7089 147.98 52.7089H141.523C140.51 52.7089 139.689 51.8875 139.689 50.8743V50.7515C139.689 50.3055 139.17 50.0576 138.826 50.3406C136.03 52.6331 132.419 53.7786 127.993 53.7786C123.809 53.7786 120.398 52.7203 117.76 50.6053Z" fill="#0063F6"/>
<path fill-rule="evenodd" clip-rule="evenodd" d="M80.116 64.2695H44.8989C44.1507 64.2695 43.5442 63.663 43.5442 62.9149V58.9263C43.5442 58.1779 44.1507 57.5714 44.8989 57.5714H80.116C80.8642 57.5714 81.4707 58.1779 81.4707 58.9263V62.9149C81.4707 63.663 80.8642 64.2695 80.116 64.2695Z" fill="#0063F6"/>
</svg>
