<svg xmlns="http://www.w3.org/2000/svg" xmlns:xlink="http://www.w3.org/1999/xlink" width="156" height="164" viewBox="0 0 156 164">
  <defs>
    <path id="deposito-a" d="M2.1,0 L34.8,0 C35.959798,-2.13051432e-16 36.9,0.940202025 36.9,2.1 L36.9,7.2 C36.9,8.35979797 35.959798,9.3 34.8,9.3 L2.1,9.3 C0.940202025,9.3 -1.563358e-15,8.35979797 0,7.2 L0,2.1 C-1.42034288e-16,0.940202025 0.940202025,2.13051432e-16 2.1,0 Z"/>
    <path id="deposito-c" d="M2.1,0 L34.8,0 C35.959798,-2.13051432e-16 36.9,0.940202025 36.9,2.1 L36.9,7.2 C36.9,8.35979797 35.959798,9.3 34.8,9.3 L2.1,9.3 C0.940202025,9.3 -1.563358e-15,8.35979797 0,7.2 L0,2.1 C-1.42034288e-16,0.940202025 0.940202025,2.13051432e-16 2.1,0 Z"/>
    <path id="deposito-e" d="M2.1,0 L34.8,0 C35.959798,-2.13051432e-16 36.9,0.940202025 36.9,2.1 L36.9,7.2 C36.9,8.35979797 35.959798,9.3 34.8,9.3 L2.1,9.3 C0.940202025,9.3 -1.563358e-15,8.35979797 0,7.2 L0,2.1 C-1.42034288e-16,0.940202025 0.940202025,2.13051432e-16 2.1,0 Z"/>
    <path id="deposito-g" d="M2.1,0 L34.8,0 C35.959798,-2.13051432e-16 36.9,0.940202025 36.9,2.1 L36.9,7.2 C36.9,8.35979797 35.959798,9.3 34.8,9.3 L2.1,9.3 C0.940202025,9.3 -1.563358e-15,8.35979797 0,7.2 L0,2.1 C-1.42034288e-16,0.940202025 0.940202025,2.13051432e-16 2.1,0 Z"/>
    <path id="deposito-i" d="M2.1,0 L34.8,0 C35.959798,-2.13051432e-16 36.9,0.940202025 36.9,2.1 L36.9,7.2 C36.9,8.35979797 35.959798,9.3 34.8,9.3 L2.1,9.3 C0.940202025,9.3 -1.563358e-15,8.35979797 0,7.2 L0,2.1 C-1.42034288e-16,0.940202025 0.940202025,2.13051432e-16 2.1,0 Z"/>
    <path id="deposito-k" d="M2.1,0 L34.8,0 C35.959798,-2.13051432e-16 36.9,0.940202025 36.9,2.1 L36.9,7.2 C36.9,8.35979797 35.959798,9.3 34.8,9.3 L2.1,9.3 C0.940202025,9.3 -1.563358e-15,8.35979797 0,7.2 L0,2.1 C-1.42034288e-16,0.940202025 0.940202025,2.13051432e-16 2.1,0 Z"/>
    <path id="deposito-m" d="M2.1,0 L34.8,0 C35.959798,-2.13051432e-16 36.9,0.940202025 36.9,2.1 L36.9,7.2 C36.9,8.35979797 35.959798,9.3 34.8,9.3 L2.1,9.3 C0.940202025,9.3 -1.563358e-15,8.35979797 0,7.2 L0,2.1 C-1.42034288e-16,0.940202025 0.940202025,2.13051432e-16 2.1,0 Z"/>
    <path id="deposito-o" d="M2.1,0 L34.8,0 C35.959798,-2.13051432e-16 36.9,0.940202025 36.9,2.1 L36.9,7.2 C36.9,8.35979797 35.959798,9.3 34.8,9.3 L2.1,9.3 C0.940202025,9.3 -1.563358e-15,8.35979797 0,7.2 L0,2.1 C-1.42034288e-16,0.940202025 0.940202025,2.13051432e-16 2.1,0 Z"/>
    <path id="deposito-q" d="M2.1,0 L34.8,0 C35.959798,-2.13051432e-16 36.9,0.940202025 36.9,2.1 L36.9,7.2 C36.9,8.35979797 35.959798,9.3 34.8,9.3 L2.1,9.3 C0.940202025,9.3 -1.563358e-15,8.35979797 0,7.2 L0,2.1 C-1.42034288e-16,0.940202025 0.940202025,2.13051432e-16 2.1,0 Z"/>
  </defs>
  <g fill="none" fill-rule="evenodd">
    <g transform="translate(11 23)">
      <path fill="#08492C" d="M89.6085254,0 C120.199855,0 145,26.7815763 145,59.8184537 L145,105.9294 C134.964408,105.9294 26.4628058,105.9294 14,105.9294 L14,59.8184537 C14,26.7815763 38.800145,0 69.3927935,0 L89.6085254,0 Z"/>
      <path fill="#0D633E" d="M87.6085254,0 C118.199855,0 143,26.7815763 143,59.8184537 L143,105.9294 C132.964408,105.9294 24.4628058,106 12,106 L12,59.8184537 C12,26.7815763 36.800145,0 67.3927935,0 L87.6085254,0 Z"/>
      <path fill="#08492C" d="M85.6085254,0 C116.199855,0 141,26.7815763 141,59.8184537 L141,106 C130.964408,106 22.4628058,106 10,106 L10,59.8184537 C10,26.7815763 34.800145,0 65.3927935,0 L85.6085254,0 Z"/>
      <path fill="#0D633E" d="M83.6085254,0 C114.199855,0 139,26.7815763 139,59.8184537 L139,105.9294 C128.964408,105.9294 20.4628058,105.9294 8,105.9294 L8,59.8184537 C8,26.7815763 32.800145,0 63.3927935,0 L83.6085254,0 Z"/>
      <path fill="#08492C" d="M81.6085254,0 C112.199855,0 137,26.7815763 137,59.8184537 L137,105.9294 C126.964408,105.9294 18.4628058,105.9294 6,105.9294 L6,59.8184537 C6,26.7815763 30.800145,0 61.3927935,0 L81.6085254,0 Z"/>
      <path fill="#0D633E" d="M79.6085254,0 C110.199855,0 135,26.7815763 135,59.8184537 L135,106 C124.964408,106 16.4628058,106 4,106 L4,59.8184537 C4,26.7815763 28.800145,0 59.3927935,0 L79.6085254,0 Z"/>
      <path fill="#08492C" d="M77.6085254,0 C108.199855,0 133,26.7815763 133,59.8184537 L133,105.9997 C122.964408,105.9997 14.4628058,105.9997 2,105.9997 L2,59.8184537 C2,26.7815763 26.800145,0 57.3927935,0 L77.6085254,0 Z"/>
      <path fill="#0D633E" d="M75.6085254,0 C106.199855,0 131,26.7815763 131,59.8184537 L131,106 C120.964408,106 12.4628058,106 0,106 L0,59.8184537 C0,26.7815763 24.800145,0 55.3927935,0 L75.6085254,0 Z"/>
    </g>
    <path fill="#89CE9E" d="M81.3801685,21.9997 C114.306714,21.9997 141,48.7812763 141,81.8181537 L141,128.9997 C131.481733,128.9997 11.7570268,128.9997 2.84217094e-14,128.9997 L2.84217094e-14,81.8181537 C2.84217094e-14,48.7812763 26.6932858,21.9997 59.621251,21.9997 L81.3801685,21.9997 Z"/>
    <path fill="#69B482" d="M81.3285353,21.9997 C114.284233,21.9997 141,48.7812763 141,81.8181537 L141,129 C141,129 4,129 4,129 L4,81.8181537 C4,48.7812763 30.7157672,21.9997 63.6714647,21.9997 L81.3285353,21.9997 Z"/>
    <g transform="translate(38 68)">
      <rect width="27" height="60" fill="#0D633E"/>
      <rect width="48" height="60" x="21" fill="#08492C"/>
    </g>
    <g transform="translate(52)">
      <rect width="43" height="44" x="2" fill="#08492C" rx="7"/>
      <rect width="43" height="44" fill="#0D633E" rx="7"/>
      <path fill="#89CE9E" d="M18.7614383 30.496941L13.4972826 30.496941C12.564775 30.496941 12.0834808 29.8511193 11.9330763 29.5743385 11.7826719 29.2975577 11.4517821 28.5594757 11.9330763 27.7291334L13.4972826 24.9305724C13.5875253 24.7460519 13.8281724 24.6845451 14.0086577 24.7768053L14.8208418 25.2381066C15.1216507 25.3918737 15.4525404 25.1458464 15.3622978 24.8075588L14.1891431 20.40982C14.1289813 20.1945461 13.9184151 20.1022859 13.7379297 20.1330393L9.43636249 21.3324226C9.1054727 21.4246828 9.07539181 21.8552307 9.34611982 22.0397512L10.1583038 22.5010524C10.3387892 22.5933127 10.398951 22.83934 10.3087083 23.0238605L8.74450202 25.8224215C7.75183266 27.6061198 7.75183266 29.6973522 8.74450202 31.4810504 9.73717139 33.2647486 11.5420248 34.3103648 13.5273635 34.3103648L18.851681 34.3103648C19.9045121 34.3103648 20.746777 33.4185157 20.7166962 32.3113927 20.6264535 31.2657765 19.7841886 30.496941 18.7614383 30.496941M35.2085688 25.5134609L32.5526268 20.9685333C32.0151147 20.0409971 30.8136171 19.7318184 29.8966848 20.2574222 28.9481341 20.7830261 28.6319505 21.9579053 29.1694626 22.8545237L31.8570229 27.3994512C32.3629167 28.2342338 32.0151147 28.9762628 31.8570229 29.2545237 31.6989312 29.5327845 31.1930374 30.1820599 30.2128684 30.1820599L26.639994 30.1820599C26.4186655 30.1820599 26.2605737 29.9965527 26.2605737 29.8110454L26.2605737 28.8525913C26.2605737 28.5124947 25.849535 28.3269874 25.5965882 28.5743304L22.2450423 31.882543C22.0869505 32.0371324 22.0869505 32.2844754 22.2450423 32.4081469L25.5649698 35.6545237C25.8179167 35.9018667 26.2289553 35.7163594 26.2289553 35.3762628L26.2289553 34.4178087C26.2289553 34.2013836 26.4186655 34.0467942 26.6083756 34.0467942L30.1496316 34.0467942C32.2364432 34.0467942 34.1335447 32.9955865 35.1769505 31.2023498 36.2519746 29.4400309 36.2519746 27.3066976 35.2085688 25.5134609M23.7617069 12.9038446L25.2990982 15.8153146C25.3845089 16.0011531 25.3275684 16.2179647 25.1852174 16.3418571L24.4165217 16.8374264C24.1318196 17.0232649 24.1887601 17.4568881 24.5019324 17.5498074L28.6016425 18.7267846C28.800934 18.7887308 28.9717552 18.6648384 29.0286957 18.4480268L30.1105636 13.9569295C30.1959742 13.6162256 29.8543317 13.3684409 29.5980998 13.5233063L28.8294042 14.0188757C28.6585829 14.1117949 28.4592915 14.0498488 28.3454106 13.8949834L26.8080193 10.9835134C25.8685024 9.21804754 24.1602899 8.13398957 22.281256 8.13398957 20.4022222 8.13398957 18.6940097 9.18707445 17.7544928 10.9835134L15.3060548 15.6294761C14.8220612 16.5586687 15.1067633 17.7046728 15.9608696 18.2312152 16.2455717 18.4170537 16.5302738 18.4789999 16.8434461 18.4789999 17.4413205 18.4789999 18.0391948 18.138296 18.3808374 17.5188343L20.8292754 12.8728716C21.2847987 12.0365983 22.0250242 11.943679 22.3097262 11.943679 22.5944283 11.943679 23.3346538 12.0675713 23.7617069 12.9038446"/>
    </g>
    <g transform="translate(114 116)">
      <rect width="28.2" height="4.2" y="27.9" fill="#69B482"/>
      <rect width="8.7" height="4.2" x="28.2" y="27.9" fill="#0D633E"/>
      <polygon fill="#0D633E" points="19.2 30 22.8 30 23.4 32.1 18.6 32.1"/>
      <g transform="translate(0 9.3)">
        <rect width="35.4" height="9.3" x="1.5" fill="#08492C" rx="2.1"/>
        <path fill="#0D633E" d="M2.1,0 L26.1,0 C27.259798,1.40307442e-15 28.2,0.940202025 28.2,2.1 L28.2,7.2 C28.2,8.35979797 27.259798,9.3 26.1,9.3 L2.1,9.3 C0.940202025,9.3 2.12998844e-16,8.35979797 0,7.2 L0,2.1 C-1.42034288e-16,0.940202025 0.940202025,-2.31037778e-16 2.1,0 Z"/>
        <mask id="deposito-b" fill="#fff">
          <use xlink:href="#deposito-a"/>
        </mask>
        <rect width="35.1" height="1" x=".9" fill="#08492C" mask="url(#deposito-b)" opacity=".504"/>
      </g>
      <g transform="translate(0 18.6)">
        <rect width="35.4" height="9.3" x="1.5" fill="#08492C" rx="2.1"/>
        <path fill="#0D633E" d="M2.1,0 L26.1,0 C27.259798,1.40307442e-15 28.2,0.940202025 28.2,2.1 L28.2,7.2 C28.2,8.35979797 27.259798,9.3 26.1,9.3 L2.1,9.3 C0.940202025,9.3 2.12998844e-16,8.35979797 0,7.2 L0,2.1 C-1.42034288e-16,0.940202025 0.940202025,-2.31037778e-16 2.1,0 Z"/>
        <mask id="deposito-d" fill="#fff">
          <use xlink:href="#deposito-c"/>
        </mask>
        <rect width="35.1" height="1" x=".9" fill="#08492C" mask="url(#deposito-d)" opacity=".504"/>
      </g>
      <rect width="35.4" height="9.3" x="1.5" fill="#08492C" rx="2.1"/>
      <path fill="#0D633E" d="M2.1,0 L26.1,0 C27.259798,1.40307442e-15 28.2,0.940202025 28.2,2.1 L28.2,7.2 C28.2,8.35979797 27.259798,9.3 26.1,9.3 L2.1,9.3 C0.940202025,9.3 2.12998844e-16,8.35979797 0,7.2 L0,2.1 C-1.42034288e-16,0.940202025 0.940202025,-2.31037778e-16 2.1,0 Z"/>
      <mask id="deposito-f" fill="#fff">
        <use xlink:href="#deposito-e"/>
      </mask>
      <rect width="35.1" height="1" x=".9" fill="#08492C" mask="url(#deposito-f)" opacity=".504"/>
      <polygon fill="#0D633E" points="5.4 30 9 30 9.6 32.1 4.8 32.1"/>
    </g>
    <g transform="translate(4 117)">
      <rect width="28.2" height="4.2" y="27.9" fill="#69B482"/>
      <rect width="8.7" height="4.2" x="28.2" y="27.9" fill="#0D633E"/>
      <polygon fill="#0D633E" points="19.2 30 22.8 30 23.4 32.1 18.6 32.1"/>
      <g transform="translate(0 9.3)">
        <rect width="35.4" height="9.3" x="1.5" fill="#08492C" rx="2.1"/>
        <path fill="#0D633E" d="M2.1,0 L26.1,0 C27.259798,1.40307442e-15 28.2,0.940202025 28.2,2.1 L28.2,7.2 C28.2,8.35979797 27.259798,9.3 26.1,9.3 L2.1,9.3 C0.940202025,9.3 2.12998844e-16,8.35979797 0,7.2 L0,2.1 C-1.42034288e-16,0.940202025 0.940202025,-2.31037778e-16 2.1,0 Z"/>
        <mask id="deposito-h" fill="#fff">
          <use xlink:href="#deposito-g"/>
        </mask>
        <rect width="35.1" height="1" x=".9" fill="#08492C" mask="url(#deposito-h)" opacity=".504"/>
      </g>
      <g transform="translate(0 18.6)">
        <rect width="35.4" height="9.3" x="1.5" fill="#08492C" rx="2.1"/>
        <path fill="#0D633E" d="M2.1,0 L26.1,0 C27.259798,1.40307442e-15 28.2,0.940202025 28.2,2.1 L28.2,7.2 C28.2,8.35979797 27.259798,9.3 26.1,9.3 L2.1,9.3 C0.940202025,9.3 2.12998844e-16,8.35979797 0,7.2 L0,2.1 C-1.42034288e-16,0.940202025 0.940202025,-2.31037778e-16 2.1,0 Z"/>
        <mask id="deposito-j" fill="#fff">
          <use xlink:href="#deposito-i"/>
        </mask>
        <rect width="35.1" height="1" x=".9" fill="#08492C" mask="url(#deposito-j)" opacity=".504"/>
      </g>
      <rect width="35.4" height="9.3" x="1.5" fill="#08492C" rx="2.1"/>
      <path fill="#0D633E" d="M2.1,0 L26.1,0 C27.259798,1.40307442e-15 28.2,0.940202025 28.2,2.1 L28.2,7.2 C28.2,8.35979797 27.259798,9.3 26.1,9.3 L2.1,9.3 C0.940202025,9.3 2.12998844e-16,8.35979797 0,7.2 L0,2.1 C-1.42034288e-16,0.940202025 0.940202025,-2.31037778e-16 2.1,0 Z"/>
      <mask id="deposito-l" fill="#fff">
        <use xlink:href="#deposito-k"/>
      </mask>
      <rect width="35.1" height="1" x=".9" fill="#08492C" mask="url(#deposito-l)" opacity=".504"/>
      <polygon fill="#0D633E" points="5.4 30 9 30 9.6 32.1 4.8 32.1"/>
    </g>
    <g transform="translate(15 132)">
      <rect width="28.2" height="4.2" y="27.9" fill="#69B482"/>
      <rect width="8.7" height="4.2" x="28.2" y="27.9" fill="#0D633E"/>
      <polygon fill="#0D633E" points="19.2 30 22.8 30 23.4 32.1 18.6 32.1"/>
      <g transform="translate(0 9.3)">
        <rect width="35.4" height="9.3" x="1.5" fill="#08492C" rx="2.1"/>
        <path fill="#0D633E" d="M2.1,0 L26.1,0 C27.259798,1.40307442e-15 28.2,0.940202025 28.2,2.1 L28.2,7.2 C28.2,8.35979797 27.259798,9.3 26.1,9.3 L2.1,9.3 C0.940202025,9.3 2.12998844e-16,8.35979797 0,7.2 L0,2.1 C-1.42034288e-16,0.940202025 0.940202025,-2.31037778e-16 2.1,0 Z"/>
        <mask id="deposito-n" fill="#fff">
          <use xlink:href="#deposito-m"/>
        </mask>
        <rect width="35.1" height="1" x=".9" fill="#08492C" mask="url(#deposito-n)" opacity=".504"/>
      </g>
      <g transform="translate(0 18.6)">
        <rect width="35.4" height="9.3" x="1.5" fill="#08492C" rx="2.1"/>
        <path fill="#0D633E" d="M2.1,0 L26.1,0 C27.259798,1.40307442e-15 28.2,0.940202025 28.2,2.1 L28.2,7.2 C28.2,8.35979797 27.259798,9.3 26.1,9.3 L2.1,9.3 C0.940202025,9.3 2.12998844e-16,8.35979797 0,7.2 L0,2.1 C-1.42034288e-16,0.940202025 0.940202025,-2.31037778e-16 2.1,0 Z"/>
        <mask id="deposito-p" fill="#fff">
          <use xlink:href="#deposito-o"/>
        </mask>
        <rect width="35.1" height="1" x=".9" fill="#08492C" mask="url(#deposito-p)" opacity=".504"/>
      </g>
      <rect width="35.4" height="9.3" x="1.5" fill="#08492C" rx="2.1"/>
      <path fill="#0D633E" d="M2.1,0 L26.1,0 C27.259798,1.40307442e-15 28.2,0.940202025 28.2,2.1 L28.2,7.2 C28.2,8.35979797 27.259798,9.3 26.1,9.3 L2.1,9.3 C0.940202025,9.3 2.12998844e-16,8.35979797 0,7.2 L0,2.1 C-1.42034288e-16,0.940202025 0.940202025,-2.31037778e-16 2.1,0 Z"/>
      <mask id="deposito-r" fill="#fff">
        <use xlink:href="#deposito-q"/>
      </mask>
      <rect width="35.1" height="1" x=".9" fill="#08492C" mask="url(#deposito-r)" opacity=".504"/>
      <polygon fill="#0D633E" points="5.4 30 9 30 9.6 32.1 4.8 32.1"/>
    </g>
  </g>
</svg>
