<svg xmlns="http://www.w3.org/2000/svg" width="156" height="164" viewBox="0 0 156 164">
  <g fill="none" fill-rule="evenodd">
    <path fill="#08492C" d="M100.608525,70 C131.199855,70 156,96.7815763 156,129.818454 L156,164 C145.964408,164 37.4628058,164 25,164 L25,129.818454 C25,96.7815763 49.800145,70 80.3927935,70 L100.608525,70 Z"/>
    <path fill="#0D633E" d="M98.6085254,70 C129.199855,70 154,96.7815763 154,129.818454 L154,164 C143.964408,164 35.4628058,164 23,164 L23,129.818454 C23,96.7815763 47.800145,70 78.3927935,70 L98.6085254,70 Z"/>
    <path fill="#08492C" d="M96.6085254,70 C127.199855,70 152,96.7815763 152,129.818454 L152,164 C141.964408,164 33.4628058,164 21,164 L21,129.818454 C21,96.7815763 45.800145,70 76.3927935,70 L96.6085254,70 Z"/>
    <path fill="#0D633E" d="M94.6085254,70 C125.199855,70 150,96.7815763 150,129.818454 L150,164 C139.964408,164 31.4628058,164 19,164 L19,129.818454 C19,96.7815763 43.800145,70 74.3927935,70 L94.6085254,70 Z"/>
    <path fill="#08492C" d="M92.6085254,70 C123.199855,70 148,96.7815763 148,129.818454 L148,164 C137.964408,164 29.4628058,164 17,164 L17,129.818454 C17,96.7815763 41.800145,70 72.3927935,70 L92.6085254,70 Z"/>
    <path fill="#0D633E" d="M90.6085254,70 C121.199855,70 146,96.7815763 146,129.818454 L146,164 C135.964408,164 27.4628058,164 15,164 L15,129.818454 C15,96.7815763 39.800145,70 70.3927935,70 L90.6085254,70 Z"/>
    <path fill="#08492C" d="M88.6085254,70 C119.199855,70 144,96.7815763 144,129.818454 L144,164 C133.964408,164 25.4628058,164 13,164 L13,129.818454 C13,96.7815763 37.800145,70 68.3927935,70 L88.6085254,70 Z"/>
    <path fill="#0D633E" d="M86.6085254,70 C117.199855,70 142,96.7815763 142,129.818454 L142,164 C131.964408,164 23.4628058,164 11,164 L11,129.818454 C11,96.7815763 35.800145,70 66.3927935,70 L86.6085254,70 Z"/>
    <path fill="#89CE9E" d="M59.621251,69.9997 L81.3801685,69.9997 C114.306714,69.9997 141,96.7812763 141,129.818154 L141,163.9997 C131.481733,163.9997 11.7570268,163.9997 -2.84217094e-14,163.9997 L-2.84217094e-14,129.818154 C-2.84217094e-14,96.7812763 26.6932858,69.9997 59.621251,69.9997"/>
    <path fill="#69B482" d="M81.3285353,69.9997 C114.284233,69.9997 141,96.7812763 141,129.818154 L141,163.9997 C141,163.9997 4,163.9997 4,163.9997 L4,129.818154 C4,96.7812763 30.7157672,69.9997 63.6714647,69.9997 L81.3285353,69.9997 Z"/>
    <path fill="#69B482" d="M104.042606,128.215053 C99.276894,128.215053 95.417439,122.614641 95.417439,117.808318 L95.417439,109.648376 C95.417439,104.843494 91.1463088,99.9997 86.3805967,99.9997 L83,99.9997 C87.7657122,99.9997 91.1291557,104.843494 91.1291557,109.648376 L91.1291557,117.808318 C91.1291557,122.614641 95.7033246,128.215053 100.469037,128.215053 C105.948033,128.215053 111.141144,132.734582 111.141144,138.260053 L111.141144,139.600347 C111.141144,144.605553 106.198183,148.9997 101.23521,148.9997 L103.415087,148.9997 L104.615807,148.9997 C109.57878,148.9997 114,144.605553 114,139.600347 L114,138.260053 C114,132.734582 109.521603,128.215053 104.042606,128.215053"/>
    <rect width="27" height="48" x="38" y="116" fill="#0D633E"/>
    <rect width="48" height="48" x="59" y="116" fill="#08492C"/>
    <rect width="43" height="44" x="54" y="48" fill="#08492C" rx="7"/>
    <rect width="43" height="44" x="52" y="48" fill="#0D633E" rx="7"/>
    <path fill="#89CE9E" d="M10.7614383 22.496941L5.49728261 22.496941C4.56477503 22.496941 4.08348079 21.8511193 3.93307634 21.5743385 3.78267189 21.2975577 3.4517821 20.5594757 3.93307634 19.7291334L5.49728261 16.9305724C5.58752528 16.7460519 5.8281724 16.6845451 6.00865774 16.7768053L6.82084176 17.2381066C7.12165066 17.3918737 7.45254044 17.1458464 7.36229778 16.8075588L6.18914307 12.40982C6.12898129 12.1945461 5.91841507 12.1022859 5.73792973 12.1330393L1.43636249 13.3324226C1.1054727 13.4246828 1.07539181 13.8552307 1.34611982 14.0397512L2.15830384 14.5010524C2.33878918 14.5933127 2.39895096 14.83934 2.30870829 15.0238605L.744502022 17.8224215C-.248167341 19.6061198-.248167341 21.6973522.744502022 23.4810504 1.73717139 25.2647486 3.54202477 26.3103648 5.5273635 26.3103648L10.851681 26.3103648C11.9045121 26.3103648 12.746777 25.4185157 12.7166962 24.3113927 12.6264535 23.2657765 11.7841886 22.496941 10.7614383 22.496941M27.2085688 17.5134609L24.5526268 12.9685333C24.0151147 12.0409971 22.8136171 11.7318184 21.8966848 12.2574222 20.9481341 12.7830261 20.6319505 13.9579053 21.1694626 14.8545237L23.8570229 19.3994512C24.3629167 20.2342338 24.0151147 20.9762628 23.8570229 21.2545237 23.6989312 21.5327845 23.1930374 22.1820599 22.2128684 22.1820599L18.639994 22.1820599C18.4186655 22.1820599 18.2605737 21.9965527 18.2605737 21.8110454L18.2605737 20.8525913C18.2605737 20.5124947 17.849535 20.3269874 17.5965882 20.5743304L14.2450423 23.882543C14.0869505 24.0371324 14.0869505 24.2844754 14.2450423 24.4081469L17.5649698 27.6545237C17.8179167 27.9018667 18.2289553 27.7163594 18.2289553 27.3762628L18.2289553 26.4178087C18.2289553 26.2013836 18.4186655 26.0467942 18.6083756 26.0467942L22.1496316 26.0467942C24.2364432 26.0467942 26.1335447 24.9955865 27.1769505 23.2023498 28.2519746 21.4400309 28.2519746 19.3066976 27.2085688 17.5134609M15.7617069 4.90384464L17.2990982 7.81531462C17.3845089 8.00115313 17.3275684 8.21796472 17.1852174 8.34185706L16.4165217 8.83742642C16.1318196 9.02326493 16.1887601 9.45688812 16.5019324 9.54980737L20.6016425 10.7267846C20.800934 10.7887308 20.9717552 10.6648384 21.0286957 10.4480268L22.1105636 5.95692952C22.1959742 5.61622559 21.8543317 5.36844091 21.5980998 5.52330634L20.8294042 6.01887569C20.6585829 6.11179495 20.4592915 6.04984878 20.3454106 5.89498335L18.8080193 2.98351337C17.8685024 1.21804754 16.1602899.133989565 14.281256.133989565 12.4022222.133989565 10.6940097 1.18707445 9.75449275 2.98351337L7.30605475 7.62947611C6.82206119 8.55866865 7.10676329 9.7046728 7.96086957 10.2312152 8.24557166 10.4170537 8.53027375 10.4789999 8.84344605 10.4789999 9.44132045 10.4789999 10.0391948 10.138296 10.3808374 9.51883429L12.8292754 4.87287155C13.2847987 4.03659826 14.0250242 3.94367901 14.3097262 3.94367901 14.5944283 3.94367901 15.3346538 4.06757135 15.7617069 4.90384464" transform="translate(60 56)"/>
  </g>
</svg>
