<svg xmlns="http://www.w3.org/2000/svg" xmlns:xlink="http://www.w3.org/1999/xlink" width="750" height="336" viewBox="0 0 750 336" style="background:#0d744e">
  <defs>
    <filter id="dondereciclo-auspiciantes2-a">
      <feColorMatrix in="SourceGraphic" values="0 0 0 0 1.000000 0 0 0 0 1.000000 0 0 0 0 1.000000 0 0 0 1.000000 0"/>
    </filter>
    <polygon id="dondereciclo-auspiciantes2-b" points="0 0 188.136 0 188.136 91.728 0 91.728"/>
    <filter id="dondereciclo-auspiciantes2-d">
      <feColorMatrix in="SourceGraphic" values="0 0 0 0 1.000000 0 0 0 0 1.000000 0 0 0 0 1.000000 0 0 0 1.000000 0"/>
    </filter>
    <filter id="dondereciclo-auspiciantes2-e">
      <feColorMatrix in="SourceGraphic" values="0 0 0 0 0.000000 0 0 0 0 0.000000 0 0 0 0 0.000000 0 0 0 1.000000 0"/>
    </filter>
  </defs>
  <g fill="none" fill-rule="evenodd">
    <rect width="750" height="336" fill="#0D744E"/>
    <g filter="url(#dondereciclo-auspiciantes2-a)">
      <g transform="translate(280.2 220.4)">
        <path fill="#FFF" d="M155.20752 20.02312L155.20752 32.62792C155.20752 33.75424 156.12168 34.65488 157.26256 34.65488 158.40448 34.65488 159.13248 33.75424 159.13248 32.62792L159.13248 20.02312C159.13248 18.97168 158.40448 17.99616 157.26256 17.99616 156.12168 17.99616 155.20752 18.97168 155.20752 20.02312zM157.26256 37.97976C157.26256 37.97976 148.0544 38.57984 147.8256 32.04864L147.8256 20.8624C148.0544 14.3312 157.26256 14.93232 157.26256 14.93232 157.26256 14.93232 166.47176 14.3312 166.6236 20.8624L166.6236 32.04864C166.47176 38.57984 157.26256 37.97976 157.26256 37.97976zM71.064864 20.02312L71.064864 32.62792C71.064864 33.75424 71.977984 34.65488 73.118864 34.65488 74.260784 34.65488 74.989824 33.75424 74.989824 32.62792L74.989824 20.02312C74.989824 18.97168 74.260784 17.99616 73.118864 17.99616 71.977984 17.99616 71.064864 18.97168 71.064864 20.02312zM73.118864 37.97976C73.118864 37.97976 63.910704 38.57984 63.681904 32.04864L63.681904 20.8624C63.910704 14.3312 73.118864 14.93232 73.118864 14.93232 73.118864 14.93232 82.328064 14.3312 82.480944 20.8624L82.480944 32.04864C82.328064 38.57984 73.118864 37.97976 73.118864 37.97976zM183.93128 37.84248L187.200028 37.84248 187.200028 20.4412C187.20104 19.56968 187.20104 15.03632 181.69944 15.03632L169.92456 15.03632 169.92456 37.84248 176.38816 37.84248 176.38816 20.40584C176.38816 19.28056 177.2108 18.38096 178.33712 18.38096 179.46344 18.38096 180.3256 19.28056 180.3256 20.40584L180.3256 34.6164C180.3256 34.6164 179.87424 38.21792 183.93128 37.84248zM120.8896 37.84248L124.159388 37.84248 124.159388 20.4412C124.1604 19.56968 124.1604 15.03632 118.6588 15.03632L106.88392 15.03632 106.88392 37.84248 113.34752 37.84248 113.34752 20.40584C113.34752 19.28056 114.16912 18.38096 115.29648 18.38096 116.4228 18.38096 117.28392 19.28056 117.28392 20.40584L117.28392 34.6164C117.28392 34.6164 116.8336 38.21792 120.8896 37.84248zM85.545824 0L92.843504 0 92.843504 15.03632 97.990464 15.03632C103.493104 15.03632 103.493104 19.56864 103.492064 20.4412L103.492064 37.84248 100.222304 37.84248C96.166304 38.21792 96.616624 34.6164 96.616624 34.6164L96.616624 20.40584C96.616624 19.28056 95.755504 18.38096 94.629184 18.38096 93.501824 18.38096 92.680224 19.28056 92.680224 20.40584L92.680224 37.84248 85.545824 37.84248 85.545824 0zM50.869104 0L50.869104 43.66752C50.869104 45.69448 50.045424 48.61376 47.839584 51.36352 44.918224 55.0056 39.680784 58.29824 31.796544 58.29824 29.045744 58.4116 22.935744 57.6316 18.084144 54.60936 14.757184 52.53768 13.190944 50.69168 12.220624 47.05792 11.479104 44.2832 11.053744 41.0696 7.678944 41.0696L.026624 41.0696C.003744 42.03888-.007696 43.2328.005824 44.43088.157664 51.4124 6.975904 61.55448 32.052384 61.55448 42.498144 61.55448 60.369504 58.29824 60.3632656 42.65144L60.3632656 0 50.869104 0zM141.95376 25.44152C140.60176 24.61576 136.65912 24.62512 136.24 24.6272 134.40648 24.6272 134.04352 23.33864 134.0352 22.75L134.0352 20.56288C134.0352 18.37888 135.20312 18.174 135.95712 18.19168 137.74592 18.19168 137.86864 18.79072 137.93936 20.45056 137.93936 22.2664 139.44112 22.81448 140.68392 22.81448L144.78048 22.84672C144.78048 20.35696 144.38736 18.90304 143.416 17.66752 141.93816 15.78408 139.5576 14.9552 135.77928 14.9552 132.92968 14.9552 130.9308 15.40864 129.55904 16.27288 128.09056 17.19848 127.35008 18.58272 127.35008 19.94096L127.35008 23.27104C127.31472 25.03904 128.63448 26.67912 130.17576 27.42688 131.52776 28.25368 135.4704 28.24432 135.89056 28.24224 137.72304 28.24224 137.8416 29.5308 137.84992 30.11944L137.84992 32.12456C137.84992 34.30856 136.682 34.61432 135.928 34.59664 134.33992 34.59664 134.02064 33.6544 133.94472 31.89472 133.94472 29.91664 132.72584 29.42888 131.48408 29.42888L127.244 29.39664C127.14312 32.59256 127.59864 33.96536 128.57 35.20192 130.04784 37.08536 132.44816 37.99536 136.22752 37.99536 139.07608 37.99536 140.894 37.58248 142.26472 36.71824 143.7332 35.79264 144.53504 34.28672 144.53504 32.92744L144.53504 29.5984C144.57248 27.69624 143.6188 26.2496 141.95376 25.44152z"/>
        <path fill="#FFF" d="M18.457504 22.38288C16.764384 21.35016 11.827504 21.3616 11.302304 21.36368 9.007024 21.36368 8.551504 19.75272 8.542144 19.01744L8.542144 16.28328C8.542144 13.5512 10.003344 13.29432 10.947664 13.3172 13.188864 13.3172 13.341744 14.066 13.431184 16.14184 13.431184 18.4132 15.311504 19.09752 16.866304 19.09752L21.996624 19.13808C21.996624 16.02536 21.504704 14.20744 20.288944 12.662 18.437744 10.30744 15.457104 9.27056 10.725104 9.27056 7.157904 9.27056 4.654624 9.83736 2.937584 10.91792 1.097824 12.07544.170144 13.806.170144 15.50432L.170144 19.66848C.126464 21.87848 1.781104 23.93144 3.709264 24.86536 5.401344 25.89808 10.338224 25.88664 10.863424 25.88456 13.159744 25.88456 13.308464 27.49552 13.317824 28.2308L13.317824 30.73824C13.317824 33.46928 11.855584 33.852 10.911264 33.82912 8.923824 33.82912 8.523424 32.65184 8.428784 30.4512 8.428784 27.97704 6.902064 27.3676 5.346224 27.3676L.037024 27.32808C-.088816 31.32376.482144 33.03976 1.697904 34.58624 3.549104 36.9408 6.553664 38.07856 11.286704 38.07856 14.853904 38.07856 17.129424 37.56168 18.846464 36.48112 20.686224 35.3236 21.688784 33.44224 21.688784 31.74288L21.688784 27.57976C21.736624 25.1992 20.540624 23.39272 18.457504 22.38288zM33.746544 16.28328C33.746544 13.83616 34.976864 13.35672 36.040784 13.38064 37.526944 13.38064 38.320464 14.066 38.415104 16.14184 38.415104 18.4132 40.405664 18.84584 42.050944 18.84584L47.702304 18.88536C47.702304 15.77264 47.465184 14.144 46.178704 12.59856 44.220384 10.244 41.000544 9.21752 35.991904 9.21752 32.216704 9.21752 29.696784 9.77392 27.878864 10.85448 25.933024 12.012 24.602864 14.1856 24.602864 16.3904L24.602864 30.7788C24.602864 32.98256 25.964224 34.99912 27.911104 36.1556 29.727984 37.23616 32.216704 37.8248 35.991904 37.8248 41.000544 37.8248 44.220384 36.79832 46.178704 34.44376 47.465184 32.89728 47.796944 30.66856 47.702304 27.30312L41.734784 27.34264C40.437904 27.34264 38.415104 27.96456 38.415104 30.23696 38.415104 32.91288 37.526944 33.66168 36.040784 33.66168 34.976864 33.6856 33.746544 33.20616 33.746544 30.75904L33.746544 16.28328zM69.455984 50.40984L68.844464 48.77392 65.730704 48.77392 65.120224 50.40984 63.593504 50.40984 66.479504 43.28584 68.223584 43.28584 71.160544 50.40984 69.455984 50.40984zM67.297984 44.38928L66.105104 47.72976 68.440944 47.72976 67.297984 44.38928zM76.916944 44.2416C76.831664 44.23432 76.749504 44.23016 76.671504 44.226 76.592464 44.22288 76.516544 44.22184 76.444784 44.22184 76.273184 44.22184 76.139024 44.2416 76.040224 44.28112 75.941424 44.32064 75.867584 44.37368 75.818704 44.44336 75.768784 44.512 75.738624 44.59624 75.725104 44.69504 75.711584 44.7928 75.705344 44.90512 75.705344 45.02992L75.705344 45.43344 76.848304 45.43344 76.848304 46.37984 75.705344 46.37984 75.705344 50.40984 74.267024 50.40984 74.267024 46.37984 73.300864 46.37984 73.300864 45.43344 74.267024 45.43344 74.267024 45.01952C74.267024 44.4548 74.398064 44.018 74.661184 43.70912 74.923264 43.40024 75.360064 43.24632 75.971584 43.24632 76.122384 43.24632 76.278384 43.25048 76.439584 43.26088 76.600784 43.27024 76.759904 43.28168 76.916944 43.2952L76.916944 44.2416zM80.358304 50.40984C80.318784 50.29752 80.291744 50.18624 80.275104 50.07496 80.258464 49.96264 80.247024 49.84824 80.240784 49.72968 80.036944 50.02504 79.810224 50.22888 79.560624 50.34016 79.311024 50.45248 79.008384 50.5076 78.653744 50.5076 78.411424 50.5076 78.184704 50.47848 77.973584 50.4192 77.763504 50.35992 77.579424 50.2684 77.422384 50.1436 77.264304 50.0188 77.141584 49.86072 77.053184 49.6704 76.963744 49.48008 76.920064 49.25336 76.920064 48.99024 76.920064 48.60232 77.017824 48.2976 77.215424 48.074 77.411984 47.8504 77.657424 47.68192 77.949664 47.56648 78.241904 47.45208 78.557024 47.37928 78.895024 47.35016 79.234064 47.32 79.547104 47.30544 79.836224 47.30544L80.240784 47.30544 80.240784 47.11824C80.240784 46.9872 80.232464 46.85928 80.215824 46.73448 80.199184 46.60968 80.162784 46.49944 80.107664 46.40376 80.051504 46.30912 79.974544 46.23216 79.875744 46.17288 79.776944 46.1136 79.649024 46.08344 79.490944 46.08344 79.215344 46.08344 79.018784 46.15624 78.900224 46.3008 78.781664 46.44536 78.722384 46.63256 78.722384 46.8624L77.254944 46.8624C77.261184 46.55976 77.330864 46.30704 77.461904 46.1032 77.592944 45.89936 77.765584 45.7392 77.978784 45.62064 78.193024 45.50208 78.429104 45.41888 78.688064 45.36896 78.948064 45.32008 79.209104 45.29512 79.472224 45.29512 79.807104 45.29512 80.107664 45.32008 80.373904 45.36896 80.639104 45.41888 80.865824 45.51248 81.053024 45.6508 81.240224 45.78808 81.384784 45.9836 81.486704 46.23632 81.588624 46.48904 81.639584 46.81976 81.639584 47.2264L81.639584 48.70528C81.639584 48.98712 81.642704 49.26792 81.648944 49.54664 81.656224 49.8264 81.679104 50.11344 81.718624 50.40984L80.358304 50.40984zM80.240784 48.00536C80.167984 48.00536 80.105584 48.00328 80.052544 48.00016 80.000544 47.99704 79.938144 47.99496 79.865344 47.99496 79.714544 47.99496 79.549184 48.0064 79.368224 48.02928 79.187264 48.0532 79.021904 48.09688 78.871104 48.16344 78.719264 48.22792 78.593424 48.32048 78.491504 48.43904 78.389584 48.55656 78.338624 48.71464 78.338624 48.91224 78.338624 49.14208 78.419744 49.322 78.579904 49.45408 78.741104 49.58512 78.929344 49.65064 79.146704 49.65064 79.376544 49.65064 79.563744 49.60488 79.708304 49.51336 79.852864 49.4208 79.964144 49.3012 80.043184 49.15352 80.122224 49.0048 80.175264 48.83944 80.201264 48.65536 80.227264 48.47128 80.240784 48.28408 80.240784 48.09376L80.240784 48.00536zM89.485344 50.40984L89.485344 47.64032C89.485344 47.46976 89.475984 47.30544 89.456224 47.1484 89.436464 46.99032 89.394864 46.85096 89.332464 46.72928 89.270064 46.6076 89.176464 46.51088 89.051664 46.43912 88.926864 46.36632 88.759424 46.32992 88.549344 46.32992 88.339264 46.32992 88.168704 46.3684 88.036624 46.44328 87.905584 46.5192 87.803664 46.62112 87.731904 46.74904 87.659104 46.87696 87.610224 47.02152 87.584224 47.18272 87.557184 47.34288 87.544704 47.5124 87.544704 47.69024L87.544704 50.40984 86.105344 50.40984 86.105344 47.65072C86.105344 47.4864 86.095984 47.3252 86.076224 47.16816 86.056464 47.01008 86.013824 46.86864 85.948304 46.74384 85.882784 46.61904 85.789184 46.5192 85.667504 46.44328 85.545824 46.3684 85.386704 46.32992 85.189104 46.32992 84.992544 46.32992 84.828224 46.3684 84.697184 46.44328 84.565104 46.5192 84.460064 46.618 84.381024 46.73864 84.303024 46.86032 84.246864 47.00176 84.213584 47.16296 84.181344 47.32416 84.164704 47.48952 84.164704 47.66008L84.164704 50.40984 82.726384 50.40984 82.726384 47.09848C82.726384 46.82288 82.723264 46.54832 82.715984 46.27584 82.709744 46.00336 82.699344 45.72568 82.686864 45.44384L84.096064 45.44384 84.135584 46.22176C84.325904 45.91288 84.561984 45.69344 84.844864 45.56136 85.126704 45.43032 85.445984 45.3648 85.800624 45.3648 86.161504 45.3648 86.478704 45.43656 86.751184 45.58112 87.023664 45.72568 87.228544 45.97216 87.366864 46.32056 87.557184 45.98568 87.806784 45.74232 88.115664 45.59152 88.424544 45.43968 88.765664 45.3648 89.140064 45.3648 89.456224 45.3648 89.726624 45.41264 89.953344 45.50728 90.180064 45.60296 90.365184 45.73504 90.509744 45.90664 90.654304 46.0772 90.759344 46.28208 90.825904 46.52232 90.891424 46.76256 90.923664 47.02984 90.923664 47.3252L90.923664 50.40984 89.485344 50.40984zM92.010464 44.4288L92.010464 43.28584 93.508064 43.28584 93.508064 44.4288 92.010464 44.4288zM92.039584 50.40984L92.039584 45.43344 93.478944 45.43344 93.478944 50.40984 92.039584 50.40984zM94.623984 50.40984L94.623984 43.28584 96.063344 43.28584 96.063344 50.40984 94.623984 50.40984zM99.346624 52.28184L97.976944 52.28184 98.765264 50.43896 96.518864 45.44384 98.135024 45.44384 99.465184 49.15768 100.745424 45.44384 102.165024 45.44384 99.346624 52.28184zM109.86352 48.62624C109.86352 48.96112 109.79384 49.24816 109.65656 49.4884 109.51824 49.7276 109.33624 49.9252 109.10952 50.07912 108.8828 50.23408 108.62696 50.3464 108.34096 50.4192 108.05496 50.492 107.7648 50.52736 107.4684 50.52736 106.64784 50.52736 106.0124 50.30584 105.56208 49.8628 105.1128 49.41872 104.88712 48.7864 104.88712 47.96584 104.88712 47.55816 104.9464 47.19104 105.06496 46.8624 105.18248 46.53376 105.35512 46.25296 105.58184 46.02 105.80856 45.78704 106.08416 45.60712 106.40968 45.48336 106.73416 45.35752 107.1044 45.29512 107.51832 45.29512 107.8272 45.29512 108.11424 45.32944 108.38048 45.39912 108.64672 45.46776 108.88072 45.57592 109.08456 45.7236 109.2884 45.87232 109.45376 46.06368 109.58272 46.3008 109.71064 46.53688 109.79072 46.81976 109.824 47.1484L108.39504 47.1484C108.38152 46.85928 108.30664 46.62112 108.16832 46.43392 108.03104 46.24672 107.81056 46.15312 107.50792 46.15312 107.27184 46.15312 107.07944 46.2072 106.93176 46.31536 106.78408 46.42352 106.66864 46.56496 106.58648 46.73552 106.50536 46.90608 106.45024 47.09744 106.42424 47.3044 106.39824 47.51136 106.38472 47.71104 106.38472 47.90136 106.38472 48.08544 106.39824 48.28304 106.42424 48.49 106.45024 48.69696 106.50328 48.88832 106.58232 49.06304 106.66136 49.23672 106.77056 49.38232 106.912 49.49776 107.05344 49.6132 107.24272 49.6704 107.4788 49.6704 107.81368 49.6704 108.04664 49.5664 108.17872 49.36152 108.30976 49.15664 108.38152 48.8956 108.39504 48.57632L109.86352 48.57632 109.86352 48.62624zM115.60016 47.90656C115.60016 48.32048 115.53672 48.68968 115.4088 49.0152 115.27984 49.34072 115.09784 49.61424 114.86176 49.83784 114.62464 50.06144 114.33864 50.232 114.00376 50.35056 113.66888 50.46912 113.2976 50.52736 112.89096 50.52736 112.47704 50.52736 112.10368 50.47016 111.77296 50.35472 111.44016 50.24032 111.15832 50.0708 110.92536 49.84824 110.69136 49.62464 110.51248 49.35008 110.38768 49.02456 110.26288 48.70008 110.20048 48.32672 110.20048 47.90656 110.20048 47.49264 110.266 47.12448 110.39808 46.80312 110.52912 46.48072 110.71632 46.20824 110.95968 45.98568 111.20304 45.76208 111.49008 45.59256 111.82184 45.47816 112.1536 45.36272 112.5228 45.30552 112.93048 45.30552 113.33712 45.30552 113.70528 45.36272 114.03392 45.47816 114.36152 45.59256 114.64336 45.76208 114.87632 45.98568 115.10928 46.20824 115.28816 46.48072 115.41296 46.80312 115.53776 47.12448 115.60016 47.49264 115.60016 47.90656zM114.10256 47.91176C114.10256 47.71416 114.08488 47.51136 114.04848 47.3044 114.01208 47.09744 113.94864 46.90816 113.85608 46.74072 113.76456 46.57328 113.63976 46.43392 113.48168 46.32472 113.32464 46.21656 113.12704 46.16248 112.89096 46.16248 112.6476 46.16248 112.44896 46.21656 112.29504 46.32472 112.14008 46.43392 112.0184 46.57328 111.93 46.74072 111.8416 46.90816 111.78024 47.09744 111.748 47.3044 111.71472 47.51136 111.69808 47.71416 111.69808 47.91176 111.69808 48.10832 111.71472 48.31216 111.748 48.51912 111.78024 48.72608 111.8416 48.9164 111.93 49.08696 112.0184 49.25856 112.14008 49.39896 112.29504 49.50816 112.44896 49.61632 112.6476 49.6704 112.89096 49.6704 113.12704 49.6704 113.32464 49.61632 113.48168 49.50816 113.63976 49.39896 113.76456 49.25856 113.85608 49.08696 113.94864 48.9164 114.01208 48.72608 114.04848 48.51912 114.08488 48.31216 114.10256 48.10832 114.10256 47.91176zM123.17032 50.40984L123.17032 47.64032C123.17032 47.46976 123.16096 47.30544 123.1412 47.1484 123.12144 46.99032 123.07984 46.85096 123.01744 46.72928 122.95504 46.6076 122.86144 46.51088 122.73664 46.43912 122.61184 46.36632 122.4444 46.32992 122.23432 46.32992 122.02424 46.32992 121.85368 46.3684 121.7216 46.44328 121.59056 46.5192 121.48864 46.62112 121.41688 46.74904 121.34408 46.87696 121.2952 47.02152 121.2692 47.18272 121.24216 47.34288 121.22968 47.5124 121.22968 47.69024L121.22968 50.40984 119.79032 50.40984 119.79032 47.65072C119.79032 47.4864 119.78096 47.3252 119.7612 47.16816 119.74144 47.01008 119.6988 46.86864 119.63328 46.74384 119.56776 46.61904 119.47416 46.5192 119.35248 46.44328 119.2308 46.3684 119.07168 46.32992 118.87408 46.32992 118.67752 46.32992 118.5132 46.3684 118.38216 46.44328 118.25008 46.5192 118.14504 46.618 118.066 46.73864 117.988 46.86032 117.93184 47.00176 117.89856 47.16296 117.86528 47.32416 117.84968 47.48952 117.84968 47.66008L117.84968 50.40984 116.41136 50.40984 116.41136 47.09848C116.41136 46.82288 116.4072 46.54832 116.40096 46.27584 116.39472 46.00336 116.38432 45.72568 116.37184 45.44384L117.78104 45.44384 117.82056 46.22176C118.01088 45.91288 118.24696 45.69344 118.52984 45.56136 118.81168 45.43032 119.13096 45.3648 119.4856 45.3648 119.84648 45.3648 120.16368 45.43656 120.43616 45.58112 120.70864 45.72568 120.91352 45.97216 121.05184 46.32056 121.24216 45.98568 121.49176 45.74232 121.80064 45.59152 122.10952 45.43968 122.45064 45.3648 122.82504 45.3648 123.1412 45.3648 123.4116 45.41264 123.63832 45.50728 123.86504 45.60296 124.05016 45.73504 124.19472 45.90664 124.33928 46.0772 124.44432 46.28208 124.50984 46.52232 124.5764 46.76256 124.60864 47.02984 124.60864 47.3252L124.60864 50.40984 123.17032 50.40984zM130.91728 47.83792C130.91728 48.18632 130.8736 48.51912 130.78416 48.83736 130.69576 49.15664 130.55952 49.44056 130.37544 49.69016 130.19136 49.93976 129.9584 50.1384 129.67656 50.28608 129.39368 50.43376 129.06192 50.5076 128.68128 50.5076 128.3464 50.5076 128.06144 50.4504 127.82848 50.33496 127.59552 50.22056 127.374 50.03128 127.16392 49.7692L127.16392 52.28184 125.72456 52.28184 125.72456 46.6648C125.72456 46.46824 125.72144 46.26752 125.7152 46.06368 125.70896 45.86088 125.69856 45.65392 125.68504 45.44384L127.09424 45.44384 127.114 46.202C127.31784 45.89936 127.55496 45.67992 127.82328 45.5416 128.09264 45.40432 128.40464 45.33464 128.75928 45.33464 129.13368 45.33464 129.45608 45.40224 129.72544 45.5364 129.9948 45.6716 130.2184 45.85256 130.3952 46.07928 130.57304 46.30496 130.70408 46.5712 130.78936 46.87696 130.87464 47.18272 130.91728 47.50304 130.91728 47.83792zM129.43944 47.8868C129.43944 47.71 129.42176 47.5228 129.38536 47.3252 129.34896 47.12864 129.28864 46.94872 129.20336 46.78856 129.11808 46.62736 129.0016 46.49424 128.85288 46.3892 128.7052 46.28416 128.5232 46.23216 128.30688 46.23216 128.07704 46.23216 127.88568 46.2852 127.73488 46.3944 127.58408 46.50256 127.46448 46.64088 127.37504 46.80832 127.28664 46.97576 127.22424 47.15984 127.18784 47.35952 127.15248 47.56024 127.13376 47.75576 127.13376 47.94608 127.13376 48.12392 127.1504 48.31112 127.18368 48.50768 127.21592 48.70528 127.27312 48.88728 127.35528 49.05472 127.43744 49.22216 127.54976 49.35944 127.6912 49.46864 127.8316 49.5768 128.01048 49.63088 128.22784 49.63088 128.46392 49.63088 128.65944 49.5768 128.81336 49.46864 128.96832 49.35944 129.09312 49.22008 129.1888 49.04952 129.28344 48.87896 129.34896 48.69176 129.38536 48.48792 129.42176 48.28408 129.43944 48.0844 129.43944 47.8868zM134.79232 50.40984C134.7528 50.29752 134.72576 50.18624 134.70912 50.07496 134.69248 49.96264 134.68104 49.84824 134.6748 49.72968 134.47096 50.02504 134.24424 50.22888 133.99464 50.34016 133.74504 50.45248 133.4424 50.5076 133.08776 50.5076 132.84544 50.5076 132.61872 50.47848 132.40864 50.4192 132.19752 50.35992 132.01448 50.2684 131.8564 50.1436 131.69832 50.0188 131.5756 49.86072 131.4872 49.6704 131.39776 49.48008 131.35408 49.25336 131.35408 48.99024 131.35408 48.60232 131.45288 48.2976 131.64944 48.074 131.84704 47.8504 132.09144 47.68192 132.38368 47.56648 132.67592 47.45208 132.99104 47.37928 133.32904 47.35016 133.66808 47.32 133.98112 47.30544 134.27024 47.30544L134.6748 47.30544 134.6748 47.11824C134.6748 46.9872 134.66648 46.85928 134.64984 46.73448 134.6332 46.60968 134.59784 46.49944 134.54168 46.40376 134.48552 46.30912 134.40856 46.23216 134.30976 46.17288 134.21096 46.1136 134.08304 46.08344 133.926 46.08344 133.64936 46.08344 133.4528 46.15624 133.33424 46.3008 133.21568 46.44536 133.15744 46.63256 133.15744 46.8624L131.68896 46.8624C131.6952 46.55976 131.76488 46.30704 131.89592 46.1032 132.02696 45.89936 132.1996 45.7392 132.4128 45.62064 132.62704 45.50208 132.86312 45.41888 133.12208 45.36896 133.38208 45.32008 133.64312 45.29512 133.90624 45.29512 134.24112 45.29512 134.54168 45.32008 134.80792 45.36896 135.07312 45.41888 135.29984 45.51248 135.48704 45.6508 135.67424 45.78808 135.8188 45.9836 135.92072 46.23632 136.02264 46.48904 136.0736 46.81976 136.0736 47.2264L136.0736 48.70528C136.0736 48.98712 136.07672 49.26792 136.08296 49.54664 136.09024 49.8264 136.11312 50.11344 136.15264 50.40984L134.79232 50.40984zM134.6748 48.00536C134.602 48.00536 134.5396 48.00328 134.48656 48.00016 134.43456 47.99704 134.37216 47.99496 134.29936 47.99496 134.14856 47.99496 133.9832 48.0064 133.80224 48.02928 133.62232 48.0532 133.45592 48.09688 133.30512 48.16344 133.15328 48.22792 133.02744 48.32048 132.92552 48.43904 132.8236 48.55656 132.77264 48.71464 132.77264 48.91224 132.77264 49.14208 132.85376 49.322 133.01392 49.45408 133.17512 49.58512 133.36336 49.65064 133.58072 49.65064 133.81056 49.65064 133.99776 49.60488 134.14232 49.51336 134.28688 49.4208 134.39816 49.3012 134.4772 49.15352 134.55624 49.0048 134.60928 48.83944 134.63528 48.65536 134.66128 48.47128 134.6748 48.28408 134.6748 48.09376L134.6748 48.00536zM140.57888 50.40984L140.57888 47.77864C140.57888 47.60808 140.57264 47.43544 140.55912 47.26072 140.54664 47.08704 140.50816 46.93104 140.44576 46.79376 140.38336 46.65544 140.28976 46.54312 140.16496 46.45784 140.04016 46.37256 139.86648 46.32992 139.64288 46.32992 139.41304 46.32992 139.23104 46.38608 139.09584 46.49736 138.96168 46.60968 138.85664 46.74592 138.78072 46.90608 138.70584 47.06728 138.65592 47.23992 138.63304 47.424 138.61016 47.60808 138.59872 47.76928 138.59872 47.90656L138.59872 50.40984 137.1604 50.40984 137.1604 46.41936C137.1604 46.26128 137.15728 46.10216 137.15 45.94096 137.14376 45.77976 137.13336 45.6144 137.12088 45.44384L138.54984 45.44384 138.5696 46.202C138.79216 45.91288 139.02928 45.70072 139.27888 45.56656 139.52848 45.4324 139.83736 45.3648 140.20448 45.3648 140.816 45.3648 141.27048 45.5208 141.56896 45.8328 141.86848 46.1448 142.01824 46.59928 142.01824 47.19728L142.01824 50.40984 140.57888 50.40984zM145.12368 52.28184L143.754 52.28184 144.54232 50.43896 142.29592 45.44384 143.91208 45.44384 145.24224 49.15768 146.52352 45.44384 147.94208 45.44384 145.12368 52.28184zM63.668384 61.6252C63.628864 61.51288 63.600784 61.4016 63.584144 61.29032 63.567504 61.178 63.556064 61.0636 63.549824 60.94504 63.345984 61.2404 63.119264 61.44424 62.869664 61.55552 62.620064 61.66784 62.318464 61.72296 61.962784 61.72296 61.720464 61.72296 61.493744 61.69384 61.283664 61.63456 61.072544 61.57528 60.889504 61.48376 60.731424 61.35896 60.574384 61.23416 60.450624 61.07608 60.362224 60.88576 60.272784 60.69544 60.229104 60.46872 60.229104 60.2056 60.229104 59.81872 60.327904 59.51296 60.524464 59.28936 60.722064 59.06576 60.966464 58.89728 61.258704 58.78184 61.550944 58.66744 61.866064 58.59464 62.204064 58.56552 62.543104 58.5364 62.856144 58.5208 63.145264 58.5208L63.549824 58.5208 63.549824 58.3336C63.549824 58.20256 63.541504 58.07464 63.524864 57.94984 63.508224 57.82504 63.472864 57.7148 63.416704 57.62016 63.360544 57.52448 63.283584 57.44752 63.184784 57.38824 63.087024 57.32896 62.958064 57.2988 62.801024 57.2988 62.525424 57.2988 62.327824 57.3716 62.209264 57.51616 62.091744 57.66072 62.032464 57.84792 62.032464 58.07776L60.563984 58.07776C60.570224 57.77512 60.639904 57.5224 60.770944 57.31856 60.901984 57.11472 61.074624 56.95456 61.287824 56.836 61.502064 56.71744 61.738144 56.63424 61.997104 56.58536 62.257104 56.53544 62.518144 56.51048 62.781264 56.51048 63.116144 56.51048 63.416704 56.53544 63.682944 56.58536 63.948144 56.63424 64.174864 56.72784 64.362064 56.86616 64.549264 57.00344 64.693824 57.19896 64.795744 57.45168 64.897664 57.7044 64.948624 58.03512 64.948624 58.44176L64.948624 59.92064C64.948624 60.20248 64.951744 60.48328 64.959024 60.76304 64.965264 61.04176 64.988144 61.3288 65.027664 61.6252L63.668384 61.6252zM63.549824 59.22072C63.477024 59.22072 63.414624 59.21864 63.362624 59.21552 63.309584 59.2124 63.247184 59.21032 63.175424 59.21032 63.023584 59.21032 62.858224 59.22176 62.677264 59.24568 62.497344 59.26856 62.330944 59.31224 62.180144 59.3788 62.028304 59.44432 61.902464 59.53584 61.800544 59.6544 61.698624 59.77192 61.647664 59.93 61.647664 60.1276 61.647664 60.35744 61.728784 60.53736 61.888944 60.66944 62.050144 60.80048 62.239424 60.866 62.455744 60.866 62.685584 60.866 62.872784 60.82024 63.017344 60.72872 63.161904 60.63616 63.274224 60.51656 63.352224 60.36888 63.431264 60.2212 63.484304 60.0548 63.510304 59.87072 63.536304 59.68664 63.549824 59.49944 63.549824 59.30912L63.549824 59.22072zM67.788864 57.5952L67.788864 59.86136C67.788864 60.00592 67.794064 60.13176 67.803424 60.23992 67.813824 60.34912 67.841904 60.43752 67.887664 60.50616 67.933424 60.57584 68.002064 60.62784 68.094624 60.66424 68.186144 60.70064 68.318224 60.71832 68.488784 60.71832 68.567824 60.71832 68.642704 60.71312 68.715504 60.70376 68.787264 60.69336 68.866304 60.68608 68.951584 60.6788L68.951584 61.6148C68.781024 61.64184 68.610464 61.6616 68.438864 61.67408 68.268304 61.6876 68.097744 61.69384 67.927184 61.69384 67.677584 61.69384 67.457104 61.67616 67.266784 61.63976 67.076464 61.60336 66.915264 61.53576 66.784224 61.438 66.653184 61.3392 66.554384 61.20296 66.487824 61.02824 66.422304 60.85456 66.390064 60.63304 66.390064 60.36368L66.390064 57.5952 65.434304 57.5952 65.434304 56.6488 66.390064 56.6488 66.390064 55.82096 67.788864 55.25 67.788864 56.6488 68.961984 56.6488 68.961984 57.5952 67.788864 57.5952zM79.023984 61.6252L77.477504 61.6252 76.295024 57.8604 75.043904 61.6252 73.506784 61.6252 71.753344 56.6592 73.310224 56.6592 74.334624 60.43232 75.556624 56.6592 77.182144 56.6592 78.325104 60.43232 79.378624 56.6592 80.728544 56.6592 79.023984 61.6252zM86.180224 59.12192C86.180224 59.53584 86.116784 59.90608 85.988864 60.23056 85.859904 60.55608 85.677904 60.8296 85.441824 61.0532 85.205744 61.2768 84.919744 61.44736 84.584864 61.56592 84.249984 61.68448 83.878704 61.74272 83.471024 61.74272 83.057104 61.74272 82.684784 61.68552 82.353024 61.57008 82.021264 61.45568 81.738384 61.28616 81.505424 61.0636 81.272464 60.84 81.093584 60.56544 80.968784 60.23992 80.842944 59.91544 80.781584 59.54312 80.781584 59.12192 80.781584 58.708 80.847104 58.34088 80.978144 58.01848 81.109184 57.69608 81.296384 57.42464 81.539744 57.20104 81.783104 56.97744 82.070144 56.80792 82.401904 56.69352 82.733664 56.57808 83.102864 56.52088 83.510544 56.52088 83.917184 56.52088 84.285344 56.57808 84.613984 56.69352 84.942624 56.80792 85.223424 56.97744 85.456384 57.20104 85.689344 57.42464 85.868224 57.69608 85.993024 58.01848 86.117824 58.34088 86.180224 58.708 86.180224 59.12192zM84.682624 59.12712C84.682624 58.93056 84.664944 58.72672 84.628544 58.51976 84.593184 58.3128 84.528704 58.12352 84.437184 57.95608 84.344624 57.78864 84.219824 57.64928 84.062784 57.54112 83.904704 57.43296 83.707104 57.37784 83.471024 57.37784 83.227664 57.37784 83.029024 57.43296 82.875104 57.54112 82.720144 57.64928 82.598464 57.78864 82.510064 57.95608 82.421664 58.12352 82.360304 58.3128 82.328064 58.51976 82.294784 58.72672 82.279184 58.93056 82.279184 59.12712 82.279184 59.32472 82.294784 59.52752 82.328064 59.73448 82.360304 59.94144 82.421664 60.13176 82.510064 60.30336 82.598464 60.47392 82.720144 60.61536 82.875104 60.72352 83.029024 60.83168 83.227664 60.88576 83.471024 60.88576 83.707104 60.88576 83.904704 60.83168 84.062784 60.72352 84.219824 60.61536 84.344624 60.47392 84.437184 60.30336 84.528704 60.13176 84.593184 59.94144 84.628544 59.73448 84.664944 59.52752 84.682624 59.32472 84.682624 59.12712zM90.154064 57.89056C89.995984 57.8708 89.852464 57.8604 89.720384 57.8604 89.254464 57.8604 88.922704 57.98624 88.725104 58.2348 88.528544 58.4844 88.429744 58.8328 88.429744 59.28L88.429744 61.6252 86.991424 61.6252 86.991424 57.8708C86.991424 57.6732 86.985184 57.47456 86.971664 57.27488 86.958144 57.07416 86.951904 56.86928 86.951904 56.6592L88.341344 56.6592 88.380864 57.57544C88.545184 57.2468 88.752144 57.00656 89.000704 56.85576 89.251344 56.70496 89.556064 56.62904 89.917984 56.62904 89.956464 56.62904 89.994944 56.62904 90.031344 56.62904 90.066704 56.62904 90.108304 56.63216 90.154064 56.63944L90.154064 57.89056zM94.176784 61.6252L92.137344 58.83592 94.058224 56.6488 95.792944 56.6488 93.762864 58.76728 96.009264 61.6252 94.176784 61.6252zM90.699024 61.6252L90.699024 54.5012 92.137344 54.5012 92.137344 61.6252 90.699024 61.6252zM102.052704 55.45696C101.967424 55.44968 101.885264 55.44552 101.806224 55.4424 101.727184 55.43824 101.651264 55.4372 101.579504 55.4372 101.408944 55.4372 101.273744 55.45696 101.175984 55.49648 101.077184 55.536 101.003344 55.59008 100.953424 55.65872 100.904544 55.72736 100.873344 55.8116 100.859824 55.9104 100.847344 56.00816 100.840064 56.12048 100.840064 56.24528L100.840064 56.6488 101.983024 56.6488 101.983024 57.5952 100.840064 57.5952 100.840064 61.6252 99.401744 61.6252 99.401744 57.5952 98.436624 57.5952 98.436624 56.6488 99.401744 56.6488 99.401744 56.23488C99.401744 55.67016 99.533824 55.23336 99.795904 54.92448 100.059024 54.6156 100.495824 54.46168 101.106304 54.46168 101.257104 54.46168 101.413104 54.46688 101.574304 54.47624 101.735504 54.48664 101.894624 54.49808 102.052704 54.51056L102.052704 55.45696zM107.4944 59.12192C107.4944 59.53584 107.42992 59.90608 107.302 60.23056 107.17408 60.55608 106.99208 60.8296 106.756 61.0532 106.51888 61.2768 106.23288 61.44736 105.898 61.56592 105.56312 61.68448 105.19184 61.74272 104.7852 61.74272 104.37128 61.74272 103.997504 61.68552 103.665744 61.57008 103.333984 61.45568 103.052144 61.28616 102.818144 61.0636 102.585184 60.84 102.406304 60.56544 102.281504 60.23992 102.156704 59.91544 102.094304 59.54312 102.094304 59.12192 102.094304 58.708 102.159824 58.34088 102.291904 58.01848 102.422944 57.69608 102.610144 57.42464 102.853504 57.20104 103.095824 56.97744 103.383904 56.80792 103.715664 56.69352 104.04784 56.57808 104.41704 56.52088 104.82472 56.52088 105.23136 56.52088 105.59952 56.57808 105.92816 56.69352 106.25576 56.80792 106.5376 56.97744 106.77056 57.20104 107.00352 57.42464 107.1824 57.69608 107.3072 58.01848 107.432 58.34088 107.4944 58.708 107.4944 59.12192zM105.9968 59.12712C105.9968 58.93056 105.97912 58.72672 105.94272 58.51976 105.90632 58.3128 105.84288 58.12352 105.75032 57.95608 105.6588 57.78864 105.534 57.64928 105.37592 57.54112 105.21888 57.43296 105.02128 57.37784 104.7852 57.37784 104.54184 57.37784 104.3432 57.43296 104.18824 57.54112 104.03432 57.64928 103.912224 57.78864 103.823824 57.95608 103.735424 58.12352 103.674064 58.3128 103.641824 58.51976 103.608544 58.72672 103.591904 58.93056 103.591904 59.12712 103.591904 59.32472 103.608544 59.52752 103.641824 59.73448 103.674064 59.94144 103.735424 60.13176 103.823824 60.30336 103.912224 60.47392 104.03432 60.61536 104.18824 60.72352 104.3432 60.83168 104.54184 60.88576 104.7852 60.88576 105.02128 60.88576 105.21888 60.83168 105.37592 60.72352 105.534 60.61536 105.6588 60.47392 105.75032 60.30336 105.84288 60.13176 105.90632 59.94144 105.94272 59.73448 105.97912 59.52752 105.9968 59.32472 105.9968 59.12712zM111.46824 57.89056C111.31016 57.8708 111.1656 57.8604 111.03456 57.8604 110.5676 57.8604 110.23584 57.98624 110.03928 58.2348 109.84168 58.4844 109.74392 58.8328 109.74392 59.28L109.74392 61.6252 108.30456 61.6252 108.30456 57.8708C108.30456 57.6732 108.29832 57.47456 108.2848 57.27488 108.27232 57.07416 108.26504 56.86928 108.26504 56.6592L109.65448 56.6592 109.694 57.57544C109.85832 57.2468 110.06528 57.00656 110.31488 56.85576 110.56448 56.70496 110.87024 56.62904 111.23112 56.62904 111.27064 56.62904 111.30808 56.62904 111.34448 56.62904 111.38088 56.62904 111.42248 56.63216 111.46824 56.63944L111.46824 57.89056zM117.92664 61.6252C117.88712 61.51288 117.86008 61.4016 117.84344 61.29032 117.8268 61.178 117.81536 61.0636 117.80912 60.94504 117.60528 61.2404 117.37856 61.44424 117.12896 61.55552 116.87936 61.66784 116.57672 61.72296 116.22208 61.72296 115.97976 61.72296 115.75304 61.69384 115.54296 61.63456 115.33184 61.57528 115.1488 61.48376 114.99072 61.35896 114.83368 61.23416 114.70992 61.07608 114.62152 60.88576 114.53208 60.69544 114.4884 60.46872 114.4884 60.2056 114.4884 59.81872 114.5872 59.51296 114.78376 59.28936 114.98032 59.06576 115.22576 58.89728 115.518 58.78184 115.81024 58.66744 116.12536 58.59464 116.46336 58.56552 116.8024 58.5364 117.11544 58.5208 117.40456 58.5208L117.80912 58.5208 117.80912 58.3336C117.80912 58.20256 117.8008 58.07464 117.78416 57.94984 117.76752 57.82504 117.73216 57.7148 117.676 57.62016 117.61984 57.52448 117.54288 57.44752 117.44408 57.38824 117.34528 57.32896 117.21736 57.2988 117.05928 57.2988 116.78368 57.2988 116.58712 57.3716 116.46856 57.51616 116.35 57.66072 116.29176 57.84792 116.29176 58.07776L114.82328 58.07776C114.82952 57.77512 114.8992 57.5224 115.03024 57.31856 115.16128 57.11472 115.33392 56.95456 115.54712 56.836 115.76136 56.71744 115.99744 56.63424 116.2564 56.58536 116.5164 56.53544 116.77744 56.51048 117.04056 56.51048 117.37544 56.51048 117.676 56.53544 117.94224 56.58536 118.20744 56.63424 118.43416 56.72784 118.62136 56.86616 118.80856 57.00344 118.95312 57.19896 119.05504 57.45168 119.15696 57.7044 119.20792 58.03512 119.20792 58.44176L119.20792 59.92064C119.20792 60.20248 119.21104 60.48328 119.21728 60.76304 119.22456 61.04176 119.24744 61.3288 119.28696 61.6252L117.92664 61.6252zM117.80912 59.22072C117.73632 59.22072 117.67392 59.21864 117.62192 59.21552 117.56888 59.2124 117.50648 59.21032 117.43472 59.21032 117.28288 59.21032 117.11752 59.22176 116.93656 59.24568 116.75664 59.26856 116.59024 59.31224 116.43944 59.3788 116.2876 59.44432 116.16176 59.53584 116.05984 59.6544 115.95792 59.77192 115.90696 59.93 115.90696 60.1276 115.90696 60.35744 115.98808 60.53736 116.14824 60.66944 116.30944 60.80048 116.49768 60.866 116.71504 60.866 116.94488 60.866 117.13208 60.82024 117.27664 60.72872 117.4212 60.63616 117.53248 60.51656 117.61152 60.36888 117.69056 60.2212 117.7436 60.0548 117.7696 59.87072 117.7956 59.68664 117.80912 59.49944 117.80912 59.30912L117.80912 59.22072zM128.01152 59.07304C128.01152 59.4204 127.96784 59.75632 127.87944 60.07768 127.79 60.40008 127.65584 60.68192 127.47488 60.92528 127.29496 61.16864 127.06304 61.36208 126.78016 61.50664 126.49832 61.6512 126.16344 61.72296 125.77552 61.72296 125.43336 61.72296 125.14528 61.6616 124.90816 61.53576 124.67208 61.41096 124.44536 61.22064 124.228 60.9648L124.19888 61.6252 122.78032 61.6252C122.80008 61.39536 122.81152 61.16968 122.81464 60.95024 122.81776 60.72976 122.81984 60.51136 122.81984 60.29504L122.81984 54.5012 124.25816 54.5012 124.25816 57.34872C124.46824 57.07936 124.70328 56.8776 124.96224 56.7424 125.22224 56.60824 125.5228 56.54064 125.86392 56.54064 126.24456 56.54064 126.57216 56.60824 126.84464 56.7424 127.11712 56.8776 127.33864 57.06168 127.5092 57.29464 127.6808 57.5276 127.80664 57.79696 127.8888 58.10272 127.97096 58.40744 128.01152 58.73088 128.01152 59.07304zM126.53368 59.0928C126.53368 58.90872 126.51808 58.71944 126.4848 58.526 126.45152 58.33256 126.39432 58.15472 126.31216 57.99352 126.23 57.83336 126.11872 57.70128 125.97728 57.6004 125.83584 57.49744 125.65384 57.44752 125.43024 57.44752 125.2004 57.44752 125.00904 57.49744 124.85408 57.6004 124.69912 57.70128 124.5764 57.83336 124.48488 57.99352 124.39232 58.15472 124.3268 58.3336 124.28728 58.5312 124.24776 58.72776 124.228 58.92536 124.228 59.12192 124.228 59.29976 124.24464 59.48696 124.27792 59.68352 124.31016 59.88112 124.3684 60.06104 124.45056 60.22536 124.53168 60.38968 124.64504 60.52592 124.79064 60.63408 124.93416 60.74328 125.11824 60.79736 125.34184 60.79736 125.5852 60.79736 125.78384 60.74432 125.93776 60.63928 126.09272 60.53424 126.21336 60.40112 126.3028 60.23992 126.3912 60.07976 126.45152 59.89776 126.4848 59.69392 126.51808 59.49008 126.53368 59.28936 126.53368 59.0928zM130.10296 59.41728C130.10296 59.6076 130.12272 59.79064 130.16224 59.96432 130.20176 60.13904 130.26728 60.29296 130.35984 60.42712 130.45136 60.56232 130.56992 60.67048 130.71448 60.75264 130.85904 60.8348 131.03584 60.8764 131.24592 60.8764 131.8304 60.8764 132.16216 60.58728 132.2412 60.00904L133.64104 60.00904C133.59424 60.3304 133.49752 60.60184 133.34984 60.82232 133.20216 61.04176 133.02016 61.2196 132.8028 61.35376 132.58648 61.48896 132.34104 61.58568 132.0696 61.64496 131.79608 61.7032 131.51528 61.73336 131.22616 61.73336 130.41808 61.73336 129.79616 61.516 129.35936 61.08336 128.92256 60.64968 128.70416 60.0288 128.70416 59.22072 128.70416 58.39288 128.91944 57.7356 129.35 57.24992 129.77952 56.76424 130.42224 56.52088 131.27608 56.52088 131.5184 56.52088 131.7524 56.54584 131.97496 56.59472 132.19856 56.64464 132.40552 56.72264 132.59584 56.83184 132.78616 56.94 132.95568 57.07728 133.10336 57.24472 133.25104 57.4132 133.3748 57.61184 133.47256 57.84168 133.57864 58.084 133.64104 58.3336 133.65976 58.59048 133.67952 58.84632 133.68992 59.12192 133.68992 59.41728L130.10296 59.41728zM132.30048 58.59048C132.30048 58.2192 132.2152 57.9228 132.04464 57.7044 131.87408 57.486 131.61408 57.37784 131.26568 57.37784 130.91104 57.37784 130.63336 57.4912 130.43368 57.72 130.23296 57.94776 130.13312 58.23896 130.13312 58.59048L132.30048 58.59048zM136.47088 57.5952L136.47088 59.86136C136.47088 60.00592 136.47504 60.13176 136.48544 60.23992 136.4948 60.34912 136.52288 60.43752 136.56968 60.50616 136.61544 60.57584 136.68408 60.62784 136.7756 60.66424 136.86816 60.70064 136.9992 60.71832 137.16976 60.71832 137.2488 60.71832 137.32472 60.71312 137.39648 60.70376 137.46928 60.69336 137.54832 60.68608 137.6336 60.6788L137.6336 61.6148C137.46304 61.64184 137.29144 61.6616 137.12088 61.67408 136.95032 61.6876 136.77976 61.69384 136.60816 61.69384 136.35856 61.69384 136.13912 61.67616 135.9488 61.63976 135.75848 61.60336 135.59728 61.53576 135.4652 61.438 135.33416 61.3392 135.23536 61.20296 135.16984 61.02824 135.10432 60.85456 135.07104 60.63304 135.07104 60.36368L135.07104 57.5952 134.11528 57.5952 134.11528 56.6488 135.07104 56.6488 135.07104 55.82096 136.47088 55.25 136.47088 56.6488 137.64296 56.6488 137.64296 57.5952 136.47088 57.5952zM140.24712 57.5952L140.24712 59.86136C140.24712 60.00592 140.25128 60.13176 140.26168 60.23992 140.27104 60.34912 140.29912 60.43752 140.34592 60.50616 140.39168 60.57584 140.46032 60.62784 140.55184 60.66424 140.6444 60.70064 140.77544 60.71832 140.946 60.71832 141.02504 60.71832 141.10096 60.71312 141.17272 60.70376 141.24552 60.69336 141.32456 60.68608 141.40984 60.6788L141.40984 61.6148C141.23824 61.64184 141.06768 61.6616 140.89712 61.67408 140.72656 61.6876 140.556 61.69384 140.3844 61.69384 140.1348 61.69384 139.91536 61.67616 139.72504 61.63976 139.53368 61.60336 139.37352 61.53576 139.24144 61.438 139.1104 61.3392 139.0116 61.20296 138.94608 61.02824 138.88056 60.85456 138.84728 60.63304 138.84728 60.36368L138.84728 57.5952 137.89152 57.5952 137.89152 56.6488 138.84728 56.6488 138.84728 55.82096 140.24712 55.25 140.24712 56.6488 141.4192 56.6488 141.4192 57.5952 140.24712 57.5952zM143.3328 59.41728C143.3328 59.6076 143.35256 59.79064 143.39208 59.96432 143.4316 60.13904 143.49712 60.29296 143.58968 60.42712 143.6812 60.56232 143.79976 60.67048 143.94432 60.75264 144.08888 60.8348 144.26568 60.8764 144.47576 60.8764 145.06128 60.8764 145.392 60.58728 145.47104 60.00904L146.87088 60.00904C146.82408 60.3304 146.72736 60.60184 146.57968 60.82232 146.432 61.04176 146.25 61.2196 146.03264 61.35376 145.81632 61.48896 145.57192 61.58568 145.29944 61.64496 145.02592 61.7032 144.74512 61.73336 144.456 61.73336 143.64792 61.73336 143.026 61.516 142.5892 61.08336 142.1524 60.64968 141.934 60.0288 141.934 59.22072 141.934 58.39288 142.14928 57.7356 142.57984 57.24992 143.00936 56.76424 143.65208 56.52088 144.50592 56.52088 144.74824 56.52088 144.98224 56.54584 145.2048 56.59472 145.4284 56.64464 145.63536 56.72264 145.82568 56.83184 146.01704 56.94 146.18552 57.07728 146.3332 57.24472 146.48088 57.4132 146.60464 57.61184 146.7024 57.84168 146.80848 58.084 146.87088 58.3336 146.8896 58.59048 146.90936 58.84632 146.91976 59.12192 146.91976 59.41728L143.3328 59.41728zM145.53032 58.59048C145.53032 58.2192 145.44504 57.9228 145.27448 57.7044 145.10392 57.486 144.84392 57.37784 144.49552 57.37784 144.14088 57.37784 143.8632 57.4912 143.66352 57.72 143.4628 57.94776 143.36296 58.23896 143.36296 58.59048L145.53032 58.59048zM151.10992 57.89056C150.95184 57.8708 150.80728 57.8604 150.67624 57.8604 150.20928 57.8604 149.87752 57.98624 149.68096 58.2348 149.48336 58.4844 149.3856 58.8328 149.3856 59.28L149.3856 61.6252 147.94624 61.6252 147.94624 57.8708C147.94624 57.6732 147.94 57.47456 147.92648 57.27488 147.914 57.07416 147.90672 56.86928 147.90672 56.6592L149.29616 56.6592 149.33568 57.57544C149.5 57.2468 149.70696 57.00656 149.95656 56.85576 150.20616 56.70496 150.51192 56.62904 150.8728 56.62904 150.91232 56.62904 150.94976 56.62904 150.98616 56.62904 151.02256 56.62904 151.06312 56.63216 151.10992 56.63944L151.10992 57.89056zM160.9764 61.6252L159.42992 61.6252 158.24744 57.8604 156.99632 61.6252 155.4592 61.6252 153.70576 56.6592 155.26264 56.6592 156.28704 60.43232 157.50904 56.6592 159.13456 56.6592 160.27752 60.43232 161.33104 56.6592 162.68096 56.6592 160.9764 61.6252zM168.13264 59.12192C168.13264 59.53584 168.0692 59.90608 167.94128 60.23056 167.81232 60.55608 167.63032 60.8296 167.39424 61.0532 167.15816 61.2768 166.87216 61.44736 166.53728 61.56592 166.2024 61.68448 165.83112 61.74272 165.42344 61.74272 165.00952 61.74272 164.6372 61.68552 164.30544 61.57008 163.97368 61.45568 163.6908 61.28616 163.45784 61.0636 163.22488 60.84 163.046 60.56544 162.9212 60.23992 162.79536 59.91544 162.734 59.54312 162.734 59.12192 162.734 58.708 162.79952 58.34088 162.93056 58.01848 163.0616 57.69608 163.2488 57.42464 163.49216 57.20104 163.73552 56.97744 164.02256 56.80792 164.35432 56.69352 164.68608 56.57808 165.05528 56.52088 165.46296 56.52088 165.8696 56.52088 166.23776 56.57808 166.5664 56.69352 166.89504 56.80792 167.17584 56.97744 167.4088 57.20104 167.64176 57.42464 167.82064 57.69608 167.94544 58.01848 168.07128 58.34088 168.13264 58.708 168.13264 59.12192zM166.63504 59.12712C166.63504 58.93056 166.61736 58.72672 166.58096 58.51976 166.5456 58.3128 166.48112 58.12352 166.3896 57.95608 166.29704 57.78864 166.17224 57.64928 166.0152 57.54112 165.85712 57.43296 165.65952 57.37784 165.42344 57.37784 165.18008 57.37784 164.98144 57.43296 164.82752 57.54112 164.67256 57.64928 164.55192 57.78864 164.46248 57.95608 164.37408 58.12352 164.31272 58.3128 164.28048 58.51976 164.24824 58.72672 164.2316 58.93056 164.2316 59.12712 164.2316 59.32472 164.24824 59.52752 164.28048 59.73448 164.31272 59.94144 164.37408 60.13176 164.46248 60.30336 164.55192 60.47392 164.67256 60.61536 164.82752 60.72352 164.98144 60.83168 165.18008 60.88576 165.42344 60.88576 165.65952 60.88576 165.85712 60.83168 166.0152 60.72352 166.17224 60.61536 166.29704 60.47392 166.3896 60.30336 166.48112 60.13176 166.5456 59.94144 166.58096 59.73448 166.61736 59.52752 166.63504 59.32472 166.63504 59.12712zM172.10648 57.89056C171.9484 57.8708 171.80488 57.8604 171.6728 57.8604 171.20688 57.8604 170.87512 57.98624 170.67752 58.2348 170.48096 58.4844 170.38216 58.8328 170.38216 59.28L170.38216 61.6252 168.94384 61.6252 168.94384 57.8708C168.94384 57.6732 168.9376 57.47456 168.92408 57.27488 168.91056 57.07416 168.90432 56.86928 168.90432 56.6592L170.29376 56.6592 170.33328 57.57544C170.4976 57.2468 170.70456 57.00656 170.95416 56.85576 171.20376 56.70496 171.50848 56.62904 171.8704 56.62904 171.90888 56.62904 171.94736 56.62904 171.98376 56.62904 172.02016 56.62904 172.06072 56.63216 172.10648 56.63944L172.10648 57.89056zM172.65144 61.6252L172.65144 54.5012 174.08976 54.5012 174.08976 61.6252 172.65144 61.6252zM178.68448 61.6252L178.64496 60.9648C178.42136 61.22792 178.19464 61.41928 177.9648 61.54096 177.73496 61.66264 177.44584 61.72296 177.09744 61.72296 176.7168 61.72296 176.38816 61.65432 176.11256 61.516 175.83696 61.37872 175.60816 61.19152 175.4272 60.9544 175.24728 60.71832 175.11416 60.44584 175.02888 60.13696 174.94256 59.82808 174.90096 59.49944 174.90096 59.15208 174.90096 58.83592 174.93944 58.52392 175.01848 58.21608 175.09752 57.9072 175.22336 57.62744 175.39808 57.37784 175.57176 57.12824 175.79328 56.92648 176.06368 56.77256 176.332 56.6176 176.66064 56.54064 177.04856 56.54064 177.39696 56.54064 177.69856 56.5968 177.95544 56.70808 178.21128 56.81936 178.44424 57.01384 178.65432 57.28944L178.65432 54.5012 180.09264 54.5012 180.09264 60.29504C180.09264 60.51136 180.09472 60.73184 180.09784 60.9544 180.10096 61.178 180.1124 61.4016 180.13216 61.6252L178.68448 61.6252zM178.68448 59.12192C178.68448 58.92536 178.66264 58.72776 178.62 58.5312 178.57736 58.3336 178.50872 58.15472 178.41304 57.99352 178.31736 57.83336 178.1936 57.70128 178.03864 57.6004 177.88368 57.49744 177.69232 57.44752 177.46248 57.44752 177.23888 57.44752 177.05688 57.49744 176.91544 57.6004 176.774 57.70128 176.66272 57.83336 176.58056 57.99352 176.4984 58.15472 176.44224 58.33256 176.41312 58.526 176.38296 58.71944 176.3684 58.90872 176.3684 59.0928 176.3684 59.28936 176.38504 59.49008 176.41832 59.69392 176.45056 59.89776 176.50984 60.07976 176.59512 60.23992 176.6804 60.40112 176.79896 60.53424 176.94976 60.63928 177.10056 60.74432 177.29816 60.79736 177.54152 60.79736 177.76408 60.79736 177.94816 60.74328 178.09272 60.63408 178.23728 60.52592 178.35376 60.38968 178.44216 60.22536 178.5316 60.06104 178.594 59.88112 178.62936 59.68352 178.66576 59.48696 178.68448 59.29976 178.68448 59.12192z"/>
      </g>
    </g>
    <g transform="translate(508 54)">
      <mask id="dondereciclo-auspiciantes2-c" fill="#fff">
        <use xlink:href="#dondereciclo-auspiciantes2-b"/>
      </mask>
      <path fill="#0D744E" d="M182.52 75.8330384C182.52 81.3943917 178.642894 86.5209688 173.009589 86.0861927 171.838918 86.0181408 171.180296 85.7270299 171.253391 85.3640864 177.827748 85.870695 181.345119 81.3149978 181.345119 75.8330384 181.345119 72.0032281 179.075724 68.7442978 173.231554 64.4834922 165.555028 58.9221389 163.725735 55.8219963 163.802274 50.9032799 163.802274 44.2530961 169.49681 38.8316273 176.737444 39.3457973 177.617265 39.4176299 178.864858 39.9242385 178.788701 40.1359556 169.791105 39.5575144 164.969501 44.1850442 164.969501 51.629167 164.969501 55.5271047 166.354866 58.4911435 173.744368 63.836999 179.882833 68.3170831 182.52 71.636504 182.52 75.8330384M13.6903462 63.836999C19.8315212 68.3170831 22.464 71.636504 22.464 75.8330384 22.464 81.3943917 18.59219 86.5209688 12.9595273 86.0861927 11.7925127 86.0181408 11.1309494 85.7270299 11.203266 85.3640864 17.7844629 85.870695 21.2855066 81.3149978 21.2855066 75.8330384 21.2855066 72.0032281 19.028003 68.7442978 13.1852776 64.4834922 5.50593914 58.9221389 3.67697861 55.8219963 3.7458516 50.9032799 3.7458516 44.2530961 9.45465728 38.8316273 16.682495 39.3457973 17.5663651 39.4176299 18.8060789 39.9242385 18.7372059 40.1359556 9.7378018 39.5575144 4.91669244 44.1850442 4.91669244 51.629167 4.91669244 55.5271047 6.30180481 58.4911435 13.6903462 63.836999M48.4554338 41.9024562C48.5947964 41.4021699 48.673894 41.184 49.1786126 41.184L49.608 41.184 37.7996954 85.3935438C37.6603328 85.9690611 37.5134371 86.112 37.0124851 86.112L36.504 86.112 48.4554338 41.9024562zM63.0756898 78.624L45.864 78.624 46.0844191 77.752948 62.4980398 77.752948 55.1596046 47.736C56.1784728 47.736 56.2464987 47.8849957 56.3988919 48.3969298L63.5853139 77.8217153C63.7255461 78.4788247 63.6609405 78.624 63.0756898 78.624M65.4933293 82.368L66.456 87.048 66.0898695 87.048C65.6132686 87.048 65.5529833 86.8951837 65.4362003 86.3870694L64.584 82.368 65.4933293 82.368zM106.704 84.9684194L106.704 85.176 92.664 85.176 92.664 84.24 105.949753 84.24C106.480476 84.24 106.704 84.3834194 106.704 84.9684194M85.176 86.3180607L85.176 41.184 85.5112836 41.184C85.9059403 41.184 86.112 41.3330452 86.112 41.9139393L86.112 87.048 85.8430746 87.048C85.4484179 87.048 85.176 86.9753882 85.176 86.3180607M118.872 72.4344716L118.872 42.12 119.239261 42.12C119.740419 42.12 119.889618 42.334783 119.889618 42.8321752L119.889618 70.633309C119.889618 74.8837514 119.671557 79.1266575 121.205636 82.796809 121.423697 83.3017375 121.794784 84.0968113 121.645584 84.24 118.937036 80.7770953 118.872 76.5379572 118.872 72.4344716M145.08 73.5264825C145.08 77.6999581 144.865167 85.893754 135.144913 86.112 134.639867 86.112 133.848 86.112 133.848 85.8210054 141.695437 85.8210054 144.069531 80.3993161 144.069531 72.3586752L144.069531 41.9153154C144.069531 41.3333262 144.288133 41.184 144.793179 41.184L145.08 41.184 145.08 73.5264825z" mask="url(#dondereciclo-auspiciantes2-c)"/>
      <path fill="#FFF" d="M182.565272 76.3446494C182.565272 72.1295126 179.921478 68.7953774 173.767588 64.295434 166.359517 58.9258814 164.970671 55.9487037 164.970671 52.0334871 164.970671 44.5563661 169.804391 39.9083234 178.824597 40.4893287 178.900945 40.2766731 177.650217 39.7678188 176.768185 39.6956678 169.509357 39.1792186 163.800512 44.6247197 163.800512 51.3043824 163.72378 56.2449025 165.55767 59.3587873 173.253485 64.9447929 179.112341 69.2244859 181.387439 72.4978624 181.387439 76.3446494 181.387439 81.8509092 177.861229 86.4268009 171.270352 85.9179466 171.197073 86.2824989 171.85735 86.5749003 173.030963 86.6432539 178.678423 87.0799573 182.565272 81.930655 182.565272 76.3446494M186.294437 40.7893249L186.294437 45.8588813C186.294437 46.7322881 186.155936 47.4575954 185.569321 47.4575954 185.270067 47.4575954 184.905591 47.3170908 184.395325 47.0246894 182.484703 45.9348297 180.363069 45.3614192 178.015076 45.3614192 172.881719 45.3614192 170.026913 48.4753041 170.026913 51.7410858 170.026913 55.4398493 173.253485 57.6233661 176.833407 60.160043 181.974437 63.6460751 188.136 67.7131125 188.136 76.7737579 188.136 85.7698472 180.803893 91.728 171.787908 91.728 163.719943 91.728 160.056 88.8951243 160.056 86.8673017L160.056 81.786353C160.056 80.2635874 160.570103 79.971186 161.080369 79.971186 161.37195 79.971186 161.743716 80.1116906 162.185307 80.4762429 164.306558 82.219259 167.675083 83.6698736 170.68719 83.6698736 174.715609 83.6698736 177.869286 80.8407953 177.869286 76.6332534 177.869286 72.4978624 174.059552 69.7409351 169.950181 66.7637574 164.590465 62.9131729 160.278139 59.3587873 160.278139 51.5208354 160.343744 42.3766467 168.849464 37.44 176.038849 37.44 183.29384 37.5197458 186.294437 39.8323749 186.294437 40.7893249M174.311286 18.940472C174.750625 18.9897073 175.073211 19.3760157 175.027723 19.8153468 174.989816 20.2281665 174.629702 20.5425155 174.2241 20.5311535 174.2241 20.5311535 171.468283 20.4932801 166.657923 20.4213207 164.250847 20.3493613 161.32824 20.2736146 157.973118 20.1751438 156.301433 20.1145464 154.523988 20.0463743 152.643815 19.9744149 151.70335 19.9365416 150.74052 19.8986682 149.758736 19.8645822L149.012353 19.8342835C148.59917 19.8077721 148.360358 19.7698987 148.004035 19.694152 147.325505 19.5464459 146.699665 19.2737576 146.225831 19.020006 142.5413 17.186935 138.534562 15.2023704 134.296592 13.1723578 133.246956 12.6762167 132.14008 12.1459895 131.105227 11.6952964 130.324349 11.3809475 129.570006 11.3468614 128.777756 11.6309117 128.554106 11.7104458 128.405891 11.7861925 128.136753 11.914962L127.257318 12.3580804 125.491245 13.1647831C124.323718 13.6760736 123.148231 14.1835768 121.961752 14.7024419L120.20705 15.4636967 119.30108 15.872729C118.89889 16.0431592 118.538776 16.164354 118.125593 16.2779741 117.326141 16.501427 116.404629 16.6188344 115.449759 16.4862776 114.528626 16.4105309 113.414169 15.8234937 112.982033 15.5621674 110.597701 14.2555362 108.300176 12.8845202 105.95413 11.4983549 103.63424 10.1046149 101.295397 8.69572558 98.9451812 7.27926157L95.4198579 5.13941621 93.8088231 4.15849594C93.4862371 3.98049111 92.9218063 3.83278497 92.66025 3.83278497 92.4972512 3.81763562 91.913488 3.95397975 91.5836997 4.12819725L89.9537115 5.11669218 86.4321789 7.25653755C84.0781727 8.66163955 81.7351595 10.0667415 79.4042764 11.4642689 77.0654329 12.8428595 74.7644961 14.2100881 72.3801645 15.512932L71.9400677 15.7553216C71.6371932 15.9143898 71.6595581 15.9068151 71.3794276 16.0280099 70.8369827 16.2590374 70.4355507 16.3575082 69.9385939 16.4256802 68.9871356 16.558237 68.0735841 16.4446169 67.269962 16.2249514 66.4705097 16.0128605 65.7389104 15.6492762 65.1964655 15.4068866L63.4569269 14.6380572C62.2624867 14.1267667 61.0911696 13.6154762 59.9236432 13.1079731L58.1613606 12.297483C57.5813881 12.0247947 56.8952768 11.6309117 56.6371322 11.5741016 55.8263078 11.2824767 55.0681738 11.3127754 54.2376379 11.646061 53.2296987 12.0853921 52.1072813 12.6194066 51.064847 13.1117604 46.8196754 15.1455604 42.8201393 17.1301249 39.1321963 18.963196 38.6431998 19.2207349 38.055646 19.4820611 37.3770402 19.6335546 37.0131359 19.7017267 36.804649 19.7433874 36.3721335 19.7774734L35.6257506 19.8001974C34.643967 19.8418581 33.6731764 19.8835189 32.7406715 19.9213922 30.8604991 19.997139 29.0830538 20.0690984 27.4034079 20.1372704 24.0604158 20.2471032 21.1378091 20.3379993 18.7345242 20.4213207 13.9203731 20.5273661 11.1721372 20.5917509 11.1721372 20.5917509 10.6983034 20.6031129 10.311276 20.2243792 10.296 19.7585367 10.288911 19.3040563 10.6259016 18.9291099 11.0732007 18.8836619 11.0732007 18.8836619 13.8142343 18.637485 18.6052624 18.1943666 21.0089263 18.0012124 23.9163704 17.7626102 27.2559508 17.4861346 28.9238457 17.3611525 30.7050816 17.232383 32.585254 17.0960389 33.5219286 17.0202921 34.4767984 16.9483327 35.4665424 16.8801607L36.1977627 16.8233506C36.2773668 16.8157759 36.561667 16.7741152 36.6947196 16.7324545 36.9900128 16.6567078 37.3387544 16.4938523 37.7674792 16.2741868 41.4289634 14.3691563 45.3940044 12.3164197 49.639555 10.195511 50.7240657 9.65770916 51.7475467 9.138844 52.9563914 8.59346748 54.3403651 7.95719488 56.2087864 7.82842542 57.7368056 8.38137661 58.6655198 8.71087493 59.0445868 8.98356318 59.6131873 9.22216541L61.2924542 9.95690877C62.4599806 10.4379006 63.6347093 10.926467 64.8253588 11.4188208 65.9887155 11.8619392 67.3761008 12.5891079 68.1986762 12.8011988 68.6573473 12.9223936 69.0819024 12.9526923 69.4386045 12.8996696 69.5940219 12.8807329 69.8328342 12.8011988 69.8972756 12.7784748 69.9234312 12.7671128 70.2342661 12.6080446 70.2342661 12.6080446L70.6516189 12.3694424C72.914649 11.1044719 75.2193765 9.70694454 77.5161436 8.31699189 79.820871 6.90431521 82.1373496 5.48406387 84.4682327 4.05245051L87.9594399 1.88609379 88.8275034 1.34450461C89.1538801 1.14756309 89.3164999 1.01121896 89.8475728.727168689 90.7497523.306774291 91.5112979.0227240215 92.7246914 0 93.8349787.0454480431 94.6351892.280262932 95.533578.704444668 96.0528998.969558253 96.2647983 1.14377575 96.5722217 1.32556792L97.4440758 1.8671571 100.931492 4.02972649C103.266545 5.4461905 105.590226 6.87401652 107.894954 8.27533118 110.1921 9.66907117 112.500239 11.0590238 114.767439 12.3239944 115.472124 12.7178774 115.555898 12.7671128 115.961121 12.8390722 116.30266 12.8883076 116.715843 12.8693709 117.177926 12.7406014 117.394373 12.6837914 117.65972 12.5928953 117.856456 12.5133612L118.73248 12.1270528 120.54025 11.3582234C121.723318 10.8658696 122.906007 10.3773032 124.069743 9.89631138L125.752422 9.15778068 126.556423 8.77525965C126.848304 8.63134085 127.257318 8.44576134 127.632594 8.32077922 129.182978 7.76404069 131.036995 7.88144814 132.473659 8.53665743 133.660139 9.08203394 134.702573 9.60468644 135.771542 10.1349136 140.028465 12.2520349 143.989715 14.3085589 147.655293 16.209802 148.09122 16.4446169 148.409636 16.5923231 148.71289 16.6680698 148.849354 16.7097305 149.103329 16.7513912 149.190135 16.7627532L149.929695 16.8195633C150.911479 16.8915227 151.874309 16.9672694 152.806814 17.0392288 154.690398 17.1831476 156.464811 17.3194918 158.136496 17.4444739 161.479488 17.7360988 164.391102 17.9822757 166.786426 18.1943666 171.578213 18.671571 174.311286 18.940472 174.311286 18.940472M121.552203 84.4985506C121.701568 84.3534269 121.330071 83.5476087 121.111768 83.0358569 119.575991 79.3161085 119.794293 75.0158655 119.794293 70.7079844L119.794293 42.5311194C119.794293 42.0270056 119.644928 41.8093201 119.143215 41.8093201L118.775548 41.8093201 118.775548 72.5334872C118.775548 76.6924256 118.840656 80.9888496 121.552203 84.4985506L121.552203 84.4985506zM145.630594 73.9885428L145.630594 41.7291202 145.339141 41.7291202C144.826322 41.7291202 144.603806 41.8780629 144.603806 42.4585575L144.603806 72.8237345C144.603806 80.8437259 142.191371 86.2514916 134.217199 86.2514916 134.217199 86.5417389 135.021855 86.5417389 135.535058 86.5417389 145.412292 86.3240534 145.630594 78.1513002 145.630594 73.9885428L145.630594 73.9885428zM151.632 38.376L151.632 69.7608616C151.632 79.4688703 151.34476 91.728 133.853745 91.728 116.36273 91.728 116.064 79.4688703 116.064 69.7608616L116.064 38.376 124.845891 38.376C125.512289 38.376 126.017831 38.8839328 126.017831 39.4682465L126.017831 72.5334872C126.017831 77.4180439 126.458266 83.1847996 133.853745 83.1847996 141.241563 83.1847996 141.681998 77.4180439 141.681998 72.5334872L141.681998 39.4682465C141.681998 38.8839328 142.191371 38.376 142.849726 38.376L151.632 38.376zM86.9809666 86.7674232L86.9809666 42.3926528C86.9809666 41.8215291 86.7586909 41.6749908 86.3329765 41.6749908L85.9713077 41.6749908 85.9713077 86.0497612C85.9713077 86.6960327 86.2655404 86.7674232 86.690878 86.7674232L86.9809666 86.7674232zM106.492247 85.1141704L106.492247 84.9075138C106.492247 84.3251179 106.277883 84.182337 105.768909 84.182337L93.0276175 84.182337 93.0276175 85.1141704 106.492247 85.1141704zM110.448 82.6042321L110.448 89.856 84.4609636 89.856C83.8807865 89.856 83.304 89.4201424 83.304 88.7099952L83.304 38.376 91.9467551 38.376C92.7412963 38.376 93.0991978 39.0222715 93.0991978 39.4506143L93.0991978 81.4544699 109.295181 81.4544699C109.946938 81.4544699 110.448 81.9579605 110.448 82.6042321L110.448 82.6042321zM37.9055574 85.5500374L49.8007458 41.3894224 49.3681866 41.3894224C48.8597398 41.3894224 48.7800579 41.6073507 48.6396659 42.1070828L36.600291 86.2676978 37.1125322 86.2676978C37.6171846 86.2676978 37.7651653 86.1249172 37.9055574 85.5500374L37.9055574 85.5500374zM59.2980765 74.4920548L52.915931 48.0738094 47.0460267 74.4920548 59.2980765 74.4920548zM63.4301552 78.0841144C64.0144896 78.0841144 64.0786146 77.9413338 63.938602 77.2950637L56.7634313 48.3556132C56.6116561 47.8521237 56.5433573 47.7055857 55.5260843 47.7055857L62.8534096 77.2274307 46.4654867 77.2274307 46.2450333 78.0841144 63.4301552 78.0841144zM66.3290608 86.9177253L65.1717752 82.3149293 64.0786146 82.3149293 65.1034764 86.2676978C65.2438684 86.76743 65.3159616 86.9177253 65.8889128 86.9177253L66.3290608 86.9177253zM59.8099382 39.8113209L73.944 89.856 64.3749556 89.856C63.498454 89.856 62.917914 89.3562679 62.7016344 88.5672171L61.1117896 82.1759061 45.3044067 82.1759061 43.9308415 88.5672171C43.7107675 89.3562679 43.0581343 89.856 42.1892215 89.856L32.76 89.856 46.6020843 39.5257597C46.8259527 38.8080992 47.4823803 38.376 48.351293 38.376L57.9924307 38.376C58.9338161 38.376 59.5898642 38.9508798 59.8099382 39.8113209L59.8099382 39.8113209zM22.5015224 75.1446494C22.5015224 70.9295126 19.8619126 67.5953774 13.704102 63.095434 6.29592972 57.7258814 4.90706527 54.7487037 4.90706527 50.8334871 4.90706527 43.3563661 9.74085067 38.7083234 18.7650166 39.2893287 18.8336925 39.0766731 17.5906204 38.5678188 16.7047398 38.4956678 9.45693916 37.9792186 3.73266912 43.4247197 3.73266912 50.1043824 3.66360956 55.0449025 5.49790816 58.1587873 13.1976652 63.7447929 19.0566014 68.0244859 21.3198366 71.2978624 21.3198366 75.1446494 21.3198366 80.6509092 17.8096927 85.2268009 11.2102846 84.7179466 11.1377721 85.0824989 11.8011275 85.3749003 12.9713033 85.4432539 18.6192242 85.8799573 22.5015224 80.730655 22.5015224 75.1446494M26.2464687 39.5893249L26.2464687 44.6588813C26.2464687 45.5322881 26.096456 46.2575954 25.5098334 46.2575954 25.2140283 46.2575954 24.8457107 46.1170908 24.3354373 45.8246894 22.4290098 44.7348297 20.3069631 44.1614192 17.9551014 44.1614192 12.822058 44.1614192 9.96721256 47.2753041 9.96721256 50.5410858 9.96721256 54.2398493 13.1976652 56.4233661 16.7887622 58.960043 21.9148998 62.4460751 28.08 66.5131125 28.08 75.5737579 28.08 84.5698472 20.7443403 90.528 11.720558 90.528 3.66360956 90.528-9.45021839e-13 87.6951243-9.45021839e-13 85.6673017L-9.45021839e-13 80.586353C-9.45021839e-13 79.0635874.51372638 78.771186 1.02438345 78.771186 1.3121316 78.771186 1.68390223 78.9116906 2.12549973 79.2762429 4.24677916 81.019259 7.61918758 82.4698736 10.6274987 82.4698736 14.6632625 82.4698736 17.8096927 79.6407953 17.8096927 75.4332534 17.8096927 71.2978624 13.9999071 68.5409351 9.89470002 65.5637574 4.5422006 61.7131729.214468294 58.1587873.214468294 50.3208354.287748159 41.1766467 8.79703671 36.24 15.9753941 36.24 23.2381576 36.3197458 26.2464687 38.6323749 26.2464687 39.5893249" mask="url(#dondereciclo-auspiciantes2-c)"/>
    </g>
    <g transform="translate(54 62)">
      <path fill="#FFF" d="M93.4774691,-1.61228606e-14 C132.391244,-1.61228606e-14 163.595782,4.40770909 179.815244,8.54085818 L179.870836,8.54085818 C184.403345,9.85579636 186.986705,12.9508364 186.986705,16.9988945 L186.986705,78.1463564 C186.986705,85.9781236 184.996713,87.58464 179.2752,90.1498473 C173.645585,92.67648 145.094749,99.9375709 108.447796,89.1049309 C102.763724,87.4087855 97.2827345,85.3178182 92.2306036,83.3300945 C53.8841018,83.2347927 23.1288436,78.8645236 7.14196364,74.8096582 L7.08637091,74.7812945 C2.88968727,73.5605236 0.326749091,70.7343709 0.0283636364,67.0436945 C0,66.4786909 0,61.8077673 0,16.9988945 C0,12.9508364 2.88514909,9.55741091 7.08637091,8.54085818 C25.9118836,4.01061818 54.5444073,-1.61228606e-14 93.4774691,-1.61228606e-14"/>
      <path fill="#0D744E" d="M93.6828218 2.05749818C137.061033 2.05749818 167.079971 7.35128727 179.584931 10.5370909 182.675433 11.43792 185.027345 13.4562764 185.027345 16.8757964L185.027345 16.8757964 185.027345 58.0212218 183.416291 58.7654836C169.512436 65.13936 140.545222 78.3772364 92.1330327 63.7710982 49.6227491 50.9427927 17.7987491 54.8444945 2.29972364 58.4353309L2.29972364 58.4353309 2.29972364 16.8757964C2.29972364 13.4562764 4.69928727 11.43792 7.8 10.5370909 20.3333236 7.35128727 50.3409164 2.05749818 93.6828218 2.05749818zM103.273815 25.8995171C102.379793 25.9324189 101.525481 26.2013062 100.735837 26.5859171 99.2870225 27.3596771 98.0946153 28.6110807 97.3197207 29.7728553L97.1960553 29.7365498C97.4433862 29.0285935 98.0946153 26.8219025 98.0946153 26.8219025L93.3612916 26.8219025 93.3575763 26.8539937C93.3047012 27.3106715 92.6956152 32.5703816 92.0547619 38.0641675L91.8755166 39.5997159C91.3229042 44.3303795 90.782892 48.9196686 90.5895971 50.4567535L95.8334662 50.4567535 96.7456407 42.870048C97.7621935 43.4373207 99.2870225 43.8536989 100.621248 43.8536989L100.735837 43.8536989C105.884404 43.7924335 109.318673 39.600288 109.821277 34.3791098 109.849641 34.233888 109.849641 34.1136262 109.849641 33.9695389L109.849641 32.7771316C109.646557 28.904928 107.200477 25.7803898 103.273815 25.8995171zM29.9566516 21.1700509C22.3256989 21.1700509 17.5084189 25.6957527 16.824288 32.5143709 16.1038516 39.5996073 19.8864262 44.2376291 26.9398953 44.2376291 29.6832262 44.2376291 32.3028916 43.6760291 34.321248 42.3349964L32.6580044 38.5501527C31.2364189 39.0867927 29.8590807 39.7119273 28.0131753 39.7119273 24.0570153 39.7119273 22.0295825 36.5896582 22.4175971 32.6584582 22.8351098 28.4663127 26.0787753 25.6957527 30.0372044 25.6957527 31.3237789 25.6957527 33.1311098 26.07696 34.2599825 26.8223564L36.3191825 22.7493382C35.0428189 21.8190109 32.7782662 21.1700509 29.9566516 21.1700509zM150.606371 21.6419084L145.036887 21.6419084C145.036887 21.6419084 144.635331 25.5624941 144.205362 29.7658198L144.131444 30.4884808C143.748818 34.2295255 143.36063 38.0292996 143.226153 39.3601047 142.715607 44.4769047 148.464349 44.4474065 151.110109 43.6146502L151.443665 40.1576902C149.925644 40.6376029 148.694662 40.0703302 148.763869 39.3601047L150.606371 21.6419084zM45.3966807 25.899744C45.0733353 25.899744 44.7692771 25.899744 44.479968 25.9326458 39.1271825 26.3172567 35.993568 30.0964276 35.481888 34.8955549 35.481888 35.1054458 35.4501207 35.3164713 35.4501207 35.5150167L35.4501207 36.6438895C35.6668189 40.8405731 38.3727098 43.8539258 43.5802735 43.8539258 43.8831971 43.8539258 44.1781789 43.8539258 44.479968 43.821024 49.8633862 43.4364131 52.9856553 39.6856058 53.465568 34.8955549 53.4939316 34.6811258 53.4939316 34.473504 53.5222953 34.2942458L53.5222953 33.1336058C53.2897135 28.9403258 50.6042444 25.899744 45.3966807 25.899744zM133.693702 25.899744C133.394182 25.899744 133.103738 25.899744 132.797411 25.9326458 127.421935 26.3172567 124.290589 30.0964276 123.811811 34.8955549 123.781178 35.1054458 123.781178 35.3164713 123.75168 35.5150167L123.75168 36.6438895C123.991069 40.8405731 126.673135 43.8539258 131.882967 43.8539258 132.202909 43.8539258 132.508102 43.8539258 132.797411 43.821024 138.169484 43.4364131 141.292887 39.6856058 141.794356 34.8955549 141.794356 34.6811258 141.830662 34.473504 141.830662 34.2942458L141.830662 33.1336058C141.617367 28.9403258 138.911476 25.899744 133.693702 25.899744zM161.774836 25.8994036C161.535447 25.8994036 161.317615 25.8994036 161.092975 25.9323055 156.416378 26.2840145 152.662167 30.4228364 152.182255 35.2537309 152.157295 35.4318545 152.157295 35.6394764 152.157295 35.8164655L152.157295 36.7933091C152.334284 40.5123491 154.660102 43.8535855 159.807535 43.8535855 160.225047 43.8535855 160.677731 43.8206836 161.092975 43.79232 163.321222 43.5529309 165.643636 42.7508073 167.340916 41.3814109L165.853527 38.0197527C164.243607 39.08736 163.087505 39.6852655 161.140625 39.6852655L161.092975 39.6852655C158.079622 39.6852655 157.512349 37.4831127 157.638284 36.1965382L168.76704 36.1965382C169.338851 30.4228364 167.876422 25.8994036 161.774836 25.8994036zM81.1800175 26.2557644C79.1911593 26.6142807 77.1353629 27.2643753 75.7931956 27.9541789L77.0480029 31.3158371C78.2948684 30.8075607 79.7879302 30.3355898 81.1800175 30.1608698 81.5442065 30.1291025 81.8618793 30.0962007 82.1965702 30.0962007 83.2437556 30.0962007 83.8938502 30.7236044 83.7781265 32.0635025L83.7055156 32.6875025C82.8500684 32.7771316 81.9878138 32.8951244 81.1800175 33.0142516 80.5843811 33.1345135 80.020512 33.2536407 79.6120756 33.3739025 76.0632175 34.2940189 74.0664175 35.6100916 73.7373993 39.0625135 73.7373993 39.1203753 73.7147084 39.1748335 73.7147084 39.2360989L73.7147084 40.0699898C73.8882938 42.4525353 75.7285265 43.8536989 78.2631011 43.8536989 79.246752 43.8536989 80.2599011 43.5848116 81.1800175 43.1661644 81.9038575 42.870048 82.5618938 42.4525353 83.1178211 42.0633862 83.2119884 43.2580625 84.1854284 43.8536989 85.6807593 43.8536989 86.3921193 43.8536989 87.9657338 43.6755753 88.9777484 43.3783244L89.4292975 39.8056407C89.2761338 39.8669062 89.1581411 39.8895971 89.0719156 39.8895971 88.3526138 39.8895971 88.2062575 39.3892625 88.2663884 38.7607244L89.0719156 30.6362444C89.3975302 27.4164044 87.6117556 25.9573789 84.6358429 25.8995171 83.589792 25.8700189 82.3985193 26.0152407 81.1800175 26.2557644zM67.4865076 25.8995171C64.6047622 25.9324189 62.2199476 28.3966516 60.7892858 29.8897135L60.6383913 29.8897135C60.5801513 29.8356335 61.4342513 27.2742868 61.5770057 26.8477712L61.5970822 26.7878662 61.5970822 26.7878662 56.7446313 26.7878662 54.8635549 43.2580625 60.4058095 43.2580625 61.6209076 32.4220189C62.4264349 31.7083898 63.7946967 30.901728 64.687584 30.901728 66.3235985 30.901728 66.5924858 31.975008 66.4483985 33.3115025 66.0898822 36.7934225 65.7313658 40.0699898 65.3773876 43.2580625L70.9105658 43.2580625C71.3258095 39.600288 71.7467258 35.906208 72.0723404 32.4549207 72.5454458 27.8634153 70.8799331 25.8416553 67.4865076 25.8995171zM123.924716 25.9004212L123.810676 25.8995171 123.810676 25.8995171C120.957295 25.9324189 118.574749 28.3966516 117.144087 29.8897135L116.965964 29.8897135C116.938924 29.8356335 117.789904 27.2742868 117.931921 26.8477712L117.951884 26.7878662 117.951884 26.7878662 113.102042 26.7878662 111.220966 43.2580625 116.759476 43.2580625 117.97344 32.4220189C118.786909 31.7083898 120.12 30.901728 121.015156 30.901728 121.522298 30.901728 121.876276 30.9924916 122.859927 31.3407971L124.492538 25.9573789C124.208335 25.9139825 124.047938 25.9031335 123.924716 25.9004212zM83.4139375 35.5771898L83.0826502 38.9967098C83.0259229 39.2984989 82.1659375 39.8895971 81.1800175 40.0404916 81.0359302 40.0699898 80.8873047 40.0960844 80.7330065 40.0960844 79.8446575 40.0960844 78.8564684 39.5288116 78.9438284 38.4010735 79.096992 37.0611753 80.1044684 36.2919535 81.1800175 35.9368407 81.630432 35.8165789 82.0434065 35.7224116 82.4609193 35.6974516 82.9079302 35.6679535 83.2119884 35.6100916 83.4139375 35.5771898zM101.332608 30.5432116C103.925044 30.5432116 104.569466 32.6228335 104.345961 34.9781498 104.099764 37.366368 102.917568 39.4142225 100.735837 39.8056407 100.503255 39.8317353 100.245713 39.8669062 99.9677498 39.8669062 99.0952844 39.8669062 97.9153571 39.600288 97.1109644 38.8843898L97.950528 31.7730589C98.923968 31.1740189 99.8463535 30.7565062 100.735837 30.5999389 100.942324 30.5749789 101.159023 30.5432116 101.332608 30.5432116zM44.9519389 30.3097222C47.599968 30.3097222 48.1354735 32.6877295 47.9278516 34.8955549 47.7190953 36.9751767 46.801248 39.2068276 44.479968 39.4757149 44.3245353 39.4757149 44.1781789 39.5052131 44.0284189 39.5052131 41.3758516 39.5052131 40.8131171 37.0977076 41.0456989 34.8955549 41.260128 32.838624 42.1791098 30.6001658 44.479968 30.3346822 44.6240553 30.3097222 44.8101207 30.3097222 44.9519389 30.3097222zM133.246691 30.3097222C135.893585 30.3097222 136.473338 32.6877295 136.224873 34.8955549 136.025193 36.9751767 135.096 39.2068276 132.797411 39.4757149 132.654458 39.4757149 132.508102 39.5052131 132.332247 39.5052131 129.677411 39.5052131 129.147578 37.0977076 129.359738 34.8955549 129.558284 32.838624 130.480669 30.6001658 132.797411 30.3346822 132.957382 30.3097222 133.103738 30.3097222 133.246691 30.3097222zM161.812276 29.5004509C163.680873 29.5004509 164.307142 31.0547782 164.125615 32.8042473L158.047855 32.8042473C158.497135 31.3406836 159.653236 29.9508655 161.092975 29.5912145 161.317615 29.5333527 161.563811 29.5004509 161.812276 29.5004509zM2.56146327 67.8151855C3.18319418 70.2567273 5.23899055 71.7792873 7.79965964 72.5485091 19.6159505 75.5323636 47.0662778 80.4120436 86.6017833 80.9520873 66.1164305 72.7618036 42.6324742 63.8317964 2.56146327 67.8151855"/>
      <path fill="#0D744E" d="M185.171433,60.4062633 C171.509236,66.6213033 141.677498,81.0345687 91.5190167,65.8793105 C44.9198313,51.8313687 11.8194676,58.4355578 2.29949673,60.736416 L2.29949673,65.6467287 C57.4247913,60.1078778 81.092544,78.5680669 109.3189,86.9308015 C146.649076,98.0062342 174.45792,90.002016 178.681833,88.0891724 C183.828131,85.7656233 185.171433,84.810336 185.171433,78.0915578 L185.171433,60.4062633 Z"/>
    </g>
    <g filter="url(#dondereciclo-auspiciantes2-d)">
      <g transform="translate(277 59)">
        <g filter="url(#dondereciclo-auspiciantes2-e)">
          <path fill="#AF3234" d="M75.3649081,55.7401143 C68.0984806,51.0819687 58.2382775,50.2634627 42.3353828,54.6562995 C25.3811413,58.6212553 19.7297275,61.1637042 12.3056547,56.0607429 C9.45329552,53.5532922 8.43143643,49.5172111 9.19471187,43.7018673 C10.9662367,34.2241327 15.7511685,25.1020249 24.251539,14.9841622 C28.9967759,9.72088664 33.3972346,5.2038627 39.208562,3.39073087 C43.6634594,2.25272534 43.2460963,5.73786728 42.7073803,6.2357447 C42.1391768,6.2357447 41.1842319,6.32493363 40.4459075,6.80474747 C39.845948,7.26649773 38.2014467,8.76125896 38.1129839,10.7697033 C37.9859603,13.8461567 41.1842319,13.2060286 42.5633447,11.5170839 C44.0490666,9.61476311 46.2470276,5.9693069 44.5186,2.57222491 C43.7938853,1.36309403 42.5429302,0.527653462 40.9880258,0.243152079 C35.6666464,-0.0594128842 30.7104597,2.46610138 26.1376119,5.25805344 C16.1333733,12.1752756 8.13202378,21.7591337 3.60340741,32.2506866 C0.993753948,38.5808424 -1.36752311,47.6498885 2.17099006,55.0288609 C4.90880121,60.1498858 10.5919709,62.8707125 17.3718529,62.3017097 C22.1284311,61.8038323 27.8773809,60.2752018 31.7459285,59.3505723 C35.6133419,58.4248139 55.4108694,51.6509714 61.9162898,63.4408442 C61.9162898,63.4408442 64.0790925,59.2613834 69.4843982,59.1721945 C73.9290883,58.763506 80.339241,60.4524507 85.0084906,63.8664673 C83.4535863,61.5373945 79.0440545,58.1053143 75.3649081,55.7401143"/>
          <path fill="#AF3234" d="M43.2486836 17.1752292C39.4955433 14.7971765 31.9501673 19.3444663 25.9065074 27.147278 20.3802842 34.145928 17.9943264 42.2797344 20.5907084 46.0417448 24.4542353 50.4679661 31.625907 44.0302299 34.6753336 40.5836641L35.0685854 40.1815833C37.1429314 38.0290069 38.7458351 35.4399174 40.2958453 32.9552356 40.2958453 32.9552356 41.7216706 30.6815907 41.7895123 30.5760722 42.6703045 30.4194606 43.7316245 30.1739914 44.927478 29.841886 44.9102302 29.8940898 40.3521884 37.2948207 40.8167315 40.9679734 40.9616137 42.0875797 40.8512272 46.1816956 44.9895704 47.4234811 50.5042951 48.3153897 54.9071059 44.1868415 58.7924801 40.5136887 58.7924801 40.5136887 59.4536491 39.900571 59.8285032 39.5518048 59.7330649 39.9183425 59.61003 40.4081703 59.61003 40.4081703 57.9956277 45.8318186 60.1711612 46.9691964 61.5325945 47.3879381 65.6479405 48.5430874 70.5624387 42.7706728 70.5785367 42.7706728 70.4509023 44.5900331 70.078348 46.0939486 72.0630049 47.3013019 73.9361255 47.9488519 75.8322433 46.9858572 77.2730169 46.0595163 82.4634812 42.5252036 86.6455191 36.9616045 90.0226555 32.2388209L87.8689693 32.2388209C87.8436724 32.2732532 82.5520204 39.6217802 79.1162411 41.2301035 79.1116417 41.2301035 78.4861183 41.5277766 78.1250625 41.2823073 77.680067 40.9157696 77.8559955 40.0927257 78.1319617 39.5518048 78.1492096 39.5162617 91.3955874 17.2629761 91.3955874 17.2629761L85.1415033 17.2629761C85.1415033 17.2629761 84.4584869 18.3825824 84.4021438 18.4525578 84.359599 18.4181254 84.2595613 18.2604031 84.1905697 18.1726562 80.3143944 12.9944771 71.5386691 20.9716719 64.9315783 30.2084238 62.3880897 33.760508 59.1489364 37.7668769 55.7913476 40.6525288 55.7913476 40.6525288 50.8159069 45.0620893 48.6909672 41.8954251 47.9136623 40.5658926 48.1528331 38.6243531 48.5909294 37.3470245 51.0654264 30.5416399 55.3302541 24.3660338 60.1826598 20.6395665 61.5521421 19.6077071 63.0412098 19.310034 63.7805692 19.7476579 64.484283 20.1497387 64.5981191 21.1471657 64.1531236 21.8291481 63.022812 21.7947158 62.1178728 22.1268212 61.3808131 22.8610075 59.9308407 24.3304908 59.4272023 25.7488809 59.8882959 27.0773026 62.1270717 30.1573306 66.5942746 24.0683607 66.3781011 20.3596649 66.3010605 19.0301324 65.5663005 17.7705754 64.4704847 17.1574576 62.8376847 16.2133452 60.34479 16.4588144 58.7326874 17.2107722 56.5744017 17.9982731 53.1558704 20.7439742 51.1620145 22.878779 48.6495722 25.5556155 44.3433496 28.530125 42.9968645 28.1969089 43.4384104 27.0595311 47.0765649 19.8698371 43.2486836 17.1752292zM73.8847202 28.3411618C75.0690184 26.6558391 78.5166918 22.1440059 79.357342 21.3835975 82.184882 18.8274289 83.3143308 19.9525112 83.4117164 20.7485817 80.7733507 25.6043818 77.6603703 31.1676723 74.733206 36.1684217 74.7388029 36.1500154 73.8164383 37.599508 73.8164383 37.599508 72.5235608 39.6287976 71.2217283 41.3681887 69.0982749 42.5830015 68.7949244 42.672732 68.2956834 42.7095445 67.9632292 42.4553081 67.5636125 42.1838158 67.4057807 41.7317122 67.451675 41.2600519 67.5781644 39.7012722 69.1217818 34.936353 73.8847202 28.3411618zM40.1913359 30.6587497C40.1913359 30.6587497 40.1345782 30.8105817 40.1055955 30.860836 40.0983499 30.860836 37.2411441 34.9859628 37.2411441 34.9859628 35.5178843 37.0239337 33.3647153 39.5836936 30.6741597 40.8133192 29.8759293 41.0496212 28.7745888 41.200384 28.21305 40.5780865 27.0211387 39.3153144 27.6358123 37.5628305 28.1333478 36.1492956L28.3096588 35.6435452C29.7394694 32.208078 32.0097766 29.1767834 34.2172881 26.3636137 34.2450631 26.3475752 34.3066512 26.3304673 34.3283882 26.3304673 34.3344263 26.3475752 34.3428795 26.3475752 34.3465024 26.3807216 35.7328389 28.7383952 38.3316161 29.8332966 40.274661 30.3379778 40.2867371 30.3379778 40.2988132 30.3550856 40.2988132 30.3893013 40.2988132 30.4395555 40.2662077 30.5069176 40.1913359 30.6587497zM41.1591209 25.4281922C41.1482103 25.4596422 40.0091421 27.8894077 40.0091421 27.8894077 39.8443919 28.0162222 39.5847192 27.9523077 39.2868595 27.8894077L38.7762427 27.809261C37.1712913 27.3456272 35.9613042 26.3544452 35.5881612 25.1725342 35.0731802 22.8716123 37.1876573 21.065774 38.1194237 20.4103968 39.011912 19.8351663 40.4019243 19.531826 41.2093097 20.1232888 41.7068337 20.6660548 41.8955874 21.3691143 41.8955874 22.1360883 41.8955874 23.1749525 41.550812 24.3416457 41.1591209 25.4281922L41.1591209 25.4281922zM121.419282 32.8256317C120.816995 31.544772 119.388714 30.7270097 117.866362 30.8151112 112.923019 31.2601365 108.086366 35.2631055 105.54873 41.0089022 104.216815 43.9625602 103.489481 46.400034 103.011093 50.2776278 104.549507 48.5348002 107.684841 45.6703731 111.242351 44.1048779 111.242351 44.1048779 111.727622 40.3865444 114.196426 37.077092 115.130258 35.7081309 117.000216 33.5010763 119.099617 34.0884193 120.934011 34.6938345 120.289277 39.6930278 117.851448 44.5307017 116.048028 48.0897749 113.287833 51.6477185 110.494367 54.1032644 108.025564 56.1668718 104.371688 58.6574323 101.175551 56.7361427 99.1621915 55.5614566 98.1354354 53.1059107 98.3522587 49.9399056 99.3147709 40.9558154 103.467684 33.3056717 109.412545 24.5892745 115.542107 16.4941055 122.296901 8.18658938 131.398894 3.75666712 133.255085 2.83047226 134.974758 2.61812514 136.4604 3.18739613 136.4604 3.18739613 127.915953 7.81272291 123.843345 16.3698598 122.808558 18.5407702 121.367658 21.4752266 122.817736 24.0730903 123.576044 25.4251089 124.92402 25.5312824 126.00699 25.4601236 130.998516 24.3215816 134.224481 19.7312695 136.858483 15.5340254 138.387719 12.3488187 139.74602 9.1828136 139.74602 5.65988461 139.74602 5.23293137 139.723075 4.66366038 139.686365 4.23670714 142.070274 2.9908621 146.960846 5.19678718 146.960846 5.19678718 150.782214 6.44263222 158.920548 12.5803674 161.664683 13.7539241 163.004628 12.2245731 165.203837 9.91247444 166.443974 8.75586036L164.649732 7.67040517C161.778257 5.94452011 158.743877 4.30786601 155.755385 2.68928402 148.970764-.95789063 143.448078.322969094 140.638552 1.31919332 139.533785 1.71000238 138.524237 2.04885415 138.524237 2.04885415 136.437456-.193215116 133.017612.0202615052 130.497184.625676683 121.433049 3.18739613 113.01709 9.43130491 103.993108 20.2655258 97.359919 28.7515038 93.2448638 36.0819973 91.0513914 43.3221303 89.3615458 48.1970779 88.8475941 55.366052 92.9741214 59.6175124 96.4823006 63.2285428 101.133104 62.4457952 104.418724 61.1479929 111.537185 57.6962228 117.934048 50.2595557 121.121007 41.7024188 121.888493 39.1587715 122.743167 35.5646836 121.419282 32.8256317zM137.678668 6.19875969C136.690316 16.494072 127.875804 22.5363787 125.695651 23.0184079 124.375039 23.2588759 122.119044 22.7265671 124.133067 18.4047001 127.09692 12.5853729 132.15786 7.64484719 137.589583 5.11446732 137.720802 5.54512376 137.71719 5.81947597 137.678668 6.19875969L137.678668 6.19875969zM187.500726 7.30697782C182.963981 9.76848015 178.262535 11.3617995 172.570584 10.8072187 170.992685 12.5061725 169.457402 14.2568431 168.040749 16.0592306 176.029291 18.0002633 184.500416 13.6846566 189.222593 9.57701774 194.220039 5.43526773 196.782684.218467318 196.782684.218467318 196.782684.218467318 193.03604 4.30850046 187.500726 7.30697782"/>
          <polyline fill="#AF3234" points="102.573 14.906 96.448 14.906 92.992 21.434 99.117 21.434 102.573 14.906"/>
          <path fill="#AF3234" d="M173.337563,56.0984853 C172.696454,56.5293751 171.794281,56.1691604 172.131585,55.1819898 C172.97138,52.6684665 176.309766,47.4977899 176.309766,47.4977899 L185.605265,31.1775571 L179.238073,31.1775571 C178.935424,31.7155993 178.288539,32.829301 178.288539,32.829301 C177.993976,32.3448351 177.112596,31.2847096 176.749879,31.052166 C175.19389,30.0820941 172.911312,30.5494613 171.335687,31.4283395 C164.490263,35.3793018 159.494235,43.1888928 155.555171,49.274925 C155.555171,49.274925 151.40818,56.0437692 149.105964,56.5464739 C147.309704,56.6901038 147.493373,54.3019716 147.570769,53.7456907 C148.266169,49.7240534 149.88107,45.8996223 151.506367,42.4354058 C154.812409,40.1726648 158.587442,37.2100131 162.017085,33.9601015 C169.459722,26.940475 175.734501,18.9861141 176.651691,17.2089791 C176.651691,17.2089791 175.659416,17.4061852 174.485783,17.4426626 C168.760855,25.3240686 157.043005,36.7791234 153.490917,38.4844435 C155.064232,34.750066 165.23187,16.9217192 173.883949,8.3939787 L175.245872,7.10016965 C177.350557,5.0722522 179.532637,2.9896186 181.231864,2.64764263 C181.412067,2.63054384 181.643097,2.64764263 181.842939,3.06143355 C181.918023,4.64136249 181.323121,5.80864043 180.639271,7.13664708 L179.681651,9.07565078 C179.681651,9.07565078 181.037798,8.82486841 181.929575,8.53646868 C182.96459,6.6157037 184.109344,4.46125515 183.686559,1.8941556 C183.545631,1.06771369 182.940332,0.439617846 182.147898,0.295987942 C179.567291,-0.188478003 176.753344,1.69580954 174.490403,3.22330217 L174.399147,3.2768784 C162.764467,12.2719861 152.938754,25.2351549 144.350208,42.9381104 C143.726427,43.4043377 141.321403,43.9606186 140.912479,43.6915975 C141.761515,41.9680386 142.828874,39.6517215 143.363709,37.1381981 C143.457276,36.4200486 143.542758,35.6836604 143.542758,34.9655109 C143.542758,33.4220594 143.166178,31.9675216 141.763825,30.9621123 C140.118891,30.1539091 138.085825,30.5312226 136.715816,31.1410797 C130.575034,33.6557429 125.986775,39.8671663 122.674958,44.9842666 C120.893715,48.2341782 119.118248,51.7166334 118.626154,55.7029332 C118.279609,58.8274535 118.985406,60.8371322 120.785131,61.8436815 C122.635683,62.7761359 124.965622,61.8072041 125.880501,61.3409768 C132.099833,58.109304 136.446666,51.6277196 139.872843,45.7024161 C140.009151,45.6841774 141.87934,45.6306012 143.2944,45.2715264 C143.314038,45.2715264 143.320969,45.2715264 143.352158,45.2897651 C143.271297,45.5587862 142.540087,47.7132348 142.540087,47.7132348 C140.368403,53.997613 139.364577,58.2711726 141.416125,60.8017947 C144.346743,64.3743036 149.198376,60.6764035 153.145526,55.7929868 C152.298801,61.6453354 155.372657,62.561831 157.715303,62.1127026 C160.406805,61.3945531 163.406731,58.5572925 164.797533,57.1038947 C164.351645,58.8092148 164.474091,61.8607803 166.921855,62.1662788 C168.599134,62.4717773 169.855938,61.6282366 171.310273,60.8565109 C176.523469,58.0545878 182.762439,48.6650679 184.383115,46.0797296 L182.258793,46.0797296 C179.955422,49.4367936 177.024804,53.9611356 173.337563,56.0984853 Z M126.955021,55.0209386 C126.640742,54.5126658 126.536349,53.9278531 126.52536,53.3262973 C126.464922,49.633247 130.116491,43.0591868 132.693357,39.3864673 C132.699951,39.3864673 132.699951,39.3864673 132.699951,39.3864673 C133.779048,42.1179851 136.225148,43.6439995 137.702039,44.3412302 C135.868013,48.7865243 129.578041,58.3360732 126.955021,55.0209386 Z M138.463154,42.6408773 C138.287993,42.7637157 135.195674,41.7179296 134.599684,38.8417411 C134.092927,36.3661606 135.789461,34.4317329 137.432014,33.4556658 C138.135966,32.8979132 139.199053,32.7064624 139.976815,32.9853387 C140.699494,33.4733723 140.895587,34.3443074 140.895587,35.2860682 C140.895587,35.8615273 140.819574,36.4535861 140.752373,36.9936322 C140.752373,36.9936322 140.740255,37.0987642 140.738052,37.115364 C140.222482,39.0508983 139.433704,40.9510197 138.463154,42.6408773 Z M165.649465,53.8347167 C165.64718,53.8347167 165.041498,54.3839686 165.041498,54.3839686 C164.176402,55.1717727 163.285021,56.0154329 162.211936,55.5941846 C161.914809,55.483636 161.705677,55.0810065 161.655394,54.7691431 C161.606254,52.5151157 162.605058,50.4251657 163.57072,48.3910718 L163.817564,47.859275 C166.599129,43.1312867 169.832098,37.5584746 174.580414,33.6916016 C175.380371,33.1051123 176.248896,32.6093892 177.164276,32.9945637 C177.375693,33.1970422 177.621394,33.5449793 177.621394,33.8929164 C177.621394,34.003465 177.525399,34.2967096 177.469402,34.3874759 C176.142616,36.5693557 174.879827,38.8606205 173.652464,41.0587918 C171.252593,45.4027692 168.762441,49.8933689 165.649465,53.8347167 L165.649465,53.8347167 Z"/>
        </g>
        <path fill="#000" fill-rule="nonzero" d="M29.3502841,95.5578947 C35.7149971,95.5578947 39.7717391,91.8381338 39.7717391,86.2893192 L39.7717391,71.4 L36.3555353,71.4 L36.3555353,86.3098704 C36.3555353,90.060458 33.7120443,92.5368734 29.4519568,92.5368734 C25.1817021,92.5368734 22.5077093,90.060458 22.5077093,86.3098704 L22.5077093,71.4 L19,71.4 L19,86.2995948 C19,91.8381338 22.9855711,95.5578947 29.3502841,95.5578947 Z M48.0138587,94.7526316 L48.0138587,86.8588252 C48.0138587,83.0770421 49.4326691,80.1687977 53.1298611,80.1687977 C53.8340882,80.1687977 55.020562,80.1687977 55.75,80.1687977 L55.75,77.3351236 C54.973279,77.1433712 54.124064,77.0368421 53.2852053,77.0368421 C50.8307669,77.0368421 49.1116244,77.9636453 47.8067331,80.1368389 L47.4546196,77.3883881 L44.5652174,77.3883881 L44.5652174,94.7526316 L48.0138587,94.7526316 Z M66.44464,95.5578947 C69.0655416,95.5578947 71.5152822,94.6780612 73.1947988,92.651103 L73.1947988,95.1903693 L76.5217391,95.1903693 L76.5217391,77.0368421 L72.9380574,77.0368421 L72.9380574,87.1493591 C72.9380574,90.5795962 70.6380825,92.3281261 67.3218397,92.3281261 C64.1446651,92.3281261 62.5293339,90.7577903 62.5293339,87.4389246 L62.5293339,77.0368421 L58.9456522,77.0368421 L58.9456522,87.5725702 C58.9456522,92.5842802 61.6200415,95.5578947 66.44464,95.5578947 Z M89.8995054,102 C95.6151078,102 99.6902174,98.9372267 99.6902174,93.4502089 L99.6902174,76.5887221 L96.3674357,76.5887221 L96.3674357,79.164482 C94.7896369,77.1839607 92.1564892,76.2315789 89.6487294,76.2315789 C84.9989249,76.2315789 80.5163043,79.4675125 80.5163043,85.1493358 C80.5163043,90.6255311 84.6750059,94.0238025 89.4710964,94.0238025 C91.8743662,94.0238025 94.6955959,93.1471783 96.2002517,91.2640598 L96.2002517,92.8549703 C96.2002517,97.1623334 93.410369,98.9372267 89.7114234,98.9372267 C87.4021946,98.9372267 84.8297076,98.1211073 83.1578677,97.0280328 L82.2707373,99.7272959 C84.4232311,101.404787 86.7961527,102 89.8995054,102 Z M90.1032609,90.7263158 C86.3275759,90.7263158 83.7119565,88.4507018 83.7119565,85.0999123 C83.7119565,81.8430702 86.1962478,79.4526316 90.1142049,79.4526316 C94.032162,79.4526316 96.4945652,81.8326316 96.4945652,85.0268421 C96.4945652,88.1897368 94.0868821,90.7263158 90.1032609,90.7263158 Z M111.982683,95.5578947 C114.603585,95.5578947 117.053326,94.6780612 118.732842,92.651103 L118.732842,95.1903693 L122.059783,95.1903693 L122.059783,77.0368421 L118.476101,77.0368421 L118.476101,87.1493591 C118.476101,90.5795962 116.176126,92.3281261 112.859883,92.3281261 C109.682709,92.3281261 108.067377,90.7577903 108.067377,87.4389246 L108.067377,77.0368421 L104.483696,77.0368421 L104.483696,87.5725702 C104.483696,92.5842802 107.158085,95.5578947 111.982683,95.5578947 Z M145.228261,95.3726587 L145.228261,92.5172971 C142.47065,93.19707 143.032674,91.5015559 143.032674,90.1133762 L143.032674,82.5856048 C143.032674,78.3533496 140.018464,76.2315789 134.65009,76.2315789 C131.998905,76.2315789 129.223694,77.2627468 127.100546,78.6734986 L128.932588,81.0039546 C130.68171,80.1800755 131.965903,79.2788027 134.166056,79.2788027 C137.191267,79.2788027 139.413422,80.339688 139.413422,83.1724776 L139.413422,83.8044943 C137.7854,83.8044943 136.036186,83.8044943 134.243061,83.8044943 C128.302647,83.8044943 125.255435,86.2648454 125.255435,89.8086538 C125.255435,93.4540363 128.48966,95.3726587 132.592946,95.3726587 C135.486148,95.3726587 138.346347,94.4133475 139.644438,92.5172971 L139.666439,92.5172971 C139.666439,93.7611534 140.943356,96.2558394 145.228261,95.3726587 Z M132.892412,92.82 C130.820392,92.82 128.770652,91.9544606 128.770652,89.7479448 C128.770652,87.5292382 130.842672,86.4808384 134.563395,86.4808384 C136.356918,86.4808384 138.250699,86.2492152 139.476087,86.4808384 L139.476087,88.3703962 C139.476087,91.0035864 135.889042,92.82 132.892412,92.82 Z M149.599836,101.194737 C152.138087,101.194737 154.632575,100.001246 155.934523,97.3776249 L166,77.0368421 L162.225446,77.0368421 L155.934523,90.1858155 L149.938999,77.0368421 L145.93469,77.0368421 L154.030835,93.9411952 L153.243102,95.3919035 C152.02868,97.6245539 151.431874,98.2418766 148.844926,98.2418766 C148.254126,98.2418766 147.099127,97.7588678 146.573971,97.6559807 L145.228261,100.368495 C147.453538,101.194737 148.658933,101.194737 149.599836,101.194737 Z"/>
      </g>
    </g>
  </g>
</svg>
