<svg id="enm2inq2s3m81" xmlns="http://www.w3.org/2000/svg" xmlns:xlink="http://www.w3.org/1999/xlink" viewBox="0 0 375 500" shape-rendering="geometricPrecision" text-rendering="geometricPrecision"><g id="enm2inq2s3m82"><g id="enm2inq2s3m83" transform="matrix(1 0 0 1 0 291)"><path id="enm2inq2s3m84" d="M204.802200,62.005900C204.802200,77.385900,217.270200,89.853900,232.650200,89.853900C248.031200,89.853900,260.499200,77.385900,260.499200,62.005900C260.499200,46.625900,248.031200,34.157900,232.650200,34.157900C217.270200,34.157900,204.802200,46.625900,204.802200,62.005900" fill="rgb(13,99,62)" fill-rule="evenodd" stroke="none" stroke-width="1"/><path id="enm2inq2s3m85" d="M252.393300,71.637000C252.393300,81.698000,260.549300,89.854000,270.610300,89.854000C280.671300,89.854000,288.828300,81.698000,288.828300,71.637000C288.828300,61.576000,280.671300,53.420000,270.610300,53.420000C260.549300,53.420000,252.393300,61.576000,252.393300,71.637000" fill="rgb(13,99,62)" fill-rule="evenodd" stroke="none" stroke-width="1"/><path id="enm2inq2s3m86" d="M191.960200,71.637000C191.960200,81.698000,200.116200,89.854000,210.177200,89.854000C220.238200,89.854000,228.395200,81.698000,228.395200,71.637000C228.395200,61.576000,220.238200,53.420000,210.177200,53.420000C200.116200,53.420000,191.960200,61.576000,191.960200,71.637000" fill="rgb(13,99,62)" fill-rule="evenodd" stroke="none" stroke-width="1"/><polygon id="enm2inq2s3m87" points="209.047000,89.655800 270.610000,89.655800 270.610000,71.666800 209.047000,71.666800" fill="rgb(13,99,62)" fill-rule="evenodd" stroke="none" stroke-width="1"/><path id="enm2inq2s3m88" d="M175.619300,62.080900C175.619300,77.419900,163.184300,89.853900,147.846300,89.853900C132.507300,89.853900,120.072300,77.419900,120.072300,62.080900C120.072300,46.741900,132.507300,34.307900,147.846300,34.307900C163.184300,34.307900,175.619300,46.741900,175.619300,62.080900" fill="rgb(13,99,62)" fill-rule="evenodd" stroke="none" stroke-width="1"/><path id="enm2inq2s3m89" d="M128.156500,71.686000C128.156500,81.720000,120.022500,89.854000,109.988500,89.854000C99.954500,89.854000,91.820500,81.720000,91.820500,71.686000C91.820500,61.652000,99.954500,53.518000,109.988500,53.518000C120.022500,53.518000,128.156500,61.652000,128.156500,71.686000" fill="rgb(13,99,62)" fill-rule="evenodd" stroke="none" stroke-width="1"/><path id="enm2inq2s3m810" d="M188.426800,71.686000C188.426800,81.720000,180.292800,89.854000,170.258800,89.854000C160.224800,89.854000,152.090800,81.720000,152.090800,71.686000C152.090800,61.652000,160.224800,53.518000,170.258800,53.518000C180.292800,53.518000,188.426800,61.652000,188.426800,71.686000" fill="rgb(13,99,62)" fill-rule="evenodd" stroke="none" stroke-width="1"/><polygon id="enm2inq2s3m811" points="109.989000,89.625800 171.386000,89.625800 171.386000,71.685800 109.989000,71.685800" fill="rgb(13,99,62)" fill-rule="evenodd" stroke="none" stroke-width="1"/><polygon id="enm2inq2s3m812" points="108.900000,89.655800 270.611000,89.655800 270.611000,71.666800 108.900000,71.666800" fill="rgb(13,99,62)" fill-rule="evenodd" stroke="none" stroke-width="1"/><path id="enm2inq2s3m813" d="M274.354100,33.869900C274.354100,21.239063,264.114937,10.999900,251.484100,10.999900C238.853263,10.999900,228.614100,21.239063,228.614100,33.869900C228.614100,46.500737,238.853263,56.739900,251.484100,56.739900C264.114937,56.739900,274.354100,46.500737,274.354100,33.869900" fill="rgb(13,99,62)" fill-rule="evenodd" stroke="none" stroke-width="1"/><path id="enm2inq2s3m814" d="M295.729800,54.020500C295.729800,44.742500,288.208800,37.220500,278.929800,37.220500C269.651800,37.220500,262.130800,44.742500,262.130800,54.020500C262.130800,63.298500,269.651800,70.820500,278.929800,70.820500C288.208800,70.820500,295.729800,63.298500,295.729800,54.020500" fill="rgb(13,99,62)" fill-rule="evenodd" stroke="none" stroke-width="1"/><path id="enm2inq2s3m815" d="M323.993300,38.093600L323.993300,38.093600C319.923300,38.093600,316.624300,41.392600,316.624300,45.462600L316.624300,75.059600C316.624300,79.128600,319.923300,82.428600,323.993300,82.428600C328.063300,82.428600,331.362300,79.128600,331.362300,75.059600L331.362300,45.462600C331.362300,41.392600,328.063300,38.093600,323.993300,38.093600" fill="rgb(13,99,62)" fill-rule="evenodd" stroke="none" stroke-width="1"/><path id="enm2inq2s3m816" d="M263.699500,59.746000L262.269500,59.746000C261.690500,59.746000,261.221500,60.215000,261.221500,60.793000L261.221500,88.098000C261.221500,88.676000,261.690500,89.145000,262.269500,89.145000L263.699500,89.145000C264.277500,89.145000,264.746500,88.676000,264.746500,88.098000L264.746500,60.793000C264.746500,60.215000,264.277500,59.746000,263.699500,59.746000" fill="rgb(13,99,62)" fill-rule="evenodd" stroke="none" stroke-width="1"/><path id="enm2inq2s3m817" d="M324.708400,59.746000L323.278400,59.746000C322.699400,59.746000,322.230400,60.215000,322.230400,60.793000L322.230400,88.098000C322.230400,88.676000,322.699400,89.145000,323.278400,89.145000L324.708400,89.145000C325.286400,89.145000,325.755400,88.676000,325.755400,88.098000L325.755400,60.793000C325.755400,60.215000,325.286400,59.746000,324.708400,59.746000" fill="rgb(13,99,62)" fill-rule="evenodd" stroke="none" stroke-width="1"/><path id="enm2inq2s3m818" d="M235.267400,71.578100C235.267400,81.579100,243.374400,89.687100,253.376400,89.687100C263.377400,89.687100,271.484400,81.579100,271.484400,71.578100C271.484400,61.577100,263.377400,53.469100,253.376400,53.469100C243.374400,53.469100,235.267400,61.577100,235.267400,71.578100" fill="rgb(13,99,62)" fill-rule="evenodd" stroke="none" stroke-width="1"/><path id="enm2inq2s3m819" d="M266.213700,77.840700C266.213700,84.382700,271.517700,89.686700,278.059700,89.686700C284.601700,89.686700,289.905700,84.382700,289.905700,77.840700C289.905700,71.298700,284.601700,65.994700,278.059700,65.994700C271.517700,65.994700,266.213700,71.298700,266.213700,77.840700" fill="rgb(13,99,62)" fill-rule="evenodd" stroke="none" stroke-width="1"/><path id="enm2inq2s3m820" d="M226.916800,77.840700C226.916800,84.382700,232.220800,89.686700,238.762800,89.686700C245.304800,89.686700,250.608800,84.382700,250.608800,77.840700C250.608800,71.298700,245.304800,65.994700,238.762800,65.994700C232.220800,65.994700,226.916800,71.298700,226.916800,77.840700" fill="rgb(13,99,62)" fill-rule="evenodd" stroke="none" stroke-width="1"/><polygon id="enm2inq2s3m821" points="238,89.697000 278.032000,89.697000 278.032000,78 238,78" fill="rgb(13,99,62)" fill-rule="evenodd" stroke="none" stroke-width="1"/><polygon id="enm2inq2s3m822" points="47.489800,89.697000 108.521800,89.697000 108.521800,78 47.489800,78" fill="rgb(13,99,62)" fill-rule="evenodd" stroke="none" stroke-width="1"/><path id="enm2inq2s3m823" d="M283,80.465000C283,85.692000,287.238000,89.930000,292.465000,89.930000C297.693000,89.930000,301.930000,85.692000,301.930000,80.465000C301.930000,75.238000,297.693000,71,292.465000,71C287.238000,71,283,75.238000,283,80.465000" fill="rgb(13,99,62)" fill-rule="evenodd" stroke="none" stroke-width="1"/><path id="enm2inq2s3m824" d="M80,72.465000C80,77.692000,84.238000,81.930000,89.465000,81.930000C94.693000,81.930000,98.930000,77.692000,98.930000,72.465000C98.930000,67.238000,94.693000,63,89.465000,63C84.238000,63,80,67.238000,80,72.465000" fill="rgb(13,99,62)" fill-rule="evenodd" stroke="none" stroke-width="1"/><path id="enm2inq2s3m825" d="M53,75.465000C53,80.692000,57.238000,84.930000,62.465000,84.930000C67.693000,84.930000,71.930000,80.692000,71.930000,75.465000C71.930000,70.238000,67.693000,66,62.465000,66C57.238000,66,53,70.238000,53,75.465000" fill="rgb(13,99,62)" fill-rule="evenodd" stroke="none" stroke-width="1"/><path id="enm2inq2s3m826" d="M299.197600,83.494800C299.197600,86.914800,301.969600,89.686800,305.389600,89.686800C308.808600,89.686800,311.581600,86.914800,311.581600,83.494800C311.581600,80.074800,308.808600,77.302800,305.389600,77.302800C301.969600,77.302800,299.197600,80.074800,299.197600,83.494800" fill="rgb(13,99,62)" fill-rule="evenodd" stroke="none" stroke-width="1"/><path id="enm2inq2s3m827" d="M278.657400,83.494800C278.657400,86.914800,281.429400,89.686800,284.849400,89.686800C288.268400,89.686800,291.040400,86.914800,291.040400,83.494800C291.040400,80.074800,288.268400,77.302800,284.849400,77.302800C281.429400,77.302800,278.657400,80.074800,278.657400,83.494800" fill="rgb(13,99,62)" fill-rule="evenodd" stroke="none" stroke-width="1"/><polygon id="enm2inq2s3m828" points="284.465000,89.608800 305.389000,89.608800 305.389000,83.494800 284.465000,83.494800" fill="rgb(13,99,62)" fill-rule="evenodd" stroke="none" stroke-width="1"/><path id="enm2inq2s3m829" d="M56.194500,42L56.194500,42C58.515500,42,60.396500,43.882000,60.396500,46.202000L60.396500,84.337000C60.396500,86.658000,58.515500,88.539000,56.194500,88.539000L56.194500,88.539000C53.873500,88.539000,51.992500,86.658000,51.992500,84.337000L51.992500,46.202000C51.992500,43.882000,53.873500,42,56.194500,42" fill="rgb(13,99,62)" fill-rule="evenodd" stroke="none" stroke-width="1"/><path id="enm2inq2s3m830" d="M46.323300,51L46.323300,51C48.644300,51,50.525300,52.882000,50.525300,55.202000L50.525300,84.366000C50.525300,86.687000,48.644300,88.569000,46.323300,88.569000L46.323300,88.569000C44.002300,88.569000,42.121300,86.687000,42.121300,84.366000L42.121300,55.202000C42.121300,52.882000,44.002300,51,46.323300,51" fill="rgb(13,99,62)" fill-rule="evenodd" stroke="none" stroke-width="1"/><path id="enm2inq2s3m831" d="M99.198500,37.158300L100.719500,37.158300C103.799500,37.158300,106.296500,39.655300,106.296500,42.735300L106.296500,73.488300C106.296500,76.568300,103.799500,79.065300,100.719500,79.065300L99.198500,79.065300C96.118500,79.065300,93.621500,76.568300,93.621500,73.488300L93.621500,42.735300C93.621500,39.655300,96.118500,37.158300,99.198500,37.158300" fill="rgb(13,99,62)" fill-rule="evenodd" stroke="none" stroke-width="1"/><path id="enm2inq2s3m832" d="M73.504000,29L73.504000,29C79.305000,29,84.008000,33.703000,84.008000,39.504000L84.008000,68.783000C84.008000,74.585000,79.305000,79.288000,73.504000,79.288000L73.504000,79.288000C67.703000,79.288000,63,74.585000,63,68.783000L63,39.504000C63,33.703000,67.703000,29,73.504000,29" fill="rgb(13,99,62)" fill-rule="evenodd" stroke="none" stroke-width="1"/><path id="enm2inq2s3m833" d="M72.047000,45L74.977000,45C75.556000,45,76.024000,45.469000,76.024000,46.047000L76.024000,85.860000C76.024000,86.438000,75.556000,86.907000,74.977000,86.907000L72.047000,86.907000C71.469000,86.907000,71,86.438000,71,85.860000L71,46.047000C71,45.469000,71.469000,45,72.047000,45" fill="rgb(13,99,62)" fill-rule="evenodd" stroke="none" stroke-width="1"/></g><g id="enm2inq2s3m834" transform="matrix(1 0 0 1 34 52)"><g id="enm2inq2s3m835" transform="matrix(1 0 0 1 208 161.80499267578125)"><path id="enm2inq2s3m836" d="M75.435900,0.311200C67.053900,0.311200,59.344900,4.000200,53.184900,7.000200L53.153900,7.000200C49.790900,9.000200,45.229900,10.812200,40.721900,10.812200C37.454900,10.812200,35.142900,9.934200,31.757900,8.558200C28.507900,7.183200,24.816900,6.848200,20.897900,6.848200C12.083900,6.848200,4.410900,9.085200,0.357900,19.000200L31.104900,19.000200L41.437900,19.000200L43.583900,19.000200L52.630900,19.000200L107.287900,19.000200C101.026900,4.678200,89.118900,0.311200,75.435900,0.311200" fill="rgb(105,180,130)" fill-rule="evenodd" stroke="none" stroke-width="1"/></g><path id="enm2inq2s3m837" d="M270.750200,70.901300C266.520200,70.901300,262.629200,71.805300,259.521200,74.805300L259.505200,74.805300C257.808200,74.805300,255.506200,76.762300,253.231200,76.762300C251.582200,76.762300,250.415200,76.336300,248.707200,75.642300C247.067200,74.948300,245.204200,74.225300,243.226200,74.225300C238.778200,74.225300,234.906200,74.805300,232.860200,79.805300L248.377200,79.805300L253.592200,79.805300L254.675200,79.805300L259.241200,79.805300L286.825200,79.805300C283.665200,73.805300,277.655200,70.901300,270.750200,70.901300" fill="rgb(105,180,130)" fill-rule="evenodd" stroke="none" stroke-width="1"/><path id="enm2inq2s3m838" d="M57.248400,127.129600C50.856400,127.129600,44.978400,127.804600,40.281400,133.804600L40.258400,133.804600C37.693400,133.804600,34.216400,135.623600,30.778400,135.623600C28.287400,135.623600,26.524400,134.410600,23.942400,133.361600C21.464400,132.312600,18.650400,131.297600,15.662400,131.297600C8.941400,131.297600,3.090400,133.361600,0.000400,139.804600L23.445400,139.804600L31.324400,139.804600L32.961400,139.804600L39.859400,139.804600L81.535400,139.804600C76.762400,131.213600,67.682400,127.129600,57.248400,127.129600" fill="rgb(105,180,130)" fill-rule="evenodd" stroke="none" stroke-width="1"/><path id="enm2inq2s3m839" d="M77.418400,59.451500C77.418400,59.451500,77.116400,59.558500,76.654400,59.734500C76.188400,59.919500,75.559400,60.192500,74.859400,60.495500C74.508400,60.669500,74.137400,60.814500,73.755400,61.011500C73.379400,61.192500,72.983400,61.383500,72.573400,61.580500C72.169400,61.778500,71.762400,62.003500,71.340400,62.198500C70.935400,62.447500,70.493400,62.611500,70.082400,62.866500C69.661400,63.099500,69.225400,63.296500,68.810400,63.541500C68.400400,63.792500,67.950400,63.963500,67.550400,64.209500C67.142400,64.440500,66.723400,64.636500,66.322400,64.832500C65.933400,65.044500,65.549400,65.233500,65.180400,65.401500C64.803400,65.560500,64.460400,65.718500,64.154400,65.863500C63.845400,66.004500,63.552400,66.109500,63.313400,66.202500C62.832400,66.385500,62.517400,66.463500,62.517400,66.463500C62.517400,66.463500,62.573400,66.157500,62.742400,65.663500C62.919400,65.177500,63.152400,64.450500,63.626400,63.725500C63.854400,63.355500,64.117400,62.962500,64.412400,62.558500C64.726400,62.173500,65.084400,61.786500,65.467400,61.398500C65.839400,60.997500,66.301400,60.661500,66.758400,60.312500C67.203400,59.942500,67.739400,59.678500,68.246400,59.376500C68.762400,59.090500,69.330400,58.880500,69.874400,58.670500C70.436400,58.489500,70.998400,58.334500,71.555400,58.244500C72.669400,58.050500,73.747400,58.081500,74.641400,58.231500C75.543400,58.398500,76.257400,58.687500,76.725400,58.957500C77.196400,59.223500,77.418400,59.451500,77.418400,59.451500" fill="rgb(105,180,130)" fill-rule="evenodd" stroke="none" stroke-width="1"/><path id="enm2inq2s3m840" d="M48.053700,59.451500C48.053700,59.451500,48.275700,59.223500,48.746700,58.957500C49.214700,58.687500,49.928700,58.398500,50.830700,58.231500C51.724700,58.081500,52.802700,58.050500,53.916700,58.244500C54.473700,58.334500,55.035700,58.489500,55.597700,58.670500C56.141700,58.880500,56.709700,59.090500,57.224700,59.376500C57.732700,59.678500,58.268700,59.942500,58.713700,60.312500C59.170700,60.661500,59.632700,60.997500,60.004700,61.398500C60.387700,61.786500,60.745700,62.173500,61.059700,62.558500C61.354700,62.962500,61.617700,63.355500,61.845700,63.725500C62.318700,64.450500,62.552700,65.177500,62.729700,65.663500C62.898700,66.157500,62.954700,66.463500,62.954700,66.463500C62.954700,66.463500,62.639700,66.385500,62.158700,66.202500C61.919700,66.109500,61.626700,66.004500,61.317700,65.863500C61.011700,65.718500,60.668700,65.560500,60.291700,65.401500C59.922700,65.233500,59.538700,65.044500,59.149700,64.832500C58.748700,64.636500,58.329700,64.440500,57.921700,64.209500C57.521700,63.963500,57.070700,63.792500,56.661700,63.541500C56.246700,63.296500,55.810700,63.099500,55.389700,62.866500C54.978700,62.611500,54.536700,62.447500,54.131700,62.198500C53.709700,62.003500,53.302700,61.778500,52.898700,61.580500C52.488700,61.383500,52.092700,61.192500,51.716700,61.011500C51.334700,60.814500,50.963700,60.669500,50.612700,60.495500C49.912700,60.192500,49.283700,59.919500,48.817700,59.734500C48.355700,59.558500,48.053700,59.451500,48.053700,59.451500" fill="rgb(105,180,130)" fill-rule="evenodd" stroke="none" stroke-width="1"/><path id="enm2inq2s3m841" d="M39.288200,74.723000C39.288200,74.723000,39.123200,74.784000,38.835200,74.891000C38.558200,74.999000,38.185200,75.157000,37.770200,75.342000C37.353200,75.537000,36.892200,75.748000,36.414200,75.986000C36.176200,76.105000,35.931200,76.228000,35.682200,76.353000C35.442200,76.500000,35.179200,76.598000,34.936200,76.749000C34.686200,76.887000,34.427200,77.004000,34.181200,77.150000C33.938200,77.298000,33.671200,77.400000,33.433200,77.546000C32.939200,77.804000,32.461200,78.047000,32.027200,78.253000C31.577200,78.438000,31.214200,78.630000,30.920200,78.728000C30.634200,78.837000,30.447200,78.883000,30.447200,78.883000C30.447200,78.883000,30.481200,78.701000,30.581200,78.409000C30.687200,78.121000,30.828200,77.692000,31.105200,77.258000C31.368200,76.811000,31.731200,76.328000,32.198200,75.878000C32.418200,75.640000,32.692200,75.441000,32.964200,75.233000C33.228200,75.015000,33.546200,74.858000,33.847200,74.679000C34.468200,74.350000,35.150200,74.120000,35.810200,74.007000C36.471200,73.892000,37.110200,73.910000,37.641200,73.999000C38.175200,74.104000,38.599200,74.271000,38.877200,74.430000C39.157200,74.588000,39.288200,74.723000,39.288200,74.723000" fill="rgb(105,180,130)" fill-rule="evenodd" stroke="none" stroke-width="1"/><path id="enm2inq2s3m842" d="M21.866600,74.723000C21.866600,74.723000,21.997600,74.588000,22.277600,74.430000C22.555600,74.271000,22.979600,74.104000,23.513600,73.999000C24.044600,73.910000,24.683600,73.892000,25.344600,74.007000C26.004600,74.120000,26.686600,74.350000,27.307600,74.679000C27.608600,74.858000,27.926600,75.015000,28.190600,75.233000C28.462600,75.441000,28.736600,75.640000,28.956600,75.878000C29.423600,76.328000,29.786600,76.811000,30.049600,77.258000C30.326600,77.692000,30.467600,78.121000,30.573600,78.409000C30.673600,78.701000,30.707600,78.883000,30.707600,78.883000C30.707600,78.883000,30.520600,78.837000,30.234600,78.728000C29.940600,78.630000,29.577600,78.438000,29.127600,78.253000C28.693600,78.047000,28.215600,77.804000,27.721600,77.546000C27.483600,77.400000,27.216600,77.298000,26.973600,77.150000C26.727600,77.004000,26.468600,76.887000,26.218600,76.749000C25.975600,76.598000,25.712600,76.500000,25.472600,76.353000C25.223600,76.228000,24.978600,76.105000,24.740600,75.986000C24.262600,75.748000,23.801600,75.537000,23.384600,75.342000C22.969600,75.157000,22.596600,74.999000,22.319600,74.891000C22.031600,74.784000,21.866600,74.723000,21.866600,74.723000" fill="rgb(105,180,130)" fill-rule="evenodd" stroke="none" stroke-width="1"/><path id="enm2inq2s3m843" d="M129.105300,0.000400C122.958300,0.000400,117.306300,0.805400,112.789300,5.805400L112.766300,5.805400C110.300300,5.805400,106.955300,7.904400,103.649300,7.904400C101.254300,7.904400,99.559300,6.912400,97.076300,5.903400C94.693300,4.894400,91.987300,4.271400,89.113300,4.271400C82.649300,4.271400,77.023300,5.805400,74.051300,12.805400L96.597300,12.805400L104.175300,12.805400L105.749300,12.805400L112.382300,12.805400L152.461300,12.805400C147.871300,4.805400,139.139300,0.000400,129.105300,0.000400" fill="rgb(105,180,130)" fill-rule="evenodd" stroke="none" stroke-width="1"/><path id="enm2inq2s3m844" d="M290.544700,18.396100C290.544700,18.396100,290.268700,18.494100,289.846700,18.655100C289.640700,18.738100,289.391700,18.840100,289.105700,18.956100C288.829700,19.061100,288.524700,19.224100,288.204700,19.351100C287.562700,19.650100,286.852700,19.975100,286.115700,20.342100C285.746700,20.523100,285.373700,20.729100,284.987700,20.908100C284.617700,21.135100,284.213700,21.285100,283.837700,21.518100C283.452700,21.731100,283.054700,21.911100,282.674700,22.136100C282.300700,22.365100,281.888700,22.521100,281.522700,22.746100C281.150700,22.957100,280.766700,23.136100,280.400700,23.315100C280.044700,23.509100,279.693700,23.682100,279.356700,23.836100C278.662700,24.120100,278.103700,24.417100,277.649700,24.568100C277.209700,24.735100,276.921700,24.807100,276.921700,24.807100C276.921700,24.807100,276.972700,24.526100,277.127700,24.076100C277.206700,23.852100,277.298700,23.572100,277.436700,23.278100C277.561700,22.971100,277.719700,22.635100,277.935700,22.303100C278.144700,21.965100,278.384700,21.606100,278.654700,21.236100C278.940700,20.884100,279.268700,20.531100,279.618700,20.176100C279.958700,19.810100,280.380700,19.502100,280.798700,19.183100C281.205700,18.845100,281.695700,18.604100,282.159700,18.328100C283.117700,17.822100,284.167700,17.467100,285.184700,17.292100C286.203700,17.115100,287.188700,17.143100,288.005700,17.280100C288.830700,17.442100,289.483700,17.699100,289.910700,17.944100C290.341700,18.188100,290.544700,18.396100,290.544700,18.396100" fill="rgb(105,180,130)" fill-rule="evenodd" stroke="none" stroke-width="1"/><path id="enm2inq2s3m845" d="M263.698700,18.396100C263.698700,18.396100,263.901700,18.188100,264.332700,17.944100C264.759700,17.699100,265.412700,17.442100,266.237700,17.280100C267.054700,17.143100,268.039700,17.115100,269.058700,17.292100C270.075700,17.467100,271.125700,17.822100,272.083700,18.328100C272.547700,18.604100,273.037700,18.845100,273.444700,19.183100C273.862700,19.502100,274.284700,19.810100,274.624700,20.176100C274.974700,20.531100,275.302700,20.884100,275.589700,21.236100C275.858700,21.606100,276.098700,21.965100,276.307700,22.303100C276.523700,22.635100,276.681700,22.971100,276.806700,23.278100C276.944700,23.572100,277.036700,23.852100,277.115700,24.076100C277.270700,24.526100,277.321700,24.807100,277.321700,24.807100C277.321700,24.807100,277.033700,24.735100,276.593700,24.568100C276.139700,24.417100,275.580700,24.120100,274.886700,23.836100C274.549700,23.682100,274.198700,23.509100,273.842700,23.315100C273.476700,23.136100,273.092700,22.957100,272.720700,22.746100C272.354700,22.521100,271.942700,22.365100,271.568700,22.136100C271.188700,21.911100,270.790700,21.731100,270.405700,21.518100C270.029700,21.285100,269.625700,21.135100,269.255700,20.908100C268.869700,20.729100,268.496700,20.523100,268.127700,20.342100C267.390700,19.975100,266.680700,19.650100,266.038700,19.351100C265.718700,19.224100,265.413700,19.061100,265.137700,18.956100C264.851700,18.840100,264.602700,18.738100,264.396700,18.655100C263.974700,18.494100,263.698700,18.396100,263.698700,18.396100" fill="rgb(105,180,130)" fill-rule="evenodd" stroke="none" stroke-width="1"/><path id="enm2inq2s3m846" d="M255.685100,32.357500C255.685100,32.357500,255.522100,32.412500,255.271100,32.510500C255.017100,32.607500,254.677100,32.760500,254.296100,32.918500C253.934100,33.092500,253.511100,33.294500,253.057100,33.512500C252.840100,33.621500,252.616100,33.733500,252.388100,33.847500C252.169100,33.982500,251.929100,34.071500,251.706100,34.210500C251.245100,34.449500,250.783100,34.702500,250.333100,34.938500C249.880100,35.172500,249.446100,35.398500,249.043100,35.580500C248.639100,35.758500,248.302100,35.928500,248.034100,36.019500C247.771100,36.116500,247.602100,36.161500,247.602100,36.161500C247.602100,36.161500,247.636100,35.996500,247.725100,35.727500C247.824100,35.466500,247.947100,35.067500,248.208100,34.679500C248.441100,34.263500,248.777100,33.825500,249.203100,33.413500C249.405100,33.196500,249.655100,33.013500,249.903100,32.824500C250.144100,32.624500,250.435100,32.480500,250.710100,32.316500C251.279100,32.016500,251.902100,31.806500,252.505100,31.702500C253.109100,31.598500,253.694100,31.611500,254.179100,31.701500C254.667100,31.785500,255.056100,31.946500,255.309100,32.089500C255.564100,32.237500,255.685100,32.357500,255.685100,32.357500" fill="rgb(105,180,130)" fill-rule="evenodd" stroke="none" stroke-width="1"/><path id="enm2inq2s3m847" d="M239.757800,32.357500C239.757800,32.357500,239.878800,32.237500,240.133800,32.089500C240.386800,31.946500,240.775800,31.785500,241.263800,31.701500C241.748800,31.611500,242.333800,31.598500,242.937800,31.702500C243.540800,31.806500,244.163800,32.016500,244.732800,32.316500C245.007800,32.480500,245.298800,32.624500,245.539800,32.824500C245.787800,33.013500,246.037800,33.196500,246.239800,33.413500C246.665800,33.825500,247.001800,34.263500,247.234800,34.679500C247.495800,35.067500,247.618800,35.466500,247.717800,35.727500C247.806800,35.996500,247.839800,36.161500,247.839800,36.161500C247.839800,36.161500,247.671800,36.116500,247.408800,36.019500C247.140800,35.928500,246.803800,35.758500,246.399800,35.580500C245.996800,35.398500,245.562800,35.172500,245.109800,34.938500C244.659800,34.702500,244.196800,34.449500,243.736800,34.210500C243.513800,34.071500,243.273800,33.982500,243.054800,33.847500C242.826800,33.733500,242.602800,33.621500,242.385800,33.512500C241.931800,33.294500,241.508800,33.092500,241.146800,32.918500C240.765800,32.760500,240.425800,32.607500,240.171800,32.510500C239.920800,32.412500,239.757800,32.357500,239.757800,32.357500" fill="rgb(105,180,130)" fill-rule="evenodd" stroke="none" stroke-width="1"/></g><g id="enm2inq2s3m848" transform="matrix(1 0 0 1 134.59680556500032 156.86799892500767)"><path id="enm2inq2s3m849" d="M0.047700,43.146303C0.015700,42.691726,-0.000300,42.239931,-0.000300,41.792775C-0.000300,22.600321,17.475700,7.040777,39.032700,7.040777C60.589700,7.040777,78.064700,22.600321,78.064700,41.792775C78.064700,42.239931,78.048700,42.691726,78.016700,43.146303C78.048700,43.774363,78.064700,44.406133,78.064700,45.040686C78.064700,66.028258,43.079700,97.396900,39.032700,97.396900C34.984700,97.396900,-0.000300,66.028258,-0.000300,45.040686C-0.000300,44.406133,0.015700,43.774363,0.047700,43.146303M39.032700,57.238211C47.039700,57.238211,53.529700,51.395496,53.529700,44.187193C53.529700,36.978891,47.039700,31.136176,39.032700,31.136176C31.025700,31.136176,24.534700,36.978891,24.534700,44.187193C24.534700,51.395496,31.025700,57.238211,39.032700,57.238211" transform="matrix(1 0 0 1 13.87099740999986 5.02935849000286)" fill="rgb(255,255,255)" fill-rule="evenodd" stroke="none" stroke-width="1"/></g><g id="enm2inq2s3m850" transform="matrix(1 0 0 1 114 277)" opacity="0"><rect id="enm2inq2s3m851" width="152" height="14" rx="7" ry="0" transform="matrix(1 0 0 1 3 135)" fill="rgb(13,99,62)" stroke="none" stroke-width="1"/><path id="enm2inq2s3m852" d="M121.137500,148.342000L123.437500,148.342000C125.232500,148.342000,126.687500,146.887000,126.687500,145.092000L126.687500,133.994000C126.687500,132.199000,125.232500,130.744000,123.437500,130.744000L121.137500,130.744000C119.342500,130.744000,117.887500,132.199000,117.887500,133.994000L117.887500,145.092000C117.887500,146.887000,119.342500,148.342000,121.137500,148.342000" fill="rgb(13,99,62)" fill-rule="evenodd" stroke="none" stroke-width="1"/><path id="enm2inq2s3m853" d="M124.331500,144.410500L124.331500,144.410500C125.061500,144.410500,125.653500,143.818500,125.653500,143.088500L125.653500,135.998500C125.653500,135.267500,125.061500,134.675500,124.331500,134.675500C123.601500,134.675500,123.009500,135.267500,123.009500,135.998500L123.009500,143.088500C123.009500,143.818500,123.601500,144.410500,124.331500,144.410500" fill="rgb(8,73,44)" fill-rule="evenodd" stroke="none" stroke-width="1"/><path id="enm2inq2s3m854" d="M26.847900,139.200000C26.847900,143.998000,30.080900,147.887000,34.067900,147.887000C38.055900,147.887000,41.287900,143.998000,41.287900,139.200000C41.287900,134.402000,38.055900,130.513000,34.067900,130.513000C30.080900,130.513000,26.847900,134.402000,26.847900,139.200000" fill="rgb(13,99,62)" fill-rule="evenodd" stroke="none" stroke-width="1"/><path id="enm2inq2s3m855" d="M32.504800,139.345400C32.504800,141.364400,33.864800,143.000400,35.542800,143.000400C37.220800,143.000400,38.580800,141.364400,38.580800,139.345400C38.580800,137.326400,37.220800,135.690400,35.542800,135.690400C33.864800,135.690400,32.504800,137.326400,32.504800,139.345400" fill="rgb(8,73,44)" fill-rule="evenodd" stroke="none" stroke-width="1"/><path id="enm2inq2s3m856" d="M113.193500,131.866100L131.381500,131.866100C132.089500,131.866100,132.664500,131.292100,132.664500,130.583100L132.664500,128.185100C132.664500,127.477100,132.089500,126.902100,131.381500,126.902100L113.193500,126.902100C112.484500,126.902100,111.910500,127.477100,111.910500,128.185100L111.910500,130.583100C111.910500,131.292100,112.484500,131.866100,113.193500,131.866100" fill="rgb(137,206,158)" fill-rule="evenodd" stroke="none" stroke-width="1"/><path id="enm2inq2s3m857" d="M113.193500,131.866100L126.696500,131.866100C127.405500,131.866100,127.980500,131.292100,127.980500,130.583100L127.980500,128.185100C127.980500,127.477100,127.405500,126.902100,126.696500,126.902100L113.193500,126.902100C112.484500,126.902100,111.910500,127.477100,111.910500,128.185100L111.910500,130.583100C111.910500,131.292100,112.484500,131.866100,113.193500,131.866100" fill="rgb(13,99,62)" fill-rule="evenodd" stroke="none" stroke-width="1"/><path id="enm2inq2s3m858" d="M25.282400,132.317400L44.742400,132.317400C45.451400,132.317400,46.025400,131.743400,46.025400,131.034400L46.025400,128.636400C46.025400,127.928400,45.451400,127.353400,44.742400,127.353400L25.282400,127.353400C24.573400,127.353400,23.999400,127.928400,23.999400,128.636400L23.999400,131.034400C23.999400,131.743400,24.573400,132.317400,25.282400,132.317400" fill="rgb(105,180,130)" fill-rule="evenodd" stroke="none" stroke-width="1"/><path id="enm2inq2s3m859" d="M28.303900,132.317400L44.742900,132.317400C45.450900,132.317400,46.025900,131.743400,46.025900,131.034400L46.025900,128.636400C46.025900,127.928400,45.450900,127.353400,44.742900,127.353400L28.303900,127.353400C27.594900,127.353400,27.020900,127.928400,27.020900,128.636400L27.020900,131.034400C27.020900,131.743400,27.594900,132.317400,28.303900,132.317400" fill="rgb(13,99,62)" fill-rule="evenodd" stroke="none" stroke-width="1"/><path id="enm2inq2s3m860" d="M25.428900,132.317400L27.119900,132.317400C27.827900,132.317400,28.402900,131.743400,28.402900,131.034400L28.402900,128.636400C28.402900,127.928400,27.827900,127.353400,27.119900,127.353400L25.428900,127.353400C24.719900,127.353400,24.145900,127.928400,24.145900,128.636400L24.145900,131.034400C24.145900,131.743400,24.719900,132.317400,25.428900,132.317400" fill="rgb(13,99,62)" fill-rule="evenodd" stroke="none" stroke-width="1"/><path id="enm2inq2s3m861" d="M134.186300,128.256800L22.755300,128.256800C20.604300,128.256800,18.808300,126.617800,18.612300,124.476800L9.476300,24.691800L144.856300,24.691800L138.337300,124.368800C138.194300,126.555800,136.378300,128.256800,134.186300,128.256800" fill="rgb(105,180,130)" fill-rule="evenodd" stroke="none" stroke-width="1"/><path id="enm2inq2s3m862" d="M27.412300,124.755200L18.276300,25.753200L9.476300,25.753200L18.612300,124.755200C18.808300,126.896200,20.604300,127.753200,22.755300,127.753200L31.554300,127.753200C29.404300,127.753200,27.608300,126.896200,27.412300,124.755200" fill="rgb(13,99,62)" fill-rule="evenodd" stroke="none" stroke-width="1"/><path id="enm2inq2s3m863" d="M129.627700,124.755200L136.056700,25.753200L144.855700,25.753200L138.427700,124.755200C138.231700,126.896200,136.435700,127.753200,134.284700,127.753200L125.485700,127.753200C127.635700,127.753200,129.431700,126.896200,129.627700,124.755200" fill="rgb(137,206,158)" fill-rule="evenodd" stroke="none" stroke-width="1"/><path id="enm2inq2s3m864" d="M1,23.506300L153.332000,23.506300C153.885000,23.506300,154.332000,23.058300,154.332000,22.506300L154.332000,17.060300C154.332000,16.508300,153.885000,16.060300,153.332000,16.060300L1,16.060300C0.448000,16.060300,0,16.508300,0,17.060300L0,22.506300C0,23.058300,0.448000,23.506300,1,23.506300" fill="rgb(137,206,158)" fill-rule="evenodd" stroke="none" stroke-width="1"/><path id="enm2inq2s3m865" d="M1,24.860900L153.332000,24.860900C153.885000,24.860900,154.332000,24.412900,154.332000,23.860900L154.332000,18.414900C154.332000,17.862900,153.885000,17.414900,153.332000,17.414900L1,17.414900C0.448000,17.414900,0,17.862900,0,18.414900L0,23.860900C0,24.412900,0.448000,24.860900,1,24.860900" fill="rgb(105,180,130)" fill-rule="evenodd" stroke="none" stroke-width="1"/><g id="enm2inq2s3m866" transform="matrix(1 0 0 1 0 0.34200000762939)"><path id="enm2inq2s3m867" d="M149.633800,12.487900L139.984800,3.668900C137.865800,1.731900,135.099800,0.657900,132.229800,0.657900L22.102800,0.657900C19.232800,0.657900,16.465800,1.731900,14.347800,3.668900L4.698800,12.487900C4.448800,12.715900,4.122800,12.842900,3.784800,12.842900L2.028800,12.842900C1.280800,12.842900,0.674800,13.448900,0.674800,14.195900L0.674800,14.195900C0.674800,14.943900,1.280800,15.549900,2.028800,15.549900L153.652800,15.549900C154.400800,15.549900,155.006800,14.943900,155.006800,14.195900L155.006800,14.195900C155.006800,13.448900,154.400800,12.842900,153.652800,12.842900L150.546800,12.842900C150.208800,12.842900,149.883800,12.715900,149.633800,12.487900" fill="rgb(244,118,33)" fill-rule="evenodd" stroke="none" stroke-width="1"/></g><path id="enm2inq2s3m868" d="M144.223000,24.813500L10.478000,24.813500C10.089000,24.813500,9.742000,24.621500,9.422000,24.719500L10.142000,29.722500C9.643000,29.722500,9.813000,29.804500,10.621000,29.804500L144.634000,29.804500L144.966000,24.723500C144.731000,24.676500,144.487000,24.813500,144.223000,24.813500" fill="rgb(13,99,62)" fill-rule="evenodd" stroke="none" stroke-width="1"/><g id="enm2inq2s3m869" transform="matrix(1 0 0 1 16 25.34199905395508)"><polygon id="enm2inq2s3m870" points="66.498300,0.153500 66.498300,11.406500 71.236300,4.976500" fill="rgb(13,99,62)" fill-rule="evenodd" stroke="none" stroke-width="1"/><polygon id="enm2inq2s3m871" points="83.498300,0.153500 83.498300,11.406500 88.236300,4.976500" fill="rgb(13,99,62)" fill-rule="evenodd" stroke="none" stroke-width="1"/><polygon id="enm2inq2s3m872" points="99.498300,0.153500 99.498300,11.406500 104.236300,4.976500" fill="rgb(13,99,62)" fill-rule="evenodd" stroke="none" stroke-width="1"/><polygon id="enm2inq2s3m873" points="116.498300,0.153500 116.498300,11.406500 121.236300,4.976500" fill="rgb(13,99,62)" fill-rule="evenodd" stroke="none" stroke-width="1"/><polygon id="enm2inq2s3m874" points="55.498300,0.153500 55.498300,11.406500 50.760300,4.976500" fill="rgb(13,99,62)" fill-rule="evenodd" stroke="none" stroke-width="1"/><polygon id="enm2inq2s3m875" points="39.498300,0.153500 39.498300,11.406500 34.760300,4.976500" fill="rgb(13,99,62)" fill-rule="evenodd" stroke="none" stroke-width="1"/><polygon id="enm2inq2s3m876" points="23.498300,0.153500 23.498300,11.406500 18.760300,4.976500" fill="rgb(13,99,62)" fill-rule="evenodd" stroke="none" stroke-width="1"/><polygon id="enm2inq2s3m877" points="5.498300,0.153500 5.498300,11.406500 0.760300,4.976500" fill="rgb(13,99,62)" fill-rule="evenodd" stroke="none" stroke-width="1"/></g><path id="enm2inq2s3m878" d="M132.470200,3.753000L23.211200,3.753000C22.898200,3.753000,22.597200,3.911000,22.365200,4.087000L11.067200,12.753000L144.614200,12.753000L133.316200,4.087000C133.085200,3.911000,132.783200,3.753000,132.470200,3.753000" fill="rgb(246,145,77)" fill-rule="evenodd" stroke="none" stroke-width="1"/><path id="enm2inq2s3m879" d="M139.647700,12.913700L137.939700,11.752700L6.392700,11.752700L4.684700,12.913700C4.452700,13.141700,4.148700,12.752700,3.833700,12.752700L140.498700,12.752700C140.183700,12.752700,139.879700,13.141700,139.647700,12.913700" fill="rgb(183,89,25)" fill-rule="evenodd" stroke="none" stroke-width="1"/><polygon id="enm2inq2s3m880" points="34.760000,112.732000 120.246000,112.732000 120.246000,48.617000 34.760000,48.617000" fill="none" fill-rule="evenodd" stroke="rgb(13,116,78)" stroke-width="1"/></g><g id="enm2inq2s3m881" transform="matrix(1 0 0 1 116 273)" opacity="0"><rect id="enm2inq2s3m882" width="152" height="14" rx="7" ry="0" transform="matrix(1 0 0 1 0 139)" fill="rgb(13,99,62)" stroke="none" stroke-width="1"/><g id="enm2inq2s3m883" transform="matrix(1 0 0 1 30 0.23200000822544)"><path id="enm2inq2s3m884" d="M42.282200,0.768300L57.610200,0.768300C80.805200,0.768300,99.609200,19.572300,99.609200,42.768300L99.609200,144.000300C99.609200,146.209300,97.819200,148.000300,95.609200,148.000300L4.282200,148.000300C2.073200,148.000300,0.282200,146.209300,0.282200,144.000300L0.282200,42.768300C0.282200,19.572300,19.086200,0.768300,42.282200,0.768300" fill="rgb(13,99,62)" fill-rule="evenodd" stroke="none" stroke-width="1"/></g><g id="enm2inq2s3m885" transform="matrix(1 0 0 1 22 0.23200000822544)"><path id="enm2inq2s3m886" d="M42,0.768300L57.328000,0.768300C80.523000,0.768300,99.327000,19.572300,99.327000,42.768300L99.327000,144.000300C99.327000,146.209300,97.537000,148.000300,95.327000,148.000300L4,148.000300C1.791000,148.000300,0,146.209300,0,144.000300L0,42.768300C0,19.572300,18.804000,0.768300,42,0.768300" fill="rgb(137,206,158)" fill-rule="evenodd" stroke="none" stroke-width="1"/></g><g id="enm2inq2s3m887" transform="matrix(1 0 0 1 24 0.23200000822544)"><path id="enm2inq2s3m888" d="M42.899300,0.768300L55.327300,0.768300C78.523300,0.768300,97.327300,19.572300,97.327300,42.768300L97.327300,144.000300C97.327300,146.209300,95.536300,148.000300,93.327300,148.000300L4.899300,148.000300C2.690300,148.000300,0.899300,146.209300,0.899300,144.000300L0.899300,42.768300C0.899300,19.572300,19.703300,0.768300,42.899300,0.768300" fill="rgb(105,180,130)" fill-rule="evenodd" stroke="none" stroke-width="1"/></g><path id="enm2inq2s3m889" d="M92.969600,42.008100L92.969600,42.008100C89.565600,42.008100,86.805600,37.986100,86.805600,34.535100L86.805600,28.675100C86.805600,25.224100,84.045600,22.427100,80.641600,22.427100L63.995600,22.427100C60.591600,22.427100,57.831600,25.224100,57.831600,28.675100L57.831600,34.535100C57.831600,37.986100,55.071600,42.008100,51.667600,42.008100L51.368600,42.008100C47.619600,42.008100,44.551600,45.118100,44.551600,48.918100L44.551600,49.875100C44.551600,53.624100,47.577600,56.691100,51.275600,56.691100L58.265600,56.691100L86.769600,56.691100L93.666600,56.691100C97.211600,56.691100,100.085600,53.778100,100.085600,50.184100L100.085600,49.221100C100.085600,45.254100,96.883600,42.008100,92.969600,42.008100" fill="rgb(13,99,62)" fill-rule="evenodd" stroke="none" stroke-width="1"/><path id="enm2inq2s3m890" d="M100,49.710000L100,48.780000C100,44.946000,96.867000,41.810000,93.034000,41.810000C89.699000,41.810000,87,37.923000,87,34.589000L87,28.927000C87,25.592000,84.161000,22.232000,80.827000,22.232000L70.438000,22.232000C67.104000,22.232000,65,25.592000,65,28.927000L65,34.589000C65,37.923000,61.698000,42.232000,58.363000,42.232000L58.071000,42.232000C54.398000,42.232000,52,44.814000,52,48.487000L52,49.411000C52,53.034000,54.357000,56.232000,57.979000,56.232000L58.910000,56.232000L64.826000,56.232000L86.828000,56.232000L92.744000,56.232000L93.584000,56.232000C97.056000,56.232000,100,53.182000,100,49.710000" fill="rgb(8,73,44)" fill-rule="evenodd" stroke="none" stroke-width="1"/><path id="enm2inq2s3m891" d="M95.033800,41.809700C91.699800,41.809700,88.999800,37.923700,88.999800,34.588700L88.999800,28.926700C88.999800,25.592700,86.011800,22.231700,82.677800,22.231700L80.312800,22.231700C83.646800,22.231700,85.999800,25.592700,85.999800,28.926700L85.999800,34.588700C85.999800,37.923700,89.199800,41.809700,92.533800,41.809700C96.366800,41.809700,99.999800,44.945700,99.999800,48.779700L99.999800,49.709700C99.999800,53.182700,96.541800,56.231700,93.069800,56.231700L94.594800,56.231700L95.434800,56.231700C98.906800,56.231700,101.999800,53.182700,101.999800,49.709700L101.999800,48.779700C101.999800,44.945700,98.866800,41.809700,95.033800,41.809700" fill="rgb(105,180,130)" fill-rule="evenodd" stroke="none" stroke-width="1"/><polygon id="enm2inq2s3m892" points="29.258000,142.289000 114.744000,142.289000 114.744000,78.174000 29.258000,78.174000" fill="none" fill-rule="evenodd" stroke="rgb(13,116,78)" stroke-width="1"/></g><g id="enm2inq2s3m893" transform="matrix(1 0 0 1 116 273)" opacity="0"><rect id="enm2inq2s3m894" width="152" height="14" rx="7" ry="0" transform="matrix(1 0 0 1 0 139)" fill="rgb(13,99,62)" stroke="none" stroke-width="1"/><g id="enm2inq2s3m895" transform="matrix(1 0 0 1 9 0.07300000637770)"><path id="enm2inq2s3m896" d="M3.876000,0.927300L103.838000,0.927300L103.838000,148.000300L3.876000,148.000300C1.735000,148.000300,0,146.264300,0,144.124300L0,4.803300C0,2.662300,1.735000,0.927300,3.876000,0.927300" fill="rgb(8,73,44)" fill-rule="evenodd" stroke="none" stroke-width="1"/></g><path id="enm2inq2s3m897" d="M9.406900,131.573000L113.252900,131.573000L9.406900,131.573000Z" fill="none" fill-rule="evenodd" stroke="rgb(13,99,62)" stroke-width="1"/><g id="enm2inq2s3m898" transform="matrix(1 0 0 1 20 124.07299804687500)"><path id="enm2inq2s3m899" d="M0.640700,0.323100L0.640700,24.000100L0.640700,0.323100Z" fill="none" fill-rule="evenodd" stroke="rgb(13,99,62)" stroke-width="1"/></g><g id="enm2inq2s3m8100" transform="matrix(1 0 0 1 99 124.07299804687500)"><path id="enm2inq2s3m8101" d="M0.640700,0.323100L0.640700,24.000100L0.640700,0.323100Z" fill="none" fill-rule="evenodd" stroke="rgb(13,99,62)" stroke-width="1"/></g><path id="enm2inq2s3m8102" d="M9.406900,107.573100L113.252900,107.573100L9.406900,107.573100Z" fill="none" fill-rule="evenodd" stroke="rgb(13,99,62)" stroke-width="1"/><path id="enm2inq2s3m8103" d="M9.406900,83.573000L113.252900,83.573000L9.406900,83.573000Z" fill="none" fill-rule="evenodd" stroke="rgb(13,99,62)" stroke-width="1"/><path id="enm2inq2s3m8104" d="M9.406900,58.573000L113.252900,58.573000L9.406900,58.573000Z" fill="none" fill-rule="evenodd" stroke="rgb(13,99,62)" stroke-width="1"/><path id="enm2inq2s3m8105" d="M9.406900,35.573000L113.252900,35.573000L9.406900,35.573000Z" fill="none" fill-rule="evenodd" stroke="rgb(13,99,62)" stroke-width="1"/><path id="enm2inq2s3m8106" d="M9.406900,11.573000L113.252900,11.573000L9.406900,11.573000Z" fill="none" fill-rule="evenodd" stroke="rgb(13,99,62)" stroke-width="1"/><g id="enm2inq2s3m8107" transform="matrix(1 0 0 1 112 0.07300000637770)"><path id="enm2inq2s3m8108" d="M27.274900,3.342300L0.837900,0.927300L0.837900,148.000300L27.090900,148.000300C28.207900,148.000300,29.112900,147.094300,29.112900,145.978300L29.112900,5.356300C29.112900,4.310300,28.315900,3.437300,27.274900,3.342300" fill="rgb(105,180,130)" fill-rule="evenodd" stroke="none" stroke-width="1"/></g><polygon id="enm2inq2s3m8109" points="137.790100,13.800100 118.237100,12.243100 118.237100,131.412100 137.790100,131.412100" fill="none" fill-rule="evenodd" stroke="rgb(13,99,62)" stroke-width="1"/><polygon id="enm2inq2s3m8110" points="20.987000,132.122000 100.851000,132.122000 100.851000,12.555000 20.987000,12.555000" fill="rgb(105,180,130)" fill-rule="evenodd" stroke="none" stroke-width="1"/><polygon id="enm2inq2s3m8111" points="24.219000,129.040000 97.618000,129.040000 97.618000,15.637000 24.219000,15.637000" fill="rgb(13,116,78)" fill-rule="evenodd" stroke="none" stroke-width="1"/><path id="enm2inq2s3m8112" d="M124.431000,47.030900C124.431000,51.561900,126.686000,55.234900,129.468000,55.234900C132.249000,55.234900,134.504000,51.561900,134.504000,47.030900C134.504000,42.499900,132.249000,38.826900,129.468000,38.826900C126.686000,38.826900,124.431000,42.499900,124.431000,47.030900" fill="rgb(13,99,62)" fill-rule="evenodd" stroke="none" stroke-width="1"/><path id="enm2inq2s3m8113" d="M128.221500,39.090400C126.043500,39.995400,124.431500,43.201400,124.431500,47.030400C124.431500,50.859400,126.043500,54.066400,128.221500,54.971400C130.399500,54.066400,132.011500,50.859400,132.011500,47.030400C132.011500,43.201400,130.399500,39.995400,128.221500,39.090400" fill="rgb(8,73,44)" fill-rule="evenodd" stroke="none" stroke-width="1"/><path id="enm2inq2s3m8114" d="M141.343200,14.111700L112.785200,11.619700L141.343200,14.111700Z" fill="none" fill-rule="evenodd" stroke="rgb(13,99,62)" stroke-width="1"/><path id="enm2inq2s3m8115" d="M141.499000,35.296300L112.838000,35.244300L141.499000,35.296300Z" fill="none" fill-rule="evenodd" stroke="rgb(13,99,62)" stroke-width="1"/><path id="enm2inq2s3m8116" d="M141.109600,58.573000L112.837600,58.573000L141.109600,58.573000Z" fill="none" fill-rule="evenodd" stroke="rgb(13,99,62)" stroke-width="1"/><path id="enm2inq2s3m8117" d="M141.499000,83.573000L112.630000,83.573000L141.499000,83.573000Z" fill="none" fill-rule="evenodd" stroke="rgb(13,99,62)" stroke-width="1"/><path id="enm2inq2s3m8118" d="M141.499000,107.884600L112.838000,107.572600L141.499000,107.884600Z" fill="none" fill-rule="evenodd" stroke="rgb(13,99,62)" stroke-width="1"/><path id="enm2inq2s3m8119" d="M141.499000,131.457600L112.630000,131.249600L141.499000,131.457600Z" fill="none" fill-rule="evenodd" stroke="rgb(13,99,62)" stroke-width="1"/></g><g id="enm2inq2s3m8120" transform="matrix(1 0 0 1 150 262)" opacity="0"><rect id="enm2inq2s3m8121" width="60" height="10" rx="5" ry="0" transform="matrix(1 0 0 1 12 154)" fill="rgb(13,99,62)" stroke="none" stroke-width="1"/><polygon id="enm2inq2s3m8122" points="0,114.022000 83.327000,114.022000 83.327000,2 0,2" fill="rgb(8,73,44)" fill-rule="evenodd" stroke="none" stroke-width="1"/><polygon id="enm2inq2s3m8123" points="3.645000,107.691000 79.681000,107.691000 79.681000,6.331000 3.645000,6.331000" fill="rgb(13,116,78)" fill-rule="evenodd" stroke="none" stroke-width="1"/><polygon id="enm2inq2s3m8124" points="10.557000,100.711000 72.770000,100.711000 72.770000,13.309000 10.557000,13.309000" fill="rgb(105,180,130)" fill-rule="evenodd" stroke="none" stroke-width="1"/><g id="enm2inq2s3m8125" transform="matrix(1 0 0 1 0 0.34600001573563)"><path id="enm2inq2s3m8126" d="M21.713100,159L61.613100,159C62.212100,159,62.698100,158.515000,62.698100,157.916000L62.698100,149.066000C62.698100,148.467000,62.212100,147.982000,61.613100,147.982000L21.713100,147.982000C21.114100,147.982000,20.629100,148.467000,20.629100,149.066000L20.629100,157.916000C20.629100,158.515000,21.114100,159,21.713100,159" fill="rgb(13,99,62)" fill-rule="evenodd" stroke="none" stroke-width="1"/><path id="enm2inq2s3m8127" d="M35.676400,159L61.613400,159C62.212400,159,62.697400,158.515000,62.697400,157.916000L62.697400,149.066000C62.697400,148.467000,62.212400,147.982000,61.613400,147.982000L35.676400,147.982000C35.077400,147.982000,34.592400,148.467000,34.592400,149.066000L34.592400,157.916000C34.592400,158.515000,35.077400,159,35.676400,159" fill="rgb(105,180,130)" fill-rule="evenodd" stroke="none" stroke-width="1"/><polygon id="enm2inq2s3m8128" points="24.801000,159 58.526000,159 58.526000,147.982000 24.801000,147.982000" fill="rgb(8,73,44)" fill-rule="evenodd" stroke="none" stroke-width="1"/><path id="enm2inq2s3m8129" d="M0,112.011500C0,135.021500,18.653000,153.674500,41.663000,153.674500L41.663000,153.674500C64.673000,153.674500,83.327000,135.021500,83.327000,112.011500L0,112.011500Z" fill="rgb(105,180,130)" fill-rule="evenodd" stroke="none" stroke-width="1"/><path id="enm2inq2s3m8130" d="M0,112.011500C0,135.021500,18.653000,153.674500,41.663000,153.674500L41.663000,153.674500C64.673000,153.674500,36.993000,135.021500,36.993000,112.011500L0,112.011500Z" fill="rgb(13,116,78)" fill-rule="evenodd" stroke="none" stroke-width="1"/><path id="enm2inq2s3m8131" d="M9.750000,112.011500C9.750000,135.021500,24.038000,153.674500,41.663000,153.674500L41.663000,153.674500C59.288000,153.674500,73.577000,135.021500,73.577000,112.011500L9.750000,112.011500Z" fill="rgb(8,73,44)" fill-rule="evenodd" stroke="none" stroke-width="1"/><path id="enm2inq2s3m8132" d="M0.000100,116.676251C0.024100,116.671300,-0.015900,117.046300,0.163100,117.692300C0.325100,118.338300,0.766100,119.245300,1.615100,120.158300C2.457100,121.074300,3.677100,122.000300,5.202100,122.835300C6.729100,123.669300,8.545100,124.434300,10.570100,125.137300C14.624100,126.548300,19.557100,127.558300,24.875100,128.287300C30.197100,129.013300,35.932100,129.365300,41.663100,129.342300C47.395100,129.363300,53.130100,129.012300,58.452100,128.287300C63.769100,127.554300,68.702100,126.548300,72.756100,125.136300C74.781100,124.433300,76.596100,123.667300,78.124100,122.835300C79.648100,122.000300,80.868100,121.074300,81.711100,120.158300C82.560100,119.244300,83.001100,118.339300,83.163100,117.691300C83.342100,117.044300,83.302100,116.672300,83.326100,116.676251C83.302100,116.673300,83.362100,117.042300,83.216100,117.704300C83.083100,118.364300,82.695100,119.322300,81.858100,120.287300C80.210100,122.250300,77.015100,124.179300,72.946100,125.666300C68.873100,127.171300,63.932100,128.374300,58.572100,129.146300C53.211100,129.919300,47.438100,130.321300,41.663100,130.340300C35.889100,130.319300,30.115100,129.919300,24.754100,129.145300C19.395100,128.370300,14.454100,127.170300,10.381100,125.665300C6.312100,124.177300,3.116100,122.250300,1.469100,120.286300C0.632100,119.322300,0.244100,118.365300,0.111100,117.703300C-0.035900,117.041300,0.024100,116.674300,0.000100,116.676251" fill="rgb(13,99,62)" fill-rule="evenodd" stroke="none" stroke-width="1"/><path id="enm2inq2s3m8133" d="M0,112.011500C0,119.281500,18.653000,125.174500,41.663000,125.174500L41.663000,125.174500C64.673000,125.174500,83.327000,119.281500,83.327000,112.011500L0,112.011500Z" fill="rgb(13,116,78)" fill-rule="evenodd" stroke="none" stroke-width="1"/><path id="enm2inq2s3m8134" d="M46.659900,117.984800C46.659900,119.687800,50.912900,121.067800,56.159900,121.067800C61.406900,121.067800,65.659900,119.687800,65.659900,117.984800C65.659900,116.281800,61.406900,114.901800,56.159900,114.901800C50.912900,114.901800,46.659900,116.281800,46.659900,117.984800" fill="rgb(105,180,130)" fill-rule="evenodd" stroke="none" stroke-width="1"/><path id="enm2inq2s3m8135" d="M17.659900,117.984800C17.659900,119.687800,21.912900,121.067800,27.159900,121.067800C32.406900,121.067800,36.659900,119.687800,36.659900,117.984800C36.659900,116.281800,32.406900,114.901800,27.159900,114.901800C21.912900,114.901800,17.659900,116.281800,17.659900,117.984800" fill="rgb(105,180,130)" fill-rule="evenodd" stroke="none" stroke-width="1"/><path id="enm2inq2s3m8136" d="M47.863100,119.484700C49.487100,120.428700,52.592100,121.067700,56.160100,121.067700C59.728100,121.067700,62.833100,120.428700,64.457100,119.484700C62.833100,118.540700,59.728100,117.901700,56.160100,117.901700C52.592100,117.901700,49.487100,118.540700,47.863100,119.484700" fill="rgb(8,73,44)" fill-rule="evenodd" stroke="none" stroke-width="1"/><path id="enm2inq2s3m8137" d="M18.863100,119.484700C20.487100,120.428700,23.592100,121.067700,27.160100,121.067700C30.728100,121.067700,33.833100,120.428700,35.457100,119.484700C33.833100,118.540700,30.728100,117.901700,27.160100,117.901700C23.592100,117.901700,20.487100,118.540700,18.863100,119.484700" fill="rgb(8,73,44)" fill-rule="evenodd" stroke="none" stroke-width="1"/></g></g><g id="enm2inq2s3m8138" transform="matrix(1 0 0 1 116 280)" opacity="0"><rect id="enm2inq2s3m8139" width="152" height="14" rx="7" ry="0" transform="matrix(1 0 0 1 0 132)" fill="rgb(13,99,62)" stroke="none" stroke-width="1"/><g id="enm2inq2s3m8140" transform="matrix(1 0 0 1 8 115.41799926757813)"><path id="enm2inq2s3m8141" d="M5.540000,26L128.629000,26C132.106000,26,134.925000,23.181000,134.925000,19.704000L134.925000,11.175000C134.925000,9.042000,133.844000,7.054000,132.054000,5.893000L123.664000,0.452000L11.151000,0.452000L3.005000,5.885000C1.254000,7.053000,0.203000,9.018000,0.203000,11.123000L0.203000,20.663000C0.203000,23.610000,2.592000,26,5.540000,26" fill="rgb(105,180,130)" fill-rule="evenodd" stroke="none" stroke-width="1"/></g><g id="enm2inq2s3m8142" transform="matrix(1 0 0 1 18 0.41799998283386)"><path id="enm2inq2s3m8143" d="M0.023900,116.060900L115.102900,116.060900L115.102900,28.031900C115.102900,12.871900,102.813900,0.581900,87.653900,0.581900L27.472900,0.581900C12.312900,0.581900,0.023900,12.871900,0.023900,28.031900L0.023900,116.060900Z" fill="rgb(137,206,158)" fill-rule="evenodd" stroke="none" stroke-width="1"/></g><g id="enm2inq2s3m8144" transform="matrix(1 0 0 1 18 0.41799998283386)"><path id="enm2inq2s3m8145" d="M0.023900,116.060900L92.304900,116.060900L92.304900,28.031900C92.304900,12.871900,80.015900,0.581900,64.855900,0.581900L27.472900,0.581900C12.312900,0.581900,0.023900,12.871900,0.023900,28.031900L0.023900,116.060900Z" fill="rgb(137,206,158)" fill-rule="evenodd" stroke="none" stroke-width="1"/></g><g id="enm2inq2s3m8146" transform="matrix(1 0 0 1 25 0.41799998283386)"><path id="enm2inq2s3m8147" d="M0.421100,116.060900L104.335100,116.060900L104.335100,28.031900C104.335100,12.871900,92.046100,0.581900,76.886100,0.581900L27.870100,0.581900C12.710100,0.581900,0.421100,12.871900,0.421100,28.031900L0.421100,116.060900Z" fill="rgb(105,180,130)" fill-rule="evenodd" stroke="none" stroke-width="1"/></g><path id="enm2inq2s3m8148" d="M48.992500,52.344100L102.134500,52.344100C103.806500,52.344100,105.161500,50.989100,105.161500,49.317100L105.161500,4.027100C105.161500,2.355100,103.806500,1.000100,102.134500,1.000100L48.992500,1.000100C47.320500,1.000100,45.965500,2.355100,45.965500,4.027100L45.965500,49.317100C45.965500,50.989100,47.320500,52.344100,48.992500,52.344100" fill="rgb(105,180,130)" fill-rule="evenodd" stroke="none" stroke-width="1"/><rect id="enm2inq2s3m8149" width="13" height="13" rx="2" ry="0" transform="matrix(0.70710678118655 0.70710678118655 -0.70710678118655 0.70710678118655 97.50000000000000 11.30761184457486)" fill="rgb(137,206,158)" fill-rule="evenodd" stroke="none" stroke-width="1"/><path id="enm2inq2s3m8150" d="M95.492334,26C97.982198,26,100,24.343971,100,22.300516L100,20.699484C100,18.656029,97.982198,17,95.492334,17L50.507666,17C48.017802,17,46,18.656029,46,20.699484L46,22.300516C46,24.343971,48.017802,26,50.507666,26L95.492334,26Z" fill="rgb(137,206,158)" fill-rule="evenodd" stroke="none" stroke-width="1"/><rect id="enm2inq2s3m8151" width="13" height="13" rx="2" ry="0" transform="matrix(0.70710678118655 0.70710678118655 -0.70710678118655 0.70710678118655 97.50000000000000 14.30761184457488)" fill="rgb(13,99,62)" fill-rule="evenodd" stroke="none" stroke-width="1"/><polygon id="enm2inq2s3m8152" points="43,35 109,35 109,10 43,10" fill="none" fill-rule="evenodd" stroke="rgb(13,99,62)" stroke-width="1"/><path id="enm2inq2s3m8153" d="M95.492334,28C97.982198,28,100,26.343971,100,24.300516L100,22.699484C100,20.656029,97.982198,19,95.492334,19L50.507666,19C48.017802,19,46,20.656029,46,22.699484L46,24.300516C46,26.343971,48.017802,28,50.507666,28L95.492334,28Z" fill="rgb(13,99,62)" fill-rule="evenodd" stroke="none" stroke-width="1"/><polygon id="enm2inq2s3m8154" points="45.965000,111.226000 105.161000,111.226000 105.161000,64.935000 45.965000,64.935000" fill="none" fill-rule="evenodd" stroke="rgb(13,116,78)" stroke-width="1"/><polygon id="enm2inq2s3m8155" points="109.525450,37.592000 113.525450,37.592000 113.525450,9.592000 109.525450,9.592000" fill="rgb(13,116,78)" fill-rule="evenodd" stroke="none" stroke-width="1"/><polygon id="enm2inq2s3m8156" points="38.525450,37.592000 42.525450,37.592000 42.525450,9.592000 38.525450,9.592000" fill="rgb(13,116,78)" fill-rule="evenodd" stroke="none" stroke-width="1"/><polygon id="enm2inq2s3m8157" points="18.024000,112.306000 29.377000,112.306000 29.377000,75.559000 18.024000,75.559000" fill="rgb(137,206,158)" fill-rule="evenodd" stroke="none" stroke-width="1"/><polygon id="enm2inq2s3m8158" points="18.167700,75.429400 28.970700,75.429400 18.167700,86.670400" fill="rgb(13,116,78)" fill-rule="evenodd" stroke="none" stroke-width="1"/><polygon id="enm2inq2s3m8159" points="29.167700,112.429400 18.167700,112.429400 29.167700,101.429400" fill="rgb(13,116,78)" fill-rule="evenodd" stroke="none" stroke-width="1"/><polygon id="enm2inq2s3m8160" points="18.167700,94.760300 29.167700,82.929300 29.167700,95.012300 18.167700,105.332300" fill="rgb(13,116,78)" fill-rule="evenodd" stroke="none" stroke-width="1"/><polygon id="enm2inq2s3m8161" points="121.750000,112.306000 133.103000,112.306000 133.103000,75.559000 121.750000,75.559000" fill="rgb(137,206,158)" fill-rule="evenodd" stroke="none" stroke-width="1"/><polygon id="enm2inq2s3m8162" points="122.167700,75.429400 132.697700,75.429400 122.167700,86.670400" fill="rgb(13,116,78)" fill-rule="evenodd" stroke="none" stroke-width="1"/><polygon id="enm2inq2s3m8163" points="133.167700,112.429400 121.894700,112.429400 133.167700,101.429400" fill="rgb(13,116,78)" fill-rule="evenodd" stroke="none" stroke-width="1"/><polygon id="enm2inq2s3m8164" points="122.167700,94.760300 133.167700,82.929300 133.167700,95.012300 122.167700,105.332300" fill="rgb(13,116,78)" fill-rule="evenodd" stroke="none" stroke-width="1"/><polygon id="enm2inq2s3m8165" points="38.525450,38 113.525450,38 108.336706,34 43.874591,34" fill="rgb(137,206,158)" fill-rule="evenodd" stroke="none" stroke-width="1"/><path id="enm2inq2s3m8166" d="M139.675900,121.090900L131.663900,115.428900L19.150900,115.428900L11.207900,121.190900C9.456900,122.358900,8.607900,126.428900,8.607900,126.428900L142.167900,126.428900L142.167900,126.593900C142.167900,124.459900,141.465900,122.251900,139.675900,121.090900" fill="rgb(137,206,158)" fill-rule="evenodd" stroke="none" stroke-width="1"/><polygon id="enm2inq2s3m8167" points="8,130.471000 142.924000,130.471000 142.924000,126.594000 8,126.594000" fill="rgb(13,116,78)" fill-rule="evenodd" stroke="none" stroke-width="1"/></g></g><script><![CDATA[!function(t,n){"object"==typeof exports&&"undefined"!=typeof module?module.exports=n():"function"==typeof define&&define.amd?define(n):(t=t||self).__SVGATOR_PLAYER__=n()}(this,(function(){"use strict";function t(n){return(t="function"==typeof Symbol&&"symbol"==typeof Symbol.iterator?function(t){return typeof t}:function(t){return t&&"function"==typeof Symbol&&t.constructor===Symbol&&t!==Symbol.prototype?"symbol":typeof t})(n)}function n(t,n){if(!(t instanceof n))throw new TypeError("Cannot call a class as a function")}function r(t,n){for(var r=0;r<n.length;r++){var e=n[r];e.enumerable=e.enumerable||!1,e.configurable=!0,"value"in e&&(e.writable=!0),Object.defineProperty(t,e.key,e)}}function e(t,n,e){return n&&r(t.prototype,n),e&&r(t,e),t}var i=1e-5,u=Math.abs;function o(t){return t}function a(t,n,r){var e=1-r;return 3*r*e*(t*e+n*r)+r*r*r}function l(){var t=arguments.length>0&&void 0!==arguments[0]?arguments[0]:0,n=arguments.length>1&&void 0!==arguments[1]?arguments[1]:0,r=arguments.length>2&&void 0!==arguments[2]?arguments[2]:1,e=arguments.length>3&&void 0!==arguments[3]?arguments[3]:1;return t<0||t>1||r<0||r>1?null:u(t-n)<=i&&u(r-e)<=i?o:function(o){if(o<=0)return t>0?o*n/t:0===n&&r>0?o*e/r:0;if(o>=1)return r<1?1+(o-1)*(e-1)/(r-1):1===r&&t<1?1+(o-1)*(n-1)/(t-1):1;for(var l,f=0,s=1;f<s;){var c=a(t,r,l=(f+s)/2);if(u(o-c)<i)break;c<o?f=l:s=l}return a(n,e,l)}}function f(){return 1}function s(t){return 1===t?1:0}function c(){var t=arguments.length>0&&void 0!==arguments[0]?arguments[0]:1,n=arguments.length>1&&void 0!==arguments[1]?arguments[1]:0;if(1===t){if(0===n)return s;if(1===n)return f}var r=1/t;return function(t){return t>=1?1:(t+=n*r)-t%r}}function v(t){var n=arguments.length>1&&void 0!==arguments[1]?arguments[1]:2;if(Number.isInteger(t))return t;var r=Math.pow(10,n);return Math.round(t*r)/r}var h=Math.PI/180;function y(t,n,r){return t>=.5?r:n}function d(t,n,r){return 0===t||n===r?n:t*(r-n)+n}function g(t,n,r){var e=d(t,n,r);return e<=0?0:e}function m(t,n,r){return 0===t?n:1===t?r:{x:d(t,n.x,r.x),y:d(t,n.y,r.y)}}function p(t,n,r){return 0===t?n:1===t?r:{x:g(t,n.x,r.x),y:g(t,n.y,r.y)}}function b(t,n,r){var e=function(t,n,r){return Math.round(d(t,n,r))}(t,n,r);return e<=0?0:e>=255?255:e}function w(t,n,r){return 0===t?n:1===t?r:{r:b(t,n.r,r.r),g:b(t,n.g,r.g),b:b(t,n.b,r.b),a:d(t,null==n.a?1:n.a,null==r.a?1:r.a)}}function A(t,n,r){if(0===t)return n;if(1===t)return r;var e=n.length;if(e!==r.length)return y(t,n,r);for(var i=[],u=0;u<e;u++)i.push(w(t,n[u],r[u]));return i}function x(t,n,r){var e=n.length;if(e!==r.length)return y(t,n,r);for(var i=new Array(e),u=0;u<e;u++)i[u]=d(t,n[u],r[u]);return i}function k(t,n){for(var r=[],e=0;e<t;e++)r.push(n);return r}function S(t,n){if(--n<=0)return t;var r=(t=Object.assign([],t)).length;do{for(var e=0;e<r;e++)t.push(t[e])}while(--n>0);return t}var _=6,M=/\.0+$/g;function I(t){return Number.isInteger(t)?t+"":t.toFixed(_).replace(M,"")}function E(t){var n=arguments.length>1&&void 0!==arguments[1]?arguments[1]:" ";return t&&t.length?t.map(I).join(n):""}function F(t){return I(t.x)+","+I(t.y)}function B(t){return t?null==t.a||t.a>=1?"rgb("+t.r+","+t.g+","+t.b+")":"rgba("+t.r+","+t.g+","+t.b+","+t.a+")":"transparent"}var j={f:null,i:p,u:function(t,n){return function(r){var e=n(r);t.setAttribute("rx",I(e.x)),t.setAttribute("ry",I(e.y))}}},q={f:null,i:function(t,n,r){return 0===t?n:1===t?r:{width:g(t,n.width,r.width),height:g(t,n.height,r.height)}},u:function(t,n){return function(r){var e=n(r);t.setAttribute("width",I(e.width)),t.setAttribute("height",I(e.height))}}},P=Math.sin,O=Math.cos,z=Math.acos,L=Math.asin,C=Math.tan,R=Math.atan2,T=Math.PI/180,V=180/Math.PI,D=Math.sqrt,N=function(){function t(){var r=arguments.length>0&&void 0!==arguments[0]?arguments[0]:1,e=arguments.length>1&&void 0!==arguments[1]?arguments[1]:0,i=arguments.length>2&&void 0!==arguments[2]?arguments[2]:0,u=arguments.length>3&&void 0!==arguments[3]?arguments[3]:1,o=arguments.length>4&&void 0!==arguments[4]?arguments[4]:0,a=arguments.length>5&&void 0!==arguments[5]?arguments[5]:0;n(this,t),this.m=[r,e,i,u,o,a],this.i=null,this.w=null,this.s=null}return e(t,[{key:"point",value:function(t,n){var r=this.m;return{x:r[0]*t+r[2]*n+r[4],y:r[1]*t+r[3]*n+r[5]}}},{key:"translateSelf",value:function(){var t=arguments.length>0&&void 0!==arguments[0]?arguments[0]:0,n=arguments.length>1&&void 0!==arguments[1]?arguments[1]:0;if(!t&&!n)return this;var r=this.m;return r[4]+=r[0]*t+r[2]*n,r[5]+=r[1]*t+r[3]*n,this.w=this.s=this.i=null,this}},{key:"rotateSelf",value:function(){var t=arguments.length>0&&void 0!==arguments[0]?arguments[0]:0;if(t%=360){var n=P(t*=T),r=O(t),e=this.m,i=e[0],u=e[1];e[0]=i*r+e[2]*n,e[1]=u*r+e[3]*n,e[2]=e[2]*r-i*n,e[3]=e[3]*r-u*n,this.w=this.s=this.i=null}return this}},{key:"scaleSelf",value:function(){var t=arguments.length>0&&void 0!==arguments[0]?arguments[0]:1,n=arguments.length>1&&void 0!==arguments[1]?arguments[1]:1;if(1!==t||1!==n){var r=this.m;r[0]*=t,r[1]*=t,r[2]*=n,r[3]*=n,this.w=this.s=this.i=null}return this}},{key:"skewSelf",value:function(t,n){if(n%=360,(t%=360)||n){var r=this.m,e=r[0],i=r[1],u=r[2],o=r[3];t&&(t=C(t*T),r[2]+=e*t,r[3]+=i*t),n&&(n=C(n*T),r[0]+=u*n,r[1]+=o*n),this.w=this.s=this.i=null}return this}},{key:"resetSelf",value:function(){var t=arguments.length>0&&void 0!==arguments[0]?arguments[0]:1,n=arguments.length>1&&void 0!==arguments[1]?arguments[1]:0,r=arguments.length>2&&void 0!==arguments[2]?arguments[2]:0,e=arguments.length>3&&void 0!==arguments[3]?arguments[3]:1,i=arguments.length>4&&void 0!==arguments[4]?arguments[4]:0,u=arguments.length>5&&void 0!==arguments[5]?arguments[5]:0,o=this.m;return o[0]=t,o[1]=n,o[2]=r,o[3]=e,o[4]=i,o[5]=u,this.w=this.s=this.i=null,this}},{key:"recomposeSelf",value:function(){var t=arguments.length>0&&void 0!==arguments[0]?arguments[0]:null,n=arguments.length>1&&void 0!==arguments[1]?arguments[1]:null,r=arguments.length>2&&void 0!==arguments[2]?arguments[2]:null,e=arguments.length>3&&void 0!==arguments[3]?arguments[3]:null,i=arguments.length>4&&void 0!==arguments[4]?arguments[4]:null;return this.isIdentity||this.resetSelf(),t&&(t.x||t.y)&&this.translateSelf(t.x,t.y),n&&this.rotateSelf(n),r&&(r.x&&this.skewSelf(r.x,0),r.y&&this.skewSelf(0,r.y)),!e||1===e.x&&1===e.y||this.scaleSelf(e.x,e.y),i&&(i.x||i.y)&&this.translateSelf(i.x,i.y),this}},{key:"decompose",value:function(){var t=arguments.length>0&&void 0!==arguments[0]?arguments[0]:0,n=arguments.length>1&&void 0!==arguments[1]?arguments[1]:0,r=this.m,e=r[0]*r[0]+r[1]*r[1],i=[[r[0],r[1]],[r[2],r[3]]],u=D(e);if(0===u)return{origin:{x:r[4],y:r[5]},translate:{x:t,y:n},scale:{x:0,y:0},skew:{x:0,y:0},rotate:0};i[0][0]/=u,i[0][1]/=u;var o=r[0]*r[3]-r[1]*r[2]<0;o&&(u=-u);var a=i[0][0]*i[1][0]+i[0][1]*i[1][1];i[1][0]-=i[0][0]*a,i[1][1]-=i[0][1]*a;var l=D(i[1][0]*i[1][0]+i[1][1]*i[1][1]);if(0===l)return{origin:{x:r[4],y:r[5]},translate:{x:t,y:n},scale:{x:u,y:0},skew:{x:0,y:0},rotate:0};i[1][0]/=l,i[1][1]/=l,a/=l;var f=0;return i[1][1]<0?(f=z(i[1][1])*V,i[0][1]<0&&(f=360-f)):f=L(i[0][1])*V,o&&(f=-f),a=R(a,D(i[0][0]*i[0][0]+i[0][1]*i[0][1]))*V,{origin:{x:r[4],y:r[5]},translate:{x:t,y:n},scale:{x:u,y:l},skew:{x:a,y:0},rotate:f}}},{key:"toString",value:function(){return null===this.s&&(this.s="matrix("+this.m.map($).join(" ")+")"),this.s}},{key:"determinant",get:function(){var t=this.m;return t[0]*t[3]-t[1]*t[2]}},{key:"isIdentity",get:function(){if(null===this.i){var t=this.m;this.i=1===t[0]&&0===t[1]&&0===t[2]&&1===t[3]&&0===t[4]&&0===t[5]}return this.i}}]),t}(),G=/\.0+$/;function $(t){return Number.isInteger(t)?t:t.toFixed(14).replace(G,"")}Object.freeze({M:2,L:2,Z:0,H:1,V:1,C:6,Q:4,T:2,S:4,A:7});function H(t,n,r){return t+(n-t)*r}function Q(t,n,r){var e=arguments.length>3&&void 0!==arguments[3]&&arguments[3],i={x:H(t.x,n.x,r),y:H(t.y,n.y,r)};return e&&(i.a=function(t,n){return Math.atan2(n.y-t.y,n.x-t.x)}(t,n)),i}function U(t,n,r,e){var i=1-e;return i*i*t+2*i*e*n+e*e*r}function Y(t,n,r,e){return 2*(1-e)*(n-t)+2*e*(r-n)}function Z(t,n,r,e){var i=arguments.length>4&&void 0!==arguments[4]&&arguments[4],u={x:U(t.x,n.x,r.x,e),y:U(t.y,n.y,r.y,e)};return i&&(u.a=function(t,n,r,e){return Math.atan2(Y(t.y,n.y,r.y,e),Y(t.x,n.x,r.x,e))}(t,n,r,e)),u}function J(t,n,r,e,i){var u=i*i;return i*u*(e-t+3*(n-r))+3*u*(t+r-2*n)+3*i*(n-t)+t}function K(t,n,r,e,i){var u=1-i;return 3*(u*u*(n-t)+2*u*i*(r-n)+i*i*(e-r))}function W(t,n,r,e,i){var u=arguments.length>5&&void 0!==arguments[5]&&arguments[5],o={x:J(t.x,n.x,r.x,e.x,i),y:J(t.y,n.y,r.y,e.y,i)};return u&&(o.a=function(t,n,r,e,i){return Math.atan2(K(t.y,n.y,r.y,e.y,i),K(t.x,n.x,r.x,e.x,i))}(t,n,r,e,i)),o}function X(t,n,r){var e,i=arguments.length>3&&void 0!==arguments[3]&&arguments[3];if(nt(n)){if(null!=(e=r).start&&!nt(e))return Z(n,r.start,r,t,i)}else if(nt(r)){if(n.end)return Z(n,n.end,r,t,i)}else{if(n.end)return r.start?W(n,n.end,r.start,r,t,i):Z(n,n.end,r,t,i);if(r.start)return Z(n,r.start,r,t,i)}return Q(n,r,t,i)}function tt(t,n,r){var e=X(t,n,r,!0);return e.a=function(t){return arguments.length>1&&void 0!==arguments[1]&&arguments[1]?t+Math.PI:t}(e.a)/h,e}function nt(t){return!t.type||"corner"===t.type}var rt=new N;var et={f:function(t){return t?t.join(" "):""},i:function(n,r,e){if(0===n)return r;if(1===n)return e;var i=r.length;if(i!==e.length)return y(n,r,e);for(var u,o=new Array(i),a=0;a<i;a++){if((u=t(r[a]))!==t(e[a]))return y(n,r,e);if("number"===u)o[a]=d(n,r[a],e[a]);else{if(r[a]!==e[a])return y(n,r,e);o[a]=r[a]}}return o}},it={f:null,i:x,u:function(t,n){return function(r){var e=n(r);t.setAttribute("x1",I(e[0])),t.setAttribute("y1",I(e[1])),t.setAttribute("x2",I(e[2])),t.setAttribute("y2",I(e[3]))}}},ut={f:I,i:d},ot={f:I,i:function(t,n,r){var e=d(t,n,r);return e<=0?0:e>=1?1:e}},at={f:E,i:function(t,n,r){var e,i,u,o=n.length,a=r.length;if(o!==a)if(0===o)n=k(o=a,0);else if(0===a)a=o,r=k(o,0);else{var l=(u=(e=o)*(i=a)/function(t,n){for(var r;n;)r=n,n=t%n,t=r;return t||1}(e,i))<0?-u:u;n=S(n,Math.floor(l/o)),r=S(r,Math.floor(l/a)),o=a=l}for(var f=[],s=0;s<o;s++)f.push(v(g(t,n[s],r[s]),6));return f}};function lt(t,n,r,e,i,u,o,a){return n=function(t,n,r){for(var e,i,u,o=t.length-1,a={},l=0;l<=o;l++)(e=t[l]).e&&(e.e=n(e.e)),e.v&&"g"===(i=e.v).t&&i.r&&(u=r.getElementById(i.r))&&(a[i.r]=u.querySelectorAll("stop"));return a}(t,e,a),function(e){var i,u=r(e,t,ft);return u?"c"===u.t?B(u.v):"g"===u.t?(n[u.r]&&function(t,n){for(var r=0,e=t.length;r<e;r++)t[r].setAttribute("stop-color",B(n[r]))}(n[u.r],u.v),(i=u.r)?"url(#"+i+")":"none"):"none":"none"}}function ft(t,n,r){if(0===t)return n;if(1===t)return r;if(n&&r){var e=n.t;if(e===r.t)switch(n.t){case"c":return{t:e,v:w(t,n.v,r.v)};case"g":if(n.r===r.r)return{t:e,v:A(t,n.v,r.v),r:n.r}}}return y(t,n,r)}var st={blur:p,brightness:g,contrast:g,"drop-shadow":function(t,n,r){return 0===t?n:1===t?r:{blur:p(t,n.blur,r.blur),offset:m(t,n.offset,r.offset),color:w(t,n.color,r.color)}},grayscale:g,"hue-rotate":d,invert:g,opacity:g,saturate:g,sepia:g};function ct(t,n,r){if(0===t)return n;if(1===t)return r;var e=n.length;if(e!==r.length)return y(t,n,r);for(var i,u=[],o=0;o<e;o++){if(n[o].type!==r[o].type)return n;if(!(i=st[n[o].type]))return y(t,n,r);u.push({type:n.type,value:i(t,n[o].value,r[o].value)})}return u}var vt={blur:function(t){return t?function(n){t.setAttribute("stdDeviation",F(n))}:null},brightness:function(t,n,r){return(t=yt(r,n))?function(n){n=I(n),t.map((function(t){return t.setAttribute("slope",n)}))}:null},contrast:function(t,n,r){return(t=yt(r,n))?function(n){var r=I((1-n)/2);n=I(n),t.map((function(t){t.setAttribute("slope",n),t.setAttribute("intercept",r)}))}:null},"drop-shadow":function(t,n,r){var e=r.getElementById(n+"-blur");if(!e)return null;var i=r.getElementById(n+"-offset");if(!i)return null;var u=r.getElementById(n+"-flood");return u?function(t){e.setAttribute("stdDeviation",F(t.blur)),i.setAttribute("dx",I(t.offset.x)),i.setAttribute("dy",I(t.offset.y)),u.setAttribute("flood-color",B(t.color))}:null},grayscale:function(t){return t?function(n){t.setAttribute("values",E(function(t){return[.2126+.7874*(t=1-t),.7152-.7152*t,.0722-.0722*t,0,0,.2126-.2126*t,.7152+.2848*t,.0722-.0722*t,0,0,.2126-.2126*t,.7152-.7152*t,.0722+.9278*t,0,0,0,0,0,1,0]}(n)))}:null},"hue-rotate":function(t){return t?function(n){return t.setAttribute("values",I(n))}:null},invert:function(t,n,r){return(t=yt(r,n))?function(n){n=I(n)+" "+I(1-n),t.map((function(t){return t.setAttribute("tableValues",n)}))}:null},opacity:function(t,n,r){return(t=r.getElementById(n+"-A"))?function(n){return t.setAttribute("tableValues","0 "+I(n))}:null},saturate:function(t){return t?function(n){return t.setAttribute("values",I(n))}:null},sepia:function(t){return t?function(n){return t.setAttribute("values",E(function(t){return[.393+.607*(t=1-t),.769-.769*t,.189-.189*t,0,0,.349-.349*t,.686+.314*t,.168-.168*t,0,0,.272-.272*t,.534-.534*t,.131+.869*t,0,0,0,0,0,1,0]}(n)))}:null}};var ht=["R","G","B"];function yt(t,n){var r=ht.map((function(r){return t.getElementById(n+"-"+r)||null}));return-1!==r.indexOf(null)?null:r}var dt={fill:lt,"fill-opacity":ot,stroke:lt,"stroke-opacity":ot,"stroke-width":ut,"stroke-dashoffset":{f:I,i:d},"stroke-dasharray":at,opacity:ot,transform:function(n,r,e,i){if(!(n=function(n,r){if(!n||"object"!==t(n))return null;var e=!1;for(var i in n)n.hasOwnProperty(i)&&(n[i]&&n[i].length?(n[i].forEach((function(t){t.e&&(t.e=r(t.e))})),e=!0):delete n[i]);return e?n:null}(n,i)))return null;var u=function(t,i,u){var o=arguments.length>3&&void 0!==arguments[3]?arguments[3]:null;return n[t]?e(i,n[t],u):r&&r[t]?r[t]:o};return r&&r.a&&n.o?function(t){var r=e(t,n.o,tt);return rt.recomposeSelf(r,u("r",t,d,0)+r.a,u("k",t,m),u("s",t,m),u("t",t,m)).toString()}:function(t){return rt.recomposeSelf(u("o",t,X,null),u("r",t,d,0),u("k",t,m),u("s",t,m),u("t",t,m)).toString()}},"#filter":function(t,n,r,e,i,u,o,a){if(!n.items||!t||!t.length)return null;var l=function(t,n){var r=(t=t.map((function(t){return t&&vt[t[0]]?(n.getElementById(t[1]),vt[t[0]](n.getElementById(t[1]),t[1],n)):null}))).length;return function(n){for(var e=0;e<r;e++)t[e]&&t[e](n[e].value)}}(n.items,a);return l?(t=function(t,n){return t.map((function(t){return t.e=n(t.e),t}))}(t,e),function(n){l(r(n,t,ct))}):null},"#line":it,points:{f:E,i:x},d:et,r:ut,"#size":q,"#radius":j,_:function(t,n){if(Array.isArray(t))for(var r=0;r<t.length;r++)this[t[r]]=n;else this[t]=n}},gt=function(){function t(r){n(this,t),this.list=r,this.length=r.length}return e(t,[{key:"setAttribute",value:function(t,n){for(var r=this.list,e=0;e<this.length;e++)r[e].setAttribute(t,n)}},{key:"removeAttribute",value:function(t){for(var n=this.list,r=0;r<this.length;r++)n[r].removeAttribute(t)}},{key:"style",value:function(t,n){for(var r=this.list,e=0;e<this.length;e++)r[e].style[t]=n}}]),t}(),mt=/-./g,pt=function(t,n){return n.toUpperCase()};function bt(t){return"function"==typeof t?t:y}function wt(t){return t?"function"==typeof t?t:Array.isArray(t)?function(t){var n=arguments.length>1&&void 0!==arguments[1]?arguments[1]:o;if(!Array.isArray(t))return n;switch(t.length){case 1:return c(t[0])||n;case 2:return c(t[0],t[1])||n;case 4:return l(t[0],t[1],t[2],t[3])||n}return n}(t,null):function(t,n){var r=arguments.length>2&&void 0!==arguments[2]?arguments[2]:o;switch(t){case"linear":return o;case"steps":return c(n.steps||1,n.jump||0)||r;case"bezier":case"cubic-bezier":return l(n.x1||0,n.y1||0,n.x2||0,n.y2||0)||r}return r}(t.type,t.value,null):null}function At(t,n,r){var e=arguments.length>3&&void 0!==arguments[3]&&arguments[3],i=n.length-1;if(t<=n[0].t)return e?[0,0,n[0].v]:n[0].v;if(t>=n[i].t)return e?[i,1,n[i].v]:n[i].v;var u,o=n[0],a=null;for(u=1;u<=i;u++){if(!(t>n[u].t)){a=n[u];break}o=n[u]}return null==a?e?[i,1,n[i].v]:n[i].v:o.t===a.t?e?[u,1,a.v]:a.v:(t=(t-o.t)/(a.t-o.t),o.e&&(t=o.e(t)),e?[u,t,r(t,o.v,a.v)]:r(t,o.v,a.v))}function xt(t,n){var r=arguments.length>2&&void 0!==arguments[2]?arguments[2]:null;return t&&t.length?"function"!=typeof n?null:("function"!=typeof r&&(r=null),function(e){var i=At(e,t,n);return null!=i&&r&&(i=r(i)),i}):null}function kt(t,n){return t.t-n.t}function St(n,r,e,i,u){var o,a="@"===e[0],l="#"===e[0],f=dt[e],s=y;switch(a?(o=e.substr(1),e=o.replace(mt,pt)):l&&(e=e.substr(1)),t(f)){case"function":if(s=f(i,u,At,wt,e,a,r,n),l)return s;break;case"string":s=xt(i,bt(f));break;case"object":if((s=xt(i,bt(f.i),f.f))&&"function"==typeof f.u)return f.u(r,s,e,a,n)}return s?function(t,n,r){if(arguments.length>3&&void 0!==arguments[3]&&arguments[3])return t instanceof gt?function(e){return t.style(n,r(e))}:function(e){return t.style[n]=r(e)};if(Array.isArray(n)){var e=n.length;return function(i){var u=r(i);if(null==u)for(var o=0;o<e;o++)t[o].removeAttribute(n);else for(var a=0;a<e;a++)t[a].setAttribute(n,u)}}return function(e){var i=r(e);null==i?t.removeAttribute(n):t.setAttribute(n,i)}}(r,e,s,a):null}function _t(n,r,e,i){if(!i||"object"!==t(i))return null;var u=null,o=null;return Array.isArray(i)?o=function(t){if(!t||!t.length)return null;for(var n=0;n<t.length;n++)t[n].e&&(t[n].e=wt(t[n].e));return t.sort(kt)}(i):(o=i.keys,u=i.data||null),o?St(n,r,e,o,u):null}function Mt(t,n,r){if(!r)return null;var e=[];for(var i in r)if(r.hasOwnProperty(i)){var u=_t(t,n,i,r[i]);u&&e.push(u)}return e.length?e:null}function It(t,n){if(!n.duration||n.duration<0)return null;var r=function(t,n){if(!n)return null;var r=[];if(Array.isArray(n))for(var e=n.length,i=0;i<e;i++){var u=n[i];if(2===u.length){var o=null;if("string"==typeof u[0])o=t.getElementById(u[0]);else if(Array.isArray(u[0])){o=[];for(var a=0;a<u[0].length;a++)if("string"==typeof u[0][a]){var l=t.getElementById(u[0][a]);l&&o.push(l)}o=o.length?1===o.length?o[0]:new gt(o):null}if(o){var f=Mt(t,o,u[1]);f&&(r=r.concat(f))}}}else for(var s in n)if(n.hasOwnProperty(s)){var c=t.getElementById(s);if(c){var v=Mt(t,c,n[s]);v&&(r=r.concat(v))}}return r.length?r:null}(t,n.elements);return r?function(t,n){var r=arguments.length>2&&void 0!==arguments[2]?arguments[2]:1/0,e=arguments.length>3&&void 0!==arguments[3]?arguments[3]:1,i=arguments.length>4&&void 0!==arguments[4]&&arguments[4],u=arguments.length>5&&void 0!==arguments[5]?arguments[5]:1,o=t.length,a=e>0?n:0;i&&r%2==0&&(a=n-a);var l=null;return function(f,s){var c=f%n,v=1+(f-c)/n;s*=e,i&&v%2==0&&(s=-s);var h=!1;if(v>r)c=a,h=!0,-1===u&&(c=e>0?0:n);else if(s<0&&(c=n-c),c===l)return!1;l=c;for(var y=0;y<o;y++)t[y](c);return h}}(r,n.duration,n.iterations||1/0,n.direction||1,!!n.alternate,n.fill||1):null}var Et=function(){function t(r){var e=arguments.length>1&&void 0!==arguments[1]?arguments[1]:{};n(this,t),this._id=0,this._running=!1,this._animations=r,this.direction=e.direction||1,this.speed=e.speed||1,this.fps=e.fps||100,this.offset=e.offset||0}return e(t,[{key:"_start",value:function(){var t=this,n=arguments.length>0&&void 0!==arguments[0]?arguments[0]:0,r=-1/0,e=null,i={},u=function u(o){t._running=!0,null==e&&(e=o);var a=Math.round((o-e+n)*t.speed),l=t.fps?1e3/t.fps:0;if(a>r+l){t.offset=a,r=a;for(var f=t._animations,s=f.length,c=0,v=0;v<s;v++)i[v]?c++:(i[v]=f[v](a,t.direction),i[v]&&c++);if(c===s)return void t._stop()}t._id=window.requestAnimationFrame(u)};this._id=window.requestAnimationFrame(u)}},{key:"_stop",value:function(){this._id&&window.cancelAnimationFrame(this._id),this._running=!1}},{key:"play",value:function(){this._running||this._start(this.offset)}},{key:"stop",value:function(){this._stop(),this.offset=0;var t=this.direction,n=this._animations;requestAnimationFrame((function(){for(var r=0;r<n.length;r++)n[r](0,t)}))}},{key:"restart",value:function(){this._stop(),this.offset=0,this._start()}},{key:"pause",value:function(){this._stop()}},{key:"reverse",value:function(){this.direction=-this.direction}}],[{key:"build",value:function(n){if(!(n=function(t){if(!t||!t.root||!Array.isArray(t.animations))return null;var n=window.document.getElementById(t.root);if(!n)return null;var r=t.animations.map((function(t){return It(n,t)})).filter((function(t){return!!t}));return r.length?{element:n,animations:r,options:t.options||void 0}:null}(n)))return null;var r=n.element,e=n.options||{},i=new t(n.animations,n.options);return function(t,n,r){var e=arguments.length>3&&void 0!==arguments[3]?arguments[3]:null;if("click"===r){return void n.addEventListener("click",(function r(){n.removeEventListener("click",r),t.play()}))}if("hover"===r)return n.addEventListener("mouseenter",(function(){return t.play()})),void n.addEventListener("mouseleave","freeze"===e?function(){return t.pause()}:function(){return t.stop()});t.play()}(i,r,e.start,e.hover),i}}]),t}();return function(){for(var t=0,n=["ms","moz","webkit","o"],r=0;r<n.length&&!window.requestAnimationFrame;++r)window.requestAnimationFrame=window[n[r]+"RequestAnimationFrame"],window.cancelAnimationFrame=window[n[r]+"CancelAnimationFrame"]||window[n[r]+"CancelRequestAnimationFrame"];window.requestAnimationFrame||(window.requestAnimationFrame=function(n){var r=Date.now(),e=Math.max(0,16-(r-t)),i=window.setTimeout((function(){n(r+e)}),e);return t=r+e,i},window.cancelAnimationFrame=window.clearTimeout)}(),Et}));
__SVGATOR_PLAYER__.build({"root":"enm2inq2s3m81","animations":[{"duration":4000,"direction":1,"iterations":0,"fill":1,"alternate":false,"elements":{"enm2inq2s3m848":{"transform":{"data":{"t":{"x":-52.903194434999676,"y":-102.42625849499234}},"keys":{"o":[{"t":0,"v":{"x":187.5,"y":259.29425742,"type":"corner"}},{"t":400,"v":{"x":187.66350000499983,"y":259.29425743000075,"type":"corner"},"e":[0,0.765,0.855,0.875]},{"t":900,"v":{"x":187.50000000500017,"y":204.64232934000088,"type":"corner"},"e":[0.6,0.04,0.685,0.335]},{"t":1500,"v":{"x":187.5000000100001,"y":259.2942574300008,"type":"corner"},"e":[0.47,0,0.745,0.715]},{"t":2000,"v":{"x":187.66350001,"y":259.2942574300023,"type":"corner"},"e":[0.47,0,0.745,0.715]},{"t":2400,"v":{"x":187.66350000499983,"y":259.29425743000075,"type":"corner"},"e":[0,0.765,0.855,0.875]},{"t":2900,"v":{"x":187.50000000500017,"y":204.64232934000088,"type":"corner"},"e":[0.6,0.04,0.685,0.335]},{"t":3500,"v":{"x":187.5000000100001,"y":259.2942574300008,"type":"corner"},"e":[0.47,0,0.745,0.715]},{"t":4000,"v":{"x":187.66350001,"y":259.2942574300023,"type":"corner"},"e":[0.47,0,0.745,0.715]}],"s":[{"t":0,"v":{"x":1,"y":1}},{"t":300,"v":{"x":1,"y":0.9},"e":[0.42,0,0.58,1]},{"t":500,"v":{"x":1,"y":1},"e":[0.42,0,0.58,1]},{"t":700,"v":{"x":1,"y":1.1},"e":[0.42,0,0.58,1]},{"t":900,"v":{"x":1,"y":1},"e":[0.42,0,0.58,1]},{"t":1500,"v":{"x":1,"y":1},"e":[0.42,0,0.58,1]},{"t":1700,"v":{"x":1,"y":0.8},"e":[0.42,0,0.58,1]},{"t":2000,"v":{"x":1,"y":1},"e":[0.42,0,0.58,1]},{"t":2300,"v":{"x":1,"y":0.9},"e":[0.42,0,0.58,1]},{"t":2500,"v":{"x":1,"y":1},"e":[0.42,0,0.58,1]},{"t":2700,"v":{"x":1,"y":1.1},"e":[0.42,0,0.58,1]},{"t":2900,"v":{"x":1,"y":1},"e":[0.42,0,0.58,1]},{"t":3500,"v":{"x":1,"y":1},"e":[0.42,0,0.58,1]},{"t":3700,"v":{"x":1,"y":0.8},"e":[0.42,0,0.58,1]},{"t":4000,"v":{"x":1,"y":1},"e":[0.42,0,0.58,1]}]}}},"enm2inq2s3m850":{"opacity":[{"t":3100,"v":0},{"t":3300,"v":1},{"t":3800,"v":1},{"t":4000,"v":0}]},"enm2inq2s3m881":{"opacity":[{"t":2300,"v":0},{"t":2500,"v":1},{"t":3100,"v":1},{"t":3300,"v":0}]},"enm2inq2s3m893":{"opacity":[{"t":700,"v":0},{"t":900,"v":1},{"t":1500,"v":1},{"t":1700,"v":0}]},"enm2inq2s3m8120":{"opacity":[{"t":1500,"v":0},{"t":1700,"v":1},{"t":2300,"v":1},{"t":2510,"v":0}]},"enm2inq2s3m8138":{"opacity":[{"t":0,"v":0},{"t":200,"v":1},{"t":700,"v":1},{"t":880,"v":0}]}}}],"options":{"start":"load","hover":"freeze"}})]]></script></svg>