<svg width="750" height="336" viewBox="0 0 750 336" fill="none" xmlns="http://www.w3.org/2000/svg">
<rect width="750" height="336" fill="#0D744E"/>
<path d="M121.408 185.013C120.352 185.28 119.456 186.058 119.072 187.04C118.763 187.861 118.688 189.258 118.934 190.09C119.286 191.317 119.691 191.914 121.184 193.386C122.88 195.05 123.083 195.413 123.094 196.554C123.094 197.216 123.051 197.429 122.87 197.674C122.582 198.069 122.134 198.272 121.792 198.186C121.504 198.122 120.928 197.6 120.726 197.237C120.619 197.056 120.544 197.088 119.584 197.706C119.019 198.069 118.56 198.432 118.56 198.506C118.56 198.805 119.744 199.936 120.352 200.234C120.886 200.49 121.088 200.522 122.027 200.533C122.923 200.533 123.179 200.49 123.648 200.277C124.299 199.989 125.099 199.178 125.376 198.528C126.027 197.013 125.952 195.445 125.163 193.792C124.811 193.056 124.544 192.704 123.318 191.424C121.686 189.728 121.44 189.344 121.44 188.48C121.44 187.722 121.739 187.36 122.358 187.36C122.699 187.36 122.827 187.434 123.19 187.818L123.606 188.277L124.608 187.594L125.6 186.922L125.419 186.592C125.12 186.08 124.256 185.365 123.702 185.173C123.083 184.96 121.952 184.885 121.408 185.013Z" fill="white"/>
<path d="M148.15 185.045C146.337 185.514 145.345 187.306 145.654 189.546C145.846 190.901 146.326 191.679 148.001 193.354C149.697 195.061 149.953 195.477 149.953 196.522C149.953 197.354 149.739 197.845 149.27 198.079C148.79 198.335 148.395 198.197 147.873 197.599L147.414 197.077L146.379 197.738C145.803 198.101 145.334 198.431 145.334 198.474C145.334 198.655 146.23 199.626 146.678 199.935C148.225 200.959 150.486 200.746 151.585 199.487C152.662 198.25 152.939 196.17 152.267 194.367C151.915 193.418 151.254 192.511 150.006 191.253C148.566 189.802 148.267 189.343 148.267 188.511C148.267 188.021 148.321 187.861 148.523 187.637C148.993 187.136 149.761 187.317 150.219 188.021L150.411 188.309L151.254 187.722C151.723 187.392 152.182 187.093 152.267 187.04C152.406 186.954 152.406 186.901 152.225 186.56C151.574 185.344 149.707 184.65 148.15 185.045Z" fill="white"/>
<path d="M134.24 192.746V200.373H135.574H136.907V192.746V185.12H135.574H134.24V192.746Z" fill="white"/>
<path d="M160.161 186.346V187.573H161.281H162.401V193.973V200.373H163.734H165.067V193.973V187.573H166.187H167.307V186.346V185.12H163.734H160.161V186.346Z" fill="white"/>
<path d="M175.52 192.746V200.373H178.891H182.262L182.198 200.021C182.166 199.84 182.112 199.306 182.07 198.848L181.995 198.026H180.15H178.294V195.84V193.653H179.574H180.854V192.48V191.306H179.574H178.294V189.386V187.466H180.096H181.888L181.963 186.688C182.006 186.272 182.07 185.738 182.102 185.514L182.166 185.12H178.838H175.52V192.746Z" fill="white"/>
<path d="M190.56 192.746V200.373H191.734H192.907V195.072C192.907 192.16 192.928 189.802 192.96 189.834C192.992 189.856 193.355 191.989 193.76 194.57C194.176 197.141 194.528 199.36 194.56 199.498C194.614 199.733 194.646 199.744 195.712 199.712L196.8 199.68L197.558 194.773C197.974 192.074 198.347 189.77 198.379 189.653C198.4 189.536 198.432 191.904 198.443 194.901L198.454 200.373H199.627H200.8V192.746V185.12L199.019 185.141L197.227 185.173L196.683 188.746C196.384 190.709 196.054 192.896 195.947 193.6C195.787 194.613 195.734 194.816 195.67 194.56C195.627 194.378 195.264 192.192 194.87 189.674L194.144 185.12H192.352H190.56V192.746Z" fill="white"/>
<path d="M211.744 185.301C211.68 185.536 209.12 200.096 209.12 200.256C209.12 200.33 209.579 200.373 210.486 200.373H211.862L212.043 198.794C212.15 197.93 212.256 197.141 212.278 197.034C212.331 196.874 212.48 196.853 213.387 196.853C213.963 196.853 214.464 196.885 214.486 196.928C214.518 196.981 214.614 197.664 214.71 198.453C214.806 199.242 214.912 200 214.944 200.128C214.987 200.362 215.03 200.373 216.374 200.373C217.142 200.373 217.76 200.352 217.76 200.32C217.76 200.298 217.163 196.896 216.427 192.778C215.691 188.661 215.094 185.248 215.094 185.205C215.094 185.152 214.358 185.12 213.451 185.12C211.968 185.12 211.798 185.141 211.744 185.301ZM214.166 194.208L214.219 194.613H213.43C212.747 194.613 212.64 194.592 212.64 194.421C212.64 194.272 213.355 188.608 213.398 188.426C213.408 188.394 213.568 189.6 213.76 191.093C213.952 192.586 214.134 193.994 214.166 194.208Z" fill="white"/>
<path d="M68.1072 198.293V199.306H90.0272H111.947V198.293V197.279H90.0272H68.1072V198.293Z" fill="white"/>
<path d="M224.267 198.293V199.306H246.187H268.107V198.293V197.279H246.187H224.267V198.293Z" fill="white"/>
<path d="M176.907 220.746V233.226H222.507H268.107V220.746V208.266H222.507H176.907V220.746ZM202.507 209.258C203.478 209.77 203.702 210.837 203.094 212.053C202.304 213.6 200.907 214.016 200.907 212.714C200.907 211.957 201.451 211.306 202.219 211.157C202.827 211.029 202.699 210.25 202.048 210.133C200.918 209.92 198.528 211.434 196.331 213.76C192.694 217.621 190.347 222.336 190.475 225.536C190.507 226.453 190.56 226.666 190.859 227.285C191.531 228.65 192.502 229.173 194.507 229.258C196.022 229.311 196.736 229.194 200.854 228.213C204.651 227.306 205.792 227.093 207.574 226.933C210.763 226.645 213.003 227.232 215.435 228.981C216.587 229.823 217.504 230.613 217.664 230.901C217.771 231.093 217.739 231.093 217.312 230.826C215.84 229.919 213.984 229.429 212.342 229.514C211.232 229.567 210.635 229.802 209.92 230.463L209.419 230.922L209.195 230.613C208.576 229.738 207.595 229.13 206.24 228.789C205.686 228.65 205.216 228.629 203.894 228.671C202.059 228.735 201.483 228.821 198.027 229.653C194.774 230.431 193.75 230.591 192.374 230.527C189.76 230.41 188.022 229.055 187.467 226.72C187.275 225.941 187.296 224.202 187.51 223.05C188.246 219.168 191.35 214.624 195.318 211.648C198.176 209.504 201.12 208.522 202.507 209.258ZM236.459 209.429L236.843 209.664L237.568 209.44C238.027 209.29 238.71 209.184 239.414 209.152C241.184 209.056 242.016 209.344 244.992 211.082C245.75 211.52 246.422 211.904 246.486 211.925C246.56 211.946 246.23 212.384 245.771 212.885L244.928 213.813L244.331 213.482C244 213.301 243.062 212.714 242.24 212.181C240.022 210.741 238.55 210.186 237.558 210.442C237.291 210.506 237.28 210.549 237.28 211.232C237.28 212.693 236.267 214.773 234.806 216.32C233.782 217.397 233.099 217.802 232.246 217.813C231.712 217.813 231.595 217.77 231.339 217.514C231.072 217.248 231.04 217.141 231.04 216.501C231.04 215.893 231.104 215.658 231.446 214.944C232.203 213.344 233.312 212.085 235.147 210.72L236.054 210.048L235.446 210.101C233.43 210.261 229.728 213.28 226.88 217.066C224.726 219.936 223.403 222.549 222.763 225.173C222.4 226.709 222.56 227.808 223.254 228.415C224.438 229.45 226.347 228.575 228.267 226.133C229.419 224.661 230.24 222.848 230.24 221.76C230.24 221.098 230.102 220.853 229.696 220.853C228.779 220.853 227.862 221.973 227.296 223.754C227.19 224.096 227.051 224.373 226.987 224.373C226.816 224.373 225.366 225.376 224.694 225.952C224.064 226.496 224.043 226.453 224.374 225.184C224.662 224.064 225.227 222.784 225.814 221.973C226.71 220.714 228.128 219.786 229.28 219.701C230.059 219.648 230.486 219.85 230.784 220.448C230.987 220.842 231.008 221.013 230.955 221.813C230.752 224.97 227.723 228.991 224.619 230.207C224.022 230.442 223.712 230.495 222.88 230.495C221.974 230.506 221.803 230.474 221.323 230.218C219.03 229.013 218.87 225.568 220.907 221.493C223.84 215.637 229.28 210.496 233.814 209.269C234.624 209.045 235.979 209.13 236.459 209.429ZM257.334 209.536C256.278 211.402 254.016 213.418 252.064 214.229C250.742 214.773 248.854 215.029 247.808 214.784L247.52 214.72L248.32 213.781L249.131 212.853H249.856C251.915 212.853 254.582 211.658 256.747 209.77C257.163 209.418 257.504 209.12 257.526 209.12C257.547 209.12 257.462 209.301 257.334 209.536ZM252.427 209.44C252.843 209.664 252.8 210.528 252.299 211.69C252.118 212.117 252.032 212.202 251.67 212.298C251.446 212.352 251.254 212.362 251.254 212.32C251.254 212.277 251.392 211.936 251.563 211.562C252 210.624 252.064 210.314 251.851 210.229C251.531 210.101 250.656 210.762 249.174 212.256C247.574 213.866 246.486 215.21 245.046 217.333C243.755 219.232 242.091 222.08 242.208 222.186C242.422 222.4 247.595 217.45 248.747 215.925C249.206 215.328 249.344 215.21 249.696 215.157C249.92 215.114 250.123 215.104 250.144 215.125C250.176 215.146 250.016 215.402 249.792 215.69C247.872 218.24 244.438 221.61 242.08 223.253C241.27 223.829 241.238 223.872 240.864 224.746C239.787 227.328 239.659 228.703 240.523 228.49C240.886 228.405 241.803 227.37 242.72 226.016C245.771 221.504 247.723 219.68 249.494 219.68C249.878 219.68 250.038 219.744 250.358 220.021L250.742 220.362L250.923 220.128C251.094 219.904 251.168 219.882 252.224 219.914L253.355 219.946L251.019 223.893C249.739 226.058 248.662 227.946 248.619 228.085C248.363 229.087 250.048 227.808 251.36 225.984C252.022 225.077 252.075 225.024 252.459 225.024C252.672 225.013 252.854 225.045 252.854 225.077C252.854 225.184 252.182 226.133 251.403 227.104C250.091 228.757 248.715 229.994 247.702 230.431C247.264 230.623 246.518 230.591 246.251 230.367C245.995 230.165 245.782 229.45 245.878 229.13C245.92 229.002 245.696 229.13 245.27 229.493C244.896 229.802 244.352 230.175 244.054 230.303C242.774 230.911 241.76 230.346 241.76 229.045V228.586L241.056 229.258C239.798 230.453 238.795 230.837 238.027 230.389C237.12 229.845 237.078 228.469 237.91 225.994L238.304 224.778L237.995 224.842C237.824 224.874 237.579 224.906 237.451 224.906C237.259 224.906 237.067 225.141 236.576 225.93C234.987 228.501 232.566 230.559 231.136 230.559C228.822 230.559 229.152 227.114 231.819 223.541C232.992 221.962 234.763 220.405 235.936 219.893C236.555 219.626 237.558 219.605 237.899 219.85C238.667 220.384 238.614 221.813 237.771 223.754C237.611 224.138 237.611 224.16 237.782 224.16C237.888 224.16 238.144 224.106 238.347 224.053C238.678 223.968 238.774 223.85 239.136 223.125C240.299 220.768 242.07 217.941 243.51 216.16C246.016 213.045 248.672 210.56 250.475 209.653C251.126 209.322 252.022 209.226 252.427 209.44ZM203.03 214.496C203.19 214.581 203.424 214.794 203.531 214.954C203.84 215.402 203.787 216.629 203.435 217.6C203.286 218.005 203.168 218.357 203.19 218.378C203.264 218.442 203.99 218.101 204.459 217.781C204.704 217.6 205.366 217.045 205.92 216.533C207.083 215.477 208.299 214.624 208.886 214.453C210.283 214.069 211.36 214.677 211.36 215.85C211.36 216.821 210.272 218.4 209.6 218.4C209.291 218.4 208.907 218.058 208.907 217.781C208.918 217.504 209.27 216.768 209.515 216.565C209.632 216.458 209.91 216.309 210.144 216.234C210.646 216.053 210.72 215.808 210.358 215.573C210.112 215.413 210.059 215.413 209.59 215.616C208.982 215.882 207.328 217.514 206.731 218.432C205.163 220.832 204.587 222.73 205.227 223.36C206.134 224.277 207.936 222.901 210.912 218.986C213.75 215.264 216.043 213.706 217.366 214.602C217.686 214.826 217.771 214.837 217.878 214.709C217.963 214.602 218.283 214.56 219.104 214.56C219.712 214.56 220.214 214.592 220.214 214.624C220.214 214.656 219.179 216.405 217.92 218.506C216.662 220.597 215.584 222.432 215.531 222.581C215.478 222.73 215.467 222.912 215.52 222.986C215.723 223.317 217.408 221.856 218.539 220.352C218.848 219.946 218.923 219.904 219.339 219.893H219.798L218.966 220.981C217.91 222.378 215.968 224.32 215.158 224.789C214.731 225.045 214.368 225.173 213.974 225.205C213.44 225.248 213.366 225.226 213.067 224.928C212.811 224.672 212.747 224.512 212.747 224.16V223.712L212.214 224.192C211.211 225.098 210.059 225.45 209.291 225.109C208.875 224.917 208.651 224.341 208.726 223.626C208.768 223.296 208.832 222.933 208.875 222.816C208.918 222.698 208.662 222.858 208.256 223.21C206.656 224.586 205.643 225.173 204.608 225.29C204.086 225.354 203.926 225.322 203.414 225.077C202.56 224.65 202.251 224.096 202.262 222.997C202.272 222.058 202.528 221.216 203.158 220.01C203.382 219.573 203.552 219.2 203.531 219.178C203.51 219.157 203.318 219.178 203.083 219.232C202.71 219.306 202.603 219.413 201.718 220.746C199.776 223.648 197.238 225.61 195.926 225.237C195.403 225.088 195.179 224.928 194.955 224.565C193.974 222.976 195.414 219.53 198.24 216.682C199.872 215.04 201.014 214.357 202.166 214.346C202.475 214.346 202.87 214.421 203.03 214.496ZM223.915 214.634C223.894 214.688 223.616 215.136 223.307 215.648L222.742 216.586H221.686C221.11 216.586 220.64 216.554 220.64 216.512C220.64 216.469 220.896 216.021 221.206 215.498L221.76 214.57L222.859 214.56C223.467 214.56 223.936 214.592 223.915 214.634ZM252.128 229.247C252.384 229.482 252.374 230.047 252.107 230.293C251.627 230.73 250.827 230.389 250.827 229.749C250.827 229.173 251.68 228.842 252.128 229.247Z" fill="white"/>
<path d="M235.552 211.359C233.728 212.575 231.734 215.242 231.734 216.469C231.734 216.629 231.83 216.853 231.947 216.959C232.139 217.13 232.214 217.141 232.587 217.023C233.526 216.746 235.094 215.093 235.787 213.653C236.352 212.501 236.736 210.826 236.438 210.826C236.384 210.826 235.979 211.061 235.552 211.359Z" fill="white"/>
<path d="M236.363 220.949C235.926 221.215 235.606 221.642 235.456 222.143C235.35 222.495 235.36 222.602 235.584 223.061C235.766 223.413 235.968 223.647 236.267 223.807C236.502 223.946 236.736 224.053 236.779 224.053C236.95 224.053 237.622 222.421 237.675 221.855C237.782 220.842 237.195 220.437 236.363 220.949Z" fill="white"/>
<path d="M249.355 221.024C248.811 221.301 247.19 223.072 246.369 224.309C245.27 225.941 244.705 227.146 244.694 227.818C244.694 228.341 244.705 228.373 244.982 228.405C245.622 228.48 246.742 227.061 248.982 223.317C249.985 221.642 250.262 221.109 250.177 220.992C250.017 220.81 249.782 220.821 249.355 221.024Z" fill="white"/>
<path d="M233.824 224.245C233.046 225.407 232.555 226.421 232.406 227.146C232.278 227.797 232.342 228.085 232.64 228.277C233.056 228.543 233.568 228.309 234.454 227.423C235.158 226.719 236.32 225.119 236.32 224.853C236.32 224.789 236.15 224.65 235.936 224.533C235.723 224.426 235.318 224.074 235.04 223.765L234.518 223.199L233.824 224.245Z" fill="white"/>
<path d="M201.654 215.615C200.438 216.266 200.267 217.706 201.344 218.207C202.155 218.581 202.166 218.581 202.464 217.941C202.603 217.61 202.784 217.087 202.848 216.757C202.955 216.255 202.955 216.117 202.795 215.786C202.582 215.349 202.251 215.295 201.654 215.615Z" fill="white"/>
<path d="M216.427 215.626C215.894 215.893 215.36 216.426 214.283 217.813C212.363 220.288 211.264 222.4 211.616 222.965C211.659 223.04 211.83 223.093 211.99 223.093C212.63 223.093 213.846 221.525 215.883 218.101C217.227 215.84 217.323 215.648 217.12 215.52C216.907 215.381 216.918 215.381 216.427 215.626Z" fill="white"/>
<path d="M199.03 218.858C198.219 220.063 197.878 220.746 197.643 221.578C197.441 222.325 197.494 222.698 197.867 222.943C198.123 223.114 198.166 223.114 198.571 222.933C199.318 222.591 200.395 221.429 201.377 219.871L201.761 219.263L201.067 218.933C200.673 218.741 200.246 218.442 200.086 218.239C199.915 218.037 199.766 217.866 199.734 217.866C199.702 217.866 199.382 218.314 199.03 218.858Z" fill="white"/>
<path d="M251.222 229.365C250.859 229.759 251.104 230.346 251.627 230.346C251.883 230.346 252.214 229.994 252.214 229.738C252.214 229.535 251.819 229.173 251.595 229.173C251.478 229.173 251.318 229.258 251.222 229.365ZM251.915 229.759C251.958 230.154 251.915 230.207 251.691 229.994C251.574 229.887 251.542 229.887 251.499 229.994C251.403 230.271 251.254 230.122 251.254 229.759C251.254 229.418 251.286 229.386 251.563 229.386C251.83 229.386 251.872 229.429 251.915 229.759Z" fill="white"/>
<path d="M251.467 229.6C251.467 229.653 251.52 229.706 251.574 229.706C251.638 229.706 251.68 229.653 251.68 229.6C251.68 229.536 251.638 229.493 251.574 229.493C251.52 229.493 251.467 229.536 251.467 229.6Z" fill="white"/>
<path d="M87.8939 219.221C84.8325 219.648 80.9605 221.845 77.3125 225.248C72.6192 229.6 69.5152 234.677 68.4592 239.733C68.0752 241.557 68.0539 244.138 68.4059 245.418C69.1205 248 70.7845 249.696 73.4405 250.528C74.1552 250.752 74.4432 250.773 76.2139 250.773C78.5072 250.773 78.8912 250.709 83.6805 249.546C88.4805 248.384 90.0379 248.106 92.4912 247.989C95.3499 247.84 97.5579 248.394 99.2219 249.674C99.6592 250.005 100.225 250.645 100.715 251.349C100.737 251.381 100.918 251.2 101.121 250.965C101.59 250.41 102.486 249.813 103.286 249.525C104.097 249.216 106.433 249.194 107.787 249.482C109.483 249.834 111.318 250.56 112.587 251.381L112.961 251.616L112.683 251.253C112.257 250.688 110.443 249.205 109.014 248.234C105.835 246.101 103.435 245.418 99.4672 245.525C96.3099 245.61 94.5605 245.909 88.1605 247.466C82.3579 248.874 80.5232 249.184 78.5605 249.088C75.5205 248.917 73.7285 247.712 72.9285 245.301C72.7045 244.608 72.6619 244.277 72.6619 243.146C72.6512 241.557 72.8219 240.618 73.5259 238.506C74.0805 236.821 75.3925 234.101 76.4805 232.373C80.1712 226.538 85.4299 221.568 88.7472 220.8C89.6325 220.586 90.1125 220.661 90.4645 221.034C90.8272 221.429 90.7952 222.24 90.4112 222.24C89.6859 222.24 88.7579 222.88 88.3632 223.637C87.8939 224.565 88.2245 225.653 88.9712 225.653C89.8352 225.653 90.7525 224.8 91.4245 223.36C91.8832 222.368 91.9579 221.781 91.7339 221.013C91.3179 219.573 89.9525 218.933 87.8939 219.221Z" fill="white"/>
<path d="M137.547 219.359C135.798 219.637 133.089 220.853 130.721 222.431C125.622 225.823 120.641 231.605 117.707 237.546C116.331 240.341 115.745 242.25 115.617 244.426C115.243 250.474 120.022 252.693 125.526 249.045C126.454 248.426 128.545 246.378 129.345 245.279C131.67 242.143 132.95 238.431 132.374 236.479C132.161 235.722 131.606 235.114 130.987 234.943C130.422 234.783 130.177 234.794 129.409 234.997C127.926 235.381 126.294 236.501 125.174 237.898C124.129 239.221 123.083 241.578 122.667 243.562C122.401 244.853 122.411 244.863 123.307 244.021C124.246 243.146 125.163 242.474 126.123 241.951C126.795 241.599 126.817 241.567 126.987 240.949C127.563 238.901 128.811 237.066 129.899 236.65C130.454 236.437 130.998 236.501 131.243 236.81C131.766 237.471 131.393 239.466 130.358 241.599C129.003 244.351 126.251 247.285 124.214 248.127C123.371 248.479 122.305 248.469 121.579 248.106C120.033 247.327 119.681 245.386 120.523 242.229C121.121 239.935 122.049 237.749 123.371 235.498C124.299 233.919 126.177 231.21 127.382 229.706C130.689 225.578 135.179 221.823 137.899 220.906C138.689 220.65 139.894 220.533 139.894 220.735C139.894 220.778 139.638 220.991 139.318 221.205C138.39 221.823 136.694 223.231 135.873 224.074C134.859 225.109 134.006 226.325 133.377 227.626C132.353 229.717 132.331 231.242 133.313 231.839C133.771 232.117 134.795 232.127 135.521 231.85C137.718 231.018 140.619 227.263 141.505 224.106C141.675 223.519 141.75 222.943 141.75 222.261C141.761 221.098 141.739 221.119 143.094 221.13C144.683 221.13 146.241 221.823 149.494 223.946C151.339 225.151 152.886 226.079 153.035 226.079C153.067 226.079 153.622 225.514 154.273 224.81L155.457 223.551L153.835 222.602C152.939 222.09 151.755 221.407 151.201 221.077C148.971 219.786 147.531 219.338 145.601 219.327C144.182 219.327 143.393 219.445 142.006 219.861C141.121 220.127 141.057 220.127 140.865 219.957C140.31 219.455 138.731 219.167 137.547 219.359ZM140.747 222.229C140.747 223.541 139.915 225.802 138.827 227.423C138.027 228.618 136.289 230.325 135.425 230.751C134.625 231.146 134.273 231.178 133.878 230.869C132.694 229.93 135.371 225.407 138.571 222.965C139.339 222.378 140.427 221.706 140.619 221.706C140.705 221.706 140.747 221.877 140.747 222.229Z" fill="white"/>
<path d="M171.243 219.637C170.187 220.735 167.968 222.346 166.39 223.167C164.438 224.17 162.166 224.789 160.352 224.81L159.36 224.821L158.432 225.845C157.259 227.167 157.024 227.455 157.12 227.551C157.163 227.594 158.016 227.626 159.019 227.626C160.694 227.626 160.95 227.605 161.92 227.327C164.672 226.57 167.627 224.607 169.643 222.207C170.496 221.183 171.808 219.253 171.648 219.253C171.627 219.253 171.446 219.423 171.243 219.637Z" fill="white"/>
<path d="M161.899 219.829C160.214 220.458 158.358 221.888 155.456 224.789C150.635 229.632 147.734 233.674 144.555 240.021L143.958 241.194L143.339 241.365C142.646 241.567 142.24 241.599 142.24 241.45C142.24 241.407 142.379 241.055 142.55 240.682C143.328 238.954 143.702 237.034 143.414 236.149C143.147 235.317 142.454 234.826 141.526 234.826C139.979 234.826 138.091 235.957 135.84 238.229C132.758 241.333 130.752 245.002 130.539 247.893C130.454 249.066 130.667 249.813 131.243 250.325C132.235 251.221 133.558 251.05 135.424 249.791C137.579 248.33 139.638 246.005 141.238 243.221C141.622 242.549 141.675 242.506 142.027 242.506C142.23 242.495 142.614 242.453 142.88 242.399C143.147 242.357 143.371 242.325 143.382 242.335C143.392 242.346 143.147 243.125 142.827 244.063C141.568 247.818 141.611 249.898 142.987 250.581C144.299 251.253 145.654 250.666 147.712 248.543L148.555 247.69L148.48 248.181C148.384 248.842 148.587 249.791 148.928 250.186C149.312 250.655 149.75 250.847 150.422 250.847C151.211 250.858 152.459 250.229 153.611 249.237L154.475 248.501L154.528 249.247C154.592 250.09 154.795 250.453 155.371 250.751C156.086 251.125 157.259 250.783 158.656 249.791C159.488 249.194 161.355 247.359 162.262 246.239C163.136 245.151 164.747 242.933 164.747 242.815C164.747 242.762 164.512 242.719 164.235 242.719H163.723L162.699 244.074C162.144 244.831 161.366 245.781 160.971 246.207C160.182 247.061 159.094 247.839 158.71 247.839C158.496 247.839 158.454 247.786 158.454 247.519C158.454 247.093 158.304 247.349 162.091 240.938C163.904 237.877 165.387 235.349 165.387 235.317C165.387 235.285 164.651 235.253 163.755 235.253H162.134L161.931 235.626L161.728 235.999L161.227 235.53C160.587 234.933 160.096 234.783 159.243 234.943C157.835 235.199 156.288 236.223 154.614 238.005C153.184 239.498 152.096 240.927 149.867 244.213C148.032 246.933 147.072 247.946 146.347 247.946C145.899 247.946 145.739 247.743 145.675 247.114C145.59 246.197 146.155 244.33 147.254 241.834C147.68 240.874 147.712 240.842 148.459 240.351C151.851 238.111 156.779 233.365 159.99 229.237C160.438 228.661 160.8 228.181 160.779 228.16C160.758 228.149 160.491 228.17 160.192 228.202C159.627 228.266 159.627 228.266 158.774 229.322C156.843 231.722 153.664 234.986 151.467 236.853C150.464 237.706 148.95 238.794 148.886 238.73C148.747 238.602 151.115 234.538 152.854 231.893C155.435 227.989 158.262 224.597 160.779 222.389C162.304 221.056 163.179 220.565 163.456 220.896C163.627 221.109 163.403 221.941 162.827 223.178C162.496 223.882 162.443 224.053 162.592 224.01C162.688 223.978 162.976 223.904 163.222 223.84C163.648 223.733 163.68 223.701 163.979 222.901C164.544 221.44 164.651 220.757 164.427 220.16C164.203 219.562 163.04 219.402 161.899 219.829ZM142.176 236.65C142.422 236.927 142.454 237.077 142.454 237.717C142.454 238.186 142.368 238.698 142.23 239.125C141.963 239.925 141.291 241.226 141.11 241.301C140.95 241.365 140.235 241.002 139.798 240.629C139.019 239.978 138.774 238.826 139.222 237.973C139.488 237.461 140.299 236.682 140.779 236.479C141.376 236.213 141.867 236.277 142.176 236.65ZM160.843 236.703C160.939 236.789 161.014 236.906 161.014 236.959C161.014 237.087 158.635 241.098 157.419 243.018C155.531 246.005 154.187 247.626 153.44 247.786C152.907 247.903 152.587 247.626 152.587 247.039C152.587 244.991 156.918 238.527 159.35 236.938C160.032 236.501 160.555 236.415 160.843 236.703ZM138.774 241.087C139.136 241.45 139.68 241.866 139.99 242.015C140.288 242.175 140.534 242.335 140.534 242.389C140.534 242.527 139.446 244.234 138.87 244.981C138.144 245.941 136.822 247.21 136.246 247.487C135.638 247.797 135.104 247.807 134.795 247.519C133.92 246.698 134.731 244.341 137.003 241.045L137.792 239.903L137.952 240.159C138.048 240.309 138.422 240.725 138.774 241.087Z" fill="white"/>
<path d="M89.3658 227.039C85.7285 227.797 80.2778 233.973 79.1792 238.559C79.0192 239.231 78.9765 239.711 79.0085 240.426C79.0618 241.578 79.3285 242.165 80.0325 242.666C80.4592 242.954 80.5765 242.986 81.3125 242.986C82.0165 242.986 82.2405 242.933 82.8378 242.655C84.2565 241.983 85.8245 240.725 87.2858 239.093C88.0005 238.293 89.5792 236.063 90.5605 234.453C90.6458 234.314 91.6592 233.994 92.0752 233.973C92.1498 233.973 91.8512 234.709 91.4138 235.594C90.4858 237.482 90.1872 238.527 90.1872 239.797C90.1872 240.949 90.4538 241.695 91.0618 242.239C92.4912 243.541 94.2938 243.37 96.8005 241.706C97.3552 241.333 98.3258 240.575 98.9445 240.01L100.086 238.997L99.9365 239.551C99.4672 241.333 99.7338 242.474 100.715 242.89C101.782 243.349 103.531 242.677 105.035 241.247L105.654 240.661V241.237C105.654 241.909 105.888 242.442 106.326 242.762C106.816 243.125 107.766 243.061 108.64 242.623C110.368 241.738 112.576 239.583 114.966 236.447C116.032 235.039 116 235.146 115.339 235.146H114.774L114.038 236.063C112.971 237.386 111.275 239.125 110.678 239.509C110.4 239.69 110.038 239.839 109.888 239.839C109.643 239.839 109.6 239.797 109.6 239.519C109.6 239.071 109.59 239.093 113.312 232.874L116.63 227.359H114.987C113.344 227.359 113.334 227.359 113.163 227.626L112.992 227.893L112.619 227.562C112.139 227.146 111.851 227.039 111.2 227.039C109.952 227.039 108.395 227.935 106.528 229.749C105.131 231.103 104.342 232.01 102.614 234.293C99.0618 238.954 96.5232 241.109 95.0725 240.682C94.1232 240.415 93.8138 239.477 94.1978 237.983C94.5178 236.725 96.0218 233.855 97.1738 232.33C98.4538 230.623 100.299 228.949 101.227 228.639C101.92 228.415 102.454 228.703 102.454 229.333C102.454 229.663 102.432 229.685 101.984 229.749C101.28 229.855 100.715 230.325 100.32 231.135C99.8618 232.074 99.9898 232.629 100.726 232.853C101.387 233.055 102.411 232.17 103.04 230.869C103.68 229.535 103.67 228.501 103.03 227.786C102.496 227.199 101.91 226.997 100.864 227.061C99.4352 227.146 98.2725 227.818 96.0112 229.877C94.1125 231.594 93.6965 231.935 92.8645 232.426C92.1392 232.863 91.5205 233.098 91.4032 232.991C91.3818 232.959 91.4778 232.639 91.6272 232.277C91.9792 231.423 92.3205 229.994 92.3205 229.386C92.3205 228.778 92.1392 228.138 91.8725 227.754C91.4458 227.157 90.3258 226.837 89.3658 227.039ZM90.8165 228.799C91.3498 229.322 91.2112 230.709 90.4538 232.341C90.0805 233.141 90.0805 233.141 89.7392 233.077C89.1418 232.959 88.2778 232.479 87.9898 232.106C87.2752 231.167 87.7872 229.642 89.0778 228.842C89.8458 228.373 90.3685 228.362 90.8165 228.799ZM112.064 228.639C112.171 228.703 112.267 228.842 112.267 228.959C112.267 229.311 108.288 235.935 107.115 237.546C106.432 238.474 105.376 239.594 104.992 239.797C104.576 240.01 104.118 239.978 103.894 239.733C103.712 239.53 103.702 239.445 103.819 238.901C104.107 237.493 105.558 235.039 107.851 232.063C109.366 230.09 110.304 229.13 111.03 228.789C111.638 228.501 111.766 228.49 112.064 228.639ZM86.7738 232.437C87.1258 232.97 87.8085 233.471 88.6618 233.823C89.0672 233.983 89.4085 234.133 89.4298 234.154C89.4832 234.186 88.8005 235.306 88.1712 236.213C86.1658 239.103 84.2672 240.437 83.4138 239.573C82.8698 239.039 83.0938 237.61 84.0112 235.765C84.4378 234.922 86.3045 232.053 86.4325 232.053C86.4752 232.053 86.6245 232.223 86.7738 232.437Z" fill="white"/>
<path d="M118.113 228.736C117.654 229.493 117.281 230.133 117.281 230.176C117.281 230.208 117.963 230.24 118.806 230.24H120.321L120.993 229.141C121.355 228.544 121.75 227.893 121.878 227.701L122.102 227.36H120.513L118.934 227.37L118.113 228.736Z" fill="white"/>
<path d="M176.907 250.08V262.56H222.507H268.107V250.08V237.6H222.507H176.907V250.08ZM244.726 240.17C245.216 240.277 246.208 240.618 246.944 240.917L248.267 241.461V243.402C248.267 244.458 248.299 245.429 248.32 245.546C248.352 245.664 248.331 245.834 248.278 245.92C248.192 246.037 247.99 245.898 247.286 245.216C245.771 243.765 244.395 242.954 243.275 242.858C242.198 242.773 241.643 243.264 241.803 244.16C241.91 244.725 242.486 245.269 243.734 245.984C245.291 246.869 246.379 247.669 247.467 248.746C248.235 249.504 248.534 249.877 248.832 250.506C250.432 253.792 248.48 257.685 244.587 258.997C243.36 259.402 241.728 259.477 240.48 259.157C239.456 258.901 237.824 258.154 237.046 257.589L236.534 257.205V254.976C236.534 253.749 236.576 252.746 236.63 252.746C236.672 252.746 237.248 253.248 237.91 253.866C239.904 255.744 240.928 256.288 241.931 256.042C242.464 255.904 242.795 255.626 243.008 255.114C243.211 254.634 243.115 253.962 242.795 253.472C242.646 253.258 241.6 252.469 240.107 251.434C237.12 249.386 236.928 249.237 236.587 248.65C236.288 248.128 236 246.976 236 246.24C236 245.45 236.299 244.32 236.736 243.402C237.462 241.877 238.848 240.661 240.416 240.16C241.44 239.829 243.275 239.84 244.726 240.17ZM194.923 242.144C195.115 243.05 195.243 243.829 195.211 243.872C195.168 243.904 195.008 243.808 194.848 243.658C194.315 243.146 192.907 242.304 192.043 241.973C190.944 241.557 190.07 241.354 188.928 241.269L188 241.194V245.162V249.141L190.006 249.098C191.883 249.066 192.032 249.056 192.534 248.8C192.928 248.597 193.184 248.362 193.536 247.861C193.792 247.488 194.027 247.21 194.059 247.242C194.123 247.317 195.254 252.245 195.211 252.298C195.19 252.32 194.902 252.096 194.582 251.808C193.344 250.73 191.766 250.208 189.472 250.112L188 250.048V253.301C188 257.237 188.032 257.397 188.95 258.314L189.568 258.933H185.419H181.28V250.773C181.28 245.162 181.248 242.453 181.163 242.069C181.067 241.642 180.928 241.386 180.555 240.992L180.075 240.48H187.328H194.582L194.923 242.144ZM210.816 242.144C211.008 243.061 211.147 243.829 211.115 243.85C211.083 243.882 210.752 243.669 210.368 243.37C209.376 242.624 208.47 242.144 207.36 241.77C206.411 241.461 205.12 241.226 204.31 241.226H203.894V245.184V249.141L205.899 249.098C208.352 249.056 208.63 248.96 209.398 247.882C209.675 247.498 209.91 247.21 209.942 247.232C210.006 247.306 211.136 252.266 211.094 252.309C211.062 252.33 210.795 252.117 210.486 251.84C209.814 251.232 208.523 250.602 207.414 250.346C206.976 250.24 206.006 250.133 205.259 250.101L203.894 250.048V254.069V258.08H204.832C206.859 258.08 208.715 257.354 210.486 255.861C210.795 255.605 211.072 255.402 211.094 255.424C211.115 255.445 211.019 256.096 210.88 256.853C210.742 257.621 210.592 258.4 210.56 258.581L210.496 258.933H203.84H197.184L197.152 250.528C197.12 241.141 197.163 241.717 196.342 240.874L195.958 240.48H203.211H210.454L210.816 242.144ZM219.563 240.757C220.47 241.013 221.056 241.685 222.08 243.68C224.694 248.725 225.952 249.44 227.04 246.474C227.446 245.376 227.702 244.309 228.054 242.4C228.203 241.546 228.352 240.768 228.384 240.661C228.438 240.49 228.683 240.48 231.595 240.48H234.742L234.71 248.501C234.699 252.917 234.72 256.672 234.774 256.853C234.934 257.461 235.243 257.941 235.798 258.442L236.342 258.933H232.171H228L227.979 253.504L227.947 248.064L225.44 253.92C224.064 257.141 222.902 259.786 222.87 259.786C222.838 259.786 221.259 257.141 219.35 253.909L215.894 248.032L215.808 251.797C215.702 256.992 215.798 257.589 216.928 258.549L217.376 258.933H215.542H213.707V250.634C213.707 245.312 213.664 242.208 213.6 241.952C213.536 241.738 213.27 241.344 213.014 241.066C212.747 240.8 212.534 240.565 212.534 240.554C212.534 240.533 213.984 240.544 215.766 240.565C218.198 240.586 219.126 240.64 219.563 240.757ZM255.2 242.24C255.563 243.061 256.502 245.002 257.27 246.56C260.459 252.949 262.838 256.906 264.374 258.336C264.662 258.613 264.907 258.858 264.907 258.88C264.907 258.912 263.264 258.933 261.27 258.933C258.699 258.933 257.494 258.89 257.184 258.805C256.374 258.56 255.979 258.016 254.571 255.2C253.867 253.781 253.12 252.405 252.939 252.138C252.15 251.05 251.264 251.104 250.166 252.309C249.856 252.661 249.654 252.821 249.686 252.693C249.739 252.49 253.878 241.685 254.198 240.928C254.283 240.714 254.39 240.586 254.443 240.65C254.486 240.704 254.827 241.418 255.2 242.24Z" fill="white"/>
<path d="M162.219 248.949C161.803 249.311 161.793 250.047 162.209 250.463C162.625 250.89 163.297 250.869 163.702 250.41C164.118 249.951 164.107 249.429 163.691 249.002C163.275 248.597 162.657 248.575 162.219 248.949ZM163.531 249.055C164.129 249.567 163.766 250.613 162.987 250.613C162.454 250.613 162.081 250.261 162.081 249.749C162.081 248.917 162.913 248.511 163.531 249.055Z" fill="white"/>
<path d="M162.507 249.695C162.507 250.026 162.56 250.293 162.614 250.293C162.678 250.293 162.72 250.197 162.72 250.079C162.72 249.781 163.126 249.802 163.243 250.101C163.318 250.282 163.339 250.197 163.328 249.759L163.307 249.173L162.912 249.141L162.507 249.109V249.695ZM163.126 249.471C163.147 249.599 163.094 249.653 162.944 249.653C162.784 249.653 162.72 249.589 162.72 249.429C162.72 249.162 163.072 249.194 163.126 249.471Z" fill="white"/>
<path d="M68.1072 268.053V269.066H168.107H268.107V268.053V267.039H168.107H68.1072V268.053Z" fill="white"/>
<path fill-rule="evenodd" clip-rule="evenodd" d="M382.898 187.714C383.39 187.714 383.821 187.332 383.821 186.822C383.821 186.312 383.39 185.929 382.898 185.929C382.405 185.929 382.036 186.312 382.036 186.822C382.036 187.332 382.405 187.714 382.898 187.714" fill="white"/>
<path fill-rule="evenodd" clip-rule="evenodd" d="M366.857 185.929C367.378 185.929 367.75 185.482 367.75 185.036C367.75 184.515 367.378 184.143 366.857 184.143C366.336 184.143 365.964 184.515 365.964 185.036C365.964 185.482 366.336 185.929 366.857 185.929" fill="white"/>
<path fill-rule="evenodd" clip-rule="evenodd" d="M355.829 209.143L355.25 208.678C356.89 207.438 358.53 205.578 358.82 204.492C359.013 203.408 360.942 203.64 360.556 204.725C360.074 206.198 357.951 207.903 355.829 209.143" fill="white"/>
<path fill-rule="evenodd" clip-rule="evenodd" d="M345.602 185.765C343.089 186.829 342.753 189.367 344.513 190.922C346.608 192.724 350.212 191.168 349.877 188.303C352.726 188.467 354.57 185.52 354.151 183.555C355.408 182.491 355.492 180.199 353.984 179.298C352.307 178.316 350.799 178.643 349.793 180.526C347.195 180.362 344.681 182.327 345.602 185.765L344.429 185.274C342.837 181.918 345.602 178.562 349.038 179.381C349.793 177.743 352.307 176.024 355.157 177.662C357.335 178.971 357.839 182.409 355.492 184.046C356.581 187.157 354.318 189.777 350.966 189.449C350.548 193.542 346.692 194.033 344.094 192.15C342.67 191.005 342.083 189.531 341.831 188.385C341.496 187.157 341.496 186.093 340.323 184.865C339.401 183.965 337.725 183.965 337.725 183.965C337.725 181.018 334.959 178.316 331.439 179.626C330.182 178.562 328.589 178.48 327.5 179.79C326.914 180.526 326.494 182.491 328.506 183.391C328.422 186.093 330.517 187.812 333.618 187.566C333.702 188.958 335.294 190.35 336.803 190.513L336.719 191.25C335.21 191.086 334.373 191.577 333.367 192.805C329.763 192.642 327.249 194.279 327.332 196.817C324.819 197.225 324.315 199.845 325.74 201.237C327.165 202.628 329.26 202.056 330.014 200.418C332.612 200.909 334.875 199.109 334.959 197.062C337.305 197.062 338.396 196.08 338.814 193.951L339.653 194.033C339.903 196.325 338.814 198.536 335.965 198.29C335.881 201.073 333.199 202.546 330.601 201.646C329.428 203.857 326.662 204.675 324.4 202.546C322.137 200.5 322.975 196.98 325.908 196.08C325.908 193.378 328.003 190.841 331.942 191.823C331.942 191.823 332.445 190.595 333.702 190.513C332.864 190.186 332.277 189.777 332.11 188.876C329.093 189.531 326.578 186.829 327.249 184.128C324.567 182.737 324.483 180.117 325.824 178.562C327.249 176.925 329.595 176.597 331.607 178.316C335.21 176.433 339.149 178.807 338.898 182.737C341.412 182.573 342.921 184.619 342.585 186.829C343.005 185.847 343.507 185.438 344.429 185.274L345.602 185.765" fill="white"/>
<path fill-rule="evenodd" clip-rule="evenodd" d="M351.119 180.571L351.679 181.002C350.559 183.583 348.64 186.165 346.962 187.714L346.321 187.112C347.521 185.046 350 181.604 351.119 180.571" fill="white"/>
<path fill-rule="evenodd" clip-rule="evenodd" d="M333.528 193.071L333.821 193.81C332.574 195.38 330.225 197.598 328.904 198.429L328.464 197.69C329.638 196.027 331.987 193.902 333.528 193.071" fill="white"/>
<path fill-rule="evenodd" clip-rule="evenodd" d="M337.393 187.019L336.729 187.714C334.818 186.671 331.081 183.888 330.25 182.844L330.832 182.357C332.659 183.123 336.147 185.766 337.393 187.019" fill="white"/>
<path fill-rule="evenodd" clip-rule="evenodd" d="M334.58 218.984C334.825 220.016 334.58 221.206 335.558 222.318C335.885 222.714 337.76 225.095 339.146 226.285C337.27 227 333.601 228.508 330.992 228.825C330.422 228.905 329.851 229.222 329.361 229.539C329.035 230.095 328.709 231.048 328.546 232.159C328.464 232.952 328.464 233.826 328.464 234.698C328.464 235.492 328.872 238.032 329.769 239.699C330.666 241.365 331.563 242.159 332.623 242.636C332.867 242.556 333.357 242.477 334.09 242.477C336.048 242.397 337.597 243.508 338.331 244.381C338.575 244.778 339.146 244.857 339.799 244.857C341.429 244.857 343.223 244.302 344.854 243.667C345.261 243.429 346.24 242.715 347.219 242C348.279 241.206 353.823 236.604 356.269 235.492C357.574 236.127 359.694 237 361.895 237C361.977 237 362.385 237.08 362.874 236.921C363.526 236.762 364.423 236.524 365.565 236.286C367.521 235.889 369.804 235.571 370.539 235.571C372.333 235.651 377.632 235.73 378.937 235.73C380.242 235.73 382.117 235.651 382.851 235.571C383.993 235.174 386.521 234.54 388.885 233.508C391.25 232.476 396.223 229.063 397.039 228.27C397.447 227.952 397.854 227.556 398.099 227.238C398.181 227.079 398.262 227 398.262 226.92C398.262 226.841 398.181 223.508 398.181 223.508C398.181 223.508 399.404 222.238 399.893 221.762C399.893 221.762 399.893 221.682 399.893 221.603C399.648 220.968 399.485 218.905 399.567 216.841L398.425 216.286C398.343 218.825 397.365 221.047 396.468 222.476C394.675 222.714 391.168 223.746 389.945 225.175L390.679 225.334C391.821 224.698 393.044 224.302 394.511 224.302C395.734 224.302 396.305 224.619 396.305 224.937C396.305 225.175 396.06 225.73 395.979 225.968C395.898 226.127 395.816 226.444 395.571 226.603C393.859 228.429 391.984 229.937 389.619 231.207C388.07 232.079 386.521 232.635 384.238 233.349C383.504 233.508 382.525 233.746 381.954 233.985C381.057 233.985 376.491 233.826 373.8 233.826C371.11 233.826 365.565 234.222 363.853 234.619C363.037 234.857 362.793 235.174 361.895 235.174C360.183 235.174 357.9 234.302 356.514 233.667C356.269 233.667 355.78 233.905 355.291 234.143C354.312 234.619 352.111 237.635 350.806 236.683C350.154 238.032 347.3 239.222 346.403 240.572C346.485 239.937 347.626 235.333 347.708 234.381C347.708 234.222 347.79 234.064 347.626 233.905C346.648 232.238 343.712 231.207 342.082 230.889C341.674 230.81 341.429 230.73 341.103 230.651L338.494 229.937L336.129 230.651L338.901 231.127L335.395 233.429C336.048 233.191 339.799 232.159 340.043 232.079C340.369 232 340.777 231.921 341.184 232.079C341.755 232.238 343.142 232.556 344.038 232.873C344.528 233.032 345.343 233.905 345.588 234.381C345.669 234.619 345.669 235.016 345.75 235.968C345.75 236.524 345.669 237.397 345.506 238.032C345.098 239.699 344.283 240.968 344.038 241.444C343.712 242.08 343.305 242.318 342.815 242.477C342.082 242.873 341.103 243.032 340.124 243.111C339.391 243.111 338.901 243.032 338.575 242.636C337.678 241.365 335.314 240.175 332.949 240.651C331.482 239.778 330.014 237 330.014 234.778C330.014 233.429 330.666 231.286 331.074 230.254C333.438 229.937 338.249 228.191 340.532 227.159C341.022 227.159 342.407 226.682 343.712 226.682C346.811 226.682 349.909 229.301 351.785 231.127C352.111 230.651 352.682 229.857 354.312 229.857C356.514 229.857 357.819 231.841 358.39 233.826L359.531 233.032C359.368 231.921 358.715 230.651 357.819 229.698C357.085 228.984 355.617 228.349 354.476 228.349C353.742 228.349 353.089 228.508 352.6 228.508C351.051 228.508 350.399 227.794 349.175 227C347.952 226.206 345.588 224.937 343.876 224.937C342.815 224.937 342.326 225.334 341.429 225.334C340.124 225.334 339.635 224.857 339.064 224.064C338.739 223.746 337.433 222.635 337.108 222.159C336.863 221.841 336.537 220.809 336.374 220.254L334.58 218.984" fill="white"/>
<path fill-rule="evenodd" clip-rule="evenodd" d="M335.853 219.16C336.257 219.563 336.58 219.967 337.065 220.37C337.549 220.694 338.115 221.016 338.6 221.339C339.407 221.743 340.296 222.227 341.104 222.55C341.912 222.712 342.881 222.792 343.77 222.792C345.062 222.792 346.597 222.55 347.89 223.196C348.778 223.519 348.778 224.487 349.505 224.73C350.556 225.133 353.464 225.214 355.079 225.214C358.311 225.214 361.785 224.811 363.885 224.326L362.915 223.196C361.461 223.438 357.26 223.923 355.322 223.923C352.656 223.923 350.07 223.438 350.07 222.389C350.07 221.581 350.878 220.451 352.494 220.451C354.191 220.451 356.776 221.501 357.26 221.662C357.745 221.743 357.907 221.743 358.23 221.581L359.199 221.097C357.907 220.451 353.302 218.917 351.687 218.917C350.959 218.917 350.474 218.998 349.99 219.644C349.425 220.451 347.728 221.178 345.143 221.178C343.689 221.178 341.588 220.855 341.184 220.694C340.377 220.37 338.842 219.483 337.872 218.756C336.58 217.868 335.449 216.819 334.722 215.608C334.48 215.285 334.318 214.881 334.318 214.478C334.318 214.154 334.48 213.912 334.48 213.67C334.722 213.993 334.964 214.235 335.287 214.478C336.661 215.85 338.68 216.819 340.781 217.222C341.427 217.384 341.912 217.464 342.558 217.464C343.446 217.464 344.254 216.98 344.82 216.495L343.931 215.527C343.689 215.608 343.123 215.608 342.8 215.608C339.73 215.608 335.853 213.67 334.964 211.329C334.883 211.087 334.722 211.006 334.883 210.764C334.964 210.522 335.045 210.118 335.126 209.714C335.287 209.876 335.691 210.199 336.096 210.522C337.226 211.248 339.407 212.217 339.892 212.54C340.942 212.217 341.75 211.814 342.396 211.49C343.043 211.167 343.931 210.845 344.9 210.845C347.163 210.845 349.748 212.136 352.171 213.347L353.787 212.701C351.606 211.167 347.001 209.068 344.416 209.068C342.881 209.068 341.427 210.199 340.377 210.199C339.165 210.199 335.611 208.423 335.611 206.97C335.611 205.84 337.872 205.193 341.67 204.79C341.023 205.678 340.377 206.728 339.812 207.697L340.781 208.261C346.597 199.785 352.737 194.295 357.826 190.905C359.684 189.694 360.088 188.967 360.734 187.676C362.35 184.366 363.885 181.944 366.469 181.944C367.681 181.944 368.651 182.59 369.378 183.397L371.236 183.962L369.297 185.254L371.236 186.061C368.731 186.787 365.258 189.29 363.804 192.923C361.138 193.004 359.845 195.264 358.957 197.04C358.311 198.332 357.422 198.816 355.968 199.704L344.9 207.454L346.436 207.697L356.695 200.834C358.715 199.462 359.684 198.412 360.169 197.525C361.057 195.587 362.107 194.134 364.127 194.134C365.097 194.134 366.147 194.618 367.035 195.425L368.813 195.99L366.873 197.202L368.489 198.17C363.804 199.623 360.896 203.014 359.199 209.472L360.411 209.714C361.057 207.615 361.703 205.678 362.753 203.902C365.5 203.902 368.247 203.822 370.993 203.822C378.184 203.822 384.161 204.144 387.393 205.032L386.262 203.095C382.788 202.449 377.78 202.207 370.993 202.207C368.651 202.207 366.389 202.287 364.046 202.287C365.581 200.754 367.681 199.381 370.993 198.412L368.651 197.121L371.236 195.668L367.681 194.376C367.116 193.811 366.308 193.246 365.339 193.004C366.469 189.532 370.347 187.514 374.063 186.142L371.478 185.092L374.063 183.639L370.024 182.348C368.974 181.137 368.005 180.571 366.389 180.571C362.673 180.571 361.138 183.801 359.603 186.626C358.876 188.16 358.391 188.806 357.018 189.694C354.191 191.551 350.474 194.457 347.001 198.09C345.224 196.798 341.427 192.923 340.458 190.824C340.054 191.308 339.65 192.439 339.65 192.439C340.054 192.842 344.416 197.202 346.032 199.139C345.951 199.22 345.789 199.381 345.708 199.543C343.931 199.865 339.407 200.35 337.872 200.107L337.065 201.642C338.196 201.561 342.639 200.996 344.578 200.915C344.012 201.561 343.446 202.287 342.881 203.014C337.065 203.66 333.268 204.871 333.268 206.97C333.268 207.293 333.349 207.697 333.349 208.1C333.349 208.988 333.025 209.311 332.379 209.714C331.975 209.957 331.975 210.199 332.137 210.441C332.299 210.683 333.187 211.975 333.187 212.217C333.187 212.701 332.783 213.105 332.46 213.509C332.137 213.832 332.137 213.912 332.379 214.316L334.076 217.868L335.853 219.16" fill="white"/>
<path fill-rule="evenodd" clip-rule="evenodd" d="M409.005 199.513C408.676 199.845 408.346 200.342 408.017 200.757L407.112 199.43C410.24 195.203 418.636 193.215 423.575 192.8V190.562C422.917 190.728 422.258 190.977 421.6 191.143C420.777 191.308 419.953 191.557 419.295 191.474C418.554 191.474 417.977 191.225 417.731 190.811C417.072 189.899 417.731 188.491 419.871 187.164L418.142 185.672C416.825 187.413 415.59 189.319 414.273 190.397C413.039 191.474 411.804 191.971 410.816 191.225C410.24 190.811 410.075 190.645 409.992 189.568C410.075 187.993 410.98 185.59 411.804 184.015L409.828 183.766C409.499 186.17 408.511 188.159 407.441 189.817C406.206 191.889 404.56 193.38 402.831 194.54L401.679 193.463C403.078 192.634 404.807 191.308 405.959 189.485C407.359 187.33 408.511 184.678 408.511 182.357L414.273 182.855C413.45 183.932 412.133 186.335 411.639 187.993C411.392 188.905 411.392 189.651 411.722 189.899C412.297 190.314 413.368 189.568 414.438 188.491C415.92 186.833 417.402 184.429 417.977 183.6L422.258 187.082C420.365 188.076 418.554 189.236 418.883 189.899C419.213 190.48 420.447 190.314 421.765 189.899C422.835 189.568 423.987 189.07 424.893 188.491V194.209C422.835 194.209 419.377 194.624 416.084 195.618C416.908 196.696 419.13 197.11 420.53 197.359L419.871 202C416.249 200.425 413.45 199.597 409.005 199.513L410.487 198.188C413.697 198.27 416.99 199.265 418.801 200.176L419.047 198.436C417.402 198.188 415.344 197.276 414.438 196.198C413.039 196.696 411.639 197.359 410.487 198.188L409.005 199.513" fill="white"/>
<path fill-rule="evenodd" clip-rule="evenodd" d="M391.641 213.568L392.948 210.671C391.559 209.062 390.007 207.049 388.619 204.877L387.475 202.945C384.779 197.955 385.759 195.541 384.37 193.287C383.145 191.517 377.426 192.644 376.527 192.804L378.161 190.149L374.893 190.39L377.671 187.171C377.998 186.687 378.08 186.366 378.406 185.239C378.897 183.469 380.367 180.571 384.779 180.571C389.599 180.571 391.152 184.435 393.193 186.125C395.645 188.056 398.749 190.712 401.527 193.368L402.671 194.414C404.141 195.862 405.53 197.392 406.919 199.162L407.818 200.45C413.7 208.82 420.89 224.836 424.158 232.16C424.403 232.884 424.648 233.608 424.893 234.172C422.687 232.964 420.318 231.516 417.785 229.825L416.396 228.86C415.498 228.216 414.599 227.572 413.7 226.929L412.23 225.721C411.331 225.077 410.432 224.353 409.616 223.628L412.557 240.288C412.72 241.335 413.619 241.173 414.272 240.288C414.926 239.403 415.253 239.161 414.926 238.035L412.23 225.721L413.7 226.929L416.315 237.31C416.56 238.276 416.968 238.598 418.112 238.598C419.256 238.679 419.419 238.276 419.256 237.552L416.396 228.86L417.785 229.825L420.481 237.633C421.217 239.645 420.481 239.886 419.256 239.886C418.112 239.886 416.968 239.564 416.315 239.966C415.661 240.449 414.844 241.576 413.782 242.542C412.965 243.427 411.658 243.266 411.413 241.576L408.144 222.341C406.102 220.49 404.06 218.558 402.262 216.546C401.527 216.224 400.628 215.822 399.811 215.5L398.668 214.937C398.177 214.695 397.851 214.615 397.769 214.534C396.87 215.581 395.972 216.788 394.991 217.593C394.501 218.075 394.093 218.317 393.357 218.317C393.112 218.317 392.786 218.317 392.54 218.156C392.214 217.995 391.968 217.673 391.641 217.19C391.396 216.868 391.069 216.385 390.743 215.903C390.089 214.856 389.435 213.488 388.782 212.441C388.128 211.235 387.475 210.349 387.393 210.188C387.311 209.947 386.985 209.705 386.985 209.705C386.576 210.188 386.331 211.235 386.331 211.879L385.187 211.476C385.269 210.671 385.596 209.625 385.841 209.142C385.841 208.739 385.351 208.176 384.942 208.176C384.37 208.176 383.798 208.739 383.553 209.866L382.328 210.43C382.41 208.579 383.063 206.567 384.942 206.567C386.413 206.567 387.393 207.693 388.047 208.739C388.782 209.786 391.152 212.925 391.641 213.568L392.54 214.695C392.703 215.419 393.031 215.822 393.193 216.063C393.521 216.546 393.847 216.546 394.338 216.063C394.583 215.903 395.236 215.339 395.972 214.615C396.544 214.051 397.115 213.246 397.361 212.925C398.014 213.166 399.321 213.81 400.302 214.212C395.972 208.9 391.723 202.462 389.926 198.116C389.19 196.265 390.661 195.702 391.314 197.472C393.276 202.301 398.913 210.913 403.079 215.419C407.818 220.57 416.56 228.135 422.279 231.113C421.462 229.504 420.4 227.25 419.092 224.594C412.148 220.731 405.203 213.649 401.935 207.533L403.324 207.693C406.347 213.005 413.619 220.087 417.949 222.1C414.027 213.891 408.88 203.508 404.958 199.082C399.975 193.529 394.583 189.183 391.968 187.01C389.435 184.756 388.373 182.02 384.779 182.02C381.756 182.02 380.122 184.193 379.55 186.286C379.387 186.768 379.305 187.01 379.06 187.412L377.589 189.102L380.694 188.78L378.897 191.194C378.897 191.194 383.717 190.149 385.432 192.402C387.23 194.816 386.086 197.553 389.109 202.945C390.416 205.279 393.602 209.464 394.665 210.43L392.54 214.695L391.641 213.568" fill="white"/>
<path fill-rule="evenodd" clip-rule="evenodd" d="M343.474 215.069L342.75 214.598C343.153 214.284 343.957 213.735 344.761 213.42C345.163 213.263 345.646 213.185 345.968 213.185C346.772 213.185 347.496 213.499 348.14 213.892C349.185 214.441 350.392 215.069 351.357 215.069C351.679 215.069 352.001 214.99 352.402 214.99C353.368 214.99 354.253 215.383 354.735 215.383C355.057 215.383 355.218 215.147 355.46 214.833C355.942 214.127 356.666 213.578 357.551 213.263C358.436 212.871 359.642 212.714 360.849 212.714C361.894 212.714 362.779 212.871 363.262 212.95C363.262 212.95 362.538 213.813 362.377 214.048C361.331 214.048 359.481 213.97 358.274 214.441C357.47 214.755 357.229 215.226 357.229 215.775C357.229 216.639 358.274 217.031 359.32 217.345C360.044 217.502 360.768 217.581 361.331 217.581C362.136 217.581 363.583 217.266 365.031 216.953C366.801 216.639 368.41 216.168 368.892 216.011L369.536 217.11C367.605 217.738 365.594 218.365 363.744 218.68C362.699 218.915 361.733 219.072 360.849 219.072C359.32 219.072 357.712 218.444 356.424 217.816C355.299 217.345 354.333 216.796 353.368 216.796C352.402 216.796 351.438 217.11 350.552 217.659C350.07 217.895 348.703 218.837 347.496 219.308C346.531 219.622 345.807 219.857 344.842 219.857C344.037 219.857 343.474 219.7 343.072 219.386L344.52 218.523C344.761 218.68 345.083 218.758 345.243 218.758C345.485 218.758 345.726 218.68 346.29 218.444C346.611 218.365 347.093 218.051 347.415 217.895C347.979 217.502 348.14 217.266 348.381 217.11C348.863 216.796 349.024 216.325 348.461 215.854C348.14 215.618 347.899 215.383 347.577 215.147C347.013 214.833 346.692 214.598 345.726 214.598C344.681 214.598 343.876 214.833 343.474 215.069" fill="white"/>
<path fill-rule="evenodd" clip-rule="evenodd" d="M365.305 214.5C365.305 214.5 364.42 214.298 364.179 214.298C364.742 213.624 365.546 213.085 366.109 212.748C367.316 212.074 368.523 211.67 370.453 211.602C370.935 211.535 371.981 211.468 372.544 211.468C373.107 211.535 373.992 211.535 374.796 211.67C375.359 211.737 375.923 211.872 376.405 211.939C376.646 212.007 377.612 212.007 377.934 211.939C379.301 211.737 380.909 211.333 381.714 210.929L382.036 212.007C380.266 212.815 378.255 213.557 376.325 213.557C375.44 213.557 374.395 213.49 373.429 213.422C371.82 213.287 370.372 213.085 369.89 213.085C368.523 213.085 366.592 213.624 365.305 214.5" fill="white"/>
<path fill-rule="evenodd" clip-rule="evenodd" d="M364.12 222.542L362.393 221.685C364.778 220.486 368.396 219.2 369.959 218.943C371.439 218.686 373.166 218.514 374.153 218.171C374.646 219.371 375.551 220.571 376.784 220.571C377.278 220.571 378.018 220.229 378.84 219.885C379.745 219.457 380.567 219.028 381.06 218.857C381.554 218.6 383.117 217.914 384.515 217.228C385.008 216.971 386.406 216.286 386.489 216.286L387.393 216.8C387.146 218 386.653 219.543 386.159 220.657C385.995 221.086 385.748 221.428 385.584 221.685C385.173 222.114 384.515 222.8 383.692 223.4C382.788 224.085 381.636 224.772 380.485 225.457C379.581 225.971 378.676 226.571 377.689 227L377.278 226.057C378.676 225.2 380.156 224.171 381.472 223.143C382.047 222.714 382.623 222.2 383.034 221.771C383.364 221.514 383.528 221.257 383.692 221C384.103 220.486 384.761 219.286 384.926 218.771C384.35 219.028 382.377 220.057 381.472 220.486C380.403 221.086 378.758 221.943 377.771 222.457C377.114 222.8 376.456 222.971 375.962 222.971C374.893 222.971 374.4 222.2 374.153 221.685C373.495 220.486 372.837 220.4 370.946 220.4C368.808 220.314 365.847 221.257 364.12 222.542" fill="white"/>
<path fill-rule="evenodd" clip-rule="evenodd" d="M373.515 215.936C373.515 215.936 373.271 215.096 373.107 214.745C373.107 214.745 373.434 214.675 373.842 214.675C374.413 214.675 376.046 214.815 376.699 214.815C379.148 214.815 380.046 214.185 380.781 213.625C381.434 213.135 382.087 212.714 383.719 212.714C385.189 212.714 386.903 213.205 387.393 213.415L387.311 214.605C386.577 214.255 385.597 214.045 384.699 214.045C384.127 214.045 383.556 214.045 383.148 214.255C382.74 214.465 382.413 214.745 382.005 215.025C381.597 215.306 381.025 215.585 380.209 215.866C379.475 216.146 378.495 216.286 377.026 216.286C375.148 216.286 374.087 216.006 373.515 215.936" fill="white"/>
<path fill-rule="evenodd" clip-rule="evenodd" d="M357.036 227.259L358.175 226.739C359.151 227.173 360.697 227.694 361.754 227.694C362.405 227.694 362.894 227.434 363.3 227.259C363.625 227.086 367.449 225.091 369.32 224.397C369.89 224.136 370.541 224.049 370.785 224.049C371.273 224.049 371.273 224.223 371.436 224.483C371.761 225.091 374.608 229.342 374.853 229.602C377.212 228.822 379.652 227.694 381.035 226.305C382.5 224.831 383.72 223.095 384.94 221.707C385.347 221.186 385.916 220.752 386.16 220.579C387.381 219.885 391.205 219.798 392.75 219.885L391.855 221.273C389.008 221.273 387.462 221.62 386.73 222.14C386.486 222.401 385.998 222.922 385.591 223.529C384.615 224.831 383.557 226.652 383.151 226.999C383.964 227.607 384.859 228.128 386.323 228.128C388.682 228.128 390.391 226.565 391.286 225.698L392.099 226.131C391.53 226.999 390.798 227.78 389.984 228.388C389.008 229.082 387.788 229.602 387.137 229.776C385.754 229.516 382.744 228.822 382.011 228.734C379.408 229.863 375.097 231.685 373.713 232.119C373.469 232.205 373.144 232.292 372.737 232.292C371.598 232.379 370.052 232.379 368.588 232.292C367.612 232.292 366.636 232.292 366.148 232.205L364.846 230.817C365.985 231.077 366.392 231.077 367.449 231.077C369.89 231.077 371.517 230.643 372.005 230.556C372.493 230.383 372.575 230.123 372.412 229.689C372.168 229.082 371.842 228.388 371.273 227.694C370.948 227.346 370.297 226.739 370.052 226.565C369.727 226.305 369.402 226.219 368.426 226.565C367.612 226.826 364.927 228.388 363.788 229.082C363.219 229.342 362.731 229.516 361.754 229.255C360.616 228.995 358.012 227.954 357.036 227.259" fill="white"/>
<path fill-rule="evenodd" clip-rule="evenodd" d="M365.071 198.429C365.518 198.429 365.964 197.982 365.964 197.536C365.964 197.015 365.518 196.643 365.071 196.643C364.551 196.643 364.179 197.015 364.179 197.536C364.179 197.982 364.551 198.429 365.071 198.429" fill="white"/>
<path fill-rule="evenodd" clip-rule="evenodd" d="M401.679 253.407C401.679 252.662 400.976 252 400.098 252H397.902C397.024 252 396.321 252.662 396.321 253.407L396.409 275.593C396.409 276.338 397.024 277 397.902 277H400.098C400.976 277 401.679 276.338 401.679 275.593V253.407" fill="white"/>
<path fill-rule="evenodd" clip-rule="evenodd" d="M405.25 254.034V254.872C405.25 255.292 405.57 255.571 406.05 255.571H420.122C420.762 255.571 421.321 255.082 421.321 254.523V253.055C421.321 252.495 420.762 251.936 420.122 252.006C420.122 252.006 406.529 253.195 406.05 253.264C405.57 253.264 405.25 253.614 405.25 254.034" fill="white"/>
<path fill-rule="evenodd" clip-rule="evenodd" d="M393.283 277C389.765 277 387.606 274.269 387.606 271.206V262.348H386.567C386.087 262.348 385.607 261.851 385.607 261.354V259.864C385.607 259.285 386.087 258.871 386.567 258.871H387.606V253.407C387.606 252.662 388.166 252 388.966 252H390.965C391.684 252 392.244 252.662 392.244 253.407V258.871H395.362C395.922 258.871 396.321 259.285 396.321 259.864V261.354C396.321 261.851 395.922 262.348 395.362 262.348H392.244V270.543C392.244 272.116 393.203 273.275 394.882 273.275H395.202C395.762 273.275 396.241 273.689 396.241 274.351V275.924C396.241 276.504 395.762 277 395.202 277H393.283" fill="white"/>
<path fill-rule="evenodd" clip-rule="evenodd" d="M367.75 267.956C367.75 263.549 365.002 259.143 358.781 259.143C353.044 259.143 349.893 263.472 349.893 267.956C349.893 272.748 353.286 277 358.861 277C362.659 277 366.376 275.145 367.104 271.976C367.184 271.589 366.861 270.971 366.296 270.971H363.548C363.063 270.971 362.659 271.203 362.417 271.589C361.609 272.671 360.478 273.212 358.861 273.212C356.438 273.212 354.822 271.434 354.66 269.425H366.215C367.265 269.425 367.75 268.883 367.75 267.956ZM354.741 266.101C354.902 264.168 356.68 262.699 358.781 262.699C360.963 262.699 362.74 264.168 362.982 266.101H354.741V266.101Z" fill="white"/>
<path fill-rule="evenodd" clip-rule="evenodd" d="M421.321 267.956C421.321 263.549 418.574 259.143 412.352 259.143C406.615 259.143 403.464 263.472 403.464 267.956C403.464 272.748 406.858 277 412.433 277C416.231 277 419.948 275.145 420.675 271.976C420.756 271.589 420.432 270.971 419.867 270.971H417.119C416.635 270.971 416.231 271.203 415.989 271.589C415.181 272.671 414.049 273.212 412.352 273.212C410.009 273.212 408.393 271.434 408.232 269.425H419.786C420.836 269.425 421.321 268.883 421.321 267.956ZM408.312 266.101C408.474 264.168 410.251 262.699 412.352 262.699C414.534 262.699 416.311 264.168 416.473 266.101H408.312V266.101Z" fill="white"/>
<path fill-rule="evenodd" clip-rule="evenodd" d="M382.769 252.411H345.379C344.489 252.411 343.842 253.152 343.842 253.973L343.922 268.941C343.922 268.941 335.91 254.138 335.505 253.398C335.101 252.658 334.211 252 333.077 252H330.002C329.112 252 328.464 252.74 328.464 253.562V275.438C328.464 276.343 329.112 277 330.002 277H331.944C332.835 277 333.482 276.343 333.482 275.438L333.401 260.142C333.401 260.142 341.494 275.027 341.899 275.602C342.303 276.425 343.113 277 344.246 277H347.078C347.969 277 348.616 276.343 348.616 275.438V256.112H382.769C383.336 256.112 383.821 255.618 383.821 255.043V253.48C383.821 252.904 383.336 252.411 382.769 252.411" fill="white"/>
<path fill-rule="evenodd" clip-rule="evenodd" d="M377.531 262.545C379.162 262.545 380.386 263.085 380.876 264.091C381.039 264.554 381.447 264.631 382.018 264.631H384.302C384.629 264.631 385.118 264.323 385.118 263.858C385.118 261.385 381.936 259.143 377.531 259.143C372.962 259.143 369.944 261.23 369.944 264.477C369.944 267.028 372.065 268.497 374.594 269.192C375.817 269.425 377.857 269.888 378.836 270.198C379.815 270.429 380.794 270.738 380.794 271.589C380.794 272.98 379.326 273.367 377.612 273.367C376.062 273.367 374.512 272.748 374.104 271.666C373.86 271.048 373.37 270.971 372.717 270.971H370.433C370.025 270.971 369.536 271.357 369.536 271.821V272.13C369.536 274.526 372.962 277 377.694 277C380.957 277 385.607 275.686 385.607 271.511C385.607 269.037 383.894 267.337 381.039 266.641C379.978 266.409 377.368 265.714 376.797 265.636C375.736 265.327 374.757 265.018 374.757 264.245C374.757 262.931 375.981 262.545 377.531 262.545" fill="white"/>
<g clip-path="url(#clip0_0_14368)">
<path d="M497.71 241.532H501.505C502.034 241.532 502.535 241.58 503.006 241.676C503.477 241.773 503.886 241.941 504.232 242.182C504.588 242.412 504.867 242.73 505.069 243.134C505.281 243.528 505.387 244.029 505.387 244.635C505.387 245.231 505.291 245.731 505.098 246.135C504.906 246.539 504.641 246.861 504.305 247.102C503.968 247.342 503.569 247.516 503.107 247.621C502.645 247.718 502.145 247.766 501.606 247.766H499.961V251.748H497.71V241.532ZM499.961 245.861H501.462C501.664 245.861 501.856 245.842 502.039 245.803C502.232 245.765 502.4 245.702 502.544 245.616C502.698 245.52 502.818 245.394 502.905 245.241C503.001 245.077 503.049 244.875 503.049 244.635C503.049 244.375 502.987 244.168 502.862 244.014C502.746 243.851 502.592 243.725 502.4 243.639C502.217 243.552 502.01 243.499 501.779 243.48C501.549 243.451 501.327 243.437 501.116 243.437H499.961V245.861Z" fill="white"/>
<path d="M507.16 241.532H511.114C511.633 241.532 512.124 241.585 512.585 241.691C513.057 241.787 513.466 241.955 513.812 242.196C514.168 242.427 514.447 242.744 514.649 243.148C514.861 243.543 514.966 244.038 514.966 244.635C514.966 245.356 514.779 245.972 514.404 246.482C514.028 246.982 513.48 247.299 512.759 247.434L515.356 251.748H512.658L510.522 247.665H509.411V251.748H507.16V241.532ZM509.411 245.76H510.739C510.941 245.76 511.152 245.755 511.373 245.746C511.604 245.726 511.811 245.683 511.994 245.616C512.177 245.539 512.326 245.423 512.441 245.269C512.566 245.116 512.629 244.899 512.629 244.62C512.629 244.36 512.576 244.154 512.47 244C512.364 243.846 512.23 243.73 512.066 243.653C511.902 243.567 511.715 243.509 511.503 243.48C511.292 243.451 511.085 243.437 510.883 243.437H509.411V245.76Z" fill="white"/>
<path d="M516.329 246.64C516.329 245.823 516.464 245.082 516.733 244.418C517.012 243.754 517.397 243.192 517.887 242.73C518.378 242.258 518.96 241.898 519.633 241.648C520.307 241.398 521.043 241.272 521.841 241.272C522.64 241.272 523.375 241.398 524.049 241.648C524.722 241.898 525.304 242.258 525.795 242.73C526.285 243.192 526.665 243.754 526.935 244.418C527.214 245.082 527.353 245.823 527.353 246.64C527.353 247.458 527.214 248.199 526.935 248.862C526.665 249.526 526.285 250.094 525.795 250.565C525.304 251.027 524.722 251.383 524.049 251.633C523.375 251.883 522.64 252.008 521.841 252.008C521.043 252.008 520.307 251.883 519.633 251.633C518.96 251.383 518.378 251.027 517.887 250.565C517.397 250.094 517.012 249.526 516.733 248.862C516.464 248.199 516.329 247.458 516.329 246.64ZM518.667 246.64C518.667 247.121 518.739 247.564 518.883 247.968C519.037 248.362 519.253 248.708 519.532 249.007C519.811 249.295 520.143 249.521 520.528 249.685C520.922 249.848 521.36 249.93 521.841 249.93C522.322 249.93 522.755 249.848 523.14 249.685C523.534 249.521 523.871 249.295 524.15 249.007C524.429 248.708 524.64 248.362 524.785 247.968C524.939 247.564 525.016 247.121 525.016 246.64C525.016 246.169 524.939 245.731 524.785 245.327C524.64 244.923 524.429 244.577 524.15 244.288C523.871 243.99 523.534 243.759 523.14 243.596C522.755 243.432 522.322 243.35 521.841 243.35C521.36 243.35 520.922 243.432 520.528 243.596C520.143 243.759 519.811 243.99 519.532 244.288C519.253 244.577 519.037 244.923 518.883 245.327C518.739 245.731 518.667 246.169 518.667 246.64Z" fill="white"/>
<path d="M531.221 243.523H528.306V241.532H536.387V243.523H533.472V251.748H531.221V243.523Z" fill="white"/>
<path d="M537.977 241.532H544.918V243.61H540.228V245.515H544.658V247.593H540.228V249.67H545.177V251.748H537.977V241.532Z" fill="white"/>
<path d="M556.589 251.027C555.926 251.373 555.233 251.623 554.511 251.777C553.79 251.931 553.054 252.008 552.304 252.008C551.505 252.008 550.769 251.883 550.096 251.633C549.423 251.383 548.841 251.027 548.35 250.565C547.859 250.094 547.475 249.526 547.196 248.862C546.926 248.199 546.792 247.458 546.792 246.64C546.792 245.823 546.926 245.082 547.196 244.418C547.475 243.754 547.859 243.192 548.35 242.73C548.841 242.258 549.423 241.898 550.096 241.648C550.769 241.398 551.505 241.272 552.304 241.272C553.121 241.272 553.872 241.373 554.555 241.575C555.247 241.768 555.853 242.105 556.373 242.586L554.786 244.317C554.478 244 554.132 243.759 553.747 243.596C553.362 243.432 552.881 243.35 552.304 243.35C551.823 243.35 551.385 243.432 550.991 243.596C550.606 243.759 550.274 243.99 549.995 244.288C549.716 244.577 549.5 244.923 549.346 245.327C549.201 245.731 549.129 246.169 549.129 246.64C549.129 247.121 549.201 247.564 549.346 247.968C549.5 248.362 549.716 248.708 549.995 249.007C550.274 249.295 550.606 249.521 550.991 249.685C551.385 249.848 551.823 249.93 552.304 249.93C552.794 249.93 553.218 249.877 553.574 249.771C553.93 249.656 554.213 249.541 554.425 249.425V247.766H552.592V245.688H556.589V251.027Z" fill="white"/>
<path d="M559.018 241.532H565.959V243.61H561.269V245.515H565.699V247.593H561.269V249.67H566.218V251.748H559.018V241.532Z" fill="white"/>
<path d="M573.098 241.532H575.349V249.67H579.519V251.748H573.098V241.532Z" fill="white"/>
<path d="M580.574 246.64C580.574 245.823 580.709 245.082 580.978 244.418C581.257 243.754 581.642 243.192 582.133 242.73C582.623 242.258 583.205 241.898 583.879 241.648C584.552 241.398 585.288 241.272 586.086 241.272C586.885 241.272 587.621 241.398 588.294 241.648C588.967 241.898 589.549 242.258 590.04 242.73C590.531 243.192 590.911 243.754 591.18 244.418C591.459 245.082 591.598 245.823 591.598 246.64C591.598 247.458 591.459 248.199 591.18 248.862C590.911 249.526 590.531 250.094 590.04 250.565C589.549 251.027 588.967 251.383 588.294 251.633C587.621 251.883 586.885 252.008 586.086 252.008C585.288 252.008 584.552 251.883 583.879 251.633C583.205 251.383 582.623 251.027 582.133 250.565C581.642 250.094 581.257 249.526 580.978 248.862C580.709 248.199 580.574 247.458 580.574 246.64ZM582.912 246.64C582.912 247.121 582.984 247.564 583.128 247.968C583.282 248.362 583.499 248.708 583.778 249.007C584.057 249.295 584.388 249.521 584.773 249.685C585.168 249.848 585.605 249.93 586.086 249.93C586.567 249.93 587 249.848 587.385 249.685C587.779 249.521 588.116 249.295 588.395 249.007C588.674 248.708 588.886 248.362 589.03 247.968C589.184 247.564 589.261 247.121 589.261 246.64C589.261 246.169 589.184 245.731 589.03 245.327C588.886 244.923 588.674 244.577 588.395 244.288C588.116 243.99 587.779 243.759 587.385 243.596C587 243.432 586.567 243.35 586.086 243.35C585.605 243.35 585.168 243.432 584.773 243.596C584.388 243.759 584.057 243.99 583.778 244.288C583.499 244.577 583.282 244.923 583.128 245.327C582.984 245.731 582.912 246.169 582.912 246.64Z" fill="white"/>
<path d="M598.12 241.532H601.929C602.371 241.532 602.814 241.566 603.256 241.633C603.709 241.691 604.113 241.816 604.469 242.008C604.824 242.191 605.113 242.451 605.334 242.788C605.556 243.124 605.666 243.572 605.666 244.13C605.666 244.707 605.503 245.188 605.176 245.572C604.858 245.948 604.435 246.217 603.906 246.381V246.409C604.242 246.457 604.546 246.554 604.815 246.698C605.094 246.833 605.33 247.011 605.522 247.232C605.724 247.443 605.878 247.694 605.984 247.982C606.089 248.271 606.142 248.579 606.142 248.906C606.142 249.444 606.027 249.897 605.796 250.262C605.565 250.618 605.267 250.907 604.901 251.128C604.536 251.349 604.122 251.508 603.661 251.604C603.208 251.7 602.756 251.748 602.304 251.748H598.12V241.532ZM600.371 245.616H602.001C602.174 245.616 602.343 245.597 602.506 245.558C602.679 245.52 602.833 245.457 602.968 245.37C603.103 245.284 603.208 245.168 603.285 245.024C603.372 244.88 603.415 244.707 603.415 244.505C603.415 244.293 603.367 244.12 603.271 243.985C603.184 243.841 603.069 243.73 602.925 243.653C602.78 243.576 602.617 243.523 602.434 243.495C602.251 243.456 602.073 243.437 601.9 243.437H600.371V245.616ZM600.371 249.844H602.391C602.564 249.844 602.737 249.824 602.91 249.786C603.093 249.747 603.256 249.68 603.401 249.584C603.545 249.488 603.661 249.363 603.747 249.209C603.843 249.055 603.891 248.867 603.891 248.646C603.891 248.405 603.829 248.213 603.704 248.069C603.588 247.915 603.439 247.799 603.256 247.722C603.074 247.646 602.877 247.593 602.665 247.564C602.453 247.535 602.256 247.52 602.073 247.52H600.371V249.844Z" fill="white"/>
<path d="M616.451 247.809C616.451 248.415 616.36 248.973 616.177 249.483C615.994 249.993 615.72 250.435 615.355 250.81C614.999 251.186 614.551 251.479 614.013 251.691C613.474 251.902 612.854 252.008 612.151 252.008C611.44 252.008 610.814 251.902 610.276 251.691C609.737 251.479 609.285 251.186 608.919 250.81C608.563 250.435 608.294 249.993 608.111 249.483C607.928 248.973 607.837 248.415 607.837 247.809V241.532H610.088V247.722C610.088 248.04 610.136 248.333 610.232 248.603C610.338 248.872 610.482 249.108 610.665 249.31C610.848 249.502 611.064 249.656 611.314 249.771C611.574 249.877 611.853 249.93 612.151 249.93C612.45 249.93 612.724 249.877 612.974 249.771C613.224 249.656 613.44 249.502 613.623 249.31C613.806 249.108 613.945 248.872 614.042 248.603C614.147 248.333 614.2 248.04 614.2 247.722V241.532H616.451V247.809Z" fill="white"/>
<path d="M618.98 241.532H625.92V243.61H621.231V245.515H625.66V247.593H621.231V249.67H626.18V251.748H618.98V241.532Z" fill="white"/>
<path d="M628.343 241.532H631.402L635.745 248.632H635.774V241.532H638.025V251.748H635.081L630.623 244.476H630.594V251.748H628.343V241.532Z" fill="white"/>
<path d="M639.921 246.64C639.921 245.823 640.056 245.082 640.325 244.418C640.604 243.754 640.989 243.192 641.48 242.73C641.97 242.258 642.552 241.898 643.226 241.648C643.899 241.398 644.635 241.272 645.433 241.272C646.232 241.272 646.968 241.398 647.641 241.648C648.315 241.898 648.897 242.258 649.387 242.73C649.878 243.192 650.258 243.754 650.527 244.418C650.806 245.082 650.946 245.823 650.946 246.64C650.946 247.458 650.806 248.199 650.527 248.862C650.258 249.526 649.878 250.094 649.387 250.565C648.897 251.027 648.315 251.383 647.641 251.633C646.968 251.883 646.232 252.008 645.433 252.008C644.635 252.008 643.899 251.883 643.226 251.633C642.552 251.383 641.97 251.027 641.48 250.565C640.989 250.094 640.604 249.526 640.325 248.862C640.056 248.199 639.921 247.458 639.921 246.64ZM642.259 246.64C642.259 247.121 642.331 247.564 642.475 247.968C642.629 248.362 642.846 248.708 643.125 249.007C643.404 249.295 643.736 249.521 644.12 249.685C644.515 249.848 644.952 249.93 645.433 249.93C645.914 249.93 646.347 249.848 646.732 249.685C647.126 249.521 647.463 249.295 647.742 249.007C648.021 248.708 648.233 248.362 648.377 247.968C648.531 247.564 648.608 247.121 648.608 246.64C648.608 246.169 648.531 245.731 648.377 245.327C648.233 244.923 648.021 244.577 647.742 244.288C647.463 243.99 647.126 243.759 646.732 243.596C646.347 243.432 645.914 243.35 645.433 243.35C644.952 243.35 644.515 243.432 644.12 243.596C643.736 243.759 643.404 243.99 643.125 244.288C642.846 244.577 642.629 244.923 642.475 245.327C642.331 245.731 642.259 246.169 642.259 246.64Z" fill="white"/>
<path d="M650.157 231.692H655.146L655.152 225.709L657.063 223.771L662.041 231.692H668.038L660.616 220.604L667.274 213.715H661.384L655.146 220.384L655.152 206.766H650.137L650.157 231.692Z" fill="white"/>
<path fill-rule="evenodd" clip-rule="evenodd" d="M620.541 211.047C623.536 210.923 625.405 212.128 625.433 214.877C625.46 217.657 623.395 218.814 620.658 218.752H616.947V211.047H620.541ZM616.933 231.692V223.088H619.749C625.773 223.198 630.545 221.49 630.545 214.825C630.545 209.398 626.352 206.518 620.282 206.766H611.621V231.692H616.933Z" fill="white"/>
<path fill-rule="evenodd" clip-rule="evenodd" d="M638.164 228.549C636.645 228.7 634.687 228.267 634.615 226.348C634.552 224.485 637.176 223.96 638.501 223.688C639.575 223.471 640.577 223.198 641.317 222.888C641.751 222.712 641.841 222.568 641.841 222.568V225.052C641.744 226.921 640.494 228.318 638.164 228.549ZM635.234 219.345C635.234 219.345 634.927 216.591 638.797 216.646C640.405 216.684 641.868 217.478 641.771 218.889C641.696 219.931 640.832 220.201 639.08 220.459C636.239 220.814 634.225 221.277 632.866 221.943C631.113 222.802 629.633 224.626 629.767 226.852C629.988 230.298 633.554 232.312 637.035 232.161C641.09 231.989 641.834 229.56 641.834 229.56C641.895 229.954 641.909 229.954 641.989 230.529C642.106 231.338 642.267 231.703 642.267 231.703H647.369C647.087 231.455 646.97 231.365 646.815 231.059C646.629 230.653 646.595 230.281 646.595 229.847V219.538C646.595 214.478 642.539 213.18 638.536 213.111C631.017 212.99 631.024 218.364 630.872 219.223L635.234 219.345Z" fill="white"/>
<path d="M538.703 231.692V211.183H546.32V206.728H525.91V211.183H533.401V231.692H538.703Z" fill="white"/>
<path fill-rule="evenodd" clip-rule="evenodd" d="M555.486 220.562H547.561C547.561 220.562 547.903 217.12 551.46 217.092C554.959 217.061 555.486 220.562 555.486 220.562ZM542.512 223.266C542.848 229.926 548.483 232.415 551.849 232.322C559.136 232.109 560.555 226.358 560.555 226.358L555.451 226.062C555.451 226.062 554.639 228.36 551.828 228.343C547.528 228.329 547.418 224.053 547.418 224.053H560.748C560.748 224.053 561.238 213.331 551.363 213.187C545.76 213.104 542.24 217.813 542.512 223.266Z" fill="white"/>
<path d="M574.744 231.692H579.705V223.537C579.705 221.246 580.147 219.182 582.202 218.158C583.252 217.639 584.099 217.574 585.273 217.727V213.466C585.109 213.369 584.536 213.307 583.977 213.28C582.379 213.193 580.851 214.125 579.944 215.76C579.847 215.905 579.813 216.001 579.656 216.364L579.494 213.801H574.744V231.692Z" fill="white"/>
<path d="M561.095 217.185L563.572 217.189V226.368C563.572 227.856 563.729 229.725 565.149 230.777C566.574 231.827 568.513 231.699 570.34 231.689H571.883L571.89 227.993H570.731C569.926 227.993 569.44 227.942 569.051 227.632C568.425 227.151 568.458 226.358 568.458 225.924V217.185H571.781V213.784H568.471V208.102L563.572 208.085V213.77L561.095 213.784V217.185Z" fill="white"/>
<path fill-rule="evenodd" clip-rule="evenodd" d="M593.702 228.539C592.18 228.687 590.222 228.267 590.146 226.341C590.077 224.478 592.714 223.95 594.043 223.678C595.12 223.461 596.116 223.187 596.845 222.881C597.282 222.706 597.379 222.558 597.379 222.558V225.052C597.282 226.917 596.033 228.312 593.702 228.539ZM590.769 219.339C590.769 219.339 590.459 216.578 594.329 216.633C595.94 216.67 597.407 217.464 597.303 218.882C597.245 219.917 596.363 220.187 594.614 220.445C591.754 220.81 589.757 221.277 588.39 221.933C586.645 222.788 585.158 224.613 585.301 226.845C585.512 230.295 589.082 232.312 592.57 232.161C596.621 231.989 597.365 229.549 597.365 229.549C597.434 229.954 597.441 229.954 597.53 230.525C597.641 231.334 597.802 231.703 597.802 231.703H602.911C602.629 231.455 602.512 231.365 602.353 231.059C602.178 230.649 602.137 230.281 602.137 229.847V219.524C602.137 214.453 598.067 213.166 594.07 213.097C586.549 212.98 586.549 218.354 586.4 219.21V219.216L590.769 219.339Z" fill="white"/>
<path d="M510.198 223.65L516.075 216.347L510.029 216.337L507.15 219.945L510.198 223.65Z" fill="white"/>
<path d="M499.275 219.999C500.447 219.999 501.457 220.518 502.187 221.387C502.454 221.698 502.536 221.781 502.733 222.039C503.437 222.929 503.674 223.253 504.086 223.771C503.674 224.265 503.437 224.602 502.733 225.492C502.536 225.75 502.454 225.831 502.187 226.148C501.457 227.017 500.447 227.522 499.275 227.522C497.199 227.522 495.528 225.838 495.528 223.771C495.514 221.698 497.199 219.999 499.275 219.999Z" fill="white"/>
<path d="M496.359 231.582C495.636 231.403 494.941 231.004 494.715 230.866C492.347 229.388 490.777 226.811 490.777 223.757C490.777 219.072 494.586 215.281 499.287 215.281C501.588 215.281 503.902 216.171 505.73 218.299L505.838 218.426L505.914 218.368L496.736 202.533L479.893 231.665H496.359V231.582Z" fill="white"/>
<path d="M502.332 231.589V231.665H513.623V231.578C513.623 231.578 513.46 231.551 513.277 231.527C512.532 231.427 511.931 231.221 511.503 231.045C509.797 230.346 508.363 228.959 507.149 227.522C507.149 227.522 506.241 228.7 505.435 229.584C504.236 230.89 502.945 231.434 502.332 231.589Z" fill="white"/>
<path d="M672.869 207.467H673.767C674.521 207.467 675.358 207.418 675.358 206.521C675.358 205.625 674.521 205.58 673.767 205.594H672.869V207.467ZM671.643 204.554H674.222C675.829 204.554 676.583 205.279 676.583 206.57C676.583 207.735 675.891 208.301 674.982 208.412L676.728 211.245H675.437L673.767 208.504H672.869V211.245H671.643V204.554ZM673.891 212.754C676.556 212.754 678.707 210.599 678.707 207.94C678.707 205.279 676.556 203.124 673.891 203.124C671.233 203.124 669.075 205.279 669.075 207.94C669.075 210.599 671.233 212.754 673.891 212.754ZM673.891 202.084C677.12 202.084 679.751 204.714 679.751 207.94C679.751 211.164 677.12 213.794 673.891 213.794C670.665 213.794 668.035 211.164 668.035 207.94C668.035 204.714 670.665 202.084 673.891 202.084Z" fill="white"/>
</g>
<path d="M149.54 80.3872C149.44 80.3978 149.082 80.4346 148.75 80.4663C147.855 80.5505 146.643 80.7613 146.295 80.8877C145.879 81.0457 145.384 81.5409 145.221 81.9677C145.052 82.4102 145.031 82.8843 145.157 83.2794C145.21 83.4533 146.401 85.6817 147.797 88.2314C150.51 93.1782 150.526 93.1993 151.089 93.5048C151.237 93.5838 151.474 93.7524 151.611 93.8736C151.79 94.0369 151.943 94.1159 152.143 94.1633C152.575 94.2581 152.886 94.1422 153.444 93.6681C155.841 91.6557 159.55 91.4134 162.79 93.0465C163.87 93.5944 164.723 94.2055 165.703 95.1221C165.945 95.3486 166.251 95.5857 166.388 95.6437C167.02 95.9281 167.889 95.6384 168.211 95.0431C168.3 94.8798 168.337 94.8587 168.664 94.806C169.122 94.7375 169.47 94.569 169.759 94.274C170.323 93.7155 170.418 93.0518 170.065 92.1298C169.812 91.4608 169.122 90.0279 168.764 89.4273C165.782 84.4384 160.651 81.3144 154.071 80.4821C153.449 80.403 150.03 80.3345 149.54 80.3872Z" fill="white"/>
<path d="M309.301 85.1233C307.973 85.3393 306.593 85.8977 305.366 86.7248C304.676 87.1884 304.233 87.5414 303.522 88.2051L302.953 88.7319L302.927 88.5107C302.905 88.3843 302.848 87.8258 302.79 87.2727C302.684 86.198 302.637 86.0399 302.368 85.8134C302.089 85.5816 301.92 85.5658 299.797 85.5816C297.579 85.5974 297.616 85.5922 297.327 85.9767L297.179 86.1664L297.163 98.1829C297.158 104.794 297.163 110.278 297.179 110.373C297.216 110.584 297.49 110.905 297.716 110.995C297.969 111.1 302.505 111.1 302.753 110.995C302.958 110.911 303.185 110.674 303.258 110.473C303.301 110.368 303.316 107.734 303.316 101.944V93.5575L303.432 93.3205C303.706 92.7462 304.886 91.7664 305.808 91.3397C306.862 90.855 307.483 90.7286 309.09 90.6864L310.36 90.6548L310.544 90.5126C310.644 90.4335 310.765 90.2913 310.813 90.1965C310.855 90.1017 311.076 89.1376 311.298 88.0524C311.73 85.9557 311.756 85.6975 311.55 85.4236C311.313 85.1022 311.219 85.0706 310.465 85.0601C310.07 85.0548 309.57 85.0811 309.301 85.1233Z" fill="white"/>
<path d="M192.739 85.1865C188.203 85.6395 184.968 87.6151 182.967 91.1552C180.907 94.7902 180.643 100.122 182.313 104.152C183.683 107.444 186.148 109.757 189.473 110.858C191.211 111.432 193.123 111.653 195.347 111.543C197.965 111.416 199.63 111.037 201.278 110.194C201.774 109.941 201.874 109.868 201.984 109.678C202.069 109.53 202.116 109.372 202.116 109.22C202.116 108.724 201.758 106.017 201.663 105.827C201.531 105.542 201.221 105.358 200.889 105.358C200.678 105.358 200.488 105.411 200.062 105.6C198.37 106.348 196.685 106.707 194.846 106.712C193.066 106.722 191.78 106.37 190.537 105.537C189.994 105.179 189.241 104.415 188.856 103.851C188.14 102.787 187.666 101.407 187.471 99.8265C187.397 99.226 187.397 97.5455 187.471 96.8975C187.65 95.3012 188.171 93.8209 188.92 92.762C189.294 92.2299 190.005 91.5398 190.542 91.1869C191.722 90.4019 193.05 90.0489 194.788 90.0489C196.542 90.0489 198.012 90.3334 199.587 90.9761C200.841 91.4871 200.947 91.5029 201.331 91.2448C201.653 91.0288 201.684 90.9182 201.905 89.1955C202.021 88.3157 202.116 87.5097 202.116 87.3991C202.116 87.1251 201.942 86.8091 201.7 86.6458C201.442 86.4772 200.425 86.0452 199.851 85.8608C198.845 85.5447 197.528 85.3077 196.195 85.2023C195.573 85.1549 193.171 85.1443 192.739 85.1865Z" fill="white"/>
<path d="M213.284 85.2287C209.381 85.7081 206.336 87.5624 204.355 90.6601C202.153 94.1054 201.616 98.9205 202.985 102.972C204.165 106.454 206.689 109.083 210.176 110.452C214.27 112.064 219.796 111.933 224.374 110.11C225.006 109.857 225.19 109.731 225.322 109.436C225.422 109.214 225.422 109.199 225.28 107.576C225.117 105.732 225.085 105.621 224.69 105.395C224.379 105.221 224.147 105.242 223.31 105.537C221.866 106.043 220.275 106.417 218.737 106.622C217.826 106.744 216.203 106.744 215.444 106.622C212.173 106.106 209.981 104.32 208.944 101.339C208.759 100.806 208.491 99.6527 208.491 99.3999V99.2682H217.072C223.009 99.2682 225.701 99.2524 225.807 99.2102C225.986 99.147 226.228 98.9205 226.323 98.7414C226.381 98.6255 226.434 98.3357 226.586 97.1873C226.639 96.8238 226.618 95.1327 226.56 94.6217C226.165 91.3133 224.484 88.595 221.824 86.9408C220.344 86.0241 218.653 85.4552 216.709 85.2287C215.903 85.1338 214.064 85.1338 213.284 85.2287ZM216.977 90.2228C219.158 90.797 220.428 92.4249 220.628 94.9062L220.665 95.3171H214.786C211.557 95.3171 208.912 95.3118 208.912 95.3013C208.912 95.2328 209.154 94.4215 209.265 94.1318C210.066 91.9876 211.63 90.6021 213.732 90.1912C214.391 90.0595 214.412 90.0595 215.471 90.0753C216.345 90.0859 216.535 90.1069 216.977 90.2228Z" fill="white"/>
<path d="M239.151 85.2286C237.165 85.5184 235.521 86.219 233.872 87.4781C233.598 87.6835 233.451 87.7678 233.435 87.7204C233.424 87.6835 233.356 87.3517 233.282 86.9829C233.135 86.2243 233.072 86.0768 232.808 85.845C232.513 85.5868 232.26 85.5605 230.432 85.5816C229.036 85.5974 228.778 85.6079 228.641 85.6869C228.436 85.7976 228.267 85.9819 228.199 86.1663C228.156 86.2717 228.141 89.9541 228.141 98.3567V110.4L228.272 110.626C228.357 110.774 228.478 110.884 228.63 110.958C228.852 111.063 228.931 111.069 231.122 111.069C233.203 111.069 233.398 111.058 233.593 110.969C233.846 110.853 233.957 110.737 234.067 110.473C234.136 110.305 234.146 109.278 234.146 101.449C234.146 91.3818 234.088 92.4881 234.668 91.898C235.611 90.9445 236.859 90.3492 238.387 90.1279C239.067 90.0279 240.51 90.0279 241.158 90.1279C243.292 90.4493 244.424 91.524 244.993 93.7629C245.294 94.9535 245.283 94.6585 245.315 102.824C245.33 107.186 245.362 110.4 245.388 110.463C245.499 110.705 245.657 110.874 245.862 110.969C246.063 111.058 246.247 111.069 248.344 111.069C250.93 111.069 250.915 111.069 251.199 110.642L251.347 110.415L251.373 102.355C251.399 95.0009 251.41 94.2581 251.494 93.921C251.657 93.2414 251.752 92.9727 251.958 92.5513C252.632 91.1974 253.875 90.4019 255.756 90.1227C256.657 89.991 258.221 90.0384 258.912 90.2228C261.056 90.7865 262.099 92.2773 262.41 95.2117C262.473 95.7912 262.489 97.2452 262.489 103.114C262.489 109.978 262.494 110.315 262.589 110.516C262.705 110.768 262.82 110.879 263.084 110.99C263.247 111.058 263.621 111.069 265.555 111.069C267.757 111.069 267.836 111.063 268.057 110.958C268.21 110.884 268.331 110.774 268.415 110.621L268.552 110.394L268.531 102.74C268.515 95.8017 268.505 95.022 268.426 94.4741C268.268 93.4258 268.073 92.5776 267.804 91.7663C266.587 88.0576 264.037 85.8977 260.139 85.2708C259.301 85.1338 256.873 85.1391 255.982 85.276C255.182 85.3972 254.118 85.6659 253.449 85.9135C252.727 86.1821 251.705 86.7195 251.109 87.1409C250.462 87.6045 249.677 88.3842 249.318 88.9268C249.16 89.1692 249.018 89.3641 249.002 89.3641C248.986 89.3641 248.902 89.2482 248.807 89.1059C248.539 88.6898 247.885 87.9417 247.496 87.594C245.973 86.2506 244.308 85.5131 242.133 85.2286C241.395 85.1338 239.799 85.1338 239.151 85.2286Z" fill="white"/>
<path d="M281.664 85.1812C279.425 85.4499 277.792 86.1137 276.122 87.4518C275.922 87.6098 275.748 87.731 275.743 87.7204C275.733 87.7152 275.638 87.3517 275.532 86.9144C275.322 86.0715 275.211 85.8555 274.905 85.687C274.758 85.6079 274.531 85.5974 272.883 85.5816C271.666 85.5711 270.96 85.5869 270.817 85.6237C270.57 85.687 270.317 85.8871 270.191 86.1189C270.106 86.2717 270.101 87.3569 270.101 103.799C270.101 120.92 270.101 121.32 270.201 121.515C270.259 121.631 270.396 121.784 270.512 121.858L270.728 122H273.104H275.48L275.696 121.858C275.812 121.784 275.949 121.631 276.006 121.515C276.101 121.32 276.107 121.094 276.122 115.267L276.133 109.225L276.523 109.515C278.519 111.016 281.085 111.722 283.909 111.543C285.205 111.464 286.079 111.316 287.122 111.016C291.553 109.725 294.603 106.117 295.435 101.165C296.094 97.2821 295.372 93.3995 293.449 90.4546C291.6 87.6256 288.755 85.8397 285.194 85.276C284.662 85.197 282.139 85.1285 281.664 85.1812ZM283.772 90.128C286.269 90.5336 288.149 92.2563 289.003 94.9219C289.356 96.0282 289.482 96.9291 289.482 98.3462C289.482 99.8371 289.335 100.817 288.929 101.992C288.518 103.177 287.986 104.062 287.196 104.858C286.242 105.811 285.162 106.38 283.809 106.622C283.14 106.744 281.902 106.744 281.243 106.617C278.203 106.048 276.312 103.63 275.917 99.8107C275.822 98.8888 275.88 96.9238 276.028 96.1073C276.623 92.7409 278.519 90.6021 281.317 90.1332C281.912 90.0331 283.161 90.0331 283.772 90.128Z" fill="white"/>
<path d="M321.934 85.2339C318.125 85.6922 315.08 87.5308 313.094 90.56C310.618 94.3425 310.212 99.7107 312.088 104.062C313.305 106.891 315.723 109.193 318.747 110.41C322.872 112.064 328.429 111.948 333.055 110.11C333.687 109.857 333.871 109.731 334.003 109.436C334.103 109.214 334.103 109.199 333.961 107.576C333.798 105.732 333.766 105.621 333.371 105.395C333.06 105.221 332.828 105.242 331.991 105.537C330.547 106.043 328.956 106.417 327.418 106.622C326.507 106.744 324.884 106.744 324.125 106.622C320.854 106.106 318.662 104.32 317.625 101.338C317.44 100.806 317.172 99.6527 317.172 99.3998V99.2681H325.759C332.855 99.2681 334.377 99.2576 334.519 99.1944C334.778 99.089 335.009 98.7887 335.078 98.4832C335.505 96.476 335.304 93.7577 334.593 91.9086C333.139 88.1419 329.841 85.7502 325.39 85.2286C324.573 85.1285 322.74 85.1338 321.934 85.2339ZM325.658 90.2228C326.57 90.4599 327.191 90.8023 327.824 91.4081C328.682 92.2299 329.188 93.4258 329.309 94.9061L329.346 95.3171H323.467C317.893 95.3171 317.588 95.3118 317.614 95.2222C317.625 95.1748 317.688 94.9536 317.746 94.7323C318.415 92.3037 320.116 90.6442 322.413 90.1912C323.072 90.0595 323.093 90.0595 324.152 90.0753C325.026 90.0858 325.216 90.1069 325.658 90.2228Z" fill="white"/>
<path d="M140.637 92.4143C140.158 92.5618 139.821 92.8779 139.046 93.8999C137.102 96.4655 135.938 99.4525 135.601 102.745C135.496 103.799 135.522 105.885 135.654 106.896C136.191 110.979 137.766 114.783 140.337 118.196C141.032 119.118 141.412 119.503 141.807 119.687C142.102 119.824 142.197 119.84 142.666 119.84C143.14 119.84 143.219 119.824 143.482 119.687C143.64 119.608 143.877 119.44 143.998 119.319C144.156 119.176 145.142 117.643 147.022 114.625C148.561 112.159 149.867 110.047 149.92 109.92C149.978 109.794 150.036 109.557 150.051 109.399C150.073 109.199 150.141 109.014 150.257 108.814C150.515 108.387 150.547 107.971 150.357 107.586C150.241 107.365 149.957 107.123 149.704 107.033C148.023 106.422 146.812 105.479 145.826 104.009C144.262 101.681 143.819 98.5464 144.615 95.5383C144.789 94.8851 144.789 94.5216 144.609 94.1686C144.336 93.6102 143.814 93.331 143.145 93.3784L142.771 93.4047L142.613 93.1677C142.297 92.683 141.691 92.3617 141.096 92.3722C140.917 92.3722 140.711 92.3933 140.637 92.4143Z" fill="white"/>
<path d="M164.634 101.718C164.433 101.786 164.159 101.844 164.028 101.85C163.422 101.855 162.921 102.366 162.921 102.977C162.921 103.103 162.964 103.393 163.011 103.62C163.143 104.215 163.143 105.758 163.006 106.38C162.769 107.476 162.331 108.493 161.683 109.462C160.361 111.437 158.343 112.891 155.852 113.671C155.156 113.892 154.851 114.108 154.645 114.535C154.419 114.993 154.498 115.652 154.835 116.1C154.903 116.2 154.903 116.226 154.777 116.405C154.329 117.064 154.392 118.023 154.919 118.623C155.435 119.208 156.205 119.361 158.654 119.366C159.887 119.366 160.351 119.345 160.893 119.271C163.759 118.865 166.219 117.912 168.637 116.279C172.235 113.85 175.217 110.036 176.935 105.669C177.472 104.304 177.535 104.078 177.54 103.562C177.54 103.156 177.519 103.045 177.398 102.782C177.198 102.361 176.792 101.95 176.392 101.765L176.065 101.612L170.534 101.602L165.002 101.586L164.634 101.718Z" fill="white"/>
<path fill-rule="evenodd" clip-rule="evenodd" d="M434.7 99.3515C438.231 98.5874 442.373 97.4006 447.352 95.7096C457.365 92.2773 471.681 84.1786 473.56 74.7554C475.197 66.6917 468.64 60.2188 461.377 59.3136C455.17 58.562 444.844 57.9419 420.055 72.8514C420.055 72.8514 415.715 75.3475 415.268 75.9428C414.806 76.5441 413.926 80.8776 414.05 84.1786C414.05 84.1786 413.526 88.0902 415.876 86.2613C415.876 86.2613 436.833 69.5853 454.593 66.629C463.779 65.1291 472.215 70.4278 466.312 78.7105C460.62 86.7248 451.651 90.5078 437.803 94.2473C442.227 87.0346 446.691 80.0798 446.691 80.0798C448.762 76.0397 445.969 73.0241 443.768 74.0355C442.95 74.4581 433.028 90.5704 429.696 95.9818C426.692 96.3009 423.499 96.3794 421.069 96.5389C417.503 96.8745 416.17 99.8084 420.064 100.444C421.871 100.723 424.075 100.839 426.875 100.629L418.545 114.314C415.442 119.87 416.071 121.94 416.071 121.94C416.818 126.779 421.127 123.152 421.875 122.556C423.434 121.326 425.948 116.654 425.948 116.654C427.033 114.176 426.64 113.66 426.64 113.66C426.64 113.66 430.062 107.143 434.7 99.3515Z" fill="white"/>
<path fill-rule="evenodd" clip-rule="evenodd" d="M571.405 113.187C569.449 115.042 567.085 116.04 565.673 116.058C563.279 116.058 562.098 114.564 561.875 112.712C561.291 108.352 566.536 103.513 570.642 101.411C572.184 103.693 573.955 105.541 576.034 106.907C574.672 109.744 573.182 111.465 571.405 113.187ZM576.921 100.117C577.65 100.605 577.693 101.738 577.375 103.473C576.383 102.559 575.077 101.321 574.211 100.049C575.231 99.6599 576.513 99.8237 576.921 100.117ZM552.327 88.3681C556.359 82.8201 560.238 79.4327 561.579 79.4262C561.832 79.4295 561.996 79.5218 562.079 79.8247C562.172 80.2511 561.347 83.1653 556.669 88.933C549.354 97.9126 544.982 101.454 543.508 102.569C545.995 97.8223 548.286 93.9539 552.327 88.3681ZM522.628 113.202C520.679 115.064 518.29 116.062 516.887 116.071C514.477 116.077 513.343 114.574 513.098 112.73C512.493 108.349 517.817 103.467 521.967 101.367C523.355 103.606 525.273 105.462 527.35 106.805C525.919 109.729 524.43 111.465 522.628 113.202ZM528.129 100.133C528.889 100.62 528.929 101.756 528.617 103.507C527.647 102.593 526.396 101.312 525.582 100.025C526.571 99.6853 527.77 99.8361 528.129 100.133ZM455.41 113.224C453.435 115.086 451.084 116.086 449.659 116.099C447.28 116.101 446.127 114.602 445.871 112.752C445.293 108.33 450.731 103.384 454.86 101.337C456.226 103.517 458.046 105.541 460.001 107.049C458.661 109.815 457.159 111.554 455.41 113.224ZM460.929 100.16C461.673 100.645 461.695 101.778 461.389 103.526C460.447 102.599 459.211 101.331 458.441 100.025C459.408 99.7126 460.57 99.864 460.929 100.16ZM612.438 110.146C609.963 112.399 604.438 116.355 602.739 116.651C600.61 117.044 600.943 115.793 601.413 114.805C602.668 112.091 606.805 108.083 610.044 102.593C612.022 99.2777 612.102 96.0197 608.149 95.566C604.862 95.2046 601.657 96.0379 597.025 98.5731C596.917 98.6784 596.815 98.7096 596.667 98.7765C596.117 99.0424 595.792 98.9312 596.046 98.4496C596.191 98.2708 596.333 98.0758 596.463 97.8996C596.596 97.5883 596.737 97.1677 596.737 96.8745C596.741 96.3064 596.599 95.9183 596.193 95.6518C595.7 95.371 595.223 95.2787 594.337 95.2845C593.107 95.2845 591.439 95.6369 590.502 97.2301C589.869 98.224 589.015 99.6937 588.086 101.312C585.499 104.27 582.084 105.705 579.717 105.06C579.699 105.029 579.699 105.001 579.699 104.928C579.841 104.1 580.15 102.285 580.073 101.47C580.073 101.47 580.169 99.7555 579.872 98.4314C579.486 96.7946 577.92 95.0837 575.481 94.695C573.368 94.3088 570.744 94.8679 568.145 96.467C565.865 97.8197 564.036 99.2615 562.546 100.691C560.51 102.278 559.357 103.069 557.546 102.68C555.229 102.204 554.939 101.769 554.511 101.095C554.144 100.515 553.876 100.055 551.981 101.596C550.065 103.13 550.575 104.249 550.575 104.249C550.683 104.322 548.882 108.163 546.698 111.118C545.371 112.943 543.928 114.135 542.55 115.018C540.655 116.188 539.42 116.333 538.715 115.397C537.847 113.768 539.382 111.226 541.543 106.419C546.184 104.486 551.774 98.4678 554.716 95.735C563.652 87.4633 565.948 81.9399 565.948 77.3208C565.948 75.0138 563.693 73.8684 562.299 73.9581C556.81 74.2637 550.933 79.6115 540.057 97.2951C538.156 100.386 536.675 103.109 535.53 105.561C533.777 105.768 532.201 105.644 530.938 105.193C530.919 105.094 530.919 105.06 530.919 104.943C531.061 104.119 531.373 102.296 531.305 101.491C531.305 101.491 531.423 99.7743 531.098 98.4528C530.675 96.8102 529.173 95.1058 526.701 94.7197C524.587 94.3244 521.961 94.8835 519.35 96.48C514.947 99.1191 512.215 102.081 510.546 104.548C508.065 107.494 504.06 112.156 502.209 113.305C500.671 114.32 498.065 115.151 497.064 114.87C494.2 113.956 497.33 108.713 499.36 104.607C500.191 102.865 504.499 97.1677 507.249 93.7687L507.595 93.781C509.641 93.963 511.856 93.9942 512.966 93.8616C514.06 93.7225 514.986 93.3117 515.719 92.6636C516.451 92.0305 517.266 90.2793 517.273 89.4797C517.273 89.0819 517.039 89.0045 516.775 89.0539C516.492 89.1618 513.559 89.2944 511.77 89.245C511.3 89.2021 510.503 89.1865 510.079 89.0942C510.676 88.177 517.175 78.7782 518.281 77.4072C519.362 76.0857 518.648 75.3076 518.5 74.9059C518.305 74.3098 517.73 73.9763 516.297 73.9763C514.813 73.9763 513.547 74.4678 512.428 75.4838C511.322 76.4965 504.345 86.4752 503.071 88.9207L501.279 88.9584C499.215 89.0104 497.621 89.1865 496.505 89.4862C495.389 89.7053 494.468 90.2149 493.727 90.9709C492.994 91.6567 492.067 93.5067 492.13 94.2874C492.139 94.4544 492.182 94.5376 492.305 94.5376C492.423 94.5376 492.602 94.4603 492.874 94.3615C493.155 94.2874 493.869 94.1795 494.196 94.0995C494.969 93.8831 496.128 93.7348 497.685 93.7036C498.189 93.6913 499.573 93.5775 500.009 93.6016C498.643 95.6219 496.956 98.0667 495.235 100.475C485.514 112.684 481.41 115.145 476.901 117.54C475.885 118.053 474.998 118.186 474.998 118.186C480.841 115.157 485.053 109.59 485.492 104.251C485.761 100.944 482.399 99.7217 482.009 96.9493C482.071 96.3259 482.254 95.7045 482.254 95.7045C482.399 94.615 479.537 94.7723 479.537 94.7723C476.558 95.3404 476.24 98.9533 476.24 98.9533C472.736 105.366 466.967 106.57 463.747 105.317C463.747 105.218 463.747 105.101 463.737 104.965C463.88 104.137 464.173 102.324 464.133 101.513C464.133 101.513 464.198 99.8016 463.901 98.4743C463.503 96.8349 461.945 95.124 459.501 94.7379C457.375 94.3517 454.739 94.9082 452.156 96.5073C445.345 100.555 442.537 105.382 441.421 107.935C440.297 110.504 439.814 113.842 440.454 116.272C441.199 119.032 443.677 122.308 447.688 122.301C449.106 122.301 452.827 122.79 458.046 116.478C460.289 113.792 461.244 112.44 462.641 108.636C466.12 109.945 472.31 109.556 476.537 103.189C476.537 103.189 476.385 102.655 476.534 102.834C477.164 103.693 478.944 105.965 478.02 108.734C478.02 108.734 476.222 115.5 470.119 117.633C468.023 118.408 466.933 117.531 466.29 116.617C465.777 115.864 463.96 114.505 462.545 115.512C459.708 117.553 462.304 120.067 464.479 121.237C466.627 122.447 469.622 122.938 472.971 122.212C477.022 121.32 479.382 120.527 482.915 117.778C485.872 115.481 488.245 113.092 489.976 111.137C489.574 112.366 489.289 113.391 489.107 114.175C488.792 115.478 488.687 116.608 488.749 117.544C488.829 118.948 489.289 120.109 490.093 121.045C490.905 121.925 491.867 122.324 493.096 122.355C496.663 122.41 502.147 118.208 507.54 111.834C507.308 113.382 507.308 114.99 507.663 116.253C508.396 119.01 510.911 122.277 514.912 122.277C516.356 122.277 520.045 122.771 525.258 116.457C527.588 113.65 528.493 112.316 530.02 108.235C531.234 108.596 532.696 108.716 534.231 108.596C530.323 118.572 533.326 122.277 538.042 122.301C541.268 122.327 545.505 119.795 548.944 115.815C551.477 112.866 552.843 109.405 554.116 105.625C555.643 106.203 557.213 106.042 558.566 105.634C558.068 106.521 557.698 107.271 557.398 107.901C556.298 110.464 555.784 113.792 556.43 116.232C557.169 118.992 559.675 122.262 563.695 122.262C565.111 122.262 568.825 122.743 574.016 116.439C576.35 113.634 577.267 112.304 578.754 108.213C580.348 108.611 582.276 108.482 584.272 107.608C582.943 109.71 581.509 112.338 579.717 115.079C578.657 116.689 576.33 121.014 577.725 121.897C578.253 122.255 579.498 122.193 580.215 121.917C581.59 121.348 583.148 119.103 584.13 117.491C586.04 114.41 588.864 107.546 594.05 103.699C597.98 101.043 601.975 99.8237 603.641 101.982C604.945 103.667 601.898 107.107 600.162 109.383C598.422 111.652 596.568 114.309 595.499 116.729C594.003 120.156 596.056 122.071 598.267 122.129C602.424 122.277 609.265 116.157 612.305 113.345C615.353 110.525 613.585 109.121 612.438 110.146Z" fill="white"/>
<path fill-rule="evenodd" clip-rule="evenodd" d="M573.311 92.3192C573.311 92.3192 574.063 93.0159 575.294 92.3713C575.294 92.3713 578.387 90.9134 582.419 87.0667C582.419 87.0667 586.637 83.6207 581.685 83.3412C581.685 83.3412 579.07 82.7877 576.871 85.6938C576.871 85.6938 573.596 89.4946 572.917 91.5416C572.917 91.5416 572.697 92.052 573.311 92.3192Z" fill="white"/>
<defs>
<clipPath id="clip0_0_14368">
<rect width="200" height="49.8322" fill="white" transform="translate(479.893 202.084)"/>
</clipPath>
</defs>
</svg>
