<?xml version="1.0" encoding="UTF-8"?>
<svg width="375px" height="168px" viewBox="0 0 375 168" version="1.1" xmlns="http://www.w3.org/2000/svg" xmlns:xlink="http://www.w3.org/1999/xlink" style="background: #0D744E;">
    <!-- Generator: Sketch 64 (93537) - https://sketch.com -->
    <title>dondereciclo-auspiciantes</title>
    <desc>Created with Sketch.</desc>
    <defs>
        <polygon id="path-1" points="0 0 94.068 0 94.068 45.864 0 45.864"></polygon>
    </defs>
    <g id="dondereciclo-auspiciantes" stroke="none" stroke-width="1" fill="none" fill-rule="evenodd">
        <rect fill="#0D744E" x="0" y="0" width="375" height="168"></rect>
        <g id="Auspiciantes" transform="translate(27.000000, 27.000000)">
            <g id="CocaCola" transform="translate(227.500000, 3.900000)" fill="#FFFFFF">
                <g id="Group">
                    <path d="M86.780966,0.61202107 C87.4003328,1.01695588 87.1186733,2.43137384 86.2905879,4.14005922 C85.9255673,4.25960536 85.5457059,4.36297948 85.1543191,4.4441567 C85.7084811,3.43213677 86.0753963,2.57914175 86.1881232,1.99028979 C86.5621431,-0.0778267634 81.7583009,4.27672868 78.3291278,8.96883551 C74.8949024,13.6565029 72.8402404,17.9008667 72.8402404,17.9008667 C72.8402404,17.9008667 73.5295484,17.5084572 74.6105589,16.6327897 C75.7349867,15.7228755 77.2839562,14.2894316 78.9709136,12.5450726 C80.102446,11.3680029 81.4340136,9.89412899 82.6784308,8.24489958 C83.0521349,8.22634932 83.4171555,8.18750475 83.7679669,8.12979282 C82.3814568,10.0114554 80.9183745,11.7287025 79.6774307,12.9882178 C78.3172867,14.3809145 76.8302065,15.8753999 75.5382671,16.9660602 C73.4905518,18.6967839 71.9090588,19.6767769 71.9090588,19.6767769 C71.9090588,19.6767769 68.9025328,25.7525431 70.5370738,26.1476479 C71.497937,26.3758003 73.3939287,23.4442245 73.3939287,23.4442245 C73.3939287,23.4442245 75.8625544,19.65458 77.3553184,17.9439921 C79.3888244,15.6193428 81.1400393,14.2775404 82.884939,14.2483673 C83.9086388,14.2317197 84.5114281,15.32238 84.5114281,15.32238 L84.990123,14.5771985 L87.9434431,14.5771985 C87.9434431,14.5771985 82.4341891,23.9764743 81.9949644,24.6853481 C81.5961572,25.3257285 81.1449336,26.5449724 82.4589764,25.7850457 C84.0597308,24.8568984 86.3346367,21.3802302 86.3346367,21.3802302 L87.3665463,21.3802302 C87.3665463,21.3802302 86.008139,23.5390369 84.2382941,25.5099628 C82.6187518,27.3121922 80.6400305,28.9544455 79.2468894,28.7933594 C77.6200846,28.6013563 78.1284611,26.4593558 78.1284611,26.4593558 C78.1284611,26.4593558 75.7919817,28.9463595 74.1885433,28.7719553 C72.0164178,28.5276309 72.6777809,25.8267442 72.6777809,25.8267442 C72.6777809,25.8267442 70.2208383,28.8624869 68.5441432,28.7719553 C65.9181102,28.6159428 66.5752105,25.3951731 67.3084094,23.1444078 C67.6994804,21.9392749 68.0611855,20.9854425 68.0611855,20.9854425 L68.0293024,20.993214 C67.943981,21.0133916 67.6862184,21.0706469 67.2416257,21.1387597 C66.9452833,21.1814094 66.4116459,21.2112167 66.4116459,21.2112167 C66.4116459,21.2112167 65.3227413,23.1491643 64.448239,24.3171967 C63.5746839,25.4858633 59.8576939,29.5006477 57.6647282,28.6998154 C55.6459051,27.9570121 56.3113731,24.8442144 57.4875858,22.3705289 C59.2061194,18.76607 64.0401168,13.5799237 66.826399,14.2608927 C69.717514,14.9629489 66.8968139,20.2670558 66.8968139,20.2670558 C66.8968139,20.2670558 66.8968139,20.2830693 66.9266534,20.2957532 C66.9836484,20.3184258 67.1344246,20.3284144 67.4823941,20.2670558 C68.0390822,20.1592423 68.5395646,19.9453594 68.5395646,19.9453594 L68.5513897,19.9206154 C68.7552118,19.4953455 71.564013,13.6829748 74.6530289,9.83673416 C77.8602215,5.83352387 84.2646602,-1.05544151 86.780966,0.61202107 Z M65.9337404,0.923570367 C65.9337404,0.923570367 67.9931388,-0.0373967019 70.6051205,0.144142202 C73.600279,0.348829297 75.9274435,2.47909716 78.9841756,3.97500944 C78.184351,4.75364486 77.4271542,5.55146474 76.7397407,6.30124419 C74.4702028,5.13400454 72.8171898,3.71054927 71.0887097,2.81902678 C69.4424855,1.97126388 68.3821574,1.62071147 67.050432,1.80003068 C66.8335036,1.82460582 66.5014801,1.93939548 66.5014801,1.93939548 C66.5014801,1.93939548 67.1914196,4.28529034 64.4648165,8.23586227 C61.7074265,12.2303523 59.2039091,12.2159244 58.4928135,11.1068723 C57.7455632,9.9466088 58.7072158,7.58359061 60.3133382,5.47726369 C61.9974538,3.27755124 64.9542473,1.44900262 64.9542473,1.44900262 C64.9542473,1.44900262 64.0115404,0.868870872 61.6903754,2.18895202 C59.4377307,3.47637201 55.5407564,6.53161627 51.9417034,11.6863698 C48.340598,16.8446115 47.6222399,19.6767769 47.1043905,21.9153339 C46.5816468,24.1462806 47.0571841,26.5333983 49.5240732,26.5333983 C51.9945935,26.5333983 54.8580794,22.7592917 55.6670612,21.4403204 C57.1719819,18.9967591 58.151475,15.2451665 56.1037597,15.759976 C55.0942692,16.01746 54.278025,17.1444281 53.7622281,18.220502 C53.2353795,19.3320908 53.022714,20.388346 53.022714,20.388346 C53.022714,20.388346 52.1707886,20.6975171 51.0233102,21.5576468 C49.8797789,22.4163496 49.1304761,23.2408058 49.1304761,23.2408058 C49.1304761,23.2408058 49.1375807,21.4577608 50.5526673,18.5694689 C51.9680695,15.6792744 54.5726308,14.3534855 56.0420283,14.234415 C57.3710697,14.1261259 59.0962343,15.2575334 57.6344151,19.4349893 C56.1778059,23.6145064 51.8583423,28.6803138 47.3217925,28.7459532 C43.1360541,28.8085801 40.3936628,23.4442245 46.2153632,14.0791953 C52.6575354,3.72275757 60.2263458,0.542417945 62.6832884,0.185999206 C65.1354945,-0.166931448 65.9337404,0.923570367 65.9337404,0.923570367 Z M80.7778605,17.634821 C79.1521609,19.4418069 78.1641422,21.0117617 77.3089014,22.5812408 C76.3756674,24.2994392 76.0021212,25.5778219 76.5368638,25.9047504 C76.6873243,25.9940137 76.9138834,26.0112955 77.1028668,25.9683287 C77.4677296,25.8747846 77.878062,25.5345379 78.5054807,24.8029916 C78.800718,24.4627449 79.1262684,23.9812308 79.51655,23.4442245 C80.5888771,21.965277 83.3022183,17.3140758 83.8379081,16.3745129 C83.9005869,16.2689191 83.9274266,16.1726797 83.9274266,16.1726797 C83.9274266,16.1726797 83.8754838,15.7682206 83.4888335,15.753634 C83.0328734,15.7322299 82.4062441,15.816261 80.7778605,17.634821 Z M62.9218464,18.9022638 C62.8918491,18.9434866 62.7705965,19.0467022 61.7194255,20.5993751 C60.6598868,22.1625122 59.0485543,25.3715493 60.5160573,25.9128365 C61.4521331,26.2627547 63.0121543,24.6128911 63.8607641,23.5163644 C64.6531684,22.503076 65.392051,21.2112167 65.4319949,21.1192581 C65.4743069,21.0238114 65.438468,21.0025658 65.3849464,20.9854425 C65.3358454,20.9634042 64.6937438,20.6718321 64.0282758,20.1100921 C63.3681757,19.5616702 63.0314158,18.91907 63.0053654,18.8710296 C62.9769469,18.8239405 62.9467916,18.8570772 62.9218464,18.9022638 Z M64.0115404,17.8845361 C64.0038042,19.3320908 65.4023133,19.9815086 65.7412835,20.0747356 C65.9337404,20.122776 65.9989452,20.1153242 66.093358,19.9623241 C66.1522475,19.85895 66.6041027,19.0750825 66.8791312,18.3563787 C67.1510021,17.6451267 67.4942352,16.2373678 66.7738246,15.6895801 C65.9989452,15.1027893 64.0175399,16.4775699 64.0115404,17.8845361 Z M65.5699828,2.24428571 C65.5699828,2.24428571 63.8149787,2.94665893 61.7764205,5.20329056 C59.7279158,7.47117919 58.5524925,10.0086016 59.4303103,10.6773623 C59.7648599,10.9343707 60.5406867,10.9795572 61.9601939,9.70260148 C63.0650444,8.7019971 64.1855252,7.40125896 64.9495108,5.53529271 C65.8609573,3.29372327 65.5699828,2.27536136 65.5699828,2.24428571 Z" id="Combined-Shape"></path>
                    <path d="M90.2126653,2.81173351 C88.1373208,4.1544872 85.2574153,5.3675476 82.4954468,5.0984895 C81.7949293,5.82765755 81.047679,6.66828573 80.2964817,7.58359061 C85.0925877,8.5401183 89.2873253,5.55622122 91.5166036,3.01087139 C92.9140075,1.42712282 93.6,0.0112779211 93.6,0.0112779211 C93.6,0.0112779211 92.2684325,1.48213941 90.2126653,2.81173351 L90.2126653,2.81173351 Z" id="Path"></path>
                    <path d="M85.6685372,26.7601237 C85.9323562,26.7601237 86.1603362,26.8549362 86.3442674,27.045988 C86.5337245,27.2289539 86.6241903,27.4534596 86.6241903,27.7172856 C86.6241903,27.987295 86.5337245,28.2133862 86.3442674,28.4053894 C86.1603362,28.5921604 85.9323562,28.6861801 85.6685372,28.6861801 C85.3995081,28.6861801 85.1768961,28.5921604 84.9849129,28.4053894 C84.8012974,28.2179842 84.7105159,27.987295 84.7105159,27.7172856 C84.7105159,27.4586917 84.8012974,27.2289539 84.9961224,27.045988 C85.1768961,26.8549362 85.3995081,26.7601237 85.6685372,26.7601237 Z M85.6685372,26.8907683 C85.4418202,26.8907683 85.2495213,26.9719455 85.0850094,27.1350927 C84.9228657,27.2980813 84.8440831,27.4899259 84.8440831,27.7172856 C84.8440831,27.9524141 84.9228657,28.1493323 85.0850094,28.314065 C85.2428903,28.4719801 85.4359786,28.5558526 85.6685372,28.5558526 C85.8957278,28.5558526 86.0897634,28.4719801 86.2501704,28.314065 C86.412472,28.1493323 86.4884127,27.9524141 86.4884127,27.7172856 C86.4884127,27.4899259 86.412472,27.2980813 86.2501704,27.1350927 C86.0853428,26.9719455 85.8957278,26.8907683 85.6685372,26.8907683 Z M85.6484863,27.1902678 C85.7770014,27.1902678 85.8728351,27.2016834 85.9323562,27.2289539 C86.0446095,27.2717622 86.0990784,27.3648306 86.0990784,27.4962679 C86.0990784,27.5909218 86.0649761,27.6617933 85.9958243,27.7012721 C85.9633008,27.7272742 85.9083583,27.7436048 85.8447323,27.7553374 C85.9274619,27.7673872 85.9876145,27.8055975 86.025348,27.858553 C86.0599239,27.9186431 86.0801327,27.9715986 86.0801327,28.0245541 L86.0801327,28.0957427 C86.0801327,28.1244401 86.0829746,28.1493323 86.0829746,28.1802494 C86.0853428,28.2084712 86.0853428,28.2263873 86.0921316,28.230351 L86.0990784,28.2474743 L85.9274619,28.2474743 C85.9274619,28.2449375 85.9274619,28.2400225 85.9255673,28.2400225 C85.9203572,28.230351 85.9203572,28.230351 85.9203572,28.2263873 L85.9160944,28.187067 L85.9160944,28.1058898 C85.9160944,27.9836483 85.8859392,27.9043737 85.8183662,27.8677488 C85.7770014,27.8446006 85.7084811,27.8300141 85.6139104,27.8300141 L85.4645551,27.8300141 L85.4645551,28.2474743 L85.2845708,28.2474743 L85.2845708,27.1902678 L85.6484863,27.1902678 Z M85.6241727,27.3121922 L85.4645551,27.3121922 L85.4645551,27.7012721 L85.6334876,27.7012721 C85.7102177,27.7012721 85.7680022,27.6887467 85.8081039,27.6805022 C85.8728351,27.6432431 85.9160944,27.5909218 85.9160944,27.5164037 C85.9160944,27.437129 85.8906756,27.3819539 85.8455217,27.3578544 C85.8032096,27.332328 85.7236376,27.3121922 85.6241727,27.3121922 Z" id="Combined-Shape"></path>
                    <path d="M90.2126653,2.81173351 C88.1373208,4.1544872 85.2574153,5.3675476 82.4954468,5.0984895 C81.7949293,5.82765755 81.047679,6.66828573 80.2964817,7.58359061 C85.0925877,8.5401183 89.2873253,5.55622122 91.5166036,3.01087139 C92.9140075,1.42712282 93.6,0.0112779211 93.6,0.0112779211 C93.6,0.0112779211 92.2684325,1.48213941 90.2126653,2.81173351 L90.2126653,2.81173351 Z" id="Path"></path>
                    <polygon id="Path" points="48.7532986 7.44279887 45.9447553 7.44279887 44.3599468 10.0204928 47.1691217 10.0204928"></polygon>
                    <path d="M20.4424113,7.1570931 C23.3251587,7.89529846 20.9389467,12.5872467 20.9389467,12.5872467 C20.9389467,12.5872467 21.513949,12.6625576 22.8911441,11.7206165 C24.8673393,10.3685084 27.4756896,6.72092409 30.3009684,7.14567756 C31.6303256,7.34386413 32.8646384,8.71785203 31.1767337,11.3080713 C30.6350444,12.147114 29.7280186,12.8915028 29.031448,12.1564684 C28.5969598,11.7009564 28.9739794,10.864609 29.4289922,10.2898679 C30.069515,9.4747662 30.9550689,9.5922512 30.9550689,9.5922512 C30.9550689,9.5922512 31.4201861,8.51332348 30.2367108,8.53282504 C29.2736373,8.5520095 26.8406927,10.7996038 25.468234,13.0812862 C24.2061341,15.1715997 22.2995643,18.7254814 24.2179751,19.5012629 C25.9747159,20.2141004 29.3153179,16.2191346 30.8664978,14.1321507 C32.4159409,12.044057 35.937948,7.308032 38.900741,7.11143092 C39.9212832,7.04705992 40.5297562,7.97932957 40.5297562,7.97932957 L40.8707789,7.43360301 L43.8252042,7.43360301 C43.8252042,7.43360301 38.2526399,16.7845213 37.8159414,17.4911754 C37.4708137,18.0445123 37.0189586,19.2881727 38.2815321,18.5892875 C39.5415796,17.8937319 42.164455,14.4976068 42.164455,14.4976068 L43.1955752,14.4976068 C43.1955752,14.4976068 38.0402901,21.9819246 35.1269139,21.6484955 C33.5012142,21.4577608 33.9833825,19.4370504 33.9833825,19.4370504 C33.9833825,19.4370504 31.694741,22.1290583 29.6039242,21.5914178 C27.7024066,21.1000736 28.9310358,17.9206853 28.9310358,17.9206853 C28.7118971,18.0110584 24.5949947,22.676846 21.7071952,21.5576468 C18.6788816,20.3837481 20.2444286,16.4797896 20.821957,15.3082691 C21.3109141,14.3206658 21.849288,13.3568448 21.849288,13.3568448 C21.849288,13.3568448 21.3827499,13.4890749 21.0935121,13.5586781 C20.8066425,13.6228905 20.3708912,13.7048605 20.3708912,13.7048605 C20.3708912,13.7048605 18.9387536,16.0459989 18.0631461,17.2103846 C17.1851704,18.3780999 13.469175,22.391933 11.2782618,21.5914178 C9.09003248,20.7940736 9.62714331,17.7140956 10.8612983,15.2673634 C12.8558077,11.2985583 17.5902928,6.42380277 20.4424113,7.1570931 Z M36.7827687,10.5700245 C35.269954,12.465798 34.0991092,13.9854927 33.2459208,15.5554474 C32.3079504,17.267938 31.9003019,18.4830595 32.4374127,18.8122078 C32.5905572,18.9054348 32.8185372,18.9144721 33.0049946,18.8710296 C33.3529641,18.7812907 33.8114502,18.4285186 34.4417107,17.6998262 C34.7378953,17.3583111 35.0689716,16.9047017 35.4579901,16.3670611 C36.6563061,14.7257592 39.9476493,8.9597982 39.9476493,8.9597982 C39.9476493,8.9597982 39.892391,8.55407064 39.5093719,8.5401183 C39.0523067,8.51617737 38.2981096,8.6691774 36.7827687,10.5700245 Z M16.5190709,11.6747957 C16.4931784,11.7123719 16.3378236,11.9119854 15.2854369,13.4671951 C14.2257403,15.0296981 12.6639824,18.2095621 14.1305381,18.7567156 C15.0685086,19.1064752 16.6420601,17.4528064 17.4928803,16.3575482 C18.2830742,15.3390277 19.2253074,13.7792201 19.2680931,13.6852004 C19.3061424,13.5914978 19.2712508,13.5707278 19.2210446,13.5531288 C19.1681545,13.5372739 18.4223252,13.3189516 17.6957573,12.8518654 C16.9650844,12.3866819 16.6314821,11.6911263 16.6071684,11.6437201 C16.5782762,11.5974237 16.5526995,11.632146 16.5190709,11.6747957 Z M17.6286579,10.7799437 C17.6139749,12.2235347 19.4090808,12.6333846 19.6427445,12.6449587 C19.6427445,12.6449587 19.8460951,12.697597 19.9248777,12.5300105 C19.9772942,12.4248923 20.2202729,11.9674777 20.4924595,11.2568599 C20.7640147,10.5367291 21.1130894,9.13705627 20.3874687,8.58546339 C19.6141681,7.99867258 17.6362362,9.37139208 17.6286579,10.7799437 Z" id="Combined-Shape"></path>
                    <path d="M40.5580168,29.484 C38.3194236,27.9043737 35.593294,27.2016834 33.1148797,27.3001425 C30.6112043,27.4036751 29.4899342,29.27963 29.4899342,29.27963 C28.3535075,27.3001425 26.1185454,26.0856551 22.6688477,26.114194 C17.0874421,26.1828458 11.5566058,28.7719553 7.17114802,28.7719553 C2.96884787,28.7719553 -0.095304649,26.114194 0.00226574764,21.4048053 C0.178776595,13.1440717 7.13199355,5.70018395 12.3269067,2.34940387 C15.3092769,0.419700817 17.8141679,-0.149966677 19.4474458,0.0320478743 C20.6432358,0.16586345 22.079952,1.55190109 21.1726105,3.58561246 C19.8460951,6.57727846 18.0055196,6.32566078 18.0729347,4.89982728 C18.1105104,3.97500944 18.7265617,3.38948702 19.1869424,3.07080301 C19.4831269,2.86722575 19.9984502,2.80539154 20.2703211,2.80237911 C20.5335086,2.57660496 20.7335437,0.942913377 18.5953626,1.48642024 C16.4548134,2.02406079 13.8793496,4.13276595 11.423828,6.85458111 C8.96846419,9.57211544 5.15028828,14.73004 4.20458168,20.1370454 C3.7663043,22.6533807 4.06154159,27.2202337 9.97779679,27.1691808 C14.9943045,27.1252626 22.4002923,23.8055582 29.2033803,23.8620018 C31.8423596,23.8848329 34.1458419,24.6014755 35.9355798,25.7116374 C37.6967413,26.8111766 39.8136084,28.3954008 40.5580168,29.484 L40.5580168,29.484 Z" id="Path"></path>
                </g>
                <g id="Group-8" transform="translate(15.444000, 35.100000)">
                    <path d="M0,6.98580232 L0,1.04442735 C0,0.462277161 0.415686194,-2.24439822e-15 0.95472,-2.24439822e-15 C1.47811819,-2.24439822e-15 1.89380439,0.462277161 1.89380439,1.04442735 L1.89380439,6.90035923 C1.89380439,9.12630194 2.9255969,10.3076594 4.6196129,10.3076594 C6.29815123,10.3076594 7.32978581,9.194688 7.32978581,6.98580232 L7.32978581,1.04442735 C7.32978581,0.462277161 7.74562994,-2.24439822e-15 8.28466374,-2.24439822e-15 C8.80806194,-2.24439822e-15 9.22374813,0.462277161 9.22374813,1.04442735 L9.22374813,6.88314426 C9.22374813,10.4616465 7.40670039,12.2597419 4.58881548,12.2597419 C1.78625032,12.2597419 0,10.4616465 0,6.98580232" id="Fill-1"></path>
                    <path d="M11.6108798,3.9723775 C11.6108798,3.3902273 12.0112462,2.92795014 12.5348024,2.92795014 C13.0582006,2.92795014 13.4740447,3.3902273 13.4740447,3.9723775 L13.4740447,4.89693182 C13.9052086,3.76690343 14.7060994,2.91057724 15.5221521,2.91057724 C16.1075241,2.91057724 16.4459799,3.33874034 16.4459799,3.9381055 C16.4459799,4.48598369 16.1228439,4.84560279 15.7070945,4.93104588 C14.3826475,5.18800692 13.4740447,6.3180353 13.4740447,8.45837698 L13.4740447,11.1293819 C13.4740447,11.694633 13.0582006,12.1569101 12.5348024,12.1569101 C12.026566,12.1569101 11.6108798,11.7118479 11.6108798,11.1293819 L11.6108798,3.9723775 Z" id="Fill-2"></path>
                    <path d="M25.1930787,11.1294451 C25.1930787,11.6945382 24.7769187,12.1569733 24.2535205,12.1569733 C23.7452841,12.1569733 23.3142782,11.7119111 23.3142782,11.1294451 L23.3142782,10.6673258 C22.7905641,11.5233362 22.0362643,12.2596314 20.7734121,12.2596314 C18.9408867,12.2596314 17.8782968,10.889699 17.8782968,8.78378725 L17.8782968,3.97244067 C17.8782968,3.39029048 18.2942988,2.92785538 18.8023773,2.92785538 C19.3260914,2.92785538 19.7416196,3.39029048 19.7416196,3.97244067 L19.7416196,8.16752299 C19.7416196,9.57141151 20.3728877,10.3591937 21.4819107,10.3591937 C22.5596625,10.3591937 23.3142782,9.53713951 23.3142782,8.13293512 L23.3142782,3.97244067 C23.3142782,3.39029048 23.7299644,2.92785538 24.2535205,2.92785538 C24.7617569,2.92785538 25.1930787,3.39029048 25.1930787,3.97244067 L25.1930787,11.1294451 Z" id="Fill-3"></path>
                    <path d="M33.6780046,7.10578591 L33.6780046,7.07151391 C33.6780046,5.59892346 32.5847752,4.58861017 31.2912836,4.58861017 C29.9976341,4.58861017 28.9813192,5.58202436 28.9813192,7.07151391 L28.9813192,7.10578591 C28.9813192,8.57837636 30.0131117,9.58868965 31.2912836,9.58868965 C32.5847752,9.58868965 33.6780046,8.57837636 33.6780046,7.10578591 M27.9956439,14.0404171 C27.6725079,13.9034871 27.4722457,13.612254 27.4722457,13.2183629 C27.4722457,12.7562437 27.826495,12.3623526 28.2576588,12.3623526 C28.3961683,12.3623526 28.5038803,12.3966246 28.5962725,12.4481116 C29.3355685,12.9102308 30.1516212,13.1671918 31.0908635,13.1671918 C32.7539241,13.1671918 33.662527,12.2085235 33.662527,10.3933709 L33.662527,9.69134772 C32.9851417,10.667389 32.1381337,11.3521973 30.7985249,11.3521973 C28.8890849,11.3521973 27.1026766,9.77679081 27.1026766,7.12268501 L27.1026766,7.08857094 C27.1026766,4.41756604 28.9042467,2.84247546 30.7985249,2.84247546 C32.1689311,2.84247546 33.016097,3.54449868 33.6472072,4.38329404 L33.6472072,3.95513094 C33.6472072,3.39035365 34.0630514,2.92791855 34.5711298,2.92791855 C35.0946859,2.92791855 35.5105301,3.39035365 35.5105301,3.97234591 L35.5105301,10.2221689 C35.5105301,11.7460884 35.1562808,12.8759588 34.4787375,13.6293111 C33.7397574,14.4513653 32.6002529,14.8452564 31.1371386,14.8452564 C29.9976341,14.8452564 28.9813192,14.5710804 27.9956439,14.0404171" id="Fill-4"></path>
                    <path d="M45.0735236,11.1294451 C45.0735236,11.6945382 44.6575215,12.1569733 44.1341234,12.1569733 C43.625887,12.1569733 43.1947231,11.7119111 43.1947231,11.1294451 L43.1947231,10.6673258 C42.671009,11.5233362 41.9167092,12.2596314 40.653857,12.2596314 C38.8213316,12.2596314 37.7588996,10.889699 37.7588996,8.78378725 L37.7588996,3.97244067 C37.7588996,3.39029048 38.1745858,2.92785538 38.6826643,2.92785538 C39.2063783,2.92785538 39.6220645,3.39029048 39.6220645,3.97244067 L39.6220645,8.16752299 C39.6220645,9.57141151 40.2533326,10.3591937 41.3623556,10.3591937 C42.4401074,10.3591937 43.1947231,9.53713951 43.1947231,8.13293512 L43.1947231,3.97244067 C43.1947231,3.39029048 43.6102514,2.92785538 44.1341234,2.92785538 C44.6422018,2.92785538 45.0735236,3.39029048 45.0735236,3.97244067 L45.0735236,11.1294451 Z" id="Fill-5"></path>
                    <path d="M52.4342648,8.81779076 L52.4342648,8.2015265 C51.9569837,7.99636831 51.3253997,7.84206534 50.5864196,7.84206534 C49.3851623,7.84206534 48.6768217,8.4071585 48.6768217,9.34861192 L48.6768217,9.38319979 C48.6768217,10.2564251 49.3698426,10.7528163 50.2629677,10.7528163 C51.4951804,10.7528163 52.4342648,9.96534999 52.4342648,8.81779076 M46.8597739,9.46864289 L46.8597739,9.43437089 C46.8597739,7.48244625 48.2303381,6.52377786 50.2168506,6.52377786 C51.1254534,6.52377786 51.7721992,6.67760702 52.4036253,6.90029605 L52.4036253,6.67760702 C52.4036253,5.3934336 51.6951267,4.70862534 50.3861574,4.70862534 C49.6779747,4.70862534 49.0928237,4.84571334 48.5844294,5.06840237 C48.4765595,5.1023585 48.3843252,5.11957347 48.2919329,5.11957347 C47.860769,5.11957347 47.5065197,4.74289734 47.5065197,4.26324728 C47.5065197,3.88688702 47.7377373,3.56153992 48.0147561,3.44150895 C48.7848495,3.11600392 49.5701048,2.91068779 50.6326947,2.91068779 C51.8491138,2.91068779 52.7575587,3.27030689 53.3273899,3.92084315 C53.9280186,4.57169528 54.2050374,5.53083747 54.2050374,6.71187902 L54.2050374,11.1639224 C54.2050374,11.7288576 53.804671,12.1570207 53.2967505,12.1570207 C52.7575587,12.1570207 52.3879897,11.7460726 52.3879897,11.2836375 L52.3879897,10.9412333 C51.8334782,11.6775286 50.9867861,12.2596788 49.7395695,12.2596788 C48.2150183,12.2596788 46.8597739,11.2836375 46.8597739,9.46864289" id="Fill-6"></path>
                    <path d="M56.4200826,14.6055577 C56.1427479,14.5028996 55.8347737,14.2459386 55.8347737,13.7492315 C55.8347737,13.2356253 56.189023,12.8932212 56.5893894,12.8932212 C56.7433765,12.8932212 56.8359267,12.9274932 56.928161,12.9617652 C57.143743,13.0301512 57.3128919,13.0817961 57.5749068,13.0817961 C58.1292604,13.0817961 58.4219148,12.8248351 58.729889,12.1226539 L58.7914839,11.9342369 L55.7731788,4.43482839 C55.711584,4.28052542 55.6654668,4.07505135 55.6654668,3.93812129 C55.6654668,3.3559711 56.0658333,2.92796594 56.5893894,2.92796594 C57.0666705,2.92796594 57.3285275,3.23609806 57.4978343,3.71543226 L59.684609,9.7256671 L61.7172387,3.71543226 C61.8713837,3.28758503 62.1330828,2.92796594 62.6103639,2.92796594 C63.1031226,2.92796594 63.503647,3.3559711 63.503647,3.90384929 C63.503647,4.07505135 63.4575298,4.29774039 63.4264165,4.40024052 L60.4543866,12.328128 C59.7616815,14.1773946 59.0223855,14.8622028 57.7132583,14.8622028 C57.1898601,14.8622028 56.8049714,14.7767597 56.4200826,14.6055577" id="Fill-7"></path>
                </g>
            </g>
            <g id="SCJohnson" transform="translate(113.100000, 83.200000)" fill="#FFFFFF">
                <path d="M77.60376,10.01156 L77.60376,16.31396 C77.60376,16.87712 78.06084,17.32744 78.63128,17.32744 C79.20224,17.32744 79.56624,16.87712 79.56624,16.31396 L79.56624,10.01156 C79.56624,9.48584 79.20224,8.99808 78.63128,8.99808 C78.06084,8.99808 77.60376,9.48584 77.60376,10.01156 Z M78.63128,18.98988 C78.63128,18.98988 74.0272,19.28992 73.9128,16.02432 L73.9128,10.4312 C74.0272,7.1656 78.63128,7.46616 78.63128,7.46616 C78.63128,7.46616 83.23588,7.1656 83.3118,10.4312 L83.3118,16.02432 C83.23588,19.28992 78.63128,18.98988 78.63128,18.98988 Z" id="Fill-1"></path>
                <path d="M35.532432,10.01156 L35.532432,16.31396 C35.532432,16.87712 35.988992,17.32744 36.559432,17.32744 C37.130392,17.32744 37.494912,16.87712 37.494912,16.31396 L37.494912,10.01156 C37.494912,9.48584 37.130392,8.99808 36.559432,8.99808 C35.988992,8.99808 35.532432,9.48584 35.532432,10.01156 Z M36.559432,18.98988 C36.559432,18.98988 31.955352,19.28992 31.840952,16.02432 L31.840952,10.4312 C31.955352,7.1656 36.559432,7.46616 36.559432,7.46616 C36.559432,7.46616 41.164032,7.1656 41.240472,10.4312 L41.240472,16.02432 C41.164032,19.28992 36.559432,18.98988 36.559432,18.98988 Z" id="Fill-2"></path>
                <path d="M91.96564,18.92124 L93.600014,18.92124 L93.600014,10.2206 C93.60052,9.78484 93.60052,7.51816 90.84972,7.51816 L84.96228,7.51816 L84.96228,18.92124 L88.19408,18.92124 L88.19408,10.20292 C88.19408,9.64028 88.6054,9.19048 89.16856,9.19048 C89.73172,9.19048 90.1628,9.64028 90.1628,10.20292 L90.1628,17.3082 C90.1628,17.3082 89.93712,19.10896 91.96564,18.92124 Z" id="Fill-3"></path>
                <path d="M60.4448,18.92124 L62.079694,18.92124 L62.079694,10.2206 C62.0802,9.78484 62.0802,7.51816 59.3294,7.51816 L53.44196,7.51816 L53.44196,18.92124 L56.67376,18.92124 L56.67376,10.20292 C56.67376,9.64028 57.08456,9.19048 57.64824,9.19048 C58.2114,9.19048 58.64196,9.64028 58.64196,10.20292 L58.64196,17.3082 C58.64196,17.3082 58.4168,19.10896 60.4448,18.92124 Z" id="Fill-4"></path>
                <path d="M42.772912,0 L46.421752,0 L46.421752,7.51816 L48.995232,7.51816 C51.746552,7.51816 51.746552,9.78432 51.746032,10.2206 L51.746032,18.92124 L50.111152,18.92124 C48.083152,19.10896 48.308312,17.3082 48.308312,17.3082 L48.308312,10.20292 C48.308312,9.64028 47.877752,9.19048 47.314592,9.19048 C46.750912,9.19048 46.340112,9.64028 46.340112,10.20292 L46.340112,18.92124 L42.772912,18.92124 L42.772912,0 Z" id="Fill-5"></path>
                <path d="M25.434552,0 L25.434552,21.83376 C25.434552,22.84724 25.022712,24.30688 23.919792,25.68176 C22.459112,27.5028 19.840392,29.14912 15.898272,29.14912 C14.522872,29.2058 11.467872,28.8158 9.042072,27.30468 C7.378592,26.26884 6.595472,25.34584 6.110312,23.52896 C5.739552,22.1416 5.526872,20.5348 3.839472,20.5348 L0.013312,20.5348 C0.001872,21.01944 -0.003848,21.6164 0.002912,22.21544 C0.078832,25.7062 3.487952,30.77724 16.026192,30.77724 C21.249072,30.77724 30.184752,29.14912 30.1816328,21.32572 L30.1816328,0 L25.434552,0 Z" id="Fill-6"></path>
                <path d="M70.97688,12.72076 C70.30088,12.30788 68.32956,12.31256 68.12,12.3136 C67.20324,12.3136 67.02176,11.66932 67.0176,11.375 L67.0176,10.28144 C67.0176,9.18944 67.60156,9.087 67.97856,9.09584 C68.87296,9.09584 68.93432,9.39536 68.96968,10.22528 C68.96968,11.1332 69.72056,11.40724 70.34196,11.40724 L72.39024,11.42336 C72.39024,10.17848 72.19368,9.45152 71.708,8.83376 C70.96908,7.89204 69.7788,7.4776 67.88964,7.4776 C66.46484,7.4776 65.4654,7.70432 64.77952,8.13644 C64.04528,8.59924 63.67504,9.29136 63.67504,9.97048 L63.67504,11.63552 C63.65736,12.51952 64.31724,13.33956 65.08788,13.71344 C65.76388,14.12684 67.7352,14.12216 67.94528,14.12112 C68.86152,14.12112 68.9208,14.7654 68.92496,15.05972 L68.92496,16.06228 C68.92496,17.15428 68.341,17.30716 67.964,17.29832 C67.16996,17.29832 67.01032,16.8272 66.97236,15.94736 C66.97236,14.95832 66.36292,14.71444 65.74204,14.71444 L63.622,14.69832 C63.57156,16.29628 63.79932,16.98268 64.285,17.60096 C65.02392,18.54268 66.22408,18.99768 68.11376,18.99768 C69.53804,18.99768 70.447,18.79124 71.13236,18.35912 C71.8666,17.89632 72.26752,17.14336 72.26752,16.46372 L72.26752,14.7992 C72.28624,13.84812 71.8094,13.1248 70.97688,12.72076 Z" id="Fill-7"></path>
                <path d="M9.228752,11.19144 C8.382192,10.67508 5.913752,10.6808 5.651152,10.68184 C4.503512,10.68184 4.275752,9.87636 4.271072,9.50872 L4.271072,8.14164 C4.271072,6.7756 5.001672,6.64716 5.473832,6.6586 C6.594432,6.6586 6.670872,7.033 6.715592,8.07092 C6.715592,9.2066 7.655752,9.54876 8.433152,9.54876 L10.998312,9.56904 C10.998312,8.01268 10.752352,7.10372 10.144472,6.331 C9.218872,5.15372 7.728552,4.63528 5.362552,4.63528 C3.578952,4.63528 2.327312,4.91868 1.468792,5.45896 C0.548912,6.03772 0.085072,6.903 0.085072,7.75216 L0.085072,9.83424 C0.063232,10.93924 0.890552,11.96572 1.854632,12.43268 C2.700672,12.94904 5.169112,12.94332 5.431712,12.94228 C6.579872,12.94228 6.654232,13.74776 6.658912,14.1154 L6.658912,15.36912 C6.658912,16.73464 5.927792,16.926 5.455632,16.91456 C4.461912,16.91456 4.261712,16.32592 4.214392,15.2256 C4.214392,13.98852 3.451032,13.6838 2.673112,13.6838 L0.018512,13.66404 C-0.044408,15.66188 0.241072,16.51988 0.848952,17.29312 C1.774552,18.4704 3.276832,19.03928 5.643352,19.03928 C7.426952,19.03928 8.564712,18.78084 9.423232,18.24056 C10.343112,17.6618 10.844392,16.72112 10.844392,15.87144 L10.844392,13.78988 C10.868312,12.5996 10.270312,11.69636 9.228752,11.19144 Z" id="Fill-8"></path>
                <path d="M16.873272,8.14164 C16.873272,6.91808 17.488432,6.67836 18.020392,6.69032 C18.763472,6.69032 19.160232,7.033 19.207552,8.07092 C19.207552,9.2066 20.202832,9.42292 21.025472,9.42292 L23.851152,9.44268 C23.851152,7.88632 23.732592,7.072 23.089352,6.29928 C22.110192,5.122 20.500272,4.60876 17.995952,4.60876 C16.108352,4.60876 14.848392,4.88696 13.939432,5.42724 C12.966512,6.006 12.301432,7.0928 12.301432,8.1952 L12.301432,15.3894 C12.301432,16.49128 12.982112,17.49956 13.955552,18.0778 C14.863992,18.61808 16.108352,18.9124 17.995952,18.9124 C20.500272,18.9124 22.110192,18.39916 23.089352,17.22188 C23.732592,16.44864 23.898472,15.33428 23.851152,13.65156 L20.867392,13.67132 C20.218952,13.67132 19.207552,13.98228 19.207552,15.11848 C19.207552,16.45644 18.763472,16.83084 18.020392,16.83084 C17.488432,16.8428 16.873272,16.60308 16.873272,15.37952 L16.873272,8.14164 Z" id="Fill-9"></path>
                <path d="M34.727992,25.20492 L34.422232,24.38696 L32.865352,24.38696 L32.560112,25.20492 L31.796752,25.20492 L33.239752,21.64292 L34.111792,21.64292 L35.580272,25.20492 L34.727992,25.20492 Z M33.648992,22.19464 L33.052552,23.86488 L34.220472,23.86488 L33.648992,22.19464 Z M38.458472,22.1208 C38.415832,22.11716 38.374752,22.11508 38.335752,22.113 C38.296232,22.11144 38.258272,22.11092 38.222392,22.11092 C38.136592,22.11092 38.069512,22.1208 38.020112,22.14056 C37.970712,22.16032 37.933792,22.18684 37.909352,22.22168 C37.884392,22.256 37.869312,22.29812 37.862552,22.34752 C37.855792,22.3964 37.852672,22.45256 37.852672,22.51496 L37.852672,22.71672 L38.424152,22.71672 L38.424152,23.18992 L37.852672,23.18992 L37.852672,25.20492 L37.133512,25.20492 L37.133512,23.18992 L36.650432,23.18992 L36.650432,22.71672 L37.133512,22.71672 L37.133512,22.50976 C37.133512,22.2274 37.199032,22.009 37.330592,21.85456 C37.461632,21.70012 37.680032,21.62316 37.985792,21.62316 C38.061192,21.62316 38.139192,21.62524 38.219792,21.63044 C38.300392,21.63512 38.379952,21.64084 38.458472,21.6476 L38.458472,22.1208 Z M40.179152,25.20492 C40.159392,25.14876 40.145872,25.09312 40.137552,25.03748 C40.129232,24.98132 40.123512,24.92412 40.120392,24.86484 C40.018472,25.01252 39.905112,25.11444 39.780312,25.17008 C39.655512,25.22624 39.504192,25.2538 39.326872,25.2538 C39.205712,25.2538 39.092352,25.23924 38.986792,25.2096 C38.881752,25.17996 38.789712,25.1342 38.711192,25.0718 C38.632152,25.0094 38.570792,24.93036 38.526592,24.8352 C38.481872,24.74004 38.460032,24.62668 38.460032,24.49512 C38.460032,24.30116 38.508912,24.1488 38.607712,24.037 C38.705992,23.9252 38.828712,23.84096 38.974832,23.78324 C39.120952,23.72604 39.278512,23.68964 39.447512,23.67508 C39.617032,23.66 39.773552,23.65272 39.918112,23.65272 L40.120392,23.65272 L40.120392,23.55912 C40.120392,23.4936 40.116232,23.42964 40.107912,23.36724 C40.099592,23.30484 40.081392,23.24972 40.053832,23.20188 C40.025752,23.15456 39.987272,23.11608 39.937872,23.08644 C39.888472,23.0568 39.824512,23.04172 39.745472,23.04172 C39.607672,23.04172 39.509392,23.07812 39.450112,23.1504 C39.390832,23.22268 39.361192,23.31628 39.361192,23.4312 L38.627472,23.4312 C38.630592,23.27988 38.665432,23.15352 38.730952,23.0516 C38.796472,22.94968 38.882792,22.8696 38.989392,22.81032 C39.096512,22.75104 39.214552,22.70944 39.344032,22.68448 C39.474032,22.66004 39.604552,22.64756 39.736112,22.64756 C39.903552,22.64756 40.053832,22.66004 40.186952,22.68448 C40.319552,22.70944 40.432912,22.75624 40.526512,22.8254 C40.620112,22.89404 40.692392,22.9918 40.743352,23.11816 C40.794312,23.24452 40.819792,23.40988 40.819792,23.6132 L40.819792,24.35264 C40.819792,24.49356 40.821352,24.63396 40.824472,24.77332 C40.828112,24.9132 40.839552,25.05672 40.859312,25.20492 L40.179152,25.20492 Z M40.120392,24.00268 C40.083992,24.00268 40.052792,24.00164 40.026272,24.00008 C40.000272,23.99852 39.969072,23.99748 39.932672,23.99748 C39.857272,23.99748 39.774592,24.0032 39.684112,24.01464 C39.593632,24.0266 39.510952,24.04844 39.435552,24.08172 C39.359632,24.11396 39.296712,24.16024 39.245752,24.21952 C39.194792,24.27828 39.169312,24.35732 39.169312,24.45612 C39.169312,24.57104 39.209872,24.661 39.289952,24.72704 C39.370552,24.79256 39.464672,24.82532 39.573352,24.82532 C39.688272,24.82532 39.781872,24.80244 39.854152,24.75668 C39.926432,24.7104 39.982072,24.6506 40.021592,24.57676 C40.061112,24.5024 40.087632,24.41972 40.100632,24.32768 C40.113632,24.23564 40.120392,24.14204 40.120392,24.04688 L40.120392,24.00268 Z M44.742672,25.20492 L44.742672,23.82016 C44.742672,23.73488 44.737992,23.65272 44.728112,23.5742 C44.718232,23.49516 44.697432,23.42548 44.666232,23.36464 C44.635032,23.3038 44.588232,23.25544 44.525832,23.21956 C44.463432,23.18316 44.379712,23.16496 44.274672,23.16496 C44.169632,23.16496 44.084352,23.1842 44.018312,23.22164 C43.952792,23.2596 43.901832,23.31056 43.865952,23.37452 C43.829552,23.43848 43.805112,23.51076 43.792112,23.59136 C43.778592,23.67144 43.772352,23.7562 43.772352,23.84512 L43.772352,25.20492 L43.052672,25.20492 L43.052672,23.82536 C43.052672,23.7432 43.047992,23.6626 43.038112,23.58408 C43.028232,23.50504 43.006912,23.43432 42.974152,23.37192 C42.941392,23.30952 42.894592,23.2596 42.833752,23.22164 C42.772912,23.1842 42.693352,23.16496 42.594552,23.16496 C42.496272,23.16496 42.414112,23.1842 42.348592,23.22164 C42.282552,23.2596 42.230032,23.309 42.190512,23.36932 C42.151512,23.43016 42.123432,23.50088 42.106792,23.58148 C42.090672,23.66208 42.082352,23.74476 42.082352,23.83004 L42.082352,25.20492 L41.363192,25.20492 L41.363192,23.54924 C41.363192,23.41144 41.361632,23.27416 41.357992,23.13792 C41.354872,23.00168 41.349672,22.86284 41.343432,22.72192 L42.048032,22.72192 L42.067792,23.11088 C42.162952,22.95644 42.280992,22.84672 42.422432,22.78068 C42.563352,22.71516 42.722992,22.6824 42.900312,22.6824 C43.080752,22.6824 43.239352,22.71828 43.375592,22.79056 C43.511832,22.86284 43.614272,22.98608 43.683432,23.16028 C43.778592,22.99284 43.903392,22.87116 44.057832,22.79576 C44.212272,22.71984 44.382832,22.6824 44.570032,22.6824 C44.728112,22.6824 44.863312,22.70632 44.976672,22.75364 C45.090032,22.80148 45.182592,22.86752 45.254872,22.95332 C45.327152,23.0386 45.379672,23.14104 45.412952,23.26116 C45.445712,23.38128 45.461832,23.51492 45.461832,23.6626 L45.461832,25.20492 L44.742672,25.20492 Z M46.005232,22.2144 L46.005232,21.64292 L46.754032,21.64292 L46.754032,22.2144 L46.005232,22.2144 Z M46.019792,25.20492 L46.019792,22.71672 L46.739472,22.71672 L46.739472,25.20492 L46.019792,25.20492 Z M47.311992,25.20492 L47.311992,21.64292 L48.031672,21.64292 L48.031672,25.20492 L47.311992,25.20492 Z M49.673312,26.14092 L48.988472,26.14092 L49.382632,25.21948 L48.259432,22.72192 L49.067512,22.72192 L49.732592,24.57884 L50.372712,22.72192 L51.082512,22.72192 L49.673312,26.14092 Z M54.93176,24.31312 C54.93176,24.48056 54.89692,24.62408 54.82828,24.7442 C54.75912,24.8638 54.66812,24.9626 54.55476,25.03956 C54.4414,25.11704 54.31348,25.1732 54.17048,25.2096 C54.02748,25.246 53.8824,25.26368 53.7342,25.26368 C53.32392,25.26368 53.0062,25.15292 52.78104,24.9314 C52.5564,24.70936 52.44356,24.3932 52.44356,23.98292 C52.44356,23.77908 52.4732,23.59552 52.53248,23.4312 C52.59124,23.26688 52.67756,23.12648 52.79092,23.01 C52.90428,22.89352 53.04208,22.80356 53.20484,22.74168 C53.36708,22.67876 53.5522,22.64756 53.75916,22.64756 C53.9136,22.64756 54.05712,22.66472 54.19024,22.69956 C54.32336,22.73388 54.44036,22.78796 54.54228,22.8618 C54.6442,22.93616 54.72688,23.03184 54.79136,23.1504 C54.85532,23.26844 54.89536,23.40988 54.912,23.5742 L54.19752,23.5742 C54.19076,23.42964 54.15332,23.31056 54.08416,23.21696 C54.01552,23.12336 53.90528,23.07656 53.75396,23.07656 C53.63592,23.07656 53.53972,23.1036 53.46588,23.15768 C53.39204,23.21176 53.33432,23.28248 53.29324,23.36776 C53.25268,23.45304 53.22512,23.54872 53.21212,23.6522 C53.19912,23.75568 53.19236,23.85552 53.19236,23.95068 C53.19236,24.04272 53.19912,24.14152 53.21212,24.245 C53.22512,24.34848 53.25164,24.44416 53.29116,24.53152 C53.33068,24.61836 53.38528,24.69116 53.456,24.74888 C53.52672,24.8066 53.62136,24.8352 53.7394,24.8352 C53.90684,24.8352 54.02332,24.7832 54.08936,24.68076 C54.15488,24.57832 54.19076,24.4478 54.19752,24.28816 L54.93176,24.28816 L54.93176,24.31312 Z M57.80008,23.95328 C57.80008,24.16024 57.76836,24.34484 57.7044,24.5076 C57.63992,24.67036 57.54892,24.80712 57.43088,24.91892 C57.31232,25.03072 57.16932,25.116 57.00188,25.17528 C56.83444,25.23456 56.6488,25.26368 56.44548,25.26368 C56.23852,25.26368 56.05184,25.23508 55.88648,25.17736 C55.72008,25.12016 55.57916,25.0354 55.46268,24.92412 C55.34568,24.81232 55.25624,24.67504 55.19384,24.51228 C55.13144,24.35004 55.10024,24.16336 55.10024,23.95328 C55.10024,23.74632 55.133,23.56224 55.19904,23.40156 C55.26456,23.24036 55.35816,23.10412 55.47984,22.99284 C55.60152,22.88104 55.74504,22.79628 55.91092,22.73908 C56.0768,22.68136 56.2614,22.65276 56.46524,22.65276 C56.66856,22.65276 56.85264,22.68136 57.01696,22.73908 C57.18076,22.79628 57.32168,22.88104 57.43816,22.99284 C57.55464,23.10412 57.64408,23.24036 57.70648,23.40156 C57.76888,23.56224 57.80008,23.74632 57.80008,23.95328 Z M57.05128,23.95588 C57.05128,23.85708 57.04244,23.75568 57.02424,23.6522 C57.00604,23.54872 56.97432,23.45408 56.92804,23.37036 C56.88228,23.28664 56.81988,23.21696 56.74084,23.16236 C56.66232,23.10828 56.56352,23.08124 56.44548,23.08124 C56.3238,23.08124 56.22448,23.10828 56.14752,23.16236 C56.07004,23.21696 56.0092,23.28664 55.965,23.37036 C55.9208,23.45408 55.89012,23.54872 55.874,23.6522 C55.85736,23.75568 55.84904,23.85708 55.84904,23.95588 C55.84904,24.05416 55.85736,24.15608 55.874,24.25956 C55.89012,24.36304 55.9208,24.4582 55.965,24.54348 C56.0092,24.62928 56.07004,24.69948 56.14752,24.75408 C56.22448,24.80816 56.3238,24.8352 56.44548,24.8352 C56.56352,24.8352 56.66232,24.80816 56.74084,24.75408 C56.81988,24.69948 56.88228,24.62928 56.92804,24.54348 C56.97432,24.4582 57.00604,24.36304 57.02424,24.25956 C57.04244,24.15608 57.05128,24.05416 57.05128,23.95588 Z M61.58516,25.20492 L61.58516,23.82016 C61.58516,23.73488 61.58048,23.65272 61.5706,23.5742 C61.56072,23.49516 61.53992,23.42548 61.50872,23.36464 C61.47752,23.3038 61.43072,23.25544 61.36832,23.21956 C61.30592,23.18316 61.2222,23.16496 61.11716,23.16496 C61.01212,23.16496 60.92684,23.1842 60.8608,23.22164 C60.79528,23.2596 60.74432,23.31056 60.70844,23.37452 C60.67204,23.43848 60.6476,23.51076 60.6346,23.59136 C60.62108,23.67144 60.61484,23.7562 60.61484,23.84512 L60.61484,25.20492 L59.89516,25.20492 L59.89516,23.82536 C59.89516,23.7432 59.89048,23.6626 59.8806,23.58408 C59.87072,23.50504 59.8494,23.43432 59.81664,23.37192 C59.78388,23.30952 59.73708,23.2596 59.67624,23.22164 C59.6154,23.1842 59.53584,23.16496 59.43704,23.16496 C59.33876,23.16496 59.2566,23.1842 59.19108,23.22164 C59.12504,23.2596 59.07252,23.309 59.033,23.36932 C58.994,23.43016 58.96592,23.50088 58.94928,23.58148 C58.93264,23.66208 58.92484,23.74476 58.92484,23.83004 L58.92484,25.20492 L58.20568,25.20492 L58.20568,23.54924 C58.20568,23.41144 58.2036,23.27416 58.20048,23.13792 C58.19736,23.00168 58.19216,22.86284 58.18592,22.72192 L58.89052,22.72192 L58.91028,23.11088 C59.00544,22.95644 59.12348,22.84672 59.26492,22.78068 C59.40584,22.71516 59.56548,22.6824 59.7428,22.6824 C59.92324,22.6824 60.08184,22.71828 60.21808,22.79056 C60.35432,22.86284 60.45676,22.98608 60.52592,23.16028 C60.62108,22.99284 60.74588,22.87116 60.90032,22.79576 C61.05476,22.71984 61.22532,22.6824 61.41252,22.6824 C61.5706,22.6824 61.7058,22.70632 61.81916,22.75364 C61.93252,22.80148 62.02508,22.86752 62.09736,22.95332 C62.16964,23.0386 62.22216,23.14104 62.25492,23.26116 C62.2882,23.38128 62.30432,23.51492 62.30432,23.6626 L62.30432,25.20492 L61.58516,25.20492 Z M65.45864,23.91896 C65.45864,24.09316 65.4368,24.25956 65.39208,24.41868 C65.34788,24.57832 65.27976,24.72028 65.18772,24.84508 C65.09568,24.96988 64.9792,25.0692 64.83828,25.14304 C64.69684,25.21688 64.53096,25.2538 64.34064,25.2538 C64.1732,25.2538 64.03072,25.2252 63.91424,25.16748 C63.79776,25.11028 63.687,25.01564 63.58196,24.8846 L63.58196,26.14092 L62.86228,26.14092 L62.86228,23.3324 C62.86228,23.23412 62.86072,23.13376 62.8576,23.03184 C62.85448,22.93044 62.84928,22.82696 62.84252,22.72192 L63.54712,22.72192 L63.557,23.101 C63.65892,22.94968 63.77748,22.83996 63.91164,22.7708 C64.04632,22.70216 64.20232,22.66732 64.37964,22.66732 C64.56684,22.66732 64.72804,22.70112 64.86272,22.7682 C64.9974,22.8358 65.1092,22.92628 65.1976,23.03964 C65.28652,23.15248 65.35204,23.2856 65.39468,23.43848 C65.43732,23.59136 65.45864,23.75152 65.45864,23.91896 Z M64.71972,23.9434 C64.71972,23.855 64.71088,23.7614 64.69268,23.6626 C64.67448,23.56432 64.64432,23.47436 64.60168,23.39428 C64.55904,23.31368 64.5008,23.24712 64.42644,23.1946 C64.3526,23.14208 64.2616,23.11608 64.15344,23.11608 C64.03852,23.11608 63.94284,23.1426 63.86744,23.1972 C63.79204,23.25128 63.73224,23.32044 63.68752,23.40416 C63.64332,23.48788 63.61212,23.57992 63.59392,23.67976 C63.57624,23.78012 63.56688,23.87788 63.56688,23.97304 C63.56688,24.06196 63.5752,24.15556 63.59184,24.25384 C63.60796,24.35264 63.63656,24.44364 63.67764,24.52736 C63.71872,24.61108 63.77488,24.67972 63.8456,24.73432 C63.9158,24.7884 64.00524,24.81544 64.11392,24.81544 C64.23196,24.81544 64.32972,24.7884 64.40668,24.73432 C64.48416,24.67972 64.54656,24.61004 64.5944,24.52476 C64.64172,24.43948 64.67448,24.34588 64.69268,24.24396 C64.71088,24.14204 64.71972,24.0422 64.71972,23.9434 Z M67.39616,25.20492 C67.3764,25.14876 67.36288,25.09312 67.35456,25.03748 C67.34624,24.98132 67.34052,24.92412 67.3374,24.86484 C67.23548,25.01252 67.12212,25.11444 66.99732,25.17008 C66.87252,25.22624 66.7212,25.2538 66.54388,25.2538 C66.42272,25.2538 66.30936,25.23924 66.20432,25.2096 C66.09876,25.17996 66.00724,25.1342 65.9282,25.0718 C65.84916,25.0094 65.7878,24.93036 65.7436,24.8352 C65.69888,24.74004 65.67704,24.62668 65.67704,24.49512 C65.67704,24.30116 65.72644,24.1488 65.82472,24.037 C65.92352,23.9252 66.04572,23.84096 66.19184,23.78324 C66.33796,23.72604 66.49552,23.68964 66.66452,23.67508 C66.83404,23.66 66.99056,23.65272 67.13512,23.65272 L67.3374,23.65272 L67.3374,23.55912 C67.3374,23.4936 67.33324,23.42964 67.32492,23.36724 C67.3166,23.30484 67.29892,23.24972 67.27084,23.20188 C67.24276,23.15456 67.20428,23.11608 67.15488,23.08644 C67.10548,23.0568 67.04152,23.04172 66.963,23.04172 C66.82468,23.04172 66.7264,23.07812 66.66712,23.1504 C66.60784,23.22268 66.57872,23.31628 66.57872,23.4312 L65.84448,23.4312 C65.8476,23.27988 65.88244,23.15352 65.94796,23.0516 C66.01348,22.94968 66.0998,22.8696 66.2064,22.81032 C66.31352,22.75104 66.43156,22.70944 66.56104,22.68448 C66.69104,22.66004 66.82156,22.64756 66.95312,22.64756 C67.12056,22.64756 67.27084,22.66004 67.40396,22.68448 C67.53656,22.70944 67.64992,22.75624 67.74352,22.8254 C67.83712,22.89404 67.9094,22.9918 67.96036,23.11816 C68.01132,23.24452 68.0368,23.40988 68.0368,23.6132 L68.0368,24.35264 C68.0368,24.49356 68.03836,24.63396 68.04148,24.77332 C68.04512,24.9132 68.05656,25.05672 68.07632,25.20492 L67.39616,25.20492 Z M67.3374,24.00268 C67.301,24.00268 67.2698,24.00164 67.24328,24.00008 C67.21728,23.99852 67.18608,23.99748 67.14968,23.99748 C67.07428,23.99748 66.9916,24.0032 66.90112,24.01464 C66.81116,24.0266 66.72796,24.04844 66.65256,24.08172 C66.57664,24.11396 66.51372,24.16024 66.46276,24.21952 C66.4118,24.27828 66.38632,24.35732 66.38632,24.45612 C66.38632,24.57104 66.42688,24.661 66.50696,24.72704 C66.58756,24.79256 66.68168,24.82532 66.79036,24.82532 C66.90528,24.82532 66.99888,24.80244 67.07116,24.75668 C67.14344,24.7104 67.19908,24.6506 67.2386,24.57676 C67.27812,24.5024 67.30464,24.41972 67.31764,24.32768 C67.33064,24.23564 67.3374,24.14204 67.3374,24.04688 L67.3374,24.00268 Z M70.28944,25.20492 L70.28944,23.88932 C70.28944,23.80404 70.28632,23.71772 70.27956,23.63036 C70.27332,23.54352 70.25408,23.46552 70.22288,23.39688 C70.19168,23.32772 70.14488,23.27156 70.08248,23.22892 C70.02008,23.18628 69.93324,23.16496 69.82144,23.16496 C69.70652,23.16496 69.61552,23.19304 69.54792,23.24868 C69.48084,23.30484 69.42832,23.37296 69.39036,23.45304 C69.35292,23.53364 69.32796,23.61996 69.31652,23.712 C69.30508,23.80404 69.29936,23.88464 69.29936,23.95328 L69.29936,25.20492 L68.5802,25.20492 L68.5802,23.20968 C68.5802,23.13064 68.57864,23.05108 68.575,22.97048 C68.57188,22.88988 68.56668,22.8072 68.56044,22.72192 L69.27492,22.72192 L69.2848,23.101 C69.39608,22.95644 69.51464,22.85036 69.63944,22.78328 C69.76424,22.7162 69.91868,22.6824 70.10224,22.6824 C70.408,22.6824 70.63524,22.7604 70.78448,22.9164 C70.93424,23.0724 71.00912,23.29964 71.00912,23.59864 L71.00912,25.20492 L70.28944,25.20492 Z M72.56184,26.14092 L71.877,26.14092 L72.27116,25.21948 L71.14796,22.72192 L71.95604,22.72192 L72.62112,24.57884 L73.26176,22.72192 L73.97104,22.72192 L72.56184,26.14092 Z" id="Fill-10"></path>
                <path d="M31.834192,30.8126 C31.814432,30.75644 31.800392,30.7008 31.792072,30.64516 C31.783752,30.589 31.778032,30.5318 31.774912,30.47252 C31.672992,30.6202 31.559632,30.72212 31.434832,30.77776 C31.310032,30.83392 31.159232,30.86148 30.981392,30.86148 C30.860232,30.86148 30.746872,30.84692 30.641832,30.81728 C30.536272,30.78764 30.444752,30.74188 30.365712,30.67948 C30.287192,30.61708 30.225312,30.53804 30.181112,30.44288 C30.136392,30.34772 30.114552,30.23436 30.114552,30.1028 C30.114552,29.90936 30.163952,29.75648 30.262232,29.64468 C30.361032,29.53288 30.483232,29.44864 30.629352,29.39092 C30.775472,29.33372 30.933032,29.29732 31.102032,29.28276 C31.271552,29.2682 31.428072,29.2604 31.572632,29.2604 L31.774912,29.2604 L31.774912,29.1668 C31.774912,29.10128 31.770752,29.03732 31.762432,28.97492 C31.754112,28.91252 31.736432,28.8574 31.708352,28.81008 C31.680272,28.76224 31.641792,28.72376 31.592392,28.69412 C31.543512,28.66448 31.479032,28.6494 31.400512,28.6494 C31.262712,28.6494 31.163912,28.6858 31.104632,28.75808 C31.045872,28.83036 31.016232,28.92396 31.016232,29.03888 L30.281992,29.03888 C30.285112,28.88756 30.319952,28.7612 30.385472,28.65928 C30.450992,28.55736 30.537312,28.47728 30.643912,28.418 C30.751032,28.35872 30.869072,28.31712 30.998552,28.29268 C31.128552,28.26772 31.259072,28.25524 31.390632,28.25524 C31.558072,28.25524 31.708352,28.26772 31.841472,28.29268 C31.974072,28.31712 32.087432,28.36392 32.181032,28.43308 C32.274632,28.50172 32.346912,28.59948 32.397872,28.72584 C32.448832,28.8522 32.474312,29.01756 32.474312,29.22088 L32.474312,29.96032 C32.474312,30.10124 32.475872,30.24164 32.479512,30.38152 C32.482632,30.52088 32.494072,30.6644 32.513832,30.8126 L31.834192,30.8126 Z M31.774912,29.61036 C31.738512,29.61036 31.707312,29.60932 31.681312,29.60776 C31.654792,29.6062 31.623592,29.60516 31.587712,29.60516 C31.511792,29.60516 31.429112,29.61088 31.338632,29.62284 C31.248672,29.63428 31.165472,29.65612 31.090072,29.6894 C31.014152,29.72216 30.951232,29.76792 30.900272,29.8272 C30.849312,29.88596 30.823832,29.965 30.823832,30.0638 C30.823832,30.17872 30.864392,30.26868 30.944472,30.33472 C31.025072,30.40024 31.119712,30.433 31.227872,30.433 C31.342792,30.433 31.436392,30.41012 31.508672,30.36436 C31.580952,30.31808 31.637112,30.25828 31.676112,30.18444 C31.715632,30.1106 31.742152,30.0274 31.755152,29.93536 C31.768152,29.84332 31.774912,29.74972 31.774912,29.65456 L31.774912,29.61036 Z M33.894432,28.7976 L33.894432,29.93068 C33.894432,30.00296 33.897032,30.06588 33.901712,30.11996 C33.906912,30.17456 33.920952,30.21876 33.943832,30.25308 C33.966712,30.28792 34.001032,30.31392 34.047312,30.33212 C34.093072,30.35032 34.159112,30.35916 34.244392,30.35916 C34.283912,30.35916 34.321352,30.35656 34.357752,30.35188 C34.393632,30.34668 34.433152,30.34304 34.475792,30.3394 L34.475792,30.8074 C34.390512,30.82092 34.305232,30.8308 34.219432,30.83704 C34.134152,30.8438 34.048872,30.84692 33.963592,30.84692 C33.838792,30.84692 33.728552,30.83808 33.633392,30.81988 C33.538232,30.80168 33.457632,30.76788 33.392112,30.719 C33.326592,30.6696 33.277192,30.60148 33.243912,30.51412 C33.211152,30.42728 33.195032,30.31652 33.195032,30.18184 L33.195032,28.7976 L32.717152,28.7976 L32.717152,28.3244 L33.195032,28.3244 L33.195032,27.91048 L33.894432,27.625 L33.894432,28.3244 L34.480992,28.3244 L34.480992,28.7976 L33.894432,28.7976 Z" id="Fill-11"></path>
                <path d="M39.511992,30.8126 L38.738752,30.8126 L38.147512,28.9302 L37.521952,30.8126 L36.753392,30.8126 L35.876672,28.3296 L36.655112,28.3296 L37.167312,30.21616 L37.778312,28.3296 L38.591072,28.3296 L39.162552,30.21616 L39.689312,28.3296 L40.364272,28.3296 L39.511992,30.8126 Z M43.090112,29.56096 C43.090112,29.76792 43.058392,29.95304 42.994432,30.11528 C42.929952,30.27804 42.838952,30.4148 42.720912,30.5266 C42.602872,30.6384 42.459872,30.72368 42.292432,30.78296 C42.124992,30.84224 41.939352,30.87136 41.735512,30.87136 C41.528552,30.87136 41.342392,30.84276 41.176512,30.78504 C41.010632,30.72784 40.869192,30.64308 40.752712,30.5318 C40.636232,30.42 40.546792,30.28272 40.484392,30.11996 C40.421472,29.95772 40.390792,29.77156 40.390792,29.56096 C40.390792,29.354 40.423552,29.17044 40.489072,29.00924 C40.554592,28.84804 40.648192,28.71232 40.769872,28.60052 C40.891552,28.48872 41.035072,28.40396 41.200952,28.34676 C41.366832,28.28904 41.551432,28.26044 41.755272,28.26044 C41.958592,28.26044 42.142672,28.28904 42.306992,28.34676 C42.471312,28.40396 42.611712,28.48872 42.728192,28.60052 C42.844672,28.71232 42.934112,28.84804 42.996512,29.00924 C43.058912,29.17044 43.090112,29.354 43.090112,29.56096 Z M42.341312,29.56356 C42.341312,29.46528 42.332472,29.36336 42.314272,29.25988 C42.296592,29.1564 42.264352,29.06176 42.218592,28.97804 C42.172312,28.89432 42.109912,28.82464 42.031392,28.77056 C41.952352,28.71648 41.853552,28.68892 41.735512,28.68892 C41.613832,28.68892 41.514512,28.71648 41.437552,28.77056 C41.360072,28.82464 41.299232,28.89432 41.255032,28.97804 C41.210832,29.06176 41.180152,29.1564 41.164032,29.25988 C41.147392,29.36336 41.139592,29.46528 41.139592,29.56356 C41.139592,29.66236 41.147392,29.76376 41.164032,29.86724 C41.180152,29.97072 41.210832,30.06588 41.255032,30.15168 C41.299232,30.23696 41.360072,30.30768 41.437552,30.36176 C41.514512,30.41584 41.613832,30.44288 41.735512,30.44288 C41.853552,30.44288 41.952352,30.41584 42.031392,30.36176 C42.109912,30.30768 42.172312,30.23696 42.218592,30.15168 C42.264352,30.06588 42.296592,29.97072 42.314272,29.86724 C42.332472,29.76376 42.341312,29.66236 42.341312,29.56356 Z M45.077032,28.94528 C44.997992,28.9354 44.926232,28.9302 44.860192,28.9302 C44.627232,28.9302 44.461352,28.99312 44.362552,29.1174 C44.264272,29.2422 44.214872,29.4164 44.214872,29.64 L44.214872,30.8126 L43.495712,30.8126 L43.495712,28.9354 C43.495712,28.8366 43.492592,28.73728 43.485832,28.63744 C43.479072,28.53708 43.475952,28.43464 43.475952,28.3296 L44.170672,28.3296 L44.190432,28.78772 C44.272592,28.6234 44.376072,28.50328 44.500352,28.42788 C44.625672,28.35248 44.778032,28.31452 44.958992,28.31452 C44.978232,28.31452 44.997472,28.31452 45.015672,28.31452 C45.033352,28.31452 45.054152,28.31608 45.077032,28.31972 L45.077032,28.94528 Z M47.088392,30.8126 L46.068672,29.41796 L47.029112,28.3244 L47.896472,28.3244 L46.881432,29.38364 L48.004632,30.8126 L47.088392,30.8126 Z M45.349512,30.8126 L45.349512,27.2506 L46.068672,27.2506 L46.068672,30.8126 L45.349512,30.8126 Z" id="Fill-12"></path>
                <path d="M51.026352,27.72848 C50.983712,27.72484 50.942632,27.72276 50.903112,27.7212 C50.863592,27.71912 50.825632,27.7186 50.789752,27.7186 C50.704472,27.7186 50.636872,27.72848 50.587992,27.74824 C50.538592,27.768 50.501672,27.79504 50.476712,27.82936 C50.452272,27.86368 50.436672,27.9058 50.429912,27.9552 C50.423672,28.00408 50.420032,28.06024 50.420032,28.12264 L50.420032,28.3244 L50.991512,28.3244 L50.991512,28.7976 L50.420032,28.7976 L50.420032,30.8126 L49.700872,30.8126 L49.700872,28.7976 L49.218312,28.7976 L49.218312,28.3244 L49.700872,28.3244 L49.700872,28.11744 C49.700872,27.83508 49.766912,27.61668 49.897952,27.46224 C50.029512,27.3078 50.247912,27.23084 50.553152,27.23084 C50.628552,27.23084 50.706552,27.23344 50.787152,27.23812 C50.867752,27.24332 50.947312,27.24904 51.026352,27.25528 L51.026352,27.72848 Z M53.7472,29.56096 C53.7472,29.76792 53.71496,29.95304 53.651,30.11528 C53.58704,30.27804 53.49604,30.4148 53.378,30.5266 C53.25944,30.6384 53.11644,30.72368 52.949,30.78296 C52.78156,30.84224 52.59592,30.87136 52.3926,30.87136 C52.18564,30.87136 51.998752,30.84276 51.832872,30.78504 C51.666992,30.72784 51.526072,30.64308 51.409072,30.5318 C51.292592,30.42 51.203152,30.28272 51.140752,30.11996 C51.078352,29.95772 51.047152,29.77156 51.047152,29.56096 C51.047152,29.354 51.079912,29.17044 51.145952,29.00924 C51.211472,28.84804 51.305072,28.71232 51.426752,28.60052 C51.547912,28.48872 51.691952,28.40396 51.857832,28.34676 C52.02392,28.28904 52.20852,28.26044 52.41236,28.26044 C52.61568,28.26044 52.79976,28.28904 52.96408,28.34676 C53.12788,28.40396 53.2688,28.48872 53.38528,28.60052 C53.50176,28.71232 53.5912,28.84804 53.6536,29.00924 C53.716,29.17044 53.7472,29.354 53.7472,29.56096 Z M52.9984,29.56356 C52.9984,29.46528 52.98956,29.36336 52.97136,29.25988 C52.95316,29.1564 52.92144,29.06176 52.87516,28.97804 C52.8294,28.89432 52.767,28.82464 52.68796,28.77056 C52.60944,28.71648 52.51064,28.68892 52.3926,28.68892 C52.27092,28.68892 52.1716,28.71648 52.09412,28.77056 C52.01716,28.82464 51.956112,28.89432 51.911912,28.97804 C51.867712,29.06176 51.837032,29.1564 51.820912,29.25988 C51.804272,29.36336 51.795952,29.46528 51.795952,29.56356 C51.795952,29.66236 51.804272,29.76376 51.820912,29.86724 C51.837032,29.97072 51.867712,30.06588 51.911912,30.15168 C51.956112,30.23696 52.01716,30.30768 52.09412,30.36176 C52.1716,30.41584 52.27092,30.44288 52.3926,30.44288 C52.51064,30.44288 52.60944,30.41584 52.68796,30.36176 C52.767,30.30768 52.8294,30.23696 52.87516,30.15168 C52.92144,30.06588 52.95316,29.97072 52.97136,29.86724 C52.98956,29.76376 52.9984,29.66236 52.9984,29.56356 Z M55.73412,28.94528 C55.65508,28.9354 55.5828,28.9302 55.51728,28.9302 C55.2838,28.9302 55.11792,28.99312 55.01964,29.1174 C54.92084,29.2422 54.87196,29.4164 54.87196,29.64 L54.87196,30.8126 L54.15228,30.8126 L54.15228,28.9354 C54.15228,28.8366 54.14916,28.73728 54.1424,28.63744 C54.13616,28.53708 54.13252,28.43464 54.13252,28.3296 L54.82724,28.3296 L54.847,28.78772 C54.92916,28.6234 55.03264,28.50328 55.15744,28.42788 C55.28224,28.35248 55.43512,28.31452 55.61556,28.31452 C55.63532,28.31452 55.65404,28.31452 55.67224,28.31452 C55.69044,28.31452 55.71124,28.31608 55.73412,28.31972 L55.73412,28.94528 Z" id="Fill-13"></path>
                <path d="M58.96332,30.8126 C58.94356,30.75644 58.93004,30.7008 58.92172,30.64516 C58.9134,30.589 58.90768,30.5318 58.90456,30.47252 C58.80264,30.6202 58.68928,30.72212 58.56448,30.77776 C58.43968,30.83392 58.28836,30.86148 58.11104,30.86148 C57.98988,30.86148 57.87652,30.84692 57.77148,30.81728 C57.66592,30.78764 57.5744,30.74188 57.49536,30.67948 C57.41684,30.61708 57.35496,30.53804 57.31076,30.44288 C57.26604,30.34772 57.2442,30.23436 57.2442,30.1028 C57.2442,29.90936 57.2936,29.75648 57.39188,29.64468 C57.49016,29.53288 57.61288,29.44864 57.759,29.39092 C57.90512,29.33372 58.06268,29.29732 58.23168,29.28276 C58.4012,29.2682 58.55772,29.2604 58.70228,29.2604 L58.90456,29.2604 L58.90456,29.1668 C58.90456,29.10128 58.9004,29.03732 58.89208,28.97492 C58.88376,28.91252 58.86608,28.8574 58.838,28.81008 C58.80992,28.76224 58.77144,28.72376 58.72204,28.69412 C58.67264,28.66448 58.60868,28.6494 58.52964,28.6494 C58.39184,28.6494 58.29356,28.6858 58.23428,28.75808 C58.175,28.83036 58.14588,28.92396 58.14588,29.03888 L57.41164,29.03888 C57.41476,28.88756 57.4496,28.7612 57.51512,28.65928 C57.58064,28.55736 57.66696,28.47728 57.77356,28.418 C57.88068,28.35872 57.99872,28.31712 58.1282,28.29268 C58.2582,28.26772 58.38872,28.25524 58.52028,28.25524 C58.68772,28.25524 58.838,28.26772 58.97112,28.29268 C59.10372,28.31712 59.21708,28.36392 59.31068,28.43308 C59.40428,28.50172 59.47656,28.59948 59.52752,28.72584 C59.57848,28.8522 59.60396,29.01756 59.60396,29.22088 L59.60396,29.96032 C59.60396,30.10124 59.60552,30.24164 59.60864,30.38152 C59.61228,30.52088 59.62372,30.6644 59.64348,30.8126 L58.96332,30.8126 Z M58.90456,29.61036 C58.86816,29.61036 58.83696,29.60932 58.81096,29.60776 C58.78444,29.6062 58.75324,29.60516 58.71736,29.60516 C58.64144,29.60516 58.55876,29.61088 58.46828,29.62284 C58.37832,29.63428 58.29512,29.65612 58.21972,29.6894 C58.1438,29.72216 58.08088,29.76792 58.02992,29.8272 C57.97896,29.88596 57.95348,29.965 57.95348,30.0638 C57.95348,30.17872 57.99404,30.26868 58.07412,30.33472 C58.15472,30.40024 58.24884,30.433 58.35752,30.433 C58.47244,30.433 58.56604,30.41012 58.63832,30.36436 C58.7106,30.31808 58.76624,30.25828 58.80576,30.18444 C58.84528,30.1106 58.8718,30.0274 58.8848,29.93536 C58.8978,29.84332 58.90456,29.74972 58.90456,29.65456 L58.90456,29.61036 Z" id="Fill-14"></path>
                <path d="M64.00576,29.53652 C64.00576,29.7102 63.98392,29.87816 63.93972,30.03884 C63.895,30.20004 63.82792,30.34096 63.73744,30.46264 C63.64748,30.58432 63.53152,30.68104 63.39008,30.75332 C63.24916,30.8256 63.08172,30.86148 62.88776,30.86148 C62.71668,30.86148 62.57264,30.8308 62.45408,30.76788 C62.33604,30.70548 62.22268,30.61032 62.114,30.4824 L62.09944,30.8126 L61.39016,30.8126 C61.40004,30.69768 61.40576,30.58484 61.40732,30.47512 C61.40888,30.36488 61.40992,30.25568 61.40992,30.14752 L61.40992,27.2506 L62.12908,27.2506 L62.12908,28.67436 C62.23412,28.53968 62.35164,28.4388 62.48112,28.3712 C62.61112,28.30412 62.7614,28.27032 62.93196,28.27032 C63.12228,28.27032 63.28608,28.30412 63.42232,28.3712 C63.55856,28.4388 63.66932,28.53084 63.7546,28.64732 C63.8404,28.7638 63.90332,28.89848 63.9444,29.05136 C63.98548,29.20372 64.00576,29.36544 64.00576,29.53652 Z M63.26684,29.5464 C63.26684,29.45436 63.25904,29.35972 63.2424,29.263 C63.22576,29.16628 63.19716,29.07736 63.15608,28.99676 C63.115,28.91668 63.05936,28.85064 62.98864,28.8002 C62.91792,28.74872 62.82692,28.72376 62.71512,28.72376 C62.6002,28.72376 62.50452,28.74872 62.42704,28.8002 C62.34956,28.85064 62.2882,28.91668 62.24244,28.99676 C62.19616,29.07736 62.1634,29.1668 62.14364,29.2656 C62.12388,29.36388 62.114,29.46268 62.114,29.56096 C62.114,29.64988 62.12232,29.74348 62.13896,29.84176 C62.15508,29.94056 62.1842,30.03052 62.22528,30.11268 C62.26584,30.19484 62.32252,30.26296 62.39532,30.31704 C62.46708,30.37164 62.55912,30.39868 62.67092,30.39868 C62.7926,30.39868 62.89192,30.37216 62.96888,30.31964 C63.04636,30.26712 63.10668,30.20056 63.1514,30.11996 C63.1956,30.03988 63.22576,29.94888 63.2424,29.84696 C63.25904,29.74504 63.26684,29.64468 63.26684,29.5464 Z M65.05148,29.70864 C65.05148,29.8038 65.06136,29.89532 65.08112,29.98216 C65.10088,30.06952 65.13364,30.14648 65.17992,30.21356 C65.22568,30.28116 65.28496,30.33524 65.35724,30.37632 C65.42952,30.4174 65.51792,30.4382 65.62296,30.4382 C65.9152,30.4382 66.08108,30.29364 66.1206,30.00452 L66.82052,30.00452 C66.79712,30.1652 66.74876,30.30092 66.67492,30.41116 C66.60108,30.52088 66.51008,30.6098 66.4014,30.67688 C66.29324,30.74448 66.17052,30.79284 66.0348,30.82248 C65.89804,30.8516 65.75764,30.86668 65.61308,30.86668 C65.20904,30.86668 64.89808,30.758 64.67968,30.54168 C64.46128,30.32484 64.35208,30.0144 64.35208,29.61036 C64.35208,29.19644 64.45972,28.8678 64.675,28.62496 C64.88976,28.38212 65.21112,28.26044 65.63804,28.26044 C65.7592,28.26044 65.8762,28.27292 65.98748,28.29736 C66.09928,28.32232 66.20276,28.36132 66.29792,28.41592 C66.39308,28.47 66.47784,28.53864 66.55168,28.62236 C66.62552,28.7066 66.6874,28.80592 66.73628,28.92084 C66.78932,29.042 66.82052,29.1668 66.82988,29.29524 C66.83976,29.42316 66.84496,29.56096 66.84496,29.70864 L65.05148,29.70864 Z M66.15024,29.29524 C66.15024,29.1096 66.1076,28.9614 66.02232,28.8522 C65.93704,28.743 65.80704,28.68892 65.63284,28.68892 C65.45552,28.68892 65.31668,28.7456 65.21684,28.86 C65.11648,28.97388 65.06656,29.11948 65.06656,29.29524 L66.15024,29.29524 Z M68.23544,28.7976 L68.23544,29.93068 C68.23544,30.00296 68.23752,30.06588 68.24272,30.11996 C68.2474,30.17456 68.26144,30.21876 68.28484,30.25308 C68.30772,30.28792 68.34204,30.31392 68.3878,30.33212 C68.43408,30.35032 68.4996,30.35916 68.58488,30.35916 C68.6244,30.35916 68.66236,30.35656 68.69824,30.35188 C68.73464,30.34668 68.77416,30.34304 68.8168,30.3394 L68.8168,30.8074 C68.73152,30.82092 68.64572,30.8308 68.56044,30.83704 C68.47516,30.8438 68.38988,30.84692 68.30408,30.84692 C68.17928,30.84692 68.06956,30.83808 67.9744,30.81988 C67.87924,30.80168 67.79864,30.76788 67.7326,30.719 C67.66708,30.6696 67.61768,30.60148 67.58492,30.51412 C67.55216,30.42728 67.53552,30.31652 67.53552,30.18184 L67.53552,28.7976 L67.05764,28.7976 L67.05764,28.3244 L67.53552,28.3244 L67.53552,27.91048 L68.23544,27.625 L68.23544,28.3244 L68.82148,28.3244 L68.82148,28.7976 L68.23544,28.7976 Z M70.12356,28.7976 L70.12356,29.93068 C70.12356,30.00296 70.12564,30.06588 70.13084,30.11996 C70.13552,30.17456 70.14956,30.21876 70.17296,30.25308 C70.19584,30.28792 70.23016,30.31392 70.27592,30.33212 C70.3222,30.35032 70.38772,30.35916 70.473,30.35916 C70.51252,30.35916 70.55048,30.35656 70.58636,30.35188 C70.62276,30.34668 70.66228,30.34304 70.70492,30.3394 L70.70492,30.8074 C70.61912,30.82092 70.53384,30.8308 70.44856,30.83704 C70.36328,30.8438 70.278,30.84692 70.1922,30.84692 C70.0674,30.84692 69.95768,30.83808 69.86252,30.81988 C69.76684,30.80168 69.68676,30.76788 69.62072,30.719 C69.5552,30.6696 69.5058,30.60148 69.47304,30.51412 C69.44028,30.42728 69.42364,30.31652 69.42364,30.18184 L69.42364,28.7976 L68.94576,28.7976 L68.94576,28.3244 L69.42364,28.3244 L69.42364,27.91048 L70.12356,27.625 L70.12356,28.3244 L70.7096,28.3244 L70.7096,28.7976 L70.12356,28.7976 Z M71.6664,29.70864 C71.6664,29.8038 71.67628,29.89532 71.69604,29.98216 C71.7158,30.06952 71.74856,30.14648 71.79484,30.21356 C71.8406,30.28116 71.89988,30.33524 71.97216,30.37632 C72.04444,30.4174 72.13284,30.4382 72.23788,30.4382 C72.53064,30.4382 72.696,30.29364 72.73552,30.00452 L73.43544,30.00452 C73.41204,30.1652 73.36368,30.30092 73.28984,30.41116 C73.216,30.52088 73.125,30.6098 73.01632,30.67688 C72.90816,30.74448 72.78596,30.79284 72.64972,30.82248 C72.51296,30.8516 72.37256,30.86668 72.228,30.86668 C71.82396,30.86668 71.513,30.758 71.2946,30.54168 C71.0762,30.32484 70.967,30.0144 70.967,29.61036 C70.967,29.19644 71.07464,28.8678 71.28992,28.62496 C71.50468,28.38212 71.82604,28.26044 72.25296,28.26044 C72.37412,28.26044 72.49112,28.27292 72.6024,28.29736 C72.7142,28.32232 72.81768,28.36132 72.91284,28.41592 C73.00852,28.47 73.09276,28.53864 73.1666,28.62236 C73.24044,28.7066 73.30232,28.80592 73.3512,28.92084 C73.40424,29.042 73.43544,29.1668 73.4448,29.29524 C73.45468,29.42316 73.45988,29.56096 73.45988,29.70864 L71.6664,29.70864 Z M72.76516,29.29524 C72.76516,29.1096 72.72252,28.9614 72.63724,28.8522 C72.55196,28.743 72.42196,28.68892 72.24776,28.68892 C72.07044,28.68892 71.9316,28.7456 71.83176,28.86 C71.7314,28.97388 71.68148,29.11948 71.68148,29.29524 L72.76516,29.29524 Z M75.55496,28.94528 C75.47592,28.9354 75.40364,28.9302 75.33812,28.9302 C75.10464,28.9302 74.93876,28.99312 74.84048,29.1174 C74.74168,29.2422 74.6928,29.4164 74.6928,29.64 L74.6928,30.8126 L73.97312,30.8126 L73.97312,28.9354 C73.97312,28.8366 73.97,28.73728 73.96324,28.63744 C73.957,28.53708 73.95336,28.43464 73.95336,28.3296 L74.64808,28.3296 L74.66784,28.78772 C74.75,28.6234 74.85348,28.50328 74.97828,28.42788 C75.10308,28.35248 75.25596,28.31452 75.4364,28.31452 C75.45616,28.31452 75.47488,28.31452 75.49308,28.31452 C75.51128,28.31452 75.53156,28.31608 75.55496,28.31972 L75.55496,28.94528 Z" id="Fill-15"></path>
                <path d="M80.4882,30.8126 L79.71496,30.8126 L79.12372,28.9302 L78.49816,30.8126 L77.7296,30.8126 L76.85288,28.3296 L77.63132,28.3296 L78.14352,30.21616 L78.75452,28.3296 L79.56728,28.3296 L80.13876,30.21616 L80.66552,28.3296 L81.34048,28.3296 L80.4882,30.8126 Z M84.06632,29.56096 C84.06632,29.76792 84.0346,29.95304 83.97064,30.11528 C83.90616,30.27804 83.81516,30.4148 83.69712,30.5266 C83.57908,30.6384 83.43608,30.72368 83.26864,30.78296 C83.1012,30.84224 82.91556,30.87136 82.71172,30.87136 C82.50476,30.87136 82.3186,30.84276 82.15272,30.78504 C81.98684,30.72784 81.8454,30.64308 81.72892,30.5318 C81.61244,30.42 81.523,30.28272 81.4606,30.11996 C81.39768,29.95772 81.367,29.77156 81.367,29.56096 C81.367,29.354 81.39976,29.17044 81.46528,29.00924 C81.5308,28.84804 81.6244,28.71232 81.74608,28.60052 C81.86776,28.48872 82.01128,28.40396 82.17716,28.34676 C82.34304,28.28904 82.52764,28.26044 82.73148,28.26044 C82.9348,28.26044 83.11888,28.28904 83.2832,28.34676 C83.44752,28.40396 83.58792,28.48872 83.7044,28.60052 C83.82088,28.71232 83.91032,28.84804 83.97272,29.00924 C84.03564,29.17044 84.06632,29.354 84.06632,29.56096 Z M83.31752,29.56356 C83.31752,29.46528 83.30868,29.36336 83.29048,29.25988 C83.2728,29.1564 83.24056,29.06176 83.1948,28.97804 C83.14852,28.89432 83.08612,28.82464 83.0076,28.77056 C82.92856,28.71648 82.82976,28.68892 82.71172,28.68892 C82.59004,28.68892 82.49072,28.71648 82.41376,28.77056 C82.33628,28.82464 82.27596,28.89432 82.23124,28.97804 C82.18704,29.06176 82.15636,29.1564 82.14024,29.25988 C82.12412,29.36336 82.1158,29.46528 82.1158,29.56356 C82.1158,29.66236 82.12412,29.76376 82.14024,29.86724 C82.15636,29.97072 82.18704,30.06588 82.23124,30.15168 C82.27596,30.23696 82.33628,30.30768 82.41376,30.36176 C82.49072,30.41584 82.59004,30.44288 82.71172,30.44288 C82.82976,30.44288 82.92856,30.41584 83.0076,30.36176 C83.08612,30.30768 83.14852,30.23696 83.1948,30.15168 C83.24056,30.06588 83.2728,29.97072 83.29048,29.86724 C83.30868,29.76376 83.31752,29.66236 83.31752,29.56356 Z M86.05324,28.94528 C85.9742,28.9354 85.90244,28.9302 85.8364,28.9302 C85.60344,28.9302 85.43756,28.99312 85.33876,29.1174 C85.24048,29.2422 85.19108,29.4164 85.19108,29.64 L85.19108,30.8126 L84.47192,30.8126 L84.47192,28.9354 C84.47192,28.8366 84.4688,28.73728 84.46204,28.63744 C84.45528,28.53708 84.45216,28.43464 84.45216,28.3296 L85.14688,28.3296 L85.16664,28.78772 C85.2488,28.6234 85.35228,28.50328 85.47708,28.42788 C85.60188,28.35248 85.75424,28.31452 85.9352,28.31452 C85.95444,28.31452 85.97368,28.31452 85.99188,28.31452 C86.01008,28.31452 86.03036,28.31608 86.05324,28.31972 L86.05324,28.94528 Z M86.32572,30.8126 L86.32572,27.2506 L87.04488,27.2506 L87.04488,30.8126 L86.32572,30.8126 Z M89.34224,30.8126 L89.32248,30.4824 C89.21068,30.61396 89.09732,30.70964 88.9824,30.77048 C88.86748,30.83132 88.72292,30.86148 88.54872,30.86148 C88.3584,30.86148 88.19408,30.82716 88.05628,30.758 C87.91848,30.68936 87.80408,30.59576 87.7136,30.4772 C87.62364,30.35916 87.55708,30.22292 87.51444,30.06848 C87.47128,29.91404 87.45048,29.74972 87.45048,29.57604 C87.45048,29.41796 87.46972,29.26196 87.50924,29.10804 C87.54876,28.9536 87.61168,28.81372 87.69904,28.68892 C87.78588,28.56412 87.89664,28.46324 88.03184,28.38628 C88.166,28.3088 88.33032,28.27032 88.52428,28.27032 C88.69848,28.27032 88.84928,28.2984 88.97772,28.35404 C89.10564,28.40968 89.22212,28.50692 89.32716,28.64472 L89.32716,27.2506 L90.04632,27.2506 L90.04632,30.14752 C90.04632,30.25568 90.04736,30.36592 90.04892,30.4772 C90.05048,30.589 90.0562,30.7008 90.06608,30.8126 L89.34224,30.8126 Z M89.34224,29.56096 C89.34224,29.46268 89.33132,29.36388 89.31,29.2656 C89.28868,29.1668 89.25436,29.07736 89.20652,28.99676 C89.15868,28.91668 89.0968,28.85064 89.01932,28.8002 C88.94184,28.74872 88.84616,28.72376 88.73124,28.72376 C88.61944,28.72376 88.52844,28.74872 88.45772,28.8002 C88.387,28.85064 88.33136,28.91668 88.29028,28.99676 C88.2492,29.07736 88.22112,29.16628 88.20656,29.263 C88.19148,29.35972 88.1842,29.45436 88.1842,29.5464 C88.1842,29.64468 88.19252,29.74504 88.20916,29.84696 C88.22528,29.94888 88.25492,30.03988 88.29756,30.11996 C88.3402,30.20056 88.39948,30.26712 88.47488,30.31964 C88.55028,30.37216 88.64908,30.39868 88.77076,30.39868 C88.88204,30.39868 88.97408,30.37164 89.04636,30.31704 C89.11864,30.26296 89.17688,30.19484 89.22108,30.11268 C89.2658,30.03052 89.297,29.94056 89.31468,29.84176 C89.33288,29.74348 89.34224,29.64988 89.34224,29.56096 Z" id="Fill-16"></path>
            </g>
            <g id="Salus" transform="translate(113.100000, 0.000000)">
                <mask id="mask-2" fill="white">
                    <use xlink:href="#path-1"></use>
                </mask>
                <g id="Clip-2"></g>
                <path d="M91.26,37.9165192 C91.26,40.6971958 89.3214468,43.2604844 86.5047945,43.0430964 C85.919459,43.0090704 85.590148,42.8635149 85.6266956,42.6820432 C88.9138741,42.9353475 90.6725596,40.6574989 90.6725596,37.9165192 C90.6725596,36.0016141 89.5378621,34.3721489 86.6157768,32.2417461 C82.7775141,29.4610694 81.8628675,27.9109982 81.9011372,25.45164 C81.9011372,22.1265481 84.7484052,19.4158137 88.3687218,19.6728987 C88.8086324,19.7088149 89.432429,19.9621193 89.3943506,20.0679778 C84.8955523,19.7787572 82.4847506,22.0925221 82.4847506,25.8145835 C82.4847506,27.7635524 83.1774328,29.2455717 86.872184,31.9184995 C89.9414164,34.1585415 91.26,35.818252 91.26,37.9165192" id="Fill-1" fill="#0D744E" mask="url(#mask-2)"></path>
                <path d="M6.84517311,31.9184995 C9.91576062,34.1585415 11.232,35.818252 11.232,37.9165192 C11.232,40.6971958 9.29609502,43.2604844 6.47976363,43.0430964 C5.89625635,43.0090704 5.56547468,42.8635149 5.601633,42.6820432 C8.89223145,42.9353475 10.6427533,40.6574989 10.6427533,37.9165192 C10.6427533,36.0016141 9.51400151,34.3721489 6.59263881,32.2417461 C2.75296957,29.4610694 1.8384893,27.9109982 1.8729258,25.45164 C1.8729258,22.1265481 4.72732864,19.4158137 8.34124752,19.6728987 C8.78318255,19.7088149 9.40303947,19.9621193 9.36860297,20.0679778 C4.8689009,19.7787572 2.45834622,22.0925221 2.45834622,25.8145835 C2.45834622,27.7635524 3.15090241,29.2455717 6.84517311,31.9184995" id="Fill-3" fill="#0D744E" mask="url(#mask-2)"></path>
                <path d="M24.2277169,20.9512281 C24.2973982,20.701085 24.336947,20.592 24.5893063,20.592 L24.804,20.592 L18.8998477,42.6967719 C18.8301664,42.9845305 18.7567185,43.056 18.5062425,43.056 L18.252,43.056 L24.2277169,20.9512281 Z" id="Fill-4" fill="#0D744E" mask="url(#mask-2)"></path>
                <path d="M31.5378449,39.312 L22.932,39.312 L23.0422095,38.876474 L31.2490199,38.876474 L27.5798023,23.868 C28.0892364,23.868 28.1232494,23.9424979 28.1994459,24.1984649 L31.792657,38.9108576 C31.862773,39.2394123 31.8304702,39.312 31.5378449,39.312" id="Fill-5" fill="#0D744E" mask="url(#mask-2)"></path>
                <path d="M32.7466646,41.184 L33.228,43.524 L33.0449347,43.524 C32.8066343,43.524 32.7764917,43.4475918 32.7181002,43.1935347 L32.292,41.184 L32.7466646,41.184 Z" id="Fill-6" fill="#0D744E" mask="url(#mask-2)"></path>
                <path d="M53.352,42.4842097 L53.352,42.588 L46.332,42.588 L46.332,42.12 L52.9748763,42.12 C53.2402378,42.12 53.352,42.1917097 53.352,42.4842097" id="Fill-7" fill="#0D744E" mask="url(#mask-2)"></path>
                <path d="M42.588,43.1590303 L42.588,20.592 L42.7556418,20.592 C42.9529701,20.592 43.056,20.6665226 43.056,20.9569697 L43.056,43.524 L42.9215373,43.524 C42.724209,43.524 42.588,43.4876941 42.588,43.1590303" id="Fill-8" fill="#0D744E" mask="url(#mask-2)"></path>
                <path d="M59.436,36.2172358 L59.436,21.06 L59.6196304,21.06 C59.8702094,21.06 59.9448092,21.1673915 59.9448092,21.4160876 L59.9448092,35.3166545 C59.9448092,37.4418757 59.8357787,39.5633288 60.6028182,41.3984045 C60.7118487,41.6508687 60.897392,42.0484057 60.8227921,42.12 C59.4685179,40.3885476 59.436,38.2689786 59.436,36.2172358" id="Fill-9" fill="#0D744E" mask="url(#mask-2)"></path>
                <path d="M72.54,36.7632413 C72.54,38.849979 72.4325835,42.946877 67.5724566,43.056 C67.3199336,43.056 66.924,43.056 66.924,42.9105027 C70.8477185,42.9105027 72.0347654,40.199658 72.0347654,36.1793376 L72.0347654,20.9576577 C72.0347654,20.6666631 72.1440664,20.592 72.3965895,20.592 L72.54,20.592 L72.54,36.7632413 Z" id="Fill-10" fill="#0D744E" mask="url(#mask-2)"></path>
                <path d="M91.2826359,38.1723247 C91.2826359,36.0647563 89.9607389,34.3976887 86.883794,32.147717 C83.1797584,29.4629407 82.4853357,27.9743518 82.4853357,26.0167436 C82.4853357,22.278183 84.9021954,19.9541617 89.4122984,20.2446643 C89.4504725,20.1383366 88.8251083,19.8839094 88.3840924,19.8478339 C84.7546785,19.5896093 81.9002558,22.3123598 81.9002558,25.6521912 C81.8618899,28.1224512 82.7788348,29.6793937 86.6267425,32.4723965 C89.5561705,34.6122429 90.6937194,36.2489312 90.6937194,38.1723247 C90.6937194,40.9254546 88.9306146,43.2134005 85.6351758,42.9589733 C85.5985364,43.1412495 85.928675,43.2874502 86.5154813,43.3216269 C89.3392114,43.5399786 91.2826359,40.9653275 91.2826359,38.1723247 M93.1472185,20.3946625 L93.1472185,22.9294407 C93.1472185,23.366144 93.077968,23.7287977 92.7846607,23.7287977 C92.6350337,23.7287977 92.4527957,23.6585454 92.1976625,23.5123447 C91.2423517,22.9674149 90.1815346,22.6807096 89.0075382,22.6807096 C86.4408597,22.6807096 85.0134565,24.237652 85.0134565,25.8705429 C85.0134565,27.7199247 86.6267425,28.8116831 88.4167034,30.0800215 C90.9872185,31.8230376 94.068,33.8565562 94.068,38.386879 C94.068,42.8849236 90.4019467,45.864 85.8939538,45.864 C81.8599716,45.864 80.028,44.4475621 80.028,43.4336509 L80.028,40.8931765 C80.028,40.1317937 80.2850515,39.985593 80.5401847,39.985593 C80.6859751,39.985593 80.8718579,40.0558453 81.0926536,40.2381215 C82.1532789,41.1096295 83.8375417,41.8349368 85.343595,41.8349368 C87.3578046,41.8349368 88.934643,40.4203977 88.934643,38.3166267 C88.934643,36.2489312 87.0297762,34.8704675 84.9750906,33.3818787 C82.2952327,31.4565865 80.1390693,29.6793937 80.1390693,25.7604177 C80.1718721,21.1883234 84.4247318,18.72 88.0194245,18.72 C91.6469201,18.7598729 93.1472185,19.9161875 93.1472185,20.3946625" id="Fill-11" fill="#FFFFFF" mask="url(#mask-2)"></path>
                <path d="M87.1556429,9.47023598 C87.3753123,9.49485367 87.5366053,9.68800785 87.5138613,9.90767339 C87.4949079,10.1140833 87.3148511,10.2712577 87.1120502,10.2655767 C87.1120502,10.2655767 85.7341416,10.24664 83.3289614,10.2106603 C82.1254236,10.1746806 80.6641202,10.1368073 78.9865592,10.0875719 C78.1507164,10.0572732 77.2619938,10.0231872 76.3219075,9.98720747 C75.8516749,9.96827078 75.3702598,9.9493341 74.879368,9.93229108 L74.5061765,9.91714174 C74.299585,9.90388606 74.1801789,9.88494937 74.0020174,9.847076 C73.6627524,9.77322293 73.3498326,9.6368788 73.1129157,9.51000302 C71.27065,8.59346748 69.2672808,7.60118521 67.1482962,6.58617891 C66.6234779,6.33810834 66.07004,6.07299476 65.5526135,5.84764821 C65.1621745,5.69047373 64.7850028,5.67343071 64.3888778,5.81545585 C64.277053,5.85522288 64.2029454,5.89309625 64.0683766,5.95748098 L63.6286589,6.17904019 L62.7456223,6.58239157 C62.1618591,6.83803682 61.5741156,7.09178839 60.9808758,7.35122097 L60.1035251,7.73184833 L59.6505401,7.93636452 C59.449445,8.02157961 59.2693882,8.082177 59.0627966,8.13898705 C58.6630705,8.25071349 58.2023145,8.30941721 57.7248796,8.24313882 C57.2643132,8.20526545 56.7070847,7.91174683 56.4910165,7.78108371 C55.2988507,7.12776809 54.1500881,6.44226011 52.9770652,5.74917745 C51.8171201,5.05230746 50.6476984,4.34786279 49.4725906,3.63963078 L47.709929,2.5697081 L46.9044115,2.07924797 C46.7431185,1.99024555 46.4609031,1.91639248 46.330125,1.91639248 C46.2486256,1.90881781 45.956744,1.97698987 45.7918498,2.06409862 L44.9768558,2.55834609 L43.2160895,3.62826877 C42.0390864,4.33081977 40.8675797,5.03337077 39.7021382,5.73213443 C38.5327164,6.42142975 37.382248,7.10504407 36.1900823,7.75646602 L35.9700339,7.8776608 C35.8185966,7.95719488 35.8297791,7.95340754 35.6897138,8.01400493 C35.4184913,8.12951871 35.2177754,8.17875409 34.9692969,8.21284012 C34.4935678,8.27911852 34.0367921,8.22230846 33.634981,8.11247569 C33.2352549,8.00643026 32.8694552,7.82463809 32.5982327,7.7034433 L31.7284635,7.31902861 C31.1312434,7.06338336 30.5455848,6.80773812 29.9618216,6.55398655 L29.0806803,6.1487415 C28.7906941,6.01239737 28.4476384,5.81545585 28.3185661,5.78705082 C27.9131539,5.64123835 27.5340869,5.6563877 27.118819,5.82303052 C26.6148494,6.04269606 26.0536406,6.30970332 25.5324235,6.55588022 C23.4098377,7.57278018 21.4100697,8.56506245 19.5660982,9.48159799 C19.3215999,9.61036745 19.027823,9.74103057 18.6885201,9.81677731 C18.5065679,9.85086334 18.4023245,9.87169369 18.1860668,9.88873671 L17.8128753,9.90009872 C17.3219835,9.92092907 16.8365882,9.94175943 16.3703357,9.96069611 C15.4302495,9.99856948 14.5415269,10.0345492 13.7017039,10.0686352 C12.0302079,10.1235516 10.5689046,10.1689996 9.3672621,10.2106603 C6.96018653,10.2636831 5.58606859,10.2958754 5.58606859,10.2958754 C5.3491517,10.3015564 5.15563799,10.1121896 5.148,9.87926837 C5.14445551,9.65202815 5.3129508,9.46455497 5.53660034,9.44183095 C5.53660034,9.44183095 6.90711715,9.3187425 9.30263118,9.09718329 C10.5044632,9.0006062 11.9581852,8.88130509 13.6279754,8.74306729 C14.4619228,8.68057623 15.3525408,8.6161915 16.292627,8.54801944 C16.7609643,8.51014607 17.2383992,8.47416637 17.7332712,8.44008034 L18.0988813,8.41167531 C18.1386834,8.40788797 18.2808335,8.38705762 18.3473598,8.36622727 C18.4950064,8.3283539 18.6693772,8.24692615 18.8837396,8.13709338 C20.7144817,7.18457815 22.6970022,6.15820984 24.8197775,5.0977555 C25.3620329,4.82885458 25.8737733,4.569422 26.4781957,4.29673374 C27.1701825,3.97859744 28.1043932,3.91421271 28.8684028,4.19068831 C29.3327599,4.35543746 29.5222934,4.49178159 29.8065937,4.61108271 L30.6462271,4.97845439 C31.2299903,5.21895028 31.8173547,5.46323351 32.4126794,5.70941041 C32.9943578,5.93096962 33.6880504,6.29455397 34.0993381,6.4005994 C34.3286737,6.46119679 34.5409512,6.47634614 34.7193022,6.44983478 C34.797011,6.44036644 34.9164171,6.4005994 34.9486378,6.38923739 C34.9617156,6.38355639 35.1171331,6.30402231 35.1171331,6.30402231 L35.3258095,6.1847212 C36.4573245,5.55223593 37.6096882,4.85347227 38.7580718,4.15849594 C39.9104355,3.45215761 41.0686748,2.74203193 42.2341163,2.02622525 L43.97972,0.943046894 L44.4137517,0.672252304 C44.5769401,0.573781544 44.6582499,0.505609479 44.9237864,0.363584345 C45.3748761,0.153387145 45.7556489,0.0113620108 46.3623457,0 C46.9174894,0.0227240215 47.3175946,0.140131466 47.766789,0.352222334 C48.0264499,0.484779126 48.1323992,0.571887876 48.2861108,0.662783962 L48.7220379,0.933578552 L50.4657462,2.01486324 C51.6332726,2.72309525 52.795113,3.43700826 53.9474768,4.13766559 C55.0960498,4.83453558 56.2501194,5.52951191 57.3837193,6.16199718 C57.7360621,6.3589387 57.777949,6.38355639 57.9805603,6.41953609 C58.15133,6.44415378 58.3579215,6.43468543 58.5889629,6.37030071 C58.6971865,6.34189568 58.82986,6.29644764 58.9282279,6.2566806 L59.3662398,6.06352642 L60.2701251,5.67911172 C60.8616592,5.43293482 61.4530037,5.18865159 62.0348716,4.94815569 L62.8762109,4.57889034 L63.2782114,4.38762983 C63.4241522,4.31567043 63.6286589,4.22288067 63.8162971,4.16038961 C64.5914891,3.88202035 65.5184975,3.94072407 66.2368295,4.26832871 C66.8300694,4.54101697 67.3512865,4.80234322 67.885771,5.0674568 C70.0142324,6.12601747 71.9948575,7.15427945 73.8276466,8.10490102 C74.0456101,8.22230846 74.2048182,8.29616153 74.3564451,8.3340349 C74.4246771,8.35486525 74.5516646,8.37569561 74.5950677,8.38137661 L74.9648476,8.40978164 C75.4557394,8.44576134 75.9371545,8.48363471 76.403407,8.51961441 C77.345199,8.59157381 78.2324053,8.65974588 79.0682481,8.72223694 C80.7397441,8.86804941 82.195551,8.99113786 83.3932132,9.09718329 C85.7891063,9.33578552 87.1556429,9.47023598 87.1556429,9.47023598" id="Fill-12" fill="#FFFFFF" mask="url(#mask-2)"></path>
                <path d="M60.7761016,42.2492753 C60.8507841,42.1767135 60.6650354,41.7738044 60.5558841,41.5179285 C59.7879953,39.6580543 59.8971465,37.5079327 59.8971465,35.3539922 L59.8971465,21.2655597 C59.8971465,21.0135028 59.8224641,20.9046601 59.5716076,20.9046601 L59.3877739,20.9046601 L59.3877739,36.2667436 C59.3877739,38.3462128 59.4203278,40.4944248 60.7761016,42.2492753 L60.7761016,42.2492753 Z M72.8152971,36.9942714 L72.8152971,20.8645601 L72.6695705,20.8645601 C72.4131608,20.8645601 72.301903,20.9390315 72.301903,21.2292788 L72.301903,36.4118672 C72.301903,40.421863 71.0956856,43.1257458 67.1085997,43.1257458 C67.1085997,43.2708694 67.5109275,43.2708694 67.7675288,43.2708694 C72.7061458,43.1620267 72.8152971,39.0756501 72.8152971,36.9942714 L72.8152971,36.9942714 Z M75.816,19.188 L75.816,34.8804308 C75.816,39.7344351 75.6723799,45.864 66.9268724,45.864 C58.1813649,45.864 58.032,39.7344351 58.032,34.8804308 L58.032,19.188 L62.4229456,19.188 C62.7561443,19.188 63.0089157,19.4419664 63.0089157,19.7341232 L63.0089157,36.2667436 C63.0089157,38.7090219 63.2291332,41.5923998 66.9268724,41.5923998 C70.6207817,41.5923998 70.8409992,38.7090219 70.8409992,36.2667436 L70.8409992,19.7341232 C70.8409992,19.4419664 71.0956856,19.188 71.4248629,19.188 L75.816,19.188 Z" id="Fill-13" fill="#FFFFFF" mask="url(#mask-2)"></path>
                <path d="M43.4904833,43.3837116 L43.4904833,21.1963264 C43.4904833,20.9107646 43.3793455,20.8374954 43.1664883,20.8374954 L42.9856539,20.8374954 L42.9856539,43.0248806 C42.9856539,43.3480164 43.1327702,43.3837116 43.345439,43.3837116 L43.4904833,43.3837116 Z M53.2461235,42.5570852 L53.2461235,42.4537569 C53.2461235,42.162559 53.1389415,42.0911685 52.8844547,42.0911685 L46.5138087,42.0911685 L46.5138087,42.5570852 L53.2461235,42.5570852 Z M55.224,41.302116 L55.224,44.928 L42.2304818,44.928 C41.9403932,44.928 41.652,44.7100712 41.652,44.3549976 L41.652,19.188 L45.9733775,19.188 C46.3706482,19.188 46.5495989,19.5111358 46.5495989,19.7253072 L46.5495989,40.7272349 L54.6475903,40.7272349 C54.973469,40.7272349 55.224,40.9789803 55.224,41.302116 L55.224,41.302116 Z" id="Fill-14" fill="#FFFFFF" mask="url(#mask-2)"></path>
                <path d="M18.9527787,42.7750187 L24.9003729,20.6947112 L24.6840933,20.6947112 C24.4298699,20.6947112 24.3900289,20.8036753 24.3198329,21.0535414 L18.3001455,43.1338489 L18.5562661,43.1338489 C18.8085923,43.1338489 18.8825827,43.0624586 18.9527787,42.7750187 L18.9527787,42.7750187 Z M29.6490382,37.2460274 L26.4579655,24.0369047 L23.5230133,37.2460274 L29.6490382,37.2460274 Z M31.7150776,39.0420572 C32.0072448,39.0420572 32.0393073,38.9706669 31.969301,38.6475318 L28.3817157,24.1778066 C28.3058281,23.9260618 28.2716787,23.8527928 27.7630422,23.8527928 L31.4267048,38.6137154 L23.2327433,38.6137154 L23.1225166,39.0420572 L31.7150776,39.0420572 Z M33.1645304,43.4588627 L32.5858876,41.1574647 L32.0393073,41.1574647 L32.5517382,43.1338489 C32.6219342,43.383715 32.6579808,43.4588627 32.9444564,43.4588627 L33.1645304,43.4588627 Z M29.9049691,19.9056604 L36.972,44.928 L32.1874778,44.928 C31.749227,44.928 31.458957,44.6781339 31.3508172,44.2836086 L30.5558948,41.0879531 L22.6522034,41.0879531 L21.9654208,44.2836086 C21.8553838,44.6781339 21.5290672,44.928 21.0946108,44.928 L16.38,44.928 L23.3010422,19.7628798 C23.4129763,19.4040496 23.7411901,19.188 24.1756465,19.188 L28.9962153,19.188 C29.466908,19.188 29.7949321,19.4754399 29.9049691,19.9056604 L29.9049691,19.9056604 Z" id="Fill-15" fill="#FFFFFF" mask="url(#mask-2)"></path>
                <path d="M11.2507612,35.5723247 C11.2507612,33.4647563 9.93095629,31.7976887 6.85205099,29.547717 C3.14796486,26.8629407 2.45353263,25.3743518 2.45353263,23.4167436 C2.45353263,19.678183 4.87042534,17.3541617 9.3825083,17.6446643 C9.41684625,17.5383366 8.79531022,17.2839094 8.35236989,17.2478339 C4.72846958,16.9896093 1.86633456,19.7123598 1.86633456,23.0521912 C1.83180478,25.5224512 2.74895408,27.0793937 6.59883261,29.8723965 C9.5283007,32.0122429 10.6599183,33.6489312 10.6599183,35.5723247 C10.6599183,38.3254546 8.90484636,40.6134005 5.6051423,40.3589733 C5.56888603,40.5412495 5.90056375,40.6874502 6.48565167,40.7216269 C9.3096121,40.9399786 11.2507612,38.3653275 11.2507612,35.5723247 M13.1232344,17.7946625 L13.1232344,20.3294407 C13.1232344,20.766144 13.048228,21.1287977 12.7549167,21.1287977 C12.6070142,21.1287977 12.4228553,21.0585454 12.1677186,20.9123447 C11.2145049,20.3674149 10.1534815,20.0807096 8.97755072,20.0807096 C6.41102898,20.0807096 4.98360628,21.637652 4.98360628,23.2705429 C4.98360628,25.1199247 6.59883261,26.2116831 8.39438112,27.4800215 C10.9574499,29.2230376 14.04,31.2565562 14.04,35.786879 C14.04,40.2849236 10.3721701,43.264 5.860279,43.264 C1.83180478,43.264 -4.73399098e-13,41.8475621 -4.73399098e-13,40.8336509 L-4.73399098e-13,38.2931765 C-4.73399098e-13,37.5317937 0.25686319,37.385593 0.512191723,37.385593 C0.656065802,37.385593 0.841951113,37.4558453 1.06274987,37.6381215 C2.12338958,38.5096295 3.80959379,39.2349368 5.31374933,39.2349368 C7.33163126,39.2349368 8.90484636,37.8203977 8.90484636,35.7166267 C8.90484636,33.6489312 6.99995354,32.2704675 4.94735001,30.7818787 C2.2711003,28.8565865 0.107234147,27.0793937 0.107234147,23.1604177 C0.143874079,18.5883234 4.39851836,16.12 7.98769706,16.12 C11.6190788,16.1598729 13.1232344,17.3161875 13.1232344,17.7946625" id="Fill-16" fill="#FFFFFF" mask="url(#mask-2)"></path>
            </g>
            <g id="Conaprole" transform="translate(0.000000, 3.900000)">
                <path d="M46.7387345,-8.06143031e-15 C66.1956218,-8.06143031e-15 81.7978909,2.20385455 89.9076218,4.27042909 L89.9354182,4.27042909 C92.2016727,4.92789818 93.4933527,6.47541818 93.4933527,8.49944727 L93.4933527,39.0731782 C93.4933527,42.9890618 92.4983564,43.79232 89.6376,45.0749236 C86.8227927,46.33824 72.5473745,49.9687855 54.2238982,44.5524655 C51.3818618,43.7043927 48.6413673,42.6589091 46.1153018,41.6650473 C26.9420509,41.6173964 11.5644218,39.4322618 3.57098182,37.4048291 L3.54318545,37.3906473 C1.44484364,36.7802618 0.163374545,35.3671855 0.0141818182,33.5218473 C0,33.2393455 0,30.9038836 0,8.49944727 C0,6.47541818 1.44257455,4.77870545 3.54318545,4.27042909 C12.9559418,2.00530909 27.2722036,-8.06143031e-15 46.7387345,-8.06143031e-15" id="Fill-1" fill="#FFFFFF"></path>
                <path d="M46.8414109,1.02874909 C68.0375821,1.02874909 82.8542866,3.55669745 89.3526147,5.15834871 L89.7924655,5.26854545 C91.3377164,5.71896 92.5136727,6.72813818 92.5136727,8.43789818 L92.5136727,8.43789818 L92.5136727,29.0106109 L91.7081455,29.3827418 C84.7562182,32.56968 70.2726109,39.1886182 46.0665164,31.8855491 C24.8113745,25.4713964 8.89937455,27.4222473 1.14986182,29.2176655 L1.14986182,29.2176655 L1.14986182,8.43789818 C1.14986182,6.72813818 2.34964364,5.71896 3.9,5.26854545 C10.1666618,3.67564364 25.1704582,1.02874909 46.8414109,1.02874909 Z M51.6369076,12.9497585 C51.1898967,12.9662095 50.7627404,13.1006531 50.3679185,13.2929585 C49.6435113,13.6798385 49.0473076,14.3055404 48.6598604,14.8864276 L48.5980276,14.8682749 C48.7216931,14.5142967 49.0473076,13.4109513 49.0473076,13.4109513 L46.6806458,13.4109513 C46.6806458,13.4109513 45.5194385,23.4420349 45.2947985,25.2283767 L47.9167331,25.2283767 L48.3728204,21.435024 C48.8810967,21.7186604 49.6435113,21.9268495 50.310624,21.9268495 L50.3679185,21.9268495 C52.9422022,21.8962167 54.6593367,19.800144 54.9106385,17.1895549 C54.9248204,17.116944 54.9248204,17.0568131 54.9248204,16.9847695 L54.9248204,16.3885658 C54.8232785,14.452464 53.6002385,12.8901949 51.6369076,12.9497585 Z M14.9783258,10.5850255 C11.1628495,10.5850255 8.75420945,12.8478764 8.412144,16.2571855 C8.05192582,19.7998036 9.94321309,22.1188145 13.4699476,22.1188145 C14.8416131,22.1188145 16.1514458,21.8380145 17.160624,21.1674982 L16.3290022,19.2750764 C15.6182095,19.5433964 14.9295404,19.8559636 14.0065876,19.8559636 C12.0285076,19.8559636 11.0147913,18.2948291 11.2087985,16.3292291 C11.4175549,14.2331564 13.0393876,12.8478764 15.0186022,12.8478764 C15.6618895,12.8478764 16.5655549,13.03848 17.1299913,13.4111782 L18.1595913,11.3746691 C17.5214095,10.9095055 16.3891331,10.5850255 14.9783258,10.5850255 Z M75.3031855,10.8209542 L72.5184436,10.8209542 C72.5184436,10.8209542 71.7605673,18.2204596 71.6130764,19.6800524 C71.3578036,22.2384524 74.2321745,22.2237033 75.5550545,21.8073251 L75.7218327,20.0788451 C74.9628218,20.3188015 74.3473309,20.0351651 74.3819345,19.6800524 L75.3031855,10.8209542 Z M22.6983404,12.949872 C22.5366676,12.949872 22.3846385,12.949872 22.239984,12.9663229 C19.5635913,13.1586284 17.996784,15.0482138 17.740944,17.4477775 C17.740944,17.5527229 17.7250604,17.6582356 17.7250604,17.7575084 L17.7250604,18.3219447 C17.8334095,20.4202865 19.1863549,21.9269629 21.7901367,21.9269629 C21.9415985,21.9269629 22.0890895,21.9269629 22.239984,21.910512 C24.9316931,21.7182065 26.4928276,19.8428029 26.732784,17.4477775 C26.7469658,17.3405629 26.7469658,17.236752 26.7611476,17.1471229 L26.7611476,16.5668029 C26.6448567,14.4701629 25.3021222,12.949872 22.6983404,12.949872 Z M66.8468509,12.949872 C66.6970909,12.949872 66.5518691,12.949872 66.3987055,12.9663229 C63.7109673,13.1586284 62.1452945,15.0482138 61.9059055,17.4477775 C61.8905891,17.5527229 61.8905891,17.6582356 61.87584,17.7575084 L61.87584,18.3219447 C61.9955345,20.4202865 63.3365673,21.9269629 65.9414836,21.9269629 C66.1014545,21.9269629 66.2540509,21.9269629 66.3987055,21.910512 C69.0847418,21.7182065 70.6464436,19.8428029 70.8971782,17.4477775 C70.8971782,17.3405629 70.9153309,17.236752 70.9153309,17.1471229 L70.9153309,16.5668029 C70.8086836,14.4701629 69.4557382,12.949872 66.8468509,12.949872 Z M80.8874182,12.9497018 C80.7677236,12.9497018 80.6588073,12.9497018 80.5464873,12.9661527 C78.2081891,13.1420073 76.3310836,15.2114182 76.0911273,17.6268655 C76.0786473,17.7159273 76.0786473,17.8197382 76.0786473,17.9082327 L76.0786473,18.3966545 C76.1671418,20.2561745 77.3300509,21.9267927 79.9037673,21.9267927 C80.1125236,21.9267927 80.3388655,21.9103418 80.5464873,21.89616 C81.6606109,21.7764655 82.8218182,21.3754036 83.6704582,20.6907055 L82.9267636,19.0098764 C82.1218036,19.54368 81.5437527,19.8426327 80.5703127,19.8426327 L80.5464873,19.8426327 C79.0398109,19.8426327 78.7561745,18.7415564 78.8191418,18.0982691 L84.38352,18.0982691 C84.6694255,15.2114182 83.9382109,12.9497018 80.8874182,12.9497018 Z M40.5900087,13.1278822 C39.5955796,13.3071404 38.5676815,13.6321876 37.8965978,13.9770895 L38.5240015,15.6579185 C39.1474342,15.4037804 39.8939651,15.1677949 40.5900087,15.0804349 C40.7721033,15.0645513 40.9309396,15.0481004 41.0982851,15.0481004 C41.6218778,15.0481004 41.9469251,15.3618022 41.8890633,16.0317513 L41.8527578,16.3437513 C41.4250342,16.3885658 40.9939069,16.4475622 40.5900087,16.5071258 C40.2921905,16.5672567 40.010256,16.6268204 39.8060378,16.6869513 C38.0316087,17.1470095 37.0332087,17.8050458 36.8686996,19.5312567 C36.8686996,19.5601876 36.8573542,19.5874167 36.8573542,19.6180495 L36.8573542,20.0349949 C36.9441469,21.2262676 37.8642633,21.9268495 39.1315505,21.9268495 C39.623376,21.9268495 40.1299505,21.7924058 40.5900087,21.5830822 C40.9519287,21.435024 41.2809469,21.2262676 41.5589105,21.0316931 C41.6059942,21.6290313 42.0927142,21.9268495 42.8403796,21.9268495 C43.1960596,21.9268495 43.9828669,21.8377876 44.4888742,21.6891622 L44.7146487,19.9028204 C44.6380669,19.9334531 44.5790705,19.9447985 44.5359578,19.9447985 C44.1763069,19.9447985 44.1031287,19.6946313 44.1331942,19.3803622 L44.5359578,15.3181222 C44.6987651,13.7082022 43.8058778,12.9786895 42.3179215,12.9497585 C41.794896,12.9350095 41.1992596,13.0076204 40.5900087,13.1278822 Z M33.7432538,12.9497585 C32.3023811,12.9662095 31.1099738,14.1983258 30.3946429,14.9448567 L30.3191956,14.9448567 C30.2874284,14.9153585 30.7985411,13.3939331 30.7985411,13.3939331 L28.3723156,13.3939331 L27.4317775,21.6290313 L30.2029047,21.6290313 L30.8104538,16.2110095 C31.2132175,15.8541949 31.8973484,15.450864 32.343792,15.450864 C33.1617993,15.450864 33.2962429,15.987504 33.2241993,16.6557513 C33.0449411,18.3967113 32.8656829,20.0349949 32.6886938,21.6290313 L35.4552829,21.6290313 C35.6629047,19.800144 35.8733629,17.953104 36.0361702,16.2274604 C36.2727229,13.9317076 35.4399665,12.9208276 33.7432538,12.9497585 Z M61.9053382,12.9497585 C60.4786473,12.9662095 59.2873745,14.1983258 58.5720436,14.9448567 L58.4829818,14.9448567 C58.4682327,14.9153585 58.9759418,13.3939331 58.9759418,13.3939331 L56.5510211,13.3939331 L55.6104829,21.6290313 L58.3797382,21.6290313 L58.98672,16.2110095 C59.3934545,15.8541949 60.06,15.450864 60.5075782,15.450864 C60.7611491,15.450864 60.9381382,15.4962458 61.4299636,15.6703985 L62.2462691,12.9786895 C62.0568,12.9497585 61.9773818,12.9497585 61.9053382,12.9497585 Z M41.7069687,17.7885949 L41.5413251,19.4983549 C41.5129615,19.6492495 41.0829687,19.9447985 40.5900087,20.0202458 C40.5179651,20.0349949 40.4436524,20.0480422 40.3665033,20.0480422 C39.9223287,20.0480422 39.4282342,19.7644058 39.4719142,19.2005367 C39.548496,18.5305876 40.0522342,18.1459767 40.5900087,17.9684204 C40.815216,17.9082895 41.0217033,17.8612058 41.2304596,17.8487258 C41.4539651,17.8339767 41.6059942,17.8050458 41.7069687,17.7885949 Z M50.666304,15.2716058 C51.9625222,15.2716058 52.2847331,16.3114167 52.1729804,17.4890749 C52.0498822,18.683184 51.458784,19.7071113 50.3679185,19.9028204 C50.2516276,19.9158676 50.1228567,19.9334531 49.9838749,19.9334531 C49.5476422,19.9334531 48.9576785,19.800144 48.5554822,19.4421949 L48.975264,15.8865295 C49.461984,15.5870095 49.9231767,15.3782531 50.3679185,15.2999695 C50.4711622,15.2874895 50.5795113,15.2716058 50.666304,15.2716058 Z M22.4759695,15.1548611 C23.799984,15.1548611 24.0677367,16.3438647 23.9639258,17.4477775 C23.8595476,18.4875884 23.400624,19.6034138 22.239984,19.7378575 C22.1622676,19.7378575 22.0890895,19.7526065 22.0142095,19.7526065 C20.6879258,19.7526065 20.4065585,18.5488538 20.5228495,17.4477775 C20.630064,16.419312 21.0895549,15.3000829 22.239984,15.1673411 C22.3120276,15.1548611 22.4050604,15.1548611 22.4759695,15.1548611 Z M66.6233455,15.1548611 C67.9467927,15.1548611 68.2366691,16.3438647 68.1124364,17.4477775 C68.0125964,18.4875884 67.548,19.6034138 66.3987055,19.7378575 C66.3272291,19.7378575 66.2540509,19.7526065 66.1661236,19.7526065 C64.8387055,19.7526065 64.5737891,18.5488538 64.6798691,17.4477775 C64.7791418,16.419312 65.2403345,15.3000829 66.3987055,15.1673411 C66.4786909,15.1548611 66.5518691,15.1548611 66.6233455,15.1548611 Z M80.9061382,14.7502255 C81.8404364,14.7502255 82.1535709,15.5273891 82.0628073,16.4021236 L79.0239273,16.4021236 C79.2485673,15.6703418 79.8266182,14.9754327 80.5464873,14.7956073 C80.6588073,14.7666764 80.7819055,14.7502255 80.9061382,14.7502255 Z" id="Combined-Shape" fill="#0D744E"></path>
                <path d="M1.28073164,33.9075927 C1.59159709,35.1283636 2.61949527,35.8896436 3.89982982,36.2742545 C9.80797527,37.7661818 23.5331389,40.2060218 43.3008916,40.4760436 C33.0582153,36.3809018 21.3162371,31.9158982 1.28073164,33.9075927" id="Fill-3" fill="#0D744E"></path>
                <path d="M92.5857164,30.2031316 C85.7546182,33.3106516 70.8387491,40.5172844 45.7595084,32.9396553 C22.4599156,25.9156844 5.90973382,29.2177789 1.14974836,30.368208 L1.14974836,32.8233644 C28.7123956,30.0539389 40.546272,39.2840335 54.6594502,43.4654007 C73.3245382,49.0031171 87.22896,45.001008 89.3409164,44.0445862 C91.9140655,42.8828116 92.5857164,42.405168 92.5857164,39.0457789 L92.5857164,30.2031316 Z" id="Fill-4" fill="#0D744E"></path>
            </g>
        </g>
    </g>
</svg>