<svg id="eo64gf1itflh1" xmlns="http://www.w3.org/2000/svg" xmlns:xlink="http://www.w3.org/1999/xlink" viewBox="0 0 375 500" shape-rendering="geometricPrecision" text-rendering="geometricPrecision"><style><![CDATA[#eo64gf1itflh50_to {animation: eo64gf1itflh50_to__to 1500ms linear infinite normal forwards}@keyframes eo64gf1itflh50_to__to { 0% {transform: translate(0px,22px)} 6.666667% {transform: translate(0px,22px)} 26.666667% {transform: translate(0px,9px);animation-timing-function: cubic-bezier(0.250000,1,0.250000,1)} 60% {transform: translate(1.004200px,-66.707659px);animation-timing-function: cubic-bezier(0.420000,0,0.580000,1)} 100% {transform: translate(0px,21px)} }#eo64gf1itflh50_ts {animation: eo64gf1itflh50_ts__ts 1500ms linear infinite normal forwards}@keyframes eo64gf1itflh50_ts__ts { 0% {transform: scale(1,0.800000)} 6.666667% {transform: scale(1,0.800000)} 26.666667% {transform: scale(1,0.925000);animation-timing-function: cubic-bezier(0.470000,0,0.745000,0.715000)} 66.666667% {transform: scale(1,1.030000);animation-timing-function: cubic-bezier(0.420000,0,0.580000,1)} 100% {transform: scale(1,0.810000)} }]]></style><g id="eo64gf1itflh2"><rect id="eo64gf1itflh3" width="375" height="500" rx="0" ry="0" fill="rgb(13,116,78)" fill-rule="evenodd" stroke="none" stroke-width="1"/><g id="eo64gf1itflh4" transform="matrix(1 0 0 1 0 291)"><path id="eo64gf1itflh5" d="M204.802200,62.005900C204.802200,77.385900,217.270200,89.853900,232.650200,89.853900C248.031200,89.853900,260.499200,77.385900,260.499200,62.005900C260.499200,46.625900,248.031200,34.157900,232.650200,34.157900C217.270200,34.157900,204.802200,46.625900,204.802200,62.005900" fill="rgb(13,99,62)" fill-rule="evenodd" stroke="none" stroke-width="1"/><path id="eo64gf1itflh6" d="M252.393300,71.637000C252.393300,81.698000,260.549300,89.854000,270.610300,89.854000C280.671300,89.854000,288.828300,81.698000,288.828300,71.637000C288.828300,61.576000,280.671300,53.420000,270.610300,53.420000C260.549300,53.420000,252.393300,61.576000,252.393300,71.637000" fill="rgb(13,99,62)" fill-rule="evenodd" stroke="none" stroke-width="1"/><path id="eo64gf1itflh7" d="M191.960200,71.637000C191.960200,81.698000,200.116200,89.854000,210.177200,89.854000C220.238200,89.854000,228.395200,81.698000,228.395200,71.637000C228.395200,61.576000,220.238200,53.420000,210.177200,53.420000C200.116200,53.420000,191.960200,61.576000,191.960200,71.637000" fill="rgb(13,99,62)" fill-rule="evenodd" stroke="none" stroke-width="1"/><polygon id="eo64gf1itflh8" points="209.047000,89.655800 270.610000,89.655800 270.610000,71.666800 209.047000,71.666800" fill="rgb(13,99,62)" fill-rule="evenodd" stroke="none" stroke-width="1"/><path id="eo64gf1itflh9" d="M175.619300,62.080900C175.619300,77.419900,163.184300,89.853900,147.846300,89.853900C132.507300,89.853900,120.072300,77.419900,120.072300,62.080900C120.072300,46.741900,132.507300,34.307900,147.846300,34.307900C163.184300,34.307900,175.619300,46.741900,175.619300,62.080900" fill="rgb(13,99,62)" fill-rule="evenodd" stroke="none" stroke-width="1"/><path id="eo64gf1itflh10" d="M128.156500,71.686000C128.156500,81.720000,120.022500,89.854000,109.988500,89.854000C99.954500,89.854000,91.820500,81.720000,91.820500,71.686000C91.820500,61.652000,99.954500,53.518000,109.988500,53.518000C120.022500,53.518000,128.156500,61.652000,128.156500,71.686000" fill="rgb(13,99,62)" fill-rule="evenodd" stroke="none" stroke-width="1"/><path id="eo64gf1itflh11" d="M188.426800,71.686000C188.426800,81.720000,180.292800,89.854000,170.258800,89.854000C160.224800,89.854000,152.090800,81.720000,152.090800,71.686000C152.090800,61.652000,160.224800,53.518000,170.258800,53.518000C180.292800,53.518000,188.426800,61.652000,188.426800,71.686000" fill="rgb(13,99,62)" fill-rule="evenodd" stroke="none" stroke-width="1"/><polygon id="eo64gf1itflh12" points="109.989000,89.625800 171.386000,89.625800 171.386000,71.685800 109.989000,71.685800" fill="rgb(13,99,62)" fill-rule="evenodd" stroke="none" stroke-width="1"/><polygon id="eo64gf1itflh13" points="108.900000,89.655800 270.611000,89.655800 270.611000,71.666800 108.900000,71.666800" fill="rgb(13,99,62)" fill-rule="evenodd" stroke="none" stroke-width="1"/><path id="eo64gf1itflh14" d="M274.354100,33.869900C274.354100,21.239063,264.114937,10.999900,251.484100,10.999900C238.853263,10.999900,228.614100,21.239063,228.614100,33.869900C228.614100,46.500737,238.853263,56.739900,251.484100,56.739900C264.114937,56.739900,274.354100,46.500737,274.354100,33.869900" fill="rgb(13,99,62)" fill-rule="evenodd" stroke="none" stroke-width="1"/><path id="eo64gf1itflh15" d="M295.729800,54.020500C295.729800,44.742500,288.208800,37.220500,278.929800,37.220500C269.651800,37.220500,262.130800,44.742500,262.130800,54.020500C262.130800,63.298500,269.651800,70.820500,278.929800,70.820500C288.208800,70.820500,295.729800,63.298500,295.729800,54.020500" fill="rgb(13,99,62)" fill-rule="evenodd" stroke="none" stroke-width="1"/><path id="eo64gf1itflh16" d="M323.993300,38.093600L323.993300,38.093600C319.923300,38.093600,316.624300,41.392600,316.624300,45.462600L316.624300,75.059600C316.624300,79.128600,319.923300,82.428600,323.993300,82.428600C328.063300,82.428600,331.362300,79.128600,331.362300,75.059600L331.362300,45.462600C331.362300,41.392600,328.063300,38.093600,323.993300,38.093600" fill="rgb(13,99,62)" fill-rule="evenodd" stroke="none" stroke-width="1"/><path id="eo64gf1itflh17" d="M263.699500,59.746000L262.269500,59.746000C261.690500,59.746000,261.221500,60.215000,261.221500,60.793000L261.221500,88.098000C261.221500,88.676000,261.690500,89.145000,262.269500,89.145000L263.699500,89.145000C264.277500,89.145000,264.746500,88.676000,264.746500,88.098000L264.746500,60.793000C264.746500,60.215000,264.277500,59.746000,263.699500,59.746000" fill="rgb(13,99,62)" fill-rule="evenodd" stroke="none" stroke-width="1"/><path id="eo64gf1itflh18" d="M324.708400,59.746000L323.278400,59.746000C322.699400,59.746000,322.230400,60.215000,322.230400,60.793000L322.230400,88.098000C322.230400,88.676000,322.699400,89.145000,323.278400,89.145000L324.708400,89.145000C325.286400,89.145000,325.755400,88.676000,325.755400,88.098000L325.755400,60.793000C325.755400,60.215000,325.286400,59.746000,324.708400,59.746000" fill="rgb(13,99,62)" fill-rule="evenodd" stroke="none" stroke-width="1"/><path id="eo64gf1itflh19" d="M235.267400,71.578100C235.267400,81.579100,243.374400,89.687100,253.376400,89.687100C263.377400,89.687100,271.484400,81.579100,271.484400,71.578100C271.484400,61.577100,263.377400,53.469100,253.376400,53.469100C243.374400,53.469100,235.267400,61.577100,235.267400,71.578100" fill="rgb(13,99,62)" fill-rule="evenodd" stroke="none" stroke-width="1"/><path id="eo64gf1itflh20" d="M266.213700,77.840700C266.213700,84.382700,271.517700,89.686700,278.059700,89.686700C284.601700,89.686700,289.905700,84.382700,289.905700,77.840700C289.905700,71.298700,284.601700,65.994700,278.059700,65.994700C271.517700,65.994700,266.213700,71.298700,266.213700,77.840700" fill="rgb(13,99,62)" fill-rule="evenodd" stroke="none" stroke-width="1"/><path id="eo64gf1itflh21" d="M226.916800,77.840700C226.916800,84.382700,232.220800,89.686700,238.762800,89.686700C245.304800,89.686700,250.608800,84.382700,250.608800,77.840700C250.608800,71.298700,245.304800,65.994700,238.762800,65.994700C232.220800,65.994700,226.916800,71.298700,226.916800,77.840700" fill="rgb(13,99,62)" fill-rule="evenodd" stroke="none" stroke-width="1"/><polygon id="eo64gf1itflh22" points="238,89.697000 278.032000,89.697000 278.032000,78 238,78" fill="rgb(13,99,62)" fill-rule="evenodd" stroke="none" stroke-width="1"/><polygon id="eo64gf1itflh23" points="47.489800,89.697000 108.521800,89.697000 108.521800,78 47.489800,78" fill="rgb(13,99,62)" fill-rule="evenodd" stroke="none" stroke-width="1"/><path id="eo64gf1itflh24" d="M283,80.465000C283,85.692000,287.238000,89.930000,292.465000,89.930000C297.693000,89.930000,301.930000,85.692000,301.930000,80.465000C301.930000,75.238000,297.693000,71,292.465000,71C287.238000,71,283,75.238000,283,80.465000" fill="rgb(13,99,62)" fill-rule="evenodd" stroke="none" stroke-width="1"/><path id="eo64gf1itflh25" d="M80,72.465000C80,77.692000,84.238000,81.930000,89.465000,81.930000C94.693000,81.930000,98.930000,77.692000,98.930000,72.465000C98.930000,67.238000,94.693000,63,89.465000,63C84.238000,63,80,67.238000,80,72.465000" fill="rgb(13,99,62)" fill-rule="evenodd" stroke="none" stroke-width="1"/><path id="eo64gf1itflh26" d="M53,75.465000C53,80.692000,57.238000,84.930000,62.465000,84.930000C67.693000,84.930000,71.930000,80.692000,71.930000,75.465000C71.930000,70.238000,67.693000,66,62.465000,66C57.238000,66,53,70.238000,53,75.465000" fill="rgb(13,99,62)" fill-rule="evenodd" stroke="none" stroke-width="1"/><path id="eo64gf1itflh27" d="M299.197600,83.494800C299.197600,86.914800,301.969600,89.686800,305.389600,89.686800C308.808600,89.686800,311.581600,86.914800,311.581600,83.494800C311.581600,80.074800,308.808600,77.302800,305.389600,77.302800C301.969600,77.302800,299.197600,80.074800,299.197600,83.494800" fill="rgb(13,99,62)" fill-rule="evenodd" stroke="none" stroke-width="1"/><path id="eo64gf1itflh28" d="M278.657400,83.494800C278.657400,86.914800,281.429400,89.686800,284.849400,89.686800C288.268400,89.686800,291.040400,86.914800,291.040400,83.494800C291.040400,80.074800,288.268400,77.302800,284.849400,77.302800C281.429400,77.302800,278.657400,80.074800,278.657400,83.494800" fill="rgb(13,99,62)" fill-rule="evenodd" stroke="none" stroke-width="1"/><polygon id="eo64gf1itflh29" points="284.465000,89.608800 305.389000,89.608800 305.389000,83.494800 284.465000,83.494800" fill="rgb(13,99,62)" fill-rule="evenodd" stroke="none" stroke-width="1"/><path id="eo64gf1itflh30" d="M56.194500,42L56.194500,42C58.515500,42,60.396500,43.882000,60.396500,46.202000L60.396500,84.337000C60.396500,86.658000,58.515500,88.539000,56.194500,88.539000L56.194500,88.539000C53.873500,88.539000,51.992500,86.658000,51.992500,84.337000L51.992500,46.202000C51.992500,43.882000,53.873500,42,56.194500,42" fill="rgb(13,99,62)" fill-rule="evenodd" stroke="none" stroke-width="1"/><path id="eo64gf1itflh31" d="M46.323300,51L46.323300,51C48.644300,51,50.525300,52.882000,50.525300,55.202000L50.525300,84.366000C50.525300,86.687000,48.644300,88.569000,46.323300,88.569000L46.323300,88.569000C44.002300,88.569000,42.121300,86.687000,42.121300,84.366000L42.121300,55.202000C42.121300,52.882000,44.002300,51,46.323300,51" fill="rgb(13,99,62)" fill-rule="evenodd" stroke="none" stroke-width="1"/><path id="eo64gf1itflh32" d="M99.198500,37.158300L100.719500,37.158300C103.799500,37.158300,106.296500,39.655300,106.296500,42.735300L106.296500,73.488300C106.296500,76.568300,103.799500,79.065300,100.719500,79.065300L99.198500,79.065300C96.118500,79.065300,93.621500,76.568300,93.621500,73.488300L93.621500,42.735300C93.621500,39.655300,96.118500,37.158300,99.198500,37.158300" fill="rgb(13,99,62)" fill-rule="evenodd" stroke="none" stroke-width="1"/><path id="eo64gf1itflh33" d="M73.504000,29L73.504000,29C79.305000,29,84.008000,33.703000,84.008000,39.504000L84.008000,68.783000C84.008000,74.585000,79.305000,79.288000,73.504000,79.288000L73.504000,79.288000C67.703000,79.288000,63,74.585000,63,68.783000L63,39.504000C63,33.703000,67.703000,29,73.504000,29" fill="rgb(13,99,62)" fill-rule="evenodd" stroke="none" stroke-width="1"/><path id="eo64gf1itflh34" d="M72.047000,45L74.977000,45C75.556000,45,76.024000,45.469000,76.024000,46.047000L76.024000,85.860000C76.024000,86.438000,75.556000,86.907000,74.977000,86.907000L72.047000,86.907000C71.469000,86.907000,71,86.438000,71,85.860000L71,46.047000C71,45.469000,71.469000,45,72.047000,45" fill="rgb(13,99,62)" fill-rule="evenodd" stroke="none" stroke-width="1"/></g><g id="eo64gf1itflh35" transform="matrix(1 0 0 1 34 52)"><g id="eo64gf1itflh36" transform="matrix(1 0 0 1 208 161.80499267578125)"><path id="eo64gf1itflh37" d="M75.435900,0.311200C67.053900,0.311200,59.344900,4.000200,53.184900,7.000200L53.153900,7.000200C49.790900,9.000200,45.229900,10.812200,40.721900,10.812200C37.454900,10.812200,35.142900,9.934200,31.757900,8.558200C28.507900,7.183200,24.816900,6.848200,20.897900,6.848200C12.083900,6.848200,4.410900,9.085200,0.357900,19.000200L31.104900,19.000200L41.437900,19.000200L43.583900,19.000200L52.630900,19.000200L107.287900,19.000200C101.026900,4.678200,89.118900,0.311200,75.435900,0.311200" fill="rgb(105,180,130)" fill-rule="evenodd" stroke="none" stroke-width="1"/></g><path id="eo64gf1itflh38" d="M270.750200,70.901300C266.520200,70.901300,262.629200,71.805300,259.521200,74.805300L259.505200,74.805300C257.808200,74.805300,255.506200,76.762300,253.231200,76.762300C251.582200,76.762300,250.415200,76.336300,248.707200,75.642300C247.067200,74.948300,245.204200,74.225300,243.226200,74.225300C238.778200,74.225300,234.906200,74.805300,232.860200,79.805300L248.377200,79.805300L253.592200,79.805300L254.675200,79.805300L259.241200,79.805300L286.825200,79.805300C283.665200,73.805300,277.655200,70.901300,270.750200,70.901300" fill="rgb(105,180,130)" fill-rule="evenodd" stroke="none" stroke-width="1"/><path id="eo64gf1itflh39" d="M57.248400,127.129600C50.856400,127.129600,44.978400,127.804600,40.281400,133.804600L40.258400,133.804600C37.693400,133.804600,34.216400,135.623600,30.778400,135.623600C28.287400,135.623600,26.524400,134.410600,23.942400,133.361600C21.464400,132.312600,18.650400,131.297600,15.662400,131.297600C8.941400,131.297600,3.090400,133.361600,0.000400,139.804600L23.445400,139.804600L31.324400,139.804600L32.961400,139.804600L39.859400,139.804600L81.535400,139.804600C76.762400,131.213600,67.682400,127.129600,57.248400,127.129600" fill="rgb(105,180,130)" fill-rule="evenodd" stroke="none" stroke-width="1"/><path id="eo64gf1itflh40" d="M77.418400,59.451500C77.418400,59.451500,77.116400,59.558500,76.654400,59.734500C76.188400,59.919500,75.559400,60.192500,74.859400,60.495500C74.508400,60.669500,74.137400,60.814500,73.755400,61.011500C73.379400,61.192500,72.983400,61.383500,72.573400,61.580500C72.169400,61.778500,71.762400,62.003500,71.340400,62.198500C70.935400,62.447500,70.493400,62.611500,70.082400,62.866500C69.661400,63.099500,69.225400,63.296500,68.810400,63.541500C68.400400,63.792500,67.950400,63.963500,67.550400,64.209500C67.142400,64.440500,66.723400,64.636500,66.322400,64.832500C65.933400,65.044500,65.549400,65.233500,65.180400,65.401500C64.803400,65.560500,64.460400,65.718500,64.154400,65.863500C63.845400,66.004500,63.552400,66.109500,63.313400,66.202500C62.832400,66.385500,62.517400,66.463500,62.517400,66.463500C62.517400,66.463500,62.573400,66.157500,62.742400,65.663500C62.919400,65.177500,63.152400,64.450500,63.626400,63.725500C63.854400,63.355500,64.117400,62.962500,64.412400,62.558500C64.726400,62.173500,65.084400,61.786500,65.467400,61.398500C65.839400,60.997500,66.301400,60.661500,66.758400,60.312500C67.203400,59.942500,67.739400,59.678500,68.246400,59.376500C68.762400,59.090500,69.330400,58.880500,69.874400,58.670500C70.436400,58.489500,70.998400,58.334500,71.555400,58.244500C72.669400,58.050500,73.747400,58.081500,74.641400,58.231500C75.543400,58.398500,76.257400,58.687500,76.725400,58.957500C77.196400,59.223500,77.418400,59.451500,77.418400,59.451500" fill="rgb(105,180,130)" fill-rule="evenodd" stroke="none" stroke-width="1"/><path id="eo64gf1itflh41" d="M48.053700,59.451500C48.053700,59.451500,48.275700,59.223500,48.746700,58.957500C49.214700,58.687500,49.928700,58.398500,50.830700,58.231500C51.724700,58.081500,52.802700,58.050500,53.916700,58.244500C54.473700,58.334500,55.035700,58.489500,55.597700,58.670500C56.141700,58.880500,56.709700,59.090500,57.224700,59.376500C57.732700,59.678500,58.268700,59.942500,58.713700,60.312500C59.170700,60.661500,59.632700,60.997500,60.004700,61.398500C60.387700,61.786500,60.745700,62.173500,61.059700,62.558500C61.354700,62.962500,61.617700,63.355500,61.845700,63.725500C62.318700,64.450500,62.552700,65.177500,62.729700,65.663500C62.898700,66.157500,62.954700,66.463500,62.954700,66.463500C62.954700,66.463500,62.639700,66.385500,62.158700,66.202500C61.919700,66.109500,61.626700,66.004500,61.317700,65.863500C61.011700,65.718500,60.668700,65.560500,60.291700,65.401500C59.922700,65.233500,59.538700,65.044500,59.149700,64.832500C58.748700,64.636500,58.329700,64.440500,57.921700,64.209500C57.521700,63.963500,57.070700,63.792500,56.661700,63.541500C56.246700,63.296500,55.810700,63.099500,55.389700,62.866500C54.978700,62.611500,54.536700,62.447500,54.131700,62.198500C53.709700,62.003500,53.302700,61.778500,52.898700,61.580500C52.488700,61.383500,52.092700,61.192500,51.716700,61.011500C51.334700,60.814500,50.963700,60.669500,50.612700,60.495500C49.912700,60.192500,49.283700,59.919500,48.817700,59.734500C48.355700,59.558500,48.053700,59.451500,48.053700,59.451500" fill="rgb(105,180,130)" fill-rule="evenodd" stroke="none" stroke-width="1"/><path id="eo64gf1itflh42" d="M39.288200,74.723000C39.288200,74.723000,39.123200,74.784000,38.835200,74.891000C38.558200,74.999000,38.185200,75.157000,37.770200,75.342000C37.353200,75.537000,36.892200,75.748000,36.414200,75.986000C36.176200,76.105000,35.931200,76.228000,35.682200,76.353000C35.442200,76.500000,35.179200,76.598000,34.936200,76.749000C34.686200,76.887000,34.427200,77.004000,34.181200,77.150000C33.938200,77.298000,33.671200,77.400000,33.433200,77.546000C32.939200,77.804000,32.461200,78.047000,32.027200,78.253000C31.577200,78.438000,31.214200,78.630000,30.920200,78.728000C30.634200,78.837000,30.447200,78.883000,30.447200,78.883000C30.447200,78.883000,30.481200,78.701000,30.581200,78.409000C30.687200,78.121000,30.828200,77.692000,31.105200,77.258000C31.368200,76.811000,31.731200,76.328000,32.198200,75.878000C32.418200,75.640000,32.692200,75.441000,32.964200,75.233000C33.228200,75.015000,33.546200,74.858000,33.847200,74.679000C34.468200,74.350000,35.150200,74.120000,35.810200,74.007000C36.471200,73.892000,37.110200,73.910000,37.641200,73.999000C38.175200,74.104000,38.599200,74.271000,38.877200,74.430000C39.157200,74.588000,39.288200,74.723000,39.288200,74.723000" fill="rgb(105,180,130)" fill-rule="evenodd" stroke="none" stroke-width="1"/><path id="eo64gf1itflh43" d="M21.866600,74.723000C21.866600,74.723000,21.997600,74.588000,22.277600,74.430000C22.555600,74.271000,22.979600,74.104000,23.513600,73.999000C24.044600,73.910000,24.683600,73.892000,25.344600,74.007000C26.004600,74.120000,26.686600,74.350000,27.307600,74.679000C27.608600,74.858000,27.926600,75.015000,28.190600,75.233000C28.462600,75.441000,28.736600,75.640000,28.956600,75.878000C29.423600,76.328000,29.786600,76.811000,30.049600,77.258000C30.326600,77.692000,30.467600,78.121000,30.573600,78.409000C30.673600,78.701000,30.707600,78.883000,30.707600,78.883000C30.707600,78.883000,30.520600,78.837000,30.234600,78.728000C29.940600,78.630000,29.577600,78.438000,29.127600,78.253000C28.693600,78.047000,28.215600,77.804000,27.721600,77.546000C27.483600,77.400000,27.216600,77.298000,26.973600,77.150000C26.727600,77.004000,26.468600,76.887000,26.218600,76.749000C25.975600,76.598000,25.712600,76.500000,25.472600,76.353000C25.223600,76.228000,24.978600,76.105000,24.740600,75.986000C24.262600,75.748000,23.801600,75.537000,23.384600,75.342000C22.969600,75.157000,22.596600,74.999000,22.319600,74.891000C22.031600,74.784000,21.866600,74.723000,21.866600,74.723000" fill="rgb(105,180,130)" fill-rule="evenodd" stroke="none" stroke-width="1"/><path id="eo64gf1itflh44" d="M129.105300,0.000400C122.958300,0.000400,117.306300,0.805400,112.789300,5.805400L112.766300,5.805400C110.300300,5.805400,106.955300,7.904400,103.649300,7.904400C101.254300,7.904400,99.559300,6.912400,97.076300,5.903400C94.693300,4.894400,91.987300,4.271400,89.113300,4.271400C82.649300,4.271400,77.023300,5.805400,74.051300,12.805400L96.597300,12.805400L104.175300,12.805400L105.749300,12.805400L112.382300,12.805400L152.461300,12.805400C147.871300,4.805400,139.139300,0.000400,129.105300,0.000400" fill="rgb(105,180,130)" fill-rule="evenodd" stroke="none" stroke-width="1"/><path id="eo64gf1itflh45" d="M290.544700,18.396100C290.544700,18.396100,290.268700,18.494100,289.846700,18.655100C289.640700,18.738100,289.391700,18.840100,289.105700,18.956100C288.829700,19.061100,288.524700,19.224100,288.204700,19.351100C287.562700,19.650100,286.852700,19.975100,286.115700,20.342100C285.746700,20.523100,285.373700,20.729100,284.987700,20.908100C284.617700,21.135100,284.213700,21.285100,283.837700,21.518100C283.452700,21.731100,283.054700,21.911100,282.674700,22.136100C282.300700,22.365100,281.888700,22.521100,281.522700,22.746100C281.150700,22.957100,280.766700,23.136100,280.400700,23.315100C280.044700,23.509100,279.693700,23.682100,279.356700,23.836100C278.662700,24.120100,278.103700,24.417100,277.649700,24.568100C277.209700,24.735100,276.921700,24.807100,276.921700,24.807100C276.921700,24.807100,276.972700,24.526100,277.127700,24.076100C277.206700,23.852100,277.298700,23.572100,277.436700,23.278100C277.561700,22.971100,277.719700,22.635100,277.935700,22.303100C278.144700,21.965100,278.384700,21.606100,278.654700,21.236100C278.940700,20.884100,279.268700,20.531100,279.618700,20.176100C279.958700,19.810100,280.380700,19.502100,280.798700,19.183100C281.205700,18.845100,281.695700,18.604100,282.159700,18.328100C283.117700,17.822100,284.167700,17.467100,285.184700,17.292100C286.203700,17.115100,287.188700,17.143100,288.005700,17.280100C288.830700,17.442100,289.483700,17.699100,289.910700,17.944100C290.341700,18.188100,290.544700,18.396100,290.544700,18.396100" fill="rgb(105,180,130)" fill-rule="evenodd" stroke="none" stroke-width="1"/><path id="eo64gf1itflh46" d="M263.698700,18.396100C263.698700,18.396100,263.901700,18.188100,264.332700,17.944100C264.759700,17.699100,265.412700,17.442100,266.237700,17.280100C267.054700,17.143100,268.039700,17.115100,269.058700,17.292100C270.075700,17.467100,271.125700,17.822100,272.083700,18.328100C272.547700,18.604100,273.037700,18.845100,273.444700,19.183100C273.862700,19.502100,274.284700,19.810100,274.624700,20.176100C274.974700,20.531100,275.302700,20.884100,275.589700,21.236100C275.858700,21.606100,276.098700,21.965100,276.307700,22.303100C276.523700,22.635100,276.681700,22.971100,276.806700,23.278100C276.944700,23.572100,277.036700,23.852100,277.115700,24.076100C277.270700,24.526100,277.321700,24.807100,277.321700,24.807100C277.321700,24.807100,277.033700,24.735100,276.593700,24.568100C276.139700,24.417100,275.580700,24.120100,274.886700,23.836100C274.549700,23.682100,274.198700,23.509100,273.842700,23.315100C273.476700,23.136100,273.092700,22.957100,272.720700,22.746100C272.354700,22.521100,271.942700,22.365100,271.568700,22.136100C271.188700,21.911100,270.790700,21.731100,270.405700,21.518100C270.029700,21.285100,269.625700,21.135100,269.255700,20.908100C268.869700,20.729100,268.496700,20.523100,268.127700,20.342100C267.390700,19.975100,266.680700,19.650100,266.038700,19.351100C265.718700,19.224100,265.413700,19.061100,265.137700,18.956100C264.851700,18.840100,264.602700,18.738100,264.396700,18.655100C263.974700,18.494100,263.698700,18.396100,263.698700,18.396100" fill="rgb(105,180,130)" fill-rule="evenodd" stroke="none" stroke-width="1"/><path id="eo64gf1itflh47" d="M255.685100,32.357500C255.685100,32.357500,255.522100,32.412500,255.271100,32.510500C255.017100,32.607500,254.677100,32.760500,254.296100,32.918500C253.934100,33.092500,253.511100,33.294500,253.057100,33.512500C252.840100,33.621500,252.616100,33.733500,252.388100,33.847500C252.169100,33.982500,251.929100,34.071500,251.706100,34.210500C251.245100,34.449500,250.783100,34.702500,250.333100,34.938500C249.880100,35.172500,249.446100,35.398500,249.043100,35.580500C248.639100,35.758500,248.302100,35.928500,248.034100,36.019500C247.771100,36.116500,247.602100,36.161500,247.602100,36.161500C247.602100,36.161500,247.636100,35.996500,247.725100,35.727500C247.824100,35.466500,247.947100,35.067500,248.208100,34.679500C248.441100,34.263500,248.777100,33.825500,249.203100,33.413500C249.405100,33.196500,249.655100,33.013500,249.903100,32.824500C250.144100,32.624500,250.435100,32.480500,250.710100,32.316500C251.279100,32.016500,251.902100,31.806500,252.505100,31.702500C253.109100,31.598500,253.694100,31.611500,254.179100,31.701500C254.667100,31.785500,255.056100,31.946500,255.309100,32.089500C255.564100,32.237500,255.685100,32.357500,255.685100,32.357500" fill="rgb(105,180,130)" fill-rule="evenodd" stroke="none" stroke-width="1"/><path id="eo64gf1itflh48" d="M239.757800,32.357500C239.757800,32.357500,239.878800,32.237500,240.133800,32.089500C240.386800,31.946500,240.775800,31.785500,241.263800,31.701500C241.748800,31.611500,242.333800,31.598500,242.937800,31.702500C243.540800,31.806500,244.163800,32.016500,244.732800,32.316500C245.007800,32.480500,245.298800,32.624500,245.539800,32.824500C245.787800,33.013500,246.037800,33.196500,246.239800,33.413500C246.665800,33.825500,247.001800,34.263500,247.234800,34.679500C247.495800,35.067500,247.618800,35.466500,247.717800,35.727500C247.806800,35.996500,247.839800,36.161500,247.839800,36.161500C247.839800,36.161500,247.671800,36.116500,247.408800,36.019500C247.140800,35.928500,246.803800,35.758500,246.399800,35.580500C245.996800,35.398500,245.562800,35.172500,245.109800,34.938500C244.659800,34.702500,244.196800,34.449500,243.736800,34.210500C243.513800,34.071500,243.273800,33.982500,243.054800,33.847500C242.826800,33.733500,242.602800,33.621500,242.385800,33.512500C241.931800,33.294500,241.508800,33.092500,241.146800,32.918500C240.765800,32.760500,240.425800,32.607500,240.171800,32.510500C239.920800,32.412500,239.757800,32.357500,239.757800,32.357500" fill="rgb(105,180,130)" fill-rule="evenodd" stroke="none" stroke-width="1"/></g><g id="eo64gf1itflh49" transform="matrix(1 0 0 1 146.12959999500001 152.60310446000000)"><g id="eo64gf1itflh50_to" transform="translate(0,22)"><g id="eo64gf1itflh50_ts" transform="scale(1,0.800000)"><path id="eo64gf1itflh50" d="M0.047700,38.918900C0.015700,38.428900,-0.000300,37.941900,-0.000300,37.459900C-0.000300,16.771900,17.475700,-0.000100,39.032700,-0.000100C60.589700,-0.000100,78.064700,16.771900,78.064700,37.459900C78.064700,37.941900,78.048700,38.428900,78.016700,38.918900C78.048700,39.595900,78.064700,40.276900,78.064700,40.960900C78.064700,63.583900,43.079700,97.396900,39.032700,97.396900C34.984700,97.396900,-0.000300,63.583900,-0.000300,40.960900C-0.000300,40.276900,0.015700,39.595900,0.047700,38.918900M39.032700,54.108900C47.039700,54.108900,53.529700,47.810900,53.529700,40.040900C53.529700,32.270900,47.039700,25.972900,39.032700,25.972900C31.025700,25.972900,24.534700,32.270900,24.534700,40.040900C24.534700,47.810900,31.025700,54.108900,39.032700,54.108900" transform="translate(0,0)" fill="rgb(255,255,255)" fill-rule="evenodd" stroke="none" stroke-width="1"/></g></g></g><g id="eo64gf1itflh51" transform="matrix(1 0 0 1 109 277)"><rect id="eo64gf1itflh52" width="152" height="14" rx="7" ry="0" transform="matrix(1 0 0 1 3 135)" fill="rgb(13,99,62)" stroke="none" stroke-width="1"/><path id="eo64gf1itflh53" d="M121.137500,148.342000L123.437500,148.342000C125.232500,148.342000,126.687500,146.887000,126.687500,145.092000L126.687500,133.994000C126.687500,132.199000,125.232500,130.744000,123.437500,130.744000L121.137500,130.744000C119.342500,130.744000,117.887500,132.199000,117.887500,133.994000L117.887500,145.092000C117.887500,146.887000,119.342500,148.342000,121.137500,148.342000" fill="rgb(13,99,62)" fill-rule="evenodd" stroke="none" stroke-width="1"/><path id="eo64gf1itflh54" d="M124.331500,144.410500L124.331500,144.410500C125.061500,144.410500,125.653500,143.818500,125.653500,143.088500L125.653500,135.998500C125.653500,135.267500,125.061500,134.675500,124.331500,134.675500C123.601500,134.675500,123.009500,135.267500,123.009500,135.998500L123.009500,143.088500C123.009500,143.818500,123.601500,144.410500,124.331500,144.410500" fill="rgb(8,73,44)" fill-rule="evenodd" stroke="none" stroke-width="1"/><path id="eo64gf1itflh55" d="M26.847900,139.200000C26.847900,143.998000,30.080900,147.887000,34.067900,147.887000C38.055900,147.887000,41.287900,143.998000,41.287900,139.200000C41.287900,134.402000,38.055900,130.513000,34.067900,130.513000C30.080900,130.513000,26.847900,134.402000,26.847900,139.200000" fill="rgb(13,99,62)" fill-rule="evenodd" stroke="none" stroke-width="1"/><path id="eo64gf1itflh56" d="M32.504800,139.345400C32.504800,141.364400,33.864800,143.000400,35.542800,143.000400C37.220800,143.000400,38.580800,141.364400,38.580800,139.345400C38.580800,137.326400,37.220800,135.690400,35.542800,135.690400C33.864800,135.690400,32.504800,137.326400,32.504800,139.345400" fill="rgb(8,73,44)" fill-rule="evenodd" stroke="none" stroke-width="1"/><path id="eo64gf1itflh57" d="M113.193500,131.866100L131.381500,131.866100C132.089500,131.866100,132.664500,131.292100,132.664500,130.583100L132.664500,128.185100C132.664500,127.477100,132.089500,126.902100,131.381500,126.902100L113.193500,126.902100C112.484500,126.902100,111.910500,127.477100,111.910500,128.185100L111.910500,130.583100C111.910500,131.292100,112.484500,131.866100,113.193500,131.866100" fill="rgb(137,206,158)" fill-rule="evenodd" stroke="none" stroke-width="1"/><path id="eo64gf1itflh58" d="M113.193500,131.866100L126.696500,131.866100C127.405500,131.866100,127.980500,131.292100,127.980500,130.583100L127.980500,128.185100C127.980500,127.477100,127.405500,126.902100,126.696500,126.902100L113.193500,126.902100C112.484500,126.902100,111.910500,127.477100,111.910500,128.185100L111.910500,130.583100C111.910500,131.292100,112.484500,131.866100,113.193500,131.866100" fill="rgb(13,99,62)" fill-rule="evenodd" stroke="none" stroke-width="1"/><path id="eo64gf1itflh59" d="M25.282400,132.317400L44.742400,132.317400C45.451400,132.317400,46.025400,131.743400,46.025400,131.034400L46.025400,128.636400C46.025400,127.928400,45.451400,127.353400,44.742400,127.353400L25.282400,127.353400C24.573400,127.353400,23.999400,127.928400,23.999400,128.636400L23.999400,131.034400C23.999400,131.743400,24.573400,132.317400,25.282400,132.317400" fill="rgb(105,180,130)" fill-rule="evenodd" stroke="none" stroke-width="1"/><path id="eo64gf1itflh60" d="M28.303900,132.317400L44.742900,132.317400C45.450900,132.317400,46.025900,131.743400,46.025900,131.034400L46.025900,128.636400C46.025900,127.928400,45.450900,127.353400,44.742900,127.353400L28.303900,127.353400C27.594900,127.353400,27.020900,127.928400,27.020900,128.636400L27.020900,131.034400C27.020900,131.743400,27.594900,132.317400,28.303900,132.317400" fill="rgb(13,99,62)" fill-rule="evenodd" stroke="none" stroke-width="1"/><path id="eo64gf1itflh61" d="M25.428900,132.317400L27.119900,132.317400C27.827900,132.317400,28.402900,131.743400,28.402900,131.034400L28.402900,128.636400C28.402900,127.928400,27.827900,127.353400,27.119900,127.353400L25.428900,127.353400C24.719900,127.353400,24.145900,127.928400,24.145900,128.636400L24.145900,131.034400C24.145900,131.743400,24.719900,132.317400,25.428900,132.317400" fill="rgb(13,99,62)" fill-rule="evenodd" stroke="none" stroke-width="1"/><path id="eo64gf1itflh62" d="M134.186300,128.256800L22.755300,128.256800C20.604300,128.256800,18.808300,126.617800,18.612300,124.476800L9.476300,24.691800L144.856300,24.691800L138.337300,124.368800C138.194300,126.555800,136.378300,128.256800,134.186300,128.256800" fill="rgb(105,180,130)" fill-rule="evenodd" stroke="none" stroke-width="1"/><path id="eo64gf1itflh63" d="M27.412300,124.755200L18.276300,25.753200L9.476300,25.753200L18.612300,124.755200C18.808300,126.896200,20.604300,127.753200,22.755300,127.753200L31.554300,127.753200C29.404300,127.753200,27.608300,126.896200,27.412300,124.755200" fill="rgb(13,99,62)" fill-rule="evenodd" stroke="none" stroke-width="1"/><path id="eo64gf1itflh64" d="M129.627700,124.755200L136.056700,25.753200L144.855700,25.753200L138.427700,124.755200C138.231700,126.896200,136.435700,127.753200,134.284700,127.753200L125.485700,127.753200C127.635700,127.753200,129.431700,126.896200,129.627700,124.755200" fill="rgb(137,206,158)" fill-rule="evenodd" stroke="none" stroke-width="1"/><path id="eo64gf1itflh65" d="M1,23.506300L153.332000,23.506300C153.885000,23.506300,154.332000,23.058300,154.332000,22.506300L154.332000,17.060300C154.332000,16.508300,153.885000,16.060300,153.332000,16.060300L1,16.060300C0.448000,16.060300,0,16.508300,0,17.060300L0,22.506300C0,23.058300,0.448000,23.506300,1,23.506300" fill="rgb(137,206,158)" fill-rule="evenodd" stroke="none" stroke-width="1"/><path id="eo64gf1itflh66" d="M1,24.860900L153.332000,24.860900C153.885000,24.860900,154.332000,24.412900,154.332000,23.860900L154.332000,18.414900C154.332000,17.862900,153.885000,17.414900,153.332000,17.414900L1,17.414900C0.448000,17.414900,0,17.862900,0,18.414900L0,23.860900C0,24.412900,0.448000,24.860900,1,24.860900" fill="rgb(105,180,130)" fill-rule="evenodd" stroke="none" stroke-width="1"/><g id="eo64gf1itflh67" transform="matrix(1 0 0 1 0 0.34200000762939)"><path id="eo64gf1itflh68" d="M149.633800,12.487900L139.984800,3.668900C137.865800,1.731900,135.099800,0.657900,132.229800,0.657900L22.102800,0.657900C19.232800,0.657900,16.465800,1.731900,14.347800,3.668900L4.698800,12.487900C4.448800,12.715900,4.122800,12.842900,3.784800,12.842900L2.028800,12.842900C1.280800,12.842900,0.674800,13.448900,0.674800,14.195900L0.674800,14.195900C0.674800,14.943900,1.280800,15.549900,2.028800,15.549900L153.652800,15.549900C154.400800,15.549900,155.006800,14.943900,155.006800,14.195900L155.006800,14.195900C155.006800,13.448900,154.400800,12.842900,153.652800,12.842900L150.546800,12.842900C150.208800,12.842900,149.883800,12.715900,149.633800,12.487900" fill="rgb(244,118,33)" fill-rule="evenodd" stroke="none" stroke-width="1"/></g><path id="eo64gf1itflh69" d="M144.223000,24.813500L10.478000,24.813500C10.089000,24.813500,9.742000,24.621500,9.422000,24.719500L10.142000,29.722500C9.643000,29.722500,9.813000,29.804500,10.621000,29.804500L144.634000,29.804500L144.966000,24.723500C144.731000,24.676500,144.487000,24.813500,144.223000,24.813500" fill="rgb(13,99,62)" fill-rule="evenodd" stroke="none" stroke-width="1"/><g id="eo64gf1itflh70" transform="matrix(1 0 0 1 16 25.34199905395508)"><polygon id="eo64gf1itflh71" points="66.498300,0.153500 66.498300,11.406500 71.236300,4.976500" fill="rgb(13,99,62)" fill-rule="evenodd" stroke="none" stroke-width="1"/><polygon id="eo64gf1itflh72" points="83.498300,0.153500 83.498300,11.406500 88.236300,4.976500" fill="rgb(13,99,62)" fill-rule="evenodd" stroke="none" stroke-width="1"/><polygon id="eo64gf1itflh73" points="99.498300,0.153500 99.498300,11.406500 104.236300,4.976500" fill="rgb(13,99,62)" fill-rule="evenodd" stroke="none" stroke-width="1"/><polygon id="eo64gf1itflh74" points="116.498300,0.153500 116.498300,11.406500 121.236300,4.976500" fill="rgb(13,99,62)" fill-rule="evenodd" stroke="none" stroke-width="1"/><polygon id="eo64gf1itflh75" points="55.498300,0.153500 55.498300,11.406500 50.760300,4.976500" fill="rgb(13,99,62)" fill-rule="evenodd" stroke="none" stroke-width="1"/><polygon id="eo64gf1itflh76" points="39.498300,0.153500 39.498300,11.406500 34.760300,4.976500" fill="rgb(13,99,62)" fill-rule="evenodd" stroke="none" stroke-width="1"/><polygon id="eo64gf1itflh77" points="23.498300,0.153500 23.498300,11.406500 18.760300,4.976500" fill="rgb(13,99,62)" fill-rule="evenodd" stroke="none" stroke-width="1"/><polygon id="eo64gf1itflh78" points="5.498300,0.153500 5.498300,11.406500 0.760300,4.976500" fill="rgb(13,99,62)" fill-rule="evenodd" stroke="none" stroke-width="1"/></g><path id="eo64gf1itflh79" d="M132.470200,3.753000L23.211200,3.753000C22.898200,3.753000,22.597200,3.911000,22.365200,4.087000L11.067200,12.753000L144.614200,12.753000L133.316200,4.087000C133.085200,3.911000,132.783200,3.753000,132.470200,3.753000" fill="rgb(246,145,77)" fill-rule="evenodd" stroke="none" stroke-width="1"/><path id="eo64gf1itflh80" d="M139.647700,12.913700L137.939700,11.752700L6.392700,11.752700L4.684700,12.913700C4.452700,13.141700,4.148700,12.752700,3.833700,12.752700L140.498700,12.752700C140.183700,12.752700,139.879700,13.141700,139.647700,12.913700" fill="rgb(183,89,25)" fill-rule="evenodd" stroke="none" stroke-width="1"/><polygon id="eo64gf1itflh81" points="34.760000,112.732000 120.246000,112.732000 120.246000,48.617000 34.760000,48.617000" fill="none" fill-rule="evenodd" stroke="rgb(13,116,78)" stroke-width="1"/></g></g></svg>