<svg xmlns="http://www.w3.org/2000/svg" width="375" height="168" viewBox="0 0 375 168" style="background:#0d744e">
  <g fill="none" fill-rule="evenodd">
    <rect width="375" height="168" fill="#0D744E"/>
    <g fill="#FFF" transform="translate(92 84)">
      <path d="M33.4828137 6C33.7585931 6 34 5.78581286 34 5.50013801 34 5.21446315 33.7585931 5 33.4828137 5 33.2070344 5 33 5.21446315 33 5.50013801 33 5.78581286 33.2070344 6 33.4828137 6M24.5 5C24.7916935 5 25 4.75008052 25 4.50016103 25 4.20837359 24.7916935 4 24.5 4 24.2083065 4 24 4.20837359 24 4.50016103 24 4.75008052 24.2083065 5 24.5 5M18.3244101 18L18 17.7397056C18.9185358 17.0450282 19.8370716 16.0035151 19.9990679 15.3957143 20.1072046 14.7882489 21.1877367 14.9183961 20.9714633 15.5258615 20.7013302 16.3506861 19.5126614 17.305658 18.3244101 18M12.597322 4.90846175C11.1896538 5.50435685 11.0017713 6.92571898 11.9872478 7.79653356 13.160607 8.80516217 15.1787121 7.93399331 14.9908296 6.32982389 16.5867431 6.42158181 17.6193717 4.77100201 17.3843372 3.67096975 18.0883526 3.07507466 18.1355046 1.79152655 17.2907586 1.28703511 16.3520713.737196119 15.5073252.92035769 14.9440403 1.97468812 13.4892201 1.8829302 12.0811891 2.98331673 12.597322 4.90846175L11.9404586 4.63354226C11.0485605 2.75409906 12.597322.874655867 14.5214859 1.33309121 14.9440403.416220523 16.3520713-.546351986 17.9476221.3705187 19.1677705 1.10387354 19.4495943 3.02901856 18.1355046 3.94588924 18.7455788 5.68787269 17.4782784 7.15493665 15.6009038 6.9714208 15.3665947 9.26359752 13.2073963 9.53851701 11.752576 8.48418658 10.954982 7.84258966 10.6263689 7.01712262 10.4852756 6.37552571 10.2977558 5.68787269 10.2977558 5.0919776 9.64089228 4.40432459 9.12439664 3.90018742 8.18570933 3.90018742 8.18570933 3.90018742 8.18570933 2.2499619 6.63694781.737196119 4.66599463 1.47055096 3.96197915.874655867 3.07008113.828599766 2.46000692 1.56230888 2.13175653 1.97468812 1.89672199 3.07507466 3.02329184 3.57921183 2.97650256 5.0919776 4.14949899 6.05455011 5.88614305 5.91709037 5.93293233 6.6965013 6.82483036 7.47591224 7.66957639 7.56731589L7.62278711 7.98004941C6.77767837 7.88829149 6.30869742 8.16321098 5.74541249 8.850864 3.72730733 8.75946035 2.31927636 9.67597676 2.36606565 11.0973389.958397392 11.3262023.676573575 12.7932662 1.47453033 13.5726772 2.27248708 14.3517338 3.44584622 14.0311125 3.86803788 13.1142418 5.32285812 13.3891613 6.59015853 12.380887 6.63694781 11.2347986 7.9510375 11.2347986 8.56147442 10.6846054 8.79578354 9.49281519L9.2654899 9.53851701C9.40585775 10.8220651 8.79578354 12.0599114 7.20023274 11.9224517 7.15344346 13.4809193 5.65147122 14.306032 4.19665098 13.8018948 3.53942478 15.0397411 1.99066326 15.4978222.723725565 14.306032-.543574842 13.1599437-.0742311877 11.1887425 1.5684716 10.6846054 1.5684716 9.17183959 2.74183074 7.75083174 4.94745574 8.30102501 4.94745574 8.30102501 5.22927956 7.61337199 5.93293233 7.56731589 5.46358868 7.38415432 5.13533829 7.15493665 5.04139701 6.6504452 3.35190494 7.01712262 1.94387398 5.50435685 2.31927636 3.99194535.81730413 3.21253441.770514848 1.74547045 1.52168232.874655867 2.31927636-.0422148199 3.63336605-.225730668 4.75993591.737196119 6.77767837-.317488592 8.98366608 1.01211561 8.84293553 3.21253441 10.2509665 3.12077648 11.0957125 4.26686484 10.90783 5.50435685 11.1425018 4.95451786 11.4239629 4.72530018 11.9404586 4.63354226L12.597322 4.90846175"/>
      <path d="M15.6865052 2L16 2.24099078C15.3730104 3.68656299 14.2986159 5.13250768 13.3584775 6L13 5.66253841C13.6719723 4.50600615 15.0598616 2.5780799 15.6865052 2M5.83548592 9L6 9.41377932C5.30129155 10.2929104 3.9861317 11.5346482 3.24645353 12L3 11.5862207C3.65742113 10.6551173 4.97258099 9.46535181 5.83548592 9M8 5.61039743L7.62796549 6C6.55823149 5.41559615 4.465133 3.85718587 4 3.27278202L4.32566499 3C5.34902948 3.42874348 7.3023005 4.90917302 8 5.61039743M6.42482069 23.5110023C6.56174294 24.0887486 6.42482069 24.7554582 6.97250968 25.3778579 7.15530794 25.6000945 8.20551571 26.9331702 8.98187898 27.5998798 7.93131832 28.0000429 5.8767788 28.8443357 4.41545139 29.0222623 4.09608378 29.0665722 3.77636327 29.2444988 3.50216588 29.422082 3.31972051 29.7332818 3.13692225 30.2667182 3.04552312 30.8891179 3 31.3332475 3 31.8223739 3 32.3111569 3 32.75563 3.22832138 34.1780125 3.73048726 35.1112685 4.23300603 36.0445246 4.7351719 36.4889977 5.32873691 36.7558876 5.46565916 36.7112342 5.73985655 36.6669243 6.1506233 36.6669243 7.24670707 36.6222709 8.11411658 37.2446706 8.52523622 37.7334536 8.66215847 37.9556901 8.98187898 38 9.3471226 38 10.2604081 38 11.2647399 37.6891436 12.1780254 37.3336339 12.4063468 37.2003607 12.9543887 36.8001975 13.5024305 36.4000343 14.0959956 35.9555613 17.2007428 33.3780297 18.5706711 32.75563 19.3015113 33.1111397 20.4886413 33.5999227 21.7212944 33.5999227 21.7671704 33.5999227 21.9954918 33.6445761 22.2693363 33.5556128 22.6345799 33.4666495 23.1370987 33.3333763 23.7761868 33.200103 24.8719177 32.9778665 26.1504468 32.7999399 26.5615665 32.7999399 27.5662511 32.8445933 30.5340762 32.8889032 31.2649163 32.8889032 31.9954036 32.8889032 33.0456113 32.8445933 33.456731 32.7999399 34.0958191 32.5777034 35.5116234 32.2221936 36.8356757 31.6444473 38.1597279 31.066701 40.9451076 29.1555355 41.4017503 28.7110625 41.6300717 28.5331358 41.8583931 28.3112428 41.9953154 28.1333162 42.0411914 28.0443528 42.0867145 28.0000429 42.0867145 27.9553895 42.0867145 27.9110796 42.0411914 26.0445675 42.0411914 26.0445675 42.0411914 26.0445675 42.7261555 25.3332045 43 25.0666581 43 25.0666581 43 25.0220047 43 24.9776948 42.8630778 24.622185 42.7716786 23.4666924 42.8172017 22.3111998L42.1781136 22C42.1322376 23.422039 41.5845486 24.6664949 41.0820298 25.4664777 40.0776981 25.6000945 38.1142048 26.1778408 37.4292407 26.9778236L37.8403603 27.0667869C38.4794484 26.7109336 39.1644126 26.4890406 39.986299 26.4890406 40.6712631 26.4890406 40.9909836 26.6666237 40.9909836 26.8445504 40.9909836 26.9778236 40.8537085 27.2890234 40.8081853 27.4222966 40.7626622 27.5109165 40.7167862 27.6888431 40.579864 27.7778064 39.6210553 28.8000258 38.5708476 29.644662 37.2464424 30.3556815 36.3790329 30.8444645 35.5116234 31.1556643 34.2330942 31.555484 33.8219746 31.6444473 33.2739327 31.7777205 32.9542122 31.9113372 32.4520463 31.9113372 29.894988 31.8223739 28.3881375 31.8223739 26.881287 31.8223739 23.7761868 32.044267 22.8173782 32.266847 22.3607354 32.4001202 22.2238132 32.5777034 21.7212944 32.5777034 20.7624858 32.5777034 19.4839566 32.0889204 18.7079463 31.7334106 18.5706711 31.7334106 18.2968266 31.8666838 18.0229821 31.9999571 17.4749402 32.266847 16.2419342 33.955776 15.5114469 33.4223396 15.1462033 34.1780125 13.5479537 34.8443786 13.0457878 35.6000515 13.0913109 35.2445418 13.730399 32.6666667 13.776275 32.1335738 13.776275 32.044267 13.8221511 31.9556472 13.730399 31.8666838 13.18271 30.9334278 11.5385844 30.3556815 10.6256517 30.1777549 10.3973304 30.133445 10.2604081 30.0887916 10.0776099 30.0444817L8.61663535 29.644662 7.29223019 30.0444817 8.84460383 30.3110281 6.88111055 31.6001374C7.24670707 31.4668642 9.3471226 30.8891179 9.48404485 30.8444645 9.66684311 30.8001546 9.89516449 30.7555012 10.123133 30.8444645 10.4428535 30.9334278 11.2192168 31.1113544 11.7213826 31.2889375 11.99558 31.3779009 12.4522228 31.8666838 12.589145 32.1335738 12.6346681 32.266847 12.6346681 32.4890835 12.6801913 33.0221764 12.6801913 33.3333763 12.6346681 33.8221592 12.543269 34.1780125 12.3149476 35.1112685 11.8583049 35.8222881 11.7213826 36.0888345 11.5385844 36.4446877 11.3106159 36.577961 11.0364185 36.6669243 10.6256517 36.8891608 10.0776099 36.9777806 9.52956797 37.022434 9.11880122 37.022434 8.84460383 36.9777806 8.66215847 36.7558876 8.1596397 36.0445246 6.83558743 35.377815 5.51153517 35.6447049 4.68964878 35.1555785 3.8677624 33.5999227 3.8677624 32.3554668 3.8677624 31.6001374 4.23300603 30.3999914 4.4613274 29.8222451 5.78537967 29.644662 8.47936021 28.6667525 9.75788935 28.0890062 10.0320867 28.0890062 10.8080971 27.8221163 11.5385844 27.8221163 13.2741092 27.8221163 15.0089282 29.2888087 16.0594888 30.3110281 16.2419342 30.0444817 16.5616547 29.6000086 17.4749402 29.6000086 18.7079463 29.6000086 19.4384335 30.7111913 19.758154 31.8223739L20.3972421 31.3779009C20.305843 30.7555012 19.9405994 30.0444817 19.4384335 29.5110453 19.0273139 29.1112256 18.2054275 28.7557158 17.5663394 28.7557158 17.1552197 28.7557158 16.7899761 28.8443357 16.5161316 28.8443357 15.6483692 28.8443357 15.2831256 28.444516 14.5981614 28.0000429 13.9131973 27.5555699 12.589145 26.8445504 11.6303364 26.8445504 11.0364185 26.8445504 10.762574 27.0667869 10.2604081 27.0667869 9.52956797 27.0667869 9.25572347 26.799897 8.93600296 26.3557674 8.7535576 26.1778408 8.02271745 25.5554411 7.84027208 25.2888946 7.70334983 25.110968 7.52055157 24.5332217 7.42915244 24.2223653L6.42482069 23.5110023"/>
      <path d="M7.13751731 23.609601C7.36372108 23.8353015 7.54482395 24.0613514 7.81612863 24.2874013 8.08743331 24.468381 8.40418852 24.6490113 8.67584282 24.8299909 9.12790074 25.0560408 9.62575882 25.3271609 10.0781664 25.5081406 10.5305739 25.5986304 11.0731833 25.6437006 11.5710413 25.6437006 12.2947536 25.6437006 13.1544678 25.5081406 13.87818 25.8697505 14.3756884 26.0507302 14.3756884 26.5929704 14.7829951 26.7288799 15.371055 26.9545804 16.9995823 27 17.9043974 27 19.7140276 27 21.6593101 26.7739501 22.8354299 26.50283L22.2924709 25.8697505C21.4782072 26.0053106 19.1256181 26.2767801 18.0400497 26.2767801 16.5471747 26.2767801 15.0994007 26.0053106 15.0994007 25.4176508 15.0994007 24.965551 15.5518082 24.3328209 16.4566233 24.3328209 17.4068889 24.3328209 18.8543134 24.9204807 19.1256181 25.0109706 19.3972724 25.0560408 19.4878238 25.0560408 19.668577 24.965551L20.211536 24.6944309C19.4878238 24.3328209 16.9090308 23.4736916 16.0045654 23.4736916 15.5972587 23.4736916 15.3256044 23.5187618 15.0542998 23.8807211 14.7378942 24.3328209 13.7876286 24.7395011 12.3398545 24.7395011 11.5255908 24.7395011 10.349471 24.5588708 10.1232673 24.468381 9.67085972 24.2874013 8.81149516 23.7902313 8.26853618 23.3832017 7.54482395 22.8860317 6.91131354 22.2983719 6.50435652 21.6202222 6.36870418 21.4395919 6.27815274 21.2131926 6.27815274 20.9874921 6.27815274 20.8065125 6.36870418 20.6709524 6.36870418 20.5353924 6.50435652 20.7160226 6.64000886 20.8515827 6.8207621 20.9874921 7.58992486 21.7557823 8.72094372 22.2983719 9.8970635 22.5244218 10.2592692 22.6149116 10.5305739 22.6599818 10.89243 22.6599818 11.3899385 22.6599818 11.842346 22.3888617 12.1591012 22.1173922L11.6615928 21.575152C11.5255908 21.6202222 11.2088356 21.6202222 11.0280824 21.6202222 9.30900361 21.6202222 7.13751731 20.5353924 6.64000886 19.2241632 6.59455833 19.0886032 6.50435652 19.0435329 6.59455833 18.9076235 6.64000886 18.7720634 6.68510976 18.5460136 6.73056029 18.3199637 6.8207621 18.4104535 7.04696588 18.5914332 7.27351927 18.7720634 7.90668006 19.179093 9.12790074 19.7216826 9.39955504 19.9023129 9.98761493 19.7216826 10.4400225 19.4956327 10.8018786 19.3146531 11.1640843 19.1336734 11.6615928 18.9530431 12.2042021 18.9530431 13.471223 18.9530431 14.9186474 19.676263 16.2758701 20.3544127L17.1806851 19.9928027C15.9591148 19.1336734 13.3803219 17.9583537 11.9328975 17.9583537 11.0731833 17.9583537 10.2592692 18.5914332 9.67085972 18.5914332 8.99259802 18.5914332 7.00186497 17.5967438 7.00186497 16.783034 7.00186497 16.150304 8.26853618 15.7883446 10.3949216 15.5622947 10.0327158 16.0598141 9.67085972 16.647474 9.35445414 17.1900636L9.8970635 17.5062539C13.1544678 12.7595556 16.5926253 9.68534694 19.4423733 7.78680735 20.4831903 7.10865768 20.7090445 6.70162812 21.0709006 5.97840822 21.9757157 4.12493886 22.8354299 2.76863951 24.2828543 2.76863951 24.9614656 2.76863951 25.5044246 3.13024946 25.9117313 3.58234924L26.9521987 3.89888897 25.8662807 4.62210887 26.9521987 5.07420865C25.5495255 5.48088883 23.6045926 6.88260778 22.790329 8.91670743 21.2971044 8.96212704 20.5733921 10.2279366 20.0758837 11.2222766 19.7140276 11.9458459 19.2161695 12.216966 18.4019058 12.7144854L12.2042021 17.0541541 13.0639163 17.1900636 18.8092125 13.3472154C19.9402313 12.5789253 20.4831903 11.9909161 20.754495 11.4937461 21.2520034 10.4089162 21.8400633 9.5948571 22.9710822 9.5948571 23.5140412 9.5948571 24.1021011 9.8663266 24.5996095 10.318077L25.594976 10.6346167 24.5090581 11.3131158 25.4138732 11.855356C22.790329 12.6690658 21.161452 14.5679547 20.211536 18.1844036L20.8901473 18.3199637C21.2520034 17.144644 21.6138596 16.0598141 22.2019194 15.0651247 23.740245 15.0651247 25.2782208 15.0200545 26.8161967 15.0200545 30.8427637 15.0200545 34.1903698 15.2006848 36 15.6982042L35.3664896 14.6130249C33.4212071 14.251415 30.61656 14.1158549 26.8161967 14.1158549 25.5044246 14.1158549 24.2377534 14.1609252 22.9259813 14.1609252 23.7853459 13.3021452 24.9614656 12.5335057 26.8161967 11.9909161L25.5044246 11.2676962 26.9521987 10.4539864 24.9614656 9.73076654C24.64506 9.41422682 24.1926525 9.09768709 23.6496935 8.96212704 24.2828543 7.01816784 26.4543406 5.88791838 28.5352755 5.11927888L27.087851 4.53161903 28.5352755 3.7179093 26.2735874 2.9946894C25.6851779 2.31653972 25.1425685 2 24.2377534 2 22.1568185 2 21.2971044 3.80839913 20.4377398 5.39074838 20.0304331 6.24952833 19.7591285 6.61113829 18.9899657 7.10865768 17.4068889 8.1484173 15.3256044 9.77583677 13.3803219 11.8102858 12.385305 11.0867165 10.2592692 8.91670743 9.71631025 7.74138774 9.49010648 8.01250786 9.2639027 8.64558731 9.2639027 8.64558731 9.49010648 8.8716372 11.9328975 11.3131158 12.8377126 12.3979456 12.792262 12.4430159 12.7020602 12.5335057 12.6566097 12.6239955 11.6615928 12.8046258 9.12790074 13.0760953 8.26853618 12.9401859L7.81612863 13.7993152C8.44963904 13.754245 10.9375309 13.4377053 12.0234489 13.3922857 11.7066937 13.754245 11.3899385 14.1609252 11.0731833 14.5679547 7.81612863 14.9295647 5.69009286 15.6077143 5.69009286 16.783034 5.69009286 16.9640137 5.73519376 17.1900636 5.73519376 17.4157641 5.73519376 17.9132835 5.5540909 18.0939138 5.19223478 18.3199637 4.96603101 18.4558731 4.96603101 18.5914332 5.05658244 18.7269932 5.14713388 18.8625533 5.64464233 19.5857732 5.64464233 19.7216826 5.64464233 19.9928027 5.41843856 20.2188526 5.23768531 20.4449025 5.05658244 20.6258822 5.05658244 20.6709524 5.19223478 20.8970023L6.1425004 22.8860317 7.13751731 23.609601M48.1028255 12.6075586C47.9182767 12.7933609 47.733728 13.0717057 47.5495355 13.3037793L47.0425608 12.5609287C48.794349 10.1939218 53.4964236 9.08018391 56.2621612 8.84811035L56.2621612 7.59484136C55.8934199 7.68774252 55.5246787 7.82691492 55.1559374 7.91981609 54.6949218 8.01271725 54.2339061 8.15188965 53.8651648 8.10561842 53.4501083 8.10561842 53.127326 7.96608733 52.9890926 7.73437245 52.6203513 7.2235954 52.9890926 6.43483223 54.1879471 5.69198161L53.2196004 4.85658852C52.4821179 5.83115401 51.7905944 6.89862067 51.0531119 7.50229889 50.3615884 8.10561842 49.670065 8.38396322 49.1167749 7.96608733 48.794349 7.73437245 48.7020746 7.64147129 48.6557593 7.03815176 48.7020746 6.15612874 49.2090493 4.81031728 49.670065 3.92829426L48.5638412 3.78912186C48.3792924 5.13529201 47.8260024 6.2490299 47.2267533 7.17732416 46.5352298 8.33769198 45.6135548 9.17308508 44.6452081 9.82267584L44 9.21935631C44.7834416 8.75520918 45.7517882 8.01271725 46.3969964 6.99152183 47.1807942 5.78488277 47.8260024 4.29954022 47.8260024 3L51.0531119 3.27870349C50.5920962 3.88202302 49.8546137 5.22783448 49.5777906 6.15612874 49.4395571 6.6665471 49.4395571 7.084423 49.6241059 7.2235954 49.9465318 7.45566896 50.5461372 7.03815176 51.1453863 6.43483223 51.9751432 5.50653797 52.8049001 4.16036782 53.127326 3.69622069L55.5246787 5.64571037C54.4644139 6.20275867 53.4501083 6.85234943 53.634657 7.2235954 53.8192058 7.54857012 54.510373 7.45566896 55.2482118 7.2235954 55.8474609 7.03815176 56.492669 6.75944827 57 6.43483223L57 9.6372322C55.8474609 9.6372322 53.9111239 9.86930577 52.0670613 10.4263541 52.5284332 11.0296736 53.7728905 11.2613885 54.5566883 11.4009196L54.1879471 14C52.1593357 13.117977 50.5920962 12.6541885 48.1028255 12.6075586L48.9325824 11.8650667C50.7303297 11.9113379 52.5743923 12.4683862 53.588698 12.9788046L53.7265751 12.0042391C52.8049001 11.8650667 51.652361 11.3546483 51.1453863 10.7509701 50.3615884 11.0296736 49.5777906 11.4009196 48.9325824 11.8650667L48.1028255 12.6075586"/>
      <path d="M38.3791815 20.4783409L39.1111013 18.8559C38.3332155 17.9544665 37.4641049 16.8276747 36.6865726 15.6110182L36.0458776 14.5291587C34.5360719 11.7349937 35.0851886 10.3828435 34.3073028 9.12090631 33.6209953 8.12925985 30.4185809 8.76040259 29.9150766 8.85026728L30.8301532 7.36332006 29 7.49846542 30.5557716 5.69559851C30.7385748 5.42495949 30.7845408 5.24488178 30.9673439 4.61373904 31.2420791 3.62244089 32.0652237 2 34.5360719 2 37.2353357 2 38.1047999 4.16337063 39.2482921 5.10973643 40.6209069 6.19124758 42.3594817 7.67854312 43.9152534 9.16583865L44.5555948 9.75170074C45.3790931 10.5629212 46.1569789 11.4194223 46.9348647 12.4107204L47.4380154 13.1320762C50.7320082 17.8193212 54.7582745 26.7880267 56.5884277 30.8894096 56.7256185 31.295194 56.8628092 31.7006301 57 32.0162014 55.7649295 31.3401263 54.437927 30.5289059 53.0196997 29.5821918L52.2418139 29.0416104C51.7386632 28.6811066 51.2351589 28.3206029 50.7320082 27.9600992L49.90851 27.2836758C49.4053593 26.9231721 48.9018551 26.517736 48.4446703 26.1119516L50.0916668 35.4415092C50.1832451 36.0273713 50.6863958 35.9371583 51.0523558 35.4415092 51.4183157 34.9458601 51.6014724 34.8103665 51.4183157 34.179572L49.90851 27.2836758 50.7320082 27.9600992 52.1962015 33.7737877C52.3333923 34.3147174 52.5621614 34.4947951 53.2028565 34.4947951 53.8431979 34.5400758 53.9347763 34.3147174 53.8431979 33.908933L52.2418139 29.0416104 53.0196997 29.5821918 54.5295054 33.9542137C54.9414313 35.0810055 54.5295054 35.2161509 53.8431979 35.2161509 53.2028565 35.2161509 52.5621614 35.0357248 52.1962015 35.2610832 51.8302416 35.5313739 51.3727033 36.1625167 50.7779742 36.7034464 50.3204359 37.1990955 49.5881625 37.1088825 49.4509717 36.1625167L47.6208185 25.3909442C46.4773264 24.3543654 45.3334807 23.2725059 44.3268257 22.1457141 43.9152534 21.9656364 43.4117491 21.740278 42.9542108 21.5602003L42.3138694 21.244629C42.0391342 21.1091353 41.8563311 21.0642029 41.8103651 21.0192706 41.3072144 21.6051327 40.8040637 22.2812078 40.254947 22.7319245 39.9805655 23.0022152 39.7517963 23.1373606 39.3398704 23.1373606 39.2026797 23.1373606 39.0198765 23.1373606 38.8823321 23.0474959 38.699529 22.9572829 38.5619846 22.7768568 38.3791815 22.5065661 38.2419907 22.3261401 38.0588339 22.0558494 37.8760308 21.7855587 37.5100708 21.1993483 37.1437573 20.4334085 36.7777974 19.8471981 36.4118375 19.1714713 36.0458776 18.675474 35.9999116 18.5852609 35.9542992 18.4501156 35.771496 18.3149702 35.771496 18.3149702 35.5427269 18.5852609 35.4051825 19.1714713 35.4051825 19.5319751L34.7648411 19.3066167C34.8104535 18.8559 34.9936102 18.2700379 35.130801 17.9993989 35.130801 17.7740405 34.8564195 17.4588174 34.6276503 17.4588174 34.3073028 17.4588174 33.9869553 17.7740405 33.8497645 18.4051832L33.163457 18.7207546C33.209423 17.6841758 33.5753829 16.557384 34.6276503 16.557384 35.4511485 16.557384 35.9999116 17.1881784 36.3662251 17.7740405 36.7777974 18.3602509 38.1047999 20.1178371 38.3791815 20.4783409L38.8823321 21.1091353C38.9739105 21.5149197 39.1570673 21.740278 39.2482921 21.8754234 39.4314488 22.1457141 39.614252 22.1457141 39.8889871 21.8754234 40.0261779 21.7855587 40.3921378 21.4699873 40.8040637 21.0642029 41.1244112 20.7486316 41.4444052 20.2979148 41.5819495 20.1178371 41.9479094 20.2529825 42.6798293 20.6134862 43.2289459 20.8388446 40.8040637 17.8642535 38.4247938 14.258868 37.4184925 11.8248584 37.0065666 10.7882795 37.8300648 10.4730565 38.1960247 11.4643546 39.294258 14.168655 42.4510601 18.9910453 44.784364 21.5149197 47.4380154 24.3992977 52.3333923 28.635826 55.5361603 30.3035475 55.078622 29.4021141 54.483893 28.1401769 53.7516195 26.6528814 49.8628976 24.4895107 45.9738221 20.5236215 44.1436689 17.0983137L44.9215548 17.1881784C46.6145172 20.1627695 50.6863958 24.129007 53.1112781 25.2557988 50.915165 20.6587669 48.0327444 14.8447301 45.8366314 12.3657881 43.0457892 9.25605166 40.0261779 6.82239033 38.5619846 5.6053855 37.1437573 4.34344833 36.5490283 2.81122045 34.5360719 2.81122045 32.8431095 2.81122045 31.9280329 4.02787696 31.608039 5.19994943 31.5164606 5.47024015 31.4708482 5.6053855 31.3333039 5.83074386L30.5098057 6.77710967 32.2483805 6.59703196 31.2420791 7.94883383C31.2420791 7.94883383 33.9413429 7.36332006 34.9020318 8.62525723 35.9086868 9.9770591 35.2679918 11.5096353 36.9609542 14.5291587 37.692874 15.8363765 39.4770612 18.1798249 40.0721439 18.7207546L38.8823321 21.1091353 38.3791815 20.4783409M11.4055654 21.3187261L11 21.0547771C11.2255848 20.8791507 11.6757102 20.57138 12.1261836 20.395414 12.3514203 20.307431 12.6219133 20.2636093 12.8018938 20.2636093 13.2523672 20.2636093 13.6579326 20.4395754 14.0182417 20.6593631 14.6037876 20.9671338 15.2794978 21.3187261 15.8201355 21.3187261 16.000116 21.3187261 16.1804447 21.2745648 16.4053333 21.2745648 16.945971 21.2745648 17.4417007 21.4943524 17.7118455 21.4943524 17.8921742 21.4943524 17.9819903 21.3625478 18.1174109 21.1865817 18.3875557 20.7911677 18.7927729 20.483397 19.2885026 20.307431 19.7838841 20.087983 20.4595943 20 21.1353045 20 21.7208504 20 22.2162319 20.087983 22.4867248 20.1318047 22.4867248 20.1318047 22.0811595 20.6152017 21.9909952 20.7470064 21.4054493 20.7470064 20.36943 20.7031847 19.6937198 20.9671338 19.2432464 21.1427601 19.108174 21.4063694 19.108174 21.7141401 19.108174 22.1978769 19.6937198 22.4173248 20.2792657 22.5932909 20.684831 22.6812739 21.0900483 22.7250955 21.4054493 22.7250955 21.8559228 22.7250955 22.6667053 22.5491295 23.4774879 22.3735032 24.4685991 22.1978769 25.369546 21.9339278 25.6396909 21.8459448L26 22.4614862C24.9190726 22.8130786 23.792889 23.1646709 22.7568697 23.3406369 22.1713238 23.4724416 21.630686 23.5604246 21.1353045 23.5604246 20.2792657 23.5604246 19.3786669 23.2088323 18.6577005 22.8569002 18.0272466 22.5932909 17.4866088 22.2855202 16.945971 22.2855202 16.4053333 22.2855202 15.8650436 22.4614862 15.369314 22.7689172 15.0991691 22.9010616 14.3336428 23.42862 13.6579326 23.6922293 13.1172948 23.8681953 12.7117295 24 12.1714398 24 11.7209664 24 11.4055654 23.912017 11.1803286 23.736051L11.9911112 23.2526539C12.1261836 23.3406369 12.3065123 23.3844586 12.3963284 23.3844586 12.531749 23.3844586 12.6668214 23.3406369 12.9822224 23.2088323 13.1622029 23.1646709 13.4323478 22.9887049 13.6126764 22.9010616 13.9280774 22.6812739 14.0182417 22.5491295 14.1533141 22.4614862 14.423459 22.2855202 14.5136233 22.0219108 14.1982222 21.7583015 14.0182417 21.6261571 13.8831693 21.4943524 13.7028407 21.3625478 13.3874397 21.1865817 13.2074592 21.0547771 12.6668214 21.0547771 12.0812755 21.0547771 11.6308021 21.1865817 11.4055654 21.3187261"/>
      <path d="M23.6307874 21C23.6307874 21 23.1350693 20.8868475 23 20.8868475 23.3153937 20.509478 23.7658567 20.2076407 24.0812504 20.018956 24.7569449 19.6415865 25.4326394 19.4152814 26.5135417 19.3773695 26.7836803 19.3397492 27.3695607 19.3021289 27.6846063 19.3021289 28 19.3397492 28.49537 19.3397492 28.945833 19.4152814 29.2612268 19.4529017 29.5766205 19.5284339 29.846759 19.5660542 29.9818283 19.6039662 30.5224535 19.6039662 30.702778 19.5660542 31.4682866 19.4529017 32.3692126 19.2265967 32.8196756 19L33 19.6039662C32.0089118 20.0565763 30.8827543 20.4718577 29.801852 20.4718577 29.3061338 20.4718577 28.7209497 20.4342374 28.1803244 20.3963255 27.2793985 20.3207932 26.4682866 20.2076407 26.198148 20.2076407 25.4326394 20.2076407 24.351389 20.509478 23.6307874 21M22.9670022 25.5037715L22 25.0237418C23.335723 24.3519228 25.3619077 23.6318783 26.2370856 23.4879436 27.0659955 23.3440089 28.0329978 23.2479288 28.585723 23.0557685 28.8619077 23.7279585 29.3683649 24.3997774 30.0591824 24.3997774 30.335723 24.3997774 30.75 24.2079881 31.210545 24.0158279 31.7170022 23.775813 32.1775473 23.5357982 32.453732 23.4397181 32.7302725 23.2957834 33.6054505 22.9118338 34.3880923 22.5278843 34.664277 22.3839495 35.4472748 22 35.4935428 22L36 22.2878694C35.8619077 22.9600594 35.5853671 23.8240386 35.3091824 24.448003 35.2170022 24.6880178 35.0789099 24.8798071 34.9867297 25.0237418 34.7568131 25.2637566 34.3880923 25.6480772 33.9275473 25.9841721 33.4210901 26.3677507 32.7761847 26.7520712 32.1316351 27.1360208 31.625178 27.4238902 31.1183649 27.7599852 30.5656396 28L30.335723 27.4721157C31.1183649 26.9920861 31.9472748 26.4159763 32.6843604 25.8398665 33.0064572 25.5998516 33.3289099 25.3119822 33.5591824 25.0719674 33.7435428 24.9280326 33.835723 24.783727 33.9275473 24.6397923 34.1578198 24.3519228 34.5261847 23.6801039 34.6183649 23.3918635 34.2959121 23.5357982 33.1908176 24.111908 32.6843604 24.3519228 32.0853671 24.6880178 31.1646329 25.1680475 30.6119077 25.4559169 30.2435428 25.6480772 29.875178 25.7437863 29.5986374 25.7437863 29 25.7437863 28.7238153 25.3119822 28.585723 25.0237418 28.2170022 24.3519228 27.8486374 24.3040683 26.789455 24.3040683 25.5921802 24.2558427 23.9343604 24.783727 22.9670022 25.5037715M28.2285815 21.8039097C28.2285815 21.8039097 28.0915033 21.3335354 28 21.1374451 28 21.1374451 28.1830065 21.0980452 28.4112348 21.0980452 28.7313196 21.0980452 29.6456456 21.1765419 30.0113054 21.1765419 31.3827946 21.1765419 31.8855326 20.8234581 32.2971207 20.5097742 32.6627804 20.2354902 33.0284402 20 33.9427663 20 34.7655891 20 35.7258435 20.2745871 36 20.3921806L35.9540717 21.0589483C35.542837 20.862858 34.9941706 20.7452644 34.4914326 20.7452644 34.1713478 20.7452644 33.851263 20.7452644 33.6226815 20.862858 33.3944533 20.9804516 33.2114467 21.1374451 32.9828652 21.2941355 32.7542837 21.451129 32.4341989 21.6078194 31.9770359 21.7648129 31.5658011 21.9215033 31.0171348 22 30.194312 22 29.1429076 22 28.5486663 21.8433096 28.2285815 21.8039097"/>
      <path d="M19 28.1451973L19.6379832 27.8538123C20.1847757 28.0967583 21.0502077 28.3885187 21.6424195 28.3885187 22.0068305 28.3885187 22.2804028 28.2428262 22.5082036 28.1451973 22.6902331 28.0483193 24.8316316 26.930843 25.8794451 26.5422045 26.1984367 26.3961366 26.5628477 26.3476976 26.6994578 26.3476976 26.972678 26.3476976 26.972678 26.444951 27.0638687 26.5906435 27.2462503 26.930843 28.8405042 29.311488 28.9774664 29.4571805 30.2985001 29.0201031 31.6653053 28.3885187 32.4395465 27.6108663 33.2599113 26.7851505 33.9433139 25.8133667 34.6263643 25.0357143 34.8541652 24.7443293 35.1731568 24.5013834 35.3097669 24.4041299 35.9931695 24.0154915 38.134568 23.9670525 39 24.0154915L38.4989789 24.7927683C36.9043729 24.7927683 36.0385888 24.9872753 35.6287585 25.2786603 35.4921484 25.4247282 35.2189282 25.7161132 34.9911274 26.0563126 34.4443349 26.7851505 33.8521231 27.8053733 33.6243222 27.9995048 34.0799239 28.3397042 34.580945 28.6314647 35.4009577 28.6314647 36.7219914 28.6314647 37.6789663 27.7565588 38.1799873 27.2710424L38.635589 27.5136129C38.3165974 27.9995048 37.9067671 28.4369577 37.4511654 28.7771571 36.9043729 29.1657956 36.2209704 29.4571805 35.8565594 29.554434 35.0823181 29.4087415 33.3965214 29.0201031 32.986339 28.9712886 31.5283431 29.6032485 29.1140765 30.6234713 28.3394831 30.8664173 28.202873 30.9148563 28.0208436 30.9636708 27.7926907 30.9636708 27.1550595 31.0121097 26.2892754 31.0121097 25.4692627 30.9636708 24.9228223 30.9636708 24.3760299 30.9636708 24.1028097 30.9148563L23.3736357 30.1375794C24.0116189 30.2832719 24.2394198 30.2832719 24.8316316 30.2832719 26.1984367 30.2832719 27.1092881 30.0403259 27.3828604 29.9915114 27.6560806 29.8946334 27.701852 29.748941 27.6106612 29.5056195 27.4740511 29.1657956 27.2916696 28.7771571 26.972678 28.3885187 26.7906485 28.1940117 26.4262376 27.8538123 26.2892754 27.7565588 26.107246 27.6108663 25.9248644 27.5624274 25.3784241 27.7565588 24.9228223 27.9026268 23.419055 28.7771571 22.7814238 29.1657956 22.4624322 29.311488 22.189212 29.4087415 21.6424195 29.2630491 21.0047884 29.1169811 19.5467925 28.5342112 19 28.1451973M23.5 12C23.749839 12 24 11.7500805 24 11.500161 24 11.2083736 23.749839 11 23.5 11 23.2086285 11 23 11.2083736 23 11.500161 23 11.7500805 23.2086285 12 23.5 12M44 42.7878493C44 42.3708158 43.6065636 42 43.1146731 42L41.8853269 42C41.3934364 42 41 42.3708158 41 42.7878493L41.049037 55.2121507C41.049037 55.6295424 41.3934364 56 41.8853269 56L43.1146731 56C43.6065636 56 44 55.6295424 44 55.2121507L44 42.7878493M46 43.1388712L46 43.6084678C46 43.8435687 46.1792525 44 46.4477853 44L54.3283221 44C54.6868271 44 55 43.725867 55 43.4127017L55 42.5906051C55 42.2774399 54.6868271 41.9642747 54.3283221 42.0033069 54.3283221 42.0033069 46.7163181 42.6689721 46.4477853 42.7080043 46.1792525 42.7080043 46 42.9037704 46 43.1388712M39.2985178 56C37.3281619 56 36.1194417 54.470519 36.1194417 52.7550926L36.1194417 47.7947589 35.5374012 47.7947589C35.2685276 47.7947589 35 47.5167366 35 47.238356L35 46.4039308C35 46.0793326 35.2685276 45.8475279 35.5374012 45.8475279L36.1194417 45.8475279 36.1194417 42.7878493C36.1194417 42.3708158 36.4329546 42 36.8807313 42L38.000173 42C38.4029644 42 38.7164773 42.3708158 38.7164773 42.7878493L38.7164773 45.8475279 40.4625988 45.8475279C40.7761117 45.8475279 41 46.0793326 41 46.4039308L41 47.238356C41 47.5167366 40.7761117 47.7947589 40.4625988 47.7947589L38.7164773 47.7947589 38.7164773 52.3842768C38.7164773 53.2649196 39.2535325 53.9141161 40.1940712 53.9141161L40.3729742 53.9141161C40.6864871 53.9141161 40.9550147 54.1459208 40.9550147 54.5167366L40.9550147 55.3973795C40.9550147 55.7219777 40.6864871 56 40.3729742 56L39.2985178 56M25 50.9350953C25 48.467715 23.4613233 46 19.9772695 46 16.7645825 46 15 48.4242221 15 50.9350953 15 53.6189361 16.9002658 56 20.0223808 56 22.1492516 56 24.2306616 54.961191 24.6380613 53.1863499 24.6831725 52.9698896 24.5020283 52.6236199 24.1855504 52.6236199L22.6468737 52.6236199C22.3755071 52.6236199 22.1492516 52.7534292 22.0135683 52.9698896 21.5610575 53.5757779 20.9274024 53.8788893 20.0223808 53.8788893 18.6651979 53.8788893 17.7601762 52.8832385 17.6696041 51.7577785L24.1400895 51.7577785C24.7282837 51.7577785 25 51.4546671 25 50.9350953zM17.7147153 49.8962864C17.8052875 48.8139846 18.8008812 47.9913014 19.9772695 47.9913014 21.1991188 47.9913014 22.1943628 48.8139846 22.3300462 49.8962864L17.7147153 49.8962864 17.7147153 49.8962864zM55 50.9350953C55 48.467715 53.4613233 46 49.9772695 46 46.7645825 46 45 48.4242221 45 50.9350953 45 53.6189361 46.9002658 56 50.0223808 56 52.1492516 56 54.2306616 54.961191 54.6380613 53.1863499 54.6831725 52.9698896 54.5020283 52.6236199 54.1855504 52.6236199L52.6468737 52.6236199C52.3755071 52.6236199 52.1492516 52.7534292 52.0135683 52.9698896 51.5610575 53.5757779 50.9274024 53.8788893 49.9772695 53.8788893 48.6648482 53.8788893 47.7601762 52.8832385 47.6696041 51.7577785L54.1400895 51.7577785C54.7282837 51.7577785 55 51.4546671 55 50.9350953zM47.7147153 49.8962864C47.8052875 48.8139846 48.8005315 47.9913014 49.9772695 47.9913014 51.1991188 47.9913014 52.1943628 48.8139846 52.284935 49.8962864L47.7147153 49.8962864 47.7147153 49.8962864z"/>
      <path d="M33.4108581,42.2302784 L12.4721541,42.2302784 C11.9737303,42.2302784 11.6112084,42.6449218 11.6112084,43.1051227 L11.6563923,51.4869709 C11.6563923,51.4869709 7.16952715,43.1973052 6.94290718,42.7830177 C6.71628722,42.3683742 6.2178634,42 5.58318739,42 L3.86094571,42 C3.36252189,42 3,42.4146434 3,42.8748443 L3,55.1251557 C3,55.6319817 3.36252189,56 3.86094571,56 L4.94886165,56 C5.44728546,56 5.80980736,55.6319817 5.80980736,55.1251557 L5.76462347,46.5592983 C5.76462347,46.5592983 10.2966725,54.8948773 10.5232925,55.2173382 C10.7499124,55.677895 11.2031524,56 11.8378284,56 L13.4238179,56 C13.9225919,56 14.2851138,55.6319817 14.2851138,55.1251557 L14.2851138,44.3027838 L33.4108581,44.3027838 C33.7281961,44.3027838 34,44.0262362 34,43.7041312 L34,42.828931 C34,42.5064701 33.7281961,42.2302784 33.4108581,42.2302784"/>
      <path d="M30.4774029,47.9049849 C31.3908199,47.9049849 32.0761475,48.2077618 32.3504904,48.7708264 C32.4415849,49.030445 32.6700275,49.0736032 32.9899176,49.0736032 L34.2691251,49.0736032 C34.4520204,49.0736032 34.7260102,48.9006357 34.7260102,48.6406825 C34.7260102,47.2556039 32.9443703,46 30.4774029,46 C27.9186348,46 26.2284425,47.1689528 26.2284425,48.9869522 C26.2284425,50.4158581 27.4162024,51.2382068 28.8324049,51.6276347 C29.5177324,51.7577785 30.6599451,52.0173971 31.2082778,52.1906992 C31.7562574,52.3205085 32.30459,52.4934761 32.30459,52.9698896 C32.30459,53.74908 31.4822676,53.9655403 30.5229502,53.9655403 C29.6547273,53.9655403 28.7868576,53.6189361 28.5584151,53.0130478 C28.4214202,52.6667782 28.1470773,52.6236199 27.7816399,52.6236199 L26.5024323,52.6236199 C26.2739898,52.6236199 26,52.8397457 26,53.0996989 L26,53.2726664 C26,54.6145868 27.9186348,56 30.5684974,56 C32.3960377,56 35,55.2639679 35,52.9263968 C35,51.5409836 34.0406826,50.5888257 32.4415849,50.1990632 C31.847705,50.0692539 30.3859553,49.679826 30.0660651,49.6363332 C29.4721852,49.4633657 28.9238525,49.2900636 28.9238525,48.8571429 C28.9238525,48.1211107 29.6091801,47.9049849 30.4774029,47.9049849"/>
    </g>
    <g fill="#FFF" transform="translate(206 28)">
      <path d="M38.2953281,28.8310314 C34.5843385,26.4121704 29.5486987,25.9871403 21.4270355,28.2682329 C12.7684458,30.3271373 9.88224928,31.6473688 6.09074966,28.9975259 C4.63403998,27.6954682 4.11217301,25.5996301 4.50198042,22.5798646 C5.40670428,17.6583091 7.85038544,12.921422 12.191554,7.66746371 C14.6149629,4.93437361 16.8622923,2.58879371 19.8301573,1.64727876 C22.1052888,1.05634037 21.89214,2.86608921 21.6170159,3.12462476 C21.3268324,3.12462476 20.8391387,3.17093839 20.4620739,3.42009396 C20.1556726,3.65986956 19.3158201,4.43606246 19.2706418,5.47899839 C19.2057704,7.07652531 20.8391387,6.74412246 21.5434564,5.86709484 C22.3022197,4.87926626 23.424726,2.98627014 22.5420121,1.22224867 C22.1718978,0.594376616 21.5330307,0.160552791 20.7389356,0.0128181915 C18.0212888,-0.144296383 15.4901471,1.16714132 13.154778,2.61693364 C8.04557875,6.20887766 3.95926194,11.1855404 1.64648192,16.6335469 C0.31372289,19.9206418 -0.892189456,24.6299753 0.914941436,28.4616949 C2.31315104,31.1209177 5.21556543,32.5337764 8.67807456,32.2383072 C11.1072755,31.9797716 14.043284,31.1859913 16.0189646,30.7058538 C17.994066,30.2251301 28.1047316,26.7076396 31.4270723,32.8298318 C31.4270723,32.8298318 32.5316231,30.6595402 35.2921314,30.6132266 C37.56205,30.4010046 40.8357371,31.2780323 43.220339,33.0508475 C42.426244,31.841417 40.1742809,30.0592218 38.2953281,28.8310314"/>
      <path d="M22.1928046 7.95777347C20.2894258 6.72290898 16.4628412 9.0842052 13.3978415 13.1360142 10.5952561 16.7702417 9.3852343 20.9939281 10.7019713 22.947448 12.6613318 25.2458763 16.2983949 21.9029176 17.8448902 20.1132004L18.0443251 19.9044097C19.0963151 18.7866295 19.9092165 17.4421787 20.6952933 16.1519443 20.6952933 16.1519443 21.4183907 14.9712962 21.4527961 14.9165031 21.8994837 14.8351785 22.4377247 14.7077123 23.0441934 14.5352581 23.0354463 14.5623663 20.7238673 18.4053846 20.9594571 20.3127628 21.0329331 20.8941469 20.9769514 23.020121 23.0756832 23.6649498 25.8724371 24.1280961 28.1052918 21.9842422 30.0757321 20.0768639 30.0757321 20.0768639 30.4110393 19.7584869 30.6011439 19.5773811 30.5527431 19.7677152 30.4903468 20.0220708 30.4903468 20.0220708 29.671614 22.8384385 30.7749206 23.4290509 31.4653619 23.6464932 33.5524308 24.246334 36.0447841 21.2488605 36.0529481 21.2488605 35.9882192 22.1936097 35.7992809 22.9745562 36.8057858 23.6015051 37.7557258 23.937762 38.7173286 23.4377025 39.4480068 22.9566763 42.0803145 21.1213943 44.2012056 18.2323536 45.9138967 15.7799277L44.8216698 15.7799277C44.8088407 15.7978076 42.1252165 19.6137176 40.3827851 20.4488805 40.3804525 20.4488805 40.0632227 20.6034549 39.8801158 20.4759887 39.6544395 20.2856546 39.7436603 19.8582681 39.8836147 19.5773811 39.8923618 19.5589245 46.6101695 8.0033383 46.6101695 8.0033383L43.4384546 8.0033383C43.4384546 8.0033383 43.0920676 8.58472242 43.0634936 8.62105892 43.0419173 8.60317906 42.9911839 8.52127772 42.9561953 8.47571289 40.9904201 5.78681133 36.5398725 9.9291732 33.1891327 14.7255922 31.8992203 16.5701025 30.2565064 18.6505118 28.5537288 20.1489601 28.5537288 20.1489601 26.0304689 22.4387369 24.9528206 20.7943657 24.5586159 20.1039721 24.6799096 19.0957782 24.9020871 18.4324927 26.1570109 14.8986232 28.3198884 11.6917822 30.780752 9.75671898 31.4752753 9.22089968 32.2304456 9.06632534 32.6054065 9.2935727 32.9622901 9.50236343 33.0200212 10.0203029 32.7943449 10.3744396 32.2211153 10.3565597 31.7621817 10.529014 31.388387 10.9102589 30.6530437 11.6733256 30.397627 12.4098608 30.6314674 13.0996777 31.7668469 14.6990608 34.0323575 11.5372079 33.9227266 9.61137295 33.8836561 8.9209793 33.5110277 8.26692217 32.9552923 7.94854515 32.1272293 7.45829068 30.8629752 7.58575684 30.0454086 7.97623011 28.9508492 8.38516001 27.217165 9.81093536 26.2059949 10.9194872 24.9318274 12.3095028 22.7479568 13.8540928 22.0650963 13.6810618 22.2890232 13.0904494 24.1340878 9.3570174 22.1928046 7.95777347zM37.4868968 13.4814994C38.1038621 12.6365314 39.8999427 10.3744396 40.3378831 9.99319466 41.8109024 8.71161181 42.3992937 9.27569283 42.4500271 9.67481764 41.075559 12.1093637 39.4538383 14.8986232 37.9289192 17.4058422 37.931835 17.3966139 37.4513251 18.123344 37.4513251 18.123344 36.7777949 19.1407663 36.0995996 20.0128424 34.9933772 20.6219115 34.8353455 20.6668996 34.5752637 20.6853562 34.4020702 20.5578901 34.1938881 20.4217723 34.111665 20.1951017 34.1355738 19.9586261 34.201469 19.1771028 35.0056232 16.7881216 37.4868968 13.4814994zM20.2299452 14.944188C20.2299452 14.944188 20.2025375 15.0260893 20.188542 15.0531975 20.1850432 15.0531975 18.8053268 17.278376 18.8053268 17.278376 17.9731817 18.3776996 16.9334377 19.7584869 15.634195 20.4217723 15.2487375 20.5492385 14.716911 20.6305631 14.4457495 20.2948829 13.8701873 19.6137176 14.1670071 18.6683917 14.4072621 17.9059018L14.4924009 17.6330896C15.1828423 15.7799277 16.2791512 14.1447848 17.3451366 12.6273031 17.3585489 12.6186515 17.3882892 12.6094232 17.3987858 12.6094232 17.4017015 12.6186515 17.4057835 12.6186515 17.4075329 12.6365314 18.0769811 13.9083092 19.3319049 14.4989216 20.2701821 14.771157 20.2760135 14.771157 20.2818449 14.7803853 20.2818449 14.798842 20.2818449 14.8259502 20.2661001 14.8622867 20.2299452 14.944188zM21.5367687 12.3187311C21.5309373 12.336611 20.922136 13.7179751 20.922136 13.7179751 20.8340814 13.7900713 20.6952933 13.7537348 20.5360953 13.7179751L20.2631843 13.6724102C19.405381 13.4088264 18.7586753 12.8453221 18.5592404 12.1733851 18.2839969 10.8652708 19.4141281 9.83862031 19.9121322 9.46602692 20.3891432 9.13899835 21.1320675 8.96654413 21.5635933 9.30280102 21.8295065 9.61137295 21.9303903 10.0110745 21.9303903 10.4471126 21.9303903 11.0377251 21.7461171 11.7010105 21.5367687 12.3187311L21.5367687 12.3187311zM61.8454279 16.9321018C61.5390943 16.2669827 60.8126459 15.8423388 60.0383512 15.8880877 57.5240815 16.1191785 55.0640767 18.1978223 53.773391 21.1814737 53.0959561 22.715236 52.7260217 23.9809564 52.4827053 25.9944959 53.2651689 25.0894882 54.8598542 23.6020614 56.6692649 22.7891381 56.6692649 22.7891381 56.9160822 20.8582986 58.1717583 19.139781 58.6467213 18.428913 59.5978143 17.2828436 60.6656058 17.5878365 61.5986105 17.9022138 61.2706877 20.4981724 60.0307658 23.0102579 59.1135154 24.8583975 57.7096322 26.7059505 56.2888277 27.9810553 55.0331515 29.0526361 53.1747276 30.3459232 51.5491171 29.3482445 50.5250876 28.7382588 50.0028617 27.463154 50.1131418 25.819125 50.6026921 21.1539071 52.7149354 17.1813748 55.7385941 12.6551632 58.8561952 8.45154026 62.2917997 4.13765062 66.9212302 1.8373005 67.8653212 1.35635019 68.7399767 1.24608353 69.4955996 1.54169201 69.4955996 1.54169201 65.1497466 3.94351092 63.0783478 8.38702253 62.5520374 9.51432313 61.8191707 11.0381145 62.5567054 12.3871214 62.942394 13.0891916 63.6279978 13.1443249 64.1788149 13.1073738 66.7175913 12.5161569 68.3583725 10.1325202 69.6980716 7.95299421 70.4758672 6.29899437 71.1667225 4.65496546 71.1667225 2.82559472 71.1667225 2.60388836 71.1550526 2.30827988 71.1363809 2.08657352 72.3488785 1.43963671 74.8363076 2.58511957 74.8363076 2.58511957 76.7799215 3.23205638 80.9192181 6.41923195 82.3149325 7.02863118 82.9964518 6.23447665 84.1150072 5.03386046 84.7457627 4.4332591L83.8331803 3.8696088C82.3726982 2.97339896 80.8293603 2.12352458 79.309362 1.28303459 75.8585866-.61085387 73.0496532.0542652128 71.6206797.571580055 71.0587763.774517623 70.5453028.950475052 70.5453028.950475052 69.4839298-.213776604 67.7445383-.102923424 66.462605.211453849 61.8524298 1.54169201 57.5719279 4.78400091 52.982175 10.4099464 49.6084207 14.816507 47.5154326 18.6230527 46.3997948 22.3826765 45.5403101 24.9141173 45.2789054 28.63679 47.3777284 30.8444692 49.1620488 32.7195889 51.5275279 32.3131272 53.1986508 31.6392103 56.8192225 29.8467906 60.0727773 25.9851116 61.6937198 21.5415999 62.0840764 20.2207462 62.5187784 18.3544244 61.8454279 16.9321018zM70.1689501 3.01035002C69.6899027 8.53482677 65.4175697 11.7771357 64.3608646 12.0357931 63.7207732 12.1648285 62.627308 11.879191 63.6034911 9.56007206 65.04005 6.43741422 67.4930529 3.78632229 70.1257716 2.42851746 70.1893723 2.65960821 70.1876219 2.80682593 70.1689501 3.01035002L70.1689501 3.01035002zM95.3474559 3.68088988C93.0734305 4.95908775 90.7168497 5.78645946 87.8637819 5.49847925 87.0728668 6.38070433 86.3033121 7.28978471 85.5932203 8.22572039 89.5974449 9.23365112 93.8435625 6.99266228 96.2105349 4.85966601 98.7154845 2.70895668 100 0 100 0 100 0 98.1220094 2.12385404 95.3474559 3.68088988"/>
      <polyline points="51.695 8.475 48.444 8.475 46.61 11.017 49.861 11.017 51.695 8.475"/>
      <path d="M87.866987,29.0171247 C87.5429333,29.2408752 87.0869228,29.0538245 87.2574158,28.541211 C87.6818969,27.2359999 89.3693112,24.5509942 89.3693112,24.5509942 L94.0677966,16.0762971 L90.8494479,16.0762971 C90.6964713,16.3556892 90.3694983,16.9340072 90.3694983,16.9340072 C90.2206088,16.6824359 89.775108,16.1319387 89.5917696,16.0111845 C88.8052827,15.50745 87.6515351,15.7501423 86.8551223,16.2065222 C83.3950471,18.2581601 80.8697645,22.3134895 78.8787324,25.4738169 C78.8787324,25.4738169 76.7826018,28.9887119 75.6189282,29.2497541 C74.7109942,29.3243376 74.8038312,28.0842391 74.8429512,27.7953761 C75.1944471,25.7070383 76.0107119,23.7211049 76.8322316,21.9222221 C78.5032973,20.7472362 80.4114184,19.2088037 82.1449592,17.5212042 C85.9069005,13.8760841 89.0785387,9.74557931 89.5421398,8.82275659 C89.5421398,8.82275659 89.0405865,8.92516091 88.4473641,8.94410275 C85.5536529,13.0367238 79.6307703,18.9850532 77.8353381,19.8705842 C78.6305832,17.9314134 83.7698983,8.67358961 88.1431624,4.24534282 L88.8315573,3.57349946 C89.8953874,2.5204516 90.9983374,1.43899098 91.8572255,1.26141124 C91.9483108,1.25253226 92.0650869,1.26141124 92.1660982,1.47628273 C92.2040504,2.29670113 91.903352,2.90283998 91.5576948,3.5924413 L91.073658,4.59931843 C91.073658,4.59931843 91.7591336,4.46909329 92.2098892,4.31933437 C92.7330461,3.32192817 93.3116715,2.2031758 93.0979713,0.870143882 C93.0267379,0.440992842 92.7207846,0.114838052 92.3202426,0.0402545614 C91.0158539,-0.211316738 89.5935212,0.767147632 88.4496996,1.56033714 L88.403573,1.58815797 C82.5227298,6.25909707 77.5562433,12.9905531 73.2150926,22.1832643 C72.8997972,22.4253647 71.6841583,22.7142278 71.4774646,22.5745317 C71.9066167,21.6795298 72.4461222,20.476723 72.7164588,19.1715119 C72.7637531,18.7985945 72.8069603,18.4162061 72.8069603,18.0432887 C72.8069603,17.2418121 72.6166153,16.4865063 71.9077845,15.9644218 C71.0763388,15.5447417 70.0487093,15.7406714 69.3562272,16.0573552 C66.2523191,17.3631582 63.9331462,20.5885983 62.2591612,23.2457831 C61.3588176,24.9333826 60.4613935,26.7417363 60.2126604,28.8117241 C60.0374963,30.434211 60.3942472,31.477788 61.3039329,32.0004643 C62.2393092,32.4846651 63.416996,31.9815225 63.8794292,31.7394221 C67.0230412,30.0612936 69.2201831,26.6955655 70.9519723,23.6187006 C71.0208702,23.6092297 71.9661725,23.5814088 72.681426,23.3949501 C72.6913519,23.3949501 72.6948552,23.3949501 72.71062,23.404421 C72.6697484,23.5441171 72.3001521,24.6628694 72.3001521,24.6628694 C71.202457,27.9261931 70.6950649,30.145348 71.7320365,31.459438 C73.213341,33.3145544 75.6656386,31.3943255 77.6607579,28.8584868 C77.2327736,31.8974681 78.7864793,32.3733818 79.9705887,32.1401604 C81.33103,31.7672429 82.8473673,30.293923 83.5503593,29.5392091 C83.3249815,30.4247401 83.3868728,32.0093433 84.6241153,32.1679812 C85.4719096,32.3266191 86.1071715,31.8885891 86.8422769,31.4878508 C89.477329,30.0328808 92.630867,25.1571331 93.4500512,23.8146302 L92.3762951,23.8146302 C91.2120377,25.5578713 89.7307331,27.9072513 87.866987,29.0171247 Z M64.2157443,28.6625571 C64.0487545,28.4109858 63.9932859,28.1215309 63.9874471,27.8237888 C63.9553337,25.9959014 65.8955682,22.7420486 67.2647677,20.924224 C67.268271,20.924224 67.268271,20.924224 67.268271,20.924224 C67.8416415,22.2761977 69.1413592,23.0315036 69.9260945,23.3766002 C68.9515981,25.5768132 65.6094668,30.3033939 64.2157443,28.6625571 Z M70.4755259,22.4064229 C70.3826889,22.4721274 68.7437367,21.9127512 68.4278574,20.3743187 C68.1592724,19.0501658 69.0584482,18.0154678 69.9290139,17.4933834 C70.3021134,17.1950494 70.865558,17.0926451 71.2777775,17.2418121 C71.6608031,17.5028543 71.7647338,17.9687052 71.7647338,18.4724397 C71.7647338,18.7802446 71.724446,19.0969284 71.6888293,19.3857915 C71.6888293,19.3857915 71.6824066,19.4420251 71.6812389,19.4509041 C71.4079829,20.4861939 70.9899245,21.502542 70.4755259,22.4064229 Z M83.6192572,28.0753601 C83.6180894,28.0753601 83.3086328,28.3547523 83.3086328,28.3547523 C82.8666354,28.7554905 82.4112087,29.1846416 81.862945,28.970362 C81.7111361,28.9141284 81.604286,28.7093198 81.5785952,28.5506819 C81.5534884,27.4041087 82.0637998,26.340998 82.5571788,25.3063 L82.6832969,25.0357869 C84.1044618,22.6307653 85.7562594,19.7960007 88.1822824,17.8290091 C88.5909986,17.5306751 89.0347477,17.2785119 89.5024359,17.4744416 C89.6104538,17.5774378 89.7359881,17.7544256 89.7359881,17.9314134 C89.7359881,17.987647 89.6869421,18.136814 89.658332,18.1829847 C88.9804468,19.2928581 88.335259,20.4583731 87.7081715,21.5765336 C86.4820227,23.7862175 85.2097473,26.0704849 83.6192572,28.0753601 L83.6192572,28.0753601 Z"/>
    </g>
    <g fill="#FFF" transform="translate(228 81)">
      <path d="M56.5140894,26.5321286 C57.4836828,42.1223344 45.6285384,55.5452515 30.0393786,56.5127527 C14.4461508,57.4814163 1.02322204,45.627318 0.0556045871,30.0410058 C-0.91503485,14.4489403 10.9401095,1.02398916 26.531315,0.0554418647 C42.1204747,-0.913686579 55.5454259,10.9408766 56.5140894,26.5321286 Z M31.6403351,49.2688256 L30.5937972,49.3341471 L30.7730244,52.214567 C30.8119616,52.7972296 30.4359565,53.2669163 29.8863033,53.3020179 C29.3299087,53.3351435 28.9002052,52.919039 28.8621979,52.3354465 L28.8621979,52.3354465 L28.6790189,49.4558402 L27.632481,49.5211617 L27.8175197,52.4415648 C27.8887689,53.5622576 28.6254367,54.3515777 29.9477891,54.2677757 C31.2642138,54.1838574 31.896623,53.3088755 31.8244439,52.1892288 L31.8244439,52.1892288 L31.6403351,49.2688256 Z M22.4601154,48.6939272 L21.5245775,53.3624344 L23.4355203,53.7454133 C24.2686592,53.9130175 25.2568495,53.7747034 25.4516515,52.7973226 C25.5743907,52.1922275 25.2547573,51.6552434 24.6594256,51.4545136 L24.6594256,51.4545136 L24.6604717,51.4378927 C25.1709552,51.3843105 25.5667195,51.0919913 25.6719079,50.573604 C25.8744974,49.5572861 25.0190422,49.2063867 24.2005483,49.0437805 L24.2005483,49.0437805 L22.4601154,48.6939272 Z M36.5614108,47.8198054 L33.4947899,48.8518145 L35.0120606,53.3653867 L38.1925872,52.2982761 L37.8866689,51.3794753 L35.7000279,52.1141672 L35.3891117,51.1943204 L37.3467791,50.536573 L37.036909,49.6187022 L35.0811014,50.2783093 L34.7976156,49.4363368 L36.8702348,48.7396522 L36.5614108,47.8198054 Z M22.9415414,51.6366466 L23.719006,51.7926277 C24.0543305,51.8608549 24.5347104,52.0304349 24.4460267,52.4737374 C24.3651304,52.8831006 23.9743641,52.9483058 23.6508951,52.8840304 L23.6508951,52.8840304 L22.7281425,52.6988755 L22.9415414,51.6366466 Z M41.960658,44.5651471 L41.0924175,45.1527612 L42.9448964,47.891845 L42.9342032,47.9006785 L39.4037071,46.2908885 L38.221761,47.089972 L40.8877359,51.0384323 L41.7580686,50.4487959 L39.8588651,47.6404388 L39.8695583,47.6317215 L43.4905978,49.2775429 L44.6267492,48.5107715 L41.960658,44.5651471 Z M23.3137109,49.7696389 L24.0133012,49.9109749 C24.3368864,49.9761801 24.6867397,50.1487822 24.6087492,50.5365265 C24.5337806,50.9126479 24.1761399,50.9799452 23.8613882,50.9155536 L23.8613882,50.9155536 L23.113911,50.7665464 L23.3137109,49.7696389 Z M15.8922885,45.2686196 C14.6909318,44.3897556 13.2418884,44.5358571 12.3405222,45.7695723 C11.4391212,47.001265 11.7354271,48.4268299 12.9358539,49.303904 C14.134421,50.1819078 15.5843943,50.0347602 16.4868066,48.8010916 C17.3881727,47.5693988 17.0909718,46.1438339 15.8922885,45.2686196 Z M13.2185261,46.4106987 C13.7436547,45.6955335 14.5982963,45.520142 15.3193892,46.0481763 C16.0404821,46.5764432 16.1320716,47.4436376 15.6068268,48.1608949 C15.0834416,48.8752465 14.2299624,49.0505218 13.5068935,48.5243472 C12.7868467,47.9951505 12.696187,47.1270262 13.2185261,46.4106987 Z M27.0828278,8.92823235 C16.3912652,9.59330227 8.26239532,18.7974654 8.92700031,29.4856573 C9.59160531,40.1764063 18.7960707,48.3070081 29.4877495,47.6404272 C40.1774524,46.9777981 48.3042767,37.7703224 47.6407178,27.0796896 C46.9761128,16.3905679 37.7725308,8.26409228 27.0828278,8.92823235 Z M11.0453677,40.599136 L7.35028947,43.5993894 L9.23682387,45.9225779 L9.98906652,45.3126011 L8.76318529,43.804071 L11.7100889,41.4137944 L11.0453677,40.599136 Z M48.162127,41.1282165 C46.9791347,40.1654807 45.5398546,40.3875968 44.601411,41.5403692 C43.6630836,42.6931415 43.7361925,44.1481127 44.9191847,45.1138821 C46.1020607,46.0755718 47.5433167,45.8543855 48.4826902,44.7016015 C49.4211339,43.5488292 49.348025,42.0939742 48.162127,41.1282165 Z M45.35284,42.151392 C45.9169058,41.4595891 46.7881683,41.4137944 47.4761356,41.9750706 C48.162127,42.5343709 48.2946296,43.3957538 47.7304476,44.0896489 C47.1653357,44.7852874 46.2960491,44.8301523 45.6062222,44.268876 C44.9191847,43.7075998 44.7866821,42.844241 45.35284,42.151392 Z M4.88405634,23.3543915 C4.10054772,23.3397465 3.45837518,23.9634384 3.44675215,24.7517125 C3.43210713,25.5332452 4.05184722,26.1812292 4.8352396,26.1929685 C5.63339324,26.2085433 6.26673228,25.5829917 6.28230714,24.801459 C6.2940464,24.0121389 5.68209374,23.3679905 4.88405634,23.3543915 Z M51.6866953,23.3543915 C50.8895878,23.3679905 50.2767053,24.0121389 50.2893744,24.801459 C50.3029733,25.5829917 50.9393344,26.2085433 51.7353958,26.1929685 C52.5207641,26.1812292 53.1386445,25.5332452 53.1279514,24.7517125 C53.1123765,23.9634384 52.4720636,23.3397465 51.6866953,23.3543915 Z M11.8220187,9.85633149 C11.0044895,9.07526371 10.2092416,9.44999028 9.5253424,10.1646905 L9.5253424,10.1646905 L8.30329677,11.444154 L11.7440282,14.733937 L12.470119,13.9748368 L11.1301345,12.6933975 L11.6612722,12.1385139 C12.3501693,11.4140503 12.6299357,10.6276359 11.8220187,9.85633149 Z M45.7747561,8.87209311 L42.3787385,12.207671 L44.731124,14.6018994 L45.420951,13.9252065 L43.8024438,12.2788039 L44.4962226,11.6006 L45.942244,13.0730057 L46.6342794,12.3948018 L45.1852359,10.92135 L45.8205509,10.299169 L47.3494446,11.8587475 L48.0422935,11.1796137 L45.7747561,8.87209311 Z M10.0417537,10.9097269 C10.3223337,10.6183375 10.7131001,10.3046319 11.0687649,10.6441406 C11.3903742,10.9511049 11.2266057,11.3053749 10.9713639,11.5734021 L10.9713639,11.5734021 L10.4870321,12.0800501 L9.669468,11.2980524 Z M16.958353,6.31514221 C16.3706925,5.37286297 15.4947808,5.5209404 14.6664072,6.03595697 L14.6664072,6.03595697 L13.1014821,7.00752625 L15.6164739,11.0519928 L16.5081929,10.497458 L15.502452,8.88290253 L15.9428487,8.60755289 L17.792538,9.69895563 L18.8594162,9.03435064 L16.7712222,7.96689134 C17.2779864,7.50778156 17.3082063,6.88083519 16.958353,6.31514221 Z M41.4871357,5.64426077 C40.2009309,4.90271131 38.7742037,5.20723476 38.0112678,6.53098192 C37.2512378,7.85379924 37.7024439,9.23903224 38.9915544,9.98011679 C39.5966495,10.3298538 40.2525372,10.5525511 40.9501516,10.5807951 L40.9501516,10.5807951 L42.1917239,8.42379275 L40.5760062,7.49476377 L40.0927205,8.33417917 L40.8332239,8.76097692 L40.4493151,9.43046359 C40.2252231,9.42604683 39.8695583,9.36909397 39.4729804,9.14256107 C38.6983053,8.69519055 38.5131504,7.84357097 38.9565691,7.07424245 C39.3998715,6.30444902 40.2291749,6.03793288 41.0028039,6.48274633 C41.4637734,6.74879984 41.6849597,7.05378592 41.7823607,7.45187478 L41.7823607,7.45187478 L42.8269226,7.12201312 C42.6330505,6.4983212 42.1400014,6.01991718 41.4871357,5.64426077 Z M15.0455505,6.84619856 C15.3699494,6.64302795 15.7733848,6.4787945 16.0257209,6.88525195 C16.2995595,7.32413765 15.8846173,7.59855745 15.5590561,7.80021706 L15.5590561,7.80021706 L15.0347411,8.12763788 L14.4617256,7.20872094 Z M33.0962361,2.58937916 L31.9356763,7.20720994 L35.1912877,8.0253552 L35.4280489,7.08633041 L33.1898015,6.52319449 L33.4265627,5.58428593 L35.4280489,6.08767946 L35.6649263,5.14772483 L33.6604181,4.64537737 L33.8786987,3.78352951 L35.9971126,4.31598063 L36.2338737,3.3771883 L33.0962361,2.58937916 Z M24.4538141,4.74196477 C24.0474729,3.27095378 22.7446472,2.6190179 21.3101326,3.01466592 C19.8798022,3.41124379 19.0943177,4.63910093 19.5017049,6.11104176 C19.9088598,7.58240143 21.2108719,8.23340748 22.6442242,7.8371783 C24.0757169,7.44362242 24.8621313,6.21332444 24.4538141,4.74196477 Z M21.5685126,3.9486928 C22.4318714,3.71053687 23.1655172,4.1767367 23.4033245,5.03230812 C23.6390396,5.88834446 23.2493193,6.66743632 22.3859604,6.90466241 C21.5226016,7.14200473 20.7879097,6.67615359 20.5521946,5.82011725 C20.3143874,4.96547568 20.7060836,4.18650005 21.5685126,3.9486928 Z M26.5731579,2.16409241 L26.5604888,3.09172662 L27.9168967,3.11415908 L27.8564569,6.9475514 L28.9040408,6.96370741 L28.9673863,3.13159363 L30.3258864,3.15309624 L30.3405314,2.22453218 L26.5731579,2.16409241 Z"/>
      <polygon points="36.962 26.092 40.84 21.247 36.847 21.247 34.943 23.636"/>
      <path d="M31.756333 31.3497593L31.7581926 31.4022954 39.2264559 31.4022954 39.2264559 31.3448776C39.2264559 31.3448776 39.1142936 31.3253509 38.9973659 31.3058242 38.4985054 31.240619 38.1008814 31.1060243 37.8221611 30.9890966 36.694727 30.5262674 35.7486121 29.6054908 34.9426711 28.6544943 34.9426711 28.6544943 34.3453634 29.4397464 33.8123312 30.0196194 33.0201053 30.8887898 32.1625579 31.2473604 31.756333 31.3497593M27.8117082 31.3497593C27.3244707 31.2230682 26.8655934 30.9648044 26.7222814 30.8722851 25.1553804 29.8919986 24.1175598 28.1837615 24.1175598 26.1598428 24.1175598 23.0513791 26.6316217 20.5416177 29.7371798 20.5416177 31.2709551 20.5416177 32.7911315 21.1257913 34.0053897 22.5476368L34.0735007 22.6284169 34.1222012 22.5894797 28.0542809 12.0991118 16.9194158 31.4022954 27.8068265 31.4022954 27.8117082 31.3497593M29.7371798 23.6711191C30.510925 23.6711191 31.1764599 24.0141148 31.6626513 24.5841083 31.8342073 24.7955313 31.8926711 24.8510894 32.023314 25.0235752 32.4821913 25.6141415 32.6439839 25.8246346 32.9159629 26.1656544 32.6439839 26.4910993 32.4881191 26.7182133 32.023314 27.3097094 31.8868596 27.4791733 31.8342073 27.5397293 31.6626513 27.7441784 31.1764599 28.319286 30.510925 28.6544943 29.7371798 28.6544943 28.365197 28.6544943 27.2533351 27.5397293 27.2533351 26.1656544 27.2513618 24.7955313 28.365197 23.6711191 29.7371798 23.6711191M27.9530443 37.1350074L27.9530443 36.6185961C27.9530443 36.6185961 27.9345637 36.6517217 27.8458799 36.6838013 27.6947805 36.7471468 27.4854497 36.8036348 27.2612414 36.8504756 26.9883326 36.9089395 26.4406553 37.0180797 26.4553003 37.4029183 26.4729673 37.8014721 26.8782625 37.8891098 27.1901084 37.8559841 27.6744402 37.8083297 27.9335176 37.521822 27.9530443 37.1350074L27.9530443 37.1350074zM26.5830375 35.9500393L25.6777195 35.9247011C25.7118912 35.7454739 25.7118912 34.6336146 27.2679828 34.6569769 28.09624 34.6725518 28.9383287 34.9395328 28.9383287 35.9899063L28.9383287 38.1288929C28.9383287 38.2166468 28.9480921 38.2916154 28.9840073 38.3793693 29.018179 38.4427148 29.0453769 38.4621253 29.1038407 38.5128017L28.0426579 38.5128017C28.0426579 38.5128017 28.0087186 38.4358572 27.9832642 38.2673233 27.9676893 38.1522552 27.9647835 38.1522552 27.9530443 38.0675233 27.9530443 38.0675233 27.7981093 38.5742875 26.956253 38.608343 26.2351601 38.6394928 25.4974462 38.2205987 25.4497918 37.5091528 25.4234075 37.0423719 25.7283959 36.6682265 26.0918481 36.4898129 26.3754501 36.3525449 26.7905086 36.2579334 27.3830508 36.1829648 27.7455732 36.1284528 27.9248003 36.0709188 27.9385155 35.858566 27.9599019 35.5602028 27.6558433 35.4003861 27.3215649 35.390739 26.5175998 35.3780699 26.5830375 35.9500393 26.5830375 35.9500393L26.5830375 35.9500393zM20.4371266 35.5047609L20.9516782 35.5047609 20.9516782 37.4079162C20.9516782 37.7167402 20.9809683 38.1064605 21.2761933 38.3239274 21.5753702 38.539186 21.9768297 38.5128017 22.3549269 38.5069902L22.6724682 38.5069902 22.6754902 37.745914 22.4328013 37.745914C22.2651971 37.745914 22.1677961 37.734291 22.0850401 37.6689695 21.957303 37.5705225 21.9670664 37.4058241 21.9670664 37.3171404L21.9670664 35.5047609 22.6521279 35.5047609 22.6521279 34.7992428 21.9670664 34.7992428 21.9670664 33.6269438 20.9516782 33.6202024 20.9516782 34.7943612 20.4371266 34.7992428 20.4371266 35.5047609 20.4371266 35.5047609zM23.2640805 38.5128017L24.2930676 38.5128017 24.2930676 36.81735C24.2930676 36.3485931 24.3865168 35.9169136 24.8084329 35.7074666 25.0277595 35.5982101 25.2022212 35.5856572 25.446886 35.6177368L25.446886 34.7358973C25.4127143 34.7154408 25.2938107 34.7017256 25.1788589 34.6988198 24.8456266 34.6803392 24.5308748 34.869446 24.3417681 35.2095359 24.3251472 35.2388259 24.3136404 35.2621882 24.2823744 35.3370406L24.2472729 34.8012188 23.2640805 34.8012188 23.2640805 38.5128017 23.2640805 38.5128017zM18.4405221 35.48814C17.7047841 35.4920918 17.6346973 36.2043512 17.6346973 36.2043512L19.276683 36.2043512C19.276683 36.2043512 19.1694025 35.4812824 18.4405221 35.48814L18.4405221 35.48814zM16.5881594 36.7627217C16.5306254 35.6343577 17.2643874 34.6598827 18.4220415 34.6773172 20.4682763 34.7066073 20.3669235 36.9313719 20.3669235 36.9313719L17.6073831 36.9313719C17.6073831 36.9313719 17.6316753 37.8151873 18.5183964 37.8151873 19.1022213 37.8190229 19.2698255 37.3435246 19.2698255 37.3435246L20.3279863 37.4058241C20.3279863 37.4058241 20.0336911 38.5966038 18.5233943 38.6434446 17.8256637 38.6619252 16.6563866 38.1464437 16.5881594 36.7627217L16.5881594 36.7627217zM15.8026749 38.5128017L15.8026749 34.2633048 17.3753874 34.2633048 17.3753874 33.3395062 13.149369 33.3395062 13.149369 34.2633048 14.7034847 34.2633048 14.7034847 38.5128017 15.8026749 38.5128017 15.8026749 38.5128017zM37.1683655 37.1350074L37.1683655 36.6204558C37.1683655 36.6204558 37.1440734 36.6517217 37.0593415 36.688683 36.9033604 36.7500526 36.6948432 36.8075866 36.4745867 36.8523353 36.1979586 36.9089395 35.652141 37.0190096 35.6678321 37.4029183 35.6785252 37.8014721 36.0877722 37.8891098 36.3996182 37.859936 36.8858096 37.8121653 37.1440734 37.5227518 37.1683655 37.1350074L37.1683655 37.1350074zM35.7954529 35.9539911L34.8882753 35.9247011C34.9232606 35.7482634 34.9232606 34.6354743 36.4803982 34.6598827 37.3077257 34.6765036 38.150628 34.9404627 38.150628 35.9899063L38.150628 38.1288929C38.150628 38.2166468 38.1594615 38.2926615 38.1954929 38.3793693 38.2257128 38.4427148 38.2539568 38.4621253 38.3095149 38.5128017L37.2541435 38.5128017C37.2541435 38.5128017 37.2171823 38.4358572 37.1957959 38.2673233 37.1762692 38.1522552 37.1732472 38.1522552 37.1683655 38.0675233 37.1683655 38.0675233 37.0037834 38.5742875 36.1686685 38.608343 35.4485054 38.6394928 34.7089319 38.2205987 34.665113 37.5091528 34.6348932 37.0423719 34.9427873 36.6691563 35.3053097 36.4898129 35.5849598 36.3533585 36.0019942 36.2579334 36.5886087 36.1849408 36.9569426 36.1312424 37.133264 36.0767303 37.1518608 35.858566 37.1683655 35.5661305 36.8663992 35.405384 36.5330506 35.3945746 35.7301315 35.3858573 35.7954529 35.9539911 35.7954529 35.9539911L35.7954529 35.9539911zM32.0068093 34.2350608L32.0068093 35.829276 32.7775326 35.829276C33.3427606 35.8457807 33.7715343 35.6030918 33.7657228 35.0282166 33.7608411 34.4552011 33.3719345 34.2086766 32.7521944 34.2350608L32.0068093 34.2350608zM32.0039035 38.5128017L30.9065731 38.5128017 30.9065731 33.3443879 32.6967525 33.3443879C33.9527374 33.2985931 34.8258596 33.892995 34.8258596 35.0174072 34.8258596 36.3954339 33.8388317 36.7500526 32.5855201 36.7276201L32.0039035 36.7276201 32.0039035 38.5128017 32.0039035 38.5128017zM38.8854361 38.5128017L38.8854361 33.3472936 39.9182588 33.3472936 39.9182588 36.16739 41.2132971 34.7865737 42.430461 34.7865737 41.0516207 36.2122549 42.5912075 38.5128017 41.3468457 38.5128017 40.3168126 36.8689562 39.9182588 37.2693697 39.9182588 38.5128017 38.8854361 38.5128017 38.8854361 38.5128017zM44.0138667 32.9916288L44.2691085 32.9916288C44.4864592 32.9916288 44.7241502 32.9780299 44.7241502 32.7237179 44.7241502 32.4683599 44.4864592 32.454761 44.2691085 32.4585966L44.0138667 32.4585966 44.0138667 32.9916288zM43.6629674 32.1595359L44.3996352 32.1595359C44.8576989 32.1595359 45.0750496 32.3680531 45.0750496 32.7373169 45.0750496 33.0696194 44.8762957 33.231412 44.6151262 33.2615157L45.1139867 34.0703625 44.7466989 34.0703625 44.2691085 33.2898758 44.0138667 33.2898758 44.0138667 34.0703625 43.6629674 34.0703625 43.6629674 32.1595359zM44.306186 34.5020419C45.0652862 34.5020419 45.6801446 33.8871835 45.6801446 33.1280832 45.6801446 32.3680531 45.0652862 31.7542408 44.306186 31.7542408 43.5451098 31.7542408 42.9312975 32.3680531 42.9312975 33.1280832 42.9312975 33.8871835 43.5451098 34.5020419 44.306186 34.5020419L44.306186 34.5020419zM44.306186 31.4569236C45.2251029 31.4569236 45.9764157 32.2052145 45.9764157 33.1280832 45.9764157 34.0489761 45.2251029 34.7993591 44.306186 34.7993591 43.3852931 34.7993591 42.6330505 34.0489761 42.6330505 33.1280832 42.6330505 32.2052145 43.3852931 31.4569236 44.306186 31.4569236L44.306186 31.4569236z"/>
    </g>
    <g fill="#FFF" transform="translate(70 28)">
      <path d="M10.3499669,20.1757345 C12.1154049,19.7936771 14.1862866,19.2003178 16.675848,18.3547809 C21.6823824,16.6386541 28.8407279,12.5893069 29.7799018,7.87770487 C30.5983341,3.8458288 27.3200363,0.609383764 23.6883246,0.156782518 C20.5849391,-0.219011671 15.4217669,-0.529041876 3.02747799,6.92569292 C3.02747799,6.92569292 0.857392377,8.1737252 0.634183572,8.47139376 C0.403142878,8.77202911 -0.0370744886,10.9387793 0.0249279574,12.5893069 C0.0249279574,12.5893069 -0.237113959,14.5450849 0.937995557,13.6306524 C0.937995557,13.6306524 11.4164089,5.29263642 20.2964645,3.81451262 C24.8895405,3.06457246 29.1073384,5.71392149 26.156022,9.85523937 C23.3101097,13.8623921 18.8257012,15.7538896 11.9013333,17.6236305 C14.1135153,14.0173248 16.3456034,10.53991 16.3456034,10.53991 C17.3810442,8.51985143 15.9843576,7.01205966 14.8839773,7.51773359 C14.4747612,7.72903541 9.51423916,15.7852057 7.848005,18.4909239 C6.34591416,18.6504716 4.74951434,18.6896992 3.5342664,18.7694731 C1.75153291,18.9372619 1.08516978,20.4041778 3.03204659,20.7219546 C3.93565066,20.8617237 5.03766255,20.9194114 6.43761252,20.8145846 L2.27267979,27.6570056 C0.720986996,30.4349158 1.03556783,31.4699981 1.03556783,31.4699981 C1.40921415,33.8892556 3.56363598,32.0762134 3.9372823,31.7782152 C4.71688148,31.1630995 5.97389949,28.8269123 5.97389949,28.8269123 C6.51658406,27.58811 6.31980787,27.3299988 6.31980787,27.3299988 C6.31980787,27.3299988 8.03107538,24.0714676 10.3499669,20.1757345"/>
      <path d="M78.7026046,27.0936085 C77.7245155,28.0212106 76.5424817,28.5201137 75.8363189,28.5292142 C74.6393226,28.5292142 74.0489562,27.7819972 73.9377136,26.8560201 C73.6456205,24.6761225 76.2679532,22.2566865 78.3210621,21.2055774 C79.0919537,22.3463915 79.9773407,23.2707435 81.0172312,23.9532819 C80.335789,25.3719867 79.590919,26.23231 78.7026046,27.0936085 M81.4605752,20.558466 C81.8252037,20.8025547 81.8466716,21.3690616 81.6876142,22.2365354 C81.1915763,21.7795597 80.5384327,21.1603998 80.1054973,20.5243391 C80.6155218,20.3299782 81.2566305,20.4118828 81.4605752,20.558466 M69.1637151,14.6840857 C71.1797431,11.9100547 73.1190072,10.2163845 73.7893902,10.2131343 C73.9159205,10.2147594 73.9978887,10.260912 74.0395234,10.4123705 C74.0860371,10.6255825 73.6735938,12.0826394 71.3345719,14.9665266 C67.6772278,19.456329 65.4910832,21.2270286 64.7540197,21.7844349 C65.9975297,19.4111515 67.142808,17.4769677 69.1637151,14.6840857 M54.3141302,27.1010839 C53.3392938,28.0322612 52.1452249,28.5308393 51.4432906,28.5357231 C50.2384878,28.5386397 49.6715409,27.7868725 49.5492392,26.8651206 C49.2464121,24.6744974 51.9084278,22.2336102 53.9836551,21.1834761 C54.6774576,22.3031641 55.636681,23.2307663 56.6749452,23.902579 C55.9596748,25.3645112 55.2148048,26.23231 54.3141302,27.1010839 M57.0646195,20.5662664 C57.4445357,20.8100301 57.4643772,21.3781621 57.3085726,22.2534363 C56.8232686,21.7964606 56.197773,21.1558496 55.7911846,20.5123134 C56.2855961,20.3426539 56.8850701,20.4180581 57.0646195,20.5662664 M20.7049459,27.1121345 C19.7177492,28.0429869 18.5418955,28.54319 17.8295526,28.549367 C16.6400375,28.5506654 16.0636578,27.8008482 15.9355011,26.8758462 C15.6466607,24.6650719 18.3655988,22.1920079 20.4300921,21.1685253 C21.1128354,22.2583116 22.0229429,23.2707435 23.0007068,24.0244609 C22.3303238,25.4077387 21.5792736,26.2768375 20.7049459,27.1121345 M23.4645428,20.5799172 C23.8366526,20.8223808 23.8473865,21.3888877 23.6945092,22.2628618 C23.2235172,21.7997108 22.6055028,21.1652751 22.2207075,20.5123134 C22.7040599,20.3563046 23.2849934,20.4320339 23.4645428,20.5799172 M99.2190563,25.572848 C97.9817264,26.6996863 95.2192021,28.6774225 94.3692696,28.8256309 C93.3049838,29.0219419 93.4715224,28.3966067 93.7066931,27.902579 C94.3338151,26.5453026 96.402537,24.541565 98.02206,21.7964606 C99.010883,20.1388674 99.0508913,18.5098758 97.0745463,18.2830131 C95.4309533,18.1023029 93.8286697,18.5189763 91.512742,19.7865476 C91.4587471,19.8392006 91.4076796,19.8548014 91.3335179,19.8882783 C91.0583388,20.0212108 90.8960287,19.9656327 91.0228843,19.7247941 C91.0954197,19.6354141 91.1663287,19.5379086 91.2313828,19.4498287 C91.2980633,19.2941449 91.3686471,19.0838581 91.3686471,18.9372748 C91.3702734,18.6532089 91.2996897,18.459173 91.0967208,18.3259155 C90.8498403,18.1855076 90.6117421,18.139355 90.1683981,18.1422801 C89.5533111,18.1422801 88.719317,18.31844 88.2509271,19.1150598 C87.9344387,19.6120128 87.5076835,20.3468791 87.0428716,21.1558496 C85.7495951,22.6350078 84.042249,23.3526481 82.8585888,23.03023 C82.8494813,23.0146291 82.8494813,23.0006533 82.8494813,22.9639263 C82.9207155,22.550178 83.0748939,21.642402 83.0365119,21.234829 C83.0365119,21.234829 83.0843267,20.3777558 82.9360033,19.7156936 C82.7431177,18.8972976 81.9598658,18.0418495 80.7407511,17.8474886 C79.6839465,17.6544277 78.3718043,17.9339434 77.0723477,18.7334884 C75.9322738,19.4098514 75.0179378,20.130742 74.2730678,20.8454571 C73.2549704,21.6391518 72.6782654,22.034374 71.7730369,21.8400131 C70.6144225,21.6020997 70.4693518,21.3846625 70.2556489,21.0476185 C70.0721962,20.7577022 69.9378594,20.5275893 68.990671,21.2978826 C68.0324234,22.0652507 68.2874357,22.6242822 68.2874357,22.6242822 C68.3414306,22.6610092 67.440756,24.5815422 66.3488221,26.0590753 C65.6855951,26.9717266 64.9641446,27.5674851 64.2752212,28.0088599 C63.3277075,28.5942178 62.7100184,28.6666969 62.3577502,28.1986706 C61.9235137,27.3838498 62.6911527,26.1130283 63.7713768,23.7095182 C66.0918582,22.7429138 68.8869097,19.7338946 70.3581092,18.3675178 C74.826028,14.2316603 75.9739084,11.46998 75.9739084,9.1604001 C75.9739084,8.00691024 74.8465201,7.43422804 74.1494649,7.47908056 C71.4051557,7.63183915 68.4666599,10.3057645 63.0284584,19.1475617 C62.0780173,20.6930236 61.3377012,22.0545251 60.7648994,23.2804941 C59.88862,23.3838499 59.100489,23.3220964 58.4688133,23.0965337 C58.4597057,23.0471309 58.4597057,23.03023 58.4597057,22.9714017 C58.5306147,22.5592785 58.6867447,21.6482523 58.6525912,21.2455546 C58.6525912,21.2455546 58.7114652,20.3871814 58.5491551,19.7264192 C58.3374039,18.905098 57.586679,18.0529001 56.350325,17.8598393 C55.2935203,17.6622281 53.9804024,17.9417439 52.6747657,18.7399888 C50.4733333,20.0595629 49.1075215,21.5403462 48.2732021,22.7737906 C47.0322942,24.2467734 45.0302528,26.5778045 44.1045323,27.1524368 C43.335267,27.6601153 42.0325577,28.0754887 41.5319661,27.9350808 C40.099799,27.4781051 41.6650018,24.8565077 42.6798465,22.8033672 C43.0955425,21.9326433 45.2494853,19.0838581 46.6244047,17.3843375 L46.7974487,17.3905129 C47.8204252,17.481518 48.927972,17.4971189 49.4828839,17.4308151 C50.0299893,17.3612612 50.4931748,17.1558497 50.8594297,16.8318065 C51.2253593,16.5152387 51.6332488,15.6396394 51.6365015,15.2398669 C51.6365015,15.0409558 51.519404,15.0022786 51.3876693,15.02698 C51.2458513,15.080933 49.7795308,15.1472367 48.8850363,15.1225353 C48.6498656,15.1010841 48.2514089,15.0932837 48.0396577,15.0471311 C48.3379309,14.5885303 51.5873856,9.88909107 52.1403458,9.20362753 C52.6809458,8.54286537 52.3241238,8.1538185 52.2499621,7.9529572 C52.1527061,7.65491545 51.8651668,7.48818107 51.1482701,7.48818107 C50.4066528,7.48818107 49.7733507,7.73389489 49.213885,8.24189845 C48.6609248,8.74827692 45.1723961,13.7376325 44.535516,14.9603512 L43.6393952,14.9792023 C42.6073111,15.0052037 41.8103978,15.0932837 41.2525585,15.2431171 C40.6947192,15.3526483 40.2341358,15.6074626 39.8633272,15.9854589 C39.4970723,16.3283531 39.0335615,17.2533552 39.0647875,17.6437021 C39.0693413,17.7272318 39.0908092,17.7688341 39.1526106,17.7688341 C39.2114846,17.7688341 39.3009341,17.730157 39.4368973,17.6807542 C39.5774142,17.6437021 39.9345615,17.5897491 40.0981727,17.5497718 C40.4845943,17.4415407 41.0639015,17.3674366 41.8425996,17.3518357 C42.0943592,17.3456603 42.7865353,17.2887822 43.0044667,17.3008078 C42.3213981,18.3109646 41.4779711,19.5333584 40.6173048,20.7375511 C35.7567841,26.8420443 33.7049763,28.0725635 31.4505899,29.2702559 C30.942517,29.5266953 30.4988478,29.592999 30.4988478,29.592999 C33.4206897,28.0784138 35.5264925,25.2949573 35.7460502,22.6255822 C35.880387,20.9722143 34.1993879,20.3608549 34.0045507,18.9746519 C34.0354514,18.6629594 34.1268525,18.3522419 34.1268525,18.3522419 C34.1993879,17.8075113 32.768587,17.8861657 32.768587,17.8861657 C31.2791723,18.1702317 31.1201149,19.9766833 31.1201149,19.9766833 C29.3678814,23.1829886 26.4833805,23.7849224 24.8736157,23.1586122 C24.8736157,23.1088844 24.8736157,23.0503811 24.8687366,22.9824523 C24.9399709,22.568704 25.086668,21.6622281 25.0665012,21.2562802 C25.0665012,21.2562802 25.0990283,20.4008321 24.9507048,19.7371448 C24.7513139,18.9174487 23.9726157,18.0620006 22.7505736,17.8689398 C21.6875888,17.6758789 20.3695918,17.9540946 19.0779417,18.7536395 C15.6726824,20.7775283 14.2684886,23.190789 13.7106493,24.4674608 C13.1482562,25.751933 12.9072306,27.4209019 13.2269717,28.6358202 C13.5994067,30.0158478 14.8383629,31.6539399 16.8439823,31.6506897 C17.5530725,31.6506897 19.4132958,31.8947784 22.0229429,28.739176 C23.1444764,27.3962005 23.6219739,26.7201625 24.3203301,24.8178305 C26.0602033,25.4727423 29.1548291,25.2780564 31.2684383,22.0945024 C31.2684383,22.0945024 31.1926502,21.8276624 31.266812,21.9170424 C31.5819993,22.3463915 32.47194,23.4826554 32.0100556,24.8672333 C32.0100556,24.8672333 31.1110073,28.2500235 28.0593172,29.3167335 C27.0116202,29.7041553 26.4664664,29.2657056 26.145099,28.8087299 C25.8884604,28.4320337 24.9799792,27.7527455 24.2725153,28.2558738 C22.8540097,29.2767562 24.1521652,30.5332769 25.2395452,31.1183098 C26.3135892,31.7234938 27.8108104,31.9688826 29.4853041,31.6061622 C31.5110903,31.1602371 32.6911725,30.7633898 34.4573276,29.3892125 C35.9360083,28.240598 37.122596,27.0458308 37.9878161,26.0685008 C37.7867988,26.6827854 37.6446555,27.1953392 37.5535797,27.5876362 C37.3961487,28.2389729 37.3434548,28.8041797 37.3743555,29.271881 C37.4143638,29.9742454 37.6446555,30.5547281 38.0463649,31.0227544 C38.452628,31.4625041 38.9333782,31.6620654 39.5481398,31.6773412 C41.331274,31.7049678 44.0736316,29.6040496 46.7698007,26.4172454 C46.6540043,27.1907889 46.6540043,27.9948841 46.8316022,28.6267197 C47.197857,30.0051222 48.4553537,31.638664 50.456094,31.638664 C51.1778697,31.638664 53.0224801,31.8856779 55.6288745,28.7284504 C56.7939942,27.3250215 57.2464458,26.658084 58.0098563,24.6172942 C58.6171367,24.7980044 59.3480201,24.8581328 60.115659,24.7980044 C58.1614324,29.7860599 59.6632074,31.638664 62.0207697,31.6506897 C63.6341125,31.6633654 65.7522756,30.3974192 67.471982,28.4073323 C68.7385862,26.9330494 69.4216547,25.2023271 70.0582096,23.3126709 C70.82162,23.6012871 71.6064983,23.5210076 72.2830614,23.3172211 C72.0342293,23.7605461 71.848825,24.1352921 71.6992004,24.4505599 C71.1488424,25.7321069 70.8922037,27.3962005 71.2151976,28.6159941 C71.5847051,29.9960217 72.837648,31.6308636 74.8474959,31.6308636 C75.555285,31.6308636 77.4125809,31.8717021 80.0082414,28.7193499 C81.1749875,27.317221 81.6336192,26.6522337 82.3768629,24.6065686 C83.1741014,24.8054798 84.1382039,24.7408012 85.1361345,24.3039766 C84.4716064,25.3550857 83.7547097,26.6688096 82.8585888,28.0397367 C82.3287228,28.8444819 81.1652294,31.0071535 81.8622846,31.4485283 C82.1264044,31.6276134 82.7489726,31.5967367 83.1074209,31.4582789 C83.7950433,31.1738879 84.5740667,30.0515998 85.0652255,29.2455545 C86.0198951,27.7049678 87.4322206,24.2727749 90.0249537,22.3493167 C91.9902395,21.021617 93.9877271,20.4118828 94.8207454,21.4909434 C95.472588,22.3337158 93.9490198,24.0537125 93.0808722,25.1912765 C92.210773,26.3262403 91.2840767,27.654265 90.7493316,28.864308 C90.0015342,30.5781294 91.0277634,31.5353082 92.1336839,31.5645599 C94.2118386,31.638664 97.6323856,28.578617 99.1527011,27.1722629 C100.676269,25.7626586 99.7925086,25.0602941 99.2190563,25.572848"/>
      <path d="M79.6556809,16.6595899 C79.6556809,16.6595899 80.0316191,17.0079538 80.6469922,16.685623 C80.6469922,16.685623 82.1935012,15.9566966 84.2093787,14.033331 C84.2093787,14.033331 86.3183698,12.3103517 83.8423085,12.1705951 C83.8423085,12.1705951 82.5349177,11.8938223 81.4352906,13.3468796 C81.4352906,13.3468796 79.7982017,15.247295 79.4583688,16.2708063 C79.4583688,16.2708063 79.3484694,16.5259991 79.6556809,16.6595899"/>
    </g>
  </g>
</svg>
