<?xml version="1.0" encoding="UTF-8"?>
<svg width="375px" height="500px" viewBox="0 0 375 500" version="1.1" xmlns="http://www.w3.org/2000/svg" xmlns:xlink="http://www.w3.org/1999/xlink" style="background: #0D744E;">
    <title>dondereciclo-loading</title>
    <defs>
        <polygon id="path-1" points="0 89.8848 374.889 89.8848 374.889 -0.0002 0 -0.0002"></polygon>
        <polygon id="path-3" points="0.3579 0.3112 107.287 0.3112 107.287 19 0.3579 19"></polygon>
        <polygon id="path-5" points="0 -0.0001 78.0647 -0.0001 78.0647 97.3968 0 97.3968"></polygon>
        <polygon id="path-7" points="0.6748 0.658 155.0068 0.658 155.0068 15.5499 0.6748 15.5499"></polygon>
        <polygon id="path-9" points="0 148.342 155.007 148.342 155.007 1 0 1"></polygon>
    </defs>
    <g id="dondereciclo-loading" stroke="none" stroke-width="1" fill="none" fill-rule="evenodd">
        <rect fill="#0D744E" x="0" y="0" width="375" height="500"></rect>
        <g id="Fondo" transform="translate(0.000000, 291.000000)">
            <path d="M204.8022,62.0059 C204.8022,77.3859 217.2702,89.8539 232.6502,89.8539 C248.0312,89.8539 260.4992,77.3859 260.4992,62.0059 C260.4992,46.6259 248.0312,34.1579 232.6502,34.1579 C217.2702,34.1579 204.8022,46.6259 204.8022,62.0059" id="Fill-1" fill="#0D633E"></path>
            <path d="M252.3933,71.637 C252.3933,81.698 260.5493,89.854 270.6103,89.854 C280.6713,89.854 288.8283,81.698 288.8283,71.637 C288.8283,61.576 280.6713,53.42 270.6103,53.42 C260.5493,53.42 252.3933,61.576 252.3933,71.637" id="Fill-3" fill="#0D633E"></path>
            <path d="M191.9602,71.637 C191.9602,81.698 200.1162,89.854 210.1772,89.854 C220.2382,89.854 228.3952,81.698 228.3952,71.637 C228.3952,61.576 220.2382,53.42 210.1772,53.42 C200.1162,53.42 191.9602,61.576 191.9602,71.637" id="Fill-5" fill="#0D633E"></path>
            <mask id="mask-2" fill="white">
                <use xlink:href="#path-1"></use>
            </mask>
            <g id="Clip-8"></g>
            <polygon id="Fill-7" fill="#0D633E" mask="url(#mask-2)" points="209.047 89.6558 270.61 89.6558 270.61 71.6668 209.047 71.6668"></polygon>
            <path d="M175.6193,62.0809 C175.6193,77.4199 163.1843,89.8539 147.8463,89.8539 C132.5073,89.8539 120.0723,77.4199 120.0723,62.0809 C120.0723,46.7419 132.5073,34.3079 147.8463,34.3079 C163.1843,34.3079 175.6193,46.7419 175.6193,62.0809" id="Fill-10" fill="#0D633E" mask="url(#mask-2)"></path>
            <path d="M128.1565,71.686 C128.1565,81.72 120.0225,89.854 109.9885,89.854 C99.9545,89.854 91.8205,81.72 91.8205,71.686 C91.8205,61.652 99.9545,53.518 109.9885,53.518 C120.0225,53.518 128.1565,61.652 128.1565,71.686" id="Fill-11" fill="#0D633E" mask="url(#mask-2)"></path>
            <path d="M188.4268,71.686 C188.4268,81.72 180.2928,89.854 170.2588,89.854 C160.2248,89.854 152.0908,81.72 152.0908,71.686 C152.0908,61.652 160.2248,53.518 170.2588,53.518 C180.2928,53.518 188.4268,61.652 188.4268,71.686" id="Fill-12" fill="#0D633E" mask="url(#mask-2)"></path>
            <polygon id="Fill-13" fill="#0D633E" mask="url(#mask-2)" points="109.989 89.6258 171.386 89.6258 171.386 71.6858 109.989 71.6858"></polygon>
            <polygon id="Fill-15" fill="#0D633E" mask="url(#mask-2)" points="108.9 89.6558 270.611 89.6558 270.611 71.6668 108.9 71.6668"></polygon>
            <path d="M274.3541,33.8699 C274.3541,21.2390633 264.114937,10.9999 251.4841,10.9999 C238.853263,10.9999 228.6141,21.2390633 228.6141,33.8699 C228.6141,46.5007367 238.853263,56.7399 251.4841,56.7399 C264.114937,56.7399 274.3541,46.5007367 274.3541,33.8699" id="Fill-16" fill="#0D633E" mask="url(#mask-2)"></path>
            <path d="M295.7298,54.0205 C295.7298,44.7425 288.2088,37.2205 278.9298,37.2205 C269.6518,37.2205 262.1308,44.7425 262.1308,54.0205 C262.1308,63.2985 269.6518,70.8205 278.9298,70.8205 C288.2088,70.8205 295.7298,63.2985 295.7298,54.0205" id="Fill-17" fill="#0D633E" mask="url(#mask-2)"></path>
            <path d="M323.9933,38.0936 L323.9933,38.0936 C319.9233,38.0936 316.6243,41.3926 316.6243,45.4626 L316.6243,75.0596 C316.6243,79.1286 319.9233,82.4286 323.9933,82.4286 C328.0633,82.4286 331.3623,79.1286 331.3623,75.0596 L331.3623,45.4626 C331.3623,41.3926 328.0633,38.0936 323.9933,38.0936" id="Fill-18" fill="#0D633E" mask="url(#mask-2)"></path>
            <path d="M263.6995,59.746 L262.2695,59.746 C261.6905,59.746 261.2215,60.215 261.2215,60.793 L261.2215,88.098 C261.2215,88.676 261.6905,89.145 262.2695,89.145 L263.6995,89.145 C264.2775,89.145 264.7465,88.676 264.7465,88.098 L264.7465,60.793 C264.7465,60.215 264.2775,59.746 263.6995,59.746" id="Fill-19" fill="#0D633E" mask="url(#mask-2)"></path>
            <path d="M324.7084,59.746 L323.2784,59.746 C322.6994,59.746 322.2304,60.215 322.2304,60.793 L322.2304,88.098 C322.2304,88.676 322.6994,89.145 323.2784,89.145 L324.7084,89.145 C325.2864,89.145 325.7554,88.676 325.7554,88.098 L325.7554,60.793 C325.7554,60.215 325.2864,59.746 324.7084,59.746" id="Fill-20" fill="#0D633E" mask="url(#mask-2)"></path>
            <path d="M235.2674,71.5781 C235.2674,81.5791 243.3744,89.6871 253.3764,89.6871 C263.3774,89.6871 271.4844,81.5791 271.4844,71.5781 C271.4844,61.5771 263.3774,53.4691 253.3764,53.4691 C243.3744,53.4691 235.2674,61.5771 235.2674,71.5781" id="Fill-21" fill="#0D633E" mask="url(#mask-2)"></path>
            <path d="M266.2137,77.8407 C266.2137,84.3827 271.5177,89.6867 278.0597,89.6867 C284.6017,89.6867 289.9057,84.3827 289.9057,77.8407 C289.9057,71.2987 284.6017,65.9947 278.0597,65.9947 C271.5177,65.9947 266.2137,71.2987 266.2137,77.8407" id="Fill-22" fill="#0D633E" mask="url(#mask-2)"></path>
            <path d="M226.9168,77.8407 C226.9168,84.3827 232.2208,89.6867 238.7628,89.6867 C245.3048,89.6867 250.6088,84.3827 250.6088,77.8407 C250.6088,71.2987 245.3048,65.9947 238.7628,65.9947 C232.2208,65.9947 226.9168,71.2987 226.9168,77.8407" id="Fill-23" fill="#0D633E" mask="url(#mask-2)"></path>
            <polygon id="Fill-24" fill="#0D633E" mask="url(#mask-2)" points="238 89.697 278.032 89.697 278.032 78 238 78"></polygon>
            <polygon id="Fill-24-Copy" fill="#0D633E" mask="url(#mask-2)" points="47.4898 89.697 108.5218 89.697 108.5218 78 47.4898 78"></polygon>
            <path d="M283,80.465 C283,85.692 287.238,89.93 292.465,89.93 C297.693,89.93 301.93,85.692 301.93,80.465 C301.93,75.238 297.693,71 292.465,71 C287.238,71 283,75.238 283,80.465" id="Fill-25" fill="#0D633E" mask="url(#mask-2)"></path>
            <path d="M80,72.465 C80,77.692 84.238,81.93 89.465,81.93 C94.693,81.93 98.93,77.692 98.93,72.465 C98.93,67.238 94.693,63 89.465,63 C84.238,63 80,67.238 80,72.465" id="Fill-25-Copy" fill="#0D633E" mask="url(#mask-2)"></path>
            <path d="M53,75.465 C53,80.692 57.238,84.93 62.465,84.93 C67.693,84.93 71.93,80.692 71.93,75.465 C71.93,70.238 67.693,66 62.465,66 C57.238,66 53,70.238 53,75.465" id="Fill-25-Copy-2" fill="#0D633E" mask="url(#mask-2)"></path>
            <path d="M299.1976,83.4948 C299.1976,86.9148 301.9696,89.6868 305.3896,89.6868 C308.8086,89.6868 311.5816,86.9148 311.5816,83.4948 C311.5816,80.0748 308.8086,77.3028 305.3896,77.3028 C301.9696,77.3028 299.1976,80.0748 299.1976,83.4948" id="Fill-26" fill="#0D633E" mask="url(#mask-2)"></path>
            <path d="M278.6574,83.4948 C278.6574,86.9148 281.4294,89.6868 284.8494,89.6868 C288.2684,89.6868 291.0404,86.9148 291.0404,83.4948 C291.0404,80.0748 288.2684,77.3028 284.8494,77.3028 C281.4294,77.3028 278.6574,80.0748 278.6574,83.4948" id="Fill-27" fill="#0D633E" mask="url(#mask-2)"></path>
            <polygon id="Fill-28" fill="#0D633E" mask="url(#mask-2)" points="284.465 89.6088 305.389 89.6088 305.389 83.4948 284.465 83.4948"></polygon>
            <path d="M56.1945,42 L56.1945,42 C58.5155,42 60.3965,43.882 60.3965,46.202 L60.3965,84.337 C60.3965,86.658 58.5155,88.539 56.1945,88.539 L56.1945,88.539 C53.8735,88.539 51.9925,86.658 51.9925,84.337 L51.9925,46.202 C51.9925,43.882 53.8735,42 56.1945,42" id="Fill-29" fill="#0D633E" mask="url(#mask-2)"></path>
            <path d="M46.3233,51 L46.3233,51 C48.6443,51 50.5253,52.882 50.5253,55.202 L50.5253,84.366 C50.5253,86.687 48.6443,88.569 46.3233,88.569 L46.3233,88.569 C44.0023,88.569 42.1213,86.687 42.1213,84.366 L42.1213,55.202 C42.1213,52.882 44.0023,51 46.3233,51" id="Fill-30" fill="#0D633E" mask="url(#mask-2)"></path>
            <path d="M99.1985,37.1583 L100.7195,37.1583 C103.7995,37.1583 106.2965,39.6553 106.2965,42.7353 L106.2965,73.4883 C106.2965,76.5683 103.7995,79.0653 100.7195,79.0653 L99.1985,79.0653 C96.1185,79.0653 93.6215,76.5683 93.6215,73.4883 L93.6215,42.7353 C93.6215,39.6553 96.1185,37.1583 99.1985,37.1583" id="Fill-31" fill="#0D633E" mask="url(#mask-2)"></path>
            <path d="M73.504,29 L73.504,29 C79.305,29 84.008,33.703 84.008,39.504 L84.008,68.783 C84.008,74.585 79.305,79.288 73.504,79.288 L73.504,79.288 C67.703,79.288 63,74.585 63,68.783 L63,39.504 C63,33.703 67.703,29 73.504,29" id="Fill-32" fill="#0D633E" mask="url(#mask-2)"></path>
            <path d="M72.047,45 L74.977,45 C75.556,45 76.024,45.469 76.024,46.047 L76.024,85.86 C76.024,86.438 75.556,86.907 74.977,86.907 L72.047,86.907 C71.469,86.907 71,86.438 71,85.86 L71,46.047 C71,45.469 71.469,45 72.047,45" id="Fill-33" fill="#0D633E" mask="url(#mask-2)"></path>
        </g>
        <g id="Cielo" transform="translate(34.000000, 52.000000)">
            <g id="Group-3" transform="translate(208.000000, 161.805000)">
                <mask id="mask-4" fill="white">
                    <use xlink:href="#path-3"></use>
                </mask>
                <g id="Clip-2"></g>
                <path d="M75.4359,0.3112 C67.0539,0.3112 59.3449,4.0002 53.1849,7.0002 L53.1539,7.0002 C49.7909,9.0002 45.2299,10.8122 40.7219,10.8122 C37.4549,10.8122 35.1429,9.9342 31.7579,8.5582 C28.5079,7.1832 24.8169,6.8482 20.8979,6.8482 C12.0839,6.8482 4.4109,9.0852 0.3579,19.0002 L31.1049,19.0002 L41.4379,19.0002 L43.5839,19.0002 L52.6309,19.0002 L107.2879,19.0002 C101.0269,4.6782 89.1189,0.3112 75.4359,0.3112" id="Fill-1" fill="#69B482" mask="url(#mask-4)"></path>
            </g>
            <path d="M270.7502,70.9013 C266.5202,70.9013 262.6292,71.8053 259.5212,74.8053 L259.5052,74.8053 C257.8082,74.8053 255.5062,76.7623 253.2312,76.7623 C251.5822,76.7623 250.4152,76.3363 248.7072,75.6423 C247.0672,74.9483 245.2042,74.2253 243.2262,74.2253 C238.7782,74.2253 234.9062,74.8053 232.8602,79.8053 L248.3772,79.8053 L253.5922,79.8053 L254.6752,79.8053 L259.2412,79.8053 L286.8252,79.8053 C283.6652,73.8053 277.6552,70.9013 270.7502,70.9013" id="Fill-4" fill="#69B482"></path>
            <path d="M57.2484,127.1296 C50.8564,127.1296 44.9784,127.8046 40.2814,133.8046 L40.2584,133.8046 C37.6934,133.8046 34.2164,135.6236 30.7784,135.6236 C28.2874,135.6236 26.5244,134.4106 23.9424,133.3616 C21.4644,132.3126 18.6504,131.2976 15.6624,131.2976 C8.9414,131.2976 3.0904,133.3616 0.0004,139.8046 L23.4454,139.8046 L31.3244,139.8046 L32.9614,139.8046 L39.8594,139.8046 L81.5354,139.8046 C76.7624,131.2136 67.6824,127.1296 57.2484,127.1296" id="Fill-6" fill="#69B482"></path>
            <path d="M77.4184,59.4515 C77.4184,59.4515 77.1164,59.5585 76.6544,59.7345 C76.1884,59.9195 75.5594,60.1925 74.8594,60.4955 C74.5084,60.6695 74.1374,60.8145 73.7554,61.0115 C73.3794,61.1925 72.9834,61.3835 72.5734,61.5805 C72.1694,61.7785 71.7624,62.0035 71.3404,62.1985 C70.9354,62.4475 70.4934,62.6115 70.0824,62.8665 C69.6614,63.0995 69.2254,63.2965 68.8104,63.5415 C68.4004,63.7925 67.9504,63.9635 67.5504,64.2095 C67.1424,64.4405 66.7234,64.6365 66.3224,64.8325 C65.9334,65.0445 65.5494,65.2335 65.1804,65.4015 C64.8034,65.5605 64.4604,65.7185 64.1544,65.8635 C63.8454,66.0045 63.5524,66.1095 63.3134,66.2025 C62.8324,66.3855 62.5174,66.4635 62.5174,66.4635 C62.5174,66.4635 62.5734,66.1575 62.7424,65.6635 C62.9194,65.1775 63.1524,64.4505 63.6264,63.7255 C63.8544,63.3555 64.1174,62.9625 64.4124,62.5585 C64.7264,62.1735 65.0844,61.7865 65.4674,61.3985 C65.8394,60.9975 66.3014,60.6615 66.7584,60.3125 C67.2034,59.9425 67.7394,59.6785 68.2464,59.3765 C68.7624,59.0905 69.3304,58.8805 69.8744,58.6705 C70.4364,58.4895 70.9984,58.3345 71.5554,58.2445 C72.6694,58.0505 73.7474,58.0815 74.6414,58.2315 C75.5434,58.3985 76.2574,58.6875 76.7254,58.9575 C77.1964,59.2235 77.4184,59.4515 77.4184,59.4515" id="Fill-8" fill="#69B482"></path>
            <path d="M48.0537,59.4515 C48.0537,59.4515 48.2757,59.2235 48.7467,58.9575 C49.2147,58.6875 49.9287,58.3985 50.8307,58.2315 C51.7247,58.0815 52.8027,58.0505 53.9167,58.2445 C54.4737,58.3345 55.0357,58.4895 55.5977,58.6705 C56.1417,58.8805 56.7097,59.0905 57.2247,59.3765 C57.7327,59.6785 58.2687,59.9425 58.7137,60.3125 C59.1707,60.6615 59.6327,60.9975 60.0047,61.3985 C60.3877,61.7865 60.7457,62.1735 61.0597,62.5585 C61.3547,62.9625 61.6177,63.3555 61.8457,63.7255 C62.3187,64.4505 62.5527,65.1775 62.7297,65.6635 C62.8987,66.1575 62.9547,66.4635 62.9547,66.4635 C62.9547,66.4635 62.6397,66.3855 62.1587,66.2025 C61.9197,66.1095 61.6267,66.0045 61.3177,65.8635 C61.0117,65.7185 60.6687,65.5605 60.2917,65.4015 C59.9227,65.2335 59.5387,65.0445 59.1497,64.8325 C58.7487,64.6365 58.3297,64.4405 57.9217,64.2095 C57.5217,63.9635 57.0707,63.7925 56.6617,63.5415 C56.2467,63.2965 55.8107,63.0995 55.3897,62.8665 C54.9787,62.6115 54.5367,62.4475 54.1317,62.1985 C53.7097,62.0035 53.3027,61.7785 52.8987,61.5805 C52.4887,61.3835 52.0927,61.1925 51.7167,61.0115 C51.3347,60.8145 50.9637,60.6695 50.6127,60.4955 C49.9127,60.1925 49.2837,59.9195 48.8177,59.7345 C48.3557,59.5585 48.0537,59.4515 48.0537,59.4515" id="Fill-10" fill="#69B482"></path>
            <path d="M39.2882,74.723 C39.2882,74.723 39.1232,74.784 38.8352,74.891 C38.5582,74.999 38.1852,75.157 37.7702,75.342 C37.3532,75.537 36.8922,75.748 36.4142,75.986 C36.1762,76.105 35.9312,76.228 35.6822,76.353 C35.4422,76.5 35.1792,76.598 34.9362,76.749 C34.6862,76.887 34.4272,77.004 34.1812,77.15 C33.9382,77.298 33.6712,77.4 33.4332,77.546 C32.9392,77.804 32.4612,78.047 32.0272,78.253 C31.5772,78.438 31.2142,78.63 30.9202,78.728 C30.6342,78.837 30.4472,78.883 30.4472,78.883 C30.4472,78.883 30.4812,78.701 30.5812,78.409 C30.6872,78.121 30.8282,77.692 31.1052,77.258 C31.3682,76.811 31.7312,76.328 32.1982,75.878 C32.4182,75.64 32.6922,75.441 32.9642,75.233 C33.2282,75.015 33.5462,74.858 33.8472,74.679 C34.4682,74.35 35.1502,74.12 35.8102,74.007 C36.4712,73.892 37.1102,73.91 37.6412,73.999 C38.1752,74.104 38.5992,74.271 38.8772,74.43 C39.1572,74.588 39.2882,74.723 39.2882,74.723" id="Fill-12" fill="#69B482"></path>
            <path d="M21.8666,74.723 C21.8666,74.723 21.9976,74.588 22.2776,74.43 C22.5556,74.271 22.9796,74.104 23.5136,73.999 C24.0446,73.91 24.6836,73.892 25.3446,74.007 C26.0046,74.12 26.6866,74.35 27.3076,74.679 C27.6086,74.858 27.9266,75.015 28.1906,75.233 C28.4626,75.441 28.7366,75.64 28.9566,75.878 C29.4236,76.328 29.7866,76.811 30.0496,77.258 C30.3266,77.692 30.4676,78.121 30.5736,78.409 C30.6736,78.701 30.7076,78.883 30.7076,78.883 C30.7076,78.883 30.5206,78.837 30.2346,78.728 C29.9406,78.63 29.5776,78.438 29.1276,78.253 C28.6936,78.047 28.2156,77.804 27.7216,77.546 C27.4836,77.4 27.2166,77.298 26.9736,77.15 C26.7276,77.004 26.4686,76.887 26.2186,76.749 C25.9756,76.598 25.7126,76.5 25.4726,76.353 C25.2236,76.228 24.9786,76.105 24.7406,75.986 C24.2626,75.748 23.8016,75.537 23.3846,75.342 C22.9696,75.157 22.5966,74.999 22.3196,74.891 C22.0316,74.784 21.8666,74.723 21.8666,74.723" id="Fill-14" fill="#69B482"></path>
            <path d="M129.1053,0.0004 C122.9583,0.0004 117.3063,0.8054 112.7893,5.8054 L112.7663,5.8054 C110.3003,5.8054 106.9553,7.9044 103.6493,7.9044 C101.2543,7.9044 99.5593,6.9124 97.0763,5.9034 C94.6933,4.8944 91.9873,4.2714 89.1133,4.2714 C82.6493,4.2714 77.0233,5.8054 74.0513,12.8054 L96.5973,12.8054 L104.1753,12.8054 L105.7493,12.8054 L112.3823,12.8054 L152.4613,12.8054 C147.8713,4.8054 139.1393,0.0004 129.1053,0.0004" id="Fill-16" fill="#69B482"></path>
            <path d="M290.5447,18.3961 C290.5447,18.3961 290.2687,18.4941 289.8467,18.6551 C289.6407,18.7381 289.3917,18.8401 289.1057,18.9561 C288.8297,19.0611 288.5247,19.2241 288.2047,19.3511 C287.5627,19.6501 286.8527,19.9751 286.1157,20.3421 C285.7467,20.5231 285.3737,20.7291 284.9877,20.9081 C284.6177,21.1351 284.2137,21.2851 283.8377,21.5181 C283.4527,21.7311 283.0547,21.9111 282.6747,22.1361 C282.3007,22.3651 281.8887,22.5211 281.5227,22.7461 C281.1507,22.9571 280.7667,23.1361 280.4007,23.3151 C280.0447,23.5091 279.6937,23.6821 279.3567,23.8361 C278.6627,24.1201 278.1037,24.4171 277.6497,24.5681 C277.2097,24.7351 276.9217,24.8071 276.9217,24.8071 C276.9217,24.8071 276.9727,24.5261 277.1277,24.0761 C277.2067,23.8521 277.2987,23.5721 277.4367,23.2781 C277.5617,22.9711 277.7197,22.6351 277.9357,22.3031 C278.1447,21.9651 278.3847,21.6061 278.6547,21.2361 C278.9407,20.8841 279.2687,20.5311 279.6187,20.1761 C279.9587,19.8101 280.3807,19.5021 280.7987,19.1831 C281.2057,18.8451 281.6957,18.6041 282.1597,18.3281 C283.1177,17.8221 284.1677,17.4671 285.1847,17.2921 C286.2037,17.1151 287.1887,17.1431 288.0057,17.2801 C288.8307,17.4421 289.4837,17.6991 289.9107,17.9441 C290.3417,18.1881 290.5447,18.3961 290.5447,18.3961" id="Fill-18" fill="#69B482"></path>
            <path d="M263.6987,18.3961 C263.6987,18.3961 263.9017,18.1881 264.3327,17.9441 C264.7597,17.6991 265.4127,17.4421 266.2377,17.2801 C267.0547,17.1431 268.0397,17.1151 269.0587,17.2921 C270.0757,17.4671 271.1257,17.8221 272.0837,18.3281 C272.5477,18.6041 273.0377,18.8451 273.4447,19.1831 C273.8627,19.5021 274.2847,19.8101 274.6247,20.1761 C274.9747,20.5311 275.3027,20.8841 275.5897,21.2361 C275.8587,21.6061 276.0987,21.9651 276.3077,22.3031 C276.5237,22.6351 276.6817,22.9711 276.8067,23.2781 C276.9447,23.5721 277.0367,23.8521 277.1157,24.0761 C277.2707,24.5261 277.3217,24.8071 277.3217,24.8071 C277.3217,24.8071 277.0337,24.7351 276.5937,24.5681 C276.1397,24.4171 275.5807,24.1201 274.8867,23.8361 C274.5497,23.6821 274.1987,23.5091 273.8427,23.3151 C273.4767,23.1361 273.0927,22.9571 272.7207,22.7461 C272.3547,22.5211 271.9427,22.3651 271.5687,22.1361 C271.1887,21.9111 270.7907,21.7311 270.4057,21.5181 C270.0297,21.2851 269.6257,21.1351 269.2557,20.9081 C268.8697,20.7291 268.4967,20.5231 268.1277,20.3421 C267.3907,19.9751 266.6807,19.6501 266.0387,19.3511 C265.7187,19.2241 265.4137,19.0611 265.1377,18.9561 C264.8517,18.8401 264.6027,18.7381 264.3967,18.6551 C263.9747,18.4941 263.6987,18.3961 263.6987,18.3961" id="Fill-20" fill="#69B482"></path>
            <path d="M255.6851,32.3575 C255.6851,32.3575 255.5221,32.4125 255.2711,32.5105 C255.0171,32.6075 254.6771,32.7605 254.2961,32.9185 C253.9341,33.0925 253.5111,33.2945 253.0571,33.5125 C252.8401,33.6215 252.6161,33.7335 252.3881,33.8475 C252.1691,33.9825 251.9291,34.0715 251.7061,34.2105 C251.2451,34.4495 250.7831,34.7025 250.3331,34.9385 C249.8801,35.1725 249.4461,35.3985 249.0431,35.5805 C248.6391,35.7585 248.3021,35.9285 248.0341,36.0195 C247.7711,36.1165 247.6021,36.1615 247.6021,36.1615 C247.6021,36.1615 247.6361,35.9965 247.7251,35.7275 C247.8241,35.4665 247.9471,35.0675 248.2081,34.6795 C248.4411,34.2635 248.7771,33.8255 249.2031,33.4135 C249.4051,33.1965 249.6551,33.0135 249.9031,32.8245 C250.1441,32.6245 250.4351,32.4805 250.7101,32.3165 C251.2791,32.0165 251.9021,31.8065 252.5051,31.7025 C253.1091,31.5985 253.6941,31.6115 254.1791,31.7015 C254.6671,31.7855 255.0561,31.9465 255.3091,32.0895 C255.5641,32.2375 255.6851,32.3575 255.6851,32.3575" id="Fill-22" fill="#69B482"></path>
            <path d="M239.7578,32.3575 C239.7578,32.3575 239.8788,32.2375 240.1338,32.0895 C240.3868,31.9465 240.7758,31.7855 241.2638,31.7015 C241.7488,31.6115 242.3338,31.5985 242.9378,31.7025 C243.5408,31.8065 244.1638,32.0165 244.7328,32.3165 C245.0078,32.4805 245.2988,32.6245 245.5398,32.8245 C245.7878,33.0135 246.0378,33.1965 246.2398,33.4135 C246.6658,33.8255 247.0018,34.2635 247.2348,34.6795 C247.4958,35.0675 247.6188,35.4665 247.7178,35.7275 C247.8068,35.9965 247.8398,36.1615 247.8398,36.1615 C247.8398,36.1615 247.6718,36.1165 247.4088,36.0195 C247.1408,35.9285 246.8038,35.7585 246.3998,35.5805 C245.9968,35.3985 245.5628,35.1725 245.1098,34.9385 C244.6598,34.7025 244.1968,34.4495 243.7368,34.2105 C243.5138,34.0715 243.2738,33.9825 243.0548,33.8475 C242.8268,33.7335 242.6028,33.6215 242.3858,33.5125 C241.9318,33.2945 241.5088,33.0925 241.1468,32.9185 C240.7658,32.7605 240.4258,32.6075 240.1718,32.5105 C239.9208,32.4125 239.7578,32.3575 239.7578,32.3575" id="Fill-24" fill="#69B482"></path>
        </g>
        <g id="Pin" transform="translate(148.000000, 151.000000)">
            <mask id="mask-6" fill="white">
                <use xlink:href="#path-5"></use>
            </mask>
            <g id="Clip-2"></g>
            <path d="M0.0477,38.9189 C0.0157,38.4289 -0.0003,37.9419 -0.0003,37.4599 C-0.0003,16.7719 17.4757,-0.0001 39.0327,-0.0001 C60.5897,-0.0001 78.0647,16.7719 78.0647,37.4599 C78.0647,37.9419 78.0487,38.4289 78.0167,38.9189 C78.0487,39.5959 78.0647,40.2769 78.0647,40.9609 C78.0647,63.5839 43.0797,97.3969 39.0327,97.3969 C34.9847,97.3969 -0.0003,63.5839 -0.0003,40.9609 C-0.0003,40.2769 0.0157,39.5959 0.0477,38.9189 M39.0327,54.1089 C47.0397,54.1089 53.5297,47.8109 53.5297,40.0409 C53.5297,32.2709 47.0397,25.9729 39.0327,25.9729 C31.0257,25.9729 24.5347,32.2709 24.5347,40.0409 C24.5347,47.8109 31.0257,54.1089 39.0327,54.1089" id="Fill-1" fill="#FFFFFF" mask="url(#mask-6)"></path>
        </g>
        <g id="Contenedor-plástico" transform="translate(109.000000, 277.000000)">
            <rect id="Sombra" fill="#0D633E" fill-rule="nonzero" x="3" y="135" width="152" height="14" rx="7"></rect>
            <path d="M121.1375,148.342 L123.4375,148.342 C125.2325,148.342 126.6875,146.887 126.6875,145.092 L126.6875,133.994 C126.6875,132.199 125.2325,130.744 123.4375,130.744 L121.1375,130.744 C119.3425,130.744 117.8875,132.199 117.8875,133.994 L117.8875,145.092 C117.8875,146.887 119.3425,148.342 121.1375,148.342" id="Fill-1" fill="#0D633E"></path>
            <path d="M124.3315,144.4105 L124.3315,144.4105 C125.0615,144.4105 125.6535,143.8185 125.6535,143.0885 L125.6535,135.9985 C125.6535,135.2675 125.0615,134.6755 124.3315,134.6755 C123.6015,134.6755 123.0095,135.2675 123.0095,135.9985 L123.0095,143.0885 C123.0095,143.8185 123.6015,144.4105 124.3315,144.4105" id="Fill-3" fill="#08492C"></path>
            <path d="M26.8479,139.2 C26.8479,143.998 30.0809,147.887 34.0679,147.887 C38.0559,147.887 41.2879,143.998 41.2879,139.2 C41.2879,134.402 38.0559,130.513 34.0679,130.513 C30.0809,130.513 26.8479,134.402 26.8479,139.2" id="Fill-5" fill="#0D633E"></path>
            <path d="M32.5048,139.3454 C32.5048,141.3644 33.8648,143.0004 35.5428,143.0004 C37.2208,143.0004 38.5808,141.3644 38.5808,139.3454 C38.5808,137.3264 37.2208,135.6904 35.5428,135.6904 C33.8648,135.6904 32.5048,137.3264 32.5048,139.3454" id="Fill-7" fill="#08492C"></path>
            <path d="M113.1935,131.8661 L131.3815,131.8661 C132.0895,131.8661 132.6645,131.2921 132.6645,130.5831 L132.6645,128.1851 C132.6645,127.4771 132.0895,126.9021 131.3815,126.9021 L113.1935,126.9021 C112.4845,126.9021 111.9105,127.4771 111.9105,128.1851 L111.9105,130.5831 C111.9105,131.2921 112.4845,131.8661 113.1935,131.8661" id="Fill-9" fill="#89CE9E"></path>
            <path d="M113.1935,131.8661 L126.6965,131.8661 C127.4055,131.8661 127.9805,131.2921 127.9805,130.5831 L127.9805,128.1851 C127.9805,127.4771 127.4055,126.9021 126.6965,126.9021 L113.1935,126.9021 C112.4845,126.9021 111.9105,127.4771 111.9105,128.1851 L111.9105,130.5831 C111.9105,131.2921 112.4845,131.8661 113.1935,131.8661" id="Fill-11" fill="#0D633E"></path>
            <path d="M25.2824,132.3174 L44.7424,132.3174 C45.4514,132.3174 46.0254,131.7434 46.0254,131.0344 L46.0254,128.6364 C46.0254,127.9284 45.4514,127.3534 44.7424,127.3534 L25.2824,127.3534 C24.5734,127.3534 23.9994,127.9284 23.9994,128.6364 L23.9994,131.0344 C23.9994,131.7434 24.5734,132.3174 25.2824,132.3174" id="Fill-13" fill="#69B482"></path>
            <path d="M28.3039,132.3174 L44.7429,132.3174 C45.4509,132.3174 46.0259,131.7434 46.0259,131.0344 L46.0259,128.6364 C46.0259,127.9284 45.4509,127.3534 44.7429,127.3534 L28.3039,127.3534 C27.5949,127.3534 27.0209,127.9284 27.0209,128.6364 L27.0209,131.0344 C27.0209,131.7434 27.5949,132.3174 28.3039,132.3174" id="Fill-15" fill="#0D633E"></path>
            <path d="M25.4289,132.3174 L27.1199,132.3174 C27.8279,132.3174 28.4029,131.7434 28.4029,131.0344 L28.4029,128.6364 C28.4029,127.9284 27.8279,127.3534 27.1199,127.3534 L25.4289,127.3534 C24.7199,127.3534 24.1459,127.9284 24.1459,128.6364 L24.1459,131.0344 C24.1459,131.7434 24.7199,132.3174 25.4289,132.3174" id="Fill-17" fill="#0D633E"></path>
            <path d="M134.1863,128.2568 L22.7553,128.2568 C20.6043,128.2568 18.8083,126.6178 18.6123,124.4768 L9.4763,24.6918 L144.8563,24.6918 L138.3373,124.3688 C138.1943,126.5558 136.3783,128.2568 134.1863,128.2568" id="Fill-19" fill="#69B482"></path>
            <path d="M27.4123,124.7552 L18.2763,25.7532 L9.4763,25.7532 L18.6123,124.7552 C18.8083,126.8962 20.6043,127.7532 22.7553,127.7532 L31.5543,127.7532 C29.4043,127.7532 27.6083,126.8962 27.4123,124.7552" id="Fill-21" fill="#0D633E"></path>
            <path d="M129.6277,124.7552 L136.0567,25.7532 L144.8557,25.7532 L138.4277,124.7552 C138.2317,126.8962 136.4357,127.7532 134.2847,127.7532 L125.4857,127.7532 C127.6357,127.7532 129.4317,126.8962 129.6277,124.7552" id="Fill-23" fill="#89CE9E"></path>
            <path d="M1,23.5063 L153.332,23.5063 C153.885,23.5063 154.332,23.0583 154.332,22.5063 L154.332,17.0603 C154.332,16.5083 153.885,16.0603 153.332,16.0603 L1,16.0603 C0.448,16.0603 0,16.5083 0,17.0603 L0,22.5063 C0,23.0583 0.448,23.5063 1,23.5063" id="Fill-25" fill="#89CE9E"></path>
            <path d="M1,24.8609 L153.332,24.8609 C153.885,24.8609 154.332,24.4129 154.332,23.8609 L154.332,18.4149 C154.332,17.8629 153.885,17.4149 153.332,17.4149 L1,17.4149 C0.448,17.4149 0,17.8629 0,18.4149 L0,23.8609 C0,24.4129 0.448,24.8609 1,24.8609" id="Fill-27" fill="#69B482"></path>
            <g id="Group-31" transform="translate(0.000000, 0.342000)">
                <mask id="mask-8" fill="white">
                    <use xlink:href="#path-7"></use>
                </mask>
                <g id="Clip-30"></g>
                <path d="M149.6338,12.4879 L139.9848,3.6689 C137.8658,1.7319 135.0998,0.6579 132.2298,0.6579 L22.1028,0.6579 C19.2328,0.6579 16.4658,1.7319 14.3478,3.6689 L4.6988,12.4879 C4.4488,12.7159 4.1228,12.8429 3.7848,12.8429 L2.0288,12.8429 C1.2808,12.8429 0.6748,13.4489 0.6748,14.1959 L0.6748,14.1959 C0.6748,14.9439 1.2808,15.5499 2.0288,15.5499 L153.6528,15.5499 C154.4008,15.5499 155.0068,14.9439 155.0068,14.1959 L155.0068,14.1959 C155.0068,13.4489 154.4008,12.8429 153.6528,12.8429 L150.5468,12.8429 C150.2088,12.8429 149.8838,12.7159 149.6338,12.4879" id="Fill-29" fill="#F47621" mask="url(#mask-8)"></path>
            </g>
            <path d="M144.223,24.8135 L10.478,24.8135 C10.089,24.8135 9.742,24.6215 9.422,24.7195 L10.142,29.7225 C9.643,29.7225 9.813,29.8045 10.621,29.8045 L144.634,29.8045 L144.966,24.7235 C144.731,24.6765 144.487,24.8135 144.223,24.8135" id="Fill-32" fill="#0D633E"></path>
            <g id="Group-50" transform="translate(16.000000, 25.342000)" fill="#0D633E">
                <polygon id="Fill-34" points="66.4983 0.1535 66.4983 11.4065 71.2363 4.9765"></polygon>
                <polygon id="Fill-36" points="83.4983 0.1535 83.4983 11.4065 88.2363 4.9765"></polygon>
                <polygon id="Fill-38" points="99.4983 0.1535 99.4983 11.4065 104.2363 4.9765"></polygon>
                <polygon id="Fill-40" points="116.4983 0.1535 116.4983 11.4065 121.2363 4.9765"></polygon>
                <polygon id="Fill-42" points="55.4983 0.1535 55.4983 11.4065 50.7603 4.9765"></polygon>
                <polygon id="Fill-44" points="39.4983 0.1535 39.4983 11.4065 34.7603 4.9765"></polygon>
                <polygon id="Fill-46" points="23.4983 0.1535 23.4983 11.4065 18.7603 4.9765"></polygon>
                <polygon id="Fill-48" points="5.4983 0.1535 5.4983 11.4065 0.7603 4.9765"></polygon>
            </g>
            <path d="M132.4702,3.753 L23.2112,3.753 C22.8982,3.753 22.5972,3.911 22.3652,4.087 L11.0672,12.753 L144.6142,12.753 L133.3162,4.087 C133.0852,3.911 132.7832,3.753 132.4702,3.753" id="Fill-51" fill="#F6914D"></path>
            <path d="M139.6477,12.9137 L137.9397,11.7527 L6.3927,11.7527 L4.6847,12.9137 C4.4527,13.1417 4.1487,12.7527 3.8337,12.7527 L140.4987,12.7527 C140.1837,12.7527 139.8797,13.1417 139.6477,12.9137" id="Fill-53" fill="#B75919"></path>
            <mask id="mask-10" fill="white">
                <use xlink:href="#path-9"></use>
            </mask>
            <g id="Clip-56"></g>
            <polygon id="Stroke-55" stroke="#0D744E" mask="url(#mask-10)" points="34.76 112.732 120.246 112.732 120.246 48.617 34.76 48.617"></polygon>
        </g>
    </g>
</svg>