<svg xmlns="http://www.w3.org/2000/svg" xmlns:xlink="http://www.w3.org/1999/xlink" width="156" height="164" viewBox="0 0 156 164">
  <defs>
    <polygon id="estacion_cempre-a" points="0 .927 113 .927 113 108.927 0 108.927"/>
  </defs>
  <g fill="none" fill-rule="evenodd">
    <g transform="translate(0 54.073)">
      <mask id="estacion_cempre-b" fill="#fff">
        <use xlink:href="#estacion_cempre-a"/>
      </mask>
      <path fill="#0D744E" d="M4.21799341,0.927 L113,0.927 L113,108.927 L4.21799341,108.927 C1.88808529,108.927 0,107.652204 0,106.08074 L0,3.77326002 C0,2.20106118 1.88808529,0.927 4.21799341,0.927" mask="url(#estacion_cempre-b)"/>
    </g>
    <path fill="#08492C" d="M113,55 L113,163 L138.997666,163 C140.103802,163 141,162.334698 141,161.515186 L141,69.9732743 C141,69.205166 140.210752,68.5640966 139.179876,68.4943353 L113,55 Z"/>
    <polygon fill="#89CE9E" points="5 159.073 55 159.073 55 61.073 5 61.073"/>
    <polygon fill="#89CE9E" points="59 159.073 109 159.073 109 61.073 59 61.073"/>
    <rect width="38" height="16" x="10.5" y="86.5" fill="#08492C" stroke="#0D633E" rx="3"/>
    <path fill="#08492C" stroke="#0D633E" d="M84,85.5002663 C88.5556305,85.5002663 92.6796847,87.3708863 95.6650249,90.3943672 C98.6526479,93.4201601 100.5,97.6003999 100.5,102.217458 L100.5,102.217458 L67.5023121,102.500266 C67.5,97.6003999 69.3473521,93.4201601 72.3349751,90.3943672 C75.3203153,87.3708863 79.4443695,85.5002663 84,85.5002663 Z"/>
    <rect width="43" height="44" x="8.5" y="102.5" fill="#69B482" stroke="#0D633E" rx="3"/>
    <rect width="43" height="44" x="62.5" y="102.5" fill="#69B482" stroke="#0D633E" rx="3"/>
    <g transform="translate(117 97.913)">
      <path fill="#69B482" d="M33.3202836,64.0865839 L5.33495346,64.0865839 C4.79474073,64.0865839 4.34368444,63.2003386 4.29446004,62.0426502 L2,8.08658392 L36,8.08658392 L34.3627862,61.9842521 C34.3268725,63.1668137 33.8707933,64.0865839 33.3202836,64.0865839"/>
      <path fill="#0D633E" d="M7.06196213,62.4700153 L4.99293414,9.08658392 L3,9.08658392 L5.06902799,62.4700153 C5.11341607,63.6244761 5.52015581,64.0865839 6.00729233,64.0865839 L8,64.0865839 C7.51308995,64.0865839 7.10635021,63.6244761 7.06196213,62.4700153"/>
      <path fill="#89CE9E" d="M32.0691791 62.4700153L33.7287042 9.08658392 36 9.08658392 34.3407331 62.4700153C34.2901394 63.6244761 33.8265359 64.0865839 33.2712958 64.0865839L31 64.0865839C31.5549819 64.0865839 32.0185854 63.6244761 32.0691791 62.4700153M1.23326335 8.08658392L36.7667366 8.08658392C36.8957313 8.08658392 37 7.90608433 37 7.68368304L37 5.48948481C37 5.26708352 36.8957313 5.08658392 36.7667366 5.08658392L1.23326335 5.08658392C1.10450198 5.08658392 1 5.26708352 1 5.48948481L1 7.68368304C1 7.90608433 1.10450198 8.08658392 1.23326335 8.08658392"/>
      <path fill="#69B482" d="M1.23326335,9.08658392 L36.7667366,9.08658392 C36.8957313,9.08658392 37,8.90608433 37,8.68368304 L37,6.48948481 C37,6.26708352 36.8957313,6.08658392 36.7667366,6.08658392 L1.23326335,6.08658392 C1.10450198,6.08658392 1,6.26708352 1,6.48948481 L1,8.68368304 C1,8.90608433 1.10450198,9.08658392 1.23326335,9.08658392"/>
      <path fill="#4363FF" d="M36.6770469,4.05851516 L34.3012467,1.0975294 C33.7795013,0.447180216 33.0984501,0.0865839224 32.3917917,0.0865839224 L5.27605422,0.0865839224 C4.56939585,0.0865839224 3.88809839,0.447180216 3.36659928,1.0975294 L0.990799057,4.05851516 C0.929243449,4.13506633 0.848974937,4.17770667 0.765751756,4.17770667 L0.33338517,4.17770667 C0.149210792,4.17770667 0,4.38117162 0,4.63197742 L0,4.63197742 C0,4.88311897 0.149210792,5.08658392 0.33338517,5.08658392 L37.6666148,5.08658392 C37.8507892,5.08658392 38,4.88311897 38,4.63197742 L38,4.63197742 C38,4.38117162 37.8507892,4.17770667 37.6666148,4.17770667 L36.901848,4.17770667 C36.8186248,4.17770667 36.7386025,4.13506633 36.6770469,4.05851516"/>
      <path fill="#75AAF1" d="M34.245352,1.13177171 C33.7157221,0.487005173 33.024379,0.129504262 32.3070418,0.129504262 C14.0647807,0.0722771424 4.96243341,0.0722771424 5,0.129504262 C5.11581114,0.305385246 32.700699,0.727797133 32.7664203,0.826652432 C33.8439294,2.44739789 34.5745159,3.43536335 34.9581799,3.7905488 C35.7121792,4.48858039 36.6133115,4.92059209 37.6615768,5.08658392 C37.8485344,5.08658392 38,4.88486553 38,4.6358798 C38,4.38722693 37.8485344,4.18550854 37.6615768,4.18550854 L36.8852529,4.18550854 C36.8007721,4.18550854 36.7195405,4.14323422 36.6570547,4.06734017 L34.245352,1.13177171 Z"/>
      <path fill="#0D633E" d="M35.8136251 8.13425286L2.26488815 8.13425286C2.16731098 8.13425286 2.08026914 8.05914816 2 8.09748285L2.18060556 10.054508C2.05543587 10.054508 2.09807885 10.0865839 2.30075843 10.0865839L35.9167208 10.0865839 36 8.09904753C35.9410524 8.08066253 35.8798471 8.13425286 35.8136251 8.13425286M3 59.5865839C3 62.6243415 5.46281163 65.0865839 8.5 65.0865839 11.5379501 65.0865839 14 62.6243415 14 59.5865839 14 56.5488264 11.5379501 54.0865839 8.5 54.0865839 5.46281163 54.0865839 3 56.5488264 3 59.5865839"/>
      <path fill="#08492C" d="M5,59.5865839 C5,61.5199629 6.56682028,63.0865839 8.5,63.0865839 C10.4331797,63.0865839 12,61.5199629 12,59.5865839 C12,57.653205 10.4331797,56.0865839 8.5,56.0865839 C6.56682028,56.0865839 5,57.653205 5,59.5865839"/>
    </g>
  </g>
</svg>
