<?xml version="1.0" encoding="UTF-8"?>
<svg width="333px" height="333px" viewBox="0 0 333 333" version="1.1" xmlns="http://www.w3.org/2000/svg" xmlns:xlink="http://www.w3.org/1999/xlink">
    <!-- Generator: Sketch 64 (93537) - https://sketch.com -->
    <title>flujo_compostables</title>
    <desc>Created with Sketch.</desc>
    <defs>
        <linearGradient x1="49.6344603%" y1="15.7035764%" x2="51.0707912%" y2="55.9537812%" id="linearGradient-1">
            <stop stop-color="#9BA498" offset="0%"></stop>
            <stop stop-color="#0D744E" offset="100%"></stop>
        </linearGradient>
        <polygon id="path-2" points="66.5 89 91 116 42 116"></polygon>
        <filter x="-1.0%" y="-3.7%" width="102.0%" height="105.6%" filterUnits="objectBoundingBox" id="filter-3">
            <feMorphology radius="0.5" operator="erode" in="SourceAlpha" result="shadowSpreadOuter1"></feMorphology>
            <feOffset dx="0" dy="-1" in="shadowSpreadOuter1" result="shadowOffsetOuter1"></feOffset>
            <feGaussianBlur stdDeviation="0.5" in="shadowOffsetOuter1" result="shadowBlurOuter1"></feGaussianBlur>
            <feColorMatrix values="0 0 0 0 0   0 0 0 0 0   0 0 0 0 0  0 0 0 0.5 0" type="matrix" in="shadowBlurOuter1"></feColorMatrix>
        </filter>
    </defs>
    <g id="flujo_compostables" stroke="none" stroke-width="1" fill="none" fill-rule="evenodd">
        <path d="M167,155 C147.117749,155 131,171.117749 131,191 C131,210.882251 147.117749,227 167,227 C186.882251,227 203,210.882251 203,191 C203,171.117749 186.882251,155 167,155 Z" id="Path-Copy" fill="#827B61" fill-rule="nonzero" transform="translate(167.000000, 191.000000) rotate(-90.000000) translate(-167.000000, -191.000000) "></path>
        <g id="Residuos-compostables" transform="translate(147.000000, 172.000000)" stroke="#FFFFFF">
            <g id="Group" transform="translate(2.000000, 2.000000)">
                <path d="M16.7674439,10.1859721 C19.095983,5.14635421 22.8016286,5.92846591 23.7649848,6.23375917 C23.9333253,6.21689179 24.0994085,6.27529907 24.2617018,6.41625967 C24.2617018,6.41625967 27.724763,7.32814227 25.3120934,12.1297501 C22.8989057,16.930818 21.6560467,17.997842 21.9482403,21.1989139 C22.0198613,21.9820228 22.1527396,22.778839 22.359739,23.5424709 C23.4786394,24.124395 24.5440068,24.1388074 25.2709752,23.9246827 C28.4983169,22.9737111 26.7231361,20 26.7231361,20 C28.9825611,21.3735186 30.5959461,23.1094267 29.7892536,25.4189978 C29.2920372,26.8425349 26.9553703,27.4917726 25.2356912,27.7804032 C25.6919573,28.0303255 26.20308,28.2051297 26.7740976,28.2863074 C28.8816218,28.5860029 31.0702221,28.7411138 32.2939124,28.3506997 C32.5969855,28.2540411 32.8093958,28.6552551 32.5819614,28.8852916 C29.2989278,32.2013818 25.0499481,32.710461 21.9062763,31.1488044 C19.9975071,30.2003937 19.015322,28.1368854 18.5134188,26.4009462 L18.3982356,26.8251195 C16.8382824,31.1795155 12.5839558,32.9677707 6.27330442,31.490229 C-0.0373469502,30.0132381 -0.249862318,26.3590493 0.104329961,26.2031417 C7.7624192,29.7019738 11.4495357,25.6588422 12.6547943,23.7152302 C13.8605552,21.7716182 14.0730706,16.0179098 16.7674439,10.1859721 Z" id="Combined-Shape" stroke-width="2.334" stroke-linejoin="round"></path>
                <path d="M27.5427328,1.83172285 C25.8011569,2.45178364 24.6564621,5.84029964 24.6564621,5.84029964 L22,5.84029964 C22,5.84029964 25.7622001,-1.49750023 27.5427328,0.276722869 C27.5427328,0.276722869 29.2849297,1.21166206 27.5427328,1.83172285 Z" id="Fill-61" stroke-width="2.334"></path>
            </g>
        </g>
        <path d="M254.5,7.5 C217.496922,7.5 187.5,37.7207794 187.5,75 C187.5,112.279221 217.496922,142.5 254.5,142.5 C291.503078,142.5 321.5,112.279221 321.5,75 C321.5,37.7207794 291.503078,7.5 254.5,7.5 Z M254.5,22.5 C283.771092,22.5 307.5,46.2289083 307.5,75.5 C307.5,104.771092 283.771092,128.5 254.5,128.5 C225.228908,128.5 201.5,104.771092 201.5,75.5 C201.5,46.2289083 225.228908,22.5 254.5,22.5 Z" id="Oval-Copy" fill="" fill-rule="nonzero" transform="translate(254.500000, 75.000000) rotate(-90.000000) translate(-254.500000, -75.000000) "></path>
        <path d="M77.6243569,187.577907 C77.6243569,161.863274 79.7205571,151.421839 72.822221,138.49358 C65.9238849,125.565321 65.9238849,119.740842 65.9238849,105.577907" id="Path-3" stroke="url(#linearGradient-1)" stroke-width="15"></path>
        <path d="M166.5,98 C113.204522,98 70,141.204522 70,194.5 C70,247.795478 113.204522,291 166.5,291 C219.795478,291 263,247.795478 263,194.5 C263,141.204522 219.795478,98 166.5,98 Z M166.5,113 C211.511207,113 248,149.488793 248,194.5 C248,239.511207 211.511207,276 166.5,276 C121.488793,276 85,239.511207 85,194.5 C85,149.488793 121.488793,113 166.5,113 Z" id="Oval" fill="" fill-rule="nonzero" transform="translate(166.500000, 194.500000) rotate(-90.000000) translate(-166.500000, -194.500000) "></path>
        <rect id="Rectangle-Copy-8" fill="#827B61" fill-rule="nonzero" x="139" y="66" width="116" height="40" rx="6"></rect>
        <rect id="Rectangle-Copy-9" fill="#827B61" fill-rule="nonzero" x="209" y="144" width="116" height="40" rx="6"></rect>
        <rect id="Rectangle-Copy-12" fill="#827B61" fill-rule="nonzero" x="32" y="246" width="126" height="27" rx="6"></rect>
        <rect id="Rectangle-Copy-15" fill="#827B61" fill-rule="nonzero" x="229" y="9" width="94" height="44" rx="6"></rect>
        <rect id="Rectangle-Copy-10" fill="#827B61" fill-rule="nonzero" x="207" y="233" width="116" height="72" rx="6"></rect>
        <rect id="Rectangle-Copy-14" fill="#9BA498" fill-rule="nonzero" x="9" y="21" width="116" height="75" rx="6"></rect>
        <rect id="Rectangle-Copy-13" fill="#827B61" fill-rule="nonzero" x="9" y="147" width="116" height="58" rx="6"></rect>
        <text id="Consumidor-Copy" font-family="SourceSansPro-SemiBold, Source Sans Pro" font-size="16" font-weight="500" fill="#FFFFFF">
            <tspan x="154.896" y="92">Consumidor</tspan>
        </text>
        <text id="Separación-de-residu" font-family="SourceSansPro-SemiBold, Source Sans Pro" font-size="12" font-weight="500" fill="#FFFFFF">
            <tspan x="230.25" y="161">Separación de </tspan>
            <tspan x="215.196" y="176">residuos en el hogar</tspan>
        </text>
        <text id="Plantas-de-compostaj" font-family="SourceSansPro-SemiBold, Source Sans Pro" font-size="12" font-weight="500" fill="#FFFFFF">
            <tspan x="36.482" y="263">Plantas de compostaje</tspan>
        </text>
        <text id="Compostera-Domicilia" font-family="SourceSansPro-SemiBold, Source Sans Pro" font-size="12" font-weight="500" fill="#FFFFFF">
            <tspan x="244.386" y="26">Compostera</tspan>
            <tspan x="244.782" y="41">Domiciliaria</tspan>
        </text>
        <text id="Empresas-gestoras-o" font-family="SourceSansPro-SemiBold, Source Sans Pro" font-size="12" font-weight="500" fill="#FFFFFF">
            <tspan x="216.454" y="258">Empresas gestoras</tspan>
            <tspan x="214.348" y="273">o emprendimientos</tspan>
            <tspan x="227.104" y="288">de compostaje</tspan>
        </text>
        <text id="Salida-del-sistema-d" font-family="SourceSansPro-SemiBold, Source Sans Pro" font-size="12" font-weight="500" fill="#FFFFFF">
            <tspan x="20.398" y="39">Salida del sistema </tspan>
            <tspan x="25.228" y="54">de recuperación </tspan>
            <tspan x="17.392" y="69">(vertederos, cursos </tspan>
            <tspan x="16.948" y="84">de agua basurales).</tspan>
        </text>
        <text id="Fabricación-de-compo" font-family="SourceSansPro-SemiBold, Source Sans Pro" font-size="12" font-weight="500" fill="#FFFFFF">
            <tspan x="36.79" y="164">Fabricación</tspan>
            <tspan x="36.82" y="179">de compost </tspan>
            <tspan x="26.158" y="194">comercializable</tspan>
        </text>
        <polygon id="Triangle" fill="#0D744E" transform="translate(220.500000, 125.500000) rotate(-240.000000) translate(-220.500000, -125.500000) " points="220.5 112 245 139 196 139"></polygon>
        <polygon id="Triangle-Copy-2" fill="#14AA65" transform="translate(305.000000, 107.000000) rotate(-325.000000) translate(-305.000000, -107.000000) " points="305 97 323 117 287 117"></polygon>
        <polygon id="Triangle-Copy-3" fill="#0D744E" transform="translate(202.000000, 47.000000) rotate(-150.000000) translate(-202.000000, -47.000000) " points="202 37 220 57 184 57"></polygon>
        <g id="Triangle-Copy">
            <use fill="black" fill-opacity="1" filter="url(#filter-3)" xlink:href="#path-2"></use>
            <use fill="#9BA498" fill-rule="evenodd" xlink:href="#path-2"></use>
        </g>
    </g>
</svg>