<?xml version="1.0" encoding="UTF-8"?>
<svg width="200px" height="130px" viewBox="0 0 200 130" version="1.1" xmlns="http://www.w3.org/2000/svg" xmlns:xlink="http://www.w3.org/1999/xlink">
    <title>fnc</title>
    <g id="fnc" stroke="none" stroke-width="1" fill="none" fill-rule="evenodd">
        <g id="Group-79" transform="translate(34.000000, 0.000000)" fill="#00205B">
            <path d="M67.0782136,121.403435 C34.7890392,121.403435 8.61379492,95.8910421 8.61379492,64.4193227 C8.61379492,32.9480776 34.7890392,7.43561402 67.0782136,7.43561402 C99.3673881,7.43561402 125.542727,32.9480776 125.542727,64.4193227 C125.542727,95.8910421 99.3673881,121.403435 67.0782136,121.403435 M67.0782136,5.80357143 C33.8644676,5.80357143 6.93913043,32.0466836 6.93913043,64.4193227 C6.93913043,96.792199 33.8644676,123.035714 67.0782136,123.035714 C100.292196,123.035714 127.217391,96.792199 127.217391,64.4193227 C127.217391,32.0466836 100.292196,5.80357143 67.0782136,5.80357143" id="Fill-1"></path>
            <polygon id="Fill-2" points="16.4161168 78.6633259 17.559673 78.3381758 17.1829455 76.8825901 18.1517381 76.6071429 18.5284656 78.0629734 20.519772 77.4966538 20.8173913 78.647656 15.7451701 80.0892857 15.0347826 77.3443621 16.0035753 77.0689149"></polygon>
            <path d="M15.2649061,68.7331433 L15.2661739,68.7459317 L17.1929736,69.1625317 L17.1021992,68.0906863 L15.2649061,68.7331433 Z M18.3398238,69.4146158 L19.5657847,69.680789 L19.6608696,70.8035714 L13.642378,69.3246632 L13.5548999,68.2909664 L19.2678521,66.1607143 L19.3639512,67.2960684 L18.1952948,67.7081166 L18.3398238,69.4146158 Z M12.239686,67.8067394 L13.2605171,68.8753335 L12.8134915,69.2264739 L11.5652174,68.3304155 L12.239686,67.8067394 Z" id="Fill-3"></path>
            <path d="M18.5908221,58.0175086 L18.6200095,57.8323472 C18.637474,57.7215142 18.6501538,57.6091419 18.6580487,57.4950103 C18.6661829,57.3808787 18.6530247,57.2753234 18.6190525,57.177465 C18.5848411,57.0798264 18.5259879,56.9964817 18.4427322,56.927431 C18.3597157,56.8583803 18.2331574,56.8132994 18.0628181,56.7919685 C17.8879332,56.7701977 17.7496522,56.7844916 17.6474964,56.8346304 C17.5458192,56.8847691 17.4663913,56.9551393 17.4101698,57.0459607 C17.3539482,57.1365623 17.3127989,57.2399185 17.2872001,57.3562491 C17.2613621,57.4723599 17.2400697,57.5860516 17.2223659,57.6966647 L17.1993988,57.8435624 L18.5908221,58.0175086 Z M16.2814326,57.7287711 L16.3015289,57.6010053 C16.3347833,57.3881356 16.3185149,57.2166084 16.2522453,57.0868634 C16.1862149,56.9568985 16.024249,56.8759728 15.7668261,56.8436466 C15.6306982,56.8267137 15.5187336,56.8311119 15.4304539,56.8570609 C15.3421741,56.8830099 15.2701627,56.925012 15.2137019,56.9830674 C15.1574803,57.0411228 15.114417,57.1117128 15.0840335,57.1948376 C15.0534107,57.2779623 15.0309221,57.3663648 15.0163284,57.4598252 L14.9991031,57.5684591 L16.2814326,57.7287711 Z M13.8782609,58.5096599 L14.0629546,57.3342585 C14.1014723,57.0873032 14.1588901,56.8643178 14.2347294,56.6653022 C14.3105686,56.4662866 14.4148775,56.2991575 14.5476561,56.163695 C14.6801953,56.0284523 14.847903,55.9310337 15.0503005,55.8714389 C15.2529373,55.8120641 15.502226,55.8010688 15.7984059,55.8380131 C16.0170718,55.8652815 16.2189909,55.9275152 16.4044023,56.024494 C16.5895745,56.1214729 16.725224,56.2600141 16.8108721,56.4401177 C16.8639835,56.2903612 16.9429329,56.1656741 17.0477203,56.0658365 C17.1527469,55.9659988 17.2728457,55.887712 17.4080166,55.8307562 C17.5431875,55.7738004 17.6910382,55.7381755 17.8520472,55.7234417 C18.0128168,55.708708 18.1757397,55.7117867 18.3408157,55.7324579 C18.6176171,55.7669832 18.8475273,55.8404321 19.0305463,55.9521447 C19.2135654,56.0640772 19.3554351,56.201299 19.4563946,56.3635902 C19.5568756,56.5261012 19.6197959,56.7088437 19.6449162,56.9115977 C19.6700364,57.1145716 19.6654909,57.3245826 19.6312795,57.5416305 L19.3714642,59.1964286 L13.8782609,58.5096599 Z" id="Fill-4"></path>
            <path d="M19.1312412,47.8228197 L19.1802738,47.6977418 C19.2282955,47.5745734 19.2629216,47.4545082 19.2838995,47.3373073 C19.3048774,47.2203451 19.3036137,47.1110212 19.2801083,47.0088583 C19.256603,46.9071728 19.2032737,46.8150352 19.1196149,46.7331617 C19.0362088,46.6512882 18.9138799,46.5837365 18.752881,46.5309842 C18.5918821,46.4782319 18.4513555,46.4605682 18.3318068,46.4782319 C18.2120054,46.4961342 18.109138,46.5379065 18.022699,46.6037872 C17.93626,46.6696679 17.8622055,46.7544059 17.7997773,46.8577623 C17.7373492,46.9613573 17.6827561,47.0721134 17.6362509,47.1909852 L17.587471,47.3163018 L19.1312412,47.8228197 Z M23.1304348,46.2717578 L22.6201414,47.5769604 L19.9632797,48.0810914 L19.957972,48.0942198 L22.1384083,48.8098374 L21.708488,49.9107143 L16.1913043,48.1001872 L16.75796,46.649856 C16.8542561,46.403758 16.9770904,46.1812911 17.1262103,45.9824554 C17.275583,45.7833809 17.4512412,45.6229756 17.6529321,45.5005234 C17.8548759,45.3785485 18.0805777,45.3038359 18.3307958,45.2766243 C18.5805085,45.2498901 18.8519573,45.2842627 19.1446367,45.3802194 C19.5103596,45.5002847 19.7997533,45.693153 20.0125651,45.9588242 C20.2251241,46.2244955 20.3254641,46.5412482 20.3135851,46.9093211 L23.1304348,46.2717578 Z" id="Fill-5"></path>
            <polygon id="Fill-6" points="25.4434783 40.841199 24.7971763 41.7857143 19.6608696 39.2480867 20.3074278 38.3035714"></polygon>
            <path d="M32.3344161,31.4323872 C32.4132766,31.8504223 32.3953859,32.2674813 32.2805085,32.6833201 C32.1658666,33.0991589 31.9587108,33.4793683 31.6588057,33.8241924 C31.3993901,34.1224054 31.1020744,34.3554606 30.767094,34.523358 C30.4318782,34.6912553 30.0846568,34.788382 29.7254298,34.8144939 C29.3659674,34.8406059 29.0036801,34.7930187 28.6380971,34.6710003 C28.2727496,34.5492259 27.9304717,34.3478955 27.6107926,34.066521 C27.3021775,33.794908 27.0632421,33.4849812 26.894928,33.1369846 C26.7261431,32.7889881 26.6300981,32.4331823 26.6060869,32.0698114 C26.5820756,31.7064406 26.6291565,31.345022 26.7463878,30.9850676 C26.8633838,30.6253573 27.0517073,30.2966397 27.3108875,29.9984266 C27.6077323,29.6572631 27.9535413,29.4034648 28.348079,29.2370316 C28.7426167,29.0705985 29.151514,28.9990957 29.573594,29.0220352 L29.4977938,30.2485644 C29.2555627,30.2322139 29.022277,30.2663791 28.7979367,30.3510599 C28.5735964,30.4357407 28.3739735,30.5787463 28.199068,30.7798326 C28.0460552,30.9557832 27.93824,31.1478402 27.8758579,31.3562477 C27.8132403,31.5644111 27.7934664,31.7735507 27.8160652,31.9834224 C27.8384286,32.1935381 27.9012816,32.398041 28.0043887,32.596443 C28.1074958,32.7948449 28.2482676,32.9725038 28.4259978,33.1289314 C28.6039635,33.2856031 28.7977013,33.4022527 29.0069757,33.4783922 C29.2162502,33.5550197 29.4259955,33.5904051 29.6357407,33.5847922 C29.8457214,33.5794234 30.0491108,33.5318362 30.2459088,33.4415426 C30.4427068,33.351737 30.6176123,33.218737 30.7706251,33.0427864 C30.9457659,32.8417 31.059937,32.6235311 31.1136092,32.3885236 C31.1672814,32.1537601 31.1698708,31.9165563 31.1213776,31.6774002 L32.3344161,31.4323872 Z" id="Fill-7"></path>
            <path d="M36.0592038,23.5352677 L36.0476603,23.5430944 L36.6055197,25.1679065 L37.5770621,24.5135988 L36.0592038,23.5352677 Z M36.9339218,26.1370692 L37.2880023,27.1717521 L36.2702858,27.8571429 L34.6956522,22.6848465 L35.6325639,22.0535714 L40.4782609,25.0225545 L39.4492364,25.7155483 L38.4802855,25.0954541 L36.9339218,26.1370692 Z" id="Fill-8"></path>
            <path d="M46.3182691,17.4034603 C46.1539635,17.3324823 46.0109436,17.2936778 45.88897,17.286801 C45.7669965,17.2801699 45.6421529,17.3054665 45.5149178,17.3624454 C45.4529744,17.3904436 45.3946184,17.427529 45.3388932,17.4737015 C45.2831681,17.5203652 45.2391619,17.5721865 45.207114,17.6294109 C45.1748269,17.686881 45.1549763,17.748035 45.147323,17.8131186 C45.1399089,17.8782022 45.1513888,17.9440226 45.1815234,18.0108254 C45.2561426,18.175622 45.4034675,18.2768086 45.6242157,18.3141395 C45.8447247,18.3519617 46.1577901,18.362768 46.5629336,18.3468041 C46.7296308,18.341401 46.9013504,18.3499969 47.0780925,18.3723464 C47.2550737,18.3949414 47.4251192,18.4443067 47.5891856,18.5204423 C47.7532519,18.5968234 47.9067951,18.7021852 48.0493367,18.8362819 C48.1921175,18.9706243 48.3116994,19.1445081 48.4085608,19.3581788 C48.5214461,19.6077068 48.5764538,19.8547789 48.573823,20.0998862 C48.570953,20.3452391 48.5195328,20.5758561 48.4193232,20.792474 C48.3188744,21.0090919 48.1720278,21.2077811 47.9790226,21.3882959 C47.7857782,21.5688108 47.5573768,21.7183803 47.2938183,21.8367588 C47.0563286,21.9435942 46.8339062,22.0099057 46.6265512,22.0361848 C46.418957,22.0624638 46.2242777,22.0590254 46.0425132,22.0253785 C45.8607487,21.9917315 45.6890291,21.9337702 45.5273543,21.8507579 C45.3656796,21.7679912 45.2099839,21.6719622 45.0600282,21.5626709 L45.6050826,20.5940304 C45.7885212,20.7421263 45.988223,20.8506808 46.2041879,20.9194484 C46.4206312,20.9884616 46.6385094,20.9737257 46.8583009,20.8749951 C47.0649385,20.7821589 47.2101109,20.6500269 47.2935791,20.4783535 C47.3770473,20.3069258 47.3808739,20.1364804 47.3041023,19.9670174 C47.2275699,19.7980457 47.0929206,19.6843336 46.8999154,19.6261267 C46.7069103,19.5681655 46.4242186,19.5534296 46.0511231,19.5816734 C45.5866669,19.6190044 45.1860676,19.5603063 44.8493249,19.4060705 C44.5125823,19.2520802 44.2605036,18.9900266 44.0930889,18.6204009 C43.9904876,18.3932223 43.9419374,18.1697276 43.9483948,17.949917 C43.9546131,17.7301063 44.0038808,17.5230668 44.0957197,17.329044 C44.1875586,17.1350211 44.3183812,16.9596638 44.4881875,16.802972 C44.6579939,16.6462801 44.8545865,16.5175865 45.0789222,16.4168911 C45.3467856,16.2965479 45.6337822,16.2412882 45.9396727,16.2511121 C46.2455633,16.2611817 46.5263416,16.3265109 46.7817685,16.4473453 L46.3182691,17.4034603 Z" id="Fill-9"></path>
            <polygon id="Fill-10" points="61.2956522 13.0470406 62.2373521 12.9860384 64.6914857 16.2395706 64.7046717 16.2385867 64.5187491 12.8389444 65.6195601 12.7678571 65.9217391 18.2924911 64.9800392 18.3532473 62.5322788 15.0920898 62.5188731 15.0928278 62.7052352 18.4998494 61.5978313 18.5714286"></polygon>
            <path d="M75.7363391,14.3602408 L75.7236289,14.3580925 L74.9442822,15.9650371 L76.0123622,16.1562377 L75.7363391,14.3602408 Z M74.4765471,16.9205628 L73.9793666,17.9429252 L72.8608696,17.7424151 L75.4687895,12.7678571 L76.4991626,12.9523741 L77.4869565,18.5714286 L76.3555374,18.3687702 L76.1767474,17.225147 L74.4765471,16.9205628 Z" id="Fill-11"></path>
            <path d="M87.6683031,21.6834851 C87.2908397,21.8965655 86.8815771,22.0179436 86.4402725,22.0471327 C85.998968,22.0763218 85.5603336,22.0062679 85.1241267,21.8369711 C84.7471487,21.6905391 84.4196901,21.4867019 84.1427217,21.2254594 C83.8655106,20.9639737 83.6526261,20.6677043 83.5043109,20.3366512 C83.3555102,20.0055981 83.2775901,19.6468154 83.2700651,19.261276 C83.2625401,18.8752501 83.3399747,18.4846026 83.502369,18.0890902 C83.6591801,17.7071995 83.8771622,17.3788221 84.155587,17.103958 C84.4344973,16.8293372 84.7452068,16.6206351 85.0886864,16.4776085 C85.4316805,16.3345819 85.7970069,16.2589335 86.1851509,16.2506632 C86.5728095,16.242393 86.9556133,16.3114738 87.3325913,16.4576626 C87.7644289,16.6252567 88.1282988,16.868256 88.4239582,17.186174 C88.7203459,17.5043352 88.9295893,17.8670098 89.0521739,18.2739546 L87.8401643,18.6086563 C87.7731676,18.3741705 87.6602926,18.1649819 87.5015395,17.9808473 C87.3425437,17.7967127 87.1359704,17.6551456 86.8815771,17.5566323 C86.6589829,17.470038 86.4363887,17.4318489 86.2135517,17.4418219 C85.9909575,17.4517948 85.7819569,17.502146 85.5865497,17.5931187 C85.3911426,17.6840914 85.2151548,17.811064 85.0588292,17.9742798 C84.902018,18.1374955 84.7787052,18.3291706 84.6881625,18.5495483 C84.5978625,18.7696828 84.5514989,18.99152 84.5493142,19.2145734 C84.5473723,19.4378701 84.5849972,19.6477884 84.6621891,19.8443283 C84.739381,20.0413548 84.8551688,20.2177056 85.0097953,20.3741105 C85.1641791,20.5305155 85.3527894,20.6516503 85.5753836,20.7382446 C85.829777,20.8370011 86.0795583,20.8727577 86.3254557,20.8457578 C86.5708676,20.8185146 86.8007441,20.7423797 87.0155705,20.6173531 L87.6683031,21.6834851 Z" id="Fill-12"></path>
            <polygon id="Fill-13" points="93.3934715 25.5357143 92.5217391 24.9670472 95.119572 20.8928571 95.9913043 21.4615242"></polygon>
            <path d="M101.205091,28.4660008 C101.039846,28.6362823 100.913968,28.8243472 100.826984,29.0301954 C100.74,29.2360436 100.693798,29.4445715 100.688376,29.6552919 C100.682483,29.8662559 100.719256,30.0725913 100.798461,30.2745418 C100.87743,30.4767359 101.00048,30.6589542 101.167611,30.8219275 C101.33427,30.9844136 101.519552,31.1028068 101.723221,31.1761326 C101.927126,31.249702 102.133624,31.2808838 102.343893,31.2691906 C102.553926,31.2574975 102.760188,31.2053655 102.962914,31.1123075 C103.16564,31.0192495 103.349744,30.8877015 103.514753,30.71742 C103.679527,30.5471384 103.805641,30.3590735 103.892389,30.1532253 C103.979609,29.9473771 104.025811,29.7390928 104.031469,29.5281289 C104.03689,29.3174085 103.999881,29.1108295 103.921148,28.908879 C103.842179,28.7066849 103.719129,28.524223 103.552234,28.3617368 C103.385339,28.1990071 103.200056,28.080614 102.996388,28.0072881 C102.792483,27.9337187 102.585514,27.9027806 102.375716,27.9142301 C102.165683,27.9259233 101.959421,27.9782989 101.756695,28.0711133 C101.553733,28.1641713 101.370101,28.2957193 101.205091,28.4660008 M100.316162,27.5992458 C100.6021,27.3039937 100.922925,27.0808494 101.277696,26.9300564 C101.632466,26.7792635 101.991008,26.7015527 102.353558,26.6966806 C102.716107,26.6918084 103.072999,26.7575824 103.424469,26.8940025 C103.77594,27.0304227 104.092994,27.2365145 104.375631,27.5120344 C104.658269,27.7875543 104.872781,28.0996153 105.018933,28.4479738 C105.164613,28.7963324 105.239574,29.1534607 105.243346,29.5183846 C105.246882,29.8837956 105.179699,30.2455525 105.040855,30.6036553 C104.902483,30.9620017 104.689857,31.2889228 104.403683,31.5841749 C104.107373,31.8899022 103.781833,32.1181622 103.426827,32.2689552 C103.071821,32.4197482 102.713986,32.4967281 102.353086,32.499895 C101.992658,32.5030619 101.638124,32.4346082 101.289953,32.2947776 C100.942019,32.1547034 100.626615,31.9471499 100.343978,31.6713864 C100.061104,31.3956228 99.8449416,31.0852671 99.6957259,30.7405627 C99.5465101,30.3956146 99.4682485,30.042384 99.4614124,29.6806271 C99.4541048,29.3188701 99.5205801,28.9580876 99.6608382,28.598036 C99.8010962,28.2379843 100.019616,27.9052167 100.316162,27.5992458" id="Fill-14"></path>
            <polygon id="Fill-15" points="110.90125 34.8214286 111.432055 35.6883859 109.940922 39.6125215 109.948518 39.624614 112.718554 37.7885302 113.33913 38.8020781 108.83788 41.7857143 108.307075 40.918757 109.807876 36.9968424 109.80051 36.9847499 107.02449 38.8245355 106.4 37.8050648"></polygon>
            <path d="M115.262434,47.5008476 L115.257835,47.4882218 L113.538599,47.5187533 L113.914545,48.5905704 L115.262434,47.5008476 Z M112.514326,47.532986 L111.419769,47.5511213 L111.026087,46.4285714 L116.445887,46.5137383 L116.808696,47.5476779 L112.654019,51.0714286 L112.255959,49.9360233 L113.112512,49.2390782 L112.514326,47.532986 Z" id="Fill-16"></path>
            <polygon id="Fill-17" points="115.739216 57.4716511 115.975026 59.0539459 114.903494 59.1964286 114.495652 56.4602383 120.106229 55.7142857 120.278261 56.8681811"></polygon>
            <polygon id="Fill-18" points="119.144884 66.5005512 118.022471 66.4468095 117.944752 68.2221281 116.867167 68.170494 116.944642 66.394912 115.657534 66.3330037 115.573237 68.2629612 114.495652 68.2113271 114.635497 65 120.278261 65.2708158 120.138416 68.4821429 119.060831 68.4305087"></polygon>
            <path d="M117.514517,77.9463312 C117.671417,77.8582334 117.789868,77.7673508 117.870587,77.6729241 C117.951066,77.5784974 118.007904,77.46154 118.041099,77.3220517 C118.057099,77.2549657 118.064025,77.1838293 118.061876,77.1094018 C118.059249,77.0347211 118.045398,76.9663694 118.020083,76.9038402 C117.99453,76.841311 117.958231,76.7863764 117.911901,76.7387833 C117.865333,76.6914434 117.806346,76.6587864 117.734941,76.6408124 C117.558936,76.5965104 117.388423,76.6514449 117.222687,76.8061224 C117.057668,76.9602937 116.856109,77.2066132 116.619685,77.5445747 C116.521055,77.6827972 116.408574,77.8162097 116.282242,77.9450654 C116.155671,78.073668 116.011667,78.179993 115.850468,78.2642935 C115.68927,78.348594 115.511832,78.4055538 115.318393,78.4359324 C115.124477,78.4660578 114.913606,78.4523874 114.6853,78.3946682 C114.419024,78.3275822 114.190241,78.2151815 113.998475,78.0569598 C113.806708,77.8989913 113.656256,77.7106442 113.547357,77.4919185 C113.437981,77.273446 113.371591,77.0283923 113.348187,76.7575167 C113.324545,76.4863881 113.347232,76.2066521 113.415771,75.9180558 C113.477624,75.6585722 113.562163,75.4363024 113.669152,75.2517526 C113.776379,75.0672028 113.898651,74.9122722 114.037162,74.7867074 C114.175674,74.6606364 114.326842,74.5588682 114.492101,74.4808966 C114.656643,74.4024186 114.828827,74.3373578 115.00722,74.2857143 L115.436128,75.3421288 C115.206151,75.3963039 114.997668,75.4887054 114.8102,75.6200927 C114.622493,75.7509737 114.50022,75.9367892 114.443144,76.1772862 C114.388934,76.4031002 114.403979,76.6043582 114.487802,76.7810601 C114.571864,76.9580153 114.703928,77.068897 114.884709,77.114718 C115.065491,77.1602859 115.238152,77.1233253 115.402455,77.0043426 C115.566998,76.8853599 115.752794,76.6656216 115.960322,76.3461404 C116.216569,75.9469154 116.509592,75.6600911 116.838198,75.4854144 C117.167283,75.311244 117.529084,75.2735239 117.923842,75.3732669 C118.166237,75.4345303 118.372332,75.5373111 118.54189,75.6823687 C118.711447,75.8269201 118.844704,75.9980527 118.941423,76.1957665 C119.037904,76.3932271 119.095458,76.610687 119.114563,76.8473867 C119.133907,77.0843395 119.114085,77.3253427 119.055815,77.5706496 C118.985843,77.8638028 118.852824,78.130881 118.65652,78.3721374 C118.460454,78.6131407 118.23597,78.7984499 117.983545,78.9285714 L117.514517,77.9463312 Z" id="Fill-19"></path>
            <path d="M25.802996,95.412137 L25.945319,95.5995229 C26.2815514,96.0420099 26.6481829,96.2860302 27.0468255,96.3313378 C27.4447772,96.3768915 27.8517105,96.2296421 28.2669345,95.890082 C28.6932126,95.5414111 28.9267329,95.1607295 28.9674953,94.7472985 C29.0080274,94.3336212 28.8647832,93.9113257 28.5373021,93.4801656 L28.3949791,93.2932721 L25.802996,95.412137 Z M28.4808796,91.6964286 L29.5020127,93.0408797 C29.7346118,93.3474441 29.8948979,93.673215 29.9826407,94.0184385 C30.0703835,94.3634158 30.0918011,94.7079007 30.0464328,95.0514006 C30.0008341,95.3953929 29.890292,95.7248573 29.7148063,96.0397938 C29.5393206,96.3547302 29.3032671,96.6337161 29.0066457,96.8762591 C28.7100242,97.1190482 28.3935973,97.2899364 28.0580559,97.3899084 C27.7220538,97.4898804 27.388585,97.5216449 27.0576494,97.4856944 C26.7267139,97.4494976 26.4091355,97.3460783 26.1049143,97.1746977 C25.8004628,97.0038096 25.5349313,96.7686537 25.3080896,96.4699689 L24.2869565,95.1252715 L28.4808796,91.6964286 Z" id="Fill-20"></path>
            <polygon id="Fill-21" points="36.1317648 101.308141 35.4321987 102.101147 36.6855291 103.106408 36.0139927 103.867471 34.7608979 102.86221 33.9586346 103.771181 35.3210219 104.863937 34.6494855 105.625 32.3826087 103.806595 35.8983406 99.8214286 38.1652174 101.640065 37.493681 102.401128"></polygon>
            <path d="M51.9424164,113.325467 C51.5712019,113.552414 51.1643079,113.688631 50.7217343,113.734361 C50.2786719,113.779848 49.834632,113.726091 49.3891258,113.573333 C49.0039816,113.441008 48.6667361,113.249332 48.3776336,112.998547 C48.0882867,112.747762 47.8624789,112.459517 47.6999656,112.134299 C47.5374524,111.808838 47.4448321,111.453458 47.4218603,111.068159 C47.3993773,110.682859 47.4616944,110.289533 47.6095447,109.88818 C47.7522631,109.500691 47.9582762,109.164771 48.2278282,108.879688 C48.4971358,108.594849 48.8018787,108.37447 49.141568,108.219036 C49.4807686,108.06336 49.8456291,107.974333 50.2356609,107.951468 C50.6256926,107.928603 51.0130362,107.983576 51.3981803,108.115901 C51.8392877,108.267199 52.2146566,108.496335 52.5250202,108.80331 C52.8356282,109.110284 53.0607029,109.464934 53.2,109.867018 L51.9939807,110.246479 C51.9170008,110.014667 51.7950548,109.809612 51.6283871,109.631557 C51.4612306,109.453502 51.2478861,109.319718 50.987865,109.23069 C50.7603464,109.152609 50.5350273,109.12269 50.3114189,109.14069 C50.0875661,109.158933 49.879598,109.217068 49.6867816,109.315339 C49.4934764,109.413367 49.3214323,109.546908 49.1704049,109.71572 C49.0193776,109.884531 48.902808,110.080829 48.820696,110.304371 C48.7383397,110.527669 48.7004607,110.750968 48.7073033,110.974023 C48.7139016,111.197321 48.7600896,111.405539 48.8456228,111.599161 C48.9311561,111.793027 49.0545684,111.965001 49.2161041,112.115569 C49.3776399,112.266381 49.572167,112.380462 49.7996855,112.458544 C50.0592179,112.547815 50.3123964,112.574328 50.5582435,112.538085 C50.8040906,112.501841 51.032831,112.417436 51.2437317,112.284381 L51.9424164,113.325467 Z" id="Fill-22"></path>
            <polygon id="Fill-23" points="60.6462643 111.45712 60.5109441 112.534229 62.0526997 112.749311 61.9223003 113.783452 60.3807683 113.568127 60.2253178 114.80327 61.9010516 115.037287 61.7710995 116.071429 58.9826087 115.682048 59.6636831 110.267857 62.4521739 110.656995 62.3219981 111.691136"></polygon>
            <path d="M69.6916631,112.889431 L69.8378871,112.880558 C69.9815592,112.871684 70.1168099,112.852163 70.2436394,112.821233 C70.3704689,112.79081 70.4807111,112.743654 70.5743659,112.679766 C70.6680206,112.616131 70.7394739,112.529425 70.789236,112.420156 C70.8384877,112.31114 70.8576269,112.173476 70.8469089,112.007416 C70.8359358,111.841357 70.797402,111.70851 70.7318182,111.608874 C70.6659791,111.509492 70.5820216,111.434956 70.4812215,111.385265 C70.379911,111.336081 70.264565,111.305405 70.1349284,111.292982 C70.0052918,111.280813 69.8710618,111.278784 69.7324936,111.287658 L69.5865248,111.296531 L69.6916631,112.889431 Z M72.8608696,115.810297 L71.3361084,115.904102 L69.7631164,113.74153 L69.7480602,113.742544 L69.8965808,115.992329 L68.6109329,116.071429 L68.2347826,110.378769 L69.9287348,110.274824 C70.2160789,110.257077 70.4901531,110.273303 70.7512126,110.32274 C71.012017,110.372431 71.2444952,110.461926 71.4491577,110.59097 C71.6533098,110.719761 71.8194386,110.89013 71.9467785,111.102077 C72.0738632,111.314278 72.1478683,111.571353 72.1677731,111.873048 C72.1927818,112.250547 72.1131624,112.590271 71.9296807,112.89222 C71.7459438,113.194169 71.465745,113.417271 71.0888292,113.561527 L72.8608696,115.810297 Z" id="Fill-24"></path>
            <path d="M79.6827827,111.558251 C80.0259985,112.043043 80.3718783,112.528298 80.7202001,113.014018 L80.7330763,113.010305 L80.9499727,109.438537 L82.1130435,109.107143 L81.5666955,114.686304 L80.7785868,114.910714 C80.2202506,114.153939 79.6707946,113.407838 79.1302186,112.672181 C78.5896427,111.936755 78.0419626,111.187638 77.4869565,110.42506 L78.6433673,110.095523 C78.9930211,110.586116 79.3395669,111.073228 79.6827827,111.558251" id="Fill-25"></path>
            <polygon id="Fill-26" points="89.2699175 107.257748 89.7209541 108.157813 91.0254062 107.45096 91.458249 108.314968 90.153797 109.021821 90.6708389 110.054096 92.0888963 109.285559 92.5217391 110.149794 90.1622592 111.428571 87.8956522 106.903755 90.2549206 105.625 90.6877634 106.489212"></polygon>
            <polygon id="Fill-27" points="100.017935 103.381218 100.617391 104.195065 97.6952849 106.785714 96.9334177 101.762291 95.4342388 103.091428 94.8347826 102.277581 97.6050326 99.8214286 98.3772389 104.836012"></polygon>
            <path d="M104.371776,95.4329504 L104.363265,95.4438925 L105.284292,96.9729259 L105.98401,96.0547447 L104.371776,95.4329504 Z M105.829487,97.8861119 L106.414405,98.8599549 L105.681512,99.8214286 L102.930435,94.9032122 L103.605709,94.0178571 L108.713043,95.8451805 L107.971639,96.8175963 L106.943231,96.4248716 L105.829487,97.8861119 Z" id="Fill-28"></path>
            <path d="M66.4998822,24.735302 C44.0829162,24.735302 25.8449533,42.537686 25.8449533,64.4196547 C25.8449533,86.3016234 44.0829162,104.104007 66.4998822,104.104007 C88.9170838,104.104007 107.154811,86.3016234 107.154811,64.4196547 C107.154811,42.537686 88.9170838,24.735302 66.4998822,24.735302 M66.4998822,105.625 C43.2234618,105.625 24.2869565,87.140339 24.2869565,64.4196547 C24.2869565,41.6989704 43.2234618,23.2142857 66.4998822,23.2142857 C89.7763026,23.2142857 108.713043,41.6989704 108.713043,64.4196547 C108.713043,87.140339 89.7763026,105.625 66.4998822,105.625" id="Fill-29"></path>
            <path d="M51.1561938,86.7839801 C51.1457372,86.2319963 51.1156425,85.9457254 50.9039592,85.73886 C50.6517246,85.5119504 50.2181564,85.5317375 49.9154239,85.5317375 L49.4614525,85.5317375 L49.4614525,90.9261715 L50.0465145,90.9261715 C50.2683993,90.9261715 50.5305805,90.9261715 50.7524654,90.8174707 C50.9039592,90.7388362 51.0350498,90.6301355 51.1056959,90.2950391 C51.1561938,90.0285553 51.1661404,89.2987443 51.1661404,88.5000639 C51.1661404,87.928036 51.176087,87.356265 51.1561938,86.7839801 M52.0233301,89.4071881 C52.0233301,89.6639068 52.0133835,89.9201116 51.9932354,90.1765733 C51.9427374,90.7288141 51.7713505,91.2317156 51.2467331,91.5079645 C50.8231115,91.7248519 50.349247,91.6950428 49.9054773,91.6950428 L48.573913,91.6950428 L48.573913,84.7328001 L49.9154239,84.7328001 C50.349247,84.7328001 50.7828152,84.7130129 51.1964902,84.8905832 C51.8621448,85.1763401 51.9631406,85.7979644 51.9932354,86.0148519 C52.0335317,86.3106309 52.0434783,87.0406989 52.0434783,87.8589095 C52.0434783,88.37209 52.0335317,88.8945216 52.0233301,89.4071881" id="Fill-30"></path>
            <polygon id="Fill-31" points="53.2 91.6964286 53.2 84.7321429 56.5931443 84.7321429 56.5931443 85.5114931 54.1598137 85.5114931 54.1598137 87.5832485 56.2874606 87.5832485 56.2874606 88.3723663 54.1598137 88.3723663 54.1598137 90.9173354 56.6695652 90.9173354 56.6695652 91.6964286"></polygon>
            <path d="M59.4936714,91.4093599 C59.0499343,91.6964286 58.555703,91.6964286 58.3843287,91.6964286 C58.1321126,91.6964286 57.1135574,91.6774571 56.7807545,90.7675742 C56.6897119,90.5184486 56.6695652,90.2695725 56.6695652,90.0104618 L56.6695652,89.2633345 L57.5065452,89.2633345 L57.5065452,89.5988303 C57.5065452,90.0586395 57.5065452,90.2695725 57.587387,90.4894921 C57.6580279,90.6717183 57.8699506,90.978008 58.3843287,90.978008 C58.7270773,90.978008 59.0598802,90.8344737 59.201162,90.5374201 C59.2817487,90.374415 59.2817487,90.2021738 59.2817487,90.1352743 C59.2817487,89.5603881 59.009641,89.3209978 58.6163981,88.9378236 L57.6580279,87.9989842 C57.1033565,87.4528049 56.8411946,87.0888518 56.8411946,86.3032821 C56.8411946,86.2074261 56.8411946,85.9390794 56.9217813,85.6614964 C57.0630631,85.2209085 57.456306,84.7321429 58.4950079,84.7321429 C58.7370232,84.7321429 59.6953933,84.7416286 59.9374086,85.6135685 C59.9981036,85.843473 59.9981036,86.1597478 59.9981036,86.3991381 L59.9981036,86.8299907 L59.2111078,86.8299907 C59.201162,86.4088735 59.201162,86.5139656 59.201162,86.2745753 C59.201162,85.9677862 59.1506678,85.6712318 58.8178649,85.5177125 C58.6564364,85.4505634 58.5052088,85.4505634 58.4445137,85.4505634 C58.233101,85.4505634 58.0512708,85.4984914 57.910244,85.63254 C57.8294022,85.6996891 57.7891089,85.7860593 57.7689622,85.8147661 C57.7286688,85.9008867 57.6983213,86.0446707 57.6983213,86.2650895 C57.6983213,86.3225032 57.6983213,86.4947444 57.7587613,86.6577495 C57.8699506,86.9737747 58.1724059,87.2323861 58.4044753,87.472026 L59.524019,88.6023277 C59.6046057,88.6886979 59.6752466,88.7748185 59.7458875,88.8611887 C59.9172619,89.0716225 60.1391304,89.4263395 60.1391304,90.0681252 C60.1391304,90.872916 59.7961267,91.2173983 59.4936714,91.4093599" id="Fill-32"></path>
            <path d="M62.7211562,86.7839801 C62.7109546,86.2319963 62.6806048,85.9457254 62.4689215,85.73886 C62.2166869,85.5119504 61.7831188,85.5317375 61.4803862,85.5317375 L61.0264149,85.5317375 L61.0264149,90.9261715 L61.6114768,90.9261715 C61.8336167,90.9261715 62.0955429,90.9261715 62.3174277,90.8174707 C62.4689215,90.7388362 62.6000121,90.6301355 62.6706582,90.2950391 C62.7211562,90.0285553 62.7313578,89.2987443 62.7313578,88.5000639 C62.7313578,87.928036 62.7413043,87.356265 62.7211562,86.7839801 M63.5882924,89.4071881 C63.5882924,89.6639068 63.5783459,89.9201116 63.5584528,90.1765733 C63.5076998,90.7288141 63.3365679,91.2317156 62.8116954,91.5079645 C62.3880738,91.7248519 61.9142094,91.6950428 61.4704396,91.6950428 L60.1391304,91.6950428 L60.1391304,84.7328001 L61.4803862,84.7328001 C61.9142094,84.7328001 62.3480325,84.7130129 62.7614525,84.8905832 C63.4273622,85.1763401 63.528103,85.7979644 63.5584528,86.0148519 C63.598494,86.3106309 63.6086957,87.0406989 63.6086957,87.8589095 C63.6086957,88.37209 63.598494,88.8945216 63.5882924,89.4071881" id="Fill-33"></path>
            <polygon id="Fill-34" points="64.7652174 91.6964286 64.7652174 84.7321429 68.1583617 84.7321429 68.1583617 85.5114931 65.7250311 85.5114931 65.7250311 87.5832485 67.852678 87.5832485 67.852678 88.3723663 65.7250311 88.3723663 65.7250311 90.9173354 68.2347826 90.9173354 68.2347826 91.6964286"></polygon>
            <path d="M71.8676903,91.6964286 L71.8676903,86.2317237 L70.5478261,86.2317237 L70.5478261,85.5708697 C70.7284301,85.5708697 70.9090341,85.5708697 71.0776548,85.5510775 C71.675959,85.5017255 72.0146272,85.2847823 72.0260398,84.7321429 L72.8608696,84.7321429 L72.8608696,91.6964286 L71.8676903,91.6964286 Z" id="Fill-35"></path>
            <path d="M76.4604837,85.8385479 C76.4159158,85.6748681 76.259928,85.3956349 75.7691166,85.40516 C75.7022647,85.40516 75.4678599,85.40516 75.2895882,85.530489 C75.0661844,85.6941688 75.0103335,86.0112513 75.0103335,86.5213406 C75.0103335,86.6654691 75.0103335,86.8098482 75.0213344,86.9542273 C75.0326174,87.1372077 75.0551835,87.2810855 75.1888873,87.4254646 C75.2895882,87.5312423 75.4452939,87.6372707 75.7914006,87.6372707 C76.248645,87.6372707 76.4049148,87.3580375 76.4494828,87.2136584 C76.4830497,87.0888307 76.4940507,86.8003232 76.5053337,86.4541643 C76.5053337,86.4443886 76.5273356,86.0403277 76.4604837,85.8385479 M76.5163347,89.233963 C76.5163347,89.0800589 76.5053337,88.4448912 75.7465506,88.4546669 C75.389443,88.4546669 75.2224542,88.5895209 75.1446014,88.695048 C74.9660476,88.9166298 74.9993325,89.1472353 74.9880495,89.3973921 C74.9880495,89.5417712 74.9770485,89.6858996 74.9770485,89.8302787 C74.9770485,89.9458321 74.9880495,90.0613855 74.9880495,90.1766883 C74.9993325,90.3591674 74.9993325,90.9364331 75.7465506,90.9364331 C75.9141034,90.9364331 76.3154969,90.9076074 76.4604837,90.5130715 C76.5163347,90.3496424 76.5273356,90.0804356 76.5273356,89.6956753 C76.5273356,89.5417712 76.5273356,89.3878671 76.5163347,89.233963 M77.3862556,90.6865269 C77.2641169,91.1191629 77.0297121,91.3790954 76.5499016,91.5520495 C76.1705101,91.6869036 75.8469694,91.6964286 75.7022647,91.6964286 C75.5459949,91.6964286 75.1446014,91.6869036 74.7426438,91.4943981 C74.2741163,91.2637926 74.0177097,90.8983331 74.0177097,90.0034835 C74.0177097,89.1377103 73.9951437,88.6373967 74.3299673,88.2912378 C74.5420881,88.0699066 74.8207787,88.0122553 74.9211976,87.9932052 C74.8989136,87.9932052 74.7316428,87.9641289 74.631224,87.9255275 C74.4416692,87.8488261 74.2185475,87.6565714 74.1514135,87.2427348 C74.1181286,87.040955 74.1065635,86.8003232 74.1065635,86.3674366 C74.1065635,85.8192472 74.1962635,85.2417309 74.7874938,84.9341733 C75.0887504,84.7704936 75.434293,84.7321429 75.7691166,84.7321429 C76.5053337,84.7321429 76.9402942,84.9822997 77.1298489,85.2036308 C77.3978207,85.5016633 77.4311056,85.9345499 77.4311056,86.2809595 C77.4311056,86.578992 77.4311056,86.8674995 77.3862556,87.1657827 C77.3752546,87.2810855 77.3419697,87.7620984 76.8288743,87.9353032 C76.7284554,87.9739046 76.6838875,87.9739046 76.5834686,87.9932052 C76.6948885,88.0122553 76.9292932,88.0603816 77.141414,88.2528871 C77.4198225,88.5027932 77.4869565,88.8203771 77.4869565,89.4745948 C77.4869565,90.1092612 77.4869565,90.3591674 77.3862556,90.6865269" id="Fill-36"></path>
            <path d="M79.1467266,88.6662114 C79.1391304,88.4932578 79.1317241,88.2912279 79.0565217,88.1468492 C78.9663168,87.9543443 78.7862869,87.8776431 78.6208796,87.8776431 C78.5308646,87.8776431 78.2752524,87.9064687 78.1776412,88.2433523 C78.1178211,88.4641815 78.1104148,88.868492 78.1104148,89.4069042 L78.1104148,90.0804207 C78.1104148,90.0997213 78.1104148,90.4556549 78.1928336,90.6574341 C78.3128536,90.9459409 78.5758721,90.9557165 78.6436682,90.9557165 C78.9213093,90.9557165 79.033923,90.7634622 79.0791204,90.6286085 C79.1467266,90.4363543 79.1541329,89.9936932 79.1541329,89.4550304 C79.1541329,89.1953493 79.1541329,88.9356682 79.1467266,88.6662114 M79.7774013,90.2729256 C79.7549925,90.6767348 79.7249875,91.0228927 79.491974,91.3021251 C79.1693253,91.7059342 78.7410895,91.6964286 78.6134733,91.6964286 C78.4858571,91.6964286 78.1104148,91.6964286 77.8323938,91.3790769 C77.4869565,90.9845421 77.4869565,90.4842298 77.4869565,89.4357298 L77.4869565,86.4541595 C77.4869565,85.5016612 77.6895852,85.0976014 78.0428086,84.8762709 C78.2228386,84.7704934 78.418061,84.7321429 78.6134733,84.7321429 C79.1767316,84.7321429 79.4543728,85.0301746 79.5823688,85.3089056 C79.7549925,85.6650899 79.7398001,86.0400734 79.7323938,86.4348589 L79.1165317,86.4253339 C79.1165317,86.0786746 79.1241279,85.8956947 79.063928,85.7420417 C79.0115142,85.6267393 78.8761119,85.4823606 78.6284758,85.4823606 C78.1402299,85.4823606 78.1178211,86.0305484 78.1104148,86.2135283 C78.0952224,86.521085 78.1026287,86.829143 78.1026287,87.1369504 L78.1026287,87.6565632 C78.2154323,87.4831083 78.4106547,87.165776 78.8387006,87.165776 C78.8987106,87.165776 79.0491154,87.1753009 79.2065467,87.2617778 C79.4321539,87.3773308 79.6273763,87.6177113 79.709985,87.9159937 C79.7849975,88.2045004 79.8,88.685512 79.8,89.3685536 C79.8,89.6665853 79.7925937,89.9651183 79.7774013,90.2729256" id="Fill-37"></path>
            <path d="M82.6162919,88.6662114 C82.6086957,88.4932578 82.6010995,88.2912279 82.526087,88.1468492 C82.4358821,87.9543443 82.2558521,87.8776431 82.0904448,87.8776431 C82.0004298,87.8776431 81.7448176,87.9064687 81.6472064,88.2433523 C81.5873863,88.4641815 81.5797901,88.868492 81.5797901,89.4069042 L81.5797901,90.0804207 C81.5797901,90.0997213 81.5797901,90.4556549 81.6623988,90.6574341 C81.7824188,90.9459409 82.0454373,90.9557165 82.1132334,90.9557165 C82.3908746,90.9557165 82.5034883,90.7634622 82.5486857,90.6286085 C82.6162919,90.4363543 82.6236982,89.9936932 82.6236982,89.4550304 C82.6236982,89.1953493 82.6236982,88.9356682 82.6162919,88.6662114 M83.2469665,90.2729256 C83.2245577,90.6767348 83.1945527,91.0228927 82.9615392,91.3021251 C82.6387006,91.7059342 82.2106547,91.6964286 82.0830385,91.6964286 C81.9554223,91.6964286 81.5797901,91.6964286 81.301959,91.3790769 C80.9565217,90.9845421 80.9565217,90.4842298 80.9565217,89.4357298 L80.9565217,86.4541595 C80.9565217,85.5016612 81.1591504,85.0976014 81.5123738,84.8762709 C81.6924038,84.7704934 81.8876262,84.7321429 82.0830385,84.7321429 C82.6462969,84.7321429 82.923938,85.0301746 83.051934,85.3089056 C83.2245577,85.6650899 83.2093653,86.0400734 83.201959,86.4348589 L82.586097,86.4253339 C82.586097,86.0786746 82.5936932,85.8956947 82.5334933,85.7420417 C82.4810795,85.6267393 82.3456772,85.4823606 82.098041,85.4823606 C81.6097951,85.4823606 81.5873863,86.0305484 81.5797901,86.2135283 C81.5647876,86.521085 81.5721939,86.829143 81.5721939,87.1369504 L81.5721939,87.6565632 C81.6849975,87.4831083 81.8802199,87.165776 82.3082659,87.165776 C82.3682759,87.165776 82.5184908,87.1753009 82.6761119,87.2617778 C82.9017191,87.3773308 83.0969415,87.6177113 83.1795502,87.9159937 C83.2543728,88.2045004 83.2695652,88.685512 83.2695652,89.3685536 C83.2695652,89.6665853 83.2621589,89.9651183 83.2469665,90.2729256" id="Fill-38"></path>
            <polygon id="Fill-39" points="65.9141143 96.5555954 64.7652174 96.3392857 65.9217391 97.5"></polygon>
            <path d="M56.3068262,96.3392857 C55.8393026,96.3392857 55.5130435,95.8570786 55.5130435,95.1663925 C55.5130435,94.952874 55.5956958,94.7483736 55.7518422,94.5741106 C56.0831383,94.2048959 56.7068084,94.0057004 57.4577767,94.0184319 C58.6030034,94.0430993 65.6085304,96.0265672 65.912581,96.1130356 L65.9217391,96.2963168 C65.8475581,96.2750975 58.5823975,94.2197494 57.4548003,94.1956125 C56.7542018,94.1836767 56.1584641,94.369345 55.8612821,94.7006303 C55.7355865,94.8409425 55.6691899,95.0019434 55.6691899,95.1663925 C55.6691899,95.6621269 55.8663191,96.1621051 56.3068262,96.1621051 C56.5911867,96.1621051 56.8847054,96.0122443 57.0209329,95.7976647 C57.1109117,95.6557611 57.1303728,95.4939645 57.0788582,95.3178448 L57.2267623,95.2618791 C57.2943037,95.4921078 57.2668292,95.7130531 57.1473154,95.9013738 C56.9554521,96.2040131 56.5868366,96.3392857 56.3068262,96.3392857" id="Fill-40"></path>
            <polygon id="Fill-41" points="65.92961 96.5557521 67.0782609 96.3392857 65.9217391 97.5"></polygon>
            <path d="M76.6931738,96.3392857 C77.1604685,96.3392857 77.4869565,95.8570788 77.4869565,95.1663929 C77.4869565,94.9528744 77.4043042,94.7481088 77.2481578,94.5741112 C76.9168617,94.2046313 76.2931916,94.0057011 75.5422233,94.0184326 C74.3969966,94.0431 67.3914696,96.0263021 67.087419,96.1127705 L67.0782609,96.2960515 C67.1524419,96.2748323 74.4176025,94.21975 75.5449708,94.1956132 C76.2457982,94.1836774 76.8415359,94.3690804 77.1387179,94.7006308 C77.2644135,94.8406777 77.3308101,95.0016786 77.3308101,95.1663929 C77.3308101,95.6618619 77.1336809,96.1621052 76.6931738,96.1621052 C76.4090422,96.1621052 76.1152946,96.0122444 75.9790671,95.7976649 C75.8888593,95.6554961 75.8693982,95.4936995 75.9211418,95.3175799 L75.7732377,95.2618794 C75.7056963,95.4918428 75.7331708,95.7130532 75.8524557,95.9011087 C76.0445479,96.2037479 76.4129345,96.3392857 76.6931738,96.3392857" id="Fill-42"></path>
            <path d="M71.2633639,96.3392857 C71.5230647,96.3392857 71.7043478,96.580458 71.7043478,96.9255051 C71.7043478,97.0325058 71.6584504,97.1349379 71.5714991,97.2219811 C71.3874483,97.406407 71.0410269,97.5061941 70.6240296,97.4997019 C69.9876935,97.4871985 66.0956418,96.4955788 65.9268132,96.4525381 L65.9217391,96.3609263 C65.9630237,96.3715061 69.9992255,97.398953 70.6254134,97.4109755 C71.0149646,97.4169868 71.3457025,97.3244132 71.5108408,97.1585021 C71.5807247,97.0885308 71.6176271,97.0079798 71.6176271,96.9255051 C71.6176271,96.6778406 71.5080731,96.4280121 71.2633639,96.4280121 C71.1053755,96.4280121 70.9420823,96.5030328 70.866663,96.6100335 C70.8166141,96.6812069 70.805774,96.7619985 70.834604,96.8500035 L70.7522655,96.8781363 C70.7146711,96.7629603 70.7298934,96.6525933 70.7963177,96.5583365 C70.9031041,96.4068524 71.1076819,96.3392857 71.2633639,96.3392857" id="Fill-43"></path>
            <path d="M60.5801143,96.3392857 C60.3204136,96.3392857 60.1391304,96.580508 60.1391304,96.9256266 C60.1391304,97.0324089 60.1850278,97.1348622 60.2717485,97.2219235 C60.4557993,97.4063876 60.8022207,97.5061954 61.2194487,97.4997019 C61.8557847,97.4874363 65.7476059,96.4956112 65.916665,96.4525616 L65.9217391,96.3609308 C65.8804546,96.3715128 61.8442527,97.3991726 61.2178342,97.4111976 C60.8285137,97.4169696 60.4977758,97.3243768 60.3324068,97.1586718 C60.2627535,97.0886861 60.2258511,97.0078778 60.2258511,96.9256266 C60.2258511,96.6779108 60.3354052,96.42779 60.5801143,96.42779 C60.7381028,96.42779 60.9011653,96.5028262 60.9768153,96.6100896 C61.0268642,96.6812778 61.0377043,96.7620861 61.0088743,96.8501093 L61.0912128,96.8780074 C61.1285765,96.7630481 61.1135849,96.6524177 61.0469299,96.5583819 C60.9403742,96.4068664 60.7355657,96.3392857 60.5801143,96.3392857" id="Fill-44"></path>
            <path d="M113.33913,87.0536765 C113.33913,87.694839 112.821327,88.2142857 112.182812,88.2142857 C111.54389,88.2142857 111.026087,87.694839 111.026087,87.0536765 C111.026087,86.4125141 111.54389,85.8928571 112.182812,85.8928571 C112.821327,85.8928571 113.33913,86.4125141 113.33913,87.0536765" id="Fill-45"></path>
            <path d="M23.1304348,87.0536765 C23.1304348,87.694839 22.6126317,88.2142857 21.973913,88.2142857 C21.3351944,88.2142857 20.8173913,87.694839 20.8173913,87.0536765 C20.8173913,86.4125141 21.3351944,85.8928571 21.973913,85.8928571 C22.6126317,85.8928571 23.1304348,86.4125141 23.1304348,87.0536765" id="Fill-46"></path>
            <polygon id="Fill-47" points="34.6956522 55.7142857 54.3565217 55.7142857 54.3565217 61.6340701 41.5066825 61.6340701 41.5066825 65.777872 48.3660367 65.777872 48.3660367 71.3839286 41.5066825 71.3839286 41.5066825 80.0892857 34.6956522 80.0892857"></polygon>
            <polygon id="Fill-48" points="55.5130435 55.7357295 61.5300433 55.7357295 71.1042391 69.1635529 71.1042391 55.7142857 77.4869565 55.7142857 77.4869565 80.0892857 71.8356743 80.0892857 61.8957609 66.1977107 61.8957609 80.0409783 55.5130435 80.0409783"></polygon>
            <path d="M79.8,67.968669 L79.8,67.9019037 C79.8,61.0713171 84.9414361,55.7142857 91.8840777,55.7142857 C96.5671651,55.7142857 99.579904,57.723143 101.610167,60.6025444 L96.829112,64.3859906 C95.5191444,62.7121394 94.012775,61.6405916 91.8185327,61.6405916 C88.609392,61.6405916 86.3496046,64.4194912 86.3496046,67.8349024 L86.3496046,67.9019037 C86.3496046,71.4173449 88.609392,74.1629798 91.8185327,74.1629798 C94.2091768,74.1629798 95.6173453,73.0246667 96.9928579,71.3168431 L101.773913,74.7990196 C99.6125598,77.8459241 96.6980219,80.0892857 91.6221308,80.0892857 C85.0725262,80.0892857 79.8,74.9665227 79.8,67.968669" id="Fill-49"></path>
            <path d="M51.8566552,49.9891434 L36.2964059,49.9891434 C36.141115,50.3467363 35.9931962,50.707498 35.8521739,51.0714286 L52.7539183,51.0714286 C52.3850726,50.7657561 52.0840031,50.3998755 51.8566552,49.9891434 L51.8566552,49.9891434 Z M50.9774658,34.6097248 L60.0704293,34.5695048 C60.0751855,34.5585357 60.0825577,34.5490291 60.0875517,34.53806 L51.0411993,34.5780363 C51.0200341,34.5887616 50.9986311,34.5989995 50.9774658,34.6097248 L50.9774658,34.6097248 Z M57.8454642,36.5710011 L59.9198946,36.561982 L59.9198946,36.4669164 L57.8036094,36.476423 C57.8188293,36.5071365 57.8319089,36.5390688 57.8454642,36.5710011 L57.8454642,36.5710011 Z M47.575809,36.61634 L54.6932717,36.5846515 C54.7063514,36.5527192 54.7199066,36.5210307 54.7351266,36.4898297 L47.7199229,36.5210307 C47.6718849,36.5527192 47.6233714,36.5839202 47.575809,36.61634 L47.575809,36.61634 Z M55.6614027,32.6274854 L62.7058572,32.5965281 C62.7127537,32.5875091 62.7179856,32.5770275 62.7251199,32.5680085 L55.749393,32.598722 C55.7201421,32.6084723 55.6906535,32.6177351 55.6614027,32.6274854 L55.6614027,32.6274854 Z M86.1626399,36.3508877 L78.5988049,36.3842825 C78.6166408,36.4152397 78.6325742,36.4469283 78.6485075,36.4791043 L86.3081806,36.445222 C86.2601427,36.4132897 86.2111535,36.3825762 86.1626399,36.3508877 L86.1626399,36.3508877 Z M98.2486999,51.0107328 C98.1150498,50.6670342 97.9735519,50.3269919 97.8275356,49.9891434 L81.5319729,49.9891434 C81.304625,50.3996317 81.0033178,50.7655124 80.634472,51.0714286 L98.3043478,51.0714286 L98.2486999,51.0107328 Z M82.824241,34.4376317 L73.1317546,34.4802894 C73.1369864,34.4910147 73.1436451,34.500765 73.148877,34.5117341 L82.8882123,34.4688327 C82.8670471,34.4581074 82.8454062,34.4481133 82.824241,34.4376317 L82.824241,34.4376317 Z M73.3303272,36.5025051 L75.5776466,36.492511 C75.5928666,36.4605787 75.6076109,36.4284027 75.6249711,36.3974454 L73.3303272,36.4076832 L73.3303272,36.5025051 Z M78.0984494,32.5 L70.5063148,32.5336386 C70.5139247,32.5426576 70.5201078,32.5526517 70.52748,32.5619145 L78.1869153,32.5280322 C78.1574266,32.5185256 78.127938,32.5095066 78.0984494,32.5 L78.0984494,32.5 Z M51.3608181,42.5781713 L40.8768947,42.6244853 C40.7879532,42.7300325 40.6975848,42.8343609 40.6100701,42.9411268 L51.3608181,42.8938378 L51.3608181,42.5781713 Z M82.0282857,40.446752 L91.2066235,40.4062882 C91.1326641,40.3334046 91.0613206,40.2585709 90.9866478,40.1864186 L82.0282857,40.2259073 L82.0282857,40.446752 Z M81.738869,38.4564686 L88.9956893,38.4245363 C88.9310045,38.3716408 88.8646551,38.3199641 88.7992569,38.2678 L81.6092617,38.2994885 C81.6534946,38.3506776 81.7008191,38.4001605 81.738869,38.4564686 L81.738869,38.4564686 Z M82.0282857,45.1800434 L95.1445454,45.122029 C95.0009072,44.9106908 94.85608,44.7005715 94.7072099,44.4928898 L82.0282857,44.5487103 L82.0282857,45.1800434 Z M82.0282857,42.7580646 L93.3295674,42.7080943 C93.2413393,42.6023033 93.1500197,42.4987062 93.0603647,42.3938903 L82.0282857,42.4426419 L82.0282857,42.7580646 Z M51.3608181,44.6844835 L39.2485989,44.7378665 C39.1016313,44.9470108 38.9584687,45.1585927 38.8169708,45.3711496 L51.3608181,45.3155728 L51.3608181,44.6844835 Z M51.3608181,40.3614367 L42.9308733,40.3987317 C42.8566761,40.4716153 42.7858083,40.5471803 42.7123245,40.6205514 L51.3608181,40.5825252 L51.3608181,40.3614367 Z M51.6706866,38.431849 L45.1004283,38.4608562 C45.0357436,38.5139955 44.9698698,38.5659159 44.9056607,38.6195426 L51.5781779,38.5900479 C51.6079043,38.5361774 51.6354905,38.4818194 51.6706866,38.431849 L51.6706866,38.431849 Z M82.0282857,47.8940441 L96.7852075,47.8289607 C96.6151722,47.5106128 96.4380026,47.1961651 96.2565523,46.884155 L82.0282857,46.9470445 L82.0282857,47.8940441 Z M51.3608181,48.0173856 L51.3608181,47.0828177 L37.7206595,47.1430259 C37.542063,47.4564986 37.3675093,47.7724089 37.2003277,48.0922192 L51.3615315,48.0295735 C51.3615315,48.0254296 51.3608181,48.0215294 51.3608181,48.0173856 L51.3608181,48.0173856 Z" id="Fill-50"></path>
            <path d="M64.7652174,38.3035714 L64.7652174,33.9784028 C64.7652174,33.7574021 64.4769049,33.6607143 64.1436074,33.6607143 C63.8491606,33.6607143 63.6086957,33.8034439 63.6086957,33.9784028 L63.6086957,37.9057701 L64.7652174,38.3035714 Z" id="Fill-51"></path>
            <path d="M68.2347826,38.3035714 L69.3913043,37.9057076 L69.3913043,33.9799948 C69.3913043,33.5542874 68.2347826,33.5542874 68.2347826,33.9799948 L68.2347826,38.3035714 Z" id="Fill-52"></path>
            <path d="M70.0801367,42.1278248 C71.1121755,41.4473332 71.7043478,40.2777927 71.7043478,38.9173067 L71.7043478,35.1667712 C71.7043478,34.7063144 71.0529583,34.7063144 71.0529583,35.1667712 L71.0529583,36.8497261 C71.0529583,37.4859621 70.7762272,38.0319466 70.2935031,38.3506862 L68.7006287,39.4003886 C67.6688203,40.0813775 67.0782609,41.2499235 67.0782609,42.6106581 L67.0782609,44.1071429 L70.0801367,42.1278248 Z" id="Fill-53"></path>
            <path d="M61.9471391,36.8496718 C61.9471391,37.4858908 62.2234506,38.0321093 62.705786,38.3505917 L64.2982071,39.4005146 C65.330861,40.0812366 65.9217391,41.25 65.9217391,42.6106981 L65.9217391,44.1071429 L62.9187233,42.1276292 C61.8865303,41.4474044 61.2956522,40.2778952 61.2956522,38.9174457 L61.2956522,35.166762 C61.2956522,34.7063174 61.9471391,34.7063174 61.9471391,35.166762 L61.9471391,36.8496718 Z" id="Fill-54"></path>
            <path d="M62.9187233,46.6893275 L65.9217391,48.75 L65.9217391,47.1921958 C65.9217391,45.7744801 65.330861,44.5564098 64.2982071,43.8487172 L61.2956522,41.7857143 L61.2956522,43.3442953 C61.2956522,44.7625289 61.8865303,45.9800813 62.9187233,46.6893275" id="Fill-55"></path>
            <path d="M70.0801367,46.6893275 C71.1121755,45.9800813 71.7043478,44.7625289 71.7043478,43.3442953 L71.7043478,41.7857143 L68.7006287,43.8487172 C67.6688203,44.5564098 67.0782609,45.7744801 67.0782609,47.1921958 L67.0782609,48.75 L70.0801367,46.6893275 Z" id="Fill-56"></path>
            <path d="M62.9187233,51.3321847 L65.9217391,53.3928571 L65.9217391,51.835053 C65.9217391,50.4173373 65.330861,49.199267 64.2982071,48.4915744 L61.2956522,46.4285714 L61.2956522,47.9871524 C61.2956522,49.405386 61.8865303,50.6231974 62.9187233,51.3321847" id="Fill-57"></path>
            <path d="M70.0801367,51.3321847 C71.1121755,50.6231974 71.7043478,49.405386 71.7043478,47.9871524 L71.7043478,46.4285714 L68.7006287,48.4915744 C67.6688203,49.199267 67.0782609,50.4173373 67.0782609,51.835053 L67.0782609,53.3928571 L70.0801367,51.3321847 Z" id="Fill-58"></path>
            <path d="M67.0782609,40.408973 L67.0782609,32.8477783 C67.0782609,32.3840739 65.9217391,32.3840739 65.9217391,32.8477783 L65.9217391,40.4084707 L66.5,40.625 L67.0782609,40.408973 Z" id="Fill-59"></path>
            <path d="M75.2317391,41.7857143 L75.2317391,38.5421909 C75.2317391,38.3764972 75.2028719,38.3035714 75.1695494,38.3035714 C75.1401328,38.3035714 75.116087,38.4107698 75.116087,38.5421909 L75.116087,41.4875688 L75.2317391,41.7857143 Z" id="Fill-60"></path>
            <path d="M78.5856522,41.7857143 L78.7013043,41.4874215 L78.7013043,38.543133 C78.7013043,38.2237176 78.5856522,38.2237176 78.5856522,38.543133 L78.5856522,41.7857143 Z" id="Fill-61"></path>
            <path d="M79.738524,44.0307329 C80.5126052,43.6056019 80.9565217,42.8745529 80.9565217,42.0242909 L80.9565217,39.6801562 C80.9565217,39.3923289 80.4679814,39.3923289 80.4679814,39.6801562 L80.4679814,40.7319669 C80.4679814,41.129498 80.2603388,41.4709017 79.8984475,41.6698991 L78.7036645,42.3260342 C77.9298413,42.7516291 77.4869565,43.4819823 77.4869565,44.3324762 L77.4869565,45.2678571 L79.738524,44.0307329 Z" id="Fill-62"></path>
            <path d="M73.3497042,40.7319669 C73.3497042,41.129498 73.5568463,41.4709017 73.9187645,41.6698991 L75.1128625,42.3262661 C75.8872591,42.7516291 76.3304348,43.4819823 76.3304348,44.3324762 L76.3304348,45.2678571 L74.0781839,44.0307329 C73.3040453,43.6056019 72.8608696,42.8745529 72.8608696,42.0242909 L72.8608696,39.6801562 C72.8608696,39.3923289 73.3497042,39.3923289 73.3497042,39.6801562 L73.3497042,40.7319669 Z" id="Fill-63"></path>
            <path d="M74.0782744,47.376209 L76.3304348,48.75 L76.3304348,47.7114119 C76.3304348,46.7663509 75.8874841,45.9542374 75.1130299,45.4824798 L72.8608696,44.1071429 L72.8608696,45.1462462 C72.8608696,46.0918226 73.3040782,46.9034208 74.0782744,47.376209" id="Fill-64"></path>
            <path d="M79.738524,47.376209 C80.5126052,46.9034208 80.9565217,46.0918226 80.9565217,45.1462462 L80.9565217,44.1071429 L78.7036645,45.4824798 C77.9298413,45.9542374 77.4869565,46.7663509 77.4869565,47.7114119 L77.4869565,48.75 L79.738524,47.376209 Z" id="Fill-65"></path>
            <path d="M74.0782744,50.8583518 L76.3304348,52.2321429 L76.3304348,51.1935548 C76.3304348,50.2484937 75.8874841,49.4363802 75.1130299,48.9646226 L72.8608696,47.5892857 L72.8608696,48.6283891 C72.8608696,49.5739654 73.3040782,50.3855637 74.0782744,50.8583518" id="Fill-66"></path>
            <path d="M79.738524,50.8583518 C80.5126052,50.3855637 80.9565217,49.5739654 80.9565217,48.6283891 L80.9565217,47.5892857 L78.7036645,48.9646226 C77.9298413,49.4363802 77.4869565,50.2484937 77.4869565,51.1935548 L77.4869565,52.2321429 L79.738524,50.8583518 Z" id="Fill-67"></path>
            <path d="M77.5447826,42.8228147 L77.5447826,38.5023284 C77.5447826,38.2373191 77.4291304,38.2373191 77.4291304,38.5023284 L77.4291304,42.8226005 L77.486987,42.9464286 L77.5447826,42.8228147 Z" id="Fill-68"></path>
            <path d="M54.4143478,41.7857143 L54.4143478,38.5421909 C54.4143478,38.3764972 54.3854806,38.3035714 54.3522191,38.3035714 C54.3228026,38.3035714 54.2986957,38.4107698 54.2986957,38.5421909 L54.2986957,41.4875688 L54.4143478,41.7857143 Z" id="Fill-69"></path>
            <path d="M57.7682609,41.7857143 L57.883913,41.4874215 L57.883913,38.543133 C57.883913,38.2237176 57.7682609,38.2237176 57.7682609,38.543133 L57.7682609,41.7857143 Z" id="Fill-70"></path>
            <path d="M58.9211327,44.0307329 C59.6952139,43.6056019 60.1391304,42.8745529 60.1391304,42.0242909 L60.1391304,39.6801562 C60.1391304,39.3923289 59.6505901,39.3923289 59.6505901,39.6801562 L59.6505901,40.7319669 C59.6505901,41.129498 59.4432055,41.4709017 59.0810562,41.6698991 L57.8865311,42.3260342 C57.112708,42.7516291 56.6695652,43.4819823 56.6695652,44.3324762 L56.6695652,45.2678571 L58.9211327,44.0307329 Z" id="Fill-71"></path>
            <path d="M53.688613,40.7319669 C53.688613,41.129498 53.8957705,41.4709017 54.2577156,41.6698991 L55.4519024,42.3262661 C56.2263566,42.7516291 56.6695652,43.4819823 56.6695652,44.3324762 L56.6695652,45.2678571 L54.4174049,44.0307329 C53.6432086,43.6056019 53.2,42.8745529 53.2,42.0242909 L53.2,39.6801562 C53.2,39.3923289 53.688613,39.3923289 53.688613,39.6801562 L53.688613,40.7319669 Z" id="Fill-72"></path>
            <path d="M54.4174049,47.376209 L56.6695652,48.75 L56.6695652,47.7114119 C56.6695652,46.7663509 56.2263566,45.9542374 55.4519024,45.4824798 L53.2,44.1071429 L53.2,45.1462462 C53.2,46.0918226 53.6432086,46.9034208 54.4174049,47.376209" id="Fill-73"></path>
            <path d="M58.9211327,47.376209 C59.6952139,46.9034208 60.1391304,46.0918226 60.1391304,45.1462462 L60.1391304,44.1071429 L57.8865311,45.4824798 C57.112708,45.9542374 56.6695652,46.7663509 56.6695652,47.7114119 L56.6695652,48.75 L58.9211327,47.376209 Z" id="Fill-74"></path>
            <path d="M54.4174049,50.8583518 L56.6695652,52.2321429 L56.6695652,51.1935548 C56.6695652,50.2484937 56.2263566,49.4363802 55.4519024,48.9646226 L53.2,47.5892857 L53.2,48.6283891 C53.2,49.5739654 53.6432086,50.3855637 54.4174049,50.8583518" id="Fill-75"></path>
            <path d="M58.9211327,50.8583518 C59.6952139,50.3855637 60.1391304,49.5739654 60.1391304,48.6283891 L60.1391304,47.5892857 L57.8865311,48.9646226 C57.112708,49.4363802 56.6695652,50.2484937 56.6695652,51.1935548 L56.6695652,52.2321429 L58.9211327,50.8583518 Z" id="Fill-76"></path>
            <path d="M56.7273913,42.8228147 L56.7273913,38.5023284 C56.7273913,38.2373191 56.6117391,38.2373191 56.6117391,38.5023284 L56.6117391,42.8226005 L56.6695652,42.9464286 L56.7273913,42.8228147 Z" id="Fill-77"></path>
            <path d="M114.229993,100.840411 L117.601098,103.408103 C117.839582,103.254141 118.07736,103.099942 118.31325,102.944079 L114.724182,100.210546 C114.561418,100.422243 114.395352,100.63109 114.229993,100.840411 L114.229993,100.840411 Z M97.4966603,115.392407 L100.672448,120.720005 C100.894185,120.564142 101.109081,120.399014 101.319966,120.228896 L98.190177,114.978754 C97.9599484,115.117984 97.7292479,115.256265 97.4966603,115.392407 L97.4966603,115.392407 Z M116.12419,98.3038441 L120.577086,101.32962 C120.796936,101.156888 121.011124,100.980355 121.22201,100.80097 L116.582524,97.6485564 C116.431555,97.8685696 116.27799,98.0862069 116.12419,98.3038441 L116.12419,98.3038441 Z M119.486803,92.9560504 L124.8993,95.8361799 C124.995071,95.5852793 125.083766,95.3310524 125.163968,95.0732616 L119.865878,92.254194 C119.739913,92.4887005 119.615834,92.7239198 119.486803,92.9560504 L119.486803,92.9560504 Z M117.878504,95.6739024 L123.153713,98.856253 C123.323082,98.6485948 123.484195,98.4349967 123.638467,98.2161715 L118.297209,94.9939048 C118.158742,95.2212834 118.019802,95.4484245 117.878504,95.6739024 L117.878504,95.6739024 Z M100.21718,113.702392 L103.304037,118.287267 C103.486616,118.07652 103.665185,117.860546 103.841159,117.641483 L100.884985,113.250248 C100.662541,113.401359 100.441512,113.55437 100.21718,113.702392 L100.21718,113.702392 Z M110.040821,105.60372 L111.855524,107.326523 C112.062399,107.15498 112.273285,106.986762 112.488417,106.821158 L110.596342,105.024463 C110.411641,105.218341 110.228118,105.412456 110.040821,105.60372 L110.040821,105.60372 Z M111.10728,25.5056118 L113.127914,23.6497554 C112.90665,23.4893786 112.688215,23.3268634 112.473791,23.1617347 L110.554118,24.9246914 C110.73882,25.118094 110.925173,25.3098333 111.10728,25.5056118 L111.10728,25.5056118 Z M112.200867,103.276475 L114.608125,105.325259 C114.840004,105.17201 115.074243,105.020662 115.30919,104.869313 L112.725486,102.670369 C112.551635,102.873276 112.377312,103.075945 112.200867,103.276475 L112.200867,103.276475 Z M105.350384,109.904194 L107.481886,112.423417 C107.638517,112.192949 107.796092,111.964383 107.954846,111.737242 L105.970067,109.391464 C105.765786,109.564908 105.557259,109.733838 105.350384,109.904194 L105.350384,109.904194 Z M102.835796,111.869345 L105.496164,115.386942 C105.655861,115.153148 105.815087,114.918404 105.973133,114.682472 L103.480719,111.386313 C103.266767,111.548591 103.051871,111.709681 102.835796,111.869345 L102.835796,111.869345 Z M107.754103,107.814069 L109.512192,109.675865 C109.685099,109.467732 109.860366,109.262687 110.039406,109.063345 L108.342885,107.267125 C108.14804,107.450548 107.951307,107.632784 107.754103,107.814069 L107.754103,107.814069 Z M120.939414,90.1564656 L125.753694,92.395088 C125.794031,92.1209031 125.831301,91.8452926 125.863382,91.5670686 L121.282869,89.4372648 C121.17035,89.6779488 121.055707,89.9174448 120.939414,90.1564656 L120.939414,90.1564656 Z M79.5543913,122.358462 L80.112743,125.040674 C80.3677402,124.934707 80.6229732,124.833491 80.8784421,124.737028 L80.3474536,122.186205 C80.0842003,122.246317 79.8190599,122.301914 79.5543913,122.358462 L79.5543913,122.358462 Z M82.6976262,121.598395 L83.3371241,123.994305 C83.6001415,123.935857 83.8659896,123.88311 84.1337248,123.835116 L83.478894,121.38147 C83.2189432,121.4556 82.9587565,121.527829 82.6976262,121.598395 L82.6976262,121.598395 Z M122.237516,87.2853647 L126.089129,88.8309217 C126.106113,88.5517473 126.121682,88.2720977 126.137487,87.9922105 L122.544881,86.550245 C122.4451,86.7968689 122.340365,87.0406416 122.237516,87.2853647 L122.237516,87.2853647 Z M86.1791275,9.44963803 C86.435304,9.53564751 86.6905371,9.62379535 86.9450624,9.71313116 L88.0259107,6.59041687 C87.746381,6.57235963 87.467323,6.55263923 87.1892087,6.53078046 L86.1791275,9.44963803 Z M108.856417,23.2170944 L110.555062,21.4774221 C110.368001,21.2866331 110.184243,21.0915674 110.00473,20.8907994 L108.275184,22.6623095 C108.470265,22.8457331 108.663695,23.0310574 108.856417,23.2170944 L108.856417,23.2170944 Z M69.9230005,123.635299 L70.1449731,129.454957 C70.4138877,129.378451 70.681387,129.294342 70.9481787,129.205244 L70.7335187,123.585166 C70.4636605,123.602986 70.1938023,123.62128 69.9230005,123.635299 L69.9230005,123.635299 Z M73.1579967,123.378221 L73.6066595,128.142718 C73.8677898,128.024158 74.1282125,127.902747 74.3881633,127.779197 L73.9654483,123.288172 C73.6967695,123.32001 73.427619,123.349947 73.1579967,123.378221 L73.1579967,123.378221 Z M83.0512254,8.48904046 C83.3121198,8.56126942 83.5704194,8.63896306 83.8298984,8.71451835 L84.538748,6.22760893 C84.2695975,6.184129 84.0016264,6.13779793 83.736486,6.08481419 L83.0512254,8.48904046 Z M124.354394,81.3599769 L126.73476,82.0304707 C126.786656,81.7688783 126.843741,81.5098995 126.906724,81.253059 L124.574007,80.595633 C124.502061,80.8508103 124.429643,81.10575 124.354394,81.3599769 L124.354394,81.3599769 Z M125.166327,78.3225593 L127.604487,78.8706915 C127.699315,78.6409369 127.810419,78.3905115 127.931195,78.129632 L125.340886,77.547286 C125.283093,77.8057896 125.227659,78.0652437 125.166327,78.3225593 L125.166327,78.3225593 Z M123.377101,84.3503506 L126.304497,85.3465875 C126.325727,85.0738282 126.34908,84.801544 126.375736,84.5304478 L123.641062,83.5997873 C123.555198,83.8509254 123.466268,84.100638 123.377101,84.3503506 L123.377101,84.3503506 Z M91.7940183,118.339301 L93.9132545,122.994979 C94.1941996,122.961479 94.4742011,122.925364 94.7516078,122.883785 L92.5302312,118.003341 C92.286085,118.117624 92.0400516,118.228581 91.7940183,118.339301 L91.7940183,118.339301 Z M125.807241,75.2454633 L129.102153,75.8040497 C129.252415,75.521549 129.388995,75.2689852 129.499863,75.0660789 L125.940047,74.4623494 C125.896643,74.7239417 125.853947,74.9855341 125.807241,75.2454633 L125.807241,75.2454633 Z M89.2454622,10.5744139 C89.4959775,10.6739663 89.7481439,10.7718556 89.9972438,10.8744967 L91.6656941,6.79926309 C91.3821543,6.78049306 91.0976709,6.76314861 90.8127157,6.74699214 L89.2454622,10.5744139 Z M113.222742,27.9112637 L116.040685,25.5920965 C115.803144,25.4412235 115.566546,25.2901129 115.330656,25.1385272 L112.704728,27.2996935 C112.878579,27.5025998 113.051722,27.7059814 113.222742,27.9112637 L113.222742,27.9112637 Z M117.041566,33.0271644 L121.926142,29.824143 C121.72705,29.6359675 121.523005,29.4508808 121.313299,29.2703085 L116.595026,32.3640361 C116.74576,32.5838117 116.894135,32.8052505 117.041566,33.0271644 L117.041566,33.0271644 Z M95.3491173,7.20792691 C95.0738336,7.15921988 94.7954833,7.11645274 94.5157177,7.07701193 L92.2415018,11.8588538 C92.4863556,11.9717115 92.7307377,12.0855197 92.9741762,12.2017037 L95.3491173,7.20792691 Z M115.202567,30.4207446 L119.079185,27.5677009 C118.846597,27.4075617 118.612358,27.2488481 118.37576,27.0917977 L114.722059,29.780663 C114.884352,29.9923604 115.04287,30.2069089 115.202567,30.4207446 L115.202567,30.4207446 Z M121.651801,41.3620056 L125.965759,39.4408105 C125.941226,39.1609233 125.913391,38.8824616 125.882725,38.6054256 L121.321319,40.6366273 C121.433603,40.8773113 121.542584,41.1196584 121.651801,41.3620056 L121.651801,41.3620056 Z M118.735021,35.7236329 L124.151057,32.5757335 C124.134308,32.5469845 124.119683,32.5175226 124.102699,32.4890112 C123.983575,32.287768 123.855722,32.0927024 123.72386,31.9004878 L118.321742,35.0400714 C118.459973,35.2676876 118.59962,35.4941159 118.735021,35.7236329 L118.735021,35.7236329 Z M122.872532,44.2841895 L126.194572,43.0135301 C126.178296,42.7355437 126.162727,42.4570821 126.147394,42.1790956 L122.583803,43.5421796 C122.682641,43.7880906 122.776761,44.0366153 122.872532,44.2841895 L122.872532,44.2841895 Z M120.271373,38.505398 L125.425099,35.8704667 C125.361172,35.6048352 125.289698,35.3427677 125.212562,35.0833137 L119.898431,37.8002153 C120.023924,38.0347218 120.149182,38.2692283 120.271373,38.505398 L120.271373,38.505398 Z M85.7915601,120.674624 L86.7171927,123.50272 C86.9934199,123.478248 87.2703548,123.455677 87.5484692,123.435956 L86.5589104,120.413745 C86.3034415,120.501417 86.0486803,120.590278 85.7915601,120.674624 L85.7915601,120.674624 Z M66.5648698,130 C66.8373228,129.998337 67.1078887,129.985269 67.377511,129.964598 L67.4876716,123.713467 C67.2168699,123.717031 66.9467758,123.723446 66.6752663,123.723684 L66.5648698,130 Z M59.6813622,1.71733842 L60.2312219,6.60229663 C60.5001366,6.57449799 60.7699948,6.55002568 61.039853,6.52555337 L60.4609788,1.38304191 C60.2003203,1.49091015 59.9406054,1.60210473 59.6813622,1.71733842 L59.6813622,1.71733842 Z M32.8158444,113.541777 L29.5195168,118.089588 C29.6978497,118.300573 29.879485,118.507993 30.0651305,118.709949 L33.4909617,113.983705 C33.2652149,113.837346 33.039704,113.690987 32.8158444,113.541777 L32.8158444,113.541777 Z M38.9338887,12.8738607 L36.0317334,7.56740851 C35.7651777,7.64035025 35.5021603,7.72065744 35.2424453,7.80809249 L38.2156035,13.2442717 C38.4538525,13.119059 38.6937526,12.9962222 38.9338887,12.8738607 L38.9338887,12.8738607 Z M23.0674521,24.5564188 L21.0680481,22.7245595 C20.8597572,22.8956281 20.6465126,23.0628951 20.4299655,23.2282614 L22.5140541,25.1373392 C22.6978124,24.9432239 22.881099,24.7483958 23.0674521,24.5564188 L23.0674521,24.5564188 Z M125.539977,53.3650797 L128.422554,52.7656269 C128.304373,52.5190031 128.188787,52.2723792 128.077446,52.0257553 L125.372259,52.5883809 C125.429345,52.8466469 125.486666,53.1051505 125.539977,53.3650797 L125.539977,53.3650797 Z M95.8697266,13.6826349 L98.8417054,8.2322 C98.5942567,8.12171822 98.3418543,8.02192821 98.0868572,7.92807809 L95.1592258,13.2979682 C95.3977106,13.4238937 95.6333648,13.5538583 95.8697266,13.6826349 L95.8697266,13.6826349 Z M94.686738,116.939627 L97.4799121,122.273403 C97.7408065,122.191432 97.9979267,122.102097 98.2517443,122.004682 L95.403372,116.566127 C95.1660666,116.693003 94.9261664,116.81584 94.686738,116.939627 L94.686738,116.939627 Z M98.6768182,15.3120631 L101.838453,10.2047157 C101.635351,10.0229554 101.426824,9.84879804 101.21358,9.68034301 L97.9880193,14.8917571 C98.2187197,15.0300375 98.4480049,15.1709315 98.6768182,15.3120631 L98.6768182,15.3120631 Z M103.990713,18.9995413 L106.389243,15.9352754 C106.232612,15.6995809 106.075981,15.4643616 105.918643,15.2296175 L103.350744,18.5103327 C103.564932,18.6723726 103.778412,18.8351253 103.990713,18.9995413 L103.990713,18.9995413 Z M101.387903,17.084286 L104.289586,12.9254189 C104.119038,12.7011289 103.945422,12.4799278 103.768977,12.2625281 L100.720334,16.6319047 C100.943014,16.7823024 101.167109,16.9310371 101.387903,17.084286 L101.387903,17.084286 Z M126.277369,72.1389055 L130.757629,72.6544872 C130.882887,72.4031114 131.005078,72.1505477 131.125146,71.8977463 L126.369838,71.3503269 C126.340824,71.6135824 126.310158,71.8766003 126.277369,72.1389055 L126.277369,72.1389055 Z M126.578365,69.0116769 L132.187359,69.35619 C132.277941,69.0972112 132.361917,68.8375196 132.439997,68.5764024 L126.629553,68.2195343 C126.614928,68.4842155 126.596529,68.7481838 126.578365,69.0116769 L126.578365,69.0116769 Z M106.481712,21.0461867 L108.388647,18.8667255 C108.227535,18.644574 108.068545,18.4193337 107.910262,18.1924302 L105.872644,20.5213388 C106.077633,20.6940705 106.279319,20.8706038 106.481712,21.0461867 L106.481712,21.0461867 Z M126.087714,56.4671232 L130.006319,55.8681456 C129.877052,55.6198586 129.747312,55.3718091 129.617808,55.1242349 L125.965523,55.6825837 C126.008219,55.9434633 126.048792,56.2050557 126.087714,56.4671232 L126.087714,56.4671232 Z M123.930028,47.2643466 L126.487312,46.4401287 C126.4524,46.1728341 126.421734,45.9041139 126.393663,45.6342057 L123.679512,46.509269 C123.764433,46.7604071 123.848174,47.0117829 123.930028,47.2643466 L123.930028,47.2643466 Z M124.821692,50.293686 L127.165967,49.6740376 C127.110769,49.4986923 127.058637,49.3228718 127.010516,49.1470514 C126.98905,49.0681697 126.970179,48.9883377 126.949656,48.9092185 L124.609863,49.5276789 C124.680866,49.7828562 124.753992,50.0370831 124.821692,50.293686 L124.821692,50.293686 Z M126.709284,65.8723309 L132.959427,65.9229387 C132.982072,65.6599208 132.996933,65.3954773 133,65.1296082 L126.719663,65.0787628 C126.719192,65.3441567 126.71353,65.608125 126.709284,65.8723309 L126.709284,65.8723309 Z M126.464902,59.5917383 L131.575932,59.0873236 C131.465063,58.8319087 131.351129,58.5772066 131.232948,58.3232173 L126.388238,58.8014965 C126.416309,59.0642768 126.440605,59.3280075 126.464902,59.5917383 L126.464902,59.5917383 Z M126.672014,62.7298962 L132.711978,62.4568993 C132.653713,62.1938814 132.586249,61.9320514 132.513123,61.6714094 L126.640168,61.9365657 C126.654086,62.2002964 126.661634,62.4652151 126.672014,62.7298962 L126.672014,62.7298962 Z M76.3715268,122.95245 L76.9114792,126.535386 C77.1664763,126.408273 77.4210017,126.282347 77.675527,126.157847 L77.1728453,122.822723 C76.9067614,122.868816 76.6390261,122.90992 76.3715268,122.95245 L76.3715268,122.95245 Z M9.45636034,83.0777905 L6.55420505,83.9573681 C6.58534254,84.2246628 6.61199811,84.4936206 6.63700246,84.7635288 L9.70711146,83.8328682 C9.62053982,83.5824428 9.53962953,83.3296415 9.45636034,83.0777905 L9.45636034,83.0777905 Z M8.52152807,79.9622041 L5.90975343,80.6037112 C5.93334244,80.6849688 5.95858267,80.7659888 5.98099223,80.8472464 C6.02840613,81.0206909 6.07275346,81.1957986 6.114506,81.3718567 L8.73359323,80.7284487 C8.66117498,80.473509 8.59040797,80.2183318 8.52152807,79.9622041 L8.52152807,79.9622041 Z M6.80259727,70.3671578 L1.3726442,70.8078969 C1.48304075,71.064975 1.59673975,71.3213403 1.71492067,71.5767551 L6.87831798,71.1576371 C6.85048295,70.8950944 6.82689395,70.6311261 6.80259727,70.3671578 L6.80259727,70.3671578 Z M10.5643359,86.1365917 L6.82618628,87.4918349 C6.84151913,87.7686334 6.85685199,88.0451943 6.87242073,88.3217551 L10.8617933,86.8755129 C10.7608323,86.6298394 10.6619944,86.3836907 10.5643359,86.1365917 L10.5643359,86.1365917 Z M7.76408512,76.7986234 L4.64656221,77.3904732 C4.76403546,77.638285 4.87726268,77.8860968 4.98718745,78.1341463 L7.93604897,77.5743719 C7.8782559,77.3161059 7.81833983,77.058315 7.76408512,76.7986234 L7.76408512,76.7986234 Z M6.59312691,67.1206563 L0.229992799,67.2971896 C0.283539841,67.5613955 0.343220023,67.8246511 0.412335808,68.086481 L6.62402851,67.9139869 C6.61081866,67.6504937 6.6027984,67.3850999 6.59312691,67.1206563 L6.59312691,67.1206563 Z M7.19299531,73.5965523 L3.00405979,74.1622666 C3.1342711,74.4122168 3.2647183,74.6614542 3.39492961,74.9106916 L7.31707347,74.3810918 C7.27390559,74.1199746 7.23238895,73.8586199 7.19299531,73.5965523 L7.19299531,73.5965523 Z M18.5763415,100.248324 L14.7282671,102.976392 C14.9667519,103.133918 15.2073598,103.290493 15.4489112,103.445643 L19.0702952,100.878189 C18.9049363,100.668867 18.7388697,100.459783 18.5763415,100.248324 L18.5763415,100.248324 Z M20.6349539,102.773961 L17.8545179,104.980508 C18.0913515,105.133282 18.3265339,105.287719 18.5600651,105.442868 L21.1591016,103.379829 C20.9821841,103.180011 20.8090408,102.976155 20.6349539,102.773961 L20.6349539,102.773961 Z M11.8416805,89.1293414 L7.08259876,91.1493761 C7.11114146,91.4256994 7.14322251,91.7005971 7.1788419,91.9740692 L12.1844288,89.849255 C12.0697862,89.6095214 11.9532565,89.3709757 11.8416805,89.1293414 L11.8416805,89.1293414 Z M22.8273161,105.185315 L20.757145,107.020026 C20.9703896,107.188718 21.1803317,107.360024 21.3848484,107.53537 L23.3870832,105.760771 C23.1988429,105.570219 23.0127256,105.378242 22.8273161,105.185315 L22.8273161,105.185315 Z M16.6632732,97.611254 L11.6996747,100.742046 C11.911504,100.924044 12.1282869,101.102241 12.3493159,101.277111 L17.120664,98.2677296 C16.9670995,98.0496172 16.813771,97.8315048 16.6632732,97.611254 L16.6632732,97.611254 Z M14.9007027,94.873444 L9.22872644,98.0374998 C9.37875251,98.259889 9.53727063,98.4761007 9.70286544,98.6870852 L15.3168128,95.5555799 C15.1757505,95.3296268 15.0384625,95.1012978 14.9007027,94.873444 L14.9007027,94.873444 Z M13.2912249,92.0439222 L7.73483475,94.762487 C7.80890423,95.021941 7.89052219,95.2778311 7.97945274,95.5303948 L13.6703002,92.7460162 C13.5422119,92.5126976 13.4162466,92.2786663 13.2912249,92.0439222 L13.2912249,92.0439222 Z M6.56458421,63.8665519 L0.0684081146,63.700948 C0.0370347379,63.9637283 0.0125021727,64.2274591 -7.07976227e-15,64.4933281 L6.55420505,64.6605952 C6.55585628,64.3954389 6.55939463,64.1309954 6.56458421,63.8665519 L6.56458421,63.8665519 Z M15.0528518,34.8685276 L9.45636034,31.6293916 C9.29925757,31.8444153 9.15206218,32.0670421 9.01099993,32.2939455 L14.6398083,35.5518515 C14.775681,35.3230473 14.9139125,35.0956686 15.0528518,34.8685276 L15.0528518,34.8685276 Z M35.5788245,115.279549 L32.1525215,120.598119 C32.3695404,120.756595 32.5910411,120.909368 32.8196186,121.052638 L36.2782385,115.683936 C36.0444715,115.549695 35.8104686,115.416642 35.5788245,115.279549 L35.5788245,115.279549 Z M18.755382,29.5171699 L15.0563901,26.8021691 C14.8176694,26.9577939 14.5805999,27.1146068 14.3454175,27.2728452 L18.268505,30.152262 C18.4291461,29.9393767 18.5916743,29.7279169 18.755382,29.5171699 L18.755382,29.5171699 Z M13.1761105,38.1634984 L7.68364661,35.4145215 C7.61240782,35.6763514 7.54777394,35.9415077 7.48927321,36.20904 L12.8121322,38.8729578 C12.9329079,38.6360754 13.0522683,38.3984801 13.1761105,38.1634984 L13.1761105,38.1634984 Z M20.843009,26.9791775 L18.1857075,24.7978156 C17.9517046,24.9510645 17.7162863,25.1033631 17.4796886,25.2549488 L20.3186254,27.5855206 C20.4912969,27.3816639 20.6677427,27.1808959 20.843009,26.9791775 L20.843009,26.9791775 Z M16.8111762,32.1625554 L11.9874606,29.0082409 C11.7728006,29.1857245 11.5638021,29.3677225 11.3590495,29.5525716 L16.3646364,32.8256837 C16.5132471,32.6044825 16.6597348,32.3818558 16.8111762,32.1625554 L16.8111762,32.1625554 Z M7.57560897,54.1569847 L4.19742756,53.5235557 C4.07429295,53.7694668 3.94856355,54.0153779 3.82165471,54.261289 L7.43124426,54.9381978 C7.47747871,54.6770806 7.52583617,54.4166763 7.57560897,54.1569847 L7.57560897,54.1569847 Z M7.05311251,57.3742619 L2.51883396,56.7719579 C2.39145333,57.0219081 2.26595982,57.2723335 2.14258933,57.5232341 L6.95734115,58.1626029 C6.98847863,57.8995849 7.01843667,57.6363294 7.05311251,57.3742619 L7.05311251,57.3742619 Z M6.71626152,60.6143482 L0.978236039,60.1614917 C0.880813448,60.4188073 0.788108658,60.6768357 0.70224468,60.9360522 L6.66483748,61.4067283 C6.68134979,61.1422848 6.69644675,60.8778413 6.71626152,60.6143482 L6.71626152,60.6143482 Z M10.2215877,44.7384716 L6.76768555,43.4951357 C6.75070146,43.7707462 6.73277382,44.0461191 6.71248727,44.3210168 L9.95007822,45.486659 C10.0401882,45.2369464 10.1284111,44.986521 10.2215877,44.7384716 L10.2215877,44.7384716 Z M11.6149902,41.3707966 L7.02928761,39.40232 C7.00475505,39.6807817 6.98281727,39.9604313 6.96276662,40.2407936 L11.2894619,42.0980757 C11.3953766,41.8540653 11.506009,41.6129062 11.6149902,41.3707966 L11.6149902,41.3707966 Z M9.16126189,47.8288729 L6.42470141,47.0060806 C6.38436421,47.2712369 6.33883743,47.5342548 6.28930052,47.7958472 L8.92961786,48.5896529 C9.00533856,48.335426 9.08223872,48.0819119 9.16126189,47.8288729 L9.16126189,47.8288729 Z M8.27879721,50.9717828 L5.60663472,50.3214846 C5.51723239,50.5714348 5.42334815,50.8211474 5.3226231,51.0703848 L8.08654682,51.743017 C8.14764234,51.484751 8.21439923,51.2286233 8.27879721,50.9717828 L8.27879721,50.9717828 Z M46.403583,123.514125 C46.6819333,123.53931 46.9588682,123.567822 47.2346237,123.599659 L48.2204082,120.910081 C47.9625804,120.829061 47.7042808,120.749229 47.4481042,120.664883 L46.403583,123.514125 Z M53.0693641,125.120982 C53.3208229,125.2279 53.5720458,125.337431 53.8232687,125.451239 L54.5384873,122.533332 C54.2726392,122.480111 54.0091501,122.421187 53.7447173,122.364639 L53.0693641,125.120982 Z M56.2644948,126.627098 C56.5159536,126.752548 56.7676483,126.878474 57.0198148,127.003924 L57.7522534,123.08384 C57.4838105,123.044874 57.216783,123.00282 56.9495195,122.960766 L56.2644948,126.627098 Z M88.8267574,119.586676 L90.2656867,123.27748 C90.5496983,123.262036 90.8330023,123.246118 91.1160703,123.229011 L89.5787749,119.286593 C89.3287314,119.387571 89.078688,119.488786 88.8267574,119.586676 L88.8267574,119.586676 Z M42.7741787,123.279856 C43.061021,123.2953 43.3483351,123.310506 43.6354133,123.32595 L45.1337869,119.847555 C44.8809128,119.752755 44.6278027,119.657954 44.3765798,119.559827 L42.7741787,123.279856 Z M59.5523303,128.218273 C59.8099223,128.333982 60.067986,128.446602 60.3269933,128.555421 L60.9877213,123.463755 C60.7176272,123.439283 60.4480049,123.41386 60.1793261,123.386061 L59.5523303,128.218273 Z M49.832009,124.034459 C49.9815633,124.069385 50.1308817,124.105024 50.2790207,124.143752 C50.392012,124.173214 50.5045316,124.206002 50.617287,124.238315 L51.3584536,121.806053 C51.0963797,121.739051 50.8352494,121.669436 50.574355,121.59887 L49.832009,124.034459 Z M79.8695404,7.70260021 C80.1339731,7.76057345 80.3974623,7.82092264 80.6604797,7.88245981 L81.2242569,5.38604658 C80.968788,5.29409722 80.713555,5.19549519 80.4585578,5.09380443 L79.8695404,7.70260021 Z M63.1883396,0.446441463 L63.5214163,6.34783213 C63.7910387,6.3342892 64.0625481,6.32692374 64.333114,6.31718234 L63.9910734,0.259216411 C63.7223947,0.314338507 63.4546594,0.376588461 63.1883396,0.446441463 L63.1883396,0.446441463 Z M76.645867,7.08580295 C76.9131304,7.12975807 77.1806297,7.17276281 77.4462419,7.22004427 L77.9892608,3.98874895 C77.7359149,3.86614981 77.482569,3.74212509 77.2289872,3.6164372 L76.645867,7.08580295 Z M70.1102972,6.37016608 C70.3808631,6.38537217 70.6511931,6.40176625 70.9208154,6.42029868 L71.2260572,0.881953545 C70.9609167,0.7892914 70.694361,0.703994707 70.4273334,0.623212324 L70.1102972,6.37016608 Z M73.3896407,6.64149985 C73.6587912,6.67096166 73.9284136,6.6987603 74.1966206,6.73154844 L74.6834976,2.35623203 C74.425198,2.23173212 74.1664266,2.10937057 73.9071835,1.98890979 L73.3896407,6.64149985 Z M62.9939662,129.49511 C63.2595784,129.567814 63.5258982,129.635529 63.7936335,129.694215 L64.2359273,123.673314 C63.9651255,123.66286 63.693852,123.654069 63.4242296,123.640288 L62.9939662,129.49511 Z M66.8137338,0 L66.8179798,6.27227684 C67.0890175,6.27298962 67.3593475,6.27797912 67.6296775,6.28225584 L67.6259032,0.0491822154 C67.3565168,0.0228091434 67.0859509,0.0076030478 66.8137338,0 L66.8137338,0 Z M39.0296601,122.98904 C39.3136717,123.023016 39.5990987,123.054378 39.8866486,123.081464 L42.1075534,118.621564 C41.8603407,118.513458 41.615015,118.401788 41.3694535,118.290356 L39.0296601,122.98904 Z M51.2813175,8.20820288 L50.5816676,5.76572378 C50.4807067,5.79423521 50.3799816,5.82393461 50.2790207,5.85030769 C50.1190872,5.89212445 49.9579743,5.93109007 49.7961538,5.96839252 L50.497219,8.41562353 C50.7578775,8.34482015 51.0192437,8.27567993 51.2813175,8.20820288 L51.2813175,8.20820288 Z M33.2203958,16.1842752 L29.9108584,11.4544667 C29.7263924,11.6602242 29.5454647,11.8702584 29.3678395,12.0848069 L32.5497604,16.6323798 C32.7726765,16.4822197 32.9953567,16.3315843 33.2203958,16.1842752 L33.2203958,16.1842752 Z M27.5932386,109.634048 L25.3176073,112.142579 C25.4732948,112.369483 25.6280386,112.597574 25.7818389,112.827091 L28.2133936,110.146541 C28.0053386,109.977136 27.7989348,109.80583 27.5932386,109.634048 L27.5932386,109.634048 Z M30.151938,111.657172 L27.3255034,115.13818 C27.4828421,115.370073 27.6415961,115.600303 27.8012937,115.829107 L30.7987485,112.137827 C30.5814938,111.979826 30.3670697,111.818262 30.151938,111.657172 L30.151938,111.657172 Z M25.1472947,107.476446 L23.2257344,109.375545 C23.4005289,109.577738 23.5715492,109.784921 23.7404465,109.995431 L25.74103,108.018163 C25.5428823,107.837828 25.3430835,107.658919 25.1472947,107.476446 L25.1472947,107.476446 Z M27.9116902,20.0967561 L25.5905321,17.4508955 C25.4350806,17.6806501 25.2786855,17.9087415 25.1211109,18.1354074 L27.2917712,20.6097242 C27.4962878,20.4365173 27.7045788,20.2673495 27.9116902,20.0967561 L27.9116902,20.0967561 Z M25.4272962,22.2612488 L23.5005463,20.2925346 C23.3285824,20.5004304 23.1537879,20.7049999 22.9752191,20.9041047 L24.8408735,22.8100938 C25.0352469,22.6259575 25.2305639,22.4427715 25.4272962,22.2612488 L25.4272962,22.2612488 Z M36.0319693,14.4524435 L32.670772,9.03812307 C32.4443175,9.18519453 32.2232886,9.33963143 32.0081568,9.5014338 L35.3346783,14.8601569 C35.5656147,14.7221141 35.7989099,14.5876352 36.0319693,14.4524435 L36.0319693,14.4524435 Z M48.1034067,9.12104381 L47.1586671,6.40342941 C46.8838552,6.43431679 46.607392,6.46164025 46.3302212,6.48635015 L47.3313386,9.36695489 C47.5872793,9.28213339 47.8458148,9.20277657 48.1034067,9.12104381 L48.1034067,9.12104381 Z M30.5107268,18.0676927 L27.6352271,14.4034989 C27.4755295,14.634679 27.3170114,14.86776 27.1594368,15.1015537 L29.8662752,18.5507238 C30.0802274,18.3886839 30.2944156,18.2268815 30.5107268,18.0676927 L30.5107268,18.0676927 Z M44.979043,10.2040029 L43.5283192,6.6738128 C43.2428923,6.6890189 42.9572294,6.70422499 42.6720383,6.71943109 L44.2237231,10.4950571 C44.474946,10.3964551 44.7264048,10.2992786 44.979043,10.2040029 L44.979043,10.2040029 Z M38.4340377,116.862409 L35.3799692,122.230636 C35.6418072,122.315932 35.9067117,122.395289 36.1751546,122.466092 L39.1523229,117.232582 C38.911715,117.111408 38.6727584,116.986671 38.4340377,116.862409 L38.4340377,116.862409 Z M41.9181337,11.4535163 L39.7573809,6.92518857 C39.4719539,6.95322481 39.1881782,6.98482497 38.9062896,7.01975148 L41.1823927,11.7890008 C41.4274824,11.6768558 41.6713927,11.5625725 41.9181337,11.4535163 L41.9181337,11.4535163 Z M54.5028679,7.4680937 L53.8367144,4.53640599 C53.584548,4.6506893 53.3323815,4.76117109 53.080215,4.86832654 L53.7093338,7.63702392 C53.9735307,7.58023866 54.2370198,7.52131503 54.5028679,7.4680937 L54.5028679,7.4680937 Z M56.3310158,3.33369886 L56.9575398,7.03210643 C57.2243314,6.98981447 57.491359,6.94799771 57.759566,6.90903209 L57.0898741,2.95497205 C56.8365282,3.08113512 56.5836541,3.20753579 56.3310158,3.33369886 L56.3310158,3.33369886 Z" id="Fill-78"></path>
        </g>
    </g>
</svg>