<?xml version="1.0" encoding="UTF-8"?>
<svg width="130px" height="85px" viewBox="0 0 130 85" version="1.1" xmlns="http://www.w3.org/2000/svg" xmlns:xlink="http://www.w3.org/1999/xlink">
    <!-- Generator: Sketch 64 (93537) - https://sketch.com -->
    <title>FSC</title>
    <desc>Created with Sketch.</desc>
    <g id="FSC" stroke="none" stroke-width="1" fill="none" fill-rule="evenodd">
        <g transform="translate(36.000000, 10.000000)" fill="#FFFFFF" id="Group-6">
            <g>
                <path d="M17.1474112,62.7334774 C17.1474112,64.4444221 17.1474112,64.7404391 18.5035794,64.761503 C18.9387196,64.761503 19.4248879,64.8036306 19.4248879,65.2260306 C19.4248879,65.6697753 18.9642336,65.6697753 18.7082523,65.6697753 C18.1197477,65.6697753 17.4547009,65.606303 14.6910561,65.606303 C13.6674112,65.606303 12.260215,65.6697753 11.2368505,65.6697753 C10.9808692,65.6697753 10.520215,65.6697753 10.520215,65.2260306 C10.520215,64.782286 11.0576916,64.761503 11.4928318,64.761503 C12.7976916,64.7404391 12.823486,64.465486 12.823486,62.6916306 L12.823486,55.3830434 C12.823486,53.6931626 12.7976916,53.4184902 11.4928318,53.3763626 C11.0576916,53.3763626 10.520215,53.3552987 10.520215,52.911554 C10.520215,52.489154 10.9808692,52.4680902 11.2623645,52.4680902 C12.5675047,52.4680902 13.8978785,52.5312817 15.2282523,52.5312817 C18.1968505,52.5312817 22.2908692,52.4680902 24.1584393,52.4680902 C24.567785,52.4680902 24.567785,52.594754 24.567785,53.1016902 C24.567785,53.8411711 24.5935794,54.7070349 24.5935794,55.3195711 C24.5935794,55.9531711 24.0818972,56.0801157 23.8772243,56.0801157 C23.3142336,56.0801157 23.0837664,55.6153072 22.3929252,54.7494434 C21.7023645,53.7566349 20.9347009,53.6296902 18.4783458,53.6296902 C17.1474112,53.6296902 17.1474112,53.8830179 17.1474112,54.5803711 L17.1474112,57.4953243 C17.1474112,58.1499881 17.250028,58.1923966 18.401243,58.1923966 C19.8342336,58.1923966 20.217785,58.1923966 20.4482523,57.2206519 C20.5505888,56.7771881 20.704514,56.2702519 21.2669439,56.2702519 C21.8554486,56.2702519 21.9070374,56.6294604 21.9070374,56.9881072 C21.9070374,57.4742604 21.830215,58.1499881 21.830215,58.6990519 C21.830215,59.2905243 21.9070374,59.9033413 21.9070374,60.4313413 C21.9070374,60.769486 21.830215,61.1281328 21.2414299,61.1281328 C20.7810561,61.1281328 20.6274112,60.769486 20.4482523,60.3046774 C20.115729,59.3964051 19.8342336,59.3329328 18.1197477,59.3329328 C17.3265701,59.3329328 17.1474112,59.4385328 17.1474112,59.9878774 L17.1474112,62.7334774 Z" id="Fill-1"></path>
                <path d="M38.6411215,61.3607617 C38.6411215,63.853034 35.9024299,65.9231872 31.5016822,65.9231872 C30.7342991,65.9231872 28.4826168,65.7962426 26.7425327,65.1415787 C26.2818785,64.9514426 26.1027196,64.6981149 26.1027196,64.1490511 C26.1027196,63.5575787 26.1027196,62.9023532 26.128514,62.3322255 C26.128514,62.0788979 26.1543084,61.3396979 26.9982336,61.3396979 C27.8172056,61.3396979 28.0474766,62.3114426 28.2779439,62.9871702 C28.6359813,64.1277064 29.4036449,64.9725064 31.2970093,64.9725064 C33.0880374,64.9725064 34.4186916,64.1277064 34.4186916,62.9447617 C34.4186916,61.5508979 32.9862617,60.8748894 30.938972,60.1146255 C30.5548598,59.9876809 30.1713084,59.8399532 29.7874766,59.6922255 C28.073271,59.037 26.460757,58.0866 26.460757,56.1433915 C26.460757,52.6583106 31.3738318,52.1510936 32.9601869,52.1510936 C34.1627103,52.1510936 35.621215,52.2777574 37.2333645,52.5948383 C37.6685047,52.7001574 37.7195327,52.8692298 37.7195327,53.2495021 C37.7195327,53.798566 37.7453271,54.3479106 37.7453271,54.8969745 C37.7453271,55.2564638 37.7195327,55.7209915 36.9773832,55.7209915 C36.4146729,55.7209915 36.2613084,55.4252553 36.0053271,55.0239191 C35.5449533,53.988983 34.8538318,53.1014936 33.1909346,53.1014936 C31.9113084,53.1014936 30.7595327,53.7140298 30.7595327,54.8124383 C30.7595327,56.1433915 32.3971963,56.6082 34.9051402,57.453 C36.3120561,57.960217 38.6411215,58.9316809 38.6411215,61.3396979 L38.6411215,61.3607617 Z" id="Fill-2"></path>
                <path d="M55.4770093,64.127566 C55.4257009,64.8246383 55.3236449,64.8881106 54.5814953,65.1630638 C52.6113084,65.7961021 50.9223364,65.9233277 49.8221495,65.9233277 C43.8347664,65.9233277 40.5852336,62.3113021 40.5852336,58.9739489 C40.5852336,54.8339234 44.9094393,52.151234 50.1804673,52.151234 C51.7668224,52.151234 53.6604673,52.468034 54.5049533,52.7002979 C55.0934579,52.8907149 55.118972,53.101634 55.17,53.629634 C55.221028,54.0101872 55.3491589,54.9813702 55.3491589,55.2773872 C55.3491589,55.5096511 55.3236449,55.8688596 54.6838318,55.8688596 C54.0185047,55.8688596 53.6091589,55.2563234 52.9948598,54.6016596 C52.2019626,53.6720426 51.5363551,53.1651064 50.0526168,53.1651064 C46.8796262,53.1651064 45.3700935,55.9109872 45.3700935,58.8259404 C45.3700935,62.9446213 47.903271,64.9091745 50.2062617,64.9091745 C51.8181308,64.9091745 52.534486,64.1065021 53.2766355,63.0294383 C53.7114953,62.4166213 54.1208411,61.6352936 54.9142991,61.6352936 C55.5793458,61.6352936 55.6303738,62.0787574 55.6051402,62.3744936 L55.4770093,64.127566 Z" id="Fill-3"></path>
                <path d="M57.7550467,4.71380426 C57.5826168,5.79508085 56.7515888,6.42194043 55.7907477,6.42194043 C54.387757,6.42194043 53.4706542,5.37324255 53.4706542,4.02178723 C53.4706542,2.62708085 54.3339252,1.59972766 55.7694393,1.59972766 C56.762243,1.59972766 57.5719626,2.18361702 57.7228037,3.27556596 L56.8811215,3.27556596 C56.7731776,2.76778723 56.3304673,2.46474894 55.7694393,2.46474894 C54.9490654,2.46474894 54.5066355,3.11379574 54.5066355,3.99988085 C54.5066355,4.84355745 55.0031776,5.55691915 55.7907477,5.55691915 C56.3845794,5.55691915 56.8163551,5.23281702 56.8811215,4.71380426 L57.7550467,4.71380426 Z M55.6396262,7.22208511 C57.3128972,7.22208511 58.6839252,5.88158298 58.6839252,4.04341277 C58.6839252,2.19485106 57.3128972,0.864740426 55.6396262,0.864740426 C53.9450467,0.864740426 52.5961682,2.19485106 52.5961682,4.04341277 C52.5961682,5.88158298 53.9450467,7.22208511 55.6396262,7.22208511 L55.6396262,7.22208511 Z M55.6396262,0 C57.8307477,0 59.7843925,1.57810213 59.7843925,4.04341277 C59.7843925,6.49777021 57.8307477,8.08682553 55.6396262,8.08682553 C53.448785,8.08682553 51.4954206,6.49777021 51.4954206,4.04341277 C51.4954206,1.57810213 53.448785,0 55.6396262,0 L55.6396262,0 Z" id="Fill-4"></path>
                <path d="M46.4523364,24.7286553 L47.7364486,22.1201106 C48.0339252,21.3328851 48.1842056,20.5021277 48.1842056,19.6497447 C48.1842056,16.3848511 45.9720561,13.5867319 42.8041121,12.8450043 L41.5572897,12.5526383 L41.3088785,11.2944255 C41.254486,11.0340766 39.8425234,4.67027234 32.8284112,4.67027234 C31.3749533,4.67027234 26.9520841,4.67027234 22.5928318,13.0177277 C19.8078785,18.3516511 17.6551682,25.4358383 15.8935794,31.730834 C14.8842336,35.3358383 13.8785327,39.6656911 13.2174112,41.5238017 C12.5562897,43.3819123 10.8858224,43.3018698 9.97881308,42.5590187 C8.76142991,41.5617166 0.660869159,33.3923489 0.46264486,33.1547489 C-0.240813084,32.3124766 -0.129504673,31.0587574 0.711056075,30.3538213 C1.5518972,29.649166 2.80376636,29.760383 3.50750467,30.6020936 C3.54563551,30.6478723 6.68414019,34.2245106 10.1969439,37.3838043 C10.8583458,35.2729277 11.5455421,33.1384596 12.2254486,30.7082553 C14.040028,24.2250894 16.0968505,16.877183 19.0749813,11.1742213 C22.7576916,4.12120851 27.2568505,0.692859574 32.8284112,0.692859574 C38.2076636,0.692859574 41.2985047,3.37161702 42.9442991,5.61870638 C43.956729,7.00021277 44.5424299,8.36711489 44.8640187,9.30937021 C49.2114953,10.8388851 52.1548598,14.9342553 52.1548598,19.6497447 C52.1548598,20.8017957 51.9782243,21.9305362 51.6291589,23.0140596 C54.1427103,24.8946383 55.6895327,27.8980596 55.6895327,31.0989191 C55.6895327,36.6533106 51.1783178,41.1721762 45.6336449,41.1721762 C43.412243,41.1721762 41.3007477,40.4515123 39.5758879,39.1435889 L39.5758879,45.8674443 C39.5758879,46.4459974 39.0504673,47.3907804 38.2281308,47.3907804 L28.8751402,47.3907804 C27.0737664,47.3907804 26.4311495,46.5926017 26.4311495,45.2391804 L26.4311495,38.9655294 L21.5593738,39.5592485 C20.4706822,39.6920911 19.4815234,38.915257 19.3491869,37.8253021 C19.2168505,36.7350383 19.9915234,35.743634 21.0799346,35.6110723 C21.0799346,35.6110723 27.8178785,34.6935319 28.611028,34.6935319 C29.4580374,34.5972 30.4017757,35.1544085 30.4017757,36.3488681 L30.4017757,43.4136485 L35.6052336,43.4136485 L35.6052336,36.9327574 L35.6206542,36.7527319 C35.6775701,36.3348255 35.8323364,35.6554468 36.248972,35.277983 C36.8792523,34.7061702 37.8106542,34.3452766 39.6431776,35.0673447 C41.4751402,35.7894128 42.4665421,36.4213277 43.8782243,36.8122723 L44.0060748,36.8785532 C44.5323364,37.0271234 45.0827103,37.1046383 45.6451402,37.1046383 C48.9765421,37.1046383 51.6869159,34.3896511 51.6869159,31.0525787 C51.6869159,28.7375234 50.3391589,26.5943489 48.2540187,25.5922723 L46.4579439,24.7286553" id="Fill-5"></path>
            </g>
        </g>
    </g>
</svg>