<?xml version="1.0" encoding="UTF-8"?>
<svg width="130px" height="85px" viewBox="0 0 130 85" version="1.1" xmlns="http://www.w3.org/2000/svg" xmlns:xlink="http://www.w3.org/1999/xlink">
    <!-- Generator: Sketch 64 (93537) - https://sketch.com -->
    <title>Ilustración Material de barrido</title>
    <desc>Created with Sketch.</desc>
    <defs>
        <polygon id="path-1" points="0.368566949 0.915112256 64.547 0.915112256 64.547 24.9997762 0.368566949 24.9997762"></polygon>
    </defs>
    <g id="Ilustración-Material-de-barrido" stroke="none" stroke-width="1" fill="none" fill-rule="evenodd">
        <rect id="Rectangle-Copy-19" fill="#8E968B" fill-rule="nonzero" x="26" y="0" width="85" height="85" rx="8"></rect>
        <g id="Group-38" transform="translate(30.000000, 17.000000)">
            <path d="M21.0267,46.4677 C21.0267,46.4677 29.2627,25.5227 36.0787,26.1907 C42.8947,26.8577 42.4977,30.2177 49.0347,32.4107 C55.5727,34.6047 61.5747,34.5397 60.1587,49.0117 C52.1177,54.1837 21.0267,46.4677 21.0267,46.4677" id="Fill-1" fill="#61705A"></path>
            <path d="M47.6155,44.2823 C47.6155,44.2823 42.1415,31.6223 38.1285,34.6063 C34.1165,37.5893 30.7465,40.1423 30.7465,40.1423 C30.7465,40.1423 38.0255,50.9813 47.6155,44.2823" id="Fill-3" fill="#61705A"></path>
            <g id="Group-7" transform="translate(12.000000, 29.454800)">
                <mask id="mask-2" fill="white">
                    <use xlink:href="#path-1"></use>
                </mask>
                <g id="Clip-6"></g>
                <path d="M50,20.4317 C50,20.4317 41.215,30.0327 0.771,21.3967 C-1.155,12.7607 4.189,12.6007 9.221,8.1867 C14.252,3.7737 15.874,-0.1423 19.878,1.1737 C23.882,2.4897 19.569,12.0697 25.899,12.4147 C32.228,12.7607 38.471,13.1887 38.471,13.1887 C38.471,13.1887 38.928,4.9717 47.133,8.8667 C55.339,12.7607 54.064,16.4687 54.064,16.4687 C66.894,12.9577 70.543,20.3987 50,20.4317" id="Fill-5" fill="#61705A" mask="url(#mask-2)"></path>
            </g>
            <path d="M0,48.7757 C0,50.3507 7.284,51.6277 16.268,51.6277 C25.253,51.6277 32.536,50.3507 32.536,48.7757 C32.536,47.2007 25.253,45.9237 16.268,45.9237 C7.284,45.9237 0,47.2007 0,48.7757" id="Fill-8" fill="#61705A"></path>
            <path d="M53.0487,12.8464 C53.6717,14.2354 54.8957,15.0394 55.7837,14.6424 C56.6717,14.2444 56.8867,12.7954 56.2637,11.4054 C55.6417,10.0164 54.4167,9.2124 53.5297,9.6104 C52.6417,10.0084 52.4257,11.4574 53.0487,12.8464" id="Fill-10" fill="#FFFFFF"></path>
            <path d="M59.8026,12.8464 C59.1796,14.2354 57.9556,15.0394 57.0676,14.6424 C56.1796,14.2444 55.9646,12.7954 56.5876,11.4054 C57.2096,10.0164 58.4346,9.2124 59.3226,9.6104 C60.2096,10.0084 60.4256,11.4574 59.8026,12.8464" id="Fill-12" fill="#FFFFFF"></path>
            <path d="M53.0711,15.4801 C53.0711,16.3221 54.5981,17.0041 56.4831,17.0041 C58.3671,17.0041 59.8941,16.3221 59.8941,15.4801 C59.8941,14.6381 58.3671,13.9561 56.4831,13.9561 C54.5981,13.9561 53.0711,14.6381 53.0711,15.4801" id="Fill-14" fill="#61705A"></path>
            <path d="M24.1357,3.4572 C23.4907,4.8962 22.2227,5.7292 21.3027,5.3172 C20.3837,4.9052 20.1607,3.4042 20.8057,1.9652 C21.4497,0.5262 22.7187,-0.3068 23.6377,0.1052 C24.5577,0.5172 24.7807,2.0182 24.1357,3.4572" id="Fill-16" fill="#FFFFFF"></path>
            <path d="M17.1404,3.4572 C17.7854,4.8962 19.0534,5.7292 19.9734,5.3172 C20.8924,4.9052 21.1154,3.4042 20.4704,1.9652 C19.8264,0.5262 18.5574,-0.3068 17.6384,0.1052 C16.7184,0.5172 16.4954,2.0182 17.1404,3.4572" id="Fill-18" fill="#FFFFFF"></path>
            <path d="M24.1126,6.185 C24.1126,7.057 22.5306,7.763 20.5786,7.763 C18.6276,7.763 17.0456,7.057 17.0456,6.185 C17.0456,5.313 18.6276,4.607 20.5786,4.607 C22.5306,4.607 24.1126,5.313 24.1126,6.185" id="Fill-20" fill="#61705A"></path>
            <path d="M10.96,28.9606 C11.477,30.1136 12.493,30.7806 13.23,30.4506 C13.967,30.1206 14.145,28.9186 13.629,27.7646 C13.112,26.6116 12.096,25.9446 11.359,26.2746 C10.622,26.6046 10.443,27.8076 10.96,28.9606" id="Fill-22" fill="#FFFFFF"></path>
            <path d="M16.5655,28.9606 C16.0485,30.1136 15.0325,30.7806 14.2955,30.4506 C13.5585,30.1206 13.3805,28.9186 13.8965,27.7646 C14.4135,26.6116 15.4295,25.9446 16.1665,26.2746 C16.9035,26.6046 17.0825,27.8076 16.5655,28.9606" id="Fill-24" fill="#FFFFFF"></path>
            <path d="M10.9785,31.1465 C10.9785,31.8445 12.2465,32.4115 13.8105,32.4115 C15.3735,32.4115 16.6415,31.8445 16.6415,31.1465 C16.6415,30.4485 15.3735,29.8815 13.8105,29.8815 C12.2465,29.8815 10.9785,30.4485 10.9785,31.1465" id="Fill-26" fill="#61705A"></path>
            <path d="M28.8203,42.6355 C28.8203,42.6355 29.7833,39.8455 30.7463,42.6355 C31.7093,45.4255 28.8203,42.6355 28.8203,42.6355" id="Fill-28" fill="#F7931E"></path>
            <path d="M33.9561,40.0677 C33.9561,40.0677 34.9191,37.2777 35.8821,40.0677 C36.8451,42.8577 33.9561,40.0677 33.9561,40.0677" id="Fill-30" fill="#EAE3C3"></path>
            <path d="M44.2276,40.0677 C44.2276,40.0677 45.1906,37.2777 46.1536,40.0677 C47.1166,42.8577 44.2276,40.0677 44.2276,40.0677" id="Fill-32" fill="#EAE3C3"></path>
            <path d="M49.3634,47.1433 C49.3634,47.1433 50.8144,42.9403 52.2644,47.1433 C53.7154,51.3463 49.3634,47.1433 49.3634,47.1433" id="Fill-34" fill="#EAE3C3"></path>
            <path d="M57.111,43.9027 C57.111,43.9027 57.11,41.6797 58.482,43.4287 C59.854,45.1777 57.111,43.9027 57.111,43.9027" id="Fill-36" fill="#EAE3C3"></path>
        </g>
    </g>
</svg>