<?xml version="1.0" encoding="UTF-8"?>
<svg width="130px" height="85px" viewBox="0 0 130 85" version="1.1" xmlns="http://www.w3.org/2000/svg" xmlns:xlink="http://www.w3.org/1999/xlink">
    <!-- Generator: Sketch 64 (93537) - https://sketch.com -->
    <title>Ilustraci칩n Cer치micas</title>
    <desc>Created with Sketch.</desc>
    <defs>
        <polygon id="path-1" points="0 0.1607 46.6777 0.1607 46.6777 45.8347 0 45.8347"></polygon>
        <polygon id="path-3" points="0 61.2777 46.678 61.2777 46.678 -0.0003 0 -0.0003"></polygon>
    </defs>
    <g id="Ilustraci칩n-Cer치micas" stroke="none" stroke-width="1" fill="none" fill-rule="evenodd">
        <rect id="Rectangle-Copy-14" fill="#8E968B" fill-rule="nonzero" x="26" y="0" width="85" height="85" rx="8"></rect>
        <g id="Group-35" transform="translate(45.000000, 13.000000)">
            <path d="M3.9068,57.9222 C3.9068,59.7752 12.4378,61.2772 22.9608,61.2772 C33.4838,61.2772 42.0138,59.7752 42.0138,57.9222 C42.0138,56.0692 33.4838,54.5672 22.9608,54.5672 C12.4378,54.5672 3.9068,56.0692 3.9068,57.9222" id="Fill-1" fill="#61705A"></path>
            <path d="M12.8576,55.6776 C12.8576,57.4416 17.5506,58.8706 23.3386,58.8706 C29.1276,58.8706 33.8206,57.4416 33.8206,55.6776 C33.8206,53.9136 29.1276,52.4846 23.3386,52.4846 C17.5506,52.4846 12.8576,53.9136 12.8576,55.6776" id="Fill-3" fill="#8BC4EF"></path>
            <path d="M22.9796,52.4841 C22.4106,52.4841 21.8566,52.5021 21.3136,52.5311 C26.1086,52.7821 29.7686,54.0931 29.7686,55.6771 C29.7686,57.2621 26.1086,58.5731 21.3136,58.8241 C21.8566,58.8531 22.4106,58.8711 22.9796,58.8711 C28.5696,58.8711 33.1016,57.4411 33.1016,55.6771 C33.1016,53.9141 28.5696,52.4841 22.9796,52.4841" id="Fill-5" fill="#AFE1F9"></path>
            <path d="M12.8576,54.5668 C12.8576,56.3308 17.5506,57.7598 23.3386,57.7598 C29.1276,57.7598 33.8206,56.3308 33.8206,54.5668 C33.8206,52.8028 29.1276,51.3738 23.3386,51.3738 C17.5506,51.3738 12.8576,52.8028 12.8576,54.5668" id="Fill-7" fill="#5D9EC6"></path>
            <g id="Group-11" transform="translate(0.000000, 11.277700)">
                <mask id="mask-2" fill="white">
                    <use xlink:href="#path-1"></use>
                </mask>
                <g id="Clip-10"></g>
                <path d="M46.6777,22.9977 C46.6777,35.6097 36.2287,45.8347 23.3387,45.8347 C10.4487,45.8347 -0.0003,35.6097 -0.0003,22.9977 C-0.0003,10.3857 10.4487,0.1607 23.3387,0.1607 C36.2287,0.1607 46.6777,10.3857 46.6777,22.9977" id="Fill-9" fill="#8BC4EF" mask="url(#mask-2)"></path>
            </g>
            <path d="M12.8576,53.456 C12.8576,55.22 17.5506,56.649 23.3386,56.649 C29.1276,56.649 33.8206,55.22 33.8206,53.456 C33.8206,51.692 29.1276,50.263 23.3386,50.263 C17.5506,50.263 12.8576,51.692 12.8576,53.456" id="Fill-12" fill="#8BC4EF"></path>
            <path d="M22.4016,11.4386 C21.4666,11.4386 20.5506,11.5086 19.6456,11.6136 C31.1376,12.9496 40.0546,22.5016 40.0546,34.1056 C40.0546,45.7106 31.1376,55.2626 19.6456,56.5976 C20.5506,56.7036 21.4666,56.7726 22.4016,56.7726 C35.1956,56.7726 45.5666,46.6246 45.5666,34.1056 C45.5666,21.5866 35.1956,11.4386 22.4016,11.4386" id="Fill-20" fill="#AFE1F9"></path>
            <mask id="mask-4" fill="white">
                <use xlink:href="#path-3"></use>
            </mask>
            <g id="Clip-23"></g>
            <polygon id="Fill-22" fill="#8BC4EF" mask="url(#mask-4)" points="12.858 13.9257 33.821 13.9257 33.821 1.6657 12.858 1.6657"></polygon>
            <path d="M9.2826,16.0757 C11.6246,18.0527 17.0346,19.4387 23.3386,19.4387 C29.6436,19.4387 35.0536,18.0527 37.3946,16.0757 C33.4826,13.1777 28.6236,11.4387 23.3386,11.4387 C18.0536,11.4387 13.1946,13.1777 9.2826,16.0757" id="Fill-24" fill="#AFE1F9" mask="url(#mask-4)"></path>
            <path d="M12.8576,12.9591 C12.8576,14.3901 17.5506,15.5511 23.3386,15.5511 C29.1276,15.5511 33.8206,14.3901 33.8206,12.9591 C33.8206,11.5281 29.1276,10.3671 23.3386,10.3671 C17.5506,10.3671 12.8576,11.5281 12.8576,12.9591" id="Fill-25" fill="#8BC4EF" mask="url(#mask-4)"></path>
            <polygon id="Fill-26" fill="#AFE1F9" mask="url(#mask-4)" points="29.584 15.5507 33.101 15.5507 33.101 1.3887 29.584 1.3887"></polygon>
            <path d="M12.8576,1.6662 C12.8576,2.5862 17.5506,3.3322 23.3386,3.3322 C29.1276,3.3322 33.8206,2.5862 33.8206,1.6662 C33.8206,0.7462 29.1276,0.0002 23.3386,0.0002 C17.5506,0.0002 12.8576,0.7462 12.8576,1.6662" id="Fill-27" fill="#2F6384" mask="url(#mask-4)"></path>
            <path d="M15.5421,2.777 C17.4611,3.117 20.2381,3.332 23.3391,3.332 C26.4391,3.332 29.2161,3.117 31.1351,2.777 C29.2161,2.437 26.4391,2.222 23.3391,2.222 C20.2381,2.222 17.4611,2.437 15.5421,2.777" id="Fill-28" fill="#1E506B" mask="url(#mask-4)"></path>
            <path d="M34.2386,36.8407 C34.2386,37.9657 34.7296,38.8767 35.3366,38.8767 C35.9426,38.8767 36.4336,37.9657 36.4336,36.8407 C36.4336,35.7157 35.9426,34.8047 35.3366,34.8047 C34.7296,34.8047 34.2386,35.7157 34.2386,36.8407" id="Fill-30" fill="#8BC4EF" mask="url(#mask-4)"></path>
            <path d="M5.332,34.6191 C5.332,35.7441 4.841,36.6551 4.234,36.6551 C3.628,36.6551 3.137,35.7441 3.137,34.6191 C3.137,33.4941 3.628,32.5831 4.234,32.5831 C4.841,32.5831 5.332,33.4941 5.332,34.6191" id="Fill-31" fill="#8BC4EF" mask="url(#mask-4)"></path>
            <path d="M13.1074,36.8407 C13.1074,37.9657 12.6164,38.8767 12.0094,38.8767 C11.4034,38.8767 10.9124,37.9657 10.9124,36.8407 C10.9124,35.7157 11.4034,34.8047 12.0094,34.8047 C12.6164,34.8047 13.1074,35.7157 13.1074,36.8407" id="Fill-32" fill="#8BC4EF" mask="url(#mask-4)"></path>
            <path d="M26.4631,38.4483 C26.4631,39.9123 26.9541,41.0983 27.5611,41.0983 C28.1671,41.0983 28.6581,39.9123 28.6581,38.4483 C28.6581,36.9843 28.1671,35.7983 27.5611,35.7983 C26.9541,35.7983 26.4631,36.9843 26.4631,38.4483" id="Fill-33" fill="#8BC4EF" mask="url(#mask-4)"></path>
            <path d="M18.6877,38.4483 C18.6877,39.9123 19.1787,41.0983 19.7857,41.0983 C20.3917,41.0983 20.8827,39.9123 20.8827,38.4483 C20.8827,36.9843 20.3917,35.7983 19.7857,35.7983 C19.1787,35.7983 18.6877,36.9843 18.6877,38.4483" id="Fill-34" fill="#8BC4EF" mask="url(#mask-4)"></path>
        </g>
    </g>
</svg>