<svg xmlns="http://www.w3.org/2000/svg" width="130" height="85" viewBox="0 0 130 85">
  <g fill="none" fill-rule="evenodd">
    <rect width="85" height="85" x="26" fill="#E04A4A" fill-rule="nonzero" rx="8"/>
    <path fill="#333" d="M47,64.0865036 C47,65.4667925 56.8499362,66.5865036 69.0004599,66.5865036 C81.1500638,66.5865036 91,65.4667925 91,64.0865036 C91,62.7062146 81.1500638,61.5865036 69.0004599,61.5865036 C56.8499362,61.5865036 47,62.7062146 47,64.0865036"/>
    <g transform="rotate(-28 82.284 -80.509)">
      <path fill="#CBCBCB" d="M1.58974471,18.0282603 L23.0093701,17.9677214 C23.371538,17.9677214 23.934096,17.1330222 23.934096,16.0282603 C23.934096,14.9234984 24.1806238,14.6187802 23.8184559,14.6187802 L1.17465322,14.509442 C0.812485368,14.509442 0.934096023,14.9234984 0.934096023,16.0282603 C0.934096023,17.1330222 1.16004929,18.017565 1.52221713,18.017565" transform="scale(-1 1) rotate(-9 0 174.655)"/>
      <path fill="#CBCBCB" d="M1.58974471,13.304098 L23.0093701,13.243559 C23.371538,13.243559 23.934096,12.4088599 23.934096,11.304098 C23.934096,10.1993361 24.1806238,9.89461782 23.8184559,9.89461782 L1.17465322,9.78527961 C0.812485368,9.78527961 0.934096023,10.1993361 0.934096023,11.304098 C0.934096023,12.4088599 1.16004929,13.2934026 1.52221713,13.2934026" transform="scale(-1 1) rotate(-9 0 169.93)"/>
      <path fill="#CBCBCB" d="M1.58974471,8.30409796 L23.0093701,8.24355903 C23.371538,8.24355903 23.934096,7.40885986 23.934096,6.30409796 C23.934096,5.19933605 24.1806238,4.89461782 23.8184559,4.89461782 L1.17465322,4.78527961 C0.812485368,4.78527961 0.934096023,5.19933605 0.934096023,6.30409796 C0.934096023,7.40885986 1.16004929,8.29340264 1.52221713,8.29340264" transform="scale(-1 1) rotate(-9 0 164.93)"/>
      <g transform="translate(11 32)">
        <path fill="#CCC" d="M1.08156274,11 L3,11 C3.07904912,11 4,10.0282112 4,9.905 L4,2.22320875 C4,2.09999752 3.93584419,2 3.85679507,2 L0.143204926,2 C0.064155807,2 0,2.09999752 0,2.22320875 L0,9.905 C0,10.0282112 1.00251362,11 1.08156274,11 L1.67446622,0.611384392"/>
        <path fill="#B3B3B3" d="M1.08156274,11 L2.91843726,11 C2.96345989,11 3,10.9000025 3,10.7767913 L3,2.22320875 C3,2.09999752 2.96345989,2 2.91843726,2 L1.08156274,2 C1.03654011,2 1,2.09999752 1,2.22320875 L1,10.7767913 C1,10.9000025 1.03654011,11 1.08156274,11"/>
        <path fill="gray" d="M2.5,11 L2.5,11 C2.776,11 3,10.9000025 3,10.7767913 L3,2.22320875 C3,2.09999752 2.776,2 2.5,2 C2.224,2 2,2.09999752 2,2.22320875 L2,10.7767913 C2,10.9000025 2.224,11 2.5,11"/>
      </g>
      <g transform="translate(7 32)">
        <path fill="#CCC" d="M0.429614779,10 L11.5703852,10 C11.8075326,10 12,9.90000248 12,9.77679125 L12,1.22320875 C12,1.09999752 11.8075326,1 11.5703852,1 L0.429614779,1 C0.192467421,1 0,1.09999752 0,1.22320875 L0,9.77679125 C0,9.90000248 0.192467421,10 0.429614779,10"/>
        <path fill="#B3B3B3" d="M1.44859508,10 L11.5514049,10 C11.7990294,10 12,9.90000248 12,9.77679125 L12,1.22320875 C12,1.09999752 11.7990294,1 11.5514049,1 L1.44859508,1 C1.2009706,1 1,1.09999752 1,1.22320875 L1,9.77679125 C1,9.90000248 1.2009706,10 1.44859508,10"/>
        <path fill="gray" d="M8.5 10L8.5 10C8.776 10 9 9.90000248 9 9.77679125L9 1.22320875C9 1.09999752 8.776 1 8.5 1 8.224 1 8 1.09999752 8 1.22320875L8 9.77679125C8 9.90000248 8.224 10 8.5 10M9.32499188 10L10.6750081 10C10.8544036 10 11 9.90000248 11 9.77679125L11 1.22320875C11 1.09999752 10.8544036 1 10.6750081 1L9.32499188 1C9.14559636 1 9 1.09999752 9 1.22320875L9 9.77679125C9 9.90000248 9.14559636 10 9.32499188 10"/>
        <path fill="#999" d="M0.430903623,0.839800443 C0.192897036,0.839800443 0,0.942017738 0,1.06818182 L0,1.16019956 L12,1.16019956 L12,1.06818182 C12,0.942017738 11.807103,0.839800443 11.5690964,0.839800443"/>
        <polygon fill="#666" points="9 1.16 11 1.16 11 .84 9 .84"/>
        <polygon fill="#666" points="8 1.16 9 1.16 9 .84 8 .84"/>
      </g>
      <g transform="translate(5.925 32.811)">
        <g transform="translate(.075 .189)">
          <path fill="#E6E6E6" d="M0.399090508,2 L13.6009095,2 C13.8213595,2 14,1.55238095 14,1 L14,1 C14,0.447619048 13.8213595,0 13.6009095,0 L0.399090508,0 C0.178640513,0 0,0.447619048 0,1 L0,1 C0,1.55238095 0.178640513,2 0.399090508,2"/>
          <path fill="#CCC" d="M2.41248926,2 L13.5875107,2 C13.815362,2 14,1.55238095 14,1 L14,1 C14,0.447619048 13.815362,0 13.5875107,0 L2.41248926,0 C2.18463805,0 2,0.447619048 2,1 C2,1.55238095 2.18463805,2 2.41248926,2"/>
          <path fill="#B3B3B3" d="M10.3979157,2 L12.6016106,2 C12.8214117,2 13,1.55238095 13,1 L13,1 C13,0.447619048 12.8214117,0 12.6016106,0 L10.3979157,0 C10.1781146,0 10,0.447619048 10,1 L10,1 C10,1.55238095 10.1781146,2 10.3979157,2"/>
          <path fill="#999" d="M13.6009095,1.92 L0.399090508,1.92 C0.178640513,1.92 0,1.544 0,1.08 L0,1.08 L14,1.08 C14,1.544 13.8213595,1.92 13.6009095,1.92"/>
        </g>
        <g transform="translate(.075 2.189)">
          <path fill="#E6E6E6" d="M0.399090508,2 L13.6009095,2 C13.8213595,2 14,1.55238095 14,1 L14,1 C14,0.447619048 13.8213595,0 13.6009095,0 L0.399090508,0 C0.178640513,0 0,0.447619048 0,1 L0,1 C0,1.55238095 0.178640513,2 0.399090508,2"/>
          <path fill="#CCC" d="M2.41248926,2 L13.5875107,2 C13.815362,2 14,1.55238095 14,1 L14,1 C14,0.447619048 13.815362,0 13.5875107,0 L2.41248926,0 C2.18463805,0 2,0.447619048 2,1 L2,1 C2,1.55238095 2.18463805,2 2.41248926,2"/>
          <path fill="#B3B3B3" d="M10.3979157,2 L12.6016106,2 C12.8214117,2 13,1.55238095 13,1 L13,1 C13,0.447619048 12.8214117,0 12.6016106,0 L10.3979157,0 C10.1781146,0 10,0.447619048 10,1 L10,1 C10,1.55238095 10.1781146,2 10.3979157,2"/>
          <path fill="#999" d="M13.6009095,1.92 L0.399090508,1.92 C0.178640513,1.92 0,1.544 0,1.08 L0,1.08 L14,1.08 C14,1.544 13.8213595,1.92 13.6009095,1.92"/>
        </g>
        <g transform="translate(.075 4.189)">
          <path fill="#E6E6E6" d="M0.399090508,2 L13.6009095,2 C13.8213595,2 14,1.55238095 14,1 L14,1 C14,0.447619048 13.8213595,0 13.6009095,0 L0.399090508,0 C0.178640513,0 0,0.447619048 0,1 L0,1 C0,1.55238095 0.178640513,2 0.399090508,2"/>
          <path fill="#CCC" d="M2.41248926,2 L13.5875107,2 C13.815362,2 14,1.55238095 14,1 L14,1 C14,0.447619048 13.815362,0 13.5875107,0 L2.41248926,0 C2.18463805,0 2,0.447619048 2,1 L2,1 C2,1.55238095 2.18463805,2 2.41248926,2"/>
          <path fill="#B3B3B3" d="M10.3979157,2 L12.6016106,2 C12.8214117,2 13,1.55238095 13,1 L13,1 C13,0.447619048 12.8214117,0 12.6016106,0 L10.3979157,0 C10.1781146,0 10,0.447619048 10,1 L10,1 C10,1.55238095 10.1781146,2 10.3979157,2"/>
          <path fill="#999" d="M13.6009095,1.92 L0.399090508,1.92 C0.178640513,1.92 0,1.544 0,1.08 L0,1.08 L14,1.08 C14,1.544 13.8213595,1.92 13.6009095,1.92"/>
        </g>
        <g transform="translate(.075 6.189)">
          <path fill="#E6E6E6" d="M0.399090508,2 L13.6009095,2 C13.8213595,2 14,1.55238095 14,1 L14,1 C14,0.447619048 13.8213595,0 13.6009095,0 L0.399090508,0 C0.178640513,0 0,0.447619048 0,1 L0,1 C0,1.55238095 0.178640513,2 0.399090508,2"/>
          <path fill="#CCC" d="M2.41248926,2 L13.5875107,2 C13.815362,2 14,1.55238095 14,1 L14,1 C14,0.447619048 13.815362,0 13.5875107,0 L2.41248926,0 C2.18463805,0 2,0.447619048 2,1 L2,1 C2,1.55238095 2.18463805,2 2.41248926,2"/>
          <path fill="#B3B3B3" d="M10.3979157,2 L12.6016106,2 C12.8214117,2 13,1.55238095 13,1 L13,1 C13,0.447619048 12.8214117,0 12.6016106,0 L10.3979157,0 C10.1781146,0 10,0.447619048 10,1 L10,1 C10,1.55238095 10.1781146,2 10.3979157,2"/>
          <path fill="#999" d="M13.6009095,1.92 L0.399090508,1.92 C0.178640513,1.92 0,1.544 0,1.08 L0,1.08 L14,1.08 C14,1.544 13.8213595,1.92 13.6009095,1.92"/>
        </g>
      </g>
      <g transform="translate(2 18)">
        <path fill="#E6E6E6" d="M0.627142227,4 L21.3728578,4 C21.7192792,4 22,3.1047619 22,2 L22,2 C22,0.895238095 21.7192792,0 21.3728578,0 L0.627142227,0 C0.280720806,0 0,0.895238095 0,2 L0,2 C0,3.1047619 0.280720806,4 0.627142227,4"/>
        <path fill="#ECECEC" d="M4.18264477,4 L21.3657423,4 C21.7160942,4 22,3.1047619 22,2 L22,2 C22,0.895238095 21.7160942,0 21.3657423,0 L4.18264477,0 C3.83229291,0 3.5483871,0.895238095 3.5483871,2 C3.5483871,3.1047619 3.83229291,4 4.18264477,4"/>
        <path fill="#E5E5E5" d="M16.2718174,4 L19.9209466,4 C20.2849182,4 20.5806452,3.1047619 20.5806452,2 L20.5806452,2 C20.5806452,0.895238095 20.2849182,0 19.9209466,0 L16.2718174,0 C15.9078457,0 15.6129032,0.895238095 15.6129032,2 L15.6129032,2 C15.6129032,3.1047619 15.9078457,4 16.2718174,4"/>
        <path fill="#D9D9D9" d="M21.3728578,3.808 L0.627142227,3.808 C0.280720806,3.808 0,2.9056 0,1.792 L0,1.792 L22,1.792 C22,2.9056 21.7192792,3.808 21.3728578,3.808"/>
      </g>
      <g transform="translate(3)">
        <path fill="#E6E6E6" d="M0.598635762,4 L20.4013642,4 C20.7320392,4 21,3.1047619 21,2 L21,2 C21,0.895238095 20.7320392,0 20.4013642,0 L0.598635762,0 C0.26796077,0 0,0.895238095 0,2 L0,2 C0,3.1047619 0.26796077,4 0.598635762,4"/>
        <path fill="#ECECEC" d="M4.21808789,4 L20.4026018,4 C20.7325932,4 21,3.1047619 21,2 L21,2 C21,0.895238095 20.7325932,0 20.4026018,0 L4.21808789,0 C3.88809648,0 3.62068966,0.895238095 3.62068966,2 C3.62068966,3.1047619 3.88809648,4 4.21808789,4"/>
        <path fill="#E5E5E5" d="M15.1550989,4 L18.8785834,4 C19.2499714,4 19.5517241,3.1047619 19.5517241,2 L19.5517241,2 C19.5517241,0.895238095 19.2499714,0 18.8785834,0 L15.1550989,0 C14.7837109,0 14.4827586,0.895238095 14.4827586,2 L14.4827586,2 C14.4827586,3.1047619 14.7837109,4 15.1550989,4"/>
        <path fill="#D9D9D9" d="M20.4013642,3.808 L0.598635762,3.808 C0.26796077,3.808 0,2.9056 0,1.792 L0,1.792 L21,1.792 C21,2.9056 20.7320392,3.808 20.4013642,3.808"/>
      </g>
      <g transform="rotate(-4 41.136 -11.318)">
        <path fill="#E6E6E6" d="M0.6719381,3.66666667 L22.8994905,3.66666667 C23.2706563,3.66666667 23.5714286,2.84603175 23.5714286,1.83333333 L23.5714286,1.83333333 C23.5714286,0.820634921 23.2706563,0 22.8994905,0 L0.6719381,0 C0.300772292,0 0,0.820634921 0,1.83333333 L0,1.83333333 C0,2.84603175 0.300772292,3.66666667 0.6719381,3.66666667"/>
        <path fill="#ECECEC" d="M4.25891067,3.66666667 L22.8839465,3.66666667 C23.2636985,3.66666667 23.5714286,2.84603175 23.5714286,1.83333333 L23.5714286,1.83333333 C23.5714286,0.820634921 23.2636985,0 22.8839465,0 L4.25891067,0 C3.87915865,0 3.57142857,0.820634921 3.57142857,1.83333333 C3.57142857,2.84603175 3.87915865,3.66666667 4.25891067,3.66666667"/>
        <path fill="#E5E5E5" d="M17.8060499,3.66666667 L21.4788748,3.66666667 C21.8452099,3.66666667 22.1428571,2.84603175 22.1428571,1.83333333 L22.1428571,1.83333333 C22.1428571,0.820634921 21.8452099,0 21.4788748,0 L17.8060499,0 C17.4397149,0 17.1428571,0.820634921 17.1428571,1.83333333 L17.1428571,1.83333333 C17.1428571,2.84603175 17.4397149,3.66666667 17.8060499,3.66666667"/>
        <path fill="#D9D9D9" d="M22.8994905,3.49066667 L0.6719381,3.49066667 C0.300772292,3.49066667 0,2.66346667 0,1.64266667 L0,1.64266667 L23.5714286,1.64266667 C23.5714286,2.66346667 23.2706563,3.49066667 22.8994905,3.49066667"/>
      </g>
      <g transform="rotate(-4 112.727 -8.818)">
        <path fill="#E6E6E6" d="M0.6719381,3.66666667 L22.8994905,3.66666667 C23.2706563,3.66666667 23.5714286,2.84603175 23.5714286,1.83333333 L23.5714286,1.83333333 C23.5714286,0.820634921 23.2706563,0 22.8994905,0 L0.6719381,0 C0.300772292,0 0,0.820634921 0,1.83333333 L0,1.83333333 C0,2.84603175 0.300772292,3.66666667 0.6719381,3.66666667"/>
        <path fill="#ECECEC" d="M4.25891067,3.66666667 L22.8839465,3.66666667 C23.2636985,3.66666667 23.5714286,2.84603175 23.5714286,1.83333333 L23.5714286,1.83333333 C23.5714286,0.820634921 23.2636985,0 22.8839465,0 L4.25891067,0 C3.87915865,0 3.57142857,0.820634921 3.57142857,1.83333333 C3.57142857,2.84603175 3.87915865,3.66666667 4.25891067,3.66666667"/>
        <path fill="#E5E5E5" d="M17.8060499,3.66666667 L21.4788748,3.66666667 C21.8452099,3.66666667 22.1428571,2.84603175 22.1428571,1.83333333 L22.1428571,1.83333333 C22.1428571,0.820634921 21.8452099,0 21.4788748,0 L17.8060499,0 C17.4397149,0 17.1428571,0.820634921 17.1428571,1.83333333 L17.1428571,1.83333333 C17.1428571,2.84603175 17.4397149,3.66666667 17.8060499,3.66666667"/>
        <path fill="#D9D9D9" d="M22.8994905,3.49066667 L0.6719381,3.49066667 C0.300772292,3.49066667 0,2.66346667 0,1.64266667 L0,1.64266667 L23.5714286,1.64266667 C23.5714286,2.66346667 23.2706563,3.49066667 22.8994905,3.49066667"/>
      </g>
      <g transform="rotate(-4 184.318 -6.318)">
        <path fill="#E6E6E6" d="M0.6719381,3.66666667 L22.8994905,3.66666667 C23.2706563,3.66666667 23.5714286,2.84603175 23.5714286,1.83333333 L23.5714286,1.83333333 C23.5714286,0.820634921 23.2706563,0 22.8994905,0 L0.6719381,0 C0.300772292,0 0,0.820634921 0,1.83333333 L0,1.83333333 C0,2.84603175 0.300772292,3.66666667 0.6719381,3.66666667"/>
        <path fill="#ECECEC" d="M4.25891067,3.66666667 L22.8839465,3.66666667 C23.2636985,3.66666667 23.5714286,2.84603175 23.5714286,1.83333333 L23.5714286,1.83333333 C23.5714286,0.820634921 23.2636985,0 22.8839465,0 L4.25891067,0 C3.87915865,0 3.57142857,0.820634921 3.57142857,1.83333333 C3.57142857,2.84603175 3.87915865,3.66666667 4.25891067,3.66666667"/>
        <path fill="#E5E5E5" d="M17.8060499,3.66666667 L21.4788748,3.66666667 C21.8452099,3.66666667 22.1428571,2.84603175 22.1428571,1.83333333 L22.1428571,1.83333333 C22.1428571,0.820634921 21.8452099,0 21.4788748,0 L17.8060499,0 C17.4397149,0 17.1428571,0.820634921 17.1428571,1.83333333 L17.1428571,1.83333333 C17.1428571,2.84603175 17.4397149,3.66666667 17.8060499,3.66666667"/>
        <path fill="#D9D9D9" d="M22.8994905,3.49066667 L0.6719381,3.49066667 C0.300772292,3.49066667 0,2.66346667 0,1.64266667 L0,1.64266667 L23.5714286,1.64266667 C23.5714286,2.66346667 23.2706563,3.49066667 22.8994905,3.49066667"/>
      </g>
      <g transform="rotate(-4 255.908 -3.818)">
        <path fill="#E6E6E6" d="M0.6719381,3.66666667 L22.8994905,3.66666667 C23.2706563,3.66666667 23.5714286,2.84603175 23.5714286,1.83333333 L23.5714286,1.83333333 C23.5714286,0.820634921 23.2706563,0 22.8994905,0 L0.6719381,0 C0.300772292,0 0,0.820634921 0,1.83333333 L0,1.83333333 C0,2.84603175 0.300772292,3.66666667 0.6719381,3.66666667"/>
        <path fill="#ECECEC" d="M4.25891067,3.66666667 L22.8839465,3.66666667 C23.2636985,3.66666667 23.5714286,2.84603175 23.5714286,1.83333333 L23.5714286,1.83333333 C23.5714286,0.820634921 23.2636985,0 22.8839465,0 L4.25891067,0 C3.87915865,0 3.57142857,0.820634921 3.57142857,1.83333333 C3.57142857,2.84603175 3.87915865,3.66666667 4.25891067,3.66666667"/>
        <path fill="#E5E5E5" d="M17.8060499,3.66666667 L21.4788748,3.66666667 C21.8452099,3.66666667 22.1428571,2.84603175 22.1428571,1.83333333 L22.1428571,1.83333333 C22.1428571,0.820634921 21.8452099,0 21.4788748,0 L17.8060499,0 C17.4397149,0 17.1428571,0.820634921 17.1428571,1.83333333 L17.1428571,1.83333333 C17.1428571,2.84603175 17.4397149,3.66666667 17.8060499,3.66666667"/>
        <path fill="#D9D9D9" d="M22.8994905,3.49066667 L0.6719381,3.49066667 C0.300772292,3.49066667 0,2.66346667 0,1.64266667 L0,1.64266667 L23.5714286,1.64266667 C23.5714286,2.66346667 23.2706563,3.49066667 22.8994905,3.49066667"/>
      </g>
      <g transform="translate(3 22)">
        <path fill="#F1F1F1" d="M2.5679499,0.392198895 C2.75805067,0.144631486 3.04797025,0 3.35442032,0 L16.6525734,0 C16.9520298,0 17.2355914,0.137465061 17.4250564,0.374608579 L19.7730235,3.3056764 C19.9198906,3.48874598 20,3.71872307 20,3.95586659 L20,9.97520123 C20,10.5413488 19.5524049,11 19.0005404,11 L1.00009537,11 C0.44759513,11 0,10.5413488 0,9.97520123 L0,3.94283673 C0,3.71351113 0.0750230473,3.49070046 0.213624948,3.31023685 L2.5679499,0.392198895 Z" transform="rotate(-180 10 5.5)"/>
        <path fill="#D6D6D6" d="M14.918772,4.68875 C14.918772,4.46141667 15.0869843,4.24054167 15.2264151,4.06164583 L18.1621362,0.455958333 C18.3527343,0.210541667 18.6910777,0 19,0 L16.8145187,0 C16.5055964,0 16.2139431,0.210541667 16.0233451,0.455958333 L13.1746083,4.0280625 C13.0351775,4.20695833 13,4.46141667 13,4.68875 L13,9.849125 C13,10.4103542 13.3696834,11 13.9248481,11 L16.1103294,11 C15.5545251,11 14.918772,10.4103542 14.918772,9.849125 L14.918772,4.68875 Z" transform="rotate(-180 16 5.5)"/>
        <path fill="#D6D6D6" d="M4.3565985,1.07123913 C4.32125394,1.02584783 4.26730697,1 4.21087968,1 L1.18674899,1 C1.03048881,1 0.94367759,1.18345652 1.04103017,1.30765217 L3.23859407,4.10047826 C3.26463743,4.1338913 3.27951936,4.1755 3.27951936,4.21836957 L3.27951936,9.81023913 C3.27951936,9.9148913 3.36261009,10 3.46554339,10 L6.81335589,10 C6.91628919,10 7,9.9148913 7,9.81023913 L7,4.45415217 C7,4.25934783 6.93055103,4.07147826 6.80467477,3.92458696 L4.3565985,1.07123913 Z" transform="rotate(-180 4 5.5)"/>
        <path fill="#C7C7C7" d="M1.08916708,7.56227967 C0.887324727,7.34312573 1.05028002,7 1.35643845,7 L4.00199295,7 C4.14334432,7 4.27790589,7.05816686 4.37111138,7.15922444 L7,10 C7,10 5.03959844,9.94242068 3.28659452,9.94242068 L1.08916708,7.56227967 Z" transform="rotate(-180 4 8.5)"/>
      </g>
    </g>
  </g>
</svg>
