<?xml version="1.0" encoding="UTF-8"?>
<svg width="130px" height="85px" viewBox="0 0 130 85" version="1.1" xmlns="http://www.w3.org/2000/svg" xmlns:xlink="http://www.w3.org/1999/xlink">
    <!-- Generator: Sketch 64 (93537) - https://sketch.com -->
    <title>Colillas de cigarro</title>
    <desc>Created with Sketch.</desc>
    <defs>
        <polygon id="path-1" points="0 0.8121 72.559 0.8121 72.559 6 0 6"></polygon>
        <polygon id="path-3" points="0.951595121 0.588 21.5804049 0.588 21.5804049 10.9576118 0.951595121 10.9576118"></polygon>
    </defs>
    <g id="Colillas-de-cigarro" stroke="none" stroke-width="1" fill="none" fill-rule="evenodd">
        <rect id="Rectangle-Copy-20" fill="#8E968B" fill-rule="nonzero" x="26" y="0" width="85" height="85" rx="8"></rect>
        <g id="Group-55" transform="translate(32.000000, 13.000000)">
            <g id="Group-3" transform="translate(0.000000, 53.412300)">
                <mask id="mask-2" fill="white">
                    <use xlink:href="#path-1"></use>
                </mask>
                <g id="Clip-2"></g>
                <path d="M0,3.4061 C0,4.8391 16.243,6.0001 36.279,6.0001 C56.316,6.0001 72.559,4.8391 72.559,3.4061 C72.559,1.9731 56.316,0.8121 36.279,0.8121 C16.243,0.8121 0,1.9731 0,3.4061" id="Fill-1" fill="#61705A" mask="url(#mask-2)"></path>
            </g>
            <path d="M44,1.7085 C46.056,0.9925 59.243,15.7445 51.03,18.7315 C42.816,21.7175 52.004,22.3895 49.168,22.7625 C46.331,23.1355 45.86,26.0845 47.068,26.4585 C48.275,26.8315 50.554,28.3055 44.58,28.6795 C38.607,29.0525 46.466,30.4405 44.6,31.5615 C42.733,32.6815 49.784,31.3315 41.975,35.3315 L15.124,35.3315 C15.124,35.3315 23.711,34.6095 20.725,31.2485 C17.738,27.8885 25.265,31.2615 23.928,30.1415 C22.591,29.0215 18.485,27.9075 20.725,26.7875 C22.965,25.6675 20.412,22.4965 23.928,22.4965 C27.445,22.4965 21.532,21.4015 23.928,19.9435 C26.325,18.4855 22.218,15.5455 26.325,13.6785 C30.432,11.8125 12.02,12.8385 44,1.7085" id="Fill-4" fill="#F2F2F2"></path>
            <path d="M44.5804,28.6793 C50.5544,28.3063 48.2754,26.8313 47.0674,26.4583 C45.8604,26.0843 46.3314,23.1353 49.1674,22.7623 C52.0044,22.3893 42.8164,21.7183 51.0294,18.7313 C59.2434,15.7443 46.0564,0.9933 44.0004,1.7083 C12.0194,12.8383 30.4314,11.8593 26.3254,13.7263 C22.2184,15.5933 26.3254,18.5803 23.9284,20.0383 C21.5314,21.4963 27.4454,22.6863 23.9284,22.6863 C20.4114,22.6863 22.9644,26.0473 20.7244,27.1673 C20.2244,27.4173 20.0764,27.6873 20.1074,27.9663 C20.3054,28.2453 20.4864,28.5213 20.7084,28.8013 C21.5934,29.5313 23.1804,30.2743 23.9284,30.9003 C24.3924,31.2893 23.7814,31.2273 22.9184,31.1223 C27.1084,34.9273 34.1404,37.8413 45.7124,35.8333 C45.9354,34.5693 43.3834,33.8093 44.5994,33.0793 C46.4664,31.9593 38.6064,29.0523 44.5804,28.6793" id="Fill-6" fill="#F7931E"></path>
            <path d="M44.5997,31.5611 C45.8007,30.8411 42.9897,30.1421 42.4127,29.0931 C41.7317,29.3491 40.8737,29.8941 39.6777,29.8521 C33.8237,29.6421 45.2567,32.7051 40.5277,33.5941 C38.3277,34.0081 38.4127,35.3311 38.4577,35.3311 L41.9747,35.3311 C49.7847,31.3311 42.7327,32.6811 44.5997,31.5611" id="Fill-8" fill="#D87819"></path>
            <path d="M39.6918,3.2493 C39.8358,3.8573 40.3128,4.5273 41.2898,5.2643 C41.2898,5.2643 52.2118,17.0743 47.4398,17.4913 C42.6678,17.9073 45.6578,20.5643 44.1338,21.0473 C42.6108,21.5303 38.2148,22.6943 41.5108,24.5613 C43.4428,25.6553 44.4428,27.4733 43.7998,28.7593 C44.0338,28.7273 44.2778,28.6983 44.5808,28.6793 C50.5538,28.3063 48.2748,26.8313 47.0678,26.4583 C45.8598,26.0843 46.3308,23.1353 49.1678,22.7623 C52.0038,22.3893 42.8158,21.7183 51.0298,18.7313 C59.2438,15.7443 46.0558,0.9933 43.9998,1.7083 C42.4348,2.2533 41.0238,2.7613 39.6918,3.2493" id="Fill-10" fill="#D87819"></path>
            <g id="Group-14" transform="translate(23.000000, 0.412300)">
                <mask id="mask-4" fill="white">
                    <use xlink:href="#path-3"></use>
                </mask>
                <g id="Clip-13"></g>
                <path d="M0.9955,10.5415 C1.5165,11.6635 6.5375,10.4385 12.2095,7.8045 C17.8815,5.1705 22.0575,2.1255 21.5365,1.0035 C21.0155,-0.1185 15.9945,1.1075 10.3225,3.7405 C4.6505,6.3745 0.4745,9.4195 0.9955,10.5415" id="Fill-12" fill="#FFAA55" mask="url(#mask-4)"></path>
            </g>
            <path d="M24.0653,56.2516 C24.0653,56.2516 20.7443,47.9626 18.0123,50.0096 C15.2803,52.0566 17.0623,53.2876 17.0623,53.2876 C17.0623,53.2876 15.1803,52.1606 15.4793,54.8466 C11.5463,55.0436 1.4893,55.7176 24.0653,56.2516" id="Fill-15" fill="#4D4D4D"></path>
            <path d="M41.9748,35.331 C41.9748,35.331 44.4328,38.529 43.3128,39.276 C42.1918,40.023 45.0178,54.969 43.6048,55.342 C42.1918,55.716 33.8578,55.815 18.6718,55.722 C17.3648,48.255 17.7378,40.766 16.4308,38.713 C15.1248,36.659 16.4308,35.331 19.2318,35.331 L41.9748,35.331 Z" id="Fill-17" fill="#F2F2F2"></path>
            <path d="M18.3606,52.3057 C18.3606,52.3057 36.9896,48.0497 43.9776,53.2887 C34.0406,55.0437 18.6716,56.1017 18.6716,56.1017 L18.3606,52.3057 Z" id="Fill-19" fill="#CCCCCC"></path>
            <path d="M25.0182,34.4472 C25.0182,34.4472 13.3042,33.1012 18.0412,37.3212 C24.8312,37.0602 25.0182,34.4472 25.0182,34.4472" id="Fill-21" fill="#F2F2F2"></path>
            <path d="M25.0182,34.4472 C25.0182,34.4472 13.3042,33.1012 18.0412,37.3212 C24.8312,37.0602 25.0182,34.4472 25.0182,34.4472" id="Fill-23" fill="#F2F2F2"></path>
            <path d="M48.5036,19.3182 C48.0756,19.0872 35.2676,15.9322 39.5766,18.3952 C43.8866,20.8572 54.1986,22.3962 48.5036,19.3182" id="Fill-25" fill="#D87819"></path>
            <path d="M45.5168,22.305 C45.0888,22.074 32.2808,18.919 36.5898,21.382 C40.8998,23.844 51.2118,25.383 45.5168,22.305" id="Fill-27" fill="#D87819"></path>
            <path d="M41.6699,28.0321 C41.0099,28.0071 22.0829,26.7341 28.3699,28.9591 C37.0219,32.0201 59.3039,28.7121 41.6699,28.0321" id="Fill-29" fill="#A05A1C"></path>
            <path d="M45.1199,32.8699 C44.6219,32.7739 27.9619,33.4829 32.9879,34.5439 C38.0129,35.6059 51.7419,34.1469 45.1199,32.8699" id="Fill-31" fill="#A05A1C"></path>
            <path d="M27.1462,13.7264 L37.0222,16.8294 C37.0222,16.8294 26.2092,17.7354 27.1462,13.7264" id="Fill-33" fill="#D87819"></path>
            <path d="M25.0182,21.0322 C25.0182,21.0322 45.1172,25.1752 40.8852,25.1752 C36.6542,25.1752 25.3422,23.9352 25.0182,21.0322" id="Fill-35" fill="#D87819"></path>
            <path d="M21.7927,25.139 C21.7927,25.139 23.3357,28.868 25.7967,29.614 C28.2577,30.359 21.2977,24.137 21.7927,25.139" id="Fill-37" fill="#D87819"></path>
            <path d="M41.8559,40.8563 C41.8559,40.8563 19.1069,46.3323 26.3249,46.3323 C33.5429,46.3323 46.3989,39.7183 41.8559,40.8563" id="Fill-39" fill="#CCCCCC"></path>
            <path d="M33.543,46.3321 C33.543,46.3321 28.316,48.0741 28.441,49.6921 C28.565,51.3101 36.281,46.2081 33.543,46.3321" id="Fill-41" fill="#CCCCCC"></path>
            <path d="M19.1069,40.7246 C19.1069,40.7246 31.7009,41.8516 27.1459,42.2256 C22.5919,42.5986 16.4889,40.4686 19.1069,40.7246" id="Fill-43" fill="#CCCCCC"></path>
            <path d="M23.308,34.9105 C23.308,34.9105 31.865,38.3675 29.966,38.3675 C28.067,38.3675 25.891,37.0535 23.308,34.9105" id="Fill-45" fill="#CCCCCC"></path>
            <path d="M43.9777,53.2889 C38.2127,53.3659 24.8157,53.7989 20.9657,54.7949 C17.1157,55.7899 18.6717,56.1009 18.6717,56.1009 C18.6717,56.1009 28.4387,56.7859 43.6047,56.1009 C43.9777,53.2889 44.6867,53.2799 43.9777,53.2889" id="Fill-47" fill="#4D4D4D"></path>
            <path d="M39.6918,56.2516 C39.6918,56.2516 43.0128,47.9626 45.7448,50.0096 C48.4768,52.0566 46.6948,53.2876 46.6948,53.2876 C46.6948,53.2876 48.5768,52.1606 48.2778,54.8466 C52.2108,55.0436 62.2678,55.7176 39.6918,56.2516" id="Fill-49" fill="#4D4D4D"></path>
            <path d="M25.8583,54.4024 C25.8583,54.4024 18.8083,50.8074 18.5683,54.4024 L18.7073,56.1014 L25.8583,54.4024 Z" id="Fill-51" fill="#4D4D4D"></path>
            <path d="M56.6435,57.0714 C56.6435,57.0714 53.1515,47.5144 45.9835,51.3134 C38.8145,55.1114 40.0435,56.7334 40.0435,56.7334 L56.6435,57.0714 Z" id="Fill-53" fill="#61705A"></path>
        </g>
    </g>
</svg>