<?xml version="1.0" encoding="UTF-8"?>
<svg width="130px" height="85px" viewBox="0 0 130 85" version="1.1" xmlns="http://www.w3.org/2000/svg" xmlns:xlink="http://www.w3.org/1999/xlink">
    <!-- Generator: Sketch 64 (93537) - https://sketch.com -->
    <title>icompostables</title>
    <desc>Created with Sketch.</desc>
    <defs>
        <polygon id="path-1" points="0 0.6804 5.72681447 0.6804 5.72681447 10.2434 0 10.2434"></polygon>
        <polygon id="path-3" points="0.0556 0.456 49.8798191 0.456 49.8798191 50.813033 0.0556 50.813033"></polygon>
    </defs>
    <g id="icompostables" stroke="none" stroke-width="1" fill="none" fill-rule="evenodd">
        <g id="Group-4" transform="translate(34.733600, 20.961900)">
            <path d="M8.10018719e-13,50.9799 C8.10018719e-13,52.5009 15.894,53.7349 35.5,53.7349 C55.105,53.7349 70.999,52.5009 70.999,50.9799 C70.999,49.4589 55.105,48.2249 35.5,48.2249 C15.894,48.2249 8.10018719e-13,49.4589 8.10018719e-13,50.9799" id="Fill-1" fill="#5B5540"></path>
            <path d="M34.8386,46.8442 C34.8386,48.1692 42.9336,49.2442 52.9186,49.2442 C62.9046,49.2442 70.9996,48.1692 70.9996,46.8442 C70.9996,45.5192 62.9046,44.4442 52.9186,44.4442 C42.9336,44.4442 34.8386,45.5192 34.8386,46.8442" id="Fill-5" fill="#5B5540"></path>
            <path d="M45.9791,52.7347 C45.9791,54.1207 52.1851,55.2447 59.8401,55.2447 C67.4951,55.2447 73.7011,54.1207 73.7011,52.7347 C73.7011,51.3487 67.4951,50.2247 59.8401,50.2247 C52.1851,50.2247 45.9791,51.3487 45.9791,52.7347" id="Fill-7" fill="#5B5540"></path>
            <path d="M13.9733,52.7347 C13.9733,54.1207 21.5223,55.2447 30.8353,55.2447 C40.1473,55.2447 47.6963,54.1207 47.6963,52.7347 C47.6963,51.3487 40.1473,50.2247 30.8353,50.2247 C21.5223,50.2247 13.9733,51.3487 13.9733,52.7347" id="Fill-9" fill="#5B5540"></path>
            <path d="M63.8457,-3.55271368e-15 C63.8457,-3.55271368e-15 65.9167,3.292 63.1117,4.567 C60.3077,5.842 59.1987,8.225 59.1987,8.225 L54.9217,8.225 C54.9217,8.225 60.2767,0.2 63.8457,-3.55271368e-15" id="Fill-61" fill="#C18421"></path>
            <path d="M63.3353,30.1453 C63.3353,30.1453 66.4403,36.3243 60.7953,38.3003 C58.6633,39.0463 54.8673,38.4573 51.7623,33.2193 C50.3513,42.7393 57.4073,46.7683 57.4073,46.7683 C57.4073,46.7683 67.2873,46.2043 68.6983,41.4053 C70.1093,36.6063 67.2873,32.9993 63.3353,30.1453" id="Fill-63" fill="#FED434"></path>
            <path d="M64.3384,30.9124 C64.0124,30.6514 63.6804,30.3944 63.3354,30.1454 C63.3354,30.1454 66.4404,36.3244 60.7944,38.3004 C58.6634,39.0464 54.8674,38.4564 51.7624,33.2194 C50.3514,42.7384 57.4074,46.7684 57.4074,46.7684 C57.4074,46.7684 62.0094,46.5024 65.3794,44.8094 C66.4914,40.6724 65.2904,34.5884 64.3384,30.9124" id="Fill-65" fill="#E8BB3A"></path>
            <path d="M58.9698,38.5576 C56.8508,38.4796 54.1088,37.1786 51.7628,33.2196 C50.9288,38.8426 53.0478,42.5376 54.9238,44.6306 C56.3648,43.4806 57.8828,40.6396 58.9698,38.5576" id="Fill-67" fill="#FED434"></path>
            <path d="M57.4077,7.3917 C57.4077,7.3917 64.7467,9.5087 60.0897,18.4007 C55.4317,27.2917 53.0327,29.2677 53.5967,35.1957 C54.1617,41.1227 56.7017,47.4737 62.9117,48.3207 C66.9797,48.8757 69.8967,49.1877 72.2587,48.4647 C72.8437,48.2857 73.2537,49.0287 72.8147,49.4547 C66.4777,55.5957 59.5837,56.5137 53.5157,53.6217 C46.5407,50.2967 45.9757,39.5707 45.9757,39.5707 C45.9757,39.5707 52.3267,3.1577 57.4077,7.3917" id="Fill-69" fill="#E09E1B"></path>
            <path d="M57.4077,7.3917 C57.4077,7.3917 48.3747,3.4397 43.0117,14.0247 C37.6487,24.6107 37.2257,35.0547 34.8257,38.5827 C32.4267,42.1107 25.0877,49.4497 9.8447,43.0987 C9.1397,43.3817 9.5627,50.0147 22.1237,52.6957 C34.6847,55.3777 43.1527,52.1317 46.2577,44.2277 C49.3627,36.3247 57.4077,7.3917 57.4077,7.3917" id="Fill-71" fill="#FED434"></path>
            <path d="M47.4699,46.3062 C48.1679,48.1452 49.1839,50.0452 50.6679,51.5622 C54.6959,52.9252 61.2979,53.1982 67.8769,48.8512 C66.4269,48.7772 64.7969,48.5782 62.9119,48.3212 C56.7019,47.4742 54.1619,41.1232 53.5969,35.1952 C53.4369,33.5102 53.5239,32.1472 53.8259,30.8512 C51.7349,35.7012 48.8029,42.6202 47.4699,46.3062" id="Fill-73" fill="#C18421"></path>
            <path d="M51.8834,26.6354 C52.4224,27.0074 63.1234,11.1694 57.4074,7.3914 C54.2824,18.4124 51.8834,26.6354 51.8834,26.6354" id="Fill-75" fill="#C18421"></path>
            <path d="M45.9758,39.5705 C45.9758,39.5705 42.1738,24.0105 39.4278,23.0385 C37.2438,30.0865 36.5288,36.0785 34.8258,38.5825 C33.9868,39.8165 32.5408,41.5155 30.3668,42.9325 C30.0728,47.0725 29.8108,51.1195 29.7158,53.6015 C37.3968,53.7175 42.8448,50.9455 45.5718,45.7265 C46.0428,42.3425 45.9758,39.5705 45.9758,39.5705" id="Fill-77" fill="#E8BB3A"></path>
            <path d="M40.0963,26.5475 C40.0963,26.5475 45.7013,39.6395 45.6443,36.9155 C45.5883,34.1905 40.5773,23.4735 40.0963,26.5475" id="Fill-79" fill="#C18421"></path>
        </g>
        <g id="Group-3" transform="translate(8.236200, 57.296460)">
            <path d="M-3.05533376e-13,14.4519396 C-3.05533376e-13,15.3709396 5.932,16.1159396 13.249,16.1159396 C20.566,16.1159396 26.497,15.3709396 26.497,14.4519396 C26.497,13.5329396 20.566,12.7879396 13.249,12.7879396 C5.932,12.7879396 -3.05533376e-13,13.5329396 -3.05533376e-13,14.4519396" id="Fill-3" fill="#5B5540"></path>
            <path d="M17.2228,2.67283961 C14.5738,5.07983961 8.2188,12.4908396 4.3838,10.8338396 C9.2228,15.6828396 15.9258,16.8098396 19.1828,13.3918396 C22.1518,10.2768396 21.2028,4.48883961 17.1698,0.004839605 C17.0438,-0.135160395 17.3548,2.80983961 17.2228,2.67283961" id="Fill-11" fill="#FFFFFF"></path>
            <path d="M11.738,0.844939605 C11.738,0.844939605 12.464,5.60793961 6.771,5.17793961 C8.771,7.53593961 6.9,11.1679396 4.384,10.7849396 C6.771,13.0789396 12.554,12.7599396 12.489,7.15293961 C17.585,8.36393961 19.414,3.96793961 17.157,0.016939605 C16.447,3.94893961 11.738,0.844939605 11.738,0.844939605" id="Fill-13" fill="#FED434"></path>
        </g>
        <path d="M140.1052,86.5443 C140.1052,86.5443 151.1092,50.9173 105.6672,45.3513 C104.7622,65.7733 116.0352,83.7973 140.1052,86.5443" id="Fill-15" fill="#0B6444"></path>
        <path d="M115.1177,0.437 C115.1177,0.437 114.3057,18.437 100.5547,15.937 C97.0557,5.687 105.6807,1.687 115.1177,0.437" id="Fill-19" fill="#9CD060"></path>
        <path d="M122.6543,38.7749 C122.6543,38.7749 127.0303,26.1119 107.1493,26.3669 C107.0443,39.8399 122.6543,38.7749 122.6543,38.7749" id="Fill-21" fill="#FBB03B"></path>
        <g id="Group-25" transform="translate(0.000000, 8.544300)">
            <mask id="mask-2" fill="white">
                <use xlink:href="#path-1"></use>
            </mask>
            <g id="Clip-24"></g>
            <path d="M3.9198,10.2434 C3.9198,10.2434 9.3988,6.3984 1.2758,0.6804 C-2.7112,6.1034 3.9198,10.2434 3.9198,10.2434" id="Fill-23" fill="#FBB03B" mask="url(#mask-2)"></path>
        </g>
        <g id="Group" transform="translate(9.016200, 0.199600)">
            <path d="M50.9193,2.475 C49.0833,4.702 47.2273,6.869 45.2893,9.008 C44.3193,10.075 43.3313,11.13 42.2813,12.163 C41.7533,12.68 41.2123,13.189 40.6053,13.691 C40.2843,13.944 39.9893,14.19 39.5573,14.449 C39.4683,14.509 39.3193,14.582 39.1923,14.645 L38.9573,14.756 C38.7723,14.844 38.7693,14.854 38.6233,14.934 C38.0963,15.249 37.5293,15.653 36.9763,16.06 C36.4213,16.47 35.8673,16.897 35.3163,17.332 C34.2143,18.201 33.1223,19.098 32.0363,20.004 C29.8663,21.818 27.7163,23.674 25.5923,25.547 L25.5923,25.547 L25.4043,25.718 L25.1923,25.75 L14.1263,27.435 L13.9513,26.451 L24.9213,24.225 L24.5213,24.427 L24.5213,24.427 C26.5143,22.385 28.5243,20.371 30.5733,18.38 C31.5993,17.386 32.6323,16.398 33.6933,15.426 C34.2233,14.939 34.7603,14.456 35.3143,13.98 C35.8723,13.502 36.4283,13.033 37.0873,12.567 C37.4513,12.303 37.9823,12.041 38.0033,11.999 C38.1743,11.88 38.4173,11.657 38.6373,11.453 C39.0933,11.013 39.5543,10.513 40.0053,10 C40.9073,8.97 41.7843,7.881 42.6463,6.778 C44.3663,4.57 46.0443,2.286 47.6583,5.32907052e-15 L50.9193,2.475 Z" id="Fill-26" fill="#EFDFAC"></path>
            <path d="M34.9928,17.8633 L31.0578,30.0913 L30.9958,30.2833 L30.9178,30.3453 L30.9178,30.3453 C28.1808,33.0403 25.4738,35.7853 22.8978,38.6253 C22.2568,39.3373 21.6238,40.0563 21.0218,40.7923 C20.7218,41.1603 20.4248,41.5313 20.1498,41.9093 C19.8808,42.2823 19.6058,42.6793 19.4428,43.0383 C19.2848,43.4263 19.1008,43.9433 18.8858,44.3843 C18.6778,44.8353 18.4508,45.2743 18.2088,45.7043 C17.7238,46.5663 17.2008,47.3833 16.6028,48.1893 L15.8088,47.5823 C16.3588,46.8403 16.8778,46.0323 17.3368,45.2153 C17.5678,44.8053 17.7828,44.3883 17.9778,43.9643 C18.1848,43.5373 18.3208,43.1443 18.5258,42.6403 C18.7638,42.1213 19.0518,41.7283 19.3418,41.3203 C19.6338,40.9183 19.9398,40.5373 20.2478,40.1583 C20.8668,39.4033 21.5068,38.6753 22.1548,37.9553 C24.7568,35.0863 27.4658,32.3413 30.2198,29.6293 L30.2198,29.6293 L30.0798,29.8833 L31.4508,17.1113 L34.9928,17.8633 Z" id="Fill-28" fill="#EFDFAC"></path>
            <polygon id="Fill-30" fill="#EFDFAC" points="22.7643 38.3995 23.9973 44.4055 21.8603 38.6585"></polygon>
            <polygon id="Fill-32" fill="#EFDFAC" points="20.6044 26.5321 17.5034 31.7611 17.3844 31.9621 17.1894 32.0151 13.6694 32.9701 13.4084 32.0051 16.9274 31.0501 16.6144 31.3031 19.0824 25.7461"></polygon>
            <path d="M33.3214,19.2212 C31.4864,19.0422 29.6564,18.9322 27.8264,18.8332 C25.9964,18.7322 24.1694,18.6872 22.3404,18.6112 L22.2614,18.6102 C20.2354,18.3072 18.2044,18.0512 16.1544,17.9852 L16.2564,16.9902 C18.2774,17.3402 20.3174,17.5002 22.3634,17.6152 L22.2834,17.6132 C24.0914,17.3292 25.9014,17.0752 27.7074,16.7672 C29.5144,16.4592 31.3204,16.1412 33.1224,15.7532 L33.3214,19.2212 Z" id="Fill-34" fill="#EFDFAC"></path>
            <polygon id="Fill-36" fill="#EFDFAC" points="14.5119 46.5905 11.8389 48.0515 11.9759 47.9415 6.0619 54.1045 5.9379 53.9965 11.2219 47.2855 11.2709 47.2225 11.3589 47.1745 14.0319 45.7135"></polygon>
            <polygon id="Fill-38" fill="#EFDFAC" points="15.539 26.2374 12.539 25.9874 12.82 25.9004 3.34843264e-13 34.0284 12.258 25.0744 12.355 25.0024 12.539 24.9874 15.539 24.7374"></polygon>
            <polygon id="Fill-40" fill="#EFDFAC" points="0.5434 28.3625 7.7954 27.9865 7.7434 29.4855 0.5344 28.6125"></polygon>
            <polygon id="Fill-42" fill="#EFDFAC" points="14.7709 32.7218 14.0389 35.9878 13.7729 32.6518"></polygon>
            <polygon id="Fill-44" fill="#EFDFAC" points="15.2875 20.5213 19.5475 17.2873 20.1405 18.0923 15.7905 21.2033"></polygon>
            <line x1="14.2721" y1="23.4318" x2="16.2061" y2="26.9428" id="Stroke-46" stroke="#EFDFAC"></line>
        </g>
        <path d="M29.9967,21.9404 C29.9967,21.9404 30.8177,12.0934 16.6557,15.8974 C19.0347,25.5454 29.9967,21.9404 29.9967,21.9404" id="Fill-48" fill="#F7931E"></path>
        <g id="Group-2" transform="translate(41.000000, 0.544300)">
            <path d="M14.7555,51.6427 C14.7555,51.6427 12.1215,51.2007 11.4985,50.7407 C10.8755,50.2797 36.9825,3.7727 36.9825,3.7727 L39.1385,0.6427 L41.0755,0.6427 L42.2195,1.3857 L40.0185,2.5047 C40.0185,2.5047 42.7475,1.9207 43.2755,2.3607 C43.8045,2.8007 43.8045,4.7967 44.6845,5.1497 C45.5645,5.5017 46.8845,5.9277 46.8845,5.9277 C46.8845,5.9277 44.5665,6.8007 45.7695,6.8887 C46.9725,6.9767 47.9415,6.9727 48.0295,7.4137 C48.1175,7.8537 47.6775,8.4677 48.4695,8.9077 C49.2615,9.3477 52.6945,12.3397 52.6945,13.9247 C52.5185,15.0687 52.5185,15.0687 52.5185,15.0687 C52.5185,15.0687 51.0225,14.1877 50.9345,14.8917 C50.8465,15.5967 49.8795,16.1247 49.8795,16.1247 C49.8795,16.1247 26.8155,41.0357 25.8465,41.4757 C24.8785,41.9157 24.3505,42.2677 24.0425,42.5317 C23.7345,42.7957 14.7555,51.6427 14.7555,51.6427" id="Fill-50" fill="#684F2B"></path>
            <g id="Group-54">
                <mask id="mask-4" fill="white">
                    <use xlink:href="#path-3"></use>
                </mask>
                <g id="Clip-53"></g>
                <path d="M11.5866,50.8065 C11.5866,50.8065 7.5376,47.9015 7.8896,47.2855 C8.2416,46.6695 9.1216,45.7015 8.4176,45.7015 C7.7136,45.7015 7.0096,45.5245 7.1856,45.1725 C7.3616,44.8205 10.8826,41.1235 8.9456,42.0915 C7.0096,43.0605 5.0726,44.7325 5.1606,44.2925 C5.2486,43.8525 4.4566,42.8845 3.7526,42.6205 C3.0476,42.3565 0.0556,37.7785 0.0556,37.7785 C0.5836,37.3385 28.3116,10.4905 32.9766,6.1775 C37.6426,1.8645 38.7866,0.4555 39.1386,0.4555 C39.4906,0.4555 40.2826,1.4245 40.2826,1.4245 C40.2826,1.4245 37.8186,3.7125 38.4346,3.3605 C39.0506,3.0085 41.5156,2.3925 42.0436,3.0085 C42.5716,3.6245 42.8356,5.1215 42.6596,6.0895 C42.4836,7.0575 44.4206,6.8815 44.4206,6.8815 C44.4206,6.8815 38.8746,12.8675 41.4276,10.9305 C43.9796,8.9945 46.4446,8.2905 46.4446,8.2905 C46.4446,8.2905 45.4766,9.3465 46.4446,9.6105 C47.4126,9.8745 49.9656,12.1635 49.8776,12.8675 C49.7896,13.5715 32.1846,31.7925 30.4246,32.5855 C28.6636,33.3775 12.1256,51.2035 11.5866,50.8065" id="Fill-52" fill="#E8B65D" mask="url(#mask-4)"></path>
            </g>
            <line x1="15.7926" y1="42.0919" x2="41.7796" y2="15.3319" id="Stroke-55" stroke="#BC8C3F" stroke-width="1.078"></line>
            <line x1="5.9337" y1="40.6835" x2="18.9267" y2="27.3035" id="Stroke-57" stroke="#BC8C3F" stroke-width="1.078"></line>
            <line x1="28.4683" y1="13.9237" x2="39.1593" y2="2.9147" id="Stroke-59" stroke="#BC8C3F" stroke-width="1.078"></line>
        </g>
        <path d="M127.1497,24.437 C127.1497,24.437 117.0547,22.838 121.0547,10.262 C134.3047,15.187 127.1497,24.437 127.1497,24.437" id="Fill-17" fill="#DFF1D1"></path>
    </g>
</svg>