<svg xmlns="http://www.w3.org/2000/svg" width="130" height="85" viewBox="0 0 130 85">
    <g fill="none" fill-rule="evenodd">
        <rect width="85" height="85" x="26" fill="#5BA95B" fill-rule="nonzero" rx="8"/>
        <g>
            <path fill="#3C7C47" d="M.633 64.555c0 1.48 19.7 2.682 44 2.682 24.301 0 44-1.201 44-2.682 0-1.481-19.699-2.682-44-2.682-24.3 0-44 1.2-44 2.682" transform="translate(18 8)"/>
            <path fill="#3C7C47" d="M22.166 68.082c0 1.481 6.77 2.682 15.123 2.682 8.352 0 15.123-1.2 15.123-2.682S45.642 65.4 37.29 65.4s-15.123 1.2-15.123 2.682M58.254 67.707c0 1.274 6.771 2.307 15.124 2.307 8.352 0 15.123-1.033 15.123-2.307S81.731 65.4 73.378 65.4s-15.124 1.033-15.124 2.307" transform="translate(18 8)"/>
            <path fill="#F2F2F2" d="M44.772 2.436L55.146 2.436 55.146 0 44.772 0z" transform="translate(18 8)"/>
            <path fill="#CCC" d="M45.904 2.436L56.278 2.436 56.278 0 45.904 0z" transform="translate(18 8)"/>
            <path fill="#999" d="M51.839 2.436L56.278 2.436 56.278 0 51.839 0z" transform="translate(18 8)"/>
            <path fill="#D13100" d="M51.673 64.301h27.084c.697 0 1.262-.565 1.262-1.262V2.387c0-.697-.565-1.262-1.262-1.262H51.673c-.697 0-1.262.565-1.262 1.262V63.04c0 .697.565 1.262 1.262 1.262" transform="translate(18 8)"/>
            <path fill="#B71A00" d="M75.745 3.143l-.778 60.981h3.258c.904 0 1.636-.733 1.636-1.636V3.002l-4.116.141z" transform="translate(18 8)"/>
            <path fill="#630E00" d="M70.503 1.125l3.945 7.992c.665 1.346 2.188 1.241 2.742-.19l2.617-6.764c.192-.494-.147-1.038-.646-1.038h-8.658z" transform="translate(18 8)"/>
            <path fill="#961C00" d="M71.082 1.125l3.945 7.992c.665 1.346 2.188 1.241 2.742-.19l2.617-6.764c.192-.494-.147-1.038-.646-1.038h-8.658z" transform="translate(18 8)"/>
            <path fill="#E8502D" d="M43.336 64.301H69.22c1.03 0 1.862-.833 1.862-1.862V2.987c0-1.029-.833-1.862-1.862-1.862H43.336c-1.028 0-1.862.833-1.862 1.862V62.44c0 1.03.834 1.862 1.862 1.862" transform="translate(18 8)"/>
            <path fill="#961C00" d="M44.883 31.015h-4v31.319c0 1.08 1.46 1.68 2.538 1.68h7.462V38.93l-6-4.08v-3.834z" transform="translate(18 8)"/>
            <path fill="#D13100" d="M41.475 2.294L71.083 2.294 71.083 1.125 41.475 1.125z" transform="translate(18 8)"/>
            <path fill="#961C00" d="M41.475 2.294L47.744 2.294 47.744 1.125 41.475 1.125z" transform="translate(18 8)"/>
            <path fill="#D36900" d="M17.756 64.211l17.88-.205c.785-.009 1.415-.654 1.406-1.439l-.54-42.002c-.009-.786-.66-2.098-2.803-2.074l-17.88.205c.571-.006-.059.638-.05 1.424l.548 42.684c.01.786.653 1.416 1.44 1.407" transform="translate(18 8)"/>
            <path fill="#A54E00" d="M15.64 8.813L32.746 8.617 36.503 20.565 15.778 20.803z" transform="translate(18 8)"/>
            <path fill="#FF9022" d="M9.921 64.301l17.422-.2c.448-.005.807-.372.802-.82l-.562-43.909c-.005-.447-.372-.806-.82-.801L7.674 20.085c-.447.005-.806.372-.8.82L7.4 61.838c.016 1.376 1.145 2.479 2.521 2.463" transform="translate(18 8)"/>
            <path fill="#FCA454" d="M12.021 8.855L32.746 8.617 27.599 20.668 6.873 20.906z" transform="translate(18 8)"/>
            <path fill="#4067BC" d="M16.07 13.632c.023 2.018 1.802 3.633 3.974 3.608 2.172-.025 3.914-1.681 3.89-3.698-.023-2.018-1.802-3.633-3.974-3.608-2.171.024-3.913 1.68-3.89 3.698" transform="translate(18 8)"/>
            <path fill="#537AD6" d="M16.053 13.252c.205 1.54 2.057 2.564 4.137 2.288 2.08-.277 3.6-1.75 3.395-3.29-.205-1.54-2.057-2.564-4.137-2.288-2.08.277-3.6 1.75-3.395 3.29" transform="translate(18 8)"/>
            <path fill="#D36900" d="M36.502 20.565L30.026 14.893 32.742 8.301z" transform="translate(18 8)"/>
            <path fill="#A54E00" d="M43.447 37.952l-5.88-3.45-6.717.08-5.967 3.48v-.028l-.114.071h.114v24.274c0 1.376 1.434 2.635 2.811 2.635h13.13c1.376 0 3.06-1.259 3.06-2.635V38.061l-.437-.109z" transform="translate(18 8)"/>
            <path fill="#724137" d="M65.276 68.989h14.316v-28.18H65.2c-.549 0-.994.445-.994.994v26.116c0 .59.48 1.07 1.07 1.07" transform="translate(18 8)"/>
            <path fill="#F4C995" d="M83.498 68.989h-3.906v-28.18h3.865c.591 0 1.07.48 1.07 1.07v26.08c0 .569-.46 1.03-1.029 1.03" transform="translate(18 8)"/>
            <path fill="#D8AC7C" d="M82.748 40.81c-.64-.017-1.168.519-1.168 1.187v26.992h.281c1.549 0 2.805.344 2.805-2.534V42.019c0-.644-.492-1.171-1.109-1.187l-.809-.022z" transform="translate(18 8)"/>
            <path fill="#190707" d="M78.93 40.81l2.007 4.172c.338.703 1.113.648 1.394-.099l1.535-4.074H78.93z" transform="translate(18 8)"/>
            <path fill="#724137" d="M79.55 40.855l2.082 4.136c.35.697 1.123.627 1.391-.125l1.157-3.25c.147-.411-.164-.843-.6-.835l-4.03.074z" transform="translate(18 8)"/>
            <path fill="#FFF" d="M26.474 36.828H47.98v28.923c0 1.634-1.324 2.96-2.958 2.96h-15.59c-1.634 0-2.958-1.326-2.958-2.96V36.828z" transform="translate(18 8)"/>
            <path fill="#E6E6E6" d="M27.82 37.202l20.026-.194.28 28.922c.016 1.634-1.296 2.97-2.93 2.987l-14.11.137c-1.634.015-2.97-1.296-2.987-2.93l-.28-28.922z" transform="translate(18 8)"/>
            <path fill="#CCC" d="M45.883 65.017V37.015h2v28.002c0 1.843-1.166 3.998-3.017 3.998h-2.545c1.849 0 3.563-2.155 3.563-3.998" transform="translate(18 8)"/>
            <path fill="#F2F2F2" d="M29.884 65.017V37.015h-2v28.002c0 1.843 1.22 3.998 3.07 3.998h2.547c-1.85 0-3.617-2.155-3.617-3.998" transform="translate(18 8)"/>
            <path fill="#4067BC" d="M32.04 32.678L42.414 32.678 42.414 28.91 32.04 28.91z" transform="translate(18 8)"/>
            <path fill="#537AD6" d="M32.04 32.678L39.113 32.678 39.113 28.91 32.04 28.91z" transform="translate(18 8)"/>
            <path fill="#92A9E1" d="M32.04 32.678L33.926 32.678 33.926 28.91 32.04 28.91z" transform="translate(18 8)"/>
            <path fill="#FFF" d="M33.094 32.717L41.009 32.64 47.844 36.725 26.339 36.933z" transform="translate(18 8)"/>
            <path fill="#E6E6E6" d="M40.459 33.015s5.03 4 5.194 4h2.515l-6.411-4h-1.298z" transform="translate(18 8)"/>
        </g>
    </g>
</svg>
