<?xml version="1.0" encoding="UTF-8"?>
<svg width="130px" height="85px" viewBox="0 0 130 85" version="1.1" xmlns="http://www.w3.org/2000/svg" xmlns:xlink="http://www.w3.org/1999/xlink">
    <!-- Generator: Sketch 64 (93537) - https://sketch.com -->
    <title>Ilustración Huesos</title>
    <desc>Created with Sketch.</desc>
    <defs>
        <polygon id="path-1" points="0.7317 0.8121 27.5367 0.8121 27.5367 6 0.7317 6"></polygon>
        <polygon id="path-3" points="0 0.159 59.269811 0.159 59.269811 55.0523111 0 55.0523111"></polygon>
        <polygon id="path-5" points="0.679 0.159 18.621 0.159 18.621 23.0569 0.679 23.0569"></polygon>
        <polygon id="path-7" points="0 0.159 59.269811 0.159 59.269811 55.0523111 0 55.0523111"></polygon>
        <polygon id="path-9" points="0.679 0.159 18.621 0.159 18.621 23.0569 0.679 23.0569"></polygon>
        <polygon id="path-11" points="0.7038 0.159 13.6578 0.159 13.6578 11.3763 0.7038 11.3763"></polygon>
    </defs>
    <g id="Ilustración-Huesos" stroke="none" stroke-width="1" fill="none" fill-rule="evenodd">
        <rect id="Rectangle-Copy-18" fill="#8E968B" fill-rule="nonzero" x="26" y="0" width="85" height="85" rx="8"></rect>
        <g id="Group-59" transform="translate(39.000000, 14.000000)">
            <g id="Group-3" transform="translate(23.000000, 52.841200)">
                <mask id="mask-2" fill="white">
                    <use xlink:href="#path-1"></use>
                </mask>
                <g id="Clip-2"></g>
                <path d="M0.7317,3.4061 C0.7317,4.8391 6.7317,6.0001 14.1337,6.0001 C21.5357,6.0001 27.5367,4.8391 27.5367,3.4061 C27.5367,1.9731 21.5357,0.8121 14.1337,0.8121 C6.7317,0.8121 0.7317,1.9731 0.7317,3.4061" id="Fill-1" fill="#61705A" mask="url(#mask-2)"></path>
            </g>
            <g id="Group-6" transform="translate(0.000000, 0.841200)">
                <mask id="mask-4" fill="white">
                    <use xlink:href="#path-3"></use>
                </mask>
                <g id="Clip-5"></g>
                <path d="M14.4641,27.472 C18.4971,29.829 26.4711,32.154 29.7881,39.763 C33.1051,47.373 29.4881,56.695 35.9741,54.805 C42.4611,52.915 38.5261,48.168 46.4661,44.623 C54.4051,41.079 61.4991,40.067 58.6131,31.672 C55.7271,23.277 45.4051,30.419 42.5001,29.506 C39.5961,28.593 23.1781,19.819 23.1641,15.607 C23.1501,11.395 20.4311,-1.987 12.6791,0.454 C4.9281,2.895 10.4991,12.355 7.1371,15.005 C3.7751,17.656 -1.6449,19.645 0.4801,24.158 C3.9411,31.506 10.6481,25.242 14.4641,27.472" id="Fill-4" fill="#FCEED6" mask="url(#mask-4)"></path>
            </g>
            <path d="M46.4656,45.4647 C50.4596,43.6817 54.2366,42.5377 56.6396,40.7737 C50.7236,42.5247 42.3426,43.3637 37.6986,48.2827 C34.8516,51.2997 35.2566,53.7177 36.5106,55.4577 C42.2036,53.4607 38.7686,48.9017 46.4656,45.4647" id="Fill-7" fill="#C9B8A1"></path>
            <g id="Group-11" transform="translate(12.000000, 0.841200)">
                <mask id="mask-6" fill="white">
                    <use xlink:href="#path-5"></use>
                </mask>
                <g id="Clip-10"></g>
                <path d="M11.164,15.6069 C11.15,11.3949 8.431,-1.9871 0.679,0.4539 C7.804,4.6169 6.996,6.7999 7.968,13.9209 C8.61,18.6239 14.611,21.5829 18.621,23.0569 C14.614,20.4109 11.171,17.5329 11.164,15.6069" id="Fill-9" fill="#C9B8A1" mask="url(#mask-6)"></path>
            </g>
            <path d="M8.2725,9.0267 C8.3285,11.8467 8.7185,14.5997 7.1375,15.8467 C4.5725,17.8697 0.8185,19.5097 0.1235,22.1767 C2.5135,22.7847 6.9865,20.4617 8.5315,17.3937 C9.5685,15.3347 9.1035,12.0447 8.2725,9.0267" id="Fill-12" fill="#C9B8A1"></path>
            <g id="Group-16" transform="translate(0.000000, 0.841200)">
                <mask id="mask-8" fill="white">
                    <use xlink:href="#path-7"></use>
                </mask>
                <g id="Clip-15"></g>
                <path d="M14.4641,27.472 C18.4971,29.829 26.4711,32.154 29.7881,39.763 C33.1051,47.373 29.4881,56.695 35.9741,54.805 C42.4611,52.915 38.5261,48.168 46.4661,44.623 C54.4051,41.079 61.4991,40.067 58.6131,31.672 C55.7271,23.277 45.4051,30.419 42.5001,29.506 C39.5961,28.593 23.1781,19.819 23.1641,15.607 C23.1501,11.395 20.4311,-1.987 12.6791,0.454 C4.9281,2.895 10.4991,12.355 7.1371,15.005 C3.7751,17.656 -1.6449,19.645 0.4801,24.158 C3.9411,31.506 10.6481,25.242 14.4641,27.472" id="Fill-14" fill="#FCEED6" mask="url(#mask-8)"></path>
            </g>
            <path d="M46.4656,45.4647 C50.4596,43.6817 54.2366,42.5377 56.6396,40.7737 C50.7236,42.5247 42.3426,43.3637 37.6986,48.2827 C34.8516,51.2997 35.2566,53.7177 36.5106,55.4577 C42.2036,53.4607 38.7686,48.9017 46.4656,45.4647" id="Fill-17" fill="#C9B8A1"></path>
            <g id="Group-21" transform="translate(12.000000, 0.841200)">
                <mask id="mask-10" fill="white">
                    <use xlink:href="#path-9"></use>
                </mask>
                <g id="Clip-20"></g>
                <path d="M11.164,15.6069 C11.15,11.3949 8.431,-1.9871 0.679,0.4539 C7.804,4.6169 6.996,6.7999 7.968,13.9209 C8.61,18.6239 14.611,21.5829 18.621,23.0569 C14.614,20.4109 11.171,17.5329 11.164,15.6069" id="Fill-19" fill="#C9B8A1" mask="url(#mask-10)"></path>
            </g>
            <path d="M8.2725,9.0267 C8.3285,11.8467 8.7185,14.5997 7.1375,15.8467 C4.5725,17.8697 0.8185,19.5097 0.1235,22.1767 C2.5135,22.7847 6.9865,20.4617 8.5315,17.3937 C9.5685,15.3347 9.1035,12.0447 8.2725,9.0267" id="Fill-22" fill="#C9B8A1"></path>
            <g id="Group-26" transform="translate(9.000000, 0.841200)">
                <mask id="mask-12" fill="white">
                    <use xlink:href="#path-11"></use>
                </mask>
                <g id="Clip-25"></g>
                <path d="M13.6578,11.3763 C12.5658,5.9193 9.5878,-1.4067 3.6798,0.4543 C2.3048,0.8873 1.3648,1.5483 0.7038,2.3453 C0.8518,2.3333 5.6658,1.9953 13.6578,11.3763" id="Fill-24" fill="#C9B8A1" mask="url(#mask-12)"></path>
            </g>
            <path d="M54.2348,42.1763 C58.1938,40.2483 60.4658,37.9053 58.6128,32.5133 C57.3868,28.9473 54.8178,28.1883 52.0468,28.4213 C52.0468,28.4213 59.2878,34.4183 54.2348,42.1763" id="Fill-27" fill="#C9B8A1"></path>
            <path d="M9.7844,18.9668 C9.5564,13.4438 4.6964,17.6198 5.9164,16.7338 C7.1374,15.8468 9.1264,13.7758 8.2724,9.0268 C7.2164,3.1528 12.8854,20.3888 9.7034,22.0298 C10.0554,21.7968 9.8304,20.0698 9.7844,18.9668" id="Fill-29" fill="#8C7D6B"></path>
            <path d="M50.5366,43.7706 C50.5366,43.7706 43.2366,45.7986 40.3386,48.6836 C37.4396,51.5696 39.1426,53.1826 39.9686,52.6346 C41.2086,51.8106 40.4496,49.5846 43.5606,47.3256 C46.6716,45.0676 50.5366,43.7706 50.5366,43.7706" id="Fill-31" fill="#8C7D6B"></path>
            <path d="M36.9292,30.2535 C36.9292,30.2535 40.4742,28.3095 42.2032,29.9515 C43.9322,31.5935 36.9292,30.2535 36.9292,30.2535" id="Fill-33" fill="#C9B8A1"></path>
            <path d="M23.7886,23.9441 C23.7886,23.9441 24.9376,26.0821 29.4126,28.4131 C33.8876,30.7431 22.8506,22.7801 23.7886,23.9441" id="Fill-35" fill="#C9B8A1"></path>
            <path d="M50.5908,32.0314 C50.5908,32.0314 52.0568,31.5184 53.0478,32.7394 C54.0398,33.9604 52.4978,35.7604 51.4988,36.0114 C50.4998,36.2634 49.1718,35.6154 49.2758,34.4934 C49.3788,33.3714 50.5908,32.0314 50.5908,32.0314" id="Fill-37" fill="#FFFFFF"></path>
            <path d="M47.8867,35.4546 C47.4897,35.7296 47.5437,35.8616 46.6337,36.3216 C45.7237,36.7806 44.2487,36.1866 45.7307,35.0156 C47.2127,33.8436 49.1397,34.5876 47.8867,35.4546" id="Fill-39" fill="#FFFFFF"></path>
            <path d="M43.1297,32.183 C41.9417,32.798 42.3257,33.279 43.0377,33.073 C43.7497,32.867 44.3177,31.568 43.1297,32.183" id="Fill-41" fill="#FFFFFF"></path>
            <path d="M55.1068,38.5582 C55.1068,38.5582 55.9918,36.5692 56.9528,36.0512 C57.9148,35.5322 57.5958,38.6762 56.5378,39.2662 C55.4798,39.8572 54.5028,39.6812 55.1068,38.5582" id="Fill-43" fill="#FFFFFF"></path>
            <path d="M25.3355,30.2073 C25.7495,30.3403 30.9845,35.5613 29.3575,35.3563 C27.7295,35.1513 23.4515,29.6043 25.3355,30.2073" id="Fill-45" fill="#FFFFFF"></path>
            <path d="M18.7603,27.2758 C18.9453,27.5628 23.1453,32.7398 24.1873,32.0278 C25.2303,31.3168 17.2603,24.9488 18.7603,27.2758" id="Fill-47" fill="#FFFFFF"></path>
            <path d="M12.6972,7.9311 C12.6972,7.9311 11.9322,10.5871 11.2912,9.7841 C10.6492,8.9821 8.8872,7.5981 10.2702,6.3661 C11.6532,5.1331 12.8962,7.3341 12.6972,7.9311" id="Fill-49" fill="#FFFFFF"></path>
            <path d="M23.0307,14.525 L19.6027,11.739 C19.6027,11.739 18.1307,26.232 36.9297,30.253 C40.5197,30.048 41.8017,30.166 42.2547,30.262 C38.7907,29.001 23.1777,20.556 23.1637,16.448 C23.1617,15.931 23.1187,15.273 23.0307,14.525" id="Fill-51" fill="#C9B8A1"></path>
            <path d="M9.5771,16.1035 C9.5771,16.1035 12.4881,20.5425 8.6391,23.3525 C4.7901,26.1625 0.5611,22.4885 3.0941,20.0025 C5.6271,17.5165 8.5921,15.1475 9.5771,16.1035" id="Fill-53" fill="#C9B8A1"></path>
            <path d="M13.4263,10.766 C13.7193,10.451 12.8883,9.244 13.9553,9.121 C15.0233,8.998 15.0943,10.049 14.8613,10.43 C14.6283,10.812 13.4263,10.766 13.4263,10.766" id="Fill-55" fill="#FFFFFF"></path>
            <path d="M5.4662,25.5505 C5.4662,25.5505 9.0572,25.4855 5.3892,23.8485 C1.7202,22.2115 3.5232,27.0775 5.4662,25.5505" id="Fill-57" fill="#8C7D6B"></path>
        </g>
    </g>
</svg>