<svg xmlns="http://www.w3.org/2000/svg" xmlns:xlink="http://www.w3.org/1999/xlink" width="311" height="149" viewBox="0 0 311 149">
    <defs>
        <path id="prefix__a" d="M0 0.261L311 0.261 311 135.261 0 135.261z"/>
    </defs>
    <g fill="none" fill-rule="evenodd">
        <rect width="310" height="135" y="10" fill="#08492C" fill-rule="nonzero" rx="16"/>
        <g transform="translate(0 10)"/>
        <path fill="#29ABE2" d="M176.217 102.745l-17.091-.158-6.426 15.181c-.614 1.172.022 2.611 1.303 2.944l6.871 1.791 15.343-19.758z"/>
        <path fill="#032D19" d="M164.647 132.087s11.768 14.425 9.87 15.564c-1.898 1.139-16.323-9.111-17.462-11.768-1.14-2.657 7.592-3.796 7.592-3.796"/>
        <path fill="#29ABE2" d="M161.989 115.677s-8.501 5.448-17.62 3.925c5.06 7.501 13.857 20.025 19.626 17.706 4.23-1.7-2.006-21.63-2.006-21.63"/>
        <path fill="#0D633E" d="M175.87 103.178s-9.257 2.5-14.505-.415c2.52-6.687 14.283-4.69 14.505.415"/>
        <path fill="#0D633E" d="M151.063 83.655s6.646-1.495 19.607.498c10.511 1.618 12.462 8.475 3.656 21.934l-12.96-3.323-18.943.997 8.64-20.106z"/>
        <path fill="#08492C" d="M157.375 94.754s10.333-1.334 8 .332c-2.333 1.668-8.667 2.335-8.667 2.335l.667-2.668z"/>
        <path fill="#0D633E" d="M148.727 72.047s4.532 16.331 7.199 22.51c2.668 6.177 11.704 20.974 3.096 26.872-8.608 5.9-19.074-1.163-22.156-16.532-1.446-7.21-3.677-7.548-6.49-9.56-3.78-2.704-7.625-5.375-2.625-13.875l20.976-9.415z"/>
        <path fill="#29ABE2" d="M156.375 79.42v3.833s-13.255 6.187-28.541-.79c-.188-3.626.559-4.956.559-4.956l27.982 1.913z"/>
        <path fill="#0D633E" d="M160.7 64.214s.343 12.206-3.322 14.955c-2.787 2.09-10.002 5.418-27.124.058-1.87-.585-3.126-2.352-3.108-4.311.084-8.492.638-14.73 1.139-18.714.36-2.862 3.09-4.797 5.91-4.188l28.832 6.218-2.326 5.982z"/>
        <path stroke="#0D633E" stroke-linecap="round" stroke-width="8.973" d="M129.125 56.837s-12 21-29.25 13.25M160.7 62.22s18.676 12.867 35.343 7.2"/>
        <path fill="#69B482" d="M155.895 61.453l-6.214 7.102c-3.55-4.883-7.546-10.653-7.546-10.653l13.76 3.551z"/>
        <path fill="#0D633E" d="M144.792 61.795s5.625 2.167 9.875 1.042l.875-.959-11.833-1.79 1.083 1.707z"/>
        <path fill="#08492C" d="M144.229 60.605l-1.926-.366c-8.033-1.527-13.847-8.55-13.847-16.727V32.015c0-7.775 5.267-14.562 12.798-16.493l.29-.075c12.634-3.239 25.927-2.823 38.333 1.201 7.02 2.276 11.774 8.816 11.774 16.196v9.752c0 7.578-5.01 14.245-12.29 16.354-11.416 3.308-23.454 3.875-35.132 1.655"/>
        <path fill="#69B482" d="M155.111 45.323l-1.376-.133c-5.738-.557-9.89-3.115-9.89-6.094v-4.188c0-2.832 3.761-5.305 9.141-6.008l.208-.027c9.024-1.18 18.52-1.03 27.382.437 5.015.83 8.411 3.212 8.411 5.9v3.553c0 2.76-3.578 5.189-8.778 5.957-8.157 1.205-16.756 1.412-25.098.603"/>
        <path fill="#29ABE2" d="M107.052 68.362s5 .375 5 4.375c0 2.366-.749 9.312-16.638 2.334l3.16-8.663 8.478 1.954zM196.19 64.649s-7.87 3.204-13.36 1.665c-4.434 2.915-1.79 8.78-1.79 8.78 2.969.802 12.809 2.53 18.146-.084 5.337-2.613-2.995-10.361-2.995-10.361"/>
        <path fill="#0D633E" d="M204.853 72.808c-1.232-.076-2.169-1.137-2.093-2.37l.99-15.988c.075-1.232 1.136-2.17 2.368-2.093 1.232.076 2.17 1.137 2.093 2.369l-.989 15.989c-.076 1.232-1.137 2.169-2.369 2.093"/>
        <path fill="#69B482" d="M208.9 75.525c-2.867 3.222-8.192 3.164-11.895-.13-3.702-3.294-4.379-8.576-1.512-11.799 2.867-3.222 8.193-3.164 11.895.13s4.379 8.577 1.512 11.8M87.542 59.01c3.793-2.053 8.78-.184 11.139 4.174 2.359 4.358 1.196 9.556-2.598 11.608-3.793 2.053-8.78.184-11.139-4.174-2.358-4.358-1.195-9.555 2.598-11.608"/>
        <path stroke="#08492C" stroke-width="2.043" d="M150.865 37.04L164.181 38.224"/>
        <path stroke="#08492C" stroke-width="1.776" d="M186.523 37.04L176.462 38.224"/>
        <path stroke="#69B482" stroke-linecap="round" stroke-width="3.329" d="M207.97 66.575s.806-5.187-4.43-3.088"/>
        <path fill="#29ABE2" d="M50.385 50.899c-7.338 0-13.287-5.95-13.287-13.287 0-2.167.53-4.207 1.451-6.015-4.93 1.942-8.426 6.736-8.426 12.356 0 7.338 5.95 13.287 13.287 13.287 5.17 0 9.64-2.96 11.836-7.271-1.507.593-3.143.93-4.86.93"/>
        <path fill="#69B482" d="M57.294 21.76s.24.28.409.7c.093.21.169.454.22.717.054.263.087.543.087.823.002.56-.127 1.12-.305 1.54-.17.42-.411.7-.411.7s-.241-.28-.411-.7c-.178-.42-.307-.98-.305-1.54 0-.28.033-.56.087-.823.051-.263.127-.508.22-.718.169-.42.409-.7.409-.7"/>
        <path fill="#69B482" d="M59.598 23.952s-.287.242-.718.414c-.215.094-.466.171-.735.223-.269.054-.556.088-.843.088-.287 0-.574-.03-.843-.087-.27-.05-.52-.128-.736-.222-.43-.172-.718-.416-.718-.416s.287-.244.718-.416c.215-.094.466-.172.736-.222.27-.056.556-.087.843-.087.287 0 .574.033.843.088.27.052.52.13.735.223.431.172.718.414.718.414M269.294 19.76s.24.28.409.7c.093.21.169.454.22.717.054.263.087.543.087.823.002.56-.127 1.12-.305 1.54-.17.42-.411.7-.411.7s-.241-.28-.411-.7c-.178-.42-.307-.98-.305-1.54 0-.28.033-.56.087-.823.051-.263.127-.508.22-.718.17-.42.409-.7.409-.7"/>
        <path fill="#69B482" d="M271.598 21.952s-.287.242-.718.414c-.215.094-.466.171-.735.223-.269.054-.556.088-.843.088-.287 0-.574-.03-.843-.087-.27-.05-.52-.128-.736-.222-.43-.172-.718-.416-.718-.416s.287-.244.718-.416c.215-.094.466-.172.736-.222.27-.056.556-.087.843-.087.287 0 .574.033.843.088.27.052.52.13.735.223.431.172.718.414.718.414M73 66.112s.184.214.314.535c.139.322.23.75.234 1.18-.003.427-.093.855-.233 1.176-.13.322-.314.536-.314.536s-.184-.214-.314-.536c-.14-.32-.23-.749-.233-1.177.004-.429.095-.857.234-1.179.13-.32.313-.535.313-.535"/>
        <path fill="#69B482" d="M74.763 67.79s-.219.184-.549.316c-.329.14-.768.233-1.207.237-.439-.003-.878-.095-1.207-.236-.329-.13-.549-.318-.549-.318s.22-.187.549-.318c.329-.14.768-.233 1.207-.236.439.004.878.097 1.207.237.33.132.549.317.549.317M282 94.112s.184.214.314.535c.139.322.23.75.234 1.18-.003.427-.093.855-.233 1.176-.13.322-.314.536-.314.536s-.184-.214-.314-.536c-.14-.32-.23-.749-.233-1.177.004-.429.095-.857.234-1.179.13-.32.313-.535.313-.535"/>
        <path fill="#69B482" d="M283.763 95.79s-.22.184-.549.316c-.329.14-.768.233-1.207.237-.439-.003-.878-.095-1.207-.236-.33-.13-.549-.318-.549-.318s.219-.187.549-.318c.329-.14.768-.233 1.207-.236.439.004.878.097 1.207.237.329.132.549.317.549.317M39 86.112s.184.214.314.535c.139.322.23.75.234 1.18-.003.427-.093.855-.233 1.176-.13.322-.314.536-.314.536s-.184-.214-.314-.536c-.14-.32-.23-.749-.233-1.177.004-.429.095-.857.234-1.179.13-.32.313-.535.313-.535"/>
        <path fill="#69B482" d="M40.763 87.79s-.219.184-.549.316c-.329.14-.768.233-1.207.237-.439-.003-.878-.095-1.207-.236-.329-.13-.549-.318-.549-.318s.22-.187.549-.318c.329-.14.768-.233 1.207-.236.439.004.878.097 1.207.237.33.132.549.317.549.317M25 106.112s.184.214.314.535c.139.322.23.75.234 1.18-.003.427-.093.855-.233 1.176-.13.322-.314.536-.314.536s-.184-.214-.314-.536c-.14-.32-.23-.749-.233-1.177.004-.429.095-.857.234-1.179.13-.32.313-.535.313-.535"/>
        <path fill="#69B482" d="M26.763 107.79s-.219.184-.549.316c-.329.14-.768.233-1.207.237-.439-.003-.878-.095-1.207-.236-.329-.13-.549-.318-.549-.318s.22-.187.549-.318c.329-.14.768-.233 1.207-.236.439.004.878.097 1.207.237.33.132.549.317.549.317M64 29.112s.184.214.314.535c.139.322.23.75.234 1.18-.003.427-.093.855-.233 1.176-.13.322-.314.536-.314.536s-.184-.214-.314-.536c-.14-.32-.23-.749-.233-1.177.004-.429.095-.857.234-1.179.13-.32.313-.535.313-.535"/>
        <path fill="#69B482" d="M65.763 30.79s-.219.184-.549.316c-.329.14-.768.233-1.207.237-.439-.003-.878-.095-1.207-.236-.329-.13-.549-.318-.549-.318s.22-.187.549-.318c.329-.14.768-.233 1.207-.236.439.004.878.097 1.207.237.33.132.549.317.549.317M270.217 78.18s.149.173.254.434c.113.261.187.61.191.957-.003.348-.076.696-.19.957-.105.261-.255.435-.255.435s-.15-.174-.255-.435c-.114-.26-.187-.609-.19-.957.004-.348.078-.696.191-.957.105-.26.254-.435.254-.435"/>
        <path fill="#69B482" d="M271.649 79.542s-.178.15-.446.257c-.267.114-.624.19-.981.193-.356-.003-.713-.077-.981-.191-.267-.107-.446-.26-.446-.26s.179-.15.446-.258c.268-.114.625-.188.98-.191.358.003.715.079.982.193.268.106.446.257.446.257M255.935 29.99s.149.174.254.435c.113.261.187.61.191.957-.003.348-.076.696-.19.957-.105.261-.255.435-.255.435s-.15-.174-.255-.435c-.114-.26-.187-.609-.19-.957.004-.348.078-.696.191-.957.105-.26.254-.435.254-.435"/>
        <path fill="#69B482" d="M257.367 31.353s-.178.15-.446.257c-.267.114-.624.19-.981.193-.356-.003-.713-.077-.981-.191-.267-.108-.446-.26-.446-.26s.179-.151.446-.258c.268-.114.625-.188.98-.191.358.003.715.079.982.193.268.106.446.257.446.257M250.598 92.7s.251.294.43.734c.188.44.324 1.028.321 1.615.005.588-.13 1.175-.32 1.615-.178.44-.43.735-.43.735s-.254-.294-.432-.735c-.19-.44-.325-1.027-.32-1.615-.003-.587.133-1.174.322-1.615.178-.44.43-.734.43-.734"/>
        <path fill="#69B482" d="M253.014 95s-.3.253-.752.433c-.452.192-1.054.33-1.656.326-.602.006-1.203-.13-1.655-.324-.45-.18-.752-.436-.752-.436s.301-.256.752-.436c.452-.193 1.053-.33 1.655-.324.602-.004 1.204.134 1.656.326.451.18.752.434.752.434M15.624 26.982s.149.174.254.434c.113.261.187.61.19.957-.002.348-.075.697-.19.957-.104.262-.254.436-.254.436s-.15-.174-.255-.435c-.114-.261-.187-.61-.19-.957.004-.348.078-.697.19-.957.106-.262.255-.436.255-.436"/>
        <path fill="#69B482" d="M17.055 28.344s-.178.151-.446.257c-.267.114-.624.19-.98.193-.357-.003-.714-.077-.982-.19-.267-.108-.446-.26-.446-.26s.18-.15.446-.259c.268-.114.625-.188.981-.19.357.002.714.078.981.192.268.106.446.257.446.257"/>
        <path stroke="#08492C" stroke-width="2.043" d="M152.375 39.087c0 1.105.895 2 2 2 1.106 0 2-.895 2-2s-.894-2-2-2c-1.105 0-2 .895-2 2z"/>
        <path stroke="#08492C" stroke-width="1.702" d="M177.375 39.42c0 .92.746 1.667 1.667 1.667.92 0 1.666-.747 1.666-1.667s-.745-1.667-1.666-1.667c-.92 0-1.667.747-1.667 1.667z"/>
        <path fill="#0D633E" d="M211.188 11.577s-62.147 18.794-109.355 16.275C118.02 10.823 153.028.002 153.028.002s21.201-.435 58.16 11.575"/>
        <path fill="#69B482" d="M117.042 26.42C130.202 12.611 147.686 2.962 153.415 0c-.247 0-.387.002-.387.002s-35.008 10.821-51.195 27.85c12.637.674 26.344-.18 39.644-1.79-8.262.595-16.523.78-24.435.358"/>
        <path fill="#0D633E" d="M47.179 72.32c-5.752.347-10.958 4.502-16.71 4.041-2.96-.237-5.79-1.701-8.75-1.477-2.913.22-5.616 2.228-6.669 4.952l45.617-.044c-3.684-3.852-7.517-7.74-13.288-7.482-.067.002-.133.006-.2.01M84.432 95.188c-4.365.263-8.316 3.416-12.681 3.067-2.246-.18-4.393-1.29-6.64-1.12-2.21.166-4.261 1.69-5.06 3.757l34.617-.033c-2.796-2.924-5.705-5.875-10.084-5.679l-.152.008M284.381 66.017c-4.365.263-8.316 3.416-12.681 3.067-2.246-.18-4.393-1.29-6.64-1.12-2.21.166-4.261 1.69-5.06 3.757l34.617-.033c-2.796-2.924-5.705-5.875-10.084-5.679l-.152.008M230.381 114.017c-4.365.263-8.316 3.416-12.681 3.067-2.246-.18-4.393-1.29-6.64-1.12-2.21.166-4.261 1.69-5.06 3.757l34.617-.033c-2.796-2.924-5.705-5.875-10.084-5.679l-.152.008M257.588 46.618c-6.004.362-11.44 4.7-17.443 4.218-3.09-.247-6.043-1.776-9.133-1.542-3.041.23-5.862 2.326-6.961 5.17l47.617-.046c-3.846-4.02-7.847-8.08-13.871-7.81-.07.002-.14.006-.21.01"/>
        <path stroke="#69B482" d="M210.625 57.336h2c.828 0 1.5-.672 1.5-1.5s-.672-1.5-1.5-1.5h-2c-.827 0-1.5.672-1.5 1.5s.673 1.5 1.5 1.5zM213.299 61.292l.647 1.892c.269.784 1.12 1.202 1.905.934.784-.268 1.202-1.12.934-1.905l-.648-1.892c-.268-.784-1.121-1.202-1.904-.934h0c-.784.268-1.202 1.121-.934 1.905zM215.287 68.433l.647 1.892c.269.784 1.121 1.202 1.905.934h0c.784-.268 1.202-1.121.934-1.905l-.648-1.892c-.268-.784-1.121-1.202-1.904-.934h0c-.784.268-1.202 1.121-.934 1.905z"/>
        <path stroke="#69B482" d="M214.727 60.342h0c.267-.135.373-.462.238-.728l-1.548-3.046c-.135-.267-.46-.374-.728-.238-.267.135-.373.462-.238.728L214 60.104c.135.267.461.373.728.238zM216.792 67.289h0c.293-.061.48-.348.42-.641l-.696-3.345c-.061-.293-.348-.481-.641-.42-.293.061-.481.348-.42.641l.696 3.345c.06.293.348.481.64.42zM218.28 74.514h0c.293-.06.481-.348.42-.64l-.696-3.346c-.061-.293-.348-.48-.641-.42-.293.061-.481.348-.42.641l.696 3.345c.061.293.348.481.641.42z"/>
        <path fill="#0D633E" d="M235.09 85.276c-.525 1.117-1.857 1.597-2.974 1.071l-14.496-6.819c-1.117-.525-1.597-1.857-1.071-2.974.525-1.117 1.857-1.596 2.974-1.07l14.496 6.818c1.117.526 1.596 1.857 1.07 2.974"/>
        <path fill="#69B482" d="M235.09 85.276c-.525 1.117-1.857 1.597-2.974 1.071-1.117-.525-1.596-1.857-1.071-2.974.525-1.117 1.857-1.596 2.974-1.07 1.117.525 1.596 1.856 1.07 2.973"/>
        <path fill="#0D633E" d="M75.517 38.017c-.92-.822-1-2.235-.177-3.156l10.67-11.948c.822-.921 2.236-1.001 3.156-.179.922.823 1 2.236.178 3.156l-10.67 11.949c-.823.92-2.236 1-3.157.178"/>
        <path stroke="#69B482" d="M89.626 29.436l1.57 1.238c.652.512 1.595.4 2.108-.25h0c.512-.651.4-1.594-.25-2.107l-1.572-1.238c-.65-.512-1.593-.4-2.106.25-.513.65-.401 1.594.25 2.107zM89.277 34.197l-.662 1.887c-.275.782.136 1.638.918 1.912.782.276 1.638-.137 1.912-.918l.663-1.887c.274-.782-.137-1.638-.919-1.913h0c-.782-.273-1.638.138-1.912.92zM86.42 41.037l-.661 1.887c-.275.782.136 1.638.918 1.912h0c.782.275 1.638-.137 1.912-.918l.663-1.887c.274-.782-.137-1.638-.92-1.913-.781-.274-1.637.137-1.911.92z"/>
        <path stroke="#69B482" d="M90.988 34.335h0c.293.06.579-.132.637-.425l.67-3.35c.058-.294-.132-.579-.425-.638-.294-.058-.58.132-.638.425l-.67 3.351c-.058.293.133.578.426.637zM88.31 41.07h0c.269.133.594.024.727-.243l1.523-3.06c.134-.267.025-.592-.243-.725h0c-.268-.134-.593-.025-.727.243l-1.522 3.059c-.134.267-.025.593.243.726zM85.008 47.666h0c.269.133.594.024.727-.243l1.522-3.059c.134-.268.025-.593-.243-.726-.267-.134-.593-.025-.727.243l-1.522 3.06c-.133.266-.025.592.243.725z"/>
        <path fill="#0D633E" d="M91.553 66.522c-1.103.552-2.447.105-2.998-.999l-7.169-14.327c-.551-1.104-.105-2.447 1-2.999 1.104-.552 2.447-.105 2.999 1l7.167 14.326c.552 1.104.105 2.447-.999 3"/>
        <path stroke="#69B482" d="M83.588 46.186l-1.781.91c-.738.376-1.031 1.28-.655 2.017.377.738 1.28 1.031 2.018.654l1.782-.909c.738-.376 1.031-1.28.654-2.018-.377-.738-1.28-1.03-2.018-.654z"/>
        <path fill="#69B482" d="M78.673 37.839c-.525 1.117-1.857 1.597-2.974 1.07-1.117-.524-1.596-1.856-1.07-2.973.524-1.117 1.856-1.596 2.973-1.071 1.117.526 1.596 1.857 1.071 2.974"/>
    </g>
</svg>
