<svg xmlns="http://www.w3.org/2000/svg" xmlns:xlink="http://www.w3.org/1999/xlink" width="768" height="149" viewBox="0 0 768 149">
    <defs>
        <path id="prefix__a" d="M0 0.261L311 0.261 311 135.261 0 135.261z"/>
    </defs>
    <g fill="none" fill-rule="evenodd">
        <rect width="768" height="135" y="10" fill="#08492C" fill-rule="nonzero" rx="16"/>
        <g>
            <g transform="translate(35) translate(194 10)"/>
            <path fill="#29ABE2" d="M370.217 102.745l-17.091-.158-6.426 15.181c-.614 1.172.022 2.611 1.303 2.944l6.871 1.791 15.343-19.758z" transform="translate(35)"/>
            <path fill="#032D19" d="M358.647 132.087s11.768 14.425 9.87 15.564c-1.898 1.139-16.323-9.111-17.462-11.768-1.14-2.657 7.592-3.796 7.592-3.796" transform="translate(35)"/>
            <path fill="#29ABE2" d="M355.989 115.677s-8.501 5.448-17.62 3.925c5.06 7.501 13.857 20.025 19.626 17.706 4.23-1.7-2.006-21.63-2.006-21.63" transform="translate(35)"/>
            <path fill="#0D633E" d="M369.87 103.178s-9.257 2.5-14.505-.415c2.52-6.687 14.283-4.69 14.505.415" transform="translate(35)"/>
            <path fill="#0D633E" d="M345.063 83.655s6.646-1.495 19.607.498c10.511 1.618 12.462 8.475 3.656 21.934l-12.96-3.323-18.943.997 8.64-20.106z" transform="translate(35)"/>
            <path fill="#08492C" d="M351.375 94.754s10.334-1.334 8 .332c-2.332 1.668-8.666 2.335-8.666 2.335l.666-2.668z" transform="translate(35)"/>
            <path fill="#0D633E" d="M342.727 72.047s4.532 16.331 7.199 22.51c2.668 6.177 11.704 20.974 3.096 26.872-8.608 5.9-19.074-1.163-22.156-16.532-1.446-7.21-3.677-7.548-6.49-9.56-3.78-2.704-7.625-5.375-2.625-13.875l20.976-9.415z" transform="translate(35)"/>
            <path fill="#29ABE2" d="M350.375 79.42v3.833s-13.255 6.187-28.541-.79c-.188-3.626.558-4.956.558-4.956l27.983 1.913z" transform="translate(35)"/>
            <path fill="#0D633E" d="M354.7 64.214s.343 12.206-3.322 14.955c-2.787 2.09-10.002 5.418-27.124.058-1.87-.585-3.126-2.352-3.108-4.311.084-8.492.638-14.73 1.139-18.714.36-2.862 3.09-4.797 5.91-4.188l28.832 6.218-2.326 5.982z" transform="translate(35)"/>
            <path stroke="#0D633E" stroke-linecap="round" stroke-width="8.973" d="M323.125 56.837s-12 21-29.25 13.25M354.7 62.22s18.676 12.867 35.343 7.2" transform="translate(35)"/>
            <path fill="#69B482" d="M349.895 61.453l-6.214 7.102c-3.55-4.883-7.546-10.653-7.546-10.653l13.76 3.551z" transform="translate(35)"/>
            <path fill="#0D633E" d="M338.792 61.795s5.625 2.167 9.875 1.042l.875-.959-11.833-1.79 1.083 1.707z" transform="translate(35)"/>
            <path fill="#08492C" d="M338.229 60.605l-1.926-.366c-8.033-1.527-13.847-8.55-13.847-16.727V32.015c0-7.775 5.267-14.562 12.798-16.493l.29-.075c12.634-3.239 25.927-2.823 38.333 1.201 7.02 2.276 11.774 8.816 11.774 16.196v9.752c0 7.578-5.01 14.245-12.29 16.354-11.416 3.308-23.454 3.875-35.132 1.655" transform="translate(35)"/>
            <path fill="#69B482" d="M349.111 45.323l-1.376-.133c-5.738-.557-9.89-3.115-9.89-6.094v-4.188c0-2.832 3.761-5.305 9.141-6.008l.208-.027c9.024-1.18 18.52-1.03 27.382.437 5.015.83 8.411 3.212 8.411 5.9v3.553c0 2.76-3.578 5.189-8.778 5.957-8.157 1.205-16.756 1.412-25.098.603" transform="translate(35)"/>
            <path fill="#29ABE2" d="M301.052 68.362s5 .375 5 4.375c0 2.366-.749 9.312-16.638 2.334l3.16-8.663 8.478 1.954zM390.19 64.649s-7.87 3.204-13.36 1.665c-4.434 2.915-1.79 8.78-1.79 8.78 2.969.802 12.809 2.53 18.146-.084 5.337-2.613-2.995-10.361-2.995-10.361" transform="translate(35)"/>
            <path fill="#0D633E" d="M398.853 72.808c-1.232-.076-2.169-1.137-2.093-2.37l.99-15.988c.075-1.232 1.136-2.17 2.368-2.093 1.232.076 2.17 1.137 2.093 2.369l-.989 15.989c-.076 1.232-1.137 2.169-2.369 2.093" transform="translate(35)"/>
            <path fill="#69B482" d="M402.9 75.525c-2.867 3.222-8.192 3.164-11.895-.13-3.702-3.294-4.379-8.576-1.512-11.799 2.867-3.222 8.193-3.164 11.895.13s4.379 8.577 1.512 11.8M281.542 59.01c3.793-2.053 8.78-.184 11.139 4.174 2.359 4.358 1.196 9.556-2.598 11.608-3.793 2.053-8.78.184-11.139-4.174-2.358-4.358-1.195-9.555 2.598-11.608" transform="translate(35)"/>
            <path stroke="#08492C" stroke-width="2.043" d="M344.865 37.04L358.181 38.224" transform="translate(35)"/>
            <path stroke="#08492C" stroke-width="1.776" d="M380.523 37.04L370.462 38.224" transform="translate(35)"/>
            <path stroke="#69B482" stroke-linecap="round" stroke-width="3.329" d="M401.97 66.575s.806-5.187-4.43-3.088" transform="translate(35)"/>
            <path fill="#29ABE2" d="M244.385 50.899c-7.338 0-13.287-5.95-13.287-13.287 0-2.167.53-4.207 1.451-6.015-4.93 1.942-8.426 6.736-8.426 12.356 0 7.338 5.95 13.287 13.287 13.287 5.17 0 9.64-2.96 11.836-7.271-1.507.593-3.143.93-4.86.93" transform="translate(35)"/>
            <g fill="#69B482">
                <path d="M2.289 0s.24.28.409.7c.093.21.169.455.22.718.054.263.087.543.087.823.002.56-.127 1.12-.305 1.54-.17.42-.411.7-.411.7s-.241-.28-.411-.7c-.178-.42-.307-.98-.305-1.54 0-.28.033-.56.087-.823.05-.263.127-.508.22-.718.169-.42.409-.7.409-.7" transform="translate(35) translate(249.005 21.76)"/>
                <path d="M4.593 2.193s-.287.242-.718.414c-.215.094-.466.171-.735.223-.269.054-.556.088-.843.088-.287 0-.574-.03-.843-.087-.27-.05-.521-.128-.736-.222C.287 2.437 0 2.193 0 2.193s.287-.244.718-.416c.215-.094.466-.172.736-.222.269-.056.556-.087.843-.087.287 0 .574.033.843.088.269.052.52.13.735.223.431.172.718.414.718.414" transform="translate(35) translate(249.005 21.76)"/>
            </g>
            <path fill="#69B482" d="M463.294 19.76s.24.28.409.7c.093.21.169.454.22.717.054.263.087.543.087.823.002.56-.127 1.12-.305 1.54-.17.42-.411.7-.411.7s-.241-.28-.411-.7c-.178-.42-.307-.98-.305-1.54 0-.28.033-.56.087-.823.051-.263.127-.508.22-.718.17-.42.409-.7.409-.7" transform="translate(35)"/>
            <path fill="#69B482" d="M465.598 21.952s-.287.242-.718.414c-.215.094-.466.171-.735.223-.269.054-.556.088-.843.088-.287 0-.574-.03-.843-.087-.27-.05-.52-.128-.736-.222-.43-.172-.718-.416-.718-.416s.287-.244.718-.416c.215-.094.466-.172.736-.222.27-.056.556-.087.843-.087.287 0 .574.033.843.088.27.052.52.13.735.223.431.172.718.414.718.414M267 66.112s.184.214.314.535c.139.322.23.75.234 1.18-.003.427-.093.855-.233 1.176-.13.322-.314.536-.314.536s-.184-.214-.314-.536c-.14-.32-.23-.749-.233-1.177.004-.429.095-.857.234-1.179.13-.32.313-.535.313-.535" transform="translate(35)"/>
            <path fill="#69B482" d="M268.763 67.79s-.219.184-.549.316c-.329.14-.768.233-1.207.237-.439-.003-.878-.095-1.207-.236-.329-.13-.549-.318-.549-.318s.22-.187.549-.318c.329-.14.768-.233 1.207-.236.439.004.878.097 1.207.237.33.132.549.317.549.317M476 94.112s.184.214.314.535c.139.322.23.75.234 1.18-.003.427-.093.855-.233 1.176-.13.322-.314.536-.314.536s-.184-.214-.314-.536c-.14-.32-.23-.749-.233-1.177.004-.429.095-.857.234-1.179.13-.32.313-.535.313-.535" transform="translate(35)"/>
            <path fill="#69B482" d="M477.763 95.79s-.22.184-.549.316c-.329.14-.768.233-1.207.237-.439-.003-.878-.095-1.207-.236-.33-.13-.549-.318-.549-.318s.219-.187.549-.318c.329-.14.768-.233 1.207-.236.439.004.878.097 1.207.237.329.132.549.317.549.317M233 86.112s.184.214.314.535c.139.322.23.75.234 1.18-.003.427-.093.855-.233 1.176-.13.322-.314.536-.314.536s-.184-.214-.314-.536c-.14-.32-.23-.749-.233-1.177.004-.429.095-.857.234-1.179.13-.32.313-.535.313-.535" transform="translate(35)"/>
            <path fill="#69B482" d="M234.763 87.79s-.219.184-.549.316c-.329.14-.768.233-1.207.237-.439-.003-.878-.095-1.207-.236-.329-.13-.549-.318-.549-.318s.22-.187.549-.318c.329-.14.768-.233 1.207-.236.439.004.878.097 1.207.237.33.132.549.317.549.317M219 106.112s.184.214.314.535c.139.322.23.75.234 1.18-.003.427-.093.855-.233 1.176-.13.322-.314.536-.314.536s-.184-.214-.314-.536c-.14-.32-.23-.749-.233-1.177.004-.429.095-.857.234-1.179.13-.32.313-.535.313-.535" transform="translate(35)"/>
            <path fill="#69B482" d="M220.763 107.79s-.219.184-.549.316c-.329.14-.768.233-1.207.237-.439-.003-.878-.095-1.207-.236-.329-.13-.549-.318-.549-.318s.22-.187.549-.318c.329-.14.768-.233 1.207-.236.439.004.878.097 1.207.237.33.132.549.317.549.317" transform="translate(35)"/>
            <g fill="#69B482">
                <path d="M1.75 0s.183.214.313.535c.139.322.23.75.234 1.179-.003.428-.093.856-.233 1.177-.13.322-.314.536-.314.536s-.184-.214-.314-.536c-.14-.321-.23-.749-.233-1.177.004-.429.095-.857.234-1.179C1.567.214 1.75 0 1.75 0" transform="translate(35) translate(256.251 29.112)"/>
                <path d="M3.512 1.677s-.219.185-.549.317c-.329.14-.768.233-1.207.237-.439-.003-.878-.095-1.207-.236C.22 1.864 0 1.677 0 1.677s.22-.187.549-.318c.329-.141.768-.233 1.207-.236.439.004.878.097 1.207.237.33.132.549.317.549.317" transform="translate(35) translate(256.251 29.112)"/>
            </g>
            <g fill="#69B482">
                <path d="M1.75 0s.183.214.313.535c.139.322.23.75.234 1.179-.003.428-.093.856-.233 1.177-.13.322-.314.536-.314.536s-.184-.214-.314-.536c-.14-.321-.23-.749-.233-1.177.004-.429.095-.857.234-1.179C1.567.214 1.75 0 1.75 0" transform="translate(35) translate(550 105)"/>
                <path d="M3.512 1.677s-.219.185-.549.317c-.329.14-.768.233-1.207.237-.439-.003-.878-.095-1.207-.236C.22 1.864 0 1.677 0 1.677s.22-.187.549-.318c.329-.141.768-.233 1.207-.236.439.004.878.097 1.207.237.33.132.549.317.549.317" transform="translate(35) translate(550 105)"/>
            </g>
            <g fill="#69B482">
                <path d="M1.75 0s.183.214.313.535c.139.322.23.75.234 1.179-.003.428-.093.856-.233 1.177-.13.322-.314.536-.314.536s-.184-.214-.314-.536c-.14-.321-.23-.749-.233-1.177.004-.429.095-.857.234-1.179C1.567.214 1.75 0 1.75 0" transform="translate(35) translate(689 93)"/>
                <path d="M3.512 1.677s-.219.185-.549.317c-.329.14-.768.233-1.207.237-.439-.003-.878-.095-1.207-.236C.22 1.864 0 1.677 0 1.677s.22-.187.549-.318c.329-.141.768-.233 1.207-.236.439.004.878.097 1.207.237.33.132.549.317.549.317" transform="translate(35) translate(689 93)"/>
            </g>
            <g fill="#69B482">
                <path d="M1.75 0s.183.214.313.535c.139.322.23.75.234 1.179-.003.428-.093.856-.233 1.177-.13.322-.314.536-.314.536s-.184-.214-.314-.536c-.14-.321-.23-.749-.233-1.177.004-.429.095-.857.234-1.179C1.567.214 1.75 0 1.75 0" transform="translate(35) translate(162 64)"/>
                <path d="M3.512 1.677s-.219.185-.549.317c-.329.14-.768.233-1.207.237-.439-.003-.878-.095-1.207-.236C.22 1.864 0 1.677 0 1.677s.22-.187.549-.318c.329-.141.768-.233 1.207-.236.439.004.878.097 1.207.237.33.132.549.317.549.317" transform="translate(35) translate(162 64)"/>
            </g>
            <g fill="#69B482">
                <path d="M1.75 0s.183.214.313.535c.139.322.23.75.234 1.179-.003.428-.093.856-.233 1.177-.13.322-.314.536-.314.536s-.184-.214-.314-.536c-.14-.321-.23-.749-.233-1.177.004-.429.095-.857.234-1.179C1.567.214 1.75 0 1.75 0" transform="translate(35) translate(48 74)"/>
                <path d="M3.512 1.677s-.219.185-.549.317c-.329.14-.768.233-1.207.237-.439-.003-.878-.095-1.207-.236C.22 1.864 0 1.677 0 1.677s.22-.187.549-.318c.329-.141.768-.233 1.207-.236.439.004.878.097 1.207.237.33.132.549.317.549.317" transform="translate(35) translate(48 74)"/>
            </g>
            <path fill="#69B482" d="M464.217 78.18s.149.173.254.434c.113.261.187.61.191.957-.003.348-.076.696-.19.957-.105.261-.255.435-.255.435s-.15-.174-.255-.435c-.114-.26-.187-.609-.19-.957.004-.348.078-.696.191-.957.105-.26.254-.435.254-.435" transform="translate(35)"/>
            <path fill="#69B482" d="M465.649 79.542s-.178.15-.446.257c-.267.114-.624.19-.981.193-.356-.003-.713-.077-.981-.191-.267-.107-.446-.26-.446-.26s.179-.15.446-.258c.268-.114.625-.188.98-.191.358.003.715.079.982.193.268.106.446.257.446.257M449.935 29.99s.149.174.254.435c.113.261.187.61.191.957-.003.348-.076.696-.19.957-.105.261-.255.435-.255.435s-.15-.174-.255-.435c-.114-.26-.187-.609-.19-.957.004-.348.078-.696.191-.957.105-.26.254-.435.254-.435" transform="translate(35)"/>
            <path fill="#69B482" d="M451.367 31.353s-.178.15-.446.257c-.267.114-.624.19-.981.193-.356-.003-.713-.077-.981-.191-.267-.108-.446-.26-.446-.26s.179-.151.446-.258c.268-.114.625-.188.98-.191.358.003.715.079.982.193.268.106.446.257.446.257M444.598 92.7s.251.294.43.734c.188.44.324 1.028.321 1.615.005.588-.13 1.175-.32 1.615-.178.44-.43.735-.43.735s-.254-.294-.432-.735c-.19-.44-.325-1.027-.32-1.615-.003-.587.133-1.174.322-1.615.178-.44.43-.734.43-.734" transform="translate(35)"/>
            <path fill="#69B482" d="M447.014 95s-.3.253-.752.433c-.452.192-1.054.33-1.656.326-.602.006-1.203-.13-1.655-.324-.45-.18-.752-.436-.752-.436s.301-.256.752-.436c.452-.193 1.053-.33 1.655-.324.602-.004 1.204.134 1.656.326.451.18.752.434.752.434" transform="translate(35)"/>
            <g fill="#69B482">
                <path d="M1.422 0s.15.174.254.435c.113.261.187.609.191.957-.003.348-.076.696-.19.957-.105.261-.255.435-.255.435s-.15-.174-.255-.435c-.114-.261-.187-.609-.19-.957.004-.348.078-.696.191-.957C1.273.174 1.422 0 1.422 0" transform="translate(35) translate(208.201 26.982)"/>
                <path d="M2.854 1.363s-.178.15-.446.257c-.267.114-.624.19-.981.193-.356-.003-.713-.077-.981-.191C.179 1.515 0 1.362 0 1.362s.179-.15.446-.258c.268-.114.625-.188.981-.191.357.003.714.079.981.193.268.106.446.257.446.257" transform="translate(35) translate(208.201 26.982)"/>
            </g>
            <g fill="#69B482">
                <path d="M1.422 0s.15.174.254.435c.113.261.187.609.191.957-.003.348-.076.696-.19.957-.105.261-.255.435-.255.435s-.15-.174-.255-.435c-.114-.261-.187-.609-.19-.957.004-.348.078-.696.191-.957C1.273.174 1.422 0 1.422 0" transform="translate(35) translate(0 71)"/>
                <path d="M2.854 1.363s-.178.15-.446.257c-.267.114-.624.19-.981.193-.356-.003-.713-.077-.981-.191C.179 1.515 0 1.362 0 1.362s.179-.15.446-.258c.268-.114.625-.188.981-.191.357.003.714.079.981.193.268.106.446.257.446.257" transform="translate(35) translate(0 71)"/>
            </g>
            <g fill="#69B482">
                <path d="M1.422 0s.15.174.254.435c.113.261.187.609.191.957-.003.348-.076.696-.19.957-.105.261-.255.435-.255.435s-.15-.174-.255-.435c-.114-.261-.187-.609-.19-.957.004-.348.078-.696.191-.957C1.273.174 1.422 0 1.422 0" transform="translate(35) translate(544 46)"/>
                <path d="M2.854 1.363s-.178.15-.446.257c-.267.114-.624.19-.981.193-.356-.003-.713-.077-.981-.191C.179 1.515 0 1.362 0 1.362s.179-.15.446-.258c.268-.114.625-.188.981-.191.357.003.714.079.981.193.268.106.446.257.446.257" transform="translate(35) translate(544 46)"/>
            </g>
            <g fill="#69B482">
                <path d="M1.422 0s.15.174.254.435c.113.261.187.609.191.957-.003.348-.076.696-.19.957-.105.261-.255.435-.255.435s-.15-.174-.255-.435c-.114-.261-.187-.609-.19-.957.004-.348.078-.696.191-.957C1.273.174 1.422 0 1.422 0" transform="translate(35) translate(678 45)"/>
                <path d="M2.854 1.363s-.178.15-.446.257c-.267.114-.624.19-.981.193-.356-.003-.713-.077-.981-.191C.179 1.515 0 1.362 0 1.362s.179-.15.446-.258c.268-.114.625-.188.981-.191.357.003.714.079.981.193.268.106.446.257.446.257" transform="translate(35) translate(678 45)"/>
            </g>
            <g fill="#69B482">
                <path d="M1.422 0s.15.174.254.435c.113.261.187.609.191.957-.003.348-.076.696-.19.957-.105.261-.255.435-.255.435s-.15-.174-.255-.435c-.114-.261-.187-.609-.19-.957.004-.348.078-.696.191-.957C1.273.174 1.422 0 1.422 0" transform="translate(35) translate(610 87)"/>
                <path d="M2.854 1.363s-.178.15-.446.257c-.267.114-.624.19-.981.193-.356-.003-.713-.077-.981-.191C.179 1.515 0 1.362 0 1.362s.179-.15.446-.258c.268-.114.625-.188.981-.191.357.003.714.079.981.193.268.106.446.257.446.257" transform="translate(35) translate(610 87)"/>
            </g>
            <path stroke="#08492C" stroke-width="2.043" d="M346.375 39.087c0 1.105.896 2 2 2 1.106 0 2-.895 2-2s-.894-2-2-2c-1.104 0-2 .895-2 2z" transform="translate(35)"/>
            <path stroke="#08492C" stroke-width="1.702" d="M371.375 39.42c0 .92.747 1.667 1.668 1.667.92 0 1.666-.747 1.666-1.667s-.747-1.667-1.666-1.667c-.921 0-1.668.747-1.668 1.667z" transform="translate(35)"/>
            <path fill="#0D633E" d="M405.188 11.577s-62.147 18.794-109.355 16.275C312.02 10.823 347.028.002 347.028.002s21.201-.435 58.16 11.575" transform="translate(35)"/>
            <path fill="#69B482" d="M311.042 26.42C324.202 12.611 341.686 2.962 347.415 0c-.247 0-.387.002-.387.002s-35.008 10.821-51.195 27.85c12.637.674 26.344-.18 39.644-1.79-8.262.595-16.523.78-24.435.358" transform="translate(35)"/>
            <path fill="#0D633E" d="M241.179 72.32c-5.752.347-10.958 4.502-16.71 4.041-2.96-.237-5.79-1.701-8.75-1.477-2.913.22-5.616 2.228-6.669 4.952l45.617-.044c-3.684-3.852-7.517-7.74-13.288-7.482-.067.002-.133.006-.2.01M124.129 35.022c-5.752.347-10.958 4.502-16.71 4.041-2.96-.237-5.79-1.7-8.75-1.477-2.913.22-5.616 2.228-6.669 4.952l45.617-.044c-3.684-3.852-7.517-7.74-13.288-7.482-.067.002-.133.006-.2.01M278.432 95.188c-4.365.263-8.316 3.416-12.681 3.067-2.246-.18-4.393-1.29-6.64-1.12-2.21.166-4.261 1.69-5.06 3.757l34.617-.033c-2.796-2.924-5.705-5.875-10.084-5.679l-.152.008M149.381 95.017c-4.365.263-8.316 3.416-12.681 3.067-2.246-.18-4.393-1.29-6.64-1.12-2.21.166-4.261 1.69-5.06 3.757l34.617-.033c-2.796-2.924-5.705-5.875-10.084-5.679l-.152.008M55.381 63.017c-4.365.263-8.316 3.416-12.681 3.067-2.246-.18-4.393-1.29-6.64-1.12-2.21.166-4.261 1.69-5.06 3.757l34.617-.033c-2.796-2.924-5.705-5.875-10.084-5.679l-.152.008M563.381 114.017c-4.365.263-8.316 3.416-12.681 3.067-2.246-.18-4.393-1.29-6.64-1.12-2.21.166-4.261 1.69-5.06 3.757l34.617-.033c-2.796-2.924-5.705-5.875-10.084-5.679l-.152.008M478.381 66.017c-4.365.263-8.316 3.416-12.681 3.067-2.246-.18-4.393-1.29-6.64-1.12-2.21.166-4.261 1.69-5.06 3.757l34.617-.033c-2.796-2.924-5.705-5.875-10.084-5.679l-.152.008M592.903 74.012c-3.026.184-5.765 2.388-8.791 2.144-1.558-.125-3.046-.902-4.604-.783-1.532.116-2.954 1.181-3.508 2.627l24-.023c-1.938-2.044-3.955-4.108-6.991-3.97-.036 0-.07.003-.106.005M424.381 114.017c-4.365.263-8.316 3.416-12.681 3.067-2.246-.18-4.393-1.29-6.64-1.12-2.21.166-4.261 1.69-5.06 3.757l34.617-.033c-2.796-2.924-5.705-5.875-10.084-5.679l-.152.008M451.588 46.618c-6.004.362-11.44 4.7-17.443 4.218-3.09-.247-6.043-1.776-9.133-1.542-3.041.23-5.862 2.326-6.961 5.17l47.617-.046c-3.846-4.02-7.847-8.08-13.871-7.81-.07.002-.14.006-.21.01M602.537 27.024c-6.004.362-11.439 4.699-17.443 4.218-3.089-.247-6.043-1.776-9.133-1.542-3.041.23-5.862 2.326-6.961 5.17l47.617-.046c-3.846-4.021-7.847-8.08-13.871-7.811l-.209.01" transform="translate(35)"/>
            <path stroke="#69B482" d="M404.625 57.336h2c.829 0 1.5-.672 1.5-1.5s-.671-1.5-1.5-1.5h-2c-.827 0-1.5.672-1.5 1.5s.673 1.5 1.5 1.5zM407.299 61.292l.647 1.892c.269.784 1.12 1.202 1.905.934.784-.268 1.202-1.12.934-1.905l-.648-1.892c-.268-.784-1.121-1.202-1.904-.934h0c-.784.268-1.202 1.121-.934 1.905zM409.287 68.433l.647 1.892c.269.784 1.121 1.202 1.905.934h0c.784-.268 1.202-1.121.934-1.905l-.648-1.892c-.268-.784-1.121-1.202-1.904-.934h0c-.784.268-1.202 1.121-.934 1.905z" transform="translate(35)"/>
            <path stroke="#69B482" d="M408.727 60.342h0c.267-.135.373-.462.238-.728l-1.548-3.046c-.135-.267-.46-.374-.728-.238-.267.135-.373.462-.238.728L408 60.104c.135.267.461.373.728.238zM410.792 67.289h0c.293-.061.48-.348.42-.641l-.696-3.345c-.061-.293-.348-.481-.641-.42-.293.061-.481.348-.42.641l.696 3.345c.06.293.348.481.64.42zM412.28 74.514h0c.293-.06.481-.348.42-.64l-.696-3.346c-.061-.293-.348-.48-.641-.42-.293.061-.481.348-.42.641l.696 3.345c.061.293.348.481.641.42z" transform="translate(35)"/>
            <path fill="#0D633E" d="M429.09 85.276c-.525 1.117-1.857 1.597-2.974 1.071l-14.496-6.819c-1.117-.525-1.597-1.857-1.071-2.974.525-1.117 1.857-1.596 2.974-1.07l14.496 6.818c1.117.526 1.596 1.857 1.07 2.974" transform="translate(35)"/>
            <path fill="#69B482" d="M429.09 85.276c-.525 1.117-1.857 1.597-2.974 1.071-1.117-.525-1.596-1.857-1.071-2.974.525-1.117 1.857-1.596 2.974-1.07 1.117.525 1.596 1.856 1.07 2.973" transform="translate(35)"/>
            <path fill="#0D633E" d="M269.517 38.017c-.92-.822-1-2.235-.178-3.156l10.671-11.948c.822-.921 2.236-1.001 3.156-.179.921.823 1 2.236.178 3.156l-10.67 11.949c-.822.92-2.236 1-3.156.178" transform="translate(35)"/>
            <path stroke="#69B482" d="M283.626 29.436l1.57 1.238c.652.512 1.595.4 2.108-.25h0c.512-.651.4-1.594-.25-2.107l-1.572-1.238c-.65-.512-1.593-.4-2.106.25-.513.65-.401 1.594.25 2.107zM283.277 34.197l-.662 1.887c-.275.782.136 1.638.918 1.912.782.276 1.638-.137 1.912-.918l.663-1.887c.274-.782-.137-1.638-.919-1.913h0c-.782-.273-1.638.138-1.912.92zM280.42 41.037l-.661 1.887c-.275.782.136 1.638.918 1.912h0c.782.275 1.638-.137 1.912-.918l.663-1.887c.274-.782-.137-1.638-.92-1.913-.781-.274-1.637.137-1.911.92z" transform="translate(35)"/>
            <path stroke="#69B482" d="M284.988 34.335h0c.293.06.579-.132.637-.425l.67-3.35c.058-.294-.132-.579-.425-.638-.294-.058-.58.132-.638.425l-.67 3.351c-.058.293.133.578.426.637zM282.31 41.07h0c.269.133.594.024.727-.243l1.523-3.06c.134-.267.025-.592-.243-.725h0c-.268-.134-.593-.025-.727.243l-1.522 3.059c-.134.267-.025.593.243.726zM279.009 47.666h0c.267.133.592.024.726-.243l1.522-3.059c.135-.268.026-.593-.243-.726-.267-.134-.593-.025-.726.243l-1.523 3.06c-.133.266-.024.592.244.725z" transform="translate(35)"/>
            <path fill="#0D633E" d="M285.553 66.522c-1.103.552-2.447.105-2.998-.999l-7.168-14.327c-.553-1.104-.106-2.447.998-2.999 1.105-.552 2.447-.105 3 1l7.168 14.326c.551 1.104.105 2.447-1 3" transform="translate(35)"/>
            <g fill="#69B482">
                <path d="M2.289 0s.24.28.409.7c.093.21.169.455.22.718.054.263.087.543.087.823.002.56-.127 1.12-.305 1.54-.17.42-.411.7-.411.7s-.241-.28-.411-.7c-.178-.42-.307-.98-.305-1.54 0-.28.033-.56.087-.823.05-.263.127-.508.22-.718.169-.42.409-.7.409-.7" transform="translate(35) translate(174 57)"/>
                <path d="M4.593 2.193s-.287.242-.718.414c-.215.094-.466.171-.735.223-.269.054-.556.088-.843.088-.287 0-.574-.03-.843-.087-.27-.05-.521-.128-.736-.222C.287 2.437 0 2.193 0 2.193s.287-.244.718-.416c.215-.094.466-.172.736-.222.269-.056.556-.087.843-.087.287 0 .574.033.843.088.269.052.52.13.735.223.431.172.718.414.718.414" transform="translate(35) translate(174 57)"/>
            </g>
            <g fill="#69B482">
                <path d="M2.289 0s.24.28.409.7c.093.21.169.455.22.718.054.263.087.543.087.823.002.56-.127 1.12-.305 1.54-.17.42-.411.7-.411.7s-.241-.28-.411-.7c-.178-.42-.307-.98-.305-1.54 0-.28.033-.56.087-.823.05-.263.127-.508.22-.718.169-.42.409-.7.409-.7" transform="translate(35) translate(522 40)"/>
                <path d="M4.593 2.193s-.287.242-.718.414c-.215.094-.466.171-.735.223-.269.054-.556.088-.843.088-.287 0-.574-.03-.843-.087-.27-.05-.521-.128-.736-.222C.287 2.437 0 2.193 0 2.193s.287-.244.718-.416c.215-.094.466-.172.736-.222.269-.056.556-.087.843-.087.287 0 .574.033.843.088.269.052.52.13.735.223.431.172.718.414.718.414" transform="translate(35) translate(522 40)"/>
            </g>
            <g fill="#69B482">
                <path d="M2.289 0s.24.28.409.7c.093.21.169.455.22.718.054.263.087.543.087.823.002.56-.127 1.12-.305 1.54-.17.42-.411.7-.411.7s-.241-.28-.411-.7c-.178-.42-.307-.98-.305-1.54 0-.28.033-.56.087-.823.05-.263.127-.508.22-.718.169-.42.409-.7.409-.7" transform="translate(35) translate(600 102)"/>
                <path d="M4.593 2.193s-.287.242-.718.414c-.215.094-.466.171-.735.223-.269.054-.556.088-.843.088-.287 0-.574-.03-.843-.087-.27-.05-.521-.128-.736-.222C.287 2.437 0 2.193 0 2.193s.287-.244.718-.416c.215-.094.466-.172.736-.222.269-.056.556-.087.843-.087.287 0 .574.033.843.088.269.052.52.13.735.223.431.172.718.414.718.414" transform="translate(35) translate(600 102)"/>
            </g>
            <g fill="#69B482">
                <path d="M2.289 0s.24.28.409.7c.093.21.169.455.22.718.054.263.087.543.087.823.002.56-.127 1.12-.305 1.54-.17.42-.411.7-.411.7s-.241-.28-.411-.7c-.178-.42-.307-.98-.305-1.54 0-.28.033-.56.087-.823.05-.263.127-.508.22-.718.169-.42.409-.7.409-.7" transform="translate(35) translate(686 36)"/>
                <path d="M4.593 2.193s-.287.242-.718.414c-.215.094-.466.171-.735.223-.269.054-.556.088-.843.088-.287 0-.574-.03-.843-.087-.27-.05-.521-.128-.736-.222C.287 2.437 0 2.193 0 2.193s.287-.244.718-.416c.215-.094.466-.172.736-.222.269-.056.556-.087.843-.087.287 0 .574.033.843.088.269.052.52.13.735.223.431.172.718.414.718.414" transform="translate(35) translate(686 36)"/>
            </g>
            <g fill="#69B482">
                <path d="M2.289 0s.24.28.409.7c.093.21.169.455.22.718.054.263.087.543.087.823.002.56-.127 1.12-.305 1.54-.17.42-.411.7-.411.7s-.241-.28-.411-.7c-.178-.42-.307-.98-.305-1.54 0-.28.033-.56.087-.823.05-.263.127-.508.22-.718.169-.42.409-.7.409-.7" transform="translate(35) translate(617 71)"/>
                <path d="M4.593 2.193s-.287.242-.718.414c-.215.094-.466.171-.735.223-.269.054-.556.088-.843.088-.287 0-.574-.03-.843-.087-.27-.05-.521-.128-.736-.222C.287 2.437 0 2.193 0 2.193s.287-.244.718-.416c.215-.094.466-.172.736-.222.269-.056.556-.087.843-.087.287 0 .574.033.843.088.269.052.52.13.735.223.431.172.718.414.718.414" transform="translate(35) translate(617 71)"/>
            </g>
            <g fill="#69B482">
                <path d="M2.289 0s.24.28.409.7c.093.21.169.455.22.718.054.263.087.543.087.823.002.56-.127 1.12-.305 1.54-.17.42-.411.7-.411.7s-.241-.28-.411-.7c-.178-.42-.307-.98-.305-1.54 0-.28.033-.56.087-.823.05-.263.127-.508.22-.718.169-.42.409-.7.409-.7" transform="translate(35) translate(112 114)"/>
                <path d="M4.593 2.193s-.287.242-.718.414c-.215.094-.466.171-.735.223-.269.054-.556.088-.843.088-.287 0-.574-.03-.843-.087-.27-.05-.521-.128-.736-.222C.287 2.437 0 2.193 0 2.193s.287-.244.718-.416c.215-.094.466-.172.736-.222.269-.056.556-.087.843-.087.287 0 .574.033.843.088.269.052.52.13.735.223.431.172.718.414.718.414" transform="translate(35) translate(112 114)"/>
            </g>
            <g fill="#69B482">
                <path d="M2.289 0s.24.28.409.7c.093.21.169.455.22.718.054.263.087.543.087.823.002.56-.127 1.12-.305 1.54-.17.42-.411.7-.411.7s-.241-.28-.411-.7c-.178-.42-.307-.98-.305-1.54 0-.28.033-.56.087-.823.05-.263.127-.508.22-.718.169-.42.409-.7.409-.7" transform="translate(35) translate(38 52)"/>
                <path d="M4.593 2.193s-.287.242-.718.414c-.215.094-.466.171-.735.223-.269.054-.556.088-.843.088-.287 0-.574-.03-.843-.087-.27-.05-.521-.128-.736-.222C.287 2.437 0 2.193 0 2.193s.287-.244.718-.416c.215-.094.466-.172.736-.222.269-.056.556-.087.843-.087.287 0 .574.033.843.088.269.052.52.13.735.223.431.172.718.414.718.414" transform="translate(35) translate(38 52)"/>
            </g>
            <g fill="#69B482">
                <path d="M2.289 0s.24.28.409.7c.093.21.169.455.22.718.054.263.087.543.087.823.002.56-.127 1.12-.305 1.54-.17.42-.411.7-.411.7s-.241-.28-.411-.7c-.178-.42-.307-.98-.305-1.54 0-.28.033-.56.087-.823.05-.263.127-.508.22-.718.169-.42.409-.7.409-.7" transform="translate(35) translate(128 49)"/>
                <path d="M4.593 2.193s-.287.242-.718.414c-.215.094-.466.171-.735.223-.269.054-.556.088-.843.088-.287 0-.574-.03-.843-.087-.27-.05-.521-.128-.736-.222C.287 2.437 0 2.193 0 2.193s.287-.244.718-.416c.215-.094.466-.172.736-.222.269-.056.556-.087.843-.087.287 0 .574.033.843.088.269.052.52.13.735.223.431.172.718.414.718.414" transform="translate(35) translate(128 49)"/>
            </g>
            <path stroke="#69B482" d="M277.588 46.186l-1.781.91c-.738.376-1.031 1.28-.655 2.017.377.738 1.28 1.031 2.018.654l1.782-.909c.738-.376 1.031-1.28.654-2.018-.377-.738-1.28-1.03-2.018-.654z" transform="translate(35)"/>
            <path fill="#69B482" d="M272.673 37.839c-.525 1.117-1.857 1.597-2.974 1.07-1.117-.524-1.596-1.856-1.07-2.973.524-1.117 1.856-1.596 2.973-1.071 1.117.526 1.596 1.857 1.071 2.974" transform="translate(35)"/>
        </g>
    </g>
</svg>
