<svg xmlns="http://www.w3.org/2000/svg" xmlns:xlink="http://www.w3.org/1999/xlink" width="768" height="149" viewBox="0 0 768 149">
    <defs>
        <path id="prefix__a" d="M0.698 0.076L66.031 0.076 66.031 9 0.698 9z"/>
    </defs>
    <g fill="none" fill-rule="evenodd">
        <rect width="768" height="135" y="10" fill="#0D744E" fill-rule="nonzero" rx="16"/>
        <g transform="translate(350 131.336)">
            <mask id="prefix__b" fill="#fff">
                <use xlink:href="#prefix__a"/>
            </mask>
            <path fill="#0D633E" d="M.698 4.538c0 2.465 14.625 4.463 32.667 4.463 18.041 0 32.666-1.998 32.666-4.462 0-2.464-14.625-4.462-32.666-4.462C15.323.077.698 2.075.698 4.538" mask="url(#prefix__b)"/>
        </g>
        <path fill="#0D633E" d="M653.882 97.104c0 8.258 6.694 14.952 14.952 14.952s14.952-6.694 14.952-14.952-6.694-14.952-14.952-14.952-14.952 6.694-14.952 14.952"/>
        <path fill="#0D633E" d="M674 112.272h94V73h-16.876c-6.768 0-13.2 3.384-17.622 9.272-4.421 5.888-10.855 9.273-17.622 9.273h-12.975c-5.77 0-11.335 2.464-15.614 6.912L674 112.272z"/>
        <path fill="#0D633E" d="M674 96.294c0 8.259 6.715 14.953 15 14.953s15-6.694 15-14.953c0-8.26-6.715-14.954-15-14.954s-15 6.695-15 14.954M625.535 94.556c0 9.666 7.834 17.5 17.5 17.5 9.665 0 17.5-7.834 17.5-17.5 0-9.665-7.835-17.5-17.5-17.5-9.666 0-17.5 7.835-17.5 17.5"/>
        <path fill="#0D633E" d="M542.639 111.894L668.834 111.894 668.834 91.93 542.639 91.93z"/>
        <path fill="#0D633E" d="M590.868 89.26c0 12.59-10.206 22.797-22.795 22.797-12.59 0-22.796-10.206-22.796-22.796s10.206-22.796 22.796-22.796 22.795 10.206 22.795 22.796"/>
        <path fill="#0D633E" d="M601.38 97.144c0 8.236-6.676 14.912-14.912 14.912s-14.912-6.676-14.912-14.912 6.676-14.912 14.912-14.912 14.912 6.676 14.912 14.912"/>
        <path fill="#0D633E" d="M537 111.869L587.393 111.869 587.393 97.144 537 97.144zM397.096 89.2c0 12.623 10.233 22.856 22.857 22.856 12.624 0 22.857-10.233 22.857-22.857 0-12.624-10.233-22.857-22.857-22.857-12.624 0-22.857 10.233-22.857 22.857"/>
        <path fill="#0D633E" d="M436.157 97.104c0 8.258 6.694 14.952 14.952 14.952s14.952-6.694 14.952-14.952-6.694-14.952-14.952-14.952-14.952 6.694-14.952 14.952"/>
        <g fill="#0D633E">
            <path d="M116.882 30.64c0 8.257 6.694 14.951 14.952 14.951s14.952-6.694 14.952-14.952-6.694-14.952-14.952-14.952-14.952 6.694-14.952 14.952" transform="translate(0 66.465)"/>
            <path d="M137 45.808h108V6.535h-19.389c-7.777 0-15.167 3.385-20.247 9.272v.001c-5.08 5.887-12.471 9.272-20.247 9.272h-14.906c-6.63 0-13.025 2.464-17.94 6.912L137 45.808z" transform="translate(0 66.465)"/>
            <path d="M137 29.829c0 8.259 6.715 14.953 15 14.953s15-6.694 15-14.953c0-8.26-6.715-14.954-15-14.954s-15 6.695-15 14.954M88.535 28.091c0 9.666 7.834 17.5 17.5 17.5 9.665 0 17.5-7.834 17.5-17.5 0-9.665-7.835-17.5-17.5-17.5-9.666 0-17.5 7.835-17.5 17.5" transform="translate(0 66.465)"/>
            <path d="M5.639 45.429L131.834 45.429 131.834 25.465 5.639 25.465z" transform="translate(0 66.465)"/>
            <path d="M53.868 22.796c0 12.59-10.206 22.796-22.795 22.796-12.59 0-22.796-10.206-22.796-22.796S18.483 0 31.073 0s22.795 10.206 22.795 22.796" transform="translate(0 66.465)"/>
            <path d="M64.38 30.68c0 8.236-6.676 14.912-14.912 14.912S34.556 38.916 34.556 30.68s6.676-14.912 14.912-14.912S64.38 22.442 64.38 30.68" transform="translate(0 66.465)"/>
            <path d="M0 45.404L50.393 45.404 50.393 30.679 0 30.679z" transform="translate(0 66.465)"/>
        </g>
        <path fill="#0D633E" d="M386.555 97.104c0 8.258 6.694 14.952 14.952 14.952s14.952-6.694 14.952-14.952-6.694-14.952-14.952-14.952-14.952 6.694-14.952 14.952"/>
        <path fill="#0D633E" d="M324.914 111.894L451.109 111.894 451.109 91.93 324.914 91.93z"/>
        <path fill="#0D633E" d="M336.7 112.081H229V72.918h19.335c7.755 0 15.125 3.375 20.191 9.246v.001c5.065 5.871 12.436 9.246 20.19 9.246h14.865c6.612 0 12.988 2.457 17.89 6.893l15.228 13.777zM373.143 89.26c0 12.59-10.206 22.797-22.795 22.797-12.59 0-22.796-10.206-22.796-22.796s10.206-22.796 22.796-22.796 22.795 10.206 22.795 22.796"/>
        <path fill="#0D633E" d="M383.655 97.144c0 8.236-6.676 14.912-14.912 14.912s-14.912-6.676-14.912-14.912 6.676-14.912 14.912-14.912 14.912 6.676 14.912 14.912"/>
        <path fill="#0D633E" d="M319.275 111.869L369.668 111.869 369.668 97.144 319.275 97.144zM428.999 112.081h107.699V72.918h-19.335c-7.755 0-15.125 3.375-20.191 9.246v.001c-5.065 5.871-12.436 9.246-20.19 9.246h-14.865c-6.612 0-12.988 2.457-17.89 6.893l-15.228 13.777z"/>
        <path fill="#FFF" d="M272.115 46.876c14.498 0 26.25-11.862 26.25-26.359 0-2.532-.365-4.401-1.034-7.401h-50.432c-.67 3-1.034 4.906-1.034 7.437 0 14.498 11.753 26.323 26.25 26.323z"/>
        <path fill="#08492C" d="M379.735 128.28c-1.143-.168-13.126 7.312-10.57 8.41 2.559 1.095 13.363-2.414 13.46-4.863.132-3.285-1.463-3.339-2.89-3.548M388.526 128.28c1.143-.168 13.126 7.312 10.57 8.41-2.559 1.095-13.363-2.414-13.46-4.863-.132-3.285 1.463-3.339 2.89-3.548M374.884 117.02l-4.139-27.01h26.49l-4.811 28.152c-.307 2.692-6.045 3.285-8.278 1.314l-.964-.044c-1.579.732-4.209 2.345-6.965.042-.735-.615-1.188-1.506-1.333-2.453"/>
        <path fill="#E6E6E6" d="M398.42 91.915s2.8 13.451 5.611 17.201c-4.57-.235-7.377 3.419-7.377 3.419l-.91-18.371 2.675-2.249z"/>
        <path fill="#B3B3B3" d="M401.753 104.277L396.147 101.605 395.743 94.164 399.826 96.401z"/>
        <path fill="#FFF" d="M396.844 90.718s19.892 6.939 15.621 7.878c-5.739 1.262-4.282 9.316-4.282 9.316L395.735 94.37l1.11-3.653z"/>
        <path fill="#FFF" d="M378.996 98.519h10.299c4.22 0 7.64-3.421 7.64-7.641v-4.141c0-4.22-3.42-7.64-7.64-7.64h-10.3c-4.22 0-7.64 3.42-7.64 7.64v4.14c0 4.22 3.42 7.642 7.64 7.642"/>
        <path fill="#E6E6E6" d="M390.453 98.32l3.154-5.782 4.073-2.628s-1.183 7.622-7.227 8.41"/>
        <path fill="#08492C" d="M371.794 59.339s-7.358 1.752-5.256 14.016c2.102 12.264 1.074 20.372 14.104 21.549 13.577 1.227 17.081-3.328 18.133-7.183 1.051-3.854 5.256-22.075.35-26.98-4.906-4.906-27.331-1.402-27.331-1.402"/>
        <path fill="#69B482" d="M393.168 58.844L383.882 66.697 374.422 58.638z"/>
        <path stroke="#08492C" stroke-linecap="round" stroke-width="9.385" d="M398.494 64.175s41.856 40.36-5.279 15.148M368.694 64.175s-41.856 40.36 5.279 15.148"/>
        <path fill="#0D633E" d="M377.966 61.657c2.5 1.186 6.88 1.624 9.946 1.71l5.256-4.522-18.746-.207 3.544 3.019z"/>
        <path fill="#08492C" d="M403.39 59.428l2.42-.46C415.9 57.05 423.2 48.23 423.2 37.96V23.52c0-9.766-6.615-18.29-16.074-20.716l-.366-.094c-15.867-4.069-32.564-3.546-48.146 1.508-8.817 2.86-14.788 11.073-14.788 20.342v12.25c0 9.518 6.292 17.891 15.435 20.54 14.341 4.155 29.46 4.867 44.128 2.08"/>
        <path fill="#69B482" d="M397.713 40.233l1.728-.167c7.208-.7 12.424-3.912 12.424-7.654v-5.26c0-3.558-4.725-6.663-11.483-7.547l-.261-.034c-11.335-1.482-23.262-1.291-34.393.55-6.3 1.04-10.564 4.033-10.564 7.41v4.462c0 3.468 4.494 6.518 11.026 7.483 10.244 1.513 21.045 1.773 31.523.757"/>
        <path stroke="#08492C" stroke-width="2.121" d="M362.475 29.829L375.112 31.316M404.708 29.829L392.071 31.316"/>
        <path fill="#FFF" d="M389.288 77.04l17.447 2.922s3.05 5.1-2.49 10.231c-9.85-4.105-15.596-8.004-15.596-8.004l.639-5.15z"/>
        <path fill="#E6E6E6" d="M389.664 80.538l-.859.39-.157 1.262s5.746 3.899 15.596 8.004c1.45-1.342 2.301-2.68 2.783-3.926l-17.363-5.73z"/>
        <path fill="#FFF" d="M378.144 77.04l-17.157 2.922s-3.051 5.1 2.49 10.231c9.85-4.105 15.596-8.004 15.596-8.004l-.93-5.15z"/>
        <path fill="#E6E6E6" d="M378.53 80.275l.892.405.162 1.308s-5.957 4.042-16.17 8.298c-1.501-1.391-2.385-2.778-2.884-4.07l18-5.941z"/>
        <path fill="#FFF" d="M376.174 119.432s2.628 2.278 7.008 0c-.388 3.785-.81 6.81-1.172 9.012-.256 1.559-1.413 1.85-2.507 1.85-.656 0-1.154-.36-1.402-1.555l-1.927-9.307M391.591 119.432s-2.628 2.278-7.008 0c.388 3.785.81 6.81 1.172 9.012.256 1.559 1.182 1.938 2.507 1.85.655-.043 1.286-.72 1.533-1.916.79-3.81 1.796-8.946 1.796-8.946"/>
        <path fill="#69B482" d="M378.144 78.132s2.147-.902 2.673-3.18c.526-2.28 1.577-5.457 1.577-5.803 1.4 0 1.4.898 1.577 1.727.175.83-.154 4.42.109 5.387.263.967.329 4.42-.723 5.248-1.051.83-4.284.681-4.284.681s-1.5-1.984-.93-4.06"/>
        <path fill="#69B482" d="M390.17 78.132s-2.148-.902-2.674-3.18c-.526-2.28-1.577-5.457-1.577-5.803-1.4 0-1.4.898-1.577 1.727-.175.83.132 3.781.132 5.387 0 .99-.57 4.42.482 5.248 1.051.83 4.284.681 4.284.681s1.5-1.984.93-4.06"/>
        <path fill="#B3B3B3" d="M387.212 120.395l.175 9.724s-1.14.087-1.664-1.314c-.526-1.402-1.14-9.374-1.14-9.374l2.628.964zM380.554 120.395l-.175 9.724s1.139.087 1.664-1.314c.526-1.402 1.139-9.374 1.139-9.374l-2.628.964z"/>
        <path stroke="#08492C" stroke-width="1.702" d="M394.92 32.708c0 .968.784 1.752 1.752 1.752s1.752-.784 1.752-1.752-.784-1.752-1.752-1.752-1.752.784-1.752 1.752zM368.64 32.708c0 .968.784 1.752 1.752 1.752s1.752-.784 1.752-1.752-.784-1.752-1.752-1.752-1.752.784-1.752 1.752z"/>
        <path fill="#E6E6E6" d="M408.183 107.912s-5.976-9.879-5.817-11.624c.158-1.746 10.468 2.295 10.468 2.295s-7.079.323-4.65 9.33"/>
        <path fill="#69B482" d="M474.502 33.586c-5.752.347-10.958 4.502-16.71 4.041-2.96-.237-5.79-1.7-8.75-1.477-2.913.22-5.616 2.228-6.67 4.952l45.618-.044c-3.684-3.852-7.517-7.74-13.288-7.482-.067.002-.133.006-.2.01M86.129 36.022c-5.752.347-10.958 4.502-16.71 4.041-2.96-.237-5.79-1.7-8.75-1.477-2.913.22-5.616 2.228-6.669 4.952l45.617-.044c-3.684-3.852-7.517-7.74-13.288-7.482-.067.002-.133.006-.2.01M619.129 41.022c-5.752.347-10.958 4.502-16.71 4.041-2.96-.237-5.79-1.7-8.75-1.477-2.913.22-5.616 2.228-6.669 4.952l45.617-.044c-3.684-3.852-7.517-7.74-13.288-7.482-.067.002-.133.006-.2.01M496.887 53.916c-4.735.285-9.02 3.706-13.755 3.327-2.436-.196-4.766-1.401-7.202-1.217-2.398.182-4.623 1.834-5.489 4.077l37.55-.036c-3.034-3.171-6.189-6.372-10.939-6.16l-.165.009M687.446 33.019c-4.735.285-9.02 3.706-13.755 3.327-2.436-.196-4.766-1.401-7.202-1.217-2.398.182-4.623 1.834-5.489 4.077l37.549-.036c-3.033-3.171-6.188-6.372-10.938-6.16l-.165.009M321.669 45.11c-4.07.245-7.752 3.185-11.821 2.86-2.094-.169-4.095-1.205-6.19-1.046-2.06.156-3.972 1.576-4.717 3.503l32.27-.03c-2.607-2.726-5.318-5.477-9.4-5.294l-.142.007M111.728 53.016c-4.069.245-7.752 3.185-11.821 2.859-2.094-.168-4.095-1.204-6.19-1.045-2.06.156-3.972 1.576-4.717 3.503l32.27-.031c-2.607-2.725-5.318-5.476-9.4-5.293l-.142.007M280.478 62.219c-2.871.173-5.47 2.247-8.341 2.017-1.477-.118-2.89-.85-4.367-.737-1.454.11-2.804 1.112-3.33 2.472l22.77-.022c-1.838-1.923-3.751-3.864-6.632-3.735-.033 0-.067.003-.1.005M209.037 29.011c-2.871.173-5.47 2.247-8.341 2.017-1.477-.118-2.89-.849-4.367-.737-1.454.11-2.804 1.112-3.329 2.472l22.77-.022c-1.839-1.923-3.752-3.864-6.633-3.735l-.1.005"/>
        <g fill="#08492C">
            <path d="M38.365 47.27V.008C38.252.007 38.14 0 38.028 0c-13.056 0-23.64 10.583-23.64 23.639 0 1.841.218 3.63.616 5.35-6.908.182-12.455 5.827-12.455 12.779 0 7.066 5.729 12.795 12.796 12.795 5.975 0 10.979-4.102 12.387-9.64 3.112 1.509 6.605 2.356 10.296 2.356.113 0 .224-.007.337-.009M38.365.008c.107-.001.212-.008.32-.008 12.394 0 22.441 10.583 22.441 23.639 0 1.841-.207 3.63-.585 5.35 6.558.182-10.746 21.472-12.082 15.934-2.955 1.509-6.27 2.356-9.774 2.356-.108 0-.213-.007-.32-.009V.008z" transform="translate(501 53.464)"/>
            <path d="M46 42.536c-.178.022-.356.037-.533.067-5.412.92-10.03 5.424-11.08 10.81-2.492-1.74-5.92-2.038-8.677-.757-.723.336-1.447.783-2.244.755-.675-.024-1.282-.386-1.894-.67-4.906-2.286-11.53 1.103-12.546 6.417-2.514-1.91-6.613-1.144-8.267 1.545-1.653 2.687-.488 6.689 2.35 8.07 1.544.75 3.328.764 5.045.763 12.615-.009 25.231-.017 37.846-.027V42.536z" transform="translate(501 53.464)"/>
            <path d="M45 17.536c.336.042.674.072 1.007.13 10.237 1.77 18.97 10.446 20.956 20.818 4.715-3.35 11.198-3.925 16.411-1.458 1.369.649 2.737 1.509 4.245 1.455 1.277-.046 2.423-.744 3.582-1.292 9.28-4.402 21.807 2.125 23.728 12.36 4.754-3.679 12.508-2.203 15.635 2.975 3.127 5.175.923 12.883-4.446 15.542-2.92 1.446-6.293 1.472-9.54 1.47-23.858-.017-47.72-.033-71.578-.051v-51.95z" transform="translate(501 53.464)"/>
        </g>
        <g fill="#08492C">
            <path d="M20.539 0h2.714c2.418 0 4.379 1.96 4.379 4.379V30.13c0 2.419-1.961 4.379-4.38 4.379H20.54c-2.418 0-4.38-1.96-4.38-4.379V4.379C16.16 1.96 18.122 0 20.54 0M4.379 7.05h2.714c2.418 0 4.379 1.96 4.379 4.378V30.13c0 2.42-1.961 4.38-4.379 4.38H4.379C1.961 34.51 0 32.55 0 30.13V11.428C0 9.01 1.961 7.05 4.379 7.05" transform="translate(467.643 83.115)"/>
            <path d="M21.571 16.854h.65c.578 0 1.047.469 1.047 1.047v20.79c0 .578-.469 1.047-1.048 1.047h-.649c-.578 0-1.047-.47-1.047-1.047V17.9c0-.578.47-1.047 1.047-1.047M5.361 16.854h.65c.578 0 1.047.469 1.047 1.047v20.79c0 .578-.469 1.047-1.048 1.047h-.649c-.578 0-1.047-.47-1.047-1.047V17.9c0-.578.47-1.047 1.047-1.047" transform="translate(467.643 83.115)"/>
        </g>
        <g fill="#08492C">
            <path d="M36.634 0h4.732C45.58 0 49 3.521 49 7.867v46.266C49 58.479 45.581 62 41.366 62h-4.732C32.42 62 29 58.479 29 54.133V7.867C29 3.521 32.419 0 36.634 0M7.634 13h4.732C16.58 13 20 16.497 20 20.814v33.372C20 58.503 16.581 62 12.366 62H7.634C3.42 62 0 58.503 0 54.186V20.814C0 16.497 3.419 13 7.634 13" transform="matrix(-1 0 0 1 209 51.853)"/>
            <path d="M37.908 30h1.182c1.055 0 1.91.84 1.91 1.876v37.248C41 70.16 40.145 71 39.09 71h-1.182C36.855 71 36 70.16 36 69.124V31.876C36 30.84 36.855 30 37.908 30M8.908 30h1.182c1.055 0 1.91.84 1.91 1.876v37.248C12 70.16 11.145 71 10.09 71H8.908C7.855 71 7 70.16 7 69.124V31.876C7 30.84 7.855 30 8.908 30" transform="matrix(-1 0 0 1 209 51.853)"/>
        </g>
    </g>
</svg>
