<svg xmlns="http://www.w3.org/2000/svg" xmlns:xlink="http://www.w3.org/1999/xlink" width="310" height="149" viewBox="0 0 310 149">
    <defs>
        <path id="prefix__a" d="M0.698 0.076L66.031 0.076 66.031 9 0.698 9z"/>
        <path id="prefix__c" d="M0 140.336L310 140.336 310 0 0 0z"/>
    </defs>
    <g fill="none" fill-rule="evenodd">
        <rect width="310" height="135" y="10" fill="#0D744E" fill-rule="nonzero" rx="16"/>
        <g transform="translate(121 131.336)">
            <mask id="prefix__b" fill="#fff">
                <use xlink:href="#prefix__a"/>
            </mask>
            <path fill="#0D633E" d="M.698 4.538c0 2.465 14.625 4.463 32.667 4.463 18.041 0 32.666-1.998 32.666-4.462 0-2.464-14.625-4.462-32.666-4.462C15.323.077.698 2.075.698 4.538" mask="url(#prefix__b)"/>
        </g>
        <path fill="#0D633E" d="M168.096 89.2c0 12.623 10.233 22.856 22.857 22.856 12.624 0 22.857-10.233 22.857-22.857 0-12.624-10.233-22.857-22.857-22.857-12.624 0-22.857 10.233-22.857 22.857"/>
        <path fill="#0D633E" d="M207.157 97.104c0 8.258 6.694 14.952 14.952 14.952s14.952-6.694 14.952-14.952-6.694-14.952-14.952-14.952-14.952 6.694-14.952 14.952M157.555 97.104c0 8.258 6.694 14.952 14.952 14.952s14.952-6.694 14.952-14.952-6.694-14.952-14.952-14.952-14.952 6.694-14.952 14.952"/>
        <mask id="prefix__d" fill="#fff">
            <use xlink:href="#prefix__c"/>
        </mask>
        <path fill="#0D633E" d="M95.914 111.894L222.109 111.894 222.109 91.93 95.914 91.93z" mask="url(#prefix__d)"/>
        <path fill="#0D633E" d="M107.7 112.081H0V72.918h19.335c7.755 0 15.125 3.375 20.191 9.246v.001c5.065 5.871 12.436 9.246 20.19 9.246h14.865c6.612 0 12.988 2.457 17.89 6.893l15.228 13.777zM144.143 89.26c0 12.59-10.206 22.797-22.795 22.797-12.59 0-22.796-10.206-22.796-22.796s10.206-22.796 22.796-22.796 22.795 10.206 22.795 22.796" mask="url(#prefix__d)"/>
        <path fill="#0D633E" d="M105.187 97.144c0 8.236-6.676 14.912-14.912 14.912s-14.912-6.676-14.912-14.912 6.676-14.912 14.912-14.912 14.912 6.676 14.912 14.912M154.655 97.144c0 8.236-6.676 14.912-14.912 14.912s-14.912-6.676-14.912-14.912 6.676-14.912 14.912-14.912 14.912 6.676 14.912 14.912" mask="url(#prefix__d)"/>
        <path fill="#0D633E" d="M90.275 111.869L140.668 111.869 140.668 97.144 90.275 97.144zM199.999 112.081h107.699V72.918h-19.335c-7.755 0-15.125 3.375-20.191 9.246v.001c-5.065 5.871-12.436 9.246-20.19 9.246h-14.865c-6.612 0-12.988 2.457-17.89 6.893l-15.228 13.777z" mask="url(#prefix__d)"/>
        <path fill="#FFF" d="M16.865 20.553c0 14.498 11.753 26.323 26.25 26.323 14.498 0 26.25-11.862 26.25-26.359 0-2.532-.365-4.401-1.034-7.401H17.899c-.67 3-1.034 4.906-1.034 7.437" mask="url(#prefix__d)"/>
        <path fill="#08492C" d="M150.735 128.28c-1.143-.168-13.126 7.312-10.57 8.41 2.559 1.095 13.363-2.414 13.46-4.863.132-3.285-1.463-3.339-2.89-3.548M159.526 128.28c1.143-.168 13.126 7.312 10.57 8.41-2.559 1.095-13.363-2.414-13.46-4.863-.132-3.285 1.463-3.339 2.89-3.548M145.884 117.02l-4.139-27.01h26.49l-4.811 28.152c-.307 2.692-6.045 3.285-8.278 1.314l-.964-.044c-1.579.732-4.209 2.345-6.965.042-.735-.615-1.188-1.506-1.333-2.453" mask="url(#prefix__d)"/>
        <path fill="#E6E6E6" d="M169.42 91.915s2.8 13.451 5.611 17.201c-4.57-.235-7.377 3.419-7.377 3.419l-.91-18.371 2.675-2.249z" mask="url(#prefix__d)"/>
        <path fill="#B3B3B3" d="M172.753 104.277L167.147 101.605 166.743 94.164 170.826 96.401z" mask="url(#prefix__d)"/>
        <path fill="#FFF" d="M167.844 90.718s19.892 6.939 15.621 7.878c-5.739 1.262-4.282 9.316-4.282 9.316L166.735 94.37l1.11-3.653z" mask="url(#prefix__d)"/>
        <path fill="#FFF" d="M149.996 98.519h10.299c4.22 0 7.64-3.421 7.64-7.641v-4.141c0-4.22-3.42-7.64-7.64-7.64h-10.3c-4.22 0-7.64 3.42-7.64 7.64v4.14c0 4.22 3.42 7.642 7.64 7.642" mask="url(#prefix__d)"/>
        <path fill="#E6E6E6" d="M161.453 98.32l3.154-5.782 4.073-2.628s-1.183 7.622-7.227 8.41" mask="url(#prefix__d)"/>
        <path fill="#08492C" d="M142.794 59.339s-7.358 1.752-5.256 14.016c2.102 12.264 1.074 20.372 14.104 21.549 13.577 1.227 17.081-3.328 18.133-7.183 1.051-3.854 5.256-22.075.35-26.98-4.906-4.906-27.331-1.402-27.331-1.402" mask="url(#prefix__d)"/>
        <path fill="#69B482" d="M164.168 58.844L154.882 66.697 145.422 58.638z" mask="url(#prefix__d)"/>
        <path stroke="#08492C" stroke-linecap="round" stroke-width="9.385" d="M169.494 64.175s41.856 40.36-5.279 15.148M139.694 64.175s-41.856 40.36 5.279 15.148" mask="url(#prefix__d)"/>
        <path fill="#0D633E" d="M148.966 61.657c2.5 1.186 6.88 1.624 9.946 1.71l5.256-4.522-18.746-.207 3.544 3.019z" mask="url(#prefix__d)"/>
        <path fill="#08492C" d="M174.39 59.428l2.42-.46C186.9 57.05 194.2 48.23 194.2 37.96V23.52c0-9.766-6.615-18.29-16.074-20.716l-.366-.094c-15.867-4.069-32.564-3.546-48.146 1.508-8.817 2.86-14.788 11.073-14.788 20.342v12.25c0 9.518 6.292 17.891 15.435 20.54 14.341 4.155 29.46 4.867 44.128 2.08" mask="url(#prefix__d)"/>
        <path fill="#69B482" d="M168.713 40.233l1.728-.167c7.208-.7 12.424-3.912 12.424-7.654v-5.26c0-3.558-4.725-6.663-11.483-7.547l-.261-.034c-11.335-1.482-23.262-1.291-34.393.55-6.3 1.04-10.564 4.033-10.564 7.41v4.462c0 3.468 4.494 6.518 11.026 7.483 10.244 1.513 21.045 1.773 31.523.757" mask="url(#prefix__d)"/>
        <path stroke="#08492C" stroke-width="2.121" d="M133.475 29.829L146.112 31.316M175.708 29.829L163.071 31.316" mask="url(#prefix__d)"/>
        <path fill="#FFF" d="M160.288 77.04l17.447 2.922s3.05 5.1-2.49 10.231c-9.85-4.105-15.596-8.004-15.596-8.004l.639-5.15z" mask="url(#prefix__d)"/>
        <path fill="#E6E6E6" d="M160.664 80.538l-.859.39-.157 1.262s5.746 3.899 15.596 8.004c1.45-1.342 2.301-2.68 2.783-3.926l-17.363-5.73z" mask="url(#prefix__d)"/>
        <path fill="#FFF" d="M149.144 77.04l-17.157 2.922s-3.051 5.1 2.49 10.231c9.85-4.105 15.596-8.004 15.596-8.004l-.93-5.15z" mask="url(#prefix__d)"/>
        <path fill="#E6E6E6" d="M149.53 80.275l.892.405.162 1.308s-5.957 4.042-16.17 8.298c-1.501-1.391-2.385-2.778-2.884-4.07l18-5.941z" mask="url(#prefix__d)"/>
        <path fill="#FFF" d="M147.174 119.432s2.628 2.278 7.008 0c-.388 3.785-.81 6.81-1.172 9.012-.256 1.559-1.413 1.85-2.507 1.85-.656 0-1.154-.36-1.402-1.555l-1.927-9.307M162.591 119.432s-2.628 2.278-7.008 0c.388 3.785.81 6.81 1.172 9.012.256 1.559 1.182 1.938 2.507 1.85.655-.043 1.286-.72 1.533-1.916.79-3.81 1.796-8.946 1.796-8.946" mask="url(#prefix__d)"/>
        <path fill="#69B482" d="M149.144 78.132s2.147-.902 2.673-3.18c.526-2.28 1.577-5.457 1.577-5.803 1.4 0 1.4.898 1.577 1.727.175.83-.154 4.42.109 5.387.263.967.329 4.42-.723 5.248-1.051.83-4.284.681-4.284.681s-1.5-1.984-.93-4.06" mask="url(#prefix__d)"/>
        <path fill="#69B482" d="M161.17 78.132s-2.148-.902-2.674-3.18c-.526-2.28-1.577-5.457-1.577-5.803-1.4 0-1.4.898-1.577 1.727-.175.83.132 3.781.132 5.387 0 .99-.57 4.42.482 5.248 1.051.83 4.284.681 4.284.681s1.5-1.984.93-4.06" mask="url(#prefix__d)"/>
        <path fill="#B3B3B3" d="M158.212 120.395l.175 9.724s-1.14.087-1.665-1.314c-.526-1.402-1.139-9.374-1.139-9.374l2.629.964zM151.554 120.395l-.175 9.724s1.139.087 1.664-1.314c.526-1.402 1.139-9.374 1.139-9.374l-2.628.964z" mask="url(#prefix__d)"/>
        <path stroke="#08492C" stroke-width="1.702" d="M165.92 32.708c0 .968.784 1.752 1.752 1.752s1.752-.784 1.752-1.752-.784-1.752-1.752-1.752-1.752.784-1.752 1.752zM139.64 32.708c0 .968.784 1.752 1.752 1.752s1.752-.784 1.752-1.752-.784-1.752-1.752-1.752-1.752.784-1.752 1.752z" mask="url(#prefix__d)"/>
        <path fill="#E6E6E6" d="M179.183 107.912s-5.976-9.879-5.817-11.624c.158-1.746 10.468 2.295 10.468 2.295s-7.079.323-4.65 9.33" mask="url(#prefix__d)"/>
        <path fill="#69B482" d="M245.502 33.586c-5.752.347-10.958 4.502-16.71 4.041-2.96-.237-5.79-1.7-8.75-1.477-2.913.22-5.616 2.228-6.67 4.952l45.618-.044c-3.684-3.852-7.517-7.74-13.288-7.482-.067.002-.133.006-.2.01M267.887 53.916c-4.735.285-9.02 3.706-13.755 3.327-2.436-.196-4.766-1.401-7.202-1.217-2.398.182-4.623 1.834-5.489 4.077l37.55-.036c-3.034-3.171-6.189-6.372-10.939-6.16l-.165.009M92.669 45.11c-4.07.245-7.752 3.185-11.821 2.86-2.094-.169-4.095-1.205-6.19-1.046-2.06.156-3.972 1.576-4.717 3.503l32.27-.03c-2.607-2.726-5.318-5.477-9.4-5.294l-.142.007M51.478 62.219c-2.871.173-5.47 2.247-8.341 2.017-1.477-.118-2.89-.85-4.367-.737-1.454.11-2.804 1.112-3.33 2.472l22.77-.022c-1.838-1.923-3.751-3.864-6.632-3.735-.033 0-.067.003-.1.005" mask="url(#prefix__d)"/>
        <path fill="#08492C" d="M310.365 100.734V53.472c-.113 0-.224-.008-.337-.008-13.056 0-23.64 10.583-23.64 23.64 0 1.84.218 3.63.616 5.35-6.908.181-12.455 5.826-12.455 12.778 0 7.066 5.729 12.795 12.796 12.795 5.975 0 10.979-4.102 12.387-9.64 3.112 1.51 6.605 2.356 10.296 2.356.113 0 .224-.007.337-.009M259.182 83.115h2.714c2.418 0 4.38 1.96 4.38 4.38v25.75c0 2.42-1.962 4.38-4.38 4.38h-2.714c-2.418 0-4.379-1.96-4.379-4.38v-25.75c0-2.42 1.961-4.38 4.38-4.38M243.022 90.165h2.714c2.418 0 4.38 1.96 4.38 4.379v18.702c0 2.419-1.962 4.379-4.38 4.379h-2.714c-2.418 0-4.379-1.96-4.379-4.38V94.545c0-2.42 1.961-4.38 4.38-4.38" mask="url(#prefix__d)"/>
        <path fill="#08492C" d="M260.215 99.97h.649c.579 0 1.048.468 1.048 1.046v20.79c0 .578-.47 1.047-1.048 1.047h-.65c-.577 0-1.046-.469-1.046-1.047v-20.79c0-.578.469-1.047 1.047-1.047M244.005 99.97h.649c.579 0 1.048.468 1.048 1.046v20.79c0 .578-.47 1.047-1.048 1.047h-.65c-.577 0-1.046-.469-1.046-1.047v-20.79c0-.578.469-1.047 1.047-1.047M310.365 100.81c-.147.017-.295.03-.441.055-4.481.761-8.304 4.494-9.173 8.955-2.064-1.441-4.902-1.688-7.184-.627-.6.279-1.198.648-1.858.626-.56-.02-1.061-.32-1.568-.556-4.062-1.894-9.546.913-10.387 5.316-2.081-1.582-5.475-.947-6.844 1.28-1.37 2.226-.404 5.54 1.946 6.684 1.278.622 2.755.633 4.176.633 10.444-.008 20.889-.014 31.333-.023V100.81z" mask="url(#prefix__d)"/>
    </g>
</svg>
