<svg xmlns="http://www.w3.org/2000/svg" width="768" height="149" viewBox="0 0 768 149">
    <g fill="none" fill-rule="evenodd">
        <rect width="768" height="135" y="10" fill="#0D744E" fill-rule="nonzero" rx="16"/>
        <path fill="#69B482" d="M633.129 42.022c-5.752.347-10.958 4.502-16.71 4.041-2.96-.237-5.79-1.7-8.75-1.477-2.913.22-5.616 2.228-6.669 4.952l45.617-.044c-3.684-3.852-7.517-7.74-13.288-7.482-.067.002-.133.006-.2.01M730.446 33.019c-4.735.285-9.02 3.706-13.755 3.327-2.436-.196-4.766-1.401-7.202-1.217-2.398.182-4.623 1.834-5.489 4.077l37.549-.036c-3.033-3.171-6.188-6.372-10.938-6.16l-.165.009"/>
        <path fill="#08492C" d="M653.882 97.104c0 8.258 6.694 14.952 14.952 14.952s14.952-6.694 14.952-14.952-6.694-14.952-14.952-14.952-14.952 6.694-14.952 14.952"/>
        <path fill="#08492C" d="M674 112.272h94V73h-16.876c-6.768 0-13.2 3.384-17.622 9.272-4.421 5.888-10.855 9.273-17.622 9.273h-12.975c-5.77 0-11.335 2.464-15.614 6.912L674 112.272z"/>
        <path fill="#08492C" d="M674 96.294c0 8.259 6.715 14.953 15 14.953s15-6.694 15-14.953c0-8.26-6.715-14.954-15-14.954s-15 6.695-15 14.954M625.535 94.556c0 9.666 7.834 17.5 17.5 17.5 9.665 0 17.5-7.834 17.5-17.5 0-9.665-7.835-17.5-17.5-17.5-9.666 0-17.5 7.835-17.5 17.5"/>
        <path fill="#08492C" d="M542.639 111.894L668.834 111.894 668.834 91.93 542.639 91.93z"/>
        <path fill="#08492C" d="M553.796 111.592c-12.59 0-22.796-10.206-22.796-22.796S541.206 66 553.796 66c12.589 0 22.795 10.206 22.795 22.796s-10.206 22.796-22.795 22.796z"/>
        <path fill="#08492C" d="M601.38 97.144c0 8.236-6.676 14.912-14.912 14.912s-14.912-6.676-14.912-14.912 6.676-14.912 14.912-14.912 14.912 6.676 14.912 14.912"/>
        <path fill="#08492C" d="M537 111.869L587.393 111.869 587.393 97.144 537 97.144z"/>
        <path fill="#69B482" d="M118.129 34.022c-5.752.347-10.958 4.502-16.71 4.041-2.96-.237-5.79-1.7-8.75-1.477-2.913.22-5.616 2.228-6.669 4.952l45.617-.044c-3.684-3.852-7.517-7.74-13.288-7.482-.067.002-.133.006-.2.01M180.728 52.016c-4.069.245-7.752 3.185-11.821 2.859-2.094-.168-4.095-1.204-6.19-1.045-2.06.156-3.972 1.576-4.717 3.503l32.27-.031c-2.607-2.725-5.318-5.476-9.4-5.293l-.142.007"/>
        <g>
            <path fill="#FDE485" d="M185 78c0 1.657-1.343 3-3 3s-3-1.343-3-3 1.343-3 3-3 3 1.343 3 3M68 75.5C68 87.926 57.926 98 45.5 98S23 87.926 23 75.5 33.074 53 45.5 53 68 63.074 68 75.5" transform="translate(229)"/>
            <g fill="#08492C">
                <path d="M169 23c0 12.703 10.297 23 23 23s23-10.297 23-23-10.297-23-23-23-23 10.297-23 23" transform="translate(229) translate(0 66)"/>
                <path d="M209 31c0 8.285 6.715 15 15 15s15-6.715 15-15-6.715-15-15-15-15 6.715-15 15" transform="translate(229) translate(0 66)"/>
                <path d="M97 46L224 46 224 26 97 26z" transform="translate(229) translate(0 66)"/>
                <path d="M108 46H0V7h19.389c7.777 0 15.167 3.361 20.247 9.208 5.08 5.847 12.471 9.208 20.247 9.208h14.906c6.63 0 13.025 2.447 17.94 6.864L108 46zM145 23c0 12.703-10.298 23-23 23S99 35.703 99 23s10.298-23 23-23 23 10.297 23 23" transform="translate(229) translate(0 66)"/>
                <path d="M106 31c0 8.285-6.715 15-15 15s-15-6.715-15-15 6.715-15 15-15 15 6.715 15 15M202 46h108V7h-19.389c-7.777 0-15.167 3.361-20.247 9.208-5.08 5.847-12.471 9.208-20.247 9.208h-14.906c-6.63 0-13.025 2.447-17.94 6.864L202 46zM144 38.254s2.144-.807 2.887-7.515c.744-6.708 15.865-4.644 16.113 8.255-9.585.086-19-.74-19-.74" transform="translate(229) translate(0 66)"/>
            </g>
            <path fill="#08492C" d="M159 94c0 8.285 6.715 15 15 15s15-6.715 15-15-6.715-15-15-15-15 6.715-15 15M156 94c0 8.285-6.715 15-15 15s-15-6.715-15-15 6.715-15 15-15 15 6.715 15 15" transform="translate(229)"/>
            <path fill="#08492C" d="M91 109L142 109 142 94 91 94z" transform="translate(229)"/>
            <path fill="#0D633E" d="M98 131.5c0 2.485 29.997 4.5 67 4.5s67-2.015 67-4.5-29.997-4.5-67-4.5-67 2.015-67 4.5" transform="translate(229)"/>
            <path fill="#08492C" d="M163 130c0 1.105 9.178 2 20.5 2s20.5-.895 20.5-2-9.178-2-20.5-2-20.5.895-20.5 2" transform="translate(229)"/>
            <path fill="#0D633E" d="M154 79s7.26 17.644 9.169 24.98c1.91 7.338 4.16 26.753 15.773 25.999 11.61-.756 15.936-14.303 8.065-30.084-3.691-7.404-.913-11.83-2.44-15.41-.872-2.043-2.154-3.835-4.35-3.704L154 79z" transform="translate(229)"/>
            <path fill="#0D633E" d="M155.315 79.61s-7.45-1.693-21.977.564c-11.78 1.83-13.968 9.591-4.097 24.826l14.527-3.762 21.232 1.13-9.685-22.759z" transform="translate(229)"/>
            <path fill="#0D633E" d="M130 104.731L142.065 126 153 124.881 144.705 101z" transform="translate(229)"/>
            <path fill="#FDE485" d="M151 74.047l.33 4.204s13.591 10.666 30.67 2.942C181.629 72 181.702 72 181.702 72L151 74.047z" transform="translate(229)"/>
            <path fill="#0D633E" d="M145.592 57.14s1.852 15.14 3.703 17.033c1.58 1.615 13.515 5.535 30.871-.142 3.305-1.08 2.844-3.854 2.772-7.4-.335-16.42-2.17-24.631-2.17-24.631L143 50.328l2.592 6.812z" transform="translate(229)"/>
            <path fill="#08492C" d="M175.13 55.78s-.414 10.888.235 19.22c1.431-.362 2.905-.788 4.424-1.294.477-.157.865-.357 1.195-.586.13-6.752-.537-16.046-1.721-18.475-2.187-1.727-4.34-7.853-4.132 1.134" transform="translate(229)"/>
            <path stroke="#0D633E" stroke-linecap="round" stroke-width="10.038" d="M179 45.482S201 80.957 201 41M145.478 55S151.166 69.936 125 73" transform="translate(229)"/>
            <path fill="#08492C" d="M201.65 129.436c1.179.682 3.933 1.012 5.42-.59 2.48-2.674 5.993-23.41 2.383-27.33-5.928-6.44-13.453 1.516-13.453 1.516s1.37 23.928 5.65 26.404" transform="translate(229)"/>
            <path fill="#0D633E" d="M187.007 104.52l.205.482s22.637-9.02 16.838 4.21C199.61 117.171 182 129 182 129l5.007-24.48z" transform="translate(229)"/>
            <path fill="#08492C" d="M152.243 125.06s3.953 6.238 0 7.371c-3.954 1.134-24.663 2.457-25.227.757-.565-1.701 14.308-6.994 14.308-6.994s2.823-1.511 10.919-1.133" transform="translate(229)"/>
            <path fill="#69B482" d="M151 54l6.774 8c3.87-5.5 8.226-12 8.226-12l-15 4z" transform="translate(229)"/>
            <path fill="#08492C" d="M163.28 53.497l2.162-.414C174.468 51.357 181 43.416 181 34.17v-13c0-8.79-5.917-16.465-14.379-18.648l-.326-.084c-14.194-3.662-29.13-3.192-43.067 1.357C115.34 6.37 110 13.764 110 22.108v11.027c0 8.57 5.628 16.106 13.806 18.49 12.829 3.74 26.353 4.383 39.473 1.872" transform="translate(229)"/>
            <path fill="#69B482" d="M151.27 36.453l1.555-.15c6.483-.628 11.175-3.516 11.175-6.877v-4.727c0-3.197-4.25-5.988-10.328-6.782l-.235-.03c-10.195-1.332-20.923-1.161-30.935.493-5.665.936-9.502 3.625-9.502 6.66v4.009c0 3.116 4.043 5.857 9.917 6.723 9.214 1.361 18.93 1.594 28.354.681" transform="translate(229)"/>
            <path fill="#FDE485" d="M128 101.466l16.507-.466 7.365 21.133c.489 1.405-.474 2.893-1.973 3.047l-8.038.82L128 101.466zM194.358 56.301s-1.291 7.124 1.033 8.442c2.325 1.32 12.398-1.846 10.331-23.743l-10.073.527-1.291 14.774zM124.744 65.07s7.586 1.07 11.38-1.07C141 66.943 141 73.365 141 73.365s-7.586 6.153-20.32 4.28c-7.857-6.153 4.064-12.575 4.064-12.575" transform="translate(229)"/>
            <path fill="#EA722F" d="M124.304 73.45s7.166 2.696 16.253-2.45c.896 2.45.156 2.391.156 2.391s-7.194 6.186-18.713 4.225l2.304-4.166z" transform="translate(229)"/>
            <path fill="#FDE485" d="M189.955 104.77S194.32 114.818 189 125c10.505-7.636 19.496-14.912 16.37-21.971-1.364-3.082-15.415 1.741-15.415 1.741" transform="translate(229)"/>
            <path fill="#EA722F" d="M191.115 115.966L205 109s-1.574 6.514-16 15l2.115-8.034z" transform="translate(229)"/>
            <path fill="#69B482" d="M107 71c0 4.97 4.477 9 10 9s10-4.03 10-9-4.477-9-10-9-10 4.03-10 9M188 37c0 4.97 4.477 9 10 9s10-4.03 10-9-4.477-9-10-9-10 4.03-10 9" transform="translate(229)"/>
            <path stroke="#08492C" stroke-width="2.285" d="M156 27L141 28" transform="translate(229)"/>
            <path stroke="#08492C" stroke-width="1.986" d="M116 27L127 28" transform="translate(229)"/>
            <path fill="#0D633E" d="M128 100.945s10.211 2.644 16-.439c-2.78-7.074-15.755-4.96-16 .44" transform="translate(229)"/>
            <path fill="#08492C" d="M178.29 99.05s-1.574-11.473 2.606-12.896c4.179-1.423 1.016 7.324 2.945 12.65 1.262 3.486 6.088 10.43 3.311 12.679-2.778 2.25-6.37-3.012-8.861-12.434" transform="translate(229)"/>
            <path stroke="#69B482" stroke-linecap="round" stroke-width="3.973" d="M193.973 30s.611-9-3.973-9" transform="translate(229)"/>
            <path stroke="#69B482" stroke-linecap="round" stroke-width="4.323" d="M201.806 32s3.162-9.574-.806-11M204 36s9.531-5.925 6.35-10" transform="translate(229)"/>
            <path stroke="#69B482" stroke-linecap="round" stroke-width="4.966" d="M194 36.912S183.176 37.934 183 33" transform="translate(229)"/>
            <path stroke="#69B482" stroke-linecap="round" stroke-width="3.725" d="M114 64.21s3.185-5.463 6 .79" transform="translate(229)"/>
            <path fill="#EA722F" d="M144 101l2.545 24 3.882-.442c1.097-.126 1.885-1.117 1.76-2.214-.019-.17-.06-.336-.121-.495L144 101z" transform="translate(229)"/>
            <path fill="#08492C" d="M141.029 71.475S146.11 66.82 145.475 61c.89 6.725 1.525 8.276 1.525 8.276s-4.265 4.791-5.817 4.723c-.281-1.49-.154-2.524-.154-2.524" transform="translate(229)"/>
            <path fill="#FDE485" d="M182.307 74.494s15.486-4.64 14.36-1.262c-1.127 3.377-4.258 8.594 2.605 5.39 6.863-3.202 23.62-5.15 26.934-1.408 3.315 3.74-4.825 6.869-4.825 6.869s-16.849-3.313-22.77-.127c-5.921 3.184-6.086-1.314-3.834-8.068C189.861 77.497 182 79.656 182 79.656l.307-5.162z" transform="translate(229)"/>
            <path fill="#EA722F" d="M181.77 80l-.77-6.493s14.73-2.662 14.978-.91c.247 1.752-1.674 3.79-1.674 3.79L181.769 80zM197.9 79.302s-2.25 5.326.364 4.582C209.013 80.825 220 84 220 84l-10.482-8s-8.082 1.27-11.618 3.302" transform="translate(229)"/>
            <path fill="#69B482" d="M90 28.964l-.564.203-.598.237c-.223.082-.469.21-.727.31-.52.235-1.092.49-1.688.779-.298.142-.599.304-.91.444-.3.178-.625.296-.928.48-.312.167-.633.31-.94.485-.301.18-.634.303-.93.48-.3.165-.61.306-.906.446-.287.153-.57.29-.844.41-.56.223-1.01.456-1.378.575-.355.13-.587.187-.587.187s.042-.22.167-.574c.131-.349.307-.867.651-1.393.17-.265.363-.548.58-.838.233-.276.497-.554.78-.832.275-.288.615-.53.953-.781.328-.265.724-.455 1.099-.672.773-.397 1.62-.676 2.442-.813.822-.139 1.618-.117 2.278-.01.666.127 1.193.33 1.538.522.349.192.512.355.512.355" transform="translate(229)"/>
            <path fill="#69B482" d="M68 28.964s.163-.163.512-.355c.345-.192.872-.395 1.538-.521.66-.108 1.456-.13 2.278.01.821.136 1.67.415 2.442.812.375.217.77.407 1.099.672.338.25.678.493.953.78.283.28.547.557.78.833.217.29.41.573.58.838.344.526.52 1.044.651 1.393.125.354.167.574.167.574s-.232-.057-.587-.187c-.367-.119-.818-.352-1.378-.575-.273-.12-.557-.257-.844-.41-.296-.14-.606-.281-.907-.447-.295-.176-.628-.299-.93-.48-.306-.175-.627-.317-.939-.485-.303-.183-.629-.3-.928-.48-.311-.14-.612-.3-.91-.443-.596-.288-1.169-.544-1.688-.78-.258-.1-.504-.227-.727-.309-.231-.091-.432-.17-.598-.237L68 28.964M79 48.643s-.549.204-1.202.496c-.315.152-.681.332-1.074.524-.379.192-.774.397-1.17.615l-1.19.643c-.391.207-.768.406-1.116.567-.35.157-.642.306-.874.387C72.146 51.96 72 52 72 52s.03-.144.106-.383c.086-.23.193-.581.419-.924.202-.367.492-.754.862-1.117.174-.192.391-.354.606-.521.209-.176.46-.304.7-.448.979-.545 2.162-.714 3.003-.543.422.074.758.216.978.343.222.13.326.236.326.236M65 48.643s.104-.106.326-.236c.22-.127.556-.269.978-.343.84-.17 2.024-.002 3.004.543.238.144.49.272.7.448.214.167.431.329.605.52.37.364.66.75.862 1.118.226.343.333.694.419.924.077.239.106.383.106.383s-.146-.04-.374-.125c-.232-.08-.524-.23-.874-.387-.348-.16-.725-.36-1.116-.567l-1.19-.643c-.396-.218-.791-.423-1.17-.615-.393-.192-.76-.372-1.074-.524-.653-.292-1.202-.496-1.202-.496" transform="translate(229)"/>
            <path fill="#08492C" d="M25 126.5c0 1.933 7.611 3.5 17 3.5s17-1.567 17-3.5-7.611-3.5-17-3.5-17 1.567-17 3.5M50 118.5c0 1.38 5.82 2.5 13 2.5s13-1.12 13-2.5-5.82-2.5-13-2.5-13 1.12-13 2.5M261 118.5c0 1.38 5.82 2.5 13 2.5s13-1.12 13-2.5-5.82-2.5-13-2.5-13 1.12-13 2.5" transform="translate(229)"/>
            <path stroke="#08492C" stroke-width="1.532" d="M122 29.5c0-.828.672-1.5 1.5-1.5s1.5.672 1.5 1.5-.672 1.5-1.5 1.5-1.5-.672-1.5-1.5z" transform="translate(229)"/>
            <path stroke="#08492C" stroke-width="1.702" d="M150 29.5c0-.828.671-1.5 1.5-1.5s1.5.672 1.5 1.5-.671 1.5-1.5 1.5-1.5-.672-1.5-1.5z" transform="translate(229)"/>
            <path fill="#69B482" d="M44.06 32.018c-4.666.276-8.889 3.583-13.555 3.216-2.4-.189-4.695-1.354-7.097-1.175-2.362.174-4.555 1.773-5.408 3.941 12.333-.01 24.666-.023 37-.034-2.989-3.067-6.097-6.162-10.779-5.956l-.162.008M282.399 30.024c-5.8.368-11.05 4.777-16.85 4.288-2.985-.251-5.84-1.805-8.824-1.567-2.937.233-5.663 2.364-6.725 5.255 15.334-.015 30.667-.03 46-.047-3.715-4.088-7.58-8.214-13.4-7.94-.067.002-.134.006-.201.01M257.834 54.015c-3.91.23-7.447 2.986-11.356 2.68-2.012-.157-3.935-1.129-5.946-.98-1.979.146-3.816 1.478-4.532 3.285l31-.03c-2.504-2.554-5.11-5.133-9.03-4.962l-.136.007" transform="translate(229)"/>
        </g>
        <g fill="#08492C">
            <path d="M116.882 30.64c0 8.257 6.694 14.951 14.952 14.951s14.952-6.694 14.952-14.952-6.694-14.952-14.952-14.952-14.952 6.694-14.952 14.952" transform="translate(0 66.465)"/>
            <path d="M137 45.808h108V6.535h-19.389c-7.777 0-15.167 3.385-20.247 9.272v.001c-5.08 5.887-12.471 9.272-20.247 9.272h-14.906c-6.63 0-13.025 2.464-17.94 6.912L137 45.808z" transform="translate(0 66.465)"/>
            <path d="M137 29.829c0 8.259 6.715 14.953 15 14.953s15-6.694 15-14.953c0-8.26-6.715-14.954-15-14.954s-15 6.695-15 14.954M88.535 28.091c0 9.666 7.834 17.5 17.5 17.5 9.665 0 17.5-7.834 17.5-17.5 0-9.665-7.835-17.5-17.5-17.5-9.666 0-17.5 7.835-17.5 17.5" transform="translate(0 66.465)"/>
            <path d="M5.639 45.429L146.639 45.429 146.639 25.465 5.639 25.465z" transform="translate(0 66.465)"/>
            <path d="M53.868 22.796c0 12.59-10.206 22.796-22.795 22.796-12.59 0-22.796-10.206-22.796-22.796S18.483 0 31.073 0s22.795 10.206 22.795 22.796" transform="translate(0 66.465)"/>
            <path d="M64.38 30.68c0 8.236-6.676 14.912-14.912 14.912S34.556 38.916 34.556 30.68s6.676-14.912 14.912-14.912S64.38 22.442 64.38 30.68" transform="translate(0 66.465)"/>
            <path d="M0 45.404L50.393 45.404 50.393 30.679 0 30.679z" transform="translate(0 66.465)"/>
        </g>
    </g>
</svg>
