<svg xmlns="http://www.w3.org/2000/svg" xmlns:xlink="http://www.w3.org/1999/xlink" width="130" height="85" viewBox="0 0 130 85">
    <defs>
        <path id="prefix__a" d="M0.236 0.934L49.779 0.934 49.779 70.393 0.236 70.393z"/>
        <path id="prefix__c" d="M0 76.22L108.779 76.22 108.779 0 0 0z"/>
    </defs>
    <g fill="none" fill-rule="evenodd">
        <rect width="85" height="85" x="27" fill="#5BA95B" fill-rule="nonzero" rx="8"/>
        <ellipse cx="57" cy="77" fill="#498D49" fill-rule="nonzero" rx="54" ry="4"/>
        <g transform="translate(7 2)">
            <path fill="#AD8234" d="M79.872 9.796s-.634-2.44-1.527-2.946c-.892-.505-43.087 56.153-43.087 56.153l-2.65 4.308 1.044 2.342 1.543.971.181-3.27s.771 3.611 1.588 4.013c.817.401 3.235-.677 4.135.198.901.875 2.13 2.241 2.13 2.241s-.193-3.275.562-1.867c.755 1.407 1.273 2.58 1.853 2.45.58-.132 1.086-.995 2.045-.275.96.721 5.108 2.753 7.024 1.9l1.29-.83s-1.873-1.336-1.069-1.822c.805-.486.922-1.939.922-1.939S73.547 30.1 73.557 28.691c.01-1.409.151-2.237.304-2.752.153-.515 6.011-16.143 6.011-16.143"/>
            <path fill="#E5CB5E" d="M78.473 6.921s-5.696-3.33-6.25-2.573c-.557.758-1.253 2.345-1.633 1.493-.379-.85-.972-1.608-1.303-1.205-.33.403-2.903 6.654-2.777 3.79.127-2.864 1.106-6.108.621-5.764-.485.344-2.083-.092-2.782-.8C63.65 1.151 56.501 0 56.501 0c-.248.876-17.766 48.884-20.467 56.851-2.7 7.968-3.787 10.111-3.597 10.537.19.425 1.788.861 1.788.861s1.44-4.214 1.345-3.279c-.093.935.491 4.248 1.52 4.554 1.03.307 2.982-.18 4.06-.916 1.075-.735 1.906 1.702 1.906 1.702s1.213-1.4 2.056-3.398c-.966 4.131.74 5.087.74 5.087s.713.013 1.595-.712c.842 1.03 4.986 2.882 5.79 2.396.804-.486 13.348-31.6 13.357-34.157.01-2.556 12.65-32.168 11.88-32.605"/>
            <path stroke="#F4DF87" d="M70.202 16.706L51.851 62.56M63.183 5.543L54.008 28.47M49.534 31.102L35.423 66.087"/>
            <g transform="translate(59 2.22)">
                <mask id="prefix__b" fill="#fff">
                    <use xlink:href="#prefix__a"/>
                </mask>
                <path fill="#684F2B" d="M3.573 70.104s-2.448.607-3.318.063c-.87-.544 28.812-64.65 28.812-64.65l2.523-4.384 2.556-.2 1.589.894-2.79 1.719s3.544-1.044 4.287-.517c.742.526.948 3.165 2.146 3.54 1.198.374 2.985.803 2.985.803s-2.97 1.392-1.373 1.384c1.597-.007 2.875-.111 3.036.46.162.573-.356 1.43.735 1.929 1.09.5 4.856 3.177 5.019 5.269l-.115 1.528s-2.066-1.008-2.11-.07c-.044.939-1.265 1.735-1.265 1.735S18.403 54.863 17.17 55.543c-1.233.68-1.894 1.2-2.274 1.58-.38.38-11.323 12.98-11.323 12.98" mask="url(#prefix__b)"/>
            </g>
            <path fill="#E8B65D" d="M59.378 72.464s-5.644-3.419-5.242-4.268c.401-.85 1.464-2.218.534-2.146-.93.072-1.877-.088-1.68-.57.195-.483 4.463-5.726 2.006-4.249-2.457 1.478-4.84 3.885-4.77 3.294.071-.59-1.074-1.786-2.03-2.063-.958-.276-5.379-6.01-5.379-6.01.652-.636 34.496-38.927 40.211-45.1 5.716-6.174 7.082-8.15 7.547-8.187.464-.036 1.61 1.161 1.61 1.161s-3.019 3.275-2.24 2.746c.776-.528 3.966-1.594 4.727-.835.76.76 1.262 2.707 1.13 4.004-.133 1.296 2.405.864 2.405.864s-.653 1.735-2.007 3.428c3.171-2.818 4.824-1.776 4.824-1.776s.352.621.136 1.743c1.305.25 4.91 3.008 4.867 3.946-.044.94-21.412 26.802-23.654 28.028-2.243 1.227-22.243 26.46-22.995 25.99"/>
            <path stroke="#BC8C3F" stroke-width="1.427" d="M64.035 60.528L95.59 22.532M50.876 59.682L66.653 40.684M77.873 22.041L90.854 6.41"/>
            <mask id="prefix__d" fill="#fff">
                <use xlink:href="#prefix__c"/>
            </mask>
            <path fill="#C1B584" d="M91.691 75.605L95.709 75.605 95.709 38.848 91.691 38.848z" mask="url(#prefix__d)"/>
            <path fill="#B2A672" d="M19.529 51.099L91.784 51.099 91.784 41.599 19.529 41.599zM19.529 63.352L91.691 63.352 91.691 53.852 19.529 53.852z" mask="url(#prefix__d)"/>
            <path fill="#DDD09B" d="M13.533 51.099L22.07 51.099 22.07 41.599 13.533 41.599zM13.533 63.352L22.07 63.352 22.07 53.852 13.533 53.852zM13.533 75.605L22.07 75.605 22.07 66.105 13.533 66.105z" mask="url(#prefix__d)"/>
            <path fill="#DDD09B" d="M20.061 75.51L24.079 75.51 24.079 39.01 20.061 39.01z" mask="url(#prefix__d)"/>
            <path fill="#684F2B" d="M60.507 69.854S16.034 33.603 10.034 31.103s-5.446-9.48-7.973-6.99-1.37 3.823-.532 5.823c.574 1.369 2.587 5.208 4.55 6.834.905.749 1.8.317 2.537.229 2.333-.28 46.418 33.774 47.418 33.856 1 .08 4.473-1.001 4.473-1.001" mask="url(#prefix__d)"/>
            <path fill="#BC8C3F" d="M1.18 25.061C.134 26.443-.297 27.88.22 28.271c.516.392 1.784-.411 2.83-1.793 1.049-1.381 1.48-2.819.964-3.21-.517-.391-1.784.411-2.832 1.793M7.2 36.21c-.828-.128-1.538.02-1.585.33-.047.31.586.663 1.415.79.828.127 1.538-.02 1.586-.33.047-.31-.586-.664-1.415-.79" mask="url(#prefix__d)"/>
            <path fill="#684F2B" d="M17.659 36.77s.125-2.667.5-2.667.812.125.937.375 1.063 1.87 1.438 2.404c.375.533 1.125 2.274-.5 1.966-1.625-.308-2.375-2.078-2.375-2.078" mask="url(#prefix__d)"/>
            <path fill="#BC8C3F" d="M18.547 34.11c-.467-.072-.868.011-.895.186-.026.174.33.374.798.445.468.072.868-.012.895-.186.027-.175-.331-.375-.798-.446" mask="url(#prefix__d)"/>
            <path stroke="#755322" d="M5.612 29.52c.005.166 2.588 2.332 5.171 3.416C13.367 34.02 30.95 48.102 30.95 48.102" mask="url(#prefix__d)"/>
            <path fill="#B2A672" d="M13.533 75.605L94.701 75.605 94.701 66.105 13.533 66.105z" mask="url(#prefix__d)"/>
            <path fill="#F2F0B8" d="M11.524 50.098L85.163 50.098 85.163 40.598 11.524 40.598zM11.524 62.351L85.163 62.351 85.163 52.851 11.524 52.851zM11.524 74.604L85.163 74.604 85.163 65.104 11.524 65.104z" mask="url(#prefix__d)"/>
            <path fill="#B2A672" d="M86.164 50.098L94.701 50.098 94.701 40.598 86.164 40.598zM86.164 62.351L94.701 62.351 94.701 52.851 86.164 52.851zM86.164 74.604L94.701 74.604 94.701 65.104 86.164 65.104z" mask="url(#prefix__d)"/>
            <path fill="#DDD09B" d="M85.163 50.098L93.7 50.098 93.7 40.598 85.163 40.598zM85.163 62.351L93.7 62.351 93.7 52.851 85.163 52.851zM85.163 74.604L93.7 74.604 93.7 65.104 85.163 65.104z" mask="url(#prefix__d)"/>
            <path fill="#F2F0B8" d="M9.515 75.605L13.533 75.605 13.533 38.848 9.515 38.848zM83.154 75.605L87.172 75.605 87.172 38.848 83.154 38.848z" mask="url(#prefix__d)"/>
        </g>
    </g>
</svg>
