<svg xmlns="http://www.w3.org/2000/svg" xmlns:xlink="http://www.w3.org/1999/xlink" width="130" height="85" viewBox="0 0 130 85">
    <defs>
        <path id="prefix__a" d="M0.928 0.04L28.915 0.04 28.915 7 0.928 7z"/>
    </defs>
    <g fill="none" fill-rule="evenodd">
        <path fill="#4A934A" d="M117.915 71.47c0 1.921-10.23 3.48-22.85 3.48-12.618 0-22.849-1.559-22.849-3.48 0-1.923 10.23-3.48 22.85-3.48 12.618 0 22.849 1.557 22.849 3.48"/>
        <g transform="translate(89 70.949)">
            <mask id="prefix__b" fill="#fff">
                <use xlink:href="#prefix__a"/>
            </mask>
            <path fill="#4A934A" d="M28.915 3.52C28.915 5.442 22.65 7 14.921 7 7.192 7 .928 5.442.928 3.52S7.194.04 14.921.04c7.729 0 13.994 1.558 13.994 3.48" mask="url(#prefix__b)"/>
        </g>
        <path fill="#4A934A" d="M0 68.04c0 2.087 27.087 3.778 60.5 3.778s60.5-1.69 60.5-3.778c0-2.087-27.087-3.778-60.5-3.778S0 65.953 0 68.04"/>
        <path fill="#E6E6E6" d="M16.073 66.824L35.865 66.824 35.865 66.103 16.073 66.103zM17.073 66.103L36.865 66.103 36.865 65.382 17.073 65.382zM16.615 65.382L36.407 65.382 36.407 64.661 16.615 64.661zM16.073 64.661L35.865 64.661 35.865 63.94 16.073 63.94z"/>
        <path fill="#FFF" d="M16.239 63.94L36.031 63.94 36.031 63.219 16.239 63.219z"/>
        <path fill="#E6E6E6" d="M16.864 63.22L36.656 63.22 36.656 62.499 16.864 62.499z"/>
        <path fill="#FFF" d="M15.406 62.545L35.198 62.545 35.198 61.824 15.406 61.824z"/>
        <path fill="#E6E6E6" d="M16.239 61.824L36.031 61.824 36.031 61.103 16.239 61.103z"/>
        <path fill="#FFF" d="M16.615 61.103L36.407 61.103 36.407 60.382 16.615 60.382z"/>
        <path fill="#FFF2E1" d="M34.864 24.823L44.753 66.823 70.197 66.823 60.818 24.823z"/>
        <path fill="#C6B29E" d="M33.156 25.823L43.243 67.823 69.198 67.823 59.631 25.823z"/>
        <path fill="#C6B29E" d="M33.156 26.823L43.243 67.823 69.198 67.823 59.631 26.823z"/>
        <path fill="#E5D8CA" d="M33.864 24.823L43.753 66.823 69.197 66.823 59.818 24.823z"/>
        <path fill="#EFE1D0" d="M34.864 24.823L44.753 66.823 70.197 66.823 60.818 24.823z"/>
        <path fill="#FFF2E1" d="M35.864 24.823L45.753 66.823 71.197 66.823 61.818 24.823z"/>
        <path stroke="#998675" d="M40.198 29.323L53.198 29.323M40.198 32.431L61.197 32.216M41.198 34.324L58.198 34.324M42.198 36.324L62.198 36.324M42.198 38.324L62.198 38.324"/>
        <path fill="#397260" d="M58.052 31.668c-.798 2.013-1.993 4.29-.905 7.264L66.978 65.8c.11.298.357.525.664.593.78.174 2.805.162 6.39-1.006l1.935-.708c3.87-1.416 5.416-2.668 6.031-3.395.281-.333.351-.795.201-1.206l-9.782-26.733c-1.088-2.974-3.5-3.913-5.396-4.96 0 0-2.725-1.011-3.689-3.645l-4.758-13.003-5.126 1.876 4.758 13.003c.562 1.536.378 3.71-.154 5.052"/>
        <path fill="#205141" d="M81.086 59.985c.283.774-2.469 2.493-6.147 3.839-3.678 1.346-6.889 1.809-7.172 1.035-.284-.775 2.468-2.494 6.146-3.84 3.678-1.345 6.89-1.808 7.173-1.034"/>
        <path fill="#397260" d="M79.06 61.32c.235.643-1.563 1.892-4.016 2.789-2.453.898-4.632 1.105-4.867.462-.235-.642 1.244-2.763 3.697-3.661 2.453-.897 4.951-.231 5.186.41"/>
        <path fill="#2C5B4B" d="M63.057 28.866s10.846 29.641 12.64 34.548C71.817 66.084 68.492 65 68.492 65L57.9 36.918s-.227-5.4 5.156-8.052"/>
        <path fill="#205141" d="M58.844 31.26c-.78 2-1.96 4.227-.889 7.157l9.531 26.046c.107.293.314.674.621.741.776.167 2.806.43 6.344-.865l1.678-.615c-3.537 1.295-5.582 1.04-6.359.871-.307-.066-.529-.442-.636-.735l-9.53-26.046c-1.073-2.93-1.54-4.554-.76-6.555"/>
        <path fill="#6EBAAD" d="M66.031 28.63c1.888 1.024 3.226 2.329 4.3 5.26l9.584 26.026c.107.293-.259.884-.45 1.133-.485.629-1.83 2.124-5.367 3.419l1.68-.615c3.536-1.294 4.83-2.772 5.314-3.4.191-.248.015-.642-.093-.934l-9.53-26.047c-1.072-2.93-3.635-3.788-5.523-4.812"/>
        <path stroke="#4E968F" stroke-linecap="round" stroke-width=".929" d="M65.479 36.837c1.069-.358 2.305-.85 3.504-1.5M65.298 29.783s2.006 1.134 2.941 3.69"/>
        <path stroke="#4E968F" stroke-linecap="round" stroke-width="1.404" d="M71.217 41.977L71.579 42.966M72.544 45.602L77.368 58.786"/>
        <path fill="#4E968F" d="M59.022 15.159l-3.75 1.372c-.517.189-1.093-.077-1.282-.596l-.47-1.284c-.19-.52.077-1.093.595-1.283l3.75-1.371c.518-.19 1.093.076 1.282.595l.47 1.284c.19.519-.076 1.093-.595 1.283"/>
        <path fill="#205141" d="M58.02 15.525l-2.747 1.005c-.518.19-1.093-.077-1.282-.595l-.47-1.285c-.19-.518.077-1.093.595-1.282l2.747-1.005c.519-.19 1.093.077 1.283.596l.469 1.284c.19.518-.076 1.092-.595 1.282"/>
        <path fill="#397260" d="M58.02 15.525l-.64.234c-.518.19-1.092-.077-1.282-.595l-.47-1.284c-.19-.519.077-1.094.596-1.284l.639-.232c.519-.19 1.093.075 1.283.595l.469 1.284c.19.518-.076 1.092-.595 1.282M59.858 15.851L55.082 17.6c-.236.086-.495-.035-.581-.27l-.011-.03c-.087-.235.035-.495.27-.58l4.776-1.748c.234-.086.495.034.58.27l.011.03c.087.234-.035.494-.27.58"/>
        <path fill="#4E968F" d="M59.858 15.851L55.082 17.6c-.236.086-.495-.035-.581-.27l-.011-.03c-.087-.235.035-.495.27-.58l4.776-1.748c.234-.086.495.034.58.27l.011.03c.087.234-.035.494-.27.58"/>
        <path fill="#205141" d="M57.832 16.592l-2.751 1.006c-.234.086-.495-.034-.581-.269l-.01-.03c-.086-.235.034-.495.269-.58l2.75-1.007c.236-.086.496.034.582.27l.01.03c.087.234-.034.494-.27.58"/>
        <path fill="#397260" d="M58.66 16.29l-1.522.556c-.235.086-.495-.035-.58-.27l-.012-.029c-.086-.235.035-.495.27-.58l1.522-.558c.235-.086.495.034.581.27l.011.03c.086.234-.035.494-.27.58"/>
        <path fill="#205141" d="M58.921 17.192L55.249 18.535 54.927 17.655 58.599 16.312zM59.188 15.098l-3.697 1.353-.26-.713 3.696-1.353c.19-.07.401.028.471.218l.008.024c.07.19-.028.4-.218.47"/>
        <path fill="#6EBAAD" d="M58.304 16.596l3.415 9.332c.117.32.337.591.629.766.596.357 1.718.963 3.015 1.328-1.522-.597-2.054-1.804-2.32-2.53l-3.43-9.375-1.309.48z"/>
        <path fill="#205141" d="M58.98 26.917l-3.343-9.137 1.37-.502 3.025 9.052s.89 1.414-1.045 4.575c0 0 .69-2.08-.007-3.988M59.689 30.456c2.97.85 4.976-1.772 4.976-1.772s-3.745-3.102-4.976 1.772"/>
        <path fill="#C69C6D" d="M34.14 40.203h58.058V66.04c0 1.104-.895 2-2 2H36.14c-1.105 0-2-.896-2-2V40.203z"/>
        <path fill="#DDB287" d="M35.24 40.203H61.03c.608 0 1.1.492 1.1 1.1v25.638c0 .606-.492 1.1-1.1 1.1h-24.9c-1.1 0-1.992-.892-1.992-1.992V41.303c0-.607.493-1.1 1.1-1.1"/>
        <path fill="#A0815F" d="M34.198 55.824L34.198 61.824 59.198 61.824 62.198 49.95 62.198 40.203z"/>
        <path fill="#DDB287" d="M35.14 40.063L63.132 40.063 58.368 55.959 30.376 55.959z"/>
        <path fill="#736357" d="M33.827 41.204L61.819 41.204 57.375 55.1 58.368 56.099 30.377 56.099 29.383 55.101z"/>
        <path fill="#C69C6D" d="M34.139 40.203L62.132 40.203 57.367 55.099 29.375 55.099z"/>
        <path fill="#A0815F" d="M92.198 40.293L63.132 40.062 62.132 43.661 62.198 50.151 66.146 61.733 92.198 61.42z"/>
        <path fill="#C69C6D" d="M90.939 40.063L63.95 40.068 62.949 40.389 67.666 55.996 95.656 55.873z"/>
        <path fill="#736357" d="M69.713 54.517L67.665 55.997 96.448 55.824 96.777 54.603z"/>
        <path fill="#DDB287" d="M91.939 39.741L63.949 40.068 68.886 54.907 96.876 54.58z"/>
        <path fill="#89D7F5" d="M93.198 16.256v-1.803l-3-.328-3 .328v1.803s-8.09 17.62-8.09 36.878c0 19.26 3.015 19.377 4.49 19.377s2.238-1.593 2.32-2.167c.082-.573.799-1.393 1.455.574s3.61 1.557 3.61 1.557 2.944.41 3.599-1.557c.656-1.967 1.39-1.147 1.472-.574.082.574.899 2.167 2.374 2.167s3.614-.118 3.614-19.377c0-19.258-8.844-36.878-8.844-36.878"/>
        <path fill="#4DB0C1" d="M93.198 16.256v-1.803l-3.245-.328-.508.076 3.753.252v1.803s7.859 17.62 7.859 36.878c0 15.193-1.947 18.473-3.5 19.181.254.12.546.196.86.196 1.476 0 3.619-.118 3.619-19.377 0-19.258-8.838-36.878-8.838-36.878M85.375 70.918c-.656-1.967-1.403-1.147-1.485-.574-.065.451-.59 1.53-1.528 1.971.415.19.801.196 1.113.196.96 0 1.642-.675 2.026-1.304-.047-.09-.09-.185-.126-.289M94.083 70.345c-.082-.574-.82-1.393-1.475.574-.408 1.224-1.705 1.527-2.626 1.582.563.033.987-.025.987-.025s2.632.363 3.475-1.257c-.21-.341-.332-.671-.361-.874"/>
        <g fill="#FFF">
            <path d="M8.198 2.308V.505l4.118-.328 1.572.076-2.69.252v1.803s-8.486 17.62-8.486 36.878c0 15.193 1.633 18.473 3.186 19.18-.254.12-.703.197-1.018.197-1.475 0-4.57-.118-4.57-19.377 0-19.258 7.888-36.878 7.888-36.878M17.766 56.97c.656-1.967 1.403-1.147 1.485-.574.065.45.59 1.529 1.528 1.97-.415.19-.801.197-1.113.197-.96 0-1.642-.675-2.026-1.304.047-.091.09-.185.126-.29M9.058 56.396c.082-.574.82-1.393 1.475.574.408 1.224 1.705 1.527 2.626 1.582-.563.033-.987-.025-.987-.025s-2.632.363-3.475-1.257c.21-.341.332-.671.361-.874" transform="translate(79 13.949)"/>
        </g>
        <path fill="#009245" d="M87.43 14.638h7.058c.403 0 .73-.327.73-.73V9.886c0-.403-.327-.73-.73-.73H87.43c-.403 0-.73.327-.73.73v4.022c0 .403.328.73.73.73"/>
        <path fill="#4DB0C1" d="M88.694 17.157L94.694 17.157 94.694 14.799 88.694 14.799zM88.694 13.401L94.694 13.401 94.694 11.043 88.694 11.043z"/>
        <path fill="#006837" d="M88.24 13.401L94.829 13.401 94.829 11.043 88.24 11.043z"/>
        <path fill="#FFF" d="M85.788 14.821L96.278 14.821 96.278 13.401 85.788 13.401z"/>
        <path fill="#89D7F5" d="M85.788 15.017L96.278 15.017 96.278 13.597 85.788 13.597z"/>
        <path stroke="#FFF" stroke-linecap="round" stroke-width=".983" d="M84.11 36.965c-1.373 8.538-2.256 19.163-.833 29.282M87.041 23.174c-.643 2.406-1.505 5.933-2.302 10.176M88.039 19.698s-.172.534-.454 1.515"/>
        <path fill="#2968CE" d="M113.053 51.262l-1.967-2.38c-.158-.2-.4-.318-.657-.318H99.322c-.25 0-.487.112-.646.305l-1.96 2.389c-.123.149-.19.337-.19.53v21.21c0 .46.374.835.835.835h15.035c.461 0 .835-.374.835-.835v-21.22c0-.187-.062-.37-.178-.516"/>
        <path fill="#CCC" d="M111.003 75.165H98.82c-.544 0-1.056-.257-1.381-.692l-.946-1.267H113.2l-.745 1.165c-.317.495-.864.794-1.452.794"/>
        <path fill="#7699DC" d="M110.198 72.825V52.136c0-.187-.22-.369-.334-.516l-2.477-3.193c-.16-.202-.48-.604-.735-.604h1.814c.257 0 .499.402.657.604l3.148 3.051c.274.275.177.866.177 1.053l.284 20.294c0 .461-.026.647-.487.647l-2.141.07c.462 0 .094-.256.094-.717"/>
        <path fill="#999" d="M101.293 74.834s-.89-1.51-.975-1.593h-3.086l.503.757c.346.522.931.836 1.557.836h2.001z"/>
        <path fill="#FFF" d="M109.041 74.949l1.094-1.79h2.596l-.776 1.142c-.204.297-.517.498-.871.557l-2.043.09z"/>
        <path fill="#1755AF" d="M99.496 48.872c.03-.038.076-.06.125-.06h2.59c.134 0 .208.155.124.259l-1.88 2.352c-.024.029-.036.064-.036.1V73.08c0 .088-.072.16-.16.16h-2.867c-.088 0-.16-.072-.16-.16V51.72c0-.163.06-.322.168-.446l2.096-2.403z"/>
        <path fill="#134B8E" d="M100.428 51.471l1.89-2.15c.174-.199.034-.509-.23-.509h-2.275c-.122 0-.238.052-.318.143l-2.262 2.568s1.687-.052 3.195-.052"/>
        <path fill="#CCC" d="M100.077 42.898c.7-.426 1.615-.156 1.973.581.11.226.035.498-.174.637l-1.46.972c-.214.141-.498.103-.666-.09-.565-.65-.409-1.652.327-2.1m1.344 3.36l1.085-.717c.223-.148.52.022.507.29-.02.39-.242.761-.616.952-.29.148-.62.161-.91.053-.25-.092-.289-.43-.066-.578m-1.98-.929l1.496 1.72c.456.524 1.212.67 1.832.353.732-.376 1.031-1.268.672-2.008l-.994-2.05c-.468-.965-1.664-1.318-2.58-.76-.962.584-1.166 1.895-.426 2.745"/>
        <path fill="#999" d="M100.077 42.97c.7-.426 1.615-.156 1.973.58.11.227.035.499-.174.638l-1.46.972c-.214.14-.498.103-.666-.09-.565-.65-.409-1.652.327-2.1m1.344 3.36l1.085-.717c.223-.148.52.022.507.289-.02.39-.242.762-.616.953-.29.148-.62.16-.91.053-.25-.092-.289-.431-.066-.578m-1.98-.93l1.496 1.72c.456.525 1.212.67 1.832.354.732-.376 1.031-1.268.672-2.008l-.994-2.051c-.468-.964-1.664-1.317-2.58-.76-.962.585-1.166 1.896-.426 2.746"/>
        <path fill="#666" d="M102.769 47.473c-.62.317-1.375.171-1.832-.354l-.443-.509.803-.109c-.05.156.014.342.19.407.29.107.62.095.91-.054.248-.127.422-.336.522-.574l.666-.09c-.023.526-.314 1.026-.816 1.283"/>
        <path fill="#E6E6E6" d="M110.177 48.525H99.58c-.321 0-.582-.26-.582-.58V47.8c0-.32.26-.582.582-.582h10.596c.32 0 .58.261.58.582v.144c0 .321-.26.581-.58.581"/>
        <path fill="#999" d="M104.962 48.525H99.58c-.321 0-.582-.26-.582-.58V47.8c0-.32.26-.582.582-.582h5.38c.322 0 .582.261.582.582v.144c0 .321-.26.581-.581.581"/>
        <path fill="#CCC" d="M108.863 48.525h-8.195c-.321 0-.581-.26-.581-.58V47.8c0-.32.26-.582.58-.582h8.196c.32 0 .58.261.58.582v.144c0 .321-.26.581-.58.581"/>
        <path fill="#B3B3B3" d="M110.198 47.824v.263c0 .44-.55.421-.797.421l-9.106.017c-.248 0-1.097.002-1.097-.438v-.264h11z"/>
    </g>
</svg>
