<svg xmlns="http://www.w3.org/2000/svg" width="130" height="85" viewBox="0 0 130 85">
    <g fill="none" fill-rule="evenodd">
        <rect width="85" height="85" x="26" fill="#4A4A4A" fill-rule="nonzero" rx="8"/>
        <g>
            <path fill="#333" d="M64.458 62.006c0 1.38 9.85 2.5 22 2.5s22-1.12 22-2.5-9.85-2.5-22-2.5-22 1.12-22 2.5" transform="translate(0 11)"/>
            <path fill="#2968CE" d="M73.334 16.841l3.703-4.479c.3-.38.755-.602 1.237-.602H99.19c.471 0 .917.211 1.215.575l3.693 4.5c.231.28.357.633.357.997V57.77c0 .87-.704 1.573-1.572 1.573H74.571c-.869 0-1.573-.704-1.573-1.573V17.812c0-.352.118-.694.336-.97" transform="translate(0 11)"/>
            <path fill="#CCC" d="M77.195 61.852h22.94c1.023 0 1.987-.483 2.6-1.304l1.781-2.386H73.058l1.404 2.194c.596.931 1.626 1.495 2.733 1.495" transform="translate(0 11)"/>
            <path fill="#7699DC" d="M77.125 57.446V18.488c0-.352.263-.694.481-.971l4.59-5.583c.298-.38.827-.706 1.31-.706h-3.417c-.483 0-.939.326-1.237.706l-4.454 5.53c-.218.278-.273.672-.273 1.024v38.958c0 .869.578 1.782 1.446 1.782h3.417c-.869 0-1.863-.913-1.863-1.782" transform="translate(0 11)"/>
            <path fill="#999" d="M95.478 61.228s1.678-2.843 1.835-3h5.812l-.946 1.426c-.652.983-1.753 1.574-2.933 1.574h-3.768z" transform="translate(0 11)"/>
            <path fill="#FFF" d="M79.212 61.444l-2.061-3.368h-3.212l1.465 2.148c.38.558.973.937 1.639 1.05l2.169.17z" transform="translate(0 11)"/>
            <path fill="#1755AF" d="M98.862 12.34c-.056-.071-.143-.112-.234-.112H93.75c-.252 0-.392.29-.236.488l3.544 4.43c.043.053.067.119.067.187v40.594c0 .166.133.3.3.3h5.398c.166 0 .302-.134.302-.3v-40.22c0-.31-.113-.607-.316-.84l-3.948-4.526z" transform="translate(0 11)"/>
            <path fill="#134B8E" d="M97.109 17.235l-3.56-4.05c-.327-.374-.063-.958.433-.958h4.286c.229 0 .447.1.598.271l4.259 4.835s-3.176-.098-6.016-.098" transform="translate(0 11)"/>
            <path fill="#CCC" d="M98.384 5.048c-.315.362-.851.434-1.251.168l-2.752-1.83c-.393-.262-.533-.773-.327-1.198.674-1.39 2.396-1.897 3.715-1.095 1.387.843 1.68 2.73.615 3.955m-3.27 3.46c-.546.204-1.168.179-1.714-.1-.703-.36-1.122-1.057-1.16-1.795-.024-.503.535-.822.955-.544l2.044 1.35c.419.277.346.915-.125 1.09m3.05-8.01C96.439-.55 94.187.115 93.307 1.93l-1.872 3.86c-.677 1.396-.114 3.076 1.266 3.782 1.166.597 2.589.323 3.449-.666l2.818-3.237c1.392-1.6 1.008-4.07-.804-5.171" transform="translate(0 11)"/>
            <path fill="#999" d="M98.384 5.182c-.315.362-.851.434-1.251.168L94.38 3.52c-.393-.262-.533-.773-.327-1.198.674-1.389 2.396-1.897 3.715-1.095 1.387.843 1.68 2.731.615 3.955m-3.27 3.461c-.546.203-1.168.178-1.714-.1-.703-.36-1.122-1.058-1.16-1.796-.024-.503.535-.822.955-.544l2.044 1.35c.419.277.346.915-.125 1.09m3.05-8.01C96.439-.415 94.187.25 93.307 2.065l-1.872 3.861c-.677 1.395-.114 3.075 1.266 3.781 1.166.597 2.589.323 3.449-.666l2.818-3.237c1.392-1.6 1.008-4.069-.804-5.17" transform="translate(0 11)"/>
            <path fill="#666" d="M92.7 9.707c1.166.597 2.59.323 3.45-.666l.834-.959-1.513-.206c.095.295-.026.644-.357.767-.547.202-1.168.178-1.715-.1-.466-.24-.793-.634-.98-1.083l-1.255-.17c.042.992.591 1.933 1.536 2.417" transform="translate(0 11)"/>
            <path fill="#E6E6E6" d="M78.682 11.688h20.09c.567 0 1.026-.459 1.026-1.026v-.409c0-.566-.459-1.025-1.026-1.025h-20.09c-.567 0-1.026.459-1.026 1.025v.409c0 .567.46 1.026 1.026 1.026" transform="translate(0 11)"/>
            <path fill="#999" d="M88.502 11.688h10.27c.567 0 1.026-.459 1.026-1.026v-.409c0-.566-.459-1.025-1.026-1.025h-10.27c-.567 0-1.026.459-1.026 1.025v.409c0 .567.459 1.026 1.026 1.026" transform="translate(0 11)"/>
            <path fill="#CCC" d="M81.157 11.688h15.567c.567 0 1.026-.459 1.026-1.026v-.409c0-.566-.46-1.025-1.026-1.025H81.157c-.567 0-1.026.459-1.026 1.025v.409c0 .567.459 1.026 1.026 1.026" transform="translate(0 11)"/>
            <path fill="#B3B3B3" d="M80.125 10.228v.635c0 .827.328.793.794.793l16.143.032c.467 0 1.063.002 1.063-.825v-.635h-18z" transform="translate(0 11)"/>
            <path fill="#E6E6E6" d="M82.708 10.728c0-.24-.267-.5-.597-.5h-2.389c-.33 0-.597.26-.597.5 0 .239.267.5.597.5h2.39c.33 0 .596-.261.596-.5" transform="translate(0 11)"/>
            <path fill="#999" d="M98.708 10.728c0-.24-.429-.5-.958-.5h-3.834c-.529 0-.958.26-.958.5 0 .239.43.5.958.5h3.834c.53 0 .958-.261.958-.5" transform="translate(0 11)"/>
            <path stroke="#7699DC" d="M89.125 18.728L83.125 18.728M79.125 18.728L77.125 18.728" transform="translate(0 11)"/>
            <path fill="#CCC" d="M27.693 60.729h25.932c.552 0 1-.448 1-1V21.408c0-.552-.448-1-1-1H27.693c-.552 0-1 .448-1 1v38.32c0 .553.448 1 1 1" transform="translate(0 11)"/>
            <path fill="#B3B3B3" d="M31.104 60.729h22.521c.552 0 1-.448 1-1V21.408c0-.552-.448-1-1-1h-22.52c-.553 0-1 .448-1 1v38.32c0 .553.447 1 1 1" transform="translate(0 11)"/>
            <path fill="gray" d="M45.366 60.729c.552 0 1-.448 1-1V21.408c0-.552-.448-1-1-1s-1 .448-1 1v38.32c0 .553.448 1 1 1" transform="translate(0 11)"/>
            <path fill="#999" d="M27.696 20.408c-.554 0-1.003.46-1.003 1.03v.415h27.932v-.415c0-.57-.45-1.03-1.003-1.03" transform="translate(0 11)"/>
            <path fill="gray" d="M48.387 60.729h4.154c.552 0 1-.448 1-1V21.408c0-.552-.448-1-1-1h-4.154c-.552 0-1 .448-1 1v38.32c0 .553.448 1 1 1" transform="translate(0 11)"/>
            <path fill="#666" d="M47.387 21.853L53.541 21.853 53.541 20.408 47.387 20.408zM44.407 21.853L46.367 21.853 46.367 20.408 44.407 20.408z" transform="translate(0 11)"/>
            <path fill="#E6E6E6" d="M26.765 20.408h27.787c.464 0 .84-.376.84-.84 0-.464-.376-.84-.84-.84H26.765c-.464 0-.84.376-.84.84 0 .464.376.84.84.84" transform="translate(0 11)"/>
            <path fill="#CCC" d="M30.944 20.408H52.7c.465 0 .841-.376.841-.84 0-.464-.376-.84-.84-.84H30.943c-.464 0-.84.376-.84.84 0 .464.376.84.84.84" transform="translate(0 11)"/>
            <path fill="#B3B3B3" d="M48.227 20.408h4.474c.464 0 .84-.376.84-.84 0-.464-.376-.84-.84-.84h-4.474c-.464 0-.84.376-.84.84 0 .464.376.84.84.84M45.247 20.408h.279c.464 0 .84-.376.84-.84 0-.464-.376-.84-.84-.84h-.28c-.463 0-.84.376-.84.84 0 .464.377.84.84.84" transform="translate(0 11)"/>
            <path fill="#E6E6E6" d="M26.765 29.491h27.787c.464 0 .84-.376.84-.84 0-.464-.376-.84-.84-.84H26.765c-.464 0-.84.376-.84.84 0 .464.376.84.84.84" transform="translate(0 11)"/>
            <path fill="#CCC" d="M30.944 29.491h22.757c.464 0 .84-.376.84-.84 0-.464-.376-.84-.84-.84H30.944c-.464 0-.84.376-.84.84 0 .464.376.84.84.84" transform="translate(0 11)"/>
            <path fill="#B3B3B3" d="M48.048 29.491H52.7c.464 0 .841-.376.841-.84 0-.464-.377-.84-.84-.84h-4.653c-.464 0-.84.376-.84.84 0 .464.377.84.84.84" transform="translate(0 11)"/>
            <path fill="#E6E6E6" d="M26.765 31.585h27.787c.464 0 .84-.376.84-.84 0-.464-.376-.84-.84-.84H26.765c-.464 0-.84.376-.84.84 0 .464.376.84.84.84" transform="translate(0 11)"/>
            <path fill="#CCC" d="M30.944 31.585h22.757c.464 0 .84-.376.84-.84 0-.464-.376-.84-.84-.84H30.944c-.464 0-.84.376-.84.84 0 .464.376.84.84.84" transform="translate(0 11)"/>
            <path fill="#B3B3B3" d="M48.048 31.585H52.7c.464 0 .841-.376.841-.84 0-.464-.377-.84-.84-.84h-4.653c-.464 0-.84.376-.84.84 0 .464.377.84.84.84" transform="translate(0 11)"/>
            <path fill="#E6E6E6" d="M26.765 33.679h27.787c.464 0 .84-.376.84-.84 0-.464-.376-.84-.84-.84H26.765c-.464 0-.84.376-.84.84 0 .464.376.84.84.84" transform="translate(0 11)"/>
            <path fill="#CCC" d="M30.944 33.679h22.757c.464 0 .84-.376.84-.84 0-.464-.376-.84-.84-.84H30.944c-.464 0-.84.376-.84.84 0 .464.376.84.84.84" transform="translate(0 11)"/>
            <path fill="#B3B3B3" d="M48.048 33.679H52.7c.464 0 .841-.376.841-.84 0-.464-.377-.84-.84-.84h-4.653c-.464 0-.84.376-.84.84 0 .464.377.84.84.84" transform="translate(0 11)"/>
            <path fill="#E6E6E6" d="M26.765 35.773h27.787c.464 0 .84-.377.84-.84 0-.465-.376-.84-.84-.84H26.765c-.464 0-.84.375-.84.84 0 .464.376.84.84.84" transform="translate(0 11)"/>
            <path fill="#CCC" d="M30.944 35.773h22.757c.464 0 .84-.377.84-.84 0-.465-.376-.84-.84-.84H30.944c-.464 0-.84.375-.84.84 0 .464.376.84.84.84" transform="translate(0 11)"/>
            <path fill="#B3B3B3" d="M48.048 35.773H52.7c.464 0 .841-.377.841-.84 0-.465-.377-.84-.84-.84h-4.653c-.464 0-.84.375-.84.84 0 .464.377.84.84.84" transform="translate(0 11)"/>
            <path fill="#E6E6E6" d="M26.765 37.866h27.787c.464 0 .84-.376.84-.84 0-.464-.376-.84-.84-.84H26.765c-.464 0-.84.376-.84.84 0 .464.376.84.84.84" transform="translate(0 11)"/>
            <path fill="#CCC" d="M30.944 37.866h22.757c.464 0 .84-.376.84-.84 0-.464-.376-.84-.84-.84H30.944c-.464 0-.84.376-.84.84 0 .464.376.84.84.84" transform="translate(0 11)"/>
            <path fill="#B3B3B3" d="M48.048 37.866H52.7c.464 0 .841-.376.841-.84 0-.464-.377-.84-.84-.84h-4.653c-.464 0-.84.376-.84.84 0 .464.377.84.84.84" transform="translate(0 11)"/>
            <path fill="#E6E6E6" d="M26.765 39.96h27.787c.464 0 .84-.376.84-.84 0-.464-.376-.84-.84-.84H26.765c-.464 0-.84.376-.84.84 0 .464.376.84.84.84" transform="translate(0 11)"/>
            <path fill="#CCC" d="M30.944 39.96h22.757c.464 0 .84-.376.84-.84 0-.464-.376-.84-.84-.84H30.944c-.464 0-.84.376-.84.84 0 .464.376.84.84.84" transform="translate(0 11)"/>
            <path fill="#B3B3B3" d="M48.048 39.96H52.7c.464 0 .841-.376.841-.84 0-.464-.377-.84-.84-.84h-4.653c-.464 0-.84.376-.84.84 0 .464.377.84.84.84" transform="translate(0 11)"/>
            <path fill="#E6E6E6" d="M26.765 42.054h27.787c.464 0 .84-.376.84-.84 0-.464-.376-.84-.84-.84H26.765c-.464 0-.84.376-.84.84 0 .464.376.84.84.84" transform="translate(0 11)"/>
            <path fill="#CCC" d="M30.944 42.054h22.757c.464 0 .84-.376.84-.84 0-.464-.376-.84-.84-.84H30.944c-.464 0-.84.376-.84.84 0 .464.376.84.84.84" transform="translate(0 11)"/>
            <path fill="#B3B3B3" d="M48.048 42.054H52.7c.464 0 .841-.376.841-.84 0-.464-.377-.84-.84-.84h-4.653c-.464 0-.84.376-.84.84 0 .464.377.84.84.84" transform="translate(0 11)"/>
            <path fill="#E6E6E6" d="M26.765 44.148h27.787c.464 0 .84-.377.84-.84 0-.465-.376-.84-.84-.84H26.765c-.464 0-.84.375-.84.84 0 .464.376.84.84.84" transform="translate(0 11)"/>
            <path fill="#CCC" d="M30.944 44.148h22.757c.464 0 .84-.377.84-.84 0-.465-.376-.84-.84-.84H30.944c-.464 0-.84.375-.84.84 0 .464.376.84.84.84" transform="translate(0 11)"/>
            <path fill="#B3B3B3" d="M48.048 44.148H52.7c.464 0 .841-.377.841-.84 0-.465-.377-.84-.84-.84h-4.653c-.464 0-.84.375-.84.84 0 .464.377.84.84.84" transform="translate(0 11)"/>
            <path fill="#E6E6E6" d="M26.765 46.241h27.787c.464 0 .84-.376.84-.84 0-.464-.376-.84-.84-.84H26.765c-.464 0-.84.376-.84.84 0 .464.376.84.84.84" transform="translate(0 11)"/>
            <path fill="#CCC" d="M30.944 46.241h22.757c.464 0 .84-.376.84-.84 0-.464-.376-.84-.84-.84H30.944c-.464 0-.84.376-.84.84 0 .464.376.84.84.84" transform="translate(0 11)"/>
            <path fill="#B3B3B3" d="M48.048 46.241H52.7c.464 0 .841-.376.841-.84 0-.464-.377-.84-.84-.84h-4.653c-.464 0-.84.376-.84.84 0 .464.377.84.84.84" transform="translate(0 11)"/>
            <path fill="#999" d="M26.329 37.866h28.659c.224 0 .404-.18.404-.404v-.404H26.329c-.223 0-.404.181-.404.404 0 .223.18.404.404.404M26.329 39.96h28.659c.224 0 .404-.181.404-.404v-.404H26.329c-.223 0-.404.181-.404.404 0 .223.18.404.404.404M26.33 42.054h28.658c.223 0 .404-.181.404-.404v-.404H26.33c-.223 0-.404.18-.404.404 0 .223.181.404.404.404M26.33 44.148h28.658c.223 0 .404-.181.404-.405v-.404H26.33c-.223 0-.404.181-.404.404 0 .224.181.404.404.404M26.33 46.209h28.658c.223 0 .404-.181.404-.404v-.404H26.33c-.223 0-.404.181-.404.404 0 .223.181.404.404.404M54.553 29.511H26.766c-.464 0-.84-.376-.84-.84h29.466c0 .464-.376.84-.84.84M54.553 31.569H26.766c-.464 0-.84-.376-.84-.84h29.466c0 .464-.376.84-.84.84M54.553 33.679H26.766c-.464 0-.84-.376-.84-.84h29.466c0 .464-.376.84-.84.84M54.553 35.789H26.766c-.464 0-.84-.376-.84-.84h29.466c0 .464-.376.84-.84.84" transform="translate(0 11)"/>
            <path fill="#999" d="M54.553 37.882H26.766c-.464 0-.84-.376-.84-.84h29.466c0 .464-.376.84-.84.84" transform="translate(0 11)"/>
            <path fill="#333" fill-opacity=".3" d="M8.458 61.444c0 1.07 13.108 1.938 29.277 1.938 16.17 0 29.276-.868 29.276-1.938 0-1.07-13.107-1.938-29.276-1.938s-29.277.868-29.277 1.938" transform="translate(0 11)"/>
            <path fill="#333" d="M76.53 61.46c5.016 1.974 3.469 4.507-3.454 5.66-6.924 1.152-16.602.487-21.618-1.486-5.016-1.973-3.47-4.506 3.454-5.66 6.924-1.151 16.602-.486 21.618 1.487" transform="translate(0 11)"/>
            <path fill="#EA7B50" d="M15.823 60.48h45.229c.57 0 1.03-.462 1.03-1.031v-10.61c0-.57-.46-1.031-1.03-1.031h-45.23c-.568 0-1.03.46-1.03 1.03v10.61c0 .57.462 1.032 1.03 1.032" transform="translate(0 11)"/>
            <path fill="#F49071" d="M15.823 60.48h2.443c.57 0 1.03-.462 1.03-1.031v-10.61c0-.57-.46-1.031-1.03-1.031h-2.443c-.57 0-1.031.46-1.031 1.03v10.61c0 .57.462 1.032 1.03 1.032" transform="translate(0 11)"/>
            <path fill="#DB6845" d="M36.354 48.01L41.042 60.227 56.125 60.227 56.125 48.227z" transform="translate(0 11)"/>
            <path fill="#B7482E" d="M41.354 48.01L46.042 60.227 61.125 60.227 61.125 48.227z" transform="translate(0 11)"/>
            <path fill="#F2F2F2" d="M15.416 61.729h46.042c.345 0 .625-.28.625-.624 0-.345-.28-.625-.625-.625H15.416c-.345 0-.624.28-.624.625 0 .344.28.624.624.624" transform="translate(0 11)"/>
            <path fill="#CCC" d="M19.921 61.729h41.537c.345 0 .625-.28.625-.624 0-.345-.28-.625-.625-.625H19.921c-.345 0-.624.28-.624.625 0 .344.28.624.624.624" transform="translate(0 11)"/>
            <path fill="#F2F2F2" d="M15.416 47.96h46.042c.345 0 .625-.28.625-.625s-.28-.625-.625-.625H15.416c-.345 0-.624.28-.624.625 0 .344.28.624.624.624" transform="translate(0 11)"/>
            <path fill="#CCC" d="M19.921 47.96h41.537c.345 0 .625-.28.625-.625s-.28-.625-.625-.625H19.921c-.345 0-.624.28-.624.625 0 .344.28.624.624.624" transform="translate(0 11)"/>
            <path fill="#B3B3B3" d="M36.668 47.96h20.144c.345 0 .625-.28.625-.625s-.28-.625-.625-.625H36.668c-.345 0-.624.28-.624.625 0 .344.28.624.624.624" transform="translate(0 11)"/>
            <path fill="#999" d="M41.314 47.96h20.144c.345 0 .625-.28.625-.625s-.28-.625-.625-.625H41.314c-.345 0-.624.28-.624.625 0 .344.28.624.624.624" transform="translate(0 11)"/>
            <path fill="#B3B3B3" d="M42.315 61.729h20.144c.345 0 .625-.28.625-.624 0-.345-.28-.625-.625-.625H42.315c-.345 0-.624.28-.624.625 0 .344.279.624.624.624" transform="translate(0 11)"/>
            <path fill="#999" d="M46.864 61.729h14.595c.344 0 .624-.28.624-.624 0-.345-.28-.625-.624-.625H46.864c-.345 0-.624.28-.624.625 0 .344.279.624.624.624" transform="translate(0 11)"/>
            <path fill="#CCC" d="M47.475 48.159L46.002 46.924 47.967 47.301 46.658 46.024 48.654 46.542 47.527 45.239 49.528 45.891 48.596 44.58 50.576 45.357 49.852 44.055 51.785 44.947 51.279 43.671 53.14 44.667 52.859 43.433 54.623 44.52 54.569 43.344 56.215 44.507 56.389 43.405 57.894 44.63 58.294 43.616 59.638 44.886 60.26 43.973 61.426 45.272 62.261 44.473 63.234 45.783 64.271 45.108 65.038 46.413 66.263 45.87 66.815 47.153 68.212 46.749 68.541 47.993 70.093 47.735 70.194 48.924 71.88 48.813 71.752 49.931 73.551 49.97 73.196 51.003 75.083 51.191 74.506 52.126 76.457 52.46 75.666 53.284 77.655 53.761 76.659 54.463 78.661 55.076 77.474 55.647 79.463 56.388 78.099 56.821 80.049 57.68 78.527 57.969 80.412 58.936 78.751 59.077 80.547 60.139 78.77 60.13 80.453 61.273 78.582 61.115 80.13 62.323 78.19 62.018 79.583 63.276 77.6 62.828 78.82 64.12 76.818 63.534 77.849 64.843 75.856 64.128 76.685 65.436 74.725 64.6 75.341 65.891 73.441 64.946 73.835 66.203 72.019 65.16 72.188 66.367 70.48 65.24 70.419 66.381 68.842 65.185 68.554 66.244 67.127 64.995 66.615 65.96 65.358 64.674 64.629 65.531 63.557 64.224 62.62 64.963 61.748 63.653 60.616 64.263 59.955 62.967 58.642 63.441 58.201 62.175 56.724 62.507 56.509 61.288 54.887 61.473 54.9 60.318 53.155 60.354 53.397 59.276 51.551 59.163 52.017 58.177 50.095 57.916 50.781 57.035 48.807 56.629 49.702 55.865 47.703 55.319 48.797 54.682 46.798 54.003 48.076 53.501 46.103 52.699 47.548 52.338 45.628 51.423 47.222 51.207 45.378 50.192 47.1 50.125 45.358 49.021 47.185 49.104 45.567 47.927z" transform="translate(0 11)"/>
            <path fill="#CCC" d="M47.475 48.159L46.002 46.924 47.967 47.301 46.658 46.024 48.654 46.542 47.527 45.239 49.528 45.891 48.596 44.58 50.576 45.357 49.852 44.055 51.785 44.947 51.279 43.671 53.14 44.667 52.859 43.433 54.623 44.52 54.569 43.344 56.215 44.507 56.389 43.405 57.894 44.63 58.294 43.616 59.638 44.886 60.26 43.973 61.426 45.272 62.261 44.473 63.234 45.783 64.271 45.108 65.038 46.413 66.263 45.87 66.815 47.153 68.212 46.749 68.541 47.993 70.093 47.735 70.194 48.924 71.88 48.813 71.752 49.931 73.551 49.97 73.196 51.003 75.083 51.191 74.506 52.126 76.457 52.46 75.666 53.284 77.655 53.761 76.659 54.463 78.661 55.076 77.474 55.647 79.463 56.388 78.099 56.821 80.049 57.68 78.527 57.969 80.412 58.936 78.751 59.077 80.547 60.139 78.77 60.13 80.453 61.273 78.582 61.115 80.13 62.323 78.19 62.018 79.583 63.276 77.6 62.828 78.82 64.12 76.818 63.534 77.849 64.843 75.856 64.128 76.685 65.436 74.725 64.6 75.341 65.891 73.441 64.946 73.835 66.203 72.019 65.16 72.188 66.367 70.48 65.24 70.419 66.381 68.842 65.185 68.554 66.244 67.127 64.995 66.615 65.96 65.358 64.674 64.629 65.531 63.557 64.224 62.62 64.963 61.748 63.653 60.616 64.263 59.955 62.967 58.642 63.441 58.201 62.175 56.724 62.507 56.509 61.288 54.887 61.473 54.9 60.318 53.155 60.354 53.397 59.276 51.551 59.163 52.017 58.177 50.095 57.916 50.781 57.035 48.807 56.629 49.702 55.865 47.703 55.319 48.797 54.682 46.798 54.003 48.076 53.501 46.103 52.699 47.548 52.338 45.628 51.423 47.222 51.207 45.378 50.192 47.1 50.125 45.358 49.021 47.185 49.104 45.567 47.927z" transform="translate(0 11)"/>
            <path fill="#B3B3B3" d="M59.743 62.898c8.533 3.7 17.011 3.106 18.935-1.33 1.924-4.436-3.434-11.033-11.967-14.734-8.534-3.701-17.01-3.106-18.935 1.33-1.924 4.436 3.434 11.033 11.967 14.734" transform="translate(0 11)"/>
            <path fill="#CCC" d="M47.776 48.164c-.488 1.125-.504 2.39-.122 3.71l29.945 11.23c.46-.447.828-.957 1.079-1.536 1.924-4.436-3.434-11.033-11.967-14.734-8.533-3.701-17.011-3.106-18.935 1.33" transform="translate(0 11)"/>
            <path fill="#B3B3B3" d="M72.188 66.367L72.02 65.16 73.836 66.203 73.441 64.946 75.341 65.892 74.725 64.6 76.685 65.436 75.856 64.128 77.85 64.843 76.819 63.535 78.821 64.12 77.6 62.828 78.39 63.007 46.322 51.329 45.628 51.423 47.549 52.338 46.104 52.699 48.076 53.501 46.799 54.004 48.797 54.682 47.704 55.319 49.703 55.865 48.808 56.629 50.781 57.036 50.096 57.916 52.018 58.178 51.552 59.163 53.397 59.277 53.156 60.354 54.901 60.318 54.887 61.474 56.509 61.289 56.724 62.507 58.202 62.176 58.642 63.441 59.956 62.967 60.616 64.263 61.749 63.653 62.621 64.963 63.558 64.224 64.629 65.531 65.358 64.674 66.616 65.96 67.128 64.996 68.554 66.245 68.843 65.185 70.42 66.381 70.48 65.24z" transform="translate(0 11)"/>
            <path fill="#E6E6E6" d="M78.099 56.821L78.858 56.58 77.656 55.715 77.474 55.647 77.526 55.621 63.561 45.571 63.234 45.783 62.519 44.821 62.164 44.566 61.426 45.272 60.26 43.974 59.638 44.886 58.294 43.615 57.893 44.63 56.389 43.406 56.214 44.508 54.569 43.343 54.582 43.617 78.988 57.882 80.048 57.681zM80.547 60.139L52.986 43.511M80.547 60.139s-1.773-.957-4.394-2.454c-1.304-.759-2.842-1.617-4.46-2.585l-5.08-3.02-5.04-3.085c-1.608-.986-3.088-1.941-4.367-2.742-2.546-1.621-4.22-2.742-4.22-2.742s1.772.958 4.393 2.456c1.305.758 2.84 1.62 4.461 2.584l5.081 3.018 5.04 3.085c1.611.981 3.088 1.941 4.367 2.741 2.547 1.62 4.22 2.743 4.22 2.743" transform="translate(0 11)"/>
            <path fill="gray" d="M54.553 20.408H26.766c-.464 0-.84-.376-.84-.84h29.466c0 .464-.376.84-.84.84" transform="translate(0 11)"/>
            <path fill="gray" d="M54.553 20.408H26.766c-.464 0-.84-.376-.84-.84h29.466c0 .464-.376.84-.84.84" transform="translate(0 11)"/>
            <g>
                <path fill="#333" fill-opacity=".2" d="M0 4.696c0 .833 5.526 1.51 12.344 1.51 6.817 0 12.343-.677 12.343-1.51s-5.526-1.509-12.343-1.509C5.526 3.187 0 3.863 0 4.697" transform="translate(0 11) translate(0 56.899)"/>
                <path fill="#B3B3B3" d="M6.37 0h-.123c0 .409-.143.819-.383 1.16-.25.352-.034.84.392.84h.105c.427 0 .642-.488.393-.84C6.514.819 6.37.409 6.37 0M10.196 0h-.123c0 .409-.143.819-.383 1.16-.25.352-.034.84.392.84h.105c.427 0 .642-.488.393-.84-.24-.341-.384-.751-.384-1.16" transform="translate(0 11) translate(0 56.899)"/>
                <path fill="#CCC" d="M2.583.063v1.42c0 .285.226.516.506.516h1.397C3.434 2 2.583 1.133 2.583.063M22.102.063C22.102 1.133 21.25 2 20.2 2h1.448c.28 0 .507-.232.507-.516V.063h-.052z" transform="translate(0 11) translate(0 56.899)"/>
                <path fill="#B3B3B3" d="M18.737 0h-.123c0 .409-.143.819-.383 1.16-.25.352-.034.84.392.84h.105c.427 0 .642-.488.393-.84-.24-.341-.384-.751-.384-1.16M14.368 0h-.123c0 .409-.143.819-.383 1.16-.25.352-.034.84.392.84h.105c.427 0 .642-.488.393-.84-.241-.341-.384-.751-.384-1.16" transform="translate(0 11) translate(0 56.899)"/>
                <path fill="#CCC" d="M6.597 5.205h11.484c1.364 0 2.614-.76 3.24-1.974l.833-1.624-19.575.04.778 1.584c.626 1.213 1.876 1.974 3.24 1.974" transform="translate(0 11) translate(0 56.899)"/>
                <path fill="#B3B3B3" d="M7.61 4.766h10.407c1.236 0 2.369-.668 2.936-1.733l.756-1.425-17.741.033.706 1.392c.567 1.065 1.7 1.733 2.936 1.733" transform="translate(0 11) translate(0 56.899)"/>
                <path fill="#999" d="M10.54 1.632c.005 1.329.712 2.405 1.585 2.405.874 0 1.583-1.08 1.585-2.412l-3.17.007zM16.332 4.037c.875 0 1.793-1.082 1.793-2.417v-.004l-3.274.007c.001 1.334.606 2.414 1.481 2.414M6.632 1.64c.007 1.325.693 2.397 1.539 2.397.847 0 1.534-1.075 1.539-2.404l-3.078.007zM3.226 1.645c.039 1.217.618 2.185 1.333 2.185.716 0 1.295-.971 1.333-2.19l-2.666.005zM21.585 1.608l-2.354.005c.066 1.085.565 1.932 1.177 1.932.167 0 .325-.063.469-.176.025-.047.053-.089.076-.137l.598-1.286c.016-.109.027-.222.034-.338" transform="translate(0 11) translate(0 56.899)"/>
            </g>
        </g>
    </g>
</svg>
