<?xml version="1.0" encoding="UTF-8"?>
<svg width="130px" height="85px" viewBox="0 0 130 85" version="1.1" xmlns="http://www.w3.org/2000/svg" xmlns:xlink="http://www.w3.org/1999/xlink">
    <!-- Generator: Sketch 64 (93537) - https://sketch.com -->
    <title>Ilustración Residuos mezclados</title>
    <desc>Created with Sketch.</desc>
    <g id="Ilustración-Residuos-mezclados" stroke="none" stroke-width="1" fill="none" fill-rule="evenodd">
        <g id="Group-3" transform="translate(0.000000, 6.000124)">
            <g id="Group-2" transform="translate(39.475400, 0.000000)">
                <path d="M14.9982,65.4387764 C14.9982,67.2557764 27.3103505,68.7287764 42.4982,68.7287764 C57.6860495,68.7287764 69.9982,67.2557764 69.9982,65.4387764 C69.9982,63.6217764 57.6860495,62.1487764 42.4982,62.1487764 C27.3103505,62.1487764 14.9982,63.6217764 14.9982,65.4387764" id="Fill-1" fill="#61705A"></path>
                <path d="M27.5506,34.1926764 C29.3636,37.3876764 36.2096,36.9266764 42.8416,33.1636764 C49.4736,29.4006764 53.3806,23.7596764 51.5676,20.5646764 C49.7556,17.3696764 42.9096,17.8306764 36.2766,21.5936764 C29.6446,25.3566764 25.7376,30.9976764 27.5506,34.1926764" id="Fill-5" fill="#FFFFFF"></path>
                <path d="M28.3213,29.1749764 C28.3213,29.1749764 16.7353,28.2099764 11.2643,33.8419764 C1.9313,16.4629764 0.000300000001,11.6349764 0.000300000001,11.6349764 C0.000300000001,11.6349764 13.0883,-2.37002358 21.5903,5.51697642 C30.0913,13.4049764 28.3213,29.1749764 28.3213,29.1749764" id="Fill-7" fill="#F7F3E2"></path>
                <path d="M15.4865,31.0409764 C21.1995,28.5829764 28.3215,29.1749764 28.3215,29.1749764 C28.3215,29.1749764 30.0915,13.4049764 21.5895,5.51797642 C20.0335,4.07397642 18.3235,3.36897642 16.5685,3.17197642 C16.2265,9.48797642 15.5045,23.6649764 15.4865,31.0409764" id="Fill-9" fill="#D6D1BD"></path>
                <path d="M21.5899,5.51747642 L21.2389,29.4884764 C21.2389,29.4884764 29.1769,30.9414764 28.3209,29.1754764 C27.4659,27.4084764 25.9379,9.25747642 21.5899,5.51747642" id="Fill-11" fill="#B7B19E"></path>
                <polygon id="Fill-13" fill="#FFFFFF" points="27.8091 34.6282764 52.0871 21.1772764 40.5861 1.84727642 16.7451 16.0322764"></polygon>
                <path d="M31.9831,15.1845764 C31.9831,15.1845764 31.2151,11.1385764 25.4901,10.8285764 L16.7441,16.0315764 L27.8091,34.6285764 L27.8471,34.6075764 C29.0141,36.0745764 31.4491,36.5745764 34.4311,36.1695764 L31.9831,15.1845764 Z" id="Fill-15" fill="#F7F4E7"></path>
                <path d="M32.2845,36.5152764 L21.9805,17.7132764 L18.0435,17.7132764 L29.6495,36.1712764 C30.4015,36.4522764 31.2925,36.4942764 32.2845,36.5152764" id="Fill-17" fill="#EAE3C3"></path>
                <path d="M16.2389,15.4570764 C18.0119,18.8860764 25.0609,18.7640764 31.9829,15.1840764 C38.9049,11.6050764 43.0789,5.92307642 41.3049,2.49407642 C39.5319,-0.934923581 32.4829,-0.812923581 25.5609,2.76607642 C18.6389,6.34607642 14.4659,12.0280764 16.2389,15.4570764" id="Fill-19" fill="#EAE3C3"></path>
                <path d="M24.9498,12.0216764 C25.4908,13.0676764 27.6408,13.0306764 29.7518,11.9386764 C31.8628,10.8466764 33.1348,9.11367642 32.5948,8.06867642 C32.0538,7.02267642 29.9038,7.05967642 27.7928,8.15167642 C25.6818,9.24267642 24.4088,10.9756764 24.9498,12.0216764" id="Fill-21" fill="#8C7D6B"></path>
                <path d="M28.8621,9.22067642 C27.0111,10.1776764 25.8051,11.6276764 25.9011,12.6756764 C26.8541,12.9266764 28.3051,12.6856764 29.7511,11.9386764 C31.6021,10.9806764 32.8081,9.53067642 32.7121,8.48367642 C31.7591,8.23267642 30.3081,8.47267642 28.8621,9.22067642" id="Fill-23" fill="#665B4F"></path>
                <path d="M9.799,4.49337642 L6.144,24.1553764 L4.47641924e-13,11.6353764 C4.47641924e-13,11.6353764 2.968,7.46637642 9.799,4.49337642" id="Fill-25" fill="#FFFFFF"></path>
                <path d="M46.3438,4.59227642 L30.9558,55.5052764 C30.9558,55.5052764 31.9738,68.1882764 52.2558,64.4842764 C72.3748,11.6072764 69.6948,4.31027642 69.6948,4.31027642 L46.3438,4.59227642 Z" id="Fill-149" fill="#EAE3C3"></path>
                <path d="M30.9556,55.5053764 C30.9556,55.5053764 31.0986,57.3483764 32.2606,59.3393764 L49.0656,6.97937642 L48.0306,4.57237642 L46.3436,4.59237642 L30.9556,55.5053764 Z" id="Fill-163" fill="#F7F3E2"></path>
                <path d="M1.9355,15.5791764 C1.9355,15.5791764 9.5645,11.6321764 8.5175,14.3241764 C7.4705,17.0171764 2.3365,16.8821764 7.1605,18.6871764 C11.9835,20.4931764 6.1435,24.1551764 6.1435,24.1551764 L1.9355,15.5791764 Z" id="Fill-175" fill="#A67C52"></path>
                <path d="M7.855,27.4303764 C7.855,27.4303764 17.331,26.4423764 10.201,31.6213764 C8.925,29.4563764 7.855,27.4303764 7.855,27.4303764" id="Fill-177" fill="#A67C52"></path>
                <path d="M85.4746,40.5921764 L69.6396,45.2701764 C61.7116,47.2711764 59.6696,64.9891764 59.6696,64.9891764 C59.6696,64.9891764 69.6256,63.7131764 75.4656,69.7131764 L75.8416,69.7131764 C75.8236,64.7131764 80.8066,51.8781764 85.4746,40.5921764" id="Fill-159" fill="#EAE3C3"></path>
                <path d="M49.0661,67.9574764 C49.0661,69.4774764 55.5221,70.7104764 63.4871,70.7104764 C71.4511,70.7104764 77.9081,69.4774764 77.9081,67.9574764 C77.9081,66.4374764 71.4511,65.2044764 63.4871,65.2044764 C55.5221,65.2044764 49.0661,66.4374764 49.0661,67.9574764" id="Fill-3" fill="#61705A"></path>
                <path d="M55.2976,11.3410764 L45.7406,65.3660764 C45.7406,65.3660764 54.8616,66.7010764 58.2656,63.3660764 C61.6696,60.0310764 71.3816,5.97807642 71.3816,5.97807642 L55.2976,11.3410764 Z" id="Fill-151" fill="#D6D1BD"></path>
                <path d="M46.3570794,5.70857642 C46.3862,8.09657642 51.6372,9.96957642 58.0852,9.89157642 C64.5332,9.81457642 69.7372,7.81557642 69.7083206,5.42657642 C69.6792,3.03857642 64.4292,1.16557642 57.9802,1.24357642 C51.5322,1.32157642 46.3282,3.32057642 46.3570794,5.70857642" id="Fill-153" fill="#F7F3E2"></path>
                <path d="M52.831863,5.28237642 C52.8429,6.23237642 55.3089,6.97237642 58.3389,6.93637642 C61.3689,6.89937642 63.8149,6.09937642 63.803937,5.15037642 C63.7919,4.20037642 61.3269,3.46037642 58.2969,3.49637642 C55.2669,3.53337642 52.8209,4.33237642 52.831863,5.28237642" id="Fill-155" fill="#9BA498"></path>
                <path d="M51.6698,64.9724764 C51.6698,64.9724764 47.8848,53.6924764 55.7978,40.1444764 C63.7108,26.5954764 71.3788,6.62047642 70.4048,4.87147642 C85.8698,15.8304764 85.8478,18.1564764 85.3868,21.1794764 C84.9258,24.2024764 67.2768,61.6604764 67.8428,70.0994764 C62.0648,63.3414764 51.6698,64.9724764 51.6698,64.9724764" id="Fill-157" fill="#F7F3E2"></path>
                <path d="M58.712,37.8883764 C58.712,37.8883764 79.81,34.6023764 81.235,30.9993764 C82.661,27.3963764 70.216,9.74537642 70.216,9.74537642 C70.216,9.74537642 61.566,35.3673764 58.712,37.8883764" id="Fill-161" fill="#EAE3C3"></path>
                <path d="M57.8391,65.7083764 C57.8391,65.7083764 52.2131,54.0533764 60.1361,53.9823764 C68.0601,53.9123764 69.8071,58.3553764 69.3341,53.8613764 C68.8621,49.3673764 69.1871,46.5583764 72.0701,46.6673764 L74.9531,46.7773764 C74.9531,46.7773764 67.3581,66.5023764 67.8421,70.0993764 C62.5661,64.4003764 57.8391,65.7083764 57.8391,65.7083764" id="Fill-167" fill="#F7931E"></path>
                <path d="M73.7349,39.4749764 C74.5689,38.2639764 78.1029,33.6609764 74.9529,31.6219764 C71.8029,29.5829764 66.6149,32.3159764 68.1389,35.0929764 C69.6639,37.8709764 72.0949,41.8569764 73.7349,39.4749764" id="Fill-165" fill="#F7931E"></path>
                <path d="M67.2577,46.6644764 C67.8667,47.0454764 68.5057,48.8324764 67.2577,49.0104764 C66.0097,49.1884764 64.9197,45.2014764 67.2577,46.6644764" id="Fill-169" fill="#F7931E"></path>
                <path d="M69.8136,60.7537764 C69.8136,60.7537764 63.8256,58.4737764 63.8036,61.1387764 C63.7816,63.8047764 68.1396,65.5087764 68.1396,65.5087764 L69.8136,60.7537764 Z" id="Fill-171" fill="#F7F3E2"></path>
                <path d="M82.5972,27.8260764 C82.5972,27.8260764 76.9722,24.6500764 79.7342,22.5710764 C82.4972,20.4930764 74.2592,14.3280764 80.7842,12.8650764 L86.7742,18.8880764 L82.5972,27.8260764 Z" id="Fill-173" fill="#F7931E"></path>
            </g>
            <g id="Group" transform="translate(36.345486, 27.826346)">
                <path d="M5.77931372,36.7779302 C5.77931372,37.4669302 11.8213137,38.0259302 19.2753137,38.0259302 C26.7283137,38.0259302 32.7713137,37.4669302 32.7713137,36.7779302 C32.7713137,36.0889302 26.7283137,35.5299302 19.2753137,35.5299302 C11.8213137,35.5299302 5.77931372,36.0889302 5.77931372,36.7779302" id="Fill-27" fill="#61705A"></path>
                <path d="M31.4441137,30.0898302 C34.1471137,28.8828302 36.7031137,28.1088302 38.3291137,26.9158302 C34.3251137,28.0998302 28.6541137,28.6678302 25.5121137,31.9968302 C23.5851137,34.0388302 23.8591137,35.6748302 24.7071137,36.8528302 C28.5601137,35.5008302 26.2351137,32.4158302 31.4441137,30.0898302" id="Fill-35" fill="#C9B8A1"></path>
                <path d="M15.6755137,10.4537302 C15.6655137,7.60373016 13.8255137,-1.45226984 8.58051372,0.199730162 C13.4015137,3.01673016 12.8545137,4.49373016 13.5125137,9.31273016 C13.9475137,12.4957302 18.0075137,14.4977302 20.7215137,15.4957302 C18.0105137,13.7047302 15.6795137,11.7577302 15.6755137,10.4537302" id="Fill-37" fill="#C9B8A1"></path>
                <path d="M5.59811372,5.43163016 C5.63611372,7.33963016 5.90011372,9.20363016 4.83011372,10.0466302 C3.09411372,11.4156302 0.554113725,12.5256302 0.0831137249,14.3306302 C1.70011372,14.7416302 4.72811372,13.1696302 5.77411372,11.0936302 C6.47511372,9.70063016 6.16011372,7.47363016 5.59811372,5.43163016" id="Fill-39" fill="#C9B8A1"></path>
                <path d="M9.78821372,18.4831302 C12.5172137,20.0781302 17.9142137,21.6511302 20.1582137,26.8011302 C22.4032137,31.9501302 19.9552137,38.2591302 24.3442137,36.9801302 C28.7342137,35.7011302 26.0722137,32.4881302 31.4442137,30.0901302 C36.8172137,27.6911302 41.6172137,27.0061302 39.6642137,21.3251302 C37.7112137,15.6441302 30.7262137,20.4771302 28.7612137,19.8591302 C26.7952137,19.2421302 15.6852137,13.3041302 15.6752137,10.4541302 C15.6662137,7.60413016 13.8262137,-1.45186984 8.58021372,0.200130162 C3.33521372,1.85113016 7.10521372,8.25313016 4.83021372,10.0471302 C2.55521372,11.8411302 -1.11378628,13.1861302 0.325213725,16.2401302 C2.66721372,21.2131302 7.20521372,16.9741302 9.78821372,18.4831302" id="Fill-41" fill="#FCEED6"></path>
                <path d="M31.4441137,30.0898302 C34.1471137,28.8828302 36.7031137,28.1088302 38.3291137,26.9158302 C34.3251137,28.0998302 28.6541137,28.6678302 25.5121137,31.9968302 C23.5851137,34.0388302 23.8591137,35.6748302 24.7071137,36.8528302 C28.5601137,35.5008302 26.2351137,32.4158302 31.4441137,30.0898302" id="Fill-43" fill="#C9B8A1"></path>
                <path d="M15.6755137,10.4537302 C15.6655137,7.60373016 13.8255137,-1.45226984 8.58051372,0.199730162 C13.4015137,3.01673016 12.8545137,4.49373016 13.5125137,9.31273016 C13.9475137,12.4957302 18.0075137,14.4977302 20.7215137,15.4957302 C18.0105137,13.7047302 15.6795137,11.7577302 15.6755137,10.4537302" id="Fill-45" fill="#C9B8A1"></path>
                <path d="M5.59811372,5.43163016 C5.63611372,7.33963016 5.90011372,9.20363016 4.83011372,10.0466302 C3.09411372,11.4156302 0.554113725,12.5256302 0.0831137249,14.3306302 C1.70011372,14.7416302 4.72811372,13.1696302 5.77411372,11.0936302 C6.47511372,9.70063016 6.16011372,7.47363016 5.59811372,5.43163016" id="Fill-47" fill="#C9B8A1"></path>
                <path d="M15.3330137,7.59083016 C14.5940137,3.89783016 12.5790137,-1.05916984 8.58101372,0.199830162 C7.65001372,0.492830162 7.01401372,0.939830162 6.56701372,1.47983016 C6.66701372,1.47083016 9.92501372,1.24183016 15.3330137,7.59083016" id="Fill-49" fill="#C9B8A1"></path>
                <path d="M36.7016137,27.8644302 C39.3806137,26.5604302 40.9186137,24.9734302 39.6646137,21.3254302 C38.8346137,18.9124302 37.0966137,18.3984302 35.2206137,18.5564302 C35.2206137,18.5564302 40.1206137,22.6144302 36.7016137,27.8644302" id="Fill-51" fill="#C9B8A1"></path>
                <path d="M6.62131372,12.1582302 C6.46731372,8.42023016 3.17831372,11.2472302 4.00431372,10.6472302 C4.83031372,10.0472302 6.17531372,8.64523016 5.59831372,5.43123016 C4.88431372,1.45623016 8.72031372,13.1202302 6.56631372,14.2312302 C6.80531372,14.0732302 6.65231372,12.9052302 6.62131372,12.1582302" id="Fill-53" fill="#8C7D6B"></path>
                <path d="M34.1990137,28.9433302 C34.1990137,28.9433302 29.2590137,30.3153302 27.2980137,32.2683302 C25.3360137,34.2213302 26.4880137,35.3133302 27.0470137,34.9413302 C27.8860137,34.3843302 27.3730137,32.8773302 29.4780137,31.3493302 C31.5840137,29.8213302 34.1990137,28.9433302 34.1990137,28.9433302" id="Fill-55" fill="#8C7D6B"></path>
                <path d="M24.9906137,19.7961302 C24.9906137,19.7961302 27.3896137,18.4801302 28.5596137,19.5921302 C29.7296137,20.7031302 24.9906137,19.7961302 24.9906137,19.7961302" id="Fill-57" fill="#C9B8A1"></path>
                <path d="M16.0981137,15.5264302 C16.0981137,15.5264302 16.8761137,16.9734302 19.9041137,18.5504302 C22.9321137,20.1274302 15.4631137,14.7394302 16.0981137,15.5264302" id="Fill-59" fill="#C9B8A1"></path>
                <path d="M34.2357137,20.9992302 C34.2357137,20.9992302 35.2277137,20.6522302 35.8987137,21.4782302 C36.5697137,22.3042302 35.5267137,23.5222302 34.8507137,23.6922302 C34.1737137,23.8632302 33.2757137,23.4252302 33.3457137,22.6652302 C33.4157137,21.9062302 34.2357137,20.9992302 34.2357137,20.9992302" id="Fill-61" fill="#FFFFFF"></path>
                <path d="M32.4058137,23.3157302 C32.1368137,23.5017302 32.1738137,23.5917302 31.5578137,23.9027302 C30.9428137,24.2127302 29.9438137,23.8107302 30.9468137,23.0187302 C31.9498137,22.2257302 33.2538137,22.7287302 32.4058137,23.3157302" id="Fill-63" fill="#FFFFFF"></path>
                <path d="M29.1866137,21.1018302 C28.3826137,21.5178302 28.6426137,21.8428302 29.1246137,21.7038302 C29.6056137,21.5648302 29.9906137,20.6858302 29.1866137,21.1018302" id="Fill-65" fill="#FFFFFF"></path>
                <path d="M37.2918137,25.4161302 C37.2918137,25.4161302 37.8908137,24.0701302 38.5408137,23.7191302 C39.1918137,23.3691302 38.9758137,25.4961302 38.2598137,25.8951302 C37.5438137,26.2951302 36.8828137,26.1761302 37.2918137,25.4161302" id="Fill-67" fill="#FFFFFF"></path>
                <path d="M17.1450137,19.7648302 C17.4250137,19.8548302 20.9680137,23.3878302 19.8670137,23.2488302 C18.7650137,23.1108302 15.8700137,19.3568302 17.1450137,19.7648302" id="Fill-69" fill="#FFFFFF"></path>
                <path d="M12.6955137,17.7810302 C12.8205137,17.9750302 15.6635137,21.4780302 16.3685137,20.9970302 C17.0735137,20.5160302 11.6805137,16.2060302 12.6955137,17.7810302" id="Fill-71" fill="#FFFFFF"></path>
                <path d="M8.59241372,4.69013016 C8.59241372,4.69013016 8.07541372,6.48713016 7.64041372,5.94413016 C7.20641372,5.40113016 6.01341372,4.46513016 6.94941372,3.63113016 C7.88541372,2.79713016 8.72741372,4.28613016 8.59241372,4.69013016" id="Fill-73" fill="#FFFFFF"></path>
                <path d="M15.5853137,9.15233016 L13.2653137,7.26733016 C13.2653137,7.26733016 12.2693137,17.0753302 24.9903137,19.7963302 C27.4203137,19.6573302 28.2873137,19.7363302 28.5953137,19.8013302 C26.2503137,18.9483302 15.6853137,13.2333302 15.6753137,10.4533302 C15.6743137,10.1033302 15.6443137,9.65833016 15.5853137,9.15233016" id="Fill-75" fill="#C9B8A1"></path>
                <path d="M6.48101372,10.2205302 C6.48101372,10.2205302 8.45101372,13.2245302 5.84601372,15.1265302 C3.24101372,17.0275302 0.380013725,14.5415302 2.09401372,12.8595302 C3.80801372,11.1765302 5.81401372,9.57353016 6.48101372,10.2205302" id="Fill-77" fill="#C9B8A1"></path>
                <path d="M9.08591372,6.60863016 C9.28391372,6.39563016 8.72191372,5.57863016 9.44391372,5.49563016 C10.1669137,5.41263016 10.2149137,6.12363016 10.0569137,6.38163016 C9.89991372,6.63963016 9.08591372,6.60863016 9.08591372,6.60863016" id="Fill-79" fill="#FFFFFF"></path>
                <path d="M3.69911372,16.6135302 C3.69911372,16.6135302 6.12911372,16.5695302 3.64711372,15.4615302 C1.16411372,14.3545302 2.38411372,17.6465302 3.69911372,16.6135302" id="Fill-81" fill="#8C7D6B"></path>
            </g>
            <path d="M52.4288,64.0832764 C52.4288,64.0832764 49.1358,55.0712764 42.3758,58.6532764 C35.6158,62.2352764 36.7748,63.7642764 36.7748,63.7642764 L52.4288,64.0832764 Z" id="Fill-29" fill="#61705A"></path>
            <path d="M24.6718,65.5086764 C24.6718,66.3396764 34.0888,67.0126764 45.7058,67.0126764 C57.3228,67.0126764 66.7398,66.3396764 66.7398,65.5086764 C66.7398,64.6776764 57.3228,64.0046764 45.7058,64.0046764 C34.0888,64.0046764 24.6718,64.6776764 24.6718,65.5086764" id="Fill-31" fill="#61705A"></path>
            <path d="M37.6958,64.7221764 C37.6958,64.7221764 27.1268,69.9911764 4.9318,65.2521764 C3.8748,60.5121764 6.8078,60.4251764 9.5688,58.0021764 C12.3308,55.5801764 13.2198,53.4311764 15.4178,54.1541764 C17.6148,54.8761764 15.2478,60.1331764 18.7218,60.3231764 C22.1948,60.5121764 25.6208,60.7471764 25.6208,60.7471764 C25.6208,60.7471764 25.8718,56.2381764 30.3748,58.3751764 C34.8778,60.5121764 34.1778,62.5471764 34.1778,62.5471764 C41.2188,60.6201764 48.9688,64.7041764 37.6958,64.7221764" id="Fill-83" fill="#61705A"></path>
            <path d="M-7.28306304e-14,64.1125764 C-7.28306304e-14,64.9775764 2.918,65.6775764 6.517,65.6775764 C10.117,65.6775764 13.035,64.9775764 13.035,64.1125764 C13.035,63.2475764 10.117,62.5475764 6.517,62.5475764 C2.918,62.5475764 -7.28306304e-14,63.2475764 -7.28306304e-14,64.1125764" id="Fill-85" fill="#61705A"></path>
            <path d="M44.1307,47.9452764 C44.7287,47.7372764 48.5637,52.0272764 46.1747,52.8962764 C43.7867,53.7642764 46.4587,53.9592764 45.6337,54.0682764 C44.8087,54.1772764 44.6717,55.0342764 45.0227,55.1432764 C45.3737,55.2512764 46.0367,55.6802764 44.2997,55.7892764 C42.5627,55.8972764 44.8477,56.2962764 44.3047,56.6222764 C43.7627,56.9472764 45.8127,56.7132764 43.5417,57.7132764 L35.7327,57.7132764 C35.7327,57.7132764 38.2307,57.5082764 37.3617,56.5312764 C36.4927,55.5542764 38.6817,56.5372764 38.2937,56.2112764 C37.9047,55.8862764 36.7097,55.5632764 37.3617,55.2372764 C38.0127,54.9122764 37.2707,53.9902764 38.2937,53.9902764 C39.3157,53.9902764 37.5967,53.6722764 38.2937,53.2482764 C38.9907,52.8242764 37.7957,51.9692764 38.9907,51.4262764 C40.1847,50.8832764 34.8297,51.1822764 44.1307,47.9452764" id="Fill-87" fill="#F2F2F2"></path>
            <path d="M44.2995,55.7890764 C46.0365,55.6800764 45.3745,55.2520764 45.0225,55.1430764 C44.6715,55.0340764 44.8085,54.1770764 45.6335,54.0680764 C46.4585,53.9600764 43.7865,53.7640764 46.1755,52.8960764 C48.5635,52.0270764 44.7285,47.7370764 44.1305,47.9450764 C34.8295,51.1820764 40.1845,50.8970764 38.9905,51.4400764 C37.7955,51.9830764 38.9905,52.8520764 38.2935,53.2760764 C37.5965,53.7000764 39.3165,54.0460764 38.2935,54.0460764 C37.2705,54.0460764 38.0135,55.0230764 37.3615,55.3490764 C37.2165,55.4220764 37.1735,55.5010764 37.1825,55.5820764 C37.2395,55.6630764 37.2925,55.7430764 37.3565,55.8250764 C37.6145,56.0370764 38.0755,56.2530764 38.2935,56.4350764 C38.4285,56.5480764 38.2505,56.5300764 37.9995,56.4990764 C39.2185,57.6060764 41.2635,58.4530764 44.6285,57.8700764 C44.6935,57.5020764 43.9515,57.2810764 44.3055,57.0690764 C44.8485,56.7430764 42.5625,55.8980764 44.2995,55.7890764" id="Fill-89" fill="#F7931E"></path>
            <path d="M44.3051,56.6218764 C44.6541,56.4118764 43.8371,56.2118764 43.6691,55.9068764 C43.4711,55.9808764 43.2211,56.1408764 42.8741,56.1288764 C41.1711,56.0678764 44.4961,56.9538764 43.1211,57.2128764 C42.4811,57.3328764 42.5061,57.7128764 42.5191,57.7128764 L43.5421,57.7128764 C45.8131,56.7128764 43.7621,56.9478764 44.3051,56.6218764" id="Fill-91" fill="#D87819"></path>
            <path d="M42.8778,48.3933764 C42.9198,48.5703764 43.0578,48.7653764 43.3428,48.9793764 C43.3428,48.9793764 46.5188,52.4143764 45.1308,52.5353764 C43.7428,52.6563764 44.6128,53.4293764 44.1698,53.5693764 C43.7268,53.7103764 42.4488,54.0483764 43.4068,54.5913764 C43.9688,54.9093764 44.2598,55.4383764 44.0728,55.8123764 C44.1408,55.8033764 44.2118,55.7943764 44.2998,55.7893764 C46.0368,55.6803764 45.3738,55.2513764 45.0228,55.1433764 C44.6718,55.0343764 44.8088,54.1763764 45.6338,54.0683764 C46.4588,53.9593764 43.7868,53.7643764 46.1748,52.8963764 C48.5638,52.0273764 44.7288,47.7373764 44.1308,47.9453764 C43.6758,48.1033764 43.2648,48.2513764 42.8778,48.3933764" id="Fill-93" fill="#D87819"></path>
            <path d="M38.3129,50.6340764 C38.4649,50.9600764 39.9249,50.6040764 41.5739,49.8380764 C43.2239,49.0720764 44.4379,48.1870764 44.2869,47.8600764 C44.1349,47.5340764 42.6749,47.8900764 41.0249,48.6560764 C39.3759,49.4220764 38.1609,50.3080764 38.3129,50.6340764" id="Fill-95" fill="#FFAA55"></path>
            <path d="M38.3332,63.8078764 C38.3332,63.8078764 37.3672,61.3968764 36.5732,61.9928764 C35.7782,62.5878764 36.2962,62.9458764 36.2962,62.9458764 C36.2962,62.9458764 35.7492,62.6178764 35.8362,63.3988764 C34.6922,63.4568764 31.7672,63.6528764 38.3332,63.8078764" id="Fill-97" fill="#4D4D4D"></path>
            <path d="M43.5417,57.7129764 C43.5417,57.7129764 44.2567,58.6479764 43.9307,58.8659764 C43.6047,59.0829764 44.4267,63.4319764 44.0157,63.5409764 C43.6047,63.6489764 41.1807,63.6799764 36.7647,63.6529764 C36.3847,61.4809764 36.4927,59.2979764 36.1127,58.7009764 C35.7327,58.1039764 36.1127,57.7129764 36.9277,57.7129764 L43.5417,57.7129764 Z" id="Fill-99" fill="#F2F2F2"></path>
            <path d="M36.6741,62.6602764 C36.6741,62.6602764 42.0921,61.4222764 44.1241,62.9462764 C41.2341,63.4562764 36.7641,63.7642764 36.7641,63.7642764 L36.6741,62.6602764 Z" id="Fill-101" fill="#CCCCCC"></path>
            <path d="M38.6103,57.4665764 C38.6103,57.4665764 35.2033,57.0755764 36.5813,58.3025764 C38.5563,58.2265764 38.6103,57.4665764 38.6103,57.4665764" id="Fill-103" fill="#F2F2F2"></path>
            <path d="M38.6103,57.4665764 C38.6103,57.4665764 35.2033,57.0755764 36.5813,58.3025764 C38.5563,58.2265764 38.6103,57.4665764 38.6103,57.4665764" id="Fill-105" fill="#F2F2F2"></path>
            <path d="M45.4405,53.0666764 C45.3155,52.9996764 41.5915,52.0816764 42.8445,52.7976764 C44.0975,53.5146764 47.0965,53.9616764 45.4405,53.0666764" id="Fill-107" fill="#D87819"></path>
            <path d="M44.5718,53.9352764 C44.4468,53.8682764 40.7228,52.9502764 41.9758,53.6662764 C43.2288,54.3832764 46.2278,54.8302764 44.5718,53.9352764" id="Fill-109" fill="#D87819"></path>
            <path d="M43.4531,55.6008764 C43.2611,55.5938764 37.7571,55.2228764 39.5851,55.8708764 C42.1011,56.7608764 48.5811,55.7988764 43.4531,55.6008764" id="Fill-111" fill="#A05A1C"></path>
            <path d="M44.4564,57.0078764 C44.3114,56.9798764 39.4664,57.1858764 40.9284,57.4948764 C42.3894,57.8038764 46.3824,57.3788764 44.4564,57.0078764" id="Fill-113" fill="#A05A1C"></path>
            <path d="M39.2292,51.4403764 L42.1012,52.3433764 C42.1012,52.3433764 38.9562,52.6063764 39.2292,51.4403764" id="Fill-115" fill="#D87819"></path>
            <path d="M38.6103,53.5650764 C38.6103,53.5650764 44.4553,54.7700764 43.2253,54.7700764 C41.9943,54.7700764 38.7043,54.4090764 38.6103,53.5650764" id="Fill-117" fill="#D87819"></path>
            <path d="M37.6722,54.7594764 C37.6722,54.7594764 38.1212,55.8434764 38.8362,56.0604764 C39.5522,56.2774764 37.5282,54.4684764 37.6722,54.7594764" id="Fill-119" fill="#D87819"></path>
            <path d="M43.5071,59.3304764 C43.5071,59.3304764 36.8911,60.9224764 38.9901,60.9224764 C41.0891,60.9224764 44.8281,58.9994764 43.5071,59.3304764" id="Fill-121" fill="#CCCCCC"></path>
            <path d="M41.0895,60.9229764 C41.0895,60.9229764 39.5695,61.4299764 39.6055,61.8999764 C39.6415,62.3709764 41.8855,60.8869764 41.0895,60.9229764" id="Fill-123" fill="#CCCCCC"></path>
            <path d="M36.8911,59.2921764 C36.8911,59.2921764 40.5541,59.6201764 39.2291,59.7281764 C37.9041,59.8371764 36.1301,59.2181764 36.8911,59.2921764" id="Fill-125" fill="#CCCCCC"></path>
            <path d="M38.1129,57.6012764 C38.1129,57.6012764 40.6019,58.6062764 40.0489,58.6062764 C39.4969,58.6062764 38.8639,58.2242764 38.1129,57.6012764" id="Fill-127" fill="#CCCCCC"></path>
            <path d="M44.1242,62.9461764 C42.4472,62.9681764 38.5512,63.0941764 37.4322,63.3841764 C36.3122,63.6731764 36.7642,63.7641764 36.7642,63.7641764 C36.7642,63.7641764 39.6052,63.9631764 44.0162,63.7641764 C44.1242,62.9461764 44.3302,62.9431764 44.1242,62.9461764" id="Fill-129" fill="#4D4D4D"></path>
            <path d="M42.8778,63.8078764 C42.8778,63.8078764 43.8438,61.3968764 44.6378,61.9928764 C45.4328,62.5878764 44.9148,62.9458764 44.9148,62.9458764 C44.9148,62.9458764 45.4618,62.6178764 45.3748,63.3988764 C46.5188,63.4568764 49.4438,63.6528764 42.8778,63.8078764" id="Fill-131" fill="#4D4D4D"></path>
            <path d="M38.8546,63.2700764 C38.8546,63.2700764 36.8046,62.2240764 36.7346,63.2700764 L36.7746,63.7640764 L38.8546,63.2700764 Z" id="Fill-133" fill="#4D4D4D"></path>
            <path d="M24.0539,61.6466764 C24.0539,61.6466764 21.0499,54.6996764 18.8479,56.3366764 C16.6459,57.9736764 14.7969,59.3746764 14.7969,59.3746764 C14.7969,59.3746764 18.7909,65.3226764 24.0539,61.6466764" id="Fill-135" fill="#61705A"></path>
            <path d="M27.0355,44.3955764 C27.3775,45.1585764 28.0495,45.5995764 28.5365,45.3805764 C29.0235,45.1625764 29.1415,44.3675764 28.7995,43.6045764 C28.4585,42.8425764 27.7865,42.4015764 27.2995,42.6195764 C26.8115,42.8375764 26.6935,43.6325764 27.0355,44.3955764" id="Fill-137" fill="#FFFFFF"></path>
            <path d="M30.7418,44.3955764 C30.3998,45.1585764 29.7278,45.5995764 29.2408,45.3805764 C28.7538,45.1625764 28.6358,44.3675764 28.9778,43.6045764 C29.3188,42.8425764 29.9908,42.4015764 30.4778,42.6195764 C30.9658,42.8375764 31.0838,43.6325764 30.7418,44.3955764" id="Fill-139" fill="#FFFFFF"></path>
            <path d="M27.0477,45.8408764 C27.0477,46.3028764 27.8857,46.6768764 28.9197,46.6768764 C29.9537,46.6768764 30.7917,46.3028764 30.7917,45.8408764 C30.7917,45.3788764 29.9537,45.0048764 28.9197,45.0048764 C27.8857,45.0048764 27.0477,45.3788764 27.0477,45.8408764" id="Fill-141" fill="#61705A"></path>
            <path d="M3.9383,53.2385764 C4.2223,53.8715764 4.7793,54.2375764 5.1843,54.0565764 C5.5883,53.8755764 5.6863,53.2155764 5.4023,52.5825764 C5.1193,51.9495764 4.5613,51.5835764 4.1573,51.7645764 C3.7523,51.9455764 3.6543,52.6055764 3.9383,53.2385764" id="Fill-143" fill="#FFFFFF"></path>
            <path d="M7.0145,53.2385764 C6.7305,53.8715764 6.1735,54.2375764 5.7685,54.0565764 C5.3645,53.8755764 5.2665,53.2155764 5.5505,52.5825764 C5.8335,51.9495764 6.3915,51.5835764 6.7955,51.7645764 C7.2005,51.9455764 7.2985,52.6055764 7.0145,53.2385764" id="Fill-145" fill="#FFFFFF"></path>
            <path d="M3.9485,54.4381764 C3.9485,54.8211764 4.6445,55.1321764 5.5025,55.1321764 C6.3605,55.1321764 7.0565,54.8211764 7.0565,54.4381764 C7.0565,54.0551764 6.3605,53.7441764 5.5025,53.7441764 C4.6445,53.7441764 3.9485,54.0551764 3.9485,54.4381764" id="Fill-147" fill="#61705A"></path>
            <path d="M13.7396,60.7429764 C13.7396,60.7429764 14.2676,59.2119764 14.7966,60.7429764 C15.3246,62.2739764 13.7396,60.7429764 13.7396,60.7429764" id="Fill-179" fill="#F7931E"></path>
            <path d="M16.558,59.3338764 C16.558,59.3338764 17.086,57.8028764 17.615,59.3338764 C18.143,60.8648764 16.558,59.3338764 16.558,59.3338764" id="Fill-181" fill="#EAE3C3"></path>
            <path d="M22.1947,59.3338764 C22.1947,59.3338764 22.7227,57.8028764 23.2517,59.3338764 C23.7797,60.8648764 22.1947,59.3338764 22.1947,59.3338764" id="Fill-183" fill="#EAE3C3"></path>
            <path d="M25.0131,63.2167764 C25.0131,63.2167764 25.8091,60.9097764 26.6051,63.2167764 C27.4011,65.5237764 25.0131,63.2167764 25.0131,63.2167764" id="Fill-185" fill="#EAE3C3"></path>
            <path d="M29.2647,61.4383764 C29.2647,61.4383764 29.2637,60.2183764 30.0167,61.1783764 C30.7697,62.1383764 29.2647,61.4383764 29.2647,61.4383764" id="Fill-187" fill="#EAE3C3"></path>
        </g>
    </g>
</svg>