<?xml version="1.0" encoding="UTF-8"?>
<svg width="130px" height="85px" viewBox="0 0 130 85" version="1.1" xmlns="http://www.w3.org/2000/svg" xmlns:xlink="http://www.w3.org/1999/xlink">
    <!-- Generator: Sketch 64 (93537) - https://sketch.com -->
    <title>Ilustración Papel higiénico</title>
    <desc>Created with Sketch.</desc>
    <defs>
        <polygon id="path-1" points="0 0.437002274 34.4067871 0.437002274 34.4067871 37.5741 0 37.5741"></polygon>
    </defs>
    <g id="Ilustración-Papel-higiénico" stroke="none" stroke-width="1" fill="none" fill-rule="evenodd">
        <rect id="Rectangle-Copy-16" fill="#8E968B" fill-rule="nonzero" x="26" y="0" width="85" height="85" rx="8"></rect>
        <g id="Group-34" transform="translate(34.000000, 23.000000)">
            <path d="M25.0658,42.5658 C25.0658,44.0858 32.8358,45.3188 42.4198,45.3188 C52.0048,45.3188 59.7748,44.0858 59.7748,42.5658 C59.7748,41.0458 52.0048,39.8128 42.4198,39.8128 C32.8358,39.8128 25.0658,41.0458 25.0658,42.5658" id="Fill-1" fill="#61705A"></path>
            <path d="M3.7094,18.9272 C3.7094,18.9272 12.9974,14.1212 11.7224,17.3992 C10.4484,20.6772 4.1974,20.5142 10.0704,22.7112 C15.9424,24.9092 8.8324,29.3682 8.8324,29.3682 L3.7094,18.9272 Z" id="Fill-3" fill="#A67C52"></path>
            <path d="M10.9163,33.3556 C10.9163,33.3556 22.4523,32.1526 13.7723,38.4586 C12.2183,35.8226 10.9163,33.3556 10.9163,33.3556" id="Fill-5" fill="#A67C52"></path>
            <path d="M33.2906,41.3171 C35.4816,45.1781 43.7536,44.6211 51.7676,40.0731 C59.7816,35.5261 64.5026,28.7101 62.3126,24.8501 C60.1216,20.9891 51.8496,21.5461 43.8346,26.0931 C35.8206,30.6411 31.0996,37.4561 33.2906,41.3171" id="Fill-7" fill="#FFFFFF"></path>
            <g id="Group-11" transform="translate(0.000000, 3.318800)">
                <mask id="mask-2" fill="white">
                    <use xlink:href="#path-1"></use>
                </mask>
                <g id="Clip-10"></g>
                <path d="M34.2219,31.9351 C34.2219,31.9351 20.2219,30.7681 13.6109,37.5741 C2.3329,16.5741 -0.0001,10.7411 -0.0001,10.7411 C-0.0001,10.7411 15.8149,-6.1829 26.0879,3.3481 C36.3609,12.8801 34.2219,31.9351 34.2219,31.9351" id="Fill-9" fill="#F7F3E2" mask="url(#mask-2)"></path>
            </g>
            <path d="M18.7129,37.5087 C25.6169,34.5377 34.2219,35.2537 34.2219,35.2537 C34.2219,35.2537 36.3609,16.1987 26.0879,6.6677 C24.2079,4.9227 22.1409,4.0707 20.0199,3.8327 C19.6069,11.4647 18.7339,28.5957 18.7129,37.5087" id="Fill-12" fill="#D6D1BD"></path>
            <path d="M26.088,6.6673 L25.664,35.6323 C25.664,35.6323 35.255,37.3883 34.222,35.2543 C33.189,33.1193 31.342,11.1863 26.088,6.6673" id="Fill-14" fill="#B7B19E"></path>
            <polygon id="Fill-16" fill="#FFFFFF" points="33.6029 41.8434 62.9389 25.5904 49.0419 2.2324 20.2329 19.3724"></polygon>
            <path d="M38.6466,18.3485 C38.6466,18.3485 37.7186,13.4605 30.8006,13.0855 L20.2326,19.3725 L33.6026,41.8435 L33.6486,41.8185 C35.0586,43.5915 38.0016,44.1955 41.6046,43.7055 L38.6466,18.3485 Z" id="Fill-18" fill="#F7F4E7"></path>
            <path d="M39.0108,44.0824 L26.5598,21.3214 L21.8028,21.3214 L35.8268,43.6464 C36.7358,43.9854 37.8118,44.0564 39.0108,44.0824" id="Fill-20" fill="#EAE3C3"></path>
            <path d="M19.6221,18.6778 C21.7651,22.8218 30.2821,22.6738 38.6471,18.3488 C47.0111,14.0228 52.0541,7.1578 49.9111,3.0138 C47.7681,-1.1302 39.2501,-0.9822 30.8861,3.3428 C22.5221,7.6688 17.4791,14.5338 19.6221,18.6778" id="Fill-22" fill="#EAE3C3"></path>
            <path d="M30.1479,14.5266 C30.8019,15.7906 33.3989,15.7456 35.9499,14.4266 C38.5009,13.1066 40.0389,11.0136 39.3849,9.7496 C38.7319,8.4856 36.1339,8.5306 33.5829,9.8496 C31.0329,11.1686 29.4939,13.2626 30.1479,14.5266" id="Fill-24" fill="#8C7D6B"></path>
            <path d="M34.8754,11.1421 C32.6384,12.2991 31.1824,14.0511 31.2974,15.3171 C32.4494,15.6201 34.2024,15.3301 35.9504,14.4261 C38.1864,13.2691 39.6434,11.5171 39.5274,10.2511 C38.3764,9.9481 36.6224,10.2391 34.8754,11.1421" id="Fill-26" fill="#665B4F"></path>
            <path d="M11.8404,5.4297 L7.4234,29.1877 L0.0004,14.0597 C0.0004,14.0597 3.5854,9.0227 11.8404,5.4297" id="Fill-28" fill="#FFFFFF"></path>
            <path d="M2.3384,18.8254 C2.3384,18.8254 11.5564,14.0554 10.2914,17.3094 C9.0264,20.5624 2.8234,20.4004 8.6514,22.5814 C14.4804,24.7624 7.4234,29.1884 7.4234,29.1884 L2.3384,18.8254 Z" id="Fill-30" fill="#A67C52"></path>
            <path d="M9.4914,33.1458 C9.4914,33.1458 20.9414,31.9518 12.3264,38.2108 C10.7834,35.5938 9.4914,33.1458 9.4914,33.1458" id="Fill-32" fill="#A67C52"></path>
        </g>
    </g>
</svg>