<svg xmlns="http://www.w3.org/2000/svg" xmlns:xlink="http://www.w3.org/1999/xlink" width="130" height="85" viewBox="0 0 130 85">
  <defs>
    <polygon id="ipapel-sucio-a" points="0 0 76 0 76 2 0 2"/>
  </defs>
  <g fill="none" fill-rule="evenodd">
    <rect width="85" height="85" x="26" fill="#8E968B" fill-rule="nonzero" rx="8"/>
    <g transform="translate(31 23)">
      <g transform="translate(0 37)">
        <mask id="ipapel-sucio-b" fill="#fff">
          <use xlink:href="#ipapel-sucio-a"/>
        </mask>
        <path fill="#000" d="M0,1 C0,1.55211558 17.0128579,2 38,2 C58.9864529,2 76,1.55211558 76,1 C76,0.447884417 58.9864529,0 38,0 C17.0128579,0 0,0.447884417 0,1" mask="url(#ipapel-sucio-b)"/>
      </g>
      <path fill="#C69C6D" d="M5,31 L69,31 L69,36.5689191 C69,36.8068757 68.1037677,37 66.9972462,37 L7.00275379,37 C5.89623232,37 5,36.8068757 5,36.5689191 L5,31 Z"/>
      <path fill="#DDB287" d="M6.02172049,31 L29.9782795,31 C30.5430123,31 31,31.1060459 31,31.2370945 L31,36.7629055 C31,36.8937385 30.5430123,37 29.9782795,37 L6.85024293,37 C5.82852243,37 5,36.8077379 5,36.5706434 L5,31.2370945 C5,31.1060459 5.45791655,31 6.02172049,31"/>
      <polygon fill="#A0815F" points="44.815 0 21 0 43.918 32 69 31.762"/>
      <path fill="#E8502D" d="M50.3150573,22.2417071 C50.8977168,22.5265565 51.5090789,23.8625823 50.3150573,23.9956616 C49.1210356,24.1287408 48.0781802,21.1479154 50.3150573,22.2417071"/>
      <path fill="#E8502D" d="M29.4746345,14.328834 C29.4746345,14.328834 25.6714462,12.2294441 27.5435722,10.8467583 C29.4163738,9.46473453 23.8484229,5.38605731 28.2667363,4.40706188 L32.3133153,8.39448693 L29.4746345,14.328834 Z" transform="rotate(120 29.415 9.368)"/>
      <path fill="#F7931E" d="M40.3456246,14.2583784 C40.3456246,14.2583784 37.6668853,8.50307473 41.4568223,8.45984346 C45.2472366,8.41710547 46.0781703,10.6114919 45.8566917,8.39058788 C45.6356914,6.16968285 45.7941352,4.78085697 47.1730641,4.83177534 L48.5519919,4.88318801 C48.5519919,4.88318801 44.898068,14.6410788 45.1257613,16.4185833 C42.6081118,13.6069783 40.3456246,14.2583784 40.3456246,14.2583784" transform="rotate(-53 43.99 10.625)"/>
      <polygon fill="#736357" points="42 3 42 3.641 62.363 31 63 31"/>
      <polygon fill="#736357" points="18 3 18 3.641 38.363 31 39 31"/>
      <polygon fill="#DDB287" points="68 31 44.163 0 41 3.483 62.32 31"/>
      <polygon fill="#DDB287" points="44 31 20.163 0 17 3.483 38.32 31"/>
      <path fill="#E8502D" fill-opacity=".801" d="M25.2965673,12.0016263 C25.2965673,12.0016263 25.0479492,9.66584713 26.3852877,8.74635072 C27.7231097,7.82729573 25.660346,7.44714932 28.8185323,6.79840534 L29.9558518,6.99768448 L25.2965673,12.0016263 Z" transform="rotate(-80 27.617 9.4)"/>
      <path fill="#F7931E" d="M47.1053181,34.1443854 C47.1053181,34.1443854 46.8501785,31.8033076 48.1821687,30.8860147 C49.514643,29.9691656 47.4547364,29.5821128 50.6048581,28.9415424 L51.7405714,29.1446093 L47.1053181,34.1443854 Z" transform="rotate(-133 49.413 31.543)"/>
      <path fill="#E8502D" fill-opacity=".587" d="M32,31.0319892 L21,31 L21.1063426,31.1168927 C21.5923865,31.6356645 23.6722598,33.6895006 25.8434208,33.3494818 L26.0297089,33.3143832 C28.5777518,32.7510175 26.7678553,35.607189 30.9899368,32.5953499 L32,31.0319892 Z"/>
      <path fill="#F7931E" d="M39.1035067,28.7647262 C39.4023693,28.373683 40.6687725,26.8873314 39.5399751,26.2289193 C38.4111776,25.5705071 36.5520662,26.4530183 37.0981891,27.3497375 C37.6446704,28.2467796 38.5158154,29.5338962 39.1035067,28.7647262"/>
      <polygon fill="#736357" points="17 3.115 41 3.115 41 3.885 17 3.885"/>
      <polygon fill="#C69C6D" points="20.363 0 44 0 40.864 4 17 4"/>
    </g>
  </g>
</svg>
