<svg xmlns="http://www.w3.org/2000/svg" xmlns:xlink="http://www.w3.org/1999/xlink" width="130" height="85" viewBox="0 0 130 85">
    <defs>
        <path id="prefix__a" d="M0.041 0.093L102.374 0.093 102.374 3 0.041 3z"/>
        <path id="prefix__c" d="M0.243 0.021L53.226 0.021 53.226 55.498 0.243 55.498z"/>
        <path id="prefix__e" d="M0.768 0.894L39.358 0.894 39.358 18.381 0.768 18.381z"/>
    </defs>
    <g fill="none" fill-rule="evenodd">
        <rect width="85" height="85" x="26" fill="#75AAF1" fill-rule="nonzero" rx="8"/>
        <g>
            <path fill="#000" d="M0 63.5c0 .195 7.61.353 17 .353s17-.158 17-.353c0-.195-7.61-.353-17-.353S0 63.305 0 63.5" transform="translate(0 9)"/>
            <path fill="#E6E6E6" d="M3 62.861L22 62.861 22 62.139 3 62.139z" transform="translate(0 9)"/>
            <path fill="#E6E6E6" d="M4 62.861L23 62.861 23 62.139 4 62.139zM3 61.861L22 61.861 22 61.139 3 61.139zM3 59.861L22 59.861 22 59.139 3 59.139z" transform="translate(0 9)"/>
            <path fill="#FFF" d="M3 59.861L22 59.861 22 59.139 3 59.139z" transform="translate(0 9)"/>
            <path fill="#E6E6E6" d="M3 58.86L22 58.86 22 58.14 3 58.14z" transform="translate(0 9)"/>
            <path fill="#FFF" d="M2 58.861L21 58.861 21 58.139 2 58.139z" transform="translate(0 9)"/>
            <path fill="#E6E6E6" d="M3 57.861L22 57.861 22 57.139 3 57.139z" transform="translate(0 9)"/>
            <path fill="#FFF" d="M3 57.861L22 57.861 22 57.139 3 57.139z" transform="translate(0 9)"/>
            <g transform="translate(0 9) translate(13 62)">
                <mask id="prefix__b" fill="#fff">
                    <use xlink:href="#prefix__a"/>
                </mask>
                <path fill="#000" d="M.04 1.547C.04 2.349 22.949 3 51.209 3c28.258 0 51.166-.65 51.166-1.453S79.466.093 51.208.093C22.948.093.04.744.04 1.547" mask="url(#prefix__b)"/>
            </g>
            <path fill="#FFF2E1" d="M21 24L30.236 62 54 62 45.24 24z" transform="translate(0 9)"/>
            <path fill="#C6B29E" d="M19 26L28.516 64 53 64 43.975 26z" transform="translate(0 9)"/>
            <path fill="#C6B29E" d="M19 27L28.516 64 53 64 43.975 27z" transform="translate(0 9)"/>
            <path fill="#E5D8CA" d="M20 24L29.236 62 53 62 44.24 24z" transform="translate(0 9)"/>
            <path fill="#EFE1D0" d="M21 24L30.236 62 54 62 45.24 24z" transform="translate(0 9)"/>
            <path fill="#FFF2E1" d="M22 24L31.236 62 55 62 46.24 24z" transform="translate(0 9)"/>
            <g>
                <path fill="#C69C6D" d="M4.917 38.952h59.09v23.282c0 .995-.827 1.803-1.85 1.803H6.768c-1.022 0-1.85-.808-1.85-1.803V38.952z" transform="translate(0 9) translate(15)"/>
                <path fill="#DDB287" d="M5.934 38.952H29.78c.562 0 1.017.443 1.017.991v23.102c0 .547-.455.992-1.017.992H6.76c-1.018 0-1.843-.804-1.843-1.795V39.943c0-.548.456-.991 1.017-.991" transform="translate(0 9) translate(15)"/>
                <path fill="#A0815F" d="M4.971 53.028L4.971 58.434 28.085 58.434 30.859 47.735 30.859 38.952z" transform="translate(0 9) translate(15)"/>
                <path fill="#DDB287" d="M5.843 38.825L31.722 38.825 27.318 53.149 1.438 53.149z" transform="translate(0 9) translate(15)"/>
                <path fill="#736357" d="M4.629 39.854L30.508 39.854 26.4 52.376 27.318 53.276 1.439 53.276 0.52 52.377z" transform="translate(0 9) translate(15)"/>
                <path fill="#C69C6D" d="M4.917 38.952L30.797 38.952 26.393 52.374 0.513 52.374z" transform="translate(0 9) translate(15)"/>
                <path fill="#A0815F" d="M64.008 38.825L30.797 38.925 30.859 47.708 34.509 58.145 65.203 57.863z" transform="translate(0 9) translate(15)"/>
                <path fill="#C69C6D" d="M57.431 38.825L31.553 39.12 35.914 53.184 61.792 53.072z" transform="translate(0 9) translate(15)"/>
                <path fill="#736357" d="M37.807 51.85L35.913 53.184 63.218 53.028 62.829 51.928z" transform="translate(0 9) translate(15)"/>
                <path fill="#DDB287" d="M58.356 38.825L32.478 39.12 37.042 52.491 62.92 52.197z" transform="translate(0 9) translate(15)"/>
                <path fill="#D8CA8B" d="M79.928.462L84.857 9.964 77.957 10.069zM44.38 26.162s10.35 14.412 11.274 16.213c.925 1.801 1.84 4.233 1.84 4.233l3.875 2.612v5.044s-.178.202.747 1.104c.923.9.86 1.355 1.6 1.355.738 0 .461.423.461.423l.318 1.441s-.518 1.082.775 2.162c1.295 1.081 7.575 3.783 7.575 3.783l1.477-19.185-12.938-23.689-17.004 4.504z" transform="translate(0 9) translate(15)"/>
                <path fill="#C4B36A" d="M58.356 35.71c-.116-.308 4.56 9.067 4.56 9.067l-10.958-11.65 5.007.666 1.391 1.916zM61.199 54.264L67.839 53.184 63.672 56.723zM64.358 58.434L70.545 54.82 69.184 58.434z" transform="translate(0 9) translate(15)"/>
                <path fill="#A09773" d="M79.928.462l-1.971 9.607c10.349-.24 11.335-1.031 11.335-1.031-4.19 3.842-29.325 22.167-34.5 24.09l3.696-8.648-14.108 1.682C54.422 20.397 79.928.462 79.928.462" transform="translate(0 9) translate(15)"/>
                <g transform="translate(0 9) translate(15) translate(54.548 9.011)">
                    <mask id="prefix__d" fill="#fff">
                        <use xlink:href="#prefix__c"/>
                    </mask>
                    <path fill="#EFE5AF" d="M53.226 35.345s-2.474-2.43-6.096-3.895c4.814-1.201 4.798-3.654 3.024-3.654h-2.28s1.188-1.36.285-1.27c-.903.09-2.138.401-2.138.401.475-1.756-.094-2.726-.475-3.627-.38-.9-4.893-9.402-5.462-9.582C37.614 12.097 34.744.02 34.744.02L.244 24.113s3.736 3.124 3.927 3.844c.19.721 3.04 6.213 3.04 6.213l3.99 5.498s-1.9 4.684-.76 4.684 3.42-.709 2.85-.348c-.57.36-.95.914.19.914h2.47l-1.393 3.77s2.153 6.57 4.244 6.75c2.09.179 13.554 1.164 34.424-20.093" mask="url(#prefix__d)"/>
                </g>
                <g transform="translate(0 9) translate(15) translate(68.416 39.65)">
                    <mask id="prefix__f" fill="#fff">
                        <use xlink:href="#prefix__e"/>
                    </mask>
                    <path fill="#DDCF97" d="M0.768 18.381L39.358 4.707 33.262 0.894 2.129 14.767z" mask="url(#prefix__f)"/>
                </g>
                <path fill="#C9B875" d="M101.678 40.543L75.841 52.057 105.758 43.095zM98.35 36.813L65.749 48.679 101.702 37.257z" transform="translate(0 9) translate(15)"/>
                <path fill="#DDCF97" d="M93.103 22.874L59.351 35.59l2.033 4.624 36.78-10.808-4.067-5.584s1.248-.902-.994-.947" transform="translate(0 9) translate(15)"/>
                <path fill="#C9B875" d="M77.956 10.069L80.972 14.847 89.292 9.037zM58.488 24.481L61.019 28.78 54.792 33.128z" transform="translate(0 9) translate(15)"/>
                <path fill="#C4B36A" d="M65.75 48.68c-.117-.308-4.551.54-4.551.54l-3.79-2.612 6.949.155 1.391 1.917z" transform="translate(0 9) translate(15)"/>
                <path fill="#FFF2E1" d="M38.168 1.438s-3.113 14.565-2.18 16.385c11.831 1.214 22.727 4.855 24.284 4.855 1.868-6.371 3.735-15.475 3.735-15.475-10.584-2.427-18.056-4.551-25.84-5.765" transform="translate(0 9) translate(15)"/>
                <path fill="#D3D2C1" d="M64.007 7.203l-14.096 4.855S37.549 1.195 38.066 1.923c.517.729 11.845 11.855 11.845 11.855l13.727-4.825.37-1.75z" transform="translate(0 9) translate(15)"/>
                <path stroke="#998675" d="M10.519 29.148L22.538 29.148M10.519 31.851L29.934 31.851M11.443 33.653L27.16 33.653M12.368 35.456L30.859 35.456M12.368 37.258L30.859 37.258" transform="translate(0 9) translate(15)"/>
                <path fill="#FBB03B" d="M53.407 14.847c.257.183 5.535 1.46 5.535 1.46s-.694 2.478-.752 2.816c-1.502-.451-4.723-1.175-5.432-1.465-.172-.338.65-2.811.65-2.811" transform="translate(0 9) translate(15)"/>
            </g>
        </g>
    </g>
</svg>
