<?xml version="1.0" encoding="UTF-8"?>
<svg width="130px" height="85px" viewBox="0 0 130 85" version="1.1" xmlns="http://www.w3.org/2000/svg" xmlns:xlink="http://www.w3.org/1999/xlink">
    <!-- Generator: Sketch 64 (93537) - https://sketch.com -->
    <title>ipeligrosos</title>
    <desc>Created with Sketch.</desc>
    <defs>
        <rect id="path-1" x="0" y="0" width="169" height="85"></rect>
        <polygon id="path-3" points="0.8523 0.954 14.8703 0.954 14.8703 14.9718 0.8523 14.9718"></polygon>
        <polygon id="path-5" points="0 0.44281739 49.1729 0.44281739 49.1729 30.9017053 0 30.9017053"></polygon>
        <polygon id="path-7" points="0.75 0.6378 91.312 0.6378 91.312 4.9998 0.75 4.9998"></polygon>
        <polygon id="path-9" points="0.000316666667 0.199376471 76.0003167 0.199376471 76.0003167 36 0.000316666667 36"></polygon>
        <polygon id="path-11" points="0.000316666667 0.199376471 76 0.199376471 76 36 0.000316666667 36"></polygon>
    </defs>
    <g id="ipeligrosos" stroke="none" stroke-width="1" fill="none" fill-rule="evenodd">
        <mask id="mask-2" fill="white">
            <use xlink:href="#path-1"></use>
        </mask>
        <g id="Mask" fill-rule="nonzero"></g>
        <g id="Group-2" mask="url(#mask-2)">
            <g transform="translate(42.000000, -0.953800)">
                <path d="M35.1541,23.0948 L28.4791,16.4198 L5.9341,38.9648 C4.6161,40.2828 4.6161,42.4198 5.9341,43.7378 L7.8361,45.6398 C9.1541,46.9578 11.2911,46.9578 12.6091,45.6398 L35.1541,23.0948 Z" id="Fill-1" stroke="none" fill="#FFFFFF" fill-rule="evenodd"></path>
                <path d="M35.1541,23.0948 L28.4791,16.4198 L23.5791,21.3198 C22.2611,22.6378 22.2611,24.7748 23.5791,26.0928 L25.4811,27.9948 C26.7991,29.3128 28.9361,29.3128 30.2541,27.9948 L35.1541,23.0948 Z" id="Fill-3" stroke="none" fill="#F2F2F2" fill-rule="evenodd"></path>
                <path d="M34.5183,22.459 L32.3763,20.317 L7.4443,45.249 L8.0553,45.859 C8.9013,46.705 10.2723,46.705 11.1183,45.859 L34.5183,22.459 Z" id="Fill-5" stroke="none" fill="#E6E6E6" fill-rule="evenodd"></path>
                <polygon id="Fill-7" stroke="none" fill="#7FCDEE" fill-rule="evenodd" points="45.0531 10.9734 40.6011 6.5214 32.8271 14.2944 37.2791 18.7474"></polygon>
                <path d="M45.6186,11.3586 L43.4766,9.2166 L34.2886,18.4046 L34.8986,19.0156 C35.7446,19.8606 37.1166,19.8606 37.9616,19.0156 L45.6186,11.3586 Z" id="Fill-9" stroke="none" fill="#29ABE2" fill-rule="evenodd"></path>
                <g id="Group-13" stroke="none" stroke-width="1" fill="none" fill-rule="evenodd" transform="translate(35.750200, 0.000000)">
                    <mask id="mask-4" fill="white">
                        <use xlink:href="#path-3"></use>
                    </mask>
                    <g id="Clip-12"></g>
                    <path d="M13.0688,14.7393 L1.0848,2.7553 C0.7748,2.4453 0.7748,1.9433 1.0848,1.6333 L1.5318,1.1863 C1.8418,0.8763 2.3438,0.8763 2.6538,1.1863 L14.6378,13.1703 C14.9478,13.4803 14.9478,13.9823 14.6378,14.2923 L14.1908,14.7393 C13.8808,15.0493 13.3788,15.0493 13.0688,14.7393" id="Fill-11" fill="#29ABE2" mask="url(#mask-4)"></path>
                </g>
                <line x1="6.885" y1="44.6891" x2="1.10134124e-13" y2="51.5741" id="Stroke-14" stroke="#FFFFFF" stroke-width="1.398" fill="none"></line>
                <path d="M36.9324,24.8731 L26.7014,14.6421 C26.4684,14.4091 26.4684,14.0331 26.7014,13.8011 L29.0344,11.4671 C29.2664,11.2351 29.6434,11.2351 29.8754,11.4671 L40.1064,21.6991 C40.3384,21.9311 40.3384,22.3071 40.1064,22.5391 L37.7724,24.8731 C37.5404,25.1051 37.1644,25.1051 36.9324,24.8731" id="Fill-16" stroke="none" fill="#29ABE2" fill-rule="evenodd"></path>
                <polygon id="Fill-18" stroke="none" fill="#297691" fill-rule="evenodd" points="40.5573 16.42 34.2613 12.861 32.8273 14.295 37.7543 19.223"></polygon>
            </g>
        </g>
        <g id="Group-4" mask="url(#mask-2)">
            <g transform="translate(3.000000, 10.046200)">
                <path d="M26.2095,2.9209 C26.2095,2.9209 40.4105,6.1619 44.9915,8.5729 L49.5725,10.9839 C49.5725,10.9839 26.8075,34.3529 24.1385,33.2959 C21.4705,32.2399 3.7335,25.5239 0.6725,24.6079 C-2.3885,23.6919 21.2035,1.6989 26.2095,2.9209" id="Fill-23" stroke="none" fill-opacity="0.7" fill="#FFFFFF" fill-rule="evenodd"></path>
                <g id="Group-22" opacity="0.7" stroke="none" stroke-width="1" fill="none" fill-rule="evenodd">
                    <mask id="mask-6" fill="white">
                        <use xlink:href="#path-5"></use>
                    </mask>
                    <g id="Clip-21"></g>
                    <path d="M25.8099,0.4919 C25.8099,0.4919 40.0109,3.7329 44.5919,6.1439 L49.1729,8.5549 C49.1729,8.5549 26.4079,31.9239 23.7389,30.8669 C21.0709,29.8109 3.3339,23.0949 0.2729,22.1789 C-2.7881,21.2629 20.8039,-0.7301 25.8099,0.4919" id="Fill-20" fill="#FFFFFF" mask="url(#mask-6)"></path>
                </g>
                <line x1="33.7173" y1="8.1401" x2="41.1873" y2="10.6131" id="Stroke-25" stroke="#B3B3B3" stroke-width="0.308" fill="none"></line>
                <line x1="32.6179" y1="9.4896" x2="40.0879" y2="11.9626" id="Stroke-27" stroke="#B3B3B3" stroke-width="0.308" fill="none"></line>
                <line x1="40.289" y1="9.1403" x2="36.432" y2="13.3153" id="Stroke-29" stroke="#B3B3B3" stroke-width="0.308" fill="none"></line>
                <line x1="37.3081" y1="7.9167" x2="33.4511" y2="12.0917" id="Stroke-31" stroke="#B3B3B3" stroke-width="0.308" fill="none"></line>
                <line x1="9.1013" y1="16.7556" x2="16.5713" y2="19.2286" id="Stroke-33" stroke="#B3B3B3" stroke-width="0.308" fill="none"></line>
                <line x1="8.002" y1="18.1052" x2="15.472" y2="20.5782" id="Stroke-35" stroke="#B3B3B3" stroke-width="0.308" fill="none"></line>
                <line x1="15.673" y1="17.7559" x2="11.816" y2="21.9309" id="Stroke-37" stroke="#B3B3B3" stroke-width="0.308" fill="none"></line>
                <line x1="12.6922" y1="16.5323" x2="8.8352" y2="20.7073" id="Stroke-39" stroke="#B3B3B3" stroke-width="0.308" fill="none"></line>
            </g>
        </g>
        <g id="Group-3" mask="url(#mask-2)">
            <g transform="translate(11.752606, 58.401613)">
                <path d="M6.82739423,0.138587132 C6.82739423,0.138587132 21.1463942,6.01958713 25.1963942,8.35258713 C29.0263942,10.5595871 25.1963942,15.0825871 19.8673942,13.2655871 C16.5123942,12.1215871 3.56739423,6.83158713 0.584394226,4.68358713 C-1.69260577,3.04458713 3.16939423,-0.772412868 6.82739423,0.138587132" id="Fill-41" fill="#FBB03B"></path>
                <polygon id="Fill-43" fill="#E59933" points="24.1372942 7.78068713 14.7392942 11.5146871 20.3472942 5.96068713"></polygon>
                <path d="M20.9541942,6.24028713 C20.4531942,6.63028713 15.8851942,10.6982871 15.5971942,11.7482871 C12.5371942,11.0592871 6.17019423,7.83328713 6.20619423,7.90228713 C6.47819423,8.43328713 9.72219423,2.48928713 11.4951942,2.38428713 C12.9921942,2.29528713 18.9141942,4.81328713 20.6601942,5.69228713 C20.9841942,5.85528713 20.9541942,6.24028713 20.9541942,6.24028713" id="Fill-45" fill="#D38926"></path>
                <path d="M20.6603942,5.69268713 C20.1593942,6.08268713 15.4593942,10.3986871 15.1713942,11.4486871 C12.0753942,11.5066871 5.81239423,7.81568713 5.73839423,7.78968713 C5.72539423,7.78468713 5.62539423,7.39568713 5.73739423,7.06568713 C6.62039423,4.47468713 9.82839423,2.09068713 11.6003942,2.13468713 C13.1723942,1.62868713 20.6603942,5.69268713 20.6603942,5.69268713" id="Fill-47" fill="#FFC77D"></path>
            </g>
        </g>
        <g id="Group" mask="url(#mask-2)">
            <g transform="translate(38.000000, 38.000000)">
                <g id="Group-51" transform="translate(0.000000, 33.046200)">
                    <mask id="mask-8" fill="white">
                        <use xlink:href="#path-7"></use>
                    </mask>
                    <g id="Clip-50"></g>
                    <path d="M0.75,2.8188 C0.75,4.0238 21.023,4.9998 46.031,4.9998 C71.039,4.9998 91.313,4.0238 91.313,2.8188 C91.313,1.6138 71.039,0.6378 46.031,0.6378 C21.023,0.6378 0.75,1.6138 0.75,2.8188" id="Fill-49" fill="#C13E3E" mask="url(#mask-8)"></path>
                </g>
                <g id="Group-45" transform="translate(8.000000, 0.000000)">
                    <path d="M74,34.5 C74,35.3284005 71.3134807,36 68,36 C64.6865193,36 62,35.3284005 62,34.5 C62,33.6715995 64.6865193,33 68,33 C71.3134807,33 74,33.6715995 74,34.5" id="Fill-1" fill="#FFFFFF"></path>
                    <g id="Group-5">
                        <mask id="mask-10" fill="white">
                            <use xlink:href="#path-9"></use>
                        </mask>
                        <g id="Clip-4"></g>
                        <path d="M72.0747056,32.7370235 C72.2963722,32.1642 72.4293722,31.5469059 72.4293722,30.8946706 C72.4293722,29.0311412 71.4234278,27.4174941 69.93615,26.5259647 C70.02165,26.0389059 70.0807611,25.5444353 70.0807611,25.0393765 C70.0807611,24.0313765 69.8918167,23.0583176 69.56565,22.1318471 C71.9659833,21.9169059 73.7087056,21.2805529 73.7087056,20.5277294 C73.7087056,19.5980824 71.0582056,18.8452588 67.78915,18.8452588 C67.7332056,18.8452588 67.6783167,18.8473765 67.6234278,18.8484353 C65.5587611,16.4978471 62.3519833,14.8132588 58.6279833,14.2722 C58.3588167,11.7066706 56.2202611,9.7002 53.5919278,9.7002 C52.9153167,9.7002 52.2724833,9.83890588 51.6824278,10.0792588 C50.9129278,8.46878824 49.7475944,7.01714118 48.2592611,5.81537647 C49.7898167,5.51149412 50.79365,5.00855294 50.79365,4.43784706 C50.79365,3.68608235 49.0614833,3.05078824 46.67065,2.83478824 C46.2874833,1.32490588 44.8645944,0.199376471 43.15565,0.199376471 C41.6314278,0.199376471 40.3320389,1.09408235 39.7968722,2.35937647 C39.02315,2.26302353 38.2357056,2.19737647 37.42715,2.19737647 C34.6077611,2.19737647 31.9762611,2.82102353 29.7099833,3.89043529 C28.8792611,2.10843529 27.0077611,0.8622 24.8238167,0.8622 C21.8714278,0.8622 19.4774278,3.13443529 19.4774278,5.9382 C19.4774278,7.5222 20.2585389,8.91984706 21.4565944,9.85055294 C19.5967056,10.1343176 18.3310944,10.6912588 18.3310944,11.3329059 C18.3310944,12.0656118 19.9830389,12.6871412 22.28415,12.9169059 C22.2049833,13.4230235 22.15115,13.9354941 22.15115,14.4596118 C22.15115,16.5783176 22.8214278,18.5720824 24.0004833,20.3117294 C23.0029833,20.8962 22.1659278,21.5442 21.4755944,22.2334941 C17.2153722,22.4103176 13.5979833,23.9519647 11.8404833,26.1299647 C11.2820944,25.9192588 10.68465,25.7900824 10.0544833,25.7900824 C7.24353889,25.7900824 4.96459444,28.0750235 4.96459444,30.8946706 C4.96459444,31.5130235 5.09126111,32.0985529 5.29181667,32.6470235 C2.31831667,32.7359647 0.000316666667,33.4496118 0.000316666667,34.3189059 C0.000316666667,35.2474941 2.64976111,36.0003176 5.91987222,36.0003176 C6.93320556,36.0003176 7.88531667,35.9272588 8.71920556,35.8002 C9.14776111,35.9166706 9.58898333,36.0003176 10.0544833,36.0003176 C11.7043167,36.0003176 13.1567611,35.1987882 14.0867056,33.9769059 C16.1862056,35.2273765 19.0879278,36.0003176 22.29365,36.0003176 C24.8787056,36.0003176 27.2579278,35.4910235 29.1874833,34.6418471 C32.1599278,35.4984353 35.6232056,36.0003176 39.33665,36.0003176 C42.9973167,36.0003176 46.4152056,35.5132588 49.35915,34.6789059 C51.3467611,35.5217294 53.62465,36.0003176 56.0450389,36.0003176 C58.8137611,36.0003176 61.3872056,35.3650235 63.56165,34.2850235 C64.4937056,35.3300824 65.8332056,36.0003176 67.3405389,36.0003176 C67.63715,36.0003176 67.9232056,35.9611412 68.2060944,35.9124353 C68.79615,35.9685529 69.4242056,36.0003176 70.0807611,36.0003176 C73.3498167,36.0003176 76.0003167,35.2474941 76.0003167,34.3189059 C76.0003167,33.5893765 74.3610389,32.9699647 72.0747056,32.7370235" id="Fill-3" fill="#FFFFFF" mask="url(#mask-10)"></path>
                    </g>
                    <g id="Group-8" transform="translate(2.000000, 0.000000)">
                        <mask id="mask-12" fill="white">
                            <use xlink:href="#path-11"></use>
                        </mask>
                        <g id="Clip-7"></g>
                        <path d="M72.0747056,32.7370235 C72.2963722,32.1642 72.4293722,31.5469059 72.4293722,30.8946706 C72.4293722,29.0311412 71.4234278,27.4174941 69.93615,26.5259647 C70.02165,26.0389059 70.0807611,25.5444353 70.0807611,25.0393765 C70.0807611,24.0313765 69.8918167,23.0583176 69.56565,22.1318471 C71.9659833,21.9169059 73.7087056,21.2805529 73.7087056,20.5277294 C73.7087056,19.5980824 71.0582056,18.8452588 67.78915,18.8452588 C67.7332056,18.8452588 67.6783167,18.8473765 67.6234278,18.8484353 C65.5587611,16.4978471 62.3519833,14.8132588 58.6279833,14.2722 C58.3588167,11.7066706 56.2202611,9.7002 53.5919278,9.7002 C52.9153167,9.7002 52.2724833,9.83890588 51.6824278,10.0792588 C50.9129278,8.46878824 49.7475944,7.01714118 48.2592611,5.81537647 C49.7898167,5.51149412 50.79365,5.00855294 50.79365,4.43784706 C50.79365,3.68608235 49.0614833,3.05078824 46.67065,2.83478824 C46.2874833,1.32490588 44.8645944,0.199376471 43.15565,0.199376471 C41.6314278,0.199376471 40.3320389,1.09408235 39.7968722,2.35937647 C39.02315,2.26302353 38.2357056,2.19737647 37.42715,2.19737647 C34.6077611,2.19737647 31.9762611,2.82102353 29.7099833,3.89043529 C28.8792611,2.10843529 27.0077611,0.8622 24.8238167,0.8622 C21.8714278,0.8622 19.4774278,3.13443529 19.4774278,5.9382 C19.4774278,7.5222 20.2585389,8.91984706 21.4565944,9.85055294 C19.5967056,10.1343176 18.3310944,10.6912588 18.3310944,11.3329059 C18.3310944,12.0656118 19.9830389,12.6871412 22.28415,12.9169059 C22.2049833,13.4230235 22.15115,13.9354941 22.15115,14.4596118 C22.15115,16.5783176 22.8214278,18.5720824 24.0004833,20.3117294 C23.0029833,20.8962 22.1659278,21.5442 21.4755944,22.2334941 C17.2153722,22.4103176 13.5979833,23.9519647 11.8404833,26.1299647 C11.2820944,25.9192588 10.68465,25.7900824 10.0544833,25.7900824 C7.24353889,25.7900824 4.96459444,28.0750235 4.96459444,30.8946706 C4.96459444,31.5130235 5.09126111,32.0985529 5.29181667,32.6470235 C2.31831667,32.7359647 0.000316666667,33.4496118 0.000316666667,34.3189059 C0.000316666667,35.2474941 2.64976111,36.0003176 5.91987222,36.0003176 C6.93320556,36.0003176 7.88531667,35.9272588 8.71920556,35.8002 C9.14776111,35.9166706 9.58898333,36.0003176 10.0544833,36.0003176 C11.7043167,36.0003176 13.1567611,35.1987882 14.0867056,33.9769059 C16.1862056,35.2273765 19.0879278,36.0003176 22.29365,36.0003176 C24.8787056,36.0003176 27.2579278,35.4910235 29.1874833,34.6418471 C32.1599278,35.4984353 35.6232056,36.0003176 39.33665,36.0003176 C42.9973167,36.0003176 46.4152056,35.5132588 49.35915,34.6789059 C51.3467611,35.5217294 53.62465,36.0003176 56.0450389,36.0003176 C58.8137611,36.0003176 61.3872056,35.3650235 63.56165,34.2850235 C64.4937056,35.3300824 65.8332056,36.0003176 67.3405389,36.0003176 C67.63715,36.0003176 67.9232056,35.9611412 68.2060944,35.9124353 C68.79615,35.9685529 69.4242056,36.0003176 70.0807611,36.0003176 C73.3498167,36.0003176 76.0003167,35.2474941 76.0003167,34.3189059 C76.0003167,33.5893765 74.3610389,32.9699647 72.0747056,32.7370235" id="Fill-6" fill="#F2F2F2" mask="url(#mask-12)"></path>
                    </g>
                    <path d="M40,13 C40,15.761194 42.9100065,18 46.5,18 C50.0899935,18 53,15.761194 53,13 C53,10.238806 50.0899935,8 46.5,8 C42.9100065,8 40,10.238806 40,13" id="Fill-9" fill="#FFFFFF"></path>
                    <path d="M41,17 C41,19.761194 43.9100065,22 47.5,22 C51.0899935,22 54,19.761194 54,17 C54,14.238806 51.0899935,12 47.5,12 C43.9100065,12 41,14.238806 41,17" id="Fill-11" fill="#FFFFFF"></path>
                    <path d="M44,15 C44,18.3132859 41.3141347,21 37.9994532,21 C34.6858653,21 32,18.3132859 32,15 C32,11.6867141 34.6858653,9 37.9994532,9 C41.3141347,9 44,11.6867141 44,15" id="Fill-13" fill="#F2F2F2"></path>
                    <path d="M42,15 C42,18.3132859 39.3141347,21 35.9994532,21 C32.6858653,21 30,18.3132859 30,15 C30,11.6867141 32.6858653,9 35.9994532,9 C39.3141347,9 42,11.6867141 42,15" id="Fill-15" fill="#FFFFFF"></path>
                    <path d="M49,20 C49,23.3132859 46.3141347,26 42.9994532,26 C39.6858653,26 37,23.3132859 37,20 C37,16.6867141 39.6858653,14 42.9994532,14 C46.3141347,14 49,16.6867141 49,20" id="Fill-17" fill="#F2F2F2"></path>
                    <path d="M46,20 C46,23.3132859 43.3141347,26 39.9994532,26 C36.6858653,26 34,23.3132859 34,20 C34,16.6867141 36.6858653,14 39.9994532,14 C43.3141347,14 46,16.6867141 46,20" id="Fill-19" fill="#FFFFFF"></path>
                    <path d="M61.6222855,22.9097608 C62.7768071,26.0145094 61.1958997,29.4679956 58.0898431,30.6224373 C54.9848798,31.776879 51.532248,30.1949877 50.3777264,27.0902392 C49.2232049,23.9854906 50.8041123,20.5320044 53.9090756,19.3775627 C57.0151322,18.223121 60.4677639,19.8050123 61.6222855,22.9097608" id="Fill-21" fill="#E6E6E6"></path>
                    <path d="M59.6222855,23.9099044 C60.7768071,27.0147669 59.1958997,30.4683799 56.0898431,31.622864 C52.9848798,32.7762548 49.532248,31.1953988 48.3777264,28.0905362 C47.2232049,24.9856736 48.8041123,21.5320607 51.9090756,20.3775766 C55.0151322,19.2230925 58.4677639,20.8050418 59.6222855,23.9099044" id="Fill-23" fill="#FFFFFF"></path>
                    <path d="M67.6222855,25.9099044 C68.7768071,29.0147669 67.1958997,32.4683799 64.0898431,33.622864 C60.9848798,34.7762548 57.532248,33.1953988 56.3777264,30.0905362 C55.2232049,26.9856736 56.8041123,23.5320607 59.9090756,22.3775766 C63.0151322,21.2230925 66.4677639,22.8050418 67.6222855,25.9099044" id="Fill-25" fill="#E6E6E6"></path>
                    <path d="M65.6222855,26.9097608 C66.7768071,30.0145094 65.1958997,33.4679956 62.0898431,34.6224373 C58.9848798,35.776879 55.532248,34.1949877 54.3777264,31.0902392 C53.2232049,27.9854906 54.8041123,24.5320044 57.9090756,23.3775627 C61.0151322,22.223121 64.4677639,23.8050123 65.6222855,26.9097608" id="Fill-27" fill="#FFFFFF"></path>
                    <path d="M24.3777145,22.9097608 C23.2231929,26.0145094 24.8041003,29.4679956 27.9101569,30.6224373 C31.0151202,31.776879 34.467752,30.1949877 35.6222736,27.0902392 C36.7767951,23.9854906 35.1958877,20.5320044 32.0909244,19.3775627 C28.9848678,18.223121 25.5322361,19.8050123 24.3777145,22.9097608" id="Fill-29" fill="#E6E6E6"></path>
                    <path d="M26.3777145,23.9097608 C25.2231929,27.0145094 26.8041003,30.4679956 29.9101569,31.6224373 C33.0151202,32.776879 36.467752,31.1949877 37.6222736,28.0902392 C38.7767951,24.9854906 37.1958877,21.5320044 34.0909244,20.3775627 C30.9848678,19.223121 27.5322361,20.8050123 26.3777145,23.9097608" id="Fill-31" fill="#FFFFFF"></path>
                    <path d="M32.3143621,23.9347538 C30.9457563,27.5781311 34.1730908,32.1282406 39.5229065,34.0969391 C44.8716839,36.0656376 50.3180705,34.7086235 51.6856379,31.0652462 C53.0542437,27.4218689 49.8269092,22.8717594 44.4770935,20.9030609 C39.1283161,18.9343624 33.6829679,20.2913765 32.3143621,23.9347538" id="Fill-33" fill="#FFFFFF"></path>
                    <path d="M19,32 C19,33.6572379 21.9105704,35 25.5,35 C29.0894296,35 32,33.6572379 32,32 C32,30.3427621 29.0894296,29 25.5,29 C21.9105704,29 19,30.3427621 19,32" id="Fill-35" fill="#FFFFFF"></path>
                    <path d="M30,32 C30,33.6572379 34.0294503,35 39,35 C43.9705497,35 48,33.6572379 48,32 C48,30.3427621 43.9705497,29 39,29 C34.0294503,29 30,30.3427621 30,32" id="Fill-37" fill="#FFFFFF"></path>
                    <path d="M55,31 C55,32.6572379 59.0294503,34 64,34 C68.9705497,34 73,32.6572379 73,31 C73,29.3427621 68.9705497,28 64,28 C59.0294503,28 55,29.3427621 55,31" id="Fill-39" fill="#FFFFFF"></path>
                    <path d="M48,31 C48,32.6572379 52.0294503,34 57,34 C61.9705497,34 66,32.6572379 66,31 C66,29.3427621 61.9705497,28 57,28 C52.0294503,28 48,29.3427621 48,31" id="Fill-41" fill="#FFFFFF"></path>
                    <path d="M27,8 C27,9.65723794 29.0147765,11 31.4994459,11 C33.9852235,11 36,9.65723794 36,8 C36,6.34276206 33.9852235,5 31.4994459,5 C29.0147765,5 27,6.34276206 27,8" id="Fill-43" fill="#FFFFFF"></path>
                </g>
            </g>
        </g>
    </g>
</svg>