<svg xmlns="http://www.w3.org/2000/svg" width="130" height="85" viewBox="0 0 130 85">
  <g fill="none" fill-rule="evenodd">
    <rect width="85" height="85" x="26" fill="#E04A4A" fill-rule="nonzero" rx="8"/>
    <g transform="translate(40 18)">
      <path fill="#333" d="M1,43.5 C1,44.880289 10.8499362,46 23.0004599,46 C35.1500638,46 45,44.880289 45,43.5 C45,42.119711 35.1500638,41 23.0004599,41 C10.8499362,41 1,42.119711 1,43.5"/>
      <path fill="#333" d="M13,46.5 C13,47.880289 22.8499362,49 35.0004599,49 C47.1500638,49 57,47.880289 57,46.5 C57,45.119711 47.1500638,44 35.0004599,44 C22.8499362,44 13,45.119711 13,46.5"/>
      <g transform="rotate(58 19.01 35.334)">
        <g transform="translate(0 1.812)">
          <path fill="#2968CE" d="M12.0017,0.208025855 L12.0017,40.5970365 C12.0017,41.4758499 11.7331429,42.1878 11.4020243,42.1878 L0.601757221,42.1878 C0.270257078,42.1878 0.0017,41.4758499 0.0017,40.5970365 L0.0017,0.1878"/>
          <path fill="#7699DC" d="M1.23550629,0.451774246 C1.23550629,0.0998085845 0.0017,0.0998085845 0.0017,0.451774246 L0.0017,39.4059738 C0.0017,40.2748891 0.239413346,41.1878 0.596394633,41.1878 L2.0017,41.1878 C1.64430744,41.1878 1.23550629,40.2748891 1.23550629,39.4059738 L1.23550629,0.451774246 Z"/>
          <path fill="#1755AF" d="M9.0017,0.20478917 L9.0017,39.8935125 C9.0017,40.0558106 9.04636667,40.1878 9.1017,40.1878 L10.9013667,40.1878 C10.9567,40.1878 11.0017,40.0558106 11.0017,39.8935125 L11.0017,0.570448689 C11.0017,0.268339621 9.0017,0.138305621 9.0017,0.20478917 Z"/>
          <line x1="6.002" x2="4.002" y1=".688" y2=".688" stroke="#7699DC"/>
          <line x1="2.002" x2="1.002" y1=".688" y2=".688" stroke="#7699DC"/>
        </g>
        <g transform="translate(0 42.076)">
          <path fill="#CCC" d="M10.3301379,1.9237 C10.720754,1.9237 11.7678644,1.69577915 12.0017,1.25067208 L12.0017,-0.0763 L0.0017,-0.0763 L0.0017,1.12565175 C0.229050753,1.63093773 1.15752682,1.9237 1.57980414,1.9237 L10.3301379,1.9237 Z"/>
          <path fill="#999" d="M8.0017,0.9237 C8.0017,0.9237 8.65999737,-0.0239666667 8.72159015,-0.0763 L11.0017,-0.0763 L10.6305741,0.399033333 C10.3747875,0.7267 9.94285339,0.9237 9.47992676,0.9237 L8.0017,0.9237 Z"/>
          <path fill="#FFF" d="M2.0017,1.9237 L1.21998181,-0.0763 L0.0017,-0.0763 L0.557360914,1.19923444 C0.701870681,1.53058836 0.926410791,1.75564774 1.17901841,1.82215606 L2.0017,1.9237 Z"/>
        </g>
        <g transform="matrix(1 0 0 -1 0 3)">
          <path fill="#CCC" d="M10.3301379,1.9237 C10.720754,1.9237 11.7678644,1.69577915 12.0017,1.25067208 L12.0017,-0.0763 L0.0017,-0.0763 L0.0017,1.12565175 C0.229050753,1.63093773 1.15752682,1.9237 1.57980414,1.9237 L10.3301379,1.9237 Z"/>
          <path fill="#999" d="M8.0017,0.9237 C8.0017,0.9237 8.65999737,-0.0239666667 8.72159015,-0.0763 L11.0017,-0.0763 L10.6305741,0.399033333 C10.3747875,0.7267 9.94285339,0.9237 9.47992676,0.9237 L8.0017,0.9237 Z"/>
          <path fill="#FFF" d="M2.0017,1.9237 L1.21998181,-0.0763 L0.0017,-0.0763 L0.557360914,1.19923444 C0.701870681,1.53058836 0.926410791,1.75564774 1.17901841,1.82215606 L2.0017,1.9237 Z"/>
        </g>
        <g transform="matrix(1 0 0 -1 4.002 1)">
          <path fill="#CCC" d="M3.44281264,1 C3.57301799,1 3.9220548,0.886039577 4,0.66348604 L4,5.68434189e-14 L0,5.68434189e-14 L0,0.600975874 C0.0757835845,0.853618867 0.385275606,1 0.526034713,1 L3.44281264,1 Z"/>
          <path fill="#999" d="M2,1 C2,1 2.21943246,0.0523333333 2.23996338,5.68434189e-14 L3,5.68434189e-14 L2.87629136,0.475333333 C2.79102916,0.803 2.64705113,1 2.49274225,1 L2,1 Z"/>
          <path fill="#FFF" d="M1,1 L0.609140907,5.68434189e-14 L0,5.68434189e-14 L0.277830457,0.637767221 C0.35008534,0.803444181 0.462355395,0.915973872 0.588659207,0.949228029 L1,1 Z"/>
        </g>
      </g>
      <g transform="rotate(71 15.794 45.127)">
        <g transform="translate(0 1.812)">
          <path fill="#2968CE" d="M12.0017,0.208025855 L12.0017,40.5970365 C12.0017,41.4758499 11.7331429,42.1878 11.4020243,42.1878 L0.601757221,42.1878 C0.270257078,42.1878 0.0017,41.4758499 0.0017,40.5970365 L0.0017,0.1878"/>
          <path fill="#7699DC" d="M1.23550629,0.451774246 C1.23550629,0.0998085845 0.0017,0.0998085845 0.0017,0.451774246 L0.0017,39.4059738 C0.0017,40.2748891 0.239413346,41.1878 0.596394633,41.1878 L2.0017,41.1878 C1.64430744,41.1878 1.23550629,40.2748891 1.23550629,39.4059738 L1.23550629,0.451774246 Z"/>
          <path fill="#1755AF" d="M9.0017,0.20478917 L9.0017,39.8935125 C9.0017,40.0558106 9.04636667,40.1878 9.1017,40.1878 L10.9013667,40.1878 C10.9567,40.1878 11.0017,40.0558106 11.0017,39.8935125 L11.0017,0.570448689 C11.0017,0.268339621 9.0017,0.138305621 9.0017,0.20478917 Z"/>
          <line x1="6.002" x2="4.002" y1=".688" y2=".688" stroke="#7699DC"/>
          <line x1="2.002" x2="1.002" y1=".688" y2=".688" stroke="#7699DC"/>
        </g>
        <g transform="translate(0 42.076)">
          <path fill="#CCC" d="M10.3301379,1.9237 C10.720754,1.9237 11.7678644,1.69577915 12.0017,1.25067208 L12.0017,-0.0763 L0.0017,-0.0763 L0.0017,1.12565175 C0.229050753,1.63093773 1.15752682,1.9237 1.57980414,1.9237 L10.3301379,1.9237 Z"/>
          <path fill="#999" d="M8.0017,0.9237 C8.0017,0.9237 8.65999737,-0.0239666667 8.72159015,-0.0763 L11.0017,-0.0763 L10.6305741,0.399033333 C10.3747875,0.7267 9.94285339,0.9237 9.47992676,0.9237 L8.0017,0.9237 Z"/>
          <path fill="#FFF" d="M2.0017,1.9237 L1.21998181,-0.0763 L0.0017,-0.0763 L0.557360914,1.19923444 C0.701870681,1.53058836 0.926410791,1.75564774 1.17901841,1.82215606 L2.0017,1.9237 Z"/>
        </g>
        <g transform="matrix(1 0 0 -1 0 3)">
          <path fill="#CCC" d="M10.3301379,1.9237 C10.720754,1.9237 11.7678644,1.69577915 12.0017,1.25067208 L12.0017,-0.0763 L0.0017,-0.0763 L0.0017,1.12565175 C0.229050753,1.63093773 1.15752682,1.9237 1.57980414,1.9237 L10.3301379,1.9237 Z"/>
          <path fill="#999" d="M8.0017,0.9237 C8.0017,0.9237 8.65999737,-0.0239666667 8.72159015,-0.0763 L11.0017,-0.0763 L10.6305741,0.399033333 C10.3747875,0.7267 9.94285339,0.9237 9.47992676,0.9237 L8.0017,0.9237 Z"/>
          <path fill="#FFF" d="M2.0017,1.9237 L1.21998181,-0.0763 L0.0017,-0.0763 L0.557360914,1.19923444 C0.701870681,1.53058836 0.926410791,1.75564774 1.17901841,1.82215606 L2.0017,1.9237 Z"/>
        </g>
        <g transform="matrix(1 0 0 -1 4.002 1)">
          <path fill="#CCC" d="M3.44281264,1 C3.57301799,1 3.9220548,0.886039577 4,0.66348604 L4,5.68434189e-14 L0,5.68434189e-14 L0,0.600975874 C0.0757835845,0.853618867 0.385275606,1 0.526034713,1 L3.44281264,1 Z"/>
          <path fill="#999" d="M2,1 C2,1 2.21943246,0.0523333333 2.23996338,5.68434189e-14 L3,5.68434189e-14 L2.87629136,0.475333333 C2.79102916,0.803 2.64705113,1 2.49274225,1 L2,1 Z"/>
          <path fill="#FFF" d="M1,1 L0.609140907,5.68434189e-14 L0,5.68434189e-14 L0.277830457,0.637767221 C0.35008534,0.803444181 0.462355395,0.915973872 0.588659207,0.949228029 L1,1 Z"/>
        </g>
      </g>
    </g>
  </g>
</svg>
