<svg xmlns="http://www.w3.org/2000/svg" xmlns:xlink="http://www.w3.org/1999/xlink" width="130" height="85" viewBox="0 0 130 85">
    <defs>
        <path id="prefix__a" d="M0.724 0.521L22.399 0.521 22.399 3.5 0.724 3.5z"/>
        <path id="prefix__c" d="M0 71L101 71 101 0 0 0z"/>
    </defs>
    <g fill="none" fill-rule="evenodd">
        <rect width="85" height="85" x="26" fill="#FFCB00" fill-rule="nonzero" rx="8"/>
        <g transform="translate(0 5)">
            <g transform="translate(78 67)">
                <mask id="prefix__b" fill="#fff">
                    <use xlink:href="#prefix__a"/>
                </mask>
                <path fill="#CEAA3A" d="M.724 2.01c0 .823 4.852 1.49 10.837 1.49 5.986 0 10.838-.667 10.838-1.49S17.547.52 11.561.52C5.576.52.724 1.188.724 2.01" mask="url(#prefix__b)"/>
            </g>
            <path fill="#CEAA3A" d="M50 65.5c0 .829 10.521 1.5 23.5 1.5S97 66.329 97 65.5 86.479 64 73.5 64 50 64.671 50 65.5M0 65.5c0 .829 9.626 1.5 21.5 1.5S43 66.329 43 65.5 33.374 64 21.5 64 0 64.671 0 65.5M44 69.5c0 .828 4.253 1.5 9.5 1.5s9.5-.672 9.5-1.5-4.253-1.5-9.5-1.5-9.5.672-9.5 1.5M34 69.5c0 .828 2.015 1.5 4.5 1.5s4.5-.672 4.5-1.5-2.015-1.5-4.5-1.5-4.5.672-4.5 1.5"/>
            <path fill="#E6E6E6" d="M66.327 35.045c.03 1.316-1.035 2.407-2.38 2.437l-2.13.047c-1.345.03-2.459-1.014-2.489-2.33l-.272-11.881c-.03-1.318 1.036-2.409 2.38-2.438l2.13-.046c1.345-.03 2.46 1.014 2.49 2.33l.271 11.88zm20.597 25.821l-.927-40.574c-.15-6.524-9.243-13.839-10.806-15.227C73.628 3.676 74.369 1 74.369 1l-3.622.08-1.09.023-4.292.094s.049 2.66-1.45 4.115c-1.497 1.456-11.062 9.179-10.913 15.703l.963 42.149.038 1.688.007.283c.149 1.957 1.64 2.904 3.455 2.864l11.235-.246c1.098-.025 2.052-.563 2.657-1.367.643.777 1.62 1.273 2.718 1.25l10.472-.23c1.882-.042 2.493-1.434 2.451-3.277l-.038-1.688-.036-1.575z"/>
            <path fill="#FFF" d="M70.327 34.518c.03 1.297-1.035 2.371-2.38 2.4l-2.13.046c-1.345.03-2.459-.998-2.489-2.294l-.272-11.697c-.03-1.297 1.036-2.372 2.38-2.4l2.13-.046c1.345-.029 2.46.998 2.49 2.295l.271 11.696zm20.597 25.423l-.927-39.947c-.15-6.423-9.243-13.625-10.806-14.992C77.628 3.635 78.369 1 78.369 1l-3.622.078-1.09.023-4.292.093s.049 2.618-1.45 4.051c-1.497 1.434-11.062 9.037-10.913 15.46.129 5.562.788 32.998.963 40.532l.038 1.663.007.279c.148 1.926 1.64 2.858 3.455 2.82l11.235-.243c1.098-.023 2.052-.554 2.657-1.346.643.765 1.62 1.254 2.718 1.23l10.472-.226c1.882-.04 2.493-1.41 2.451-3.226l-.038-1.662c-.013-.565-.026-.122-.036-.585z"/>
            <g>
                <path fill="#FFF" fill-opacity=".7" d="M12.234 14.733S11.62 6.243 15.142 4.7c3.52-1.544-3.234 15.65-2.908 10.033m19.132 1.853S33.51 4.39 34.581 4.082c1.071-.308-.918 8.953-1.607 11.269-.689 2.315-2.152 4.15-1.608 1.235M4.733 59.498c5.817 2.16 13.47.617 19.287 1.235 5.816.617 15 0 15.306-8.027.307-8.027-3.061-4.94-3.674-6.174-.611-1.235 4.592-4.013-1.224-6.484.919-4.322 3.368-7.408-.306-11.423-3.674-4.013 1.342-7.55 2.72-15.027 0 0 1.872-9.362-1.495-12.448-3.368-3.088-5.205.617-6.123 6.637-.918 6.02-7.959 16.396-13.776 16.147-5.816-.248 1.836-11.362 2.756-16.302.918-4.94-3.103-6.174-4.92-6.174-1.816 0-6.714 3.143-6.943 19.912-.213 15.512-12.935 25.162-1.608 38.128" transform="translate(2 6)"/>
                <path fill="#88E4ED" d="M12.199 13.828c.01.556.035.905.035.905-.307 5.295 5.675-9.68 3.41-10.115.003 0 .006-.003.009-.004 1.265-.364 2.06-.025 2.554.465.159.716.181 1.556-.004 2.554-.748 4.025-5.967 12.15-4.726 15.153-.192.352.7.819.7.819s-3.073-.95-2.487-4.955c.145-.998.221-2.823.509-4.822M31.248 24.85c-2.11 2.604 0-6.721 0-6.721s.312-4.535 1.523-8.575c-.76 3.363-1.404 7.031-1.404 7.031-.546 2.917.918 1.08 1.607-1.234.688-2.315 2.679-11.578 1.607-11.269-.01.003-.022.015-.032.02l.032-.082c.742-1.805 1.334-1.605 1.91-.892 1.221 4.133-1.145 11.297-1.145 11.297.016.069.027.133.041.2-1.395 4.454-3.116 8.963-4.14 10.226" transform="translate(2 6)"/>
                <path fill="#BBF2FF" d="M15.762 8.355c.376.783.822 1.815 1.192 2.969-1.024 2.442-2.379 5.227-3.121 7.562-.447-.717-.861-1.744-1.209-3.08.758-.522 2.387-4.402 3.138-7.451M31.464 16.046c.213-1.694.611-4.173 1.307-6.493-.585 2.592-1.1 5.357-1.307 6.493M31.367 16.585l.096-.539c-.103.824-.163 1.454-.192 1.796-.042-.23-.022-.627.096-1.257M30.555 21.782c.278-1.816.693-3.653.693-3.653s.007-.107.023-.287c.151.832 1.163-.676 1.703-2.491.43-1.445 1.366-5.594 1.749-8.434.414 1.61.874 3.467 1.262 5.206-.333 1.372-.639 2.302-.639 2.302.016.069.026.133.041.2-1.394 4.455-3.116 8.963-4.14 10.226-.473.584-.733.565-.852.186.037-.894.09-2.004.16-3.255" transform="translate(2 6)"/>
                <path fill="#F2F2F2" d="M32.77 34.483s-5.066 11.434-20.577 9.887c-7.549-.752 3.066 4.722 13.175 2.716 10.11-2.007 11.868-16.47 7.403-12.603M32.77 47.303s-6.804 3.705-14.436 2.47c-7.631-1.235-1.229 3.119 9.866 1.853 11.094-1.267 7.455-5.547 4.57-4.323M19.695 25.125s-5.094 2.827-7.502 1.697c-2.409-1.13-.94 4.085 1.112 4.214 4.745.297 12.32-8.794 6.39-5.91" transform="translate(2 6)"/>
                <path fill="#E6E6E6" d="M7.06 31.043s-.369 4.25 2.91 4.93c3.278.68 3.584 1.341 2.36 1.706-1.225.363-4.71 2.133-6.276-1.707-1.224-3 .993-5.9 1.006-4.929" transform="translate(2 6)"/>
                <path fill="#F2F2F2" d="M4.982 55.886s15.167 2.676 13.353 3.067c-1.816.39-11.459-.02-12.377-.664-.919-.644-2.377-2.655-.976-2.403" transform="translate(2 6)"/>
                <path fill="#BBF2FF" d="M14.251 56.049s4.612 2.679 11.117 3.057c6.505.377 9.493-1.96 9.98-1.53.489.432-1.643 2.818-9.328 2.097-7.686-.72-13.354-3.492-11.769-3.624M4.983 35.993S1.446 42.805 1.69 47.085c.244 4.281.964 6.508 1.64 6.994.677.485.91.239 0-3.574-.908-3.812-.542-5.138.555-9.825 1.098-4.687 2.074-5.056 1.098-4.687M36.614 50.505s-4.433 2.675-9.68 1.968c-5.247-.706 2.45 2.269 6.642.674 4.191-1.595 3.729-3.008 3.038-2.642M8.093 23.605s-.82 9.13 2.852 10.605c3.672 1.476 1.31 1.456-.63.425-1.942-1.031-3.861-4.078-3.076-10.51.488-3.996.854-.52.854-.52" transform="translate(2 6)"/>
            </g>
            <path fill="#89D7F5" d="M91.157 21.824V20.28L88.164 20l-2.993.28v1.544S78 36.914 78 53.406C78 69.9 80.792 70 82.124 70c1.333 0 2.058-1.364 2.131-1.855.074-.49.739-1.193 1.331.491.593 1.685 3.272 1.334 3.272 1.334s2.661.35 3.254-1.334c.593-1.684 1.257-.982 1.331-.49.075.49.814 1.854 2.147 1.854 1.333 0 3.41-.1 3.41-16.594 0-16.492-7.843-31.582-7.843-31.582" opacity=".7"/>
            <g fill="#4DB0C1">
                <path d="M11.297 2.322V.78L8.05.5l-.934.065 3.129.215v1.542s7.863 15.069 7.863 31.538c0 12.993-1.67 15.798-3.15 16.403.243.103.614.167.914.167 1.406 0 3.65-.1 3.65-16.57S11.297 2.322 11.297 2.322M3.534 49.069c-.625-1.682-1.338-.981-1.416-.49-.061.385-.562 1.307-1.456 1.685.396.162.763.167 1.06.167.916 0 1.567-.577 1.932-1.115-.044-.078-.088-.158-.12-.247M11.833 48.578c-.078-.49-.78-1.192-1.406.49-.388 1.048-1.624 1.306-2.502 1.354.536.028.94-.022.94-.022s2.51.31 3.312-1.074c-.2-.293-.316-.575-.344-.748" transform="translate(81 19)"/>
            </g>
            <g fill="#FFF">
                <path d="M7.732 2.322V.78L11.598.5l.997.065L9.732.78v1.542S2.545 17.391 2.545 33.86c0 12.993 1.727 15.798 3.132 16.403-.23.103-.511.167-.798.167-1.335 0-4.213-.1-4.213-16.57S7.732 2.322 7.732 2.322M16.671 49.069c.594-1.682 1.271-.981 1.345-.49.058.385.534 1.307 1.383 1.685-.376.162-.725.167-1.007.167-.87 0-1.488-.577-1.835-1.115.042-.078.083-.158.114-.247M8.787 48.578c.073-.49.741-1.192 1.335.49.37 1.048 1.543 1.306 2.377 1.354-.508.028-.893-.022-.893-.022s-2.383.31-3.146-1.074c.19-.293.3-.575.326-.748" transform="translate(78 19)"/>
            </g>
            <path fill="#009245" d="M85.757 18h6.486c.418 0 .757-.263.757-.588v-2.824c0-.325-.34-.588-.757-.588h-6.486c-.418 0-.757.263-.757.588v2.824c0 .325.34.588.757.588"/>
            <mask id="prefix__d" fill="#fff">
                <use xlink:href="#prefix__c"/>
            </mask>
            <path fill="#4DB0C1" d="M89 21L93 21 93 20 89 20zM89 19L93 19 93 18 89 18z" mask="url(#prefix__d)"/>
            <path fill="#006837" d="M87 19L93 19 93 18 87 18z" mask="url(#prefix__d)"/>
            <path fill="#FFF" d="M86 20L95 20 95 19 86 19z" mask="url(#prefix__d)"/>
            <path fill="#89D7F5" d="M86 20L95 20 95 19 86 19z" mask="url(#prefix__d)"/>
            <path stroke="#FFF" stroke-linecap="round" stroke-width=".89" d="M82 39c-.88 7.29-1.448 16.361-.535 25M87 25c-.28 1.89-.654 4.664-1 8M88.706 23s-.156.352-.412 1" mask="url(#prefix__d)"/>
            <path fill="#CCC" d="M66 3L76 3 76 2 66 2z" mask="url(#prefix__d)"/>
            <path fill="#E6E6E6" d="M63.812 1h10.377C74.637 1 75 .776 75 .5c0-.277-.363-.5-.811-.5H63.812C63.364 0 63 .223 63 .5c0 .276.364.5.812.5" mask="url(#prefix__d)"/>
            <path fill="#FFF" d="M66.824 1h8.352C75.63 1 76 .776 76 .5c0-.277-.369-.5-.824-.5h-8.352C66.37 0 66 .223 66 .5c0 .276.369.5.824.5" mask="url(#prefix__d)"/>
            <path fill="#E6E6E6" d="M72 45.813V59.98L73 61V41.765s-1-3.373-1 4.048" mask="url(#prefix__d)"/>
            <path fill="#F15A24" d="M51.152 70h7.696c.636 0 1.152-.606 1.152-1.352V63.35c0-.746-.516-1.351-1.152-1.351h-7.696c-.636 0-1.152.605-1.152 1.351v5.297c0 .746.516 1.352 1.152 1.352" mask="url(#prefix__d)"/>
            <path fill="#FF6F43" d="M50.898 63h8.204c.496 0 .898-.224.898-.5s-.402-.5-.898-.5h-8.204c-.496 0-.898.224-.898.5s.402.5.898.5" mask="url(#prefix__d)"/>
            <path fill="#AA330E" d="M52.344 62.883h8.312c.19 0 .344-.172.344-.384 0-.212-.154-.383-.344-.383h-8.312c-.19 0-.344.172-.344.383 0 .212.154.384.344.384" mask="url(#prefix__d)"/>
            <path fill="#F15A24" d="M50 69.5c0 .828 2.239 1.5 5 1.5s5-.672 5-1.5-2.239-1.5-5-1.5-5 .672-5 1.5" mask="url(#prefix__d)"/>
            <path fill="#FFF" d="M36.463 70h5.075c.808 0 1.462-.507 1.462-1.13v-.74c0-.623-.654-1.13-1.462-1.13h-5.075c-.808 0-1.463.507-1.463 1.13v.74c0 .623.655 1.13 1.463 1.13" mask="url(#prefix__d)"/>
            <path fill="#E6E6E6" d="M35.718 66h6.563c.398 0 .719-.224.719-.5s-.321-.5-.719-.5h-6.563c-.397 0-.718.224-.718.5s.321.5.718.5" mask="url(#prefix__d)"/>
            <path fill="#AAA" d="M36.23 65.742h5.54c.127 0 .23-.109.23-.243 0-.132-.103-.24-.23-.24h-5.54c-.127 0-.23.108-.23.24 0 .135.103.243.23.243" mask="url(#prefix__d)"/>
            <path fill="#FFF" d="M35 68.5c0 .276 1.79.5 4 .5s4-.224 4-.5-1.79-.5-4-.5-4 .224-4 .5" mask="url(#prefix__d)"/>
            <path fill="#3C6BEF" d="M38.808 36.266c-2.125 2.95-2.42 6.564-.656 8.074 1.763 1.51 4.915.343 7.04-2.606 2.126-2.95 2.419-6.564.656-8.074-1.763-1.51-4.915-.343-7.04 2.606" mask="url(#prefix__d)"/>
            <path fill="#3C6BEF" d="M38.744 34.193c-2.096 2.928-2.337 6.558-.539 8.108 1.798 1.55 4.955.434 7.05-2.493 2.097-2.928 2.338-6.56.54-8.11-1.798-1.55-4.955-.433-7.05 2.495" mask="url(#prefix__d)"/>
            <path fill="#3C6BEF" d="M41.471 30L45 33.404 37.182 43 33 38.9z" mask="url(#prefix__d)"/>
            <path fill="#3C6BEF" d="M33.744 31.193c-2.096 2.928-2.337 6.558-.539 8.108 1.798 1.55 4.955.434 7.05-2.493 2.097-2.928 2.338-6.56.54-8.11-1.798-1.55-4.955-.433-7.05 2.495" mask="url(#prefix__d)"/>
            <path fill="#274FE0" d="M35.745 34.193c-2.096 2.927-2.338 6.558-.54 8.109 1.798 1.55 4.955.433 7.05-2.495 2.096-2.928 2.338-6.558.54-8.109-1.798-1.55-4.954-.433-7.05 2.495" mask="url(#prefix__d)"/>
            <path fill="#274FE0" d="M39.471 30L43 33.404 35.181 43 31 38.9z" mask="url(#prefix__d)"/>
            <path fill="#274FE0" d="M33.745 31.193c-2.096 2.927-2.338 6.558-.54 8.109 1.798 1.55 4.955.433 7.05-2.495 2.096-2.928 2.338-6.558.54-8.109-1.798-1.55-4.954-.433-7.05 2.495" mask="url(#prefix__d)"/>
            <path fill="#0E339B" d="M34.551 31.56c-1.747 2.242-2.066 4.928-.713 6 1.352 1.07 3.864.121 5.611-2.12 1.746-2.242 2.066-4.928.714-6-1.353-1.07-3.865-.122-5.612 2.12" mask="url(#prefix__d)"/>
            <path fill="#052468" d="M37.324 36.895C36.704 37.576 36.27 38.3 36 39c.934-.384 1.88-1.022 2.676-1.894C39.296 36.425 39.73 35.7 40 35c-.934.385-1.88 1.023-2.676 1.895" mask="url(#prefix__d)"/>
            <path fill="#FFF" d="M13.875 9.435s-4.112.106-5.338 10.403c-.463 3.252-.646 2.548-.472-.206.173-2.755 1.012-8.597 4.868-10.514.559-.156 1.383-.246.942.317M17 29.997S27.485 30.554 29 17c-2.932 5.801-4.505 10.582-12 12.997M29.95 32s.828 10.309-4.892 13.054c-5.72 2.746-6.041 1.874-3.665 1.578 2.377-.296 6.969-.085 10.01-7.031C33.337 35.185 29.951 32 29.951 32M33.15 8s1.335 4.27.659 6.792C33.133 17.314 31 20 31 20s.202-8.553 2.15-12M6 53s4.572 6.237 13 8.699C16.544 63.009 8.916 60.038 6 53" mask="url(#prefix__d)"/>
            <path fill="#FFF" d="M19 41s7.12-2.053 8.891-9c.708 5.316-2.017 8.44-8.891 9" mask="url(#prefix__d)"/>
        </g>
    </g>
</svg>
