<?xml version="1.0" encoding="UTF-8"?>
<svg width="130px" height="85px" viewBox="0 0 130 85" version="1.1" xmlns="http://www.w3.org/2000/svg" xmlns:xlink="http://www.w3.org/1999/xlink">
    <!-- Generator: Sketch 64 (93537) - https://sketch.com -->
    <title>iramas</title>
    <desc>Created with Sketch.</desc>
    <defs>
        <polygon id="path-1" points="0 0.3772 10.9367 0.3772 10.9367 11.5522 0 11.5522"></polygon>
        <polygon id="path-3" points="0.1646 0.688 12.2726 0.688 12.2726 21.2819 0.1646 21.2819"></polygon>
    </defs>
    <g id="iramas" stroke="none" stroke-width="1" fill="none" fill-rule="evenodd">
        <rect id="Rectangle-Copy-17" fill="#78725C" fill-rule="nonzero" x="26" y="0" width="85" height="85" rx="8"></rect>
        <g id="Group-25" transform="translate(33.000000, 9.000000)">
            <path d="M67.2859,67.3119 C64.3839,64.9189 61.5599,62.5009 58.7719,59.9749 C57.3819,58.7099 56.0059,57.4229 54.6599,56.0539 C53.9869,55.3659 53.3239,54.6609 52.6689,53.8699 C52.3389,53.4509 52.0179,53.0669 51.6809,52.5039 C51.6019,52.3879 51.5069,52.1939 51.4249,52.0289 L51.2799,51.7219 C51.1659,51.4809 51.1529,51.4769 51.0489,51.2869 C50.6379,50.5999 50.1119,49.8609 49.5819,49.1409 C49.0479,48.4169 48.4909,47.6949 47.9239,46.9769 C46.7909,45.5409 45.6219,44.1179 44.4409,42.7029 C42.0779,39.8739 39.6589,37.0719 37.2169,34.3049 L37.2169,34.3039 L36.9949,34.0599 L36.9529,33.7829 L34.7569,19.3619 L36.0399,19.1339 L38.9409,33.4299 L38.6769,32.9089 L38.6769,32.9089 C41.3379,35.5069 43.9629,38.1259 46.5579,40.7959 C47.8529,42.1329 49.1399,43.4799 50.4079,44.8619 C51.0419,45.5529 51.6709,46.2519 52.2929,46.9739 C52.9149,47.7019 53.5259,48.4259 54.1339,49.2859 C54.2759,49.4859 54.5169,49.8709 54.6099,50.0439 L54.6949,50.1949 L54.7159,50.2329 L54.7579,50.3189 L54.7609,50.3219 L54.7659,50.3279 L54.7849,50.3529 C54.8149,50.3899 54.8149,50.4079 54.8739,50.4789 C55.0289,50.7019 55.3189,51.0179 55.5859,51.3049 C56.1589,51.8999 56.8099,52.5009 57.4779,53.0879 C58.8219,54.2639 60.2399,55.4069 61.6779,56.5309 C64.5559,58.7719 67.5319,60.9579 70.5119,63.0619 L67.2859,67.3119 Z" id="Fill-1" fill="#EFDFAC"></path>
            <path d="M47.2312,46.5558 L31.2952,41.4278 L31.0442,41.3468 L30.9642,41.2448 L30.9642,41.2448 C27.4512,37.6778 23.8752,34.1498 20.1732,30.7928 C19.2452,29.9578 18.3082,29.1328 17.3492,28.3478 C16.8692,27.9568 16.3862,27.5698 15.8942,27.2118 C15.4072,26.8608 14.8892,26.5018 14.4222,26.2908 C13.9162,26.0848 13.2422,25.8438 12.6682,25.5638 C12.0802,25.2938 11.5072,24.9978 10.9482,24.6818 C9.8242,24.0498 8.7592,23.3678 7.7092,22.5888 L8.5002,21.5538 C9.4672,22.2708 10.5202,22.9478 11.5852,23.5448 C12.1192,23.8468 12.6632,24.1268 13.2152,24.3818 C13.7722,24.6518 14.2842,24.8288 14.9402,25.0948 C15.6172,25.4058 16.1292,25.7808 16.6612,26.1588 C17.1852,26.5388 17.6822,26.9378 18.1752,27.3398 C19.1592,28.1458 20.1082,28.9808 21.0462,29.8248 C24.7852,33.2158 28.3632,36.7458 31.8972,40.3348 L31.8972,40.3348 L31.5662,40.1528 L48.2112,41.9398 L47.2312,46.5558 Z" id="Fill-3" fill="#EFDFAC"></path>
            <polygon id="Fill-5" fill="#EFDFAC" points="20.4675 30.6188 12.6405 32.2258 20.1295 29.4408"></polygon>
            <polygon id="Fill-7" fill="#EFDFAC" points="35.9336 27.8042 29.1186 23.7622 28.8576 23.6072 28.7886 23.3542 27.5436 18.7672 28.8016 18.4252 30.0466 23.0122 29.7166 22.6042 36.9576 25.8212"></polygon>
            <path d="M45.4614,44.3774 C45.6944,41.9864 45.8374,39.6014 45.9674,37.2164 C46.0494,36.0224 46.0714,34.8324 46.1224,33.6414 L46.2564,30.0674 L46.2584,29.9634 C46.6514,27.3234 46.9874,24.6764 47.0724,22.0054 L48.3694,22.1374 C47.9124,24.7714 47.7044,27.4304 47.5554,30.0964 L47.5574,29.9924 L48.0984,33.5274 C48.2844,34.7054 48.4424,35.8854 48.6604,37.0614 C49.0614,39.4164 49.4764,41.7704 49.9804,44.1184 L45.4614,44.3774 Z" id="Fill-9" fill="#EFDFAC"></path>
            <g id="Group-13" transform="translate(0.000000, 8.311900)">
                <mask id="mask-2" fill="white">
                    <use xlink:href="#path-1"></use>
                </mask>
                <g id="Clip-12"></g>
                <polygon id="Fill-11" fill="#EFDFAC" mask="url(#mask-2)" points="9.7927 11.5522 7.8877 8.0692 8.0327 8.2472 -0.0003 0.5402 0.1417 0.3772 8.8877 7.2642 8.9687 7.3282 9.0317 7.4432 10.9367 10.9272"></polygon>
            </g>
            <g id="Group-16" transform="translate(26.000000, 0.311900)">
                <mask id="mask-4" fill="white">
                    <use xlink:href="#path-3"></use>
                </mask>
                <g id="Clip-15"></g>
                <polygon id="Fill-14" fill="#EFDFAC" mask="url(#mask-4)" points="10.3176 21.2819 10.6436 17.1769 10.7566 17.4459 0.1646 0.6879 11.8336 16.6389 11.9266 16.7539 11.9466 17.1829 12.2726 21.2819"></polygon>
            </g>
            <polygon id="Fill-17" fill="#EFDFAC" points="33.5483 1.6596 34.0383 11.1106 32.0843 11.0436 33.2223 1.6486"></polygon>
            <polygon id="Fill-19" fill="#EFDFAC" points="27.8669 20.2015 23.6109 19.2475 27.9589 18.9015"></polygon>
            <polygon id="Fill-21" fill="#EFDFAC" points="43.7671 20.8749 47.9821 26.4259 46.9331 27.1989 42.8781 21.5299"></polygon>
            <line x1="39.9741" y1="19.5515" x2="35.3981" y2="22.0715" id="Stroke-23" stroke="#EFDFAC" stroke-width="1.303"></line>
        </g>
    </g>
</svg>