<svg xmlns="http://www.w3.org/2000/svg" xmlns:xlink="http://www.w3.org/1999/xlink" width="130" height="85" viewBox="0 0 130 85">
  <defs>
    <polygon id="irestos-veg-a" points=".302 .94 10.682 .94 10.682 10.028 .302 10.028"/>
    <polygon id="irestos-veg-c" points=".689 .264 29.726 .264 29.726 52 .689 52"/>
  </defs>
  <g fill="none" fill-rule="evenodd">
    <rect width="85" height="85" x="26" fill="#78725C" fill-rule="nonzero" rx="8"/>
    <g transform="translate(31 12)">
      <g transform="translate(49 .06)">
        <mask id="irestos-veg-b" fill="#fff">
          <use xlink:href="#irestos-veg-a"/>
        </mask>
        <path fill="#C18421" d="M9.8911,0.9397 C9.8911,0.9397 12.1161,4.6027 9.1031,5.9717 C6.0891,7.3417 4.8971,10.0277 4.8971,10.0277 L0.3021,10.0277 C0.3021,10.0277 6.0571,1.1537 9.8911,0.9397" mask="url(#irestos-veg-b)"/>
      </g>
      <path fill="#FED434" d="M58.3428,33.1414 C58.3428,33.1414 61.6788,39.7804 55.6128,41.9044 C53.3228,42.7054 49.2438,42.0724 45.9078,36.4444 C44.3908,46.6734 51.9738,51.0034 51.9738,51.0034 C51.9738,51.0034 62.5888,50.3964 64.1058,45.2404 C65.6218,40.0844 62.5888,36.2074 58.3428,33.1414"/>
      <path fill="#E8BB3A" d="M59.4205,33.9656 C59.0705,33.6856 58.7135,33.4086 58.3425,33.1416 C58.3425,33.1416 61.6785,39.7806 55.6125,41.9036 C53.3225,42.7056 49.2435,42.0726 45.9075,36.4446 C44.3905,46.6736 51.9735,51.0026 51.9735,51.0026 C51.9735,51.0026 56.9175,50.7176 60.5395,48.8986 C61.7335,44.4536 60.4435,37.9146 59.4205,33.9656"/>
      <path fill="#FED434" d="M53.652,42.1804 C51.375,42.0964 48.429,40.6984 45.908,36.4444 C45.012,42.4874 47.289,46.4564 49.305,48.7054 C50.853,47.4704 52.484,44.4174 53.652,42.1804"/>
      <g transform="translate(39 8.06)">
        <mask id="irestos-veg-d" fill="#fff">
          <use xlink:href="#irestos-veg-c"/>
        </mask>
        <path fill="#E09E1B" d="M12.9734,0.6322 C12.9734,0.6322 20.8594,2.9072 15.8544,12.4612 C10.8504,22.0152 8.2724,24.1382 8.8784,30.5072 C9.4854,36.8772 12.2154,43.7012 18.8874,44.6112 C23.2584,45.2072 26.3934,45.5422 28.9304,44.7662 C29.5594,44.5732 30.0004,45.3712 29.5284,45.8282 C22.7194,52.4282 15.3124,53.4132 8.7914,50.3062 C1.2964,46.7342 0.6894,35.2082 0.6894,35.2082 C0.6894,35.2082 7.5144,-3.9178 12.9734,0.6322" mask="url(#irestos-veg-d)"/>
      </g>
      <path fill="#FED434" d="M51.9734,8.6925 C51.9734,8.6925 42.2674,4.4465 36.5054,15.8205 C30.7424,27.1935 30.2874,38.4165 27.7094,42.2075 C25.1314,45.9985 17.2454,53.8845 0.8674,47.0605 C0.1084,47.3635 0.5634,54.4905 14.0604,57.3725 C27.5574,60.2535 36.6564,56.7655 39.9934,48.2735 C43.3294,39.7805 51.9734,8.6925 51.9734,8.6925"/>
      <path fill="#C18421" d="M41.2953 50.5064C42.0453 52.4824 43.1373 54.5244 44.7313 56.1544 49.0593 57.6184 56.1533 57.9124 63.2233 53.2414 61.6643 53.1614 59.9133 52.9474 57.8883 52.6714 51.2153 51.7614 48.4853 44.9374 47.8793 38.5674 47.7063 36.7574 47.8003 35.2924 48.1253 33.8994 45.8783 39.1114 42.7273 46.5464 41.2953 50.5064M46.0376 29.37C46.6166 29.769 58.1146 12.752 51.9736 8.692 48.6146 20.535 46.0376 29.37 46.0376 29.37"/>
      <path fill="#E8BB3A" d="M39.6898,43.2688 C39.6898,43.2688 35.6048,26.5488 32.6538,25.5058 C30.3078,33.0788 29.5388,39.5168 27.7098,42.2068 C26.8078,43.5328 25.2548,45.3588 22.9178,46.8818 C22.6028,51.3298 22.3208,55.6778 22.2178,58.3448 C30.4718,58.4698 36.3248,55.4918 39.2558,49.8828 C39.7618,46.2468 39.6898,43.2688 39.6898,43.2688"/>
      <path fill="#C18421" d="M33.3723,29.2755 C33.3723,29.2755 39.3943,43.3435 39.3343,40.4155 C39.2733,37.4875 33.8893,25.9725 33.3723,29.2755"/>
    </g>
  </g>
</svg>
