<svg xmlns="http://www.w3.org/2000/svg" xmlns:xlink="http://www.w3.org/1999/xlink" width="130" height="85" viewBox="0 0 130 85">
  <defs>
    <path id="irestos-huevos-b" d="M31.1950227,13.0917923 C26.0300852,17.7852298 13.6388352,32.2364173 6.16096015,29.0049173 C15.5967102,38.4593548 28.6650227,40.6572923 35.0173352,33.9930423 C40.8061477,27.9181673 38.9560852,16.6337923 31.0915227,7.88947985 C30.8471477,7.61635485 31.4523352,13.3591673 31.1950227,13.0917923"/>
    <filter id="irestos-huevos-a" width="109.3%" height="110%" x="-4.7%" y="-5%" filterUnits="objectBoundingBox">
      <feOffset in="SourceAlpha" result="shadowOffsetOuter1"/>
      <feGaussianBlur in="shadowOffsetOuter1" result="shadowBlurOuter1" stdDeviation=".5"/>
      <feColorMatrix in="shadowBlurOuter1" values="0 0 0 0 0   0 0 0 0 0   0 0 0 0 0  0 0 0 0.5 0"/>
    </filter>
  </defs>
  <g fill="none" fill-rule="evenodd">
    <rect width="85" height="85" x="26" fill="#78725C" fill-rule="nonzero" rx="8"/>
    <g transform="translate(36 39)">
      <path fill="#FFF" d="M0.293175111,22.1519479 C9.95115597,31.6184983 23.3272535,33.8192518 29.8291757,27.1464636 C35.7543264,21.0638056 34.3982979,9.75551555 26.3485092,1 C26.0983787,0.726525077 26.1802128,6.48615291 25.9168401,6.21843535 C20.6302579,10.917886 7.94716909,25.3875881 0.293175111,22.1519479 Z"/>
      <path fill="#FED434" d="M15.2947311,2.64271156 C15.2947311,2.64271156 16.7745838,12.08538 5.16285313,11.2318715 C9.24147166,15.9057074 5.42603832,23.1064546 0.293175111,22.3479428 C5.16285313,26.8960908 16.9580615,26.2632669 16.8272209,15.1471956 C27.222284,17.5469575 30.9534981,8.83357112 26.3485092,1 C24.9002387,8.79557245 15.2947311,2.64271156 15.2947311,2.64271156"/>
    </g>
    <g transform="translate(59 29)">
      <g transform="rotate(44 22.281 22.86)">
        <use fill="#000" filter="url(#irestos-huevos-a)" xlink:href="#irestos-huevos-b"/>
        <use fill="#FFF" xlink:href="#irestos-huevos-b"/>
      </g>
      <path fill="#FED434" d="M13.7697297,16.9567823 C15.7095876,18.965564 14.0212922,28.6364698 9.11510466,27.8904073 C13.7697297,32.3639073 25.0440422,31.7414698 24.9189797,20.8078448 C34.8549797,23.1682198 38.4214172,14.5978448 34.0197922,6.89284477 C30.6422258,9.10466539 23.4541672,8.50859477 23.4541672,8.50859477 C23.4541672,8.50859477 21.6433548,15.0772823 13.7697297,16.9567823 Z" transform="rotate(44 22.497 18.696)"/>
    </g>
  </g>
</svg>
