<svg xmlns="http://www.w3.org/2000/svg" width="130" height="85" viewBox="0 0 130 85">
  <g fill="none" fill-rule="evenodd">
    <rect width="85" height="85" x="26" fill="#78725C" fill-rule="nonzero" rx="8"/>
    <g transform="translate(46 26)">
      <path fill="#C87B23" d="M24.1031,6.032 C21.0891,7.402 20.0840683,19.0603 20.0840683,19.0603 L18,19.0603 C18,19.0603 21.0571,1.214 24.8911,1 C24.8911,1 27.1161,4.663 24.1031,6.032 Z" transform="rotate(-9 21.841 10.03)"/>
      <path fill="#D13100" d="M19,45 C45.682185,45.4130933 45.682185,37.7107853 45.682185,28.5980869 C45.682185,19.4853885 43.0224304,12 19,12 C-5.02243042,12 1.82197571,45.24725 19,45 Z"/>
      <path fill="#E8502D" d="M19,45 C34.9734,45.2473 38,37.6126984 38,28.5 C38,19.3873016 32.7822,12 19,12 C5.2178,12 0,19.3873016 0,28.5 C0,37.6126984 1.82197571,45.24725 19,45 Z"/>
      <path fill="#E85A2D" d="M19,43.4976101 C33.2919895,43.7223884 36,36.7830705 36,28.5002661 C36,20.2174618 31.3314421,13.5029222 19,13.5029222 C6.66855789,13.5029222 2,20.2174618 2,28.5002661 C2,36.7830705 3.63018879,43.722343 19,43.4976101 Z"/>
      <path fill="#E8502D" d="M17.757843,40.7428131 C18.6651611,29.8502693 18.1626692,35.6262435 18.1626692,29 C18.1626692,22.3737565 18.5935345,27.3913746 18.1626692,20.5 C18.1529463,20.3444901 18.5935345,18.7277881 14.2300593,17 C9.86658418,15.2722119 4.99995365,21.9509514 4.99995365,28.5007973 C4.99995365,35.1270408 5.10035143,40.9225995 17.757843,40.7428131 Z"/>
      <path fill="#E8502D" d="M32.5953096,41.261485 C35.0251421,37.5 33.172603,35.8547393 33.172603,29.2284959 C33.172603,22.6022524 34.3187441,23 32.3476442,20.1385567 C32.2772685,20.0363922 29.1857103,17.5957796 27.6970094,17.5075787 C22.9112914,17.2240398 19.8374202,22.4696233 19.8374202,29.0194692 C19.8374202,35.6457127 19.937818,41.4412713 32.5953096,41.261485 Z" transform="matrix(-1 0 0 1 53.686 0)"/>
      <path fill="#FFF" fill-opacity=".091" d="M19.8482438,36.5977783 C28.2552964,36.6801971 30,31.5360544 30,28.4990261 C30,26.1586014 26.5678842,24.2411587 22.5,22.6052284 C21.2892358,22.1183105 22.1490854,17.5683899 20.4852829,17.5683899 C18.4829311,17.5683899 18.6494036,21.9286907 17.2969513,22.6052284 C13.7499629,24.3795398 10,26.3003457 10,28.4990261 C10,31.5360544 10.8071784,36.6801804 19.8482438,36.5977783 Z"/>
      <path fill="#C18421" fill-opacity=".562" d="M24.1031,6.032 C21.0891,7.402 20.0840683,19.0603 20.0840683,19.0603 L18,19.0603 C18,19.0603 21.0571,1.214 24.8911,1 C24.8911,1 27.1161,4.663 24.1031,6.032 Z" transform="rotate(-9 21.841 10.03)"/>
    </g>
    <g transform="translate(50 43)">
      <g transform="rotate(-36 7.539 -10.85)">
        <ellipse cx="1.5" cy="2.5" fill="#FFF" fill-opacity=".09" rx="1.5" ry="2.5"/>
        <ellipse cx="1.5" cy="2.5" fill="#C38021" rx="1" ry="1.5"/>
      </g>
      <g transform="rotate(35 -22.044 27.358)">
        <ellipse cx="1.5" cy="2.5" fill="#FFF" fill-opacity=".09" rx="1.5" ry="2.5"/>
        <ellipse cx="1.5" cy="2.5" fill="#C38021" rx="1" ry="1.5"/>
      </g>
      <g transform="rotate(49 -14.152 17.583)">
        <ellipse cx="1.5" cy="2.5" fill="#FFF" fill-opacity=".09" rx="1.5" ry="2.5"/>
        <ellipse cx="1.5" cy="2.5" fill="#C38021" rx="1" ry="1.5"/>
      </g>
      <g transform="rotate(66 -7.78 11.81)">
        <ellipse cx="1.5" cy="2.5" fill="#FFF" fill-opacity=".09" rx="1.5" ry="2.5"/>
        <ellipse cx="1.5" cy="2.5" fill="#C38021" rx="1" ry="1.5"/>
      </g>
      <g transform="rotate(81 -3.354 8.67)">
        <ellipse cx="1.5" cy="2.5" fill="#FFF" fill-opacity=".09" rx="1.5" ry="2.5"/>
        <ellipse cx="1.5" cy="2.5" fill="#C38021" rx="1" ry="1.5"/>
      </g>
      <g transform="rotate(110 .4 6.2)">
        <ellipse cx="1.5" cy="2.5" fill="#FFF" fill-opacity=".09" rx="1.5" ry="2.5"/>
        <ellipse cx="1.5" cy="2.5" fill="#C38021" rx="1" ry="1.5"/>
      </g>
      <g transform="rotate(135 3.379 5.036)">
        <ellipse cx="1.5" cy="2.5" fill="#FFF" fill-opacity=".09" rx="1.5" ry="2.5"/>
        <ellipse cx="1.5" cy="2.5" fill="#C38021" rx="1" ry="1.5"/>
      </g>
    </g>
    <g transform="rotate(-180 40.5 33.5)">
      <g transform="rotate(-36 7.539 -10.85)">
        <ellipse cx="1.5" cy="2.5" fill="#FFF" fill-opacity=".09" rx="1.5" ry="2.5"/>
        <ellipse cx="1.5" cy="2.5" fill="#C38021" rx="1" ry="1.5"/>
      </g>
      <g transform="rotate(35 -22.044 27.358)">
        <ellipse cx="1.5" cy="2.5" fill="#FFF" fill-opacity=".09" rx="1.5" ry="2.5"/>
        <ellipse cx="1.5" cy="2.5" fill="#C38021" rx="1" ry="1.5"/>
      </g>
      <g transform="rotate(49 -14.152 17.583)">
        <ellipse cx="1.5" cy="2.5" fill="#FFF" fill-opacity=".09" rx="1.5" ry="2.5"/>
        <ellipse cx="1.5" cy="2.5" fill="#C38021" rx="1" ry="1.5"/>
      </g>
      <g transform="rotate(66 -7.78 11.81)">
        <ellipse cx="1.5" cy="2.5" fill="#FFF" fill-opacity=".09" rx="1.5" ry="2.5"/>
        <ellipse cx="1.5" cy="2.5" fill="#C38021" rx="1" ry="1.5"/>
      </g>
      <g transform="rotate(81 -3.354 8.67)">
        <ellipse cx="1.5" cy="2.5" fill="#FFF" fill-opacity=".09" rx="1.5" ry="2.5"/>
        <ellipse cx="1.5" cy="2.5" fill="#C38021" rx="1" ry="1.5"/>
      </g>
      <g transform="rotate(110 .4 6.2)">
        <ellipse cx="1.5" cy="2.5" fill="#FFF" fill-opacity=".09" rx="1.5" ry="2.5"/>
        <ellipse cx="1.5" cy="2.5" fill="#C38021" rx="1" ry="1.5"/>
      </g>
      <g transform="rotate(135 3.379 5.036)">
        <ellipse cx="1.5" cy="2.5" fill="#FFF" fill-opacity=".09" rx="1.5" ry="2.5"/>
        <ellipse cx="1.5" cy="2.5" fill="#C38021" rx="1" ry="1.5"/>
      </g>
    </g>
  </g>
</svg>
