<?xml version="1.0" encoding="UTF-8"?>
<svg width="130px" height="85px" viewBox="0 0 130 85" version="1.1" xmlns="http://www.w3.org/2000/svg" xmlns:xlink="http://www.w3.org/1999/xlink">
    <!-- Generator: Sketch 64 (93537) - https://sketch.com -->
    <title>irestos</title>
    <desc>Created with Sketch.</desc>
    <defs>
        <polygon id="path-1" points="0 0.660029116 22.4279905 0.660029116 22.4279905 21.5028909 0 21.5028909"></polygon>
        <polygon id="path-3" points="0.3021 0.94 10.682185 0.94 10.682185 10.0277 0.3021 10.0277"></polygon>
        <polygon id="path-5" points="0.6894 0.264033228 29.726 0.264033228 29.726 51.9999502 0.6894 51.9999502"></polygon>
    </defs>
    <g id="irestos" stroke="none" stroke-width="1" fill="none" fill-rule="evenodd">
        <rect id="Rectangle-Copy-16" fill="#78725C" fill-rule="nonzero" x="26" y="0" width="85" height="85" rx="8"></rect>
        <g id="Group-28" transform="translate(32.000000, 10.000000)">
            <g id="Group-3" transform="translate(0.000000, 15.060300)">
                <mask id="mask-2" fill="white">
                    <use xlink:href="#path-1"></use>
                </mask>
                <g id="Clip-2"></g>
                <path d="M17.4147,4.2856 C13.8217,7.5506 5.2017,17.6036 -0.0003,15.3556 C6.5637,21.9326 15.6547,23.4616 20.0737,18.8256 C24.1007,14.5996 22.8137,6.7496 17.3427,0.6666 C17.1727,0.4766 17.5937,4.4716 17.4147,4.2856" id="Fill-1" fill="#FFFFFF" mask="url(#mask-2)"></path>
            </g>
            <path d="M9.975,16.8666 C9.975,16.8666 10.959,23.3276 3.238,22.7436 C5.95,25.9416 3.413,30.8686 0,30.3496 C3.238,33.4616 11.081,33.0286 10.994,25.4226 C17.906,27.0646 20.387,21.1026 17.325,15.7426 C16.362,21.0766 9.975,16.8666 9.975,16.8666" id="Fill-4" fill="#FED434"></path>
            <g id="Group-8" transform="translate(53.000000, 0.060300)">
                <mask id="mask-4" fill="white">
                    <use xlink:href="#path-3"></use>
                </mask>
                <g id="Clip-7"></g>
                <path d="M9.8911,0.9397 C9.8911,0.9397 12.1161,4.6027 9.1031,5.9717 C6.0891,7.3417 4.8971,10.0277 4.8971,10.0277 L0.3021,10.0277 C0.3021,10.0277 6.0571,1.1537 9.8911,0.9397" id="Fill-6" fill="#C18421" mask="url(#mask-4)"></path>
            </g>
            <path d="M62.3428,33.1414 C62.3428,33.1414 65.6788,39.7804 59.6128,41.9044 C57.3228,42.7054 53.2438,42.0724 49.9078,36.4444 C48.3908,46.6734 55.9738,51.0034 55.9738,51.0034 C55.9738,51.0034 66.5888,50.3964 68.1058,45.2404 C69.6218,40.0844 66.5888,36.2074 62.3428,33.1414" id="Fill-9" fill="#FED434"></path>
            <path d="M63.4205,33.9656 C63.0705,33.6856 62.7135,33.4086 62.3425,33.1416 C62.3425,33.1416 65.6785,39.7806 59.6125,41.9036 C57.3225,42.7056 53.2435,42.0726 49.9075,36.4446 C48.3905,46.6736 55.9735,51.0026 55.9735,51.0026 C55.9735,51.0026 60.9175,50.7176 64.5395,48.8986 C65.7335,44.4536 64.4435,37.9146 63.4205,33.9656" id="Fill-11" fill="#E8BB3A"></path>
            <path d="M57.652,42.1804 C55.375,42.0964 52.429,40.6984 49.908,36.4444 C49.012,42.4874 51.289,46.4564 53.305,48.7054 C54.853,47.4704 56.484,44.4174 57.652,42.1804" id="Fill-13" fill="#FED434"></path>
            <g id="Group-17" transform="translate(43.000000, 8.060300)">
                <mask id="mask-6" fill="white">
                    <use xlink:href="#path-5"></use>
                </mask>
                <g id="Clip-16"></g>
                <path d="M12.9734,0.6322 C12.9734,0.6322 20.8594,2.9072 15.8544,12.4612 C10.8504,22.0152 8.2724,24.1382 8.8784,30.5072 C9.4854,36.8772 12.2154,43.7012 18.8874,44.6112 C23.2584,45.2072 26.3934,45.5422 28.9304,44.7662 C29.5594,44.5732 30.0004,45.3712 29.5284,45.8282 C22.7194,52.4282 15.3124,53.4132 8.7914,50.3062 C1.2964,46.7342 0.6894,35.2082 0.6894,35.2082 C0.6894,35.2082 7.5144,-3.9178 12.9734,0.6322" id="Fill-15" fill="#E09E1B" mask="url(#mask-6)"></path>
            </g>
            <path d="M55.9734,8.6925 C55.9734,8.6925 46.2674,4.4465 40.5054,15.8205 C34.7424,27.1935 34.2874,38.4165 31.7094,42.2075 C29.1314,45.9985 21.2454,53.8845 4.8674,47.0605 C4.1084,47.3635 4.5634,54.4905 18.0604,57.3725 C31.5574,60.2535 40.6564,56.7655 43.9934,48.2735 C47.3294,39.7805 55.9734,8.6925 55.9734,8.6925" id="Fill-18" fill="#FED434"></path>
            <path d="M45.2953,50.5064 C46.0453,52.4824 47.1373,54.5244 48.7313,56.1544 C53.0593,57.6184 60.1533,57.9124 67.2233,53.2414 C65.6643,53.1614 63.9133,52.9474 61.8883,52.6714 C55.2153,51.7614 52.4853,44.9374 51.8793,38.5674 C51.7063,36.7574 51.8003,35.2924 52.1253,33.8994 C49.8783,39.1114 46.7273,46.5464 45.2953,50.5064" id="Fill-20" fill="#C18421"></path>
            <path d="M50.0376,29.37 C50.6166,29.769 62.1146,12.752 55.9736,8.692 C52.6146,20.535 50.0376,29.37 50.0376,29.37" id="Fill-22" fill="#C18421"></path>
            <path d="M43.6898,43.2688 C43.6898,43.2688 39.6048,26.5488 36.6538,25.5058 C34.3078,33.0788 33.5388,39.5168 31.7098,42.2068 C30.8078,43.5328 29.2548,45.3588 26.9178,46.8818 C26.6028,51.3298 26.3208,55.6778 26.2178,58.3448 C34.4718,58.4698 40.3248,55.4918 43.2558,49.8828 C43.7618,46.2468 43.6898,43.2688 43.6898,43.2688" id="Fill-24" fill="#E8BB3A"></path>
            <path d="M37.3723,29.2755 C37.3723,29.2755 43.3943,43.3435 43.3343,40.4155 C43.2733,37.4875 37.8893,25.9725 37.3723,29.2755" id="Fill-26" fill="#C18421"></path>
        </g>
    </g>
</svg>