<?xml version="1.0" encoding="UTF-8"?>
<svg width="130px" height="85px" viewBox="0 0 130 85" version="1.1" xmlns="http://www.w3.org/2000/svg" xmlns:xlink="http://www.w3.org/1999/xlink">
    <!-- Generator: Sketch 64 (93537) - https://sketch.com -->
    <title>isanitarios</title>
    <desc>Created with Sketch.</desc>
    <defs>
        <polygon id="path-1" points="0 0.112 49.1729 0.112 49.1729 30.5708053 0 30.5708053"></polygon>
        <polygon id="path-3" points="0.399580396 0.54091739 49.572 0.54091739 49.572 30.9998053 0.399580396 30.9998053"></polygon>
        <polygon id="path-5" points="0.000105774299 0.314 26.7473836 0.314 26.7473836 14 0.000105774299 14"></polygon>
    </defs>
    <g id="isanitarios" stroke="none" stroke-width="1" fill="none" fill-rule="evenodd">
        <rect id="Rectangle-Copy-16" fill="#E04A4A" fill-rule="nonzero" x="26" y="0" width="85" height="85" rx="8"></rect>
        <g id="Group-19" transform="translate(18.000000, 7.000000)">
            <path d="M39,24.2918218 L31.7081782,17 L7.07984508,41.6283331 C5.64005164,43.0681265 5.64005164,45.4026019 7.07984508,46.8423954 L9.15760465,48.9201549 C10.5973981,50.3599484 12.9318735,50.3599484 14.3716669,48.9201549 L39,24.2918218 Z" id="Fill-1" fill="#FFFFFF"></path>
            <path d="M39,24.4382139 L31.5617861,17 L26.1015243,22.4602619 C24.6328252,23.9289609 24.6328252,26.3103037 26.1015243,27.7790027 L28.2209973,29.8984757 C29.6896963,31.3671748 32.0710391,31.3671748 33.5397381,29.8984757 L39,24.4382139 Z" id="Fill-3" fill="#F2F2F2"></path>
            <path d="M39,23.3730445 L36.6265051,21 L9,48.6212633 L9.67703332,49.2970603 C10.6144641,50.2343132 12.1336337,50.2343132 13.0710645,49.2970603 L39,23.3730445 Z" id="Fill-5" fill="#E6E6E6"></path>
            <polygon id="Fill-7" fill="#7FCDEE" points="50 10.7338459 45.2661541 6 37 14.2650908 41.7338459 19"></polygon>
            <path d="M50,11.2584649 L47.7313327,9 L38,18.6875704 L38.6460724,19.3317917 C39.5421006,20.2227361 40.9952339,20.2227361 41.890203,19.3317917 L50,11.2584649 Z" id="Fill-9" fill="#29ABE2"></path>
            <path d="M54.0722999,14.7512127 L41.2487873,1.9277001 C40.9170709,1.59598374 40.9170709,1.05881723 41.2487873,0.72710087 L41.7271009,0.248787274 C42.0588172,-0.0829290912 42.5959837,-0.0829290912 42.9277001,0.248787274 L55.7512127,13.0722999 C56.0829291,13.4040163 56.0829291,13.9411828 55.7512127,14.2728991 L55.2728991,14.7512127 C54.9411828,15.0829291 54.4040163,15.0829291 54.0722999,14.7512127" id="Fill-11" fill="#29ABE2"></path>
            <line x1="8" y1="48" x2="0" y2="56" id="Stroke-13" stroke="#FFFFFF" stroke-width="1.398"></line>
            <path d="M41.3486322,25.810237 L30.1905844,14.652392 C29.9364719,14.3982841 29.9364719,13.9882216 30.1905844,13.7352043 L32.7349814,11.189763 C32.9880033,10.9367457 33.3991639,10.9367457 33.6521858,11.189763 L44.8102336,22.3486986 C45.0632555,22.6017159 45.0632555,23.0117784 44.8102336,23.2647957 L42.264746,25.810237 C42.0117241,26.0632543 41.6016541,26.0632543 41.3486322,25.810237" id="Fill-15" fill="#29ABE2"></path>
            <polygon id="Fill-17" fill="#297691" points="45 16.9159069 38.484088 13 37 14.5778057 42.0990944 20"></polygon>
        </g>
        <g id="Group-16" transform="translate(67.000000, 28.000000)">
            <g id="Group-7" transform="translate(0.000000, 0.888000)">
                <g id="Group-3">
                    <mask id="mask-2" fill="white">
                        <use xlink:href="#path-1"></use>
                    </mask>
                    <g id="Clip-2"></g>
                    <path d="M25.8099,0.161 C25.8099,0.161 40.0109,3.402 44.5919,5.813 L49.1729,8.224 C49.1729,8.224 26.4079,31.593 23.7389,30.536 C21.0709,29.48 3.3339,22.764 0.2729,21.848 C-2.7881,20.932 20.8039,-1.061 25.8099,0.161" id="Fill-1" fill="#FFFFFF" mask="url(#mask-2)"></path>
                </g>
                <g id="Group-6" transform="translate(0.000000, 2.000000)">
                    <mask id="mask-4" fill="white">
                        <use xlink:href="#path-3"></use>
                    </mask>
                    <g id="Clip-5"></g>
                    <path d="M26.2095,0.59 C26.2095,0.59 40.4105,3.831 44.9915,6.242 L49.5725,8.653 C49.5725,8.653 26.8075,32.022 24.1385,30.965 C21.4705,29.909 3.7335,23.193 0.6725,22.277 C-2.3885,21.361 21.2035,-0.632 26.2095,0.59" id="Fill-4" fill="#FFFFFF" mask="url(#mask-4)"></path>
                </g>
            </g>
            <line x1="33.7173" y1="8.6972" x2="41.1873" y2="11.1702" id="Stroke-8" stroke="#B3B3B3" stroke-width="0.308"></line>
            <line x1="32.6179" y1="10.0467" x2="40.0879" y2="12.5197" id="Stroke-9" stroke="#B3B3B3" stroke-width="0.308"></line>
            <line x1="40.289" y1="9.6974" x2="36.432" y2="13.8724" id="Stroke-10" stroke="#B3B3B3" stroke-width="0.308"></line>
            <line x1="37.3081" y1="8.4738" x2="33.4511" y2="12.6488" id="Stroke-11" stroke="#B3B3B3" stroke-width="0.308"></line>
            <line x1="9.1013" y1="17.3127" x2="16.5713" y2="19.7857" id="Stroke-12" stroke="#B3B3B3" stroke-width="0.308"></line>
            <line x1="8.002" y1="18.6622" x2="15.472" y2="21.1352" id="Stroke-13" stroke="#B3B3B3" stroke-width="0.308"></line>
            <line x1="15.673" y1="18.313" x2="11.816" y2="22.488" id="Stroke-14" stroke="#B3B3B3" stroke-width="0.308"></line>
            <line x1="12.6922" y1="17.0894" x2="8.8352" y2="21.2644" id="Stroke-15" stroke="#B3B3B3" stroke-width="0.308"></line>
        </g>
        <g id="Group-10" transform="translate(46.000000, 60.000000)">
            <g id="Group-3" transform="translate(0.000000, 0.686300)">
                <mask id="mask-6" fill="white">
                    <use xlink:href="#path-5"></use>
                </mask>
                <g id="Clip-2"></g>
                <path d="M6.8275,0.4523 C6.8275,0.4523 21.1465,6.3333 25.1965,8.6663 C29.0265,10.8733 25.1965,15.3963 19.8675,13.5793 C16.5125,12.4353 3.5675,7.1453 0.5845,4.9973 C-1.6925,3.3583 3.1695,-0.4587 6.8275,0.4523" id="Fill-1" fill="#FBB03B" mask="url(#mask-6)"></path>
            </g>
            <polygon id="Fill-4" fill="#E59933" points="24.1375 8.7807 14.7395 12.5147 20.3475 6.9607"></polygon>
            <path d="M20.9543,7.2403 C20.4533,7.6303 15.8853,11.6983 15.5973,12.7483 C12.5373,12.0593 6.1703,8.8333 6.2063,8.9023 C6.4783,9.4333 9.7223,3.4893 11.4953,3.3843 C12.9923,3.2953 18.9143,5.8133 20.6603,6.6923 C20.9843,6.8553 20.9543,7.2403 20.9543,7.2403" id="Fill-6" fill="#D38926"></path>
            <path d="M20.6606,6.6926 C20.1596,7.0826 15.4596,11.3986 15.1716,12.4486 C12.0756,12.5066 5.8126,8.8156 5.7386,8.7896 C5.7256,8.7846 5.6256,8.3956 5.7376,8.0656 C6.6206,5.4746 9.8286,3.0906 11.6006,3.1346 C13.1726,2.6286 20.6606,6.6926 20.6606,6.6926" id="Fill-8" fill="#FFC77D"></path>
        </g>
    </g>
</svg>