<?xml version="1.0" encoding="UTF-8"?>
<svg width="130px" height="85px" viewBox="0 0 130 85" version="1.1" xmlns="http://www.w3.org/2000/svg" xmlns:xlink="http://www.w3.org/1999/xlink">
    <!-- Generator: Sketch 64 (93537) - https://sketch.com -->
    <title>isanitarios-peligrosos</title>
    <desc>Created with Sketch.</desc>
    <g id="isanitarios-peligrosos" stroke="none" stroke-width="1" fill="none" fill-rule="evenodd">
        <rect id="Rectangle-Copy-15" fill="#E04A4A" fill-rule="nonzero" x="26" y="0" width="85" height="85" rx="8"></rect>
        <g id="Group-2" transform="translate(53.000000, 8.000000)">
            <path d="M0,64.023 C0,66.2445 14.4391881,68.046 32.2503444,68.046 C50.0615008,68.046 64.5,66.2445 64.5,64.023 C64.5,61.8015 50.0615008,60 32.2503444,60 C14.4391881,60 0,61.8015 0,64.023" id="Fill-1" fill="#3C7C47"></path>
            <path d="M13.15095,63.0012 L52.04895,63.0012 C52.87695,63.0012 53.54895,62.3292 53.54895,61.5012 L53.54895,4.0197 C53.54895,3.1917 52.87695,2.5197 52.04895,2.5197 L13.15095,2.5197 C12.32295,2.5197 11.65095,3.1917 11.65095,4.0197 L11.65095,61.5012 C11.65095,62.3292 12.32295,63.0012 13.15095,63.0012" id="Fill-39" fill="#CCCCCC"></path>
            <path d="M18.2682,63.0012 L52.0497,63.0012 C52.8777,63.0012 53.5497,62.3292 53.5497,61.5012 L53.5497,4.0197 C53.5497,3.1917 52.8777,2.5197 52.0497,2.5197 L18.2682,2.5197 C17.4402,2.5197 16.7682,3.1917 16.7682,4.0197 L16.7682,61.5012 C16.7682,62.3292 17.4402,63.0012 18.2682,63.0012" id="Fill-41" fill="#B3B3B3"></path>
            <path d="M39.6612,63.0012 L39.6612,63.0012 C40.4892,63.0012 41.1612,62.3292 41.1612,61.5012 L41.1612,4.0197 C41.1612,3.1917 40.4892,2.5197 39.6612,2.5197 C38.8332,2.5197 38.1612,3.1917 38.1612,4.0197 L38.1612,61.5012 C38.1612,62.3292 38.8332,63.0012 39.6612,63.0012" id="Fill-43" fill="#808080"></path>
            <path d="M44.19225,63.0012 L50.42325,63.0012 C51.25125,63.0012 51.92325,62.3292 51.92325,61.5012 L51.92325,4.0197 C51.92325,3.1917 51.25125,2.5197 50.42325,2.5197 L44.19225,2.5197 C43.36425,2.5197 42.69225,3.1917 42.69225,4.0197 L42.69225,61.5012 C42.69225,62.3292 43.36425,63.0012 44.19225,63.0012" id="Fill-47" fill="#808080"></path>
            <path d="M11.76,2.52 L53.4405,2.52 C54.1365,2.52 54.7005,1.956 54.7005,1.26 C54.7005,0.564 54.1365,1.13686838e-13 53.4405,1.13686838e-13 L11.76,1.13686838e-13 C11.064,1.13686838e-13 10.5,0.564 10.5,1.26 L10.5,1.26 C10.5,1.956 11.064,2.52 11.76,2.52" id="Fill-52" fill="#E6E6E6"></path>
            <path d="M11.76,64.02 L53.4405,64.02 C54.1365,64.02 54.7005,63.456 54.7005,62.76 C54.7005,62.064 54.1365,61.5 53.4405,61.5 L11.76,61.5 C11.064,61.5 10.5,62.064 10.5,62.76 L10.5,62.76 C10.5,63.456 11.064,64.02 11.76,64.02" id="Fill-52-Copy" fill="#E6E6E6"></path>
            <path d="M18.0285,2.52 L50.6625,2.52 C51.36,2.52 51.924,1.956 51.924,1.26 L51.924,1.26 C51.924,0.564 51.36,1.13686838e-13 50.6625,1.13686838e-13 L18.0285,1.13686838e-13 C17.3325,1.13686838e-13 16.7685,0.564 16.7685,1.26 L16.7685,1.26 C16.7685,1.956 17.3325,2.52 18.0285,2.52" id="Fill-53" fill="#CCCCCC"></path>
            <path d="M18.0285,64.02 L50.6625,64.02 C51.36,64.02 51.924,63.456 51.924,62.76 L51.924,62.76 C51.924,62.064 51.36,61.5 50.6625,61.5 L18.0285,61.5 C17.3325,61.5 16.7685,62.064 16.7685,62.76 L16.7685,62.76 C16.7685,63.456 17.3325,64.02 18.0285,64.02" id="Fill-53-Copy" fill="#CCCCCC"></path>
            <path d="M53.44065,2.52 L11.76015,2.52 C11.06415,2.52 10.50015,1.956 10.50015,1.26 L10.50015,1.26 L54.70065,1.26 C54.70065,1.956 54.13665,2.52 53.44065,2.52" id="Fill-130" fill="#808080"></path>
            <path d="M11.76,20.52 L53.4405,20.52 C54.1365,20.52 54.7005,19.956 54.7005,19.26 C54.7005,18.564 54.1365,18 53.4405,18 L11.76,18 C11.064,18 10.5,18.564 10.5,19.26 L10.5,19.26 C10.5,19.956 11.064,20.52 11.76,20.52" id="Fill-52" fill="#E6E6E6"></path>
            <path d="M11.76,47.52 L53.4405,47.52 C54.1365,47.52 54.7005,46.956 54.7005,46.26 C54.7005,45.564 54.1365,45 53.4405,45 L11.76,45 C11.064,45 10.5,45.564 10.5,46.26 L10.5,46.26 C10.5,46.956 11.064,47.52 11.76,47.52" id="Fill-52-Copy-2" fill="#E6E6E6"></path>
            <path d="M18.0285,20.52 L50.6625,20.52 C51.36,20.52 51.924,19.956 51.924,19.26 L51.924,19.26 C51.924,18.564 51.36,18 50.6625,18 L18.0285,18 C17.3325,18 16.7685,18.564 16.7685,19.26 L16.7685,19.26 C16.7685,19.956 17.3325,20.52 18.0285,20.52" id="Fill-53" fill="#CCCCCC"></path>
            <path d="M18.0285,47.52 L50.6625,47.52 C51.36,47.52 51.924,46.956 51.924,46.26 L51.924,46.26 C51.924,45.564 51.36,45 50.6625,45 L18.0285,45 C17.3325,45 16.7685,45.564 16.7685,46.26 L16.7685,46.26 C16.7685,46.956 17.3325,47.52 18.0285,47.52" id="Fill-53-Copy-2" fill="#CCCCCC"></path>
            <path d="M53.44065,20.52 L11.76015,20.52 C11.06415,20.52 10.50015,19.956 10.50015,19.26 L10.50015,19.26 L54.70065,19.26 C54.70065,19.956 54.13665,20.52 53.44065,20.52" id="Fill-130" fill="#808080"></path>
            <path d="M53.44065,47.52 L11.76015,47.52 C11.06415,47.52 10.50015,46.956 10.50015,46.26 L10.50015,46.26 L54.70065,46.26 C54.70065,46.956 54.13665,47.52 53.44065,47.52" id="Fill-130-Copy-2" fill="#808080"></path>
            <path d="M53.44065,64.02 L11.76015,64.02 C11.06415,64.02 10.50015,63.456 10.50015,62.76 L10.50015,62.76 L54.70065,62.76 C54.70065,63.456 54.13665,64.02 53.44065,64.02" id="Fill-130-Copy" fill="#808080"></path>
            <path d="M37.266744,22.6477251 C38.3538122,23.8263509 38.9335819,25.3471583 38.9335819,26.9820263 C38.9335819,27.8184704 38.7886395,28.6168944 38.462519,29.4153183 C39.2597024,29.5293788 39.9844145,29.7955201 40.7091267,30.2137422 C42.0498441,31.0121661 43.0282055,32.3428726 43.4630328,33.9017003 C43.5717396,34.243882 43.4267972,34.4720031 43.2093836,34.5860636 C42.9919699,34.7001242 42.7383207,34.5860636 42.5933783,34.3579425 C42.2310222,33.635559 41.6874881,33.0652562 41.0352471,32.6850543 C40.0931214,32.1147515 38.9698175,31.9626708 37.8827493,32.2668323 C36.8319167,32.5709938 35.9260265,33.2933773 35.3824924,34.2819021 C34.2591886,36.3730124 34.9114295,39.0344255 36.9043879,40.2130512 C37.5566289,40.6312733 38.3175766,40.8213742 39.0785244,40.783354 C39.3321736,40.783354 39.5495873,40.973455 39.5858229,41.2395963 C39.6220585,41.5057376 39.477116,41.7338587 39.2234668,41.8098991 C38.7524039,41.9239596 38.2451054,42 37.7740425,42 C36.7232099,42 35.7086129,41.6958385 34.8027227,41.1635559 C34.1142462,40.7073137 33.4982409,40.1370109 33.027178,39.4906677 C32.5561151,40.175031 31.9401098,40.7073137 31.2516332,41.1255357 C29.9471514,41.9239596 28.316549,42.1520807 26.8308892,41.7718789 C26.5772399,41.6958385 26.4322975,41.4677174 26.4685331,41.2015761 C26.5047687,40.9354348 26.7221823,40.7453338 26.939596,40.7453338 L27.0845384,40.7453338 L27.0845384,40.7453338 C27.8092505,40.7453338 28.4977271,40.5552329 29.1137324,40.175031 C31.1066908,38.9583851 31.7589317,36.296972 30.6356279,34.243882 C30.0920938,33.2553571 29.1862036,32.5329736 28.135371,32.2288121 C27.0845384,31.9246506 25.9612346,32.0767313 24.9828732,32.6470341 C24.3306323,33.0652562 23.7870982,33.635559 23.4247421,34.3199223 C23.3160353,34.5480435 23.062386,34.662104 22.8087368,34.5480435 C22.5913231,34.4720031 22.4463807,34.2058618 22.5188519,33.9397205 C22.9536792,32.3808928 23.9320406,31.0501863 25.272758,30.2517624 C25.9612346,29.8335403 26.7221823,29.567399 27.5193657,29.4533385 C27.1932452,28.6929347 27.0483028,27.8564906 27.0483028,27.0200465 C27.0483028,25.3851785 27.6280725,23.8643711 28.7151407,22.6857453 C28.8963188,22.4956443 29.149968,22.4956443 29.3673817,22.6477251 C29.5485597,22.7998058 29.6210309,23.1039673 29.4760885,23.2940683 C29.0774968,23.9784316 28.8600832,24.7768555 28.8600832,25.5752794 C28.8600832,27.9705512 30.7080991,29.9095807 32.9909424,29.9095807 C35.2737856,29.9095807 37.1218016,27.9705512 37.1218016,25.5752794 C37.1218016,24.7768555 36.9043879,23.9784316 36.5057963,23.2940683 C36.3608538,23.0659471 36.433325,22.7998058 36.6145031,22.6097049 C36.7956811,22.4576242 37.085566,22.4576242 37.266744,22.6477251 Z M39.0060531,33.3694177 C39.2234668,33.4074379 39.477116,33.4074379 39.7307653,33.4834782 C39.5133516,35.5365683 38.4987547,37.3995574 36.9406235,38.540163 C36.433325,38.0078804 36.1796758,37.3235171 36.1072046,36.6011335 C36.9768592,35.87875 37.5203933,34.8141848 37.7378069,33.6735792 C37.8827493,33.5975388 38.0639274,33.5214984 38.2451054,33.4834782 C38.4987547,33.4074379 38.7524039,33.3694177 39.0060531,33.3694177 Z M27.0845384,33.3694177 C27.3381877,33.3694177 27.5918369,33.4074379 27.8454862,33.4834782 C28.0266642,33.5214984 28.1716066,33.5975388 28.3527847,33.6735792 C28.5339627,34.8141848 29.1137324,35.87875 29.983387,36.6011335 C29.9471514,37.3235171 29.6572665,38.0078804 29.149968,38.540163 C27.5556013,37.3995574 26.5047687,35.5365683 26.3235907,33.4834782 C26.5410043,33.4074379 26.8308892,33.3694177 27.0845384,33.3694177 Z M33.027178,31.6965295 C32.4268068,31.6965295 31.9401098,32.207196 31.9401098,32.8371351 C31.9401098,33.4670741 32.4268068,33.9777407 33.027178,33.9777407 C33.6275492,33.9777407 34.1142462,33.4670741 34.1142462,32.8371351 C34.1142462,32.207196 33.6275492,31.6965295 33.027178,31.6965295 Z M35.8173197,26.4117235 C35.6361417,27.1341071 35.2013144,27.7424301 34.6577803,28.1226319 C33.6431833,27.7424301 32.4474083,27.7424301 31.3965757,28.1226319 C30.8530415,27.7424301 30.4182143,27.1341071 30.2370362,26.4117235 C31.9763454,25.5752794 34.0780106,25.5752794 35.8173197,26.4117235 Z" id="Biohazard" fill="#FFFFFF" fill-rule="nonzero"></path>
        </g>
        <g id="Group-18" transform="translate(63.500000, 50.000000) scale(-1, 1) translate(-63.500000, -50.000000) translate(30.000000, 25.000000)">
            <path d="M17,48 C17,49.1043997 28.1931691,50 42.000267,50 C55.8073649,50 67,49.1043997 67,48 C67,46.8956003 55.8073649,46 42.000267,46 C28.1931691,46 17,46.8956003 17,48" id="Fill-1" fill="#3C7C47"></path>
            <path d="M34.1934612,49 L59.8065388,49 C60.465685,49 61,48.5617798 61,48.0211789 L61,0.978821071 C61,0.43822021 60.465685,0 59.8065388,0 L34.1934612,0 C33.534315,0 33,0.43822021 33,0.978821071 L33,48.0211789 C33,48.5617798 33.534315,49 34.1934612,49" id="Fill-11" fill="#D13100"></path>
            <path d="M24.7608754,49 L49.2391246,49 C50.2122399,49 51,48.353916 51,47.5558123 L51,1.44418767 C51,0.646083956 50.2122399,0 49.2391246,0 L24.7608754,0 C23.7887058,0 23,0.646083956 23,1.44418767 L23,47.5558123 C23,48.353916 23.7887058,49 24.7608754,49" id="Fill-15" fill="#E8502D"></path>
            <path d="M15.266744,5.64772508 C16.3538122,6.82635087 16.9335819,8.34715832 16.9335819,9.98202634 C16.9335819,10.8184704 16.7886395,11.6168944 16.462519,12.4153183 C17.2597024,12.5293788 17.9844145,12.7955201 18.7091267,13.2137422 C20.0498441,14.0121661 21.0282055,15.3428726 21.4630328,16.9017003 C21.5717396,17.243882 21.4267972,17.4720031 21.2093836,17.5860636 C20.9919699,17.7001242 20.7383207,17.5860636 20.5933783,17.3579425 C20.2310222,16.635559 19.6874881,16.0652562 19.0352471,15.6850543 C18.0931214,15.1147515 16.9698175,14.9626708 15.8827493,15.2668323 C14.8319167,15.5709938 13.9260265,16.2933773 13.3824924,17.2819021 C12.2591886,19.3730124 12.9114295,22.0344255 14.9043879,23.2130512 C15.5566289,23.6312733 16.3175766,23.8213742 17.0785244,23.783354 C17.3321736,23.783354 17.5495873,23.973455 17.5858229,24.2395963 C17.6220585,24.5057376 17.477116,24.7338587 17.2234668,24.8098991 C16.7524039,24.9239596 16.2451054,25 15.7740425,25 C14.7232099,25 13.7086129,24.6958385 12.8027227,24.1635559 C12.1142462,23.7073137 11.4982409,23.1370109 11.027178,22.4906677 C10.5561151,23.175031 9.94010976,23.7073137 9.25163322,24.1255357 C7.94715137,24.9239596 6.31654905,25.1520807 4.83088916,24.7718789 C4.57723991,24.6958385 4.43229748,24.4677174 4.46853308,24.2015761 C4.50476869,23.9354348 4.72218233,23.7453338 4.93959598,23.7453338 L5.08453841,23.7453338 L5.08453841,23.7453338 C5.80925055,23.7453338 6.49772708,23.5552329 7.1137324,23.175031 C9.1066908,21.9583851 9.75893172,19.296972 8.6356279,17.243882 C8.0920938,16.2553571 7.18620362,15.5329736 6.13537101,15.2288121 C5.08453841,14.9246506 3.96123458,15.0767313 2.98287319,15.6470341 C2.33063226,16.0652562 1.78709816,16.635559 1.42474209,17.3199223 C1.31603526,17.5480435 1.06238601,17.662104 0.808736764,17.5480435 C0.591323121,17.4720031 0.446380693,17.2058618 0.518851907,16.9397205 C0.953679193,15.3808928 1.93204059,14.0501863 3.27275805,13.2517624 C3.96123458,12.8335403 4.72218233,12.567399 5.51936569,12.4533385 C5.19324523,11.6929347 5.0483028,10.8564906 5.0483028,10.0200465 C5.0483028,8.38517851 5.62807251,6.86437105 6.71514073,5.68574527 C6.89631876,5.49564434 7.14996801,5.49564434 7.36738165,5.64772508 C7.54855969,5.79980583 7.6210309,6.10396732 7.47608848,6.29406825 C7.0774968,6.97843161 6.86008315,7.77685553 6.86008315,8.57527944 C6.86008315,10.9705512 8.70809912,12.9095807 10.9909424,12.9095807 C13.2737856,12.9095807 15.1218016,10.9705512 15.1218016,8.57527944 C15.1218016,7.77685553 14.9043879,6.97843161 14.5057963,6.29406825 C14.3608538,6.06594714 14.433325,5.79980583 14.6145031,5.6097049 C14.7956811,5.45762415 15.085566,5.45762415 15.266744,5.64772508 Z M17.0060531,16.3694177 C17.2234668,16.4074379 17.477116,16.4074379 17.7307653,16.4834782 C17.5133516,18.5365683 16.4987547,20.3995574 14.9406235,21.540163 C14.433325,21.0078804 14.1796758,20.3235171 14.1072046,19.6011335 C14.9768592,18.87875 15.5203933,17.8141848 15.7378069,16.6735792 C15.8827493,16.5975388 16.0639274,16.5214984 16.2451054,16.4834782 C16.4987547,16.4074379 16.7524039,16.3694177 17.0060531,16.3694177 Z M5.08453841,16.3694177 C5.33818766,16.3694177 5.5918369,16.4074379 5.84548615,16.4834782 C6.02666419,16.5214984 6.17160662,16.5975388 6.35278465,16.6735792 C6.53396269,17.8141848 7.1137324,18.87875 7.98338698,19.6011335 C7.94715137,20.3235171 7.65726651,21.0078804 7.14996801,21.540163 C5.5556013,20.3995574 4.50476869,18.5365683 4.32359066,16.4834782 C4.5410043,16.4074379 4.83088916,16.3694177 5.08453841,16.3694177 Z M11.027178,14.6965295 C10.4268068,14.6965295 9.94010976,15.207196 9.94010976,15.8371351 C9.94010976,16.4670741 10.4268068,16.9777407 11.027178,16.9777407 C11.6275492,16.9777407 12.1142462,16.4670741 12.1142462,15.8371351 C12.1142462,15.207196 11.6275492,14.6965295 11.027178,14.6965295 Z M13.8173197,9.41172355 C13.6361417,10.1341071 13.2013144,10.7424301 12.6577803,11.1226319 C11.6431833,10.7424301 10.4474083,10.7424301 9.39657565,11.1226319 C8.85304155,10.7424301 8.41821426,10.1341071 8.23703623,9.41172355 C9.97634537,8.57527944 12.0780106,8.57527944 13.8173197,9.41172355 Z" id="Biohazard" fill="#FFFFFF" fill-rule="nonzero"></path>
            <path d="M39.1413177,18.106059 C39.8142647,18.9522519 40.1731698,20.0441137 40.1731698,21.2178651 C40.1731698,21.818389 40.0834435,22.3916165 39.8815594,22.9648439 C40.3750539,23.0467335 40.8236852,23.2378093 41.2723165,23.5380713 C42.1022845,24.1112987 42.7079368,25.0666778 42.9771156,26.1858361 C43.0444103,26.431505 42.954684,26.5952843 42.8200946,26.6771739 C42.6855052,26.7590635 42.5284842,26.6771739 42.438758,26.5133946 C42.2144423,25.9947603 41.8779688,25.5853121 41.4742006,25.3123467 C40.8909799,24.9028985 40.1956013,24.7937123 39.5226543,25.0120847 C38.8721389,25.2304571 38.3113498,25.7490914 37.9748763,26.4588015 C37.2794977,27.9601115 37.6832659,29.8708696 38.9170021,30.7170624 C39.3207702,31.0173244 39.7918331,31.1538071 40.262896,31.1265106 C40.419917,31.1265106 40.5545064,31.2629933 40.576938,31.4540691 C40.5993695,31.6451449 40.5096433,31.8089242 40.3526223,31.8635173 C40.0610119,31.9454069 39.74697,32 39.4553596,32 C38.8048442,32 38.1767604,31.7816276 37.6159712,31.399476 C37.1897714,31.0719175 36.8084348,30.6624693 36.5168245,30.1984281 C36.2252141,30.6897659 35.8438775,31.0719175 35.4176777,31.3721795 C34.6101413,31.9454069 33.6007208,32.1091862 32.6810266,31.8362207 C32.5240057,31.7816276 32.4342794,31.6178484 32.456711,31.4267726 C32.4791425,31.2356968 32.6137319,31.099214 32.7483213,31.099214 L32.8380476,31.099214 L32.8380476,31.099214 C33.2866789,31.099214 33.7128787,30.9627313 34.0942153,30.6897659 C35.3279514,29.8162765 35.7317196,27.9055184 35.0363411,26.431505 C34.6998676,25.7217948 34.1390784,25.2031605 33.488563,24.9847882 C32.8380476,24.7664158 32.142669,24.875602 31.5370167,25.2850501 C31.1332485,25.5853121 30.796775,25.9947603 30.5724594,26.4860981 C30.5051647,26.6498773 30.3481437,26.731767 30.1911228,26.6498773 C30.0565334,26.5952843 29.9668071,26.4042085 30.0116702,26.2131326 C30.280849,25.0939743 30.8865013,24.1385953 31.7164693,23.5653679 C32.142669,23.2651059 32.6137319,23.0740301 33.1072264,22.9921404 C32.9053423,22.4462096 32.815616,21.8456856 32.815616,21.2451616 C32.815616,20.0714102 33.1745211,18.9795484 33.8474681,18.1333556 C33.9596259,17.9968729 34.1166469,17.9968729 34.2512363,18.106059 C34.3633941,18.2152452 34.4082572,18.4336176 34.318531,18.5701003 C34.0717837,19.0614381 33.9371943,19.6346655 33.9371943,20.2078929 C33.9371943,21.9275752 35.0812042,23.319699 36.4943929,23.319699 C37.9075816,23.319699 39.0515915,21.9275752 39.0515915,20.2078929 C39.0515915,19.6346655 38.9170021,19.0614381 38.6702548,18.5701003 C38.5805286,18.406321 38.6253917,18.2152452 38.7375495,18.0787625 C38.8497074,17.9695763 39.0291599,17.9695763 39.1413177,18.106059 Z M40.2180329,25.8036845 C40.3526223,25.830981 40.5096433,25.830981 40.6666642,25.8855741 C40.5320748,27.3595875 39.903991,28.6971182 38.9394336,29.5160145 C38.6253917,29.1338629 38.4683707,28.6425251 38.4235076,28.1238907 C38.9618652,27.6052564 39.2983387,26.8409532 39.4329281,26.0220568 C39.5226543,25.9674637 39.6348122,25.9128707 39.74697,25.8855741 C39.903991,25.830981 40.0610119,25.8036845 40.2180329,25.8036845 Z M32.8380476,25.8036845 C32.9950685,25.8036845 33.1520895,25.830981 33.3091105,25.8855741 C33.4212683,25.9128707 33.5109946,25.9674637 33.6231524,26.0220568 C33.7353102,26.8409532 34.0942153,27.6052564 34.6325729,28.1238907 C34.6101413,28.6425251 34.4306888,29.1338629 34.1166469,29.5160145 C33.1296579,28.6971182 32.4791425,27.3595875 32.3669847,25.8855741 C32.5015741,25.830981 32.6810266,25.8036845 32.8380476,25.8036845 Z M36.5168245,24.6026365 C36.1451661,24.6026365 35.8438775,24.9692689 35.8438775,25.4215329 C35.8438775,25.8737968 36.1451661,26.2404292 36.5168245,26.2404292 C36.8884828,26.2404292 37.1897714,25.8737968 37.1897714,25.4215329 C37.1897714,24.9692689 36.8884828,24.6026365 36.5168245,24.6026365 Z M38.2440551,20.8084169 C38.1318972,21.3270512 37.8627184,21.7637959 37.5262449,22.0367614 C36.8981611,21.7637959 36.1579194,21.7637959 35.507404,22.0367614 C35.1709305,21.7637959 34.9017517,21.3270512 34.7895939,20.8084169 C35.866309,20.2078929 37.1673399,20.2078929 38.2440551,20.8084169 Z" id="Biohazard" fill="#FFFFFF" fill-rule="nonzero"></path>
            <polygon id="Fill-17" fill="#D13100" points="23 1 51 1 51 0 23 0"></polygon>
            <polygon id="Fill-18" fill="#961C00" points="25 1 30 1 30 0 25 0"></polygon>
        </g>
    </g>
</svg>