<svg xmlns="http://www.w3.org/2000/svg" xmlns:xlink="http://www.w3.org/1999/xlink" width="130" height="85" viewBox="0 0 130 85">
  <defs>
    <polygon id="iservilletas-a" points=".149 .142 23.501 .142 23.501 8.794 .149 8.794"/>
  </defs>
  <g fill="none" fill-rule="evenodd">
    <rect width="85" height="85" x="26" fill="#8E968B" fill-rule="nonzero" rx="8"/>
    <g transform="translate(39 8)">
      <path fill="#61705A" d="M0,62.7165 C0,64.2365 6.872,65.4695 15.35,65.4695 C23.828,65.4695 30.7,64.2365 30.7,62.7165 C30.7,61.1965 23.828,59.9635 15.35,59.9635 C6.872,59.9635 0,61.1965 0,62.7165"/>
      <path fill="#EAE3C3" d="M18.1361,4.3512 L2.7481,55.2642 C2.7481,55.2642 3.7661,67.9472 24.0481,64.2432 C44.1671,11.3662 41.4871,4.0692 41.4871,4.0692 L18.1361,4.3512 Z"/>
      <path fill="#D6D1BD" d="M27.09,11.1 L13.962,64.719 C13.962,64.719 26.654,66.46 30.058,63.125 C33.462,59.79 43.174,5.737 43.174,5.737 L27.09,11.1 Z"/>
      <g transform="translate(18 .859)">
        <mask id="iservilletas-b" fill="#fff">
          <use xlink:href="#iservilletas-a"/>
        </mask>
        <path fill="#F7F3E2" d="M0.149479382,4.609 C0.1786,6.997 5.4296,8.87 11.8776,8.792 C18.3256,8.715 23.5296,6.716 23.5007206,4.327 C23.4716,1.939 18.2216,0.066 11.7726,0.144 C5.3246,0.222 0.1206,2.221 0.149479382,4.609" mask="url(#iservilletas-b)"/>
      </g>
      <path fill="#9BA498" d="M24.624163,5.0413 C24.6352,5.9913 27.1012,6.7313 30.1312,6.6953 C33.1612,6.6583 35.6072,5.8583 35.596237,4.9093 C35.5842,3.9593 33.1192,3.2193 30.0892,3.2553 C27.0592,3.2923 24.6132,4.0913 24.624163,5.0413"/>
      <path fill="#F7F3E2" d="M23.4621,64.7314 C23.4621,64.7314 19.6771,53.4514 27.5901,39.9034 C35.5031,26.3544 43.1711,6.3794 42.1971,4.6304 C57.6621,15.5894 57.6401,17.9154 57.1791,20.9384 C56.7181,23.9614 39.0691,61.4194 39.6351,69.8584 C33.8571,63.1004 23.4621,64.7314 23.4621,64.7314"/>
      <path fill="#EAE3C3" d="M49.267 40.3511L33.432 45.0291C25.504 47.0301 23.462 64.7481 23.462 64.7481 23.462 64.7481 33.418 63.4721 39.258 69.4721L39.634 69.4721C39.616 64.4721 44.599 51.6371 49.267 40.3511M30.5043 37.6473C30.5043 37.6473 51.6023 34.3613 53.0273 30.7583 54.4533 27.1553 42.0083 9.5043 42.0083 9.5043 42.0083 9.5043 33.3583 35.1263 30.5043 37.6473"/>
      <path fill="#F7F3E2" d="M2.7479,55.2643 C2.7479,55.2643 2.8909,57.1073 4.0529,59.0983 L20.8579,6.7383 L19.8229,4.3313 L18.1359,4.3513 L2.7479,55.2643 Z"/>
      <path fill="#F7931E" d="M45.5272 39.2339C46.3612 38.0229 49.8952 33.4199 46.7452 31.3809 43.5952 29.3419 38.4072 32.0749 39.9312 34.8519 41.4562 37.6299 43.8872 41.6159 45.5272 39.2339M29.6314 65.4673C29.6314 65.4673 24.0054 53.8123 31.9284 53.7413 39.8524 53.6713 41.5994 58.1143 41.1264 53.6203 40.6544 49.1263 40.9794 46.3173 43.8624 46.4263L46.7454 46.5363C46.7454 46.5363 39.1504 66.2613 39.6344 69.8583 34.3584 64.1593 29.6314 65.4673 29.6314 65.4673"/>
      <path fill="#F7931E" d="M39.05,46.4234 C39.659,46.8044 40.298,48.5914 39.05,48.7694 C37.802,48.9474 36.712,44.9604 39.05,46.4234"/>
      <path fill="#F7F3E2" d="M41.606,60.5127 C41.606,60.5127 35.618,58.2327 35.596,60.8977 C35.574,63.5637 39.932,65.2677 39.932,65.2677 L41.606,60.5127 Z"/>
      <path fill="#F7931E" d="M54.3895,27.5851 C54.3895,27.5851 48.7645,24.4091 51.5265,22.3301 C54.2895,20.2521 46.0515,14.0871 52.5765,12.6241 L58.5665,18.6471 L54.3895,27.5851 Z"/>
    </g>
  </g>
</svg>
