<svg xmlns="http://www.w3.org/2000/svg" width="130" height="85" viewBox="0 0 130 85">
    <g fill="none" fill-rule="evenodd">
        <rect width="85" height="85" x="27" fill="#5BA95B" fill-rule="nonzero" rx="8"/>
        <ellipse cx="37.5" cy="80" fill="#498D49" fill-rule="nonzero" rx="17.5" ry="4"/>
        <ellipse cx="61.5" cy="79.5" fill="#498D49" fill-rule="nonzero" rx="19.5" ry="1.5"/>
        <g>
            <path fill="#D3B289" d="M74.353 39.65s10.653 2.94 10.203 8.823c-.451 5.883 14.36-6.617 7.736-14.009C85.67 27.072 73 38.669 73 38.669l1.353.98z" transform="translate(24 4)"/>
            <path fill="#C6A47F" d="M93.773 37c-4.412.265-12.848 1.392-19.773 2.388l.47.332s7.068 3.227 9.955 6.28c1.373-1.827 3.58-4.862 9.575-5.86-.033-.528-.057-2.627-.227-3.14" transform="translate(24 4)"/>
            <path fill="#EFCB9C" d="M94 38.447S75.155 40.619 75.632 49.82c.689 13.26-10.635 19.796-14.293 19.134C57.014 63.663 49.543 50.918 32 39.76c16.201-7.061 10.144-22.534 12.87-27.608C49 .934 67.902-1.698 68.604.948c.703 2.647 16.16 27.033 19.906 28.665C94 33.977 94 38.447 94 38.447" transform="translate(24 4)"/>
            <path fill="#F7DBBA" d="M51.684 11.622L82 40.965 77.958 44S48.89 18.08 48.169 13.683c-.72-4.396.935-4.557 3.515-2.06" transform="translate(24 4)"/>
            <path fill="#D3B289" d="M43.564 24.303C43.927 21.02 60.887 45.395 61 50.083c.112 4.688-29-10.123-29-10.123s10.247-3.766 11.564-15.657M69.178 42.263c-.51-.528-20.904-23.817-13.6-11.847 7.303 11.97 20.197 18.68 13.6 11.847" transform="translate(24 4)"/>
            <path fill="#FFA727" d="M38.907 43s13.316-5.893 12.265-16.916C50.121 15.062 59.372 8.498 72 8.17c-.443-.626-.049-1.572-2.418-4.17-10.794 1.71-23.175 6.473-21.592 18.038.426 3.563.033 12.123-11.99 16.898C37.76 41.375 38.907 43 38.907 43" transform="translate(24 4)"/>
            <path fill="#E28A17" d="M48.099 27C47.19 30.932 44.257 35.778 36 38.95c1.813 2.43 2.996 4.05 2.996 4.05S48.351 38.989 51 31.405c-.97-1.507-1.946-2.989-2.901-4.405" transform="translate(24 4)"/>
            <path fill="#F97D0D" d="M58.81 66s12.875-5.44 11.858-15.615C69.652 40.211 79.79 34.104 92 33.8c-.43-.578-.415-1.64-3.533-3.8C78.03 31.578 66.06 35.976 67.59 46.651c.413 3.289.033 11.19-11.591 15.598C57.7 64.499 58.81 66 58.81 66" transform="translate(24 4)"/>
            <path fill="#D66100" d="M69.315 42.117c-.056-.065-.377-.478-.878-1.117-.224.765-.374 1.57-.437 2.425 2.956 2.32 4.315 2.233 1.315-1.308" transform="translate(24 4)"/>
            <path fill="#FFA727" d="M58.81 66s12.875-5.44 11.858-15.615C69.652 40.211 79.79 34.104 92 33.8c-.43-.578-.415-1.64-3.533-3.8C78.03 31.578 66.06 35.976 67.59 46.651c.413 3.289.033 11.19-11.591 15.598C57.7 64.499 58.81 66 58.81 66" transform="translate(24 4)"/>
            <path fill="#D3B289" d="M52.3 51.245c1.257.354 22.892 6.025 20.518 8.452-2.373 2.428-4.378 5.3-10.402 8.303-5.748-7.668-17.342-18.793-10.116-16.755" transform="translate(24 4)"/>
            <path fill="#F15A24" d="M58.81 66s12.875-5.44 11.858-15.615C69.652 40.211 79.79 34.104 92 33.8c-.43-.578-.415-1.64-3.533-3.8C78.03 31.578 66.06 35.976 67.59 46.651c.413 3.289.033 11.19-11.591 15.598C57.7 64.499 58.81 66 58.81 66" transform="translate(24 4)"/>
            <path fill="#D66100" d="M69.315 42.117c-.056-.065-.377-.478-.878-1.117-.224.765-.374 1.57-.437 2.425 2.956 2.32 4.315 2.233 1.315-1.308" transform="translate(24 4)"/>
            <path fill="#F2F2F2" d="M29.928 29.053s-5.19 25.245-7.163 27.568c-1.974 2.323-18.553 5.953-19.193 9.938-.641 3.985-6.65 12.237 10.06 11.379 16.712-.857 27.303-8.792 28.134-12.839.83-4.046 10.59-29.32 6.022-32.29-4.57-2.968-15.575-6.652-17.86-3.756" transform="translate(24 4)"/>
            <path fill="#2968CE" d="M47.969 46C40.417 41.692 31.37 40.241 28 39.868c.306-1.322.599-2.614.87-3.828 9.951-.472 16.973 3.34 20.13 5.518-.283 1.418-.635 2.916-1.031 4.442" transform="translate(24 4)"/>
            <path fill="#ED1C24" d="M29.81 30.05c9.046-.489 15.66 2.703 19.132 4.948.14 1.333.018 3.054-.28 5.002-7.519-4.332-16.476-5.757-19.662-6.105.338-1.582.617-2.916.81-3.845" transform="translate(24 4)"/>
            <path fill="#E6E6E6" d="M43 61.166c-.543 1.618-.942 2.858-1.085 3.525C41.494 66.635 38.713 69.47 34 72c.022-12.43 7.898-11.084 9-10.834M2.1 67.099c1.092-1.22 4.82-3.673 8.361-5.099 12.053 6.14 10.78 13.33 10.18 15.24-2.067.34-4.252.584-6.554.698-17.22.857-15.055-7.415-11.987-10.84" transform="translate(24 4)"/>
            <path fill="#D3B289" d="M72.04 16.194c.772 1.37 1.157 2.619.86 2.787-.3.17-1.168-.805-1.94-2.176-.772-1.37-1.157-2.617-.86-2.786.299-.168 1.168.805 1.94 2.175M79.04 25.194c.772 1.37 1.157 2.619.86 2.787-.3.17-1.168-.805-1.94-2.176-.772-1.37-1.157-2.617-.86-2.786.299-.168 1.168.805 1.94 2.175M75.494 17.232c.48.816.648 1.596.375 1.744-.272.148-.882-.394-1.363-1.209-.48-.815-.648-1.595-.375-1.743.272-.147.882.393 1.363 1.208M82.494 27.232c.48.816.648 1.596.375 1.744-.272.148-.882-.394-1.363-1.209-.48-.815-.648-1.595-.375-1.743.272-.147.882.393 1.363 1.208M93.494 35.821c.48.544.648 1.064.376 1.163-.274.098-.884-.262-1.363-.805-.481-.544-.65-1.064-.376-1.163.272-.098.882.262 1.363.805M89.533 36.204c.468.812.607 1.602.313 1.766-.294.164-.913-.362-1.379-1.175-.467-.81-.608-1.602-.312-1.765.294-.164.911.361 1.378 1.174M85.494 37.232c.48.816.648 1.596.375 1.744-.272.148-.882-.394-1.363-1.209-.48-.815-.648-1.595-.375-1.743.272-.147.882.393 1.363 1.208M81.494 39.232c.48.816.648 1.596.375 1.744-.272.148-.882-.394-1.363-1.209-.48-.815-.648-1.595-.375-1.743.272-.147.882.393 1.363 1.208M77.494 42.232c.48.816.648 1.596.375 1.744-.272.148-.882-.394-1.363-1.209-.48-.815-.648-1.595-.375-1.743.272-.147.882.393 1.363 1.208M73.948 46.032c.79.786 1.23 1.634.983 1.892-.248.26-1.09-.169-1.88-.955-.79-.788-1.23-1.636-.982-1.894s1.09.17 1.88.957M72.948 53.032c.79.786 1.23 1.634.983 1.892-.248.26-1.09-.169-1.88-.955-.79-.788-1.23-1.636-.982-1.894s1.09.17 1.88.957" transform="translate(24 4)"/>
            <path fill="#EFCB9C" d="M71.948 57.032c.79.786 1.23 1.634.983 1.892-.248.26-1.09-.169-1.88-.955-.79-.788-1.23-1.636-.982-1.894s1.09.17 1.88.957M65.948 64.032c.79.786 1.23 1.634.983 1.892-.248.26-1.09-.169-1.88-.955-.79-.788-1.23-1.636-.982-1.894s1.09.17 1.88.957M63.43 66.183c.499.81.71 1.607.473 1.783-.238.175-.834-.34-1.333-1.15-.499-.808-.71-1.606-.473-1.782.238-.175.834.34 1.333 1.15M68.948 61.032c.79.786 1.23 1.634.983 1.892-.248.26-1.09-.169-1.88-.955-.79-.788-1.23-1.636-.982-1.894s1.09.17 1.88.957" transform="translate(24 4)"/>
            <path fill="#D3B289" d="M72.948 50.032c.79.786 1.23 1.634.983 1.892-.248.26-1.09-.169-1.88-.955-.79-.788-1.23-1.636-.982-1.894s1.09.17 1.88.957M66.494 1.821c.48.544.648 1.064.376 1.163-.274.098-.884-.262-1.363-.805-.481-.544-.65-1.064-.376-1.163.272-.098.882.262 1.363.805M63.533 3.204c.468.812.607 1.602.313 1.766-.294.164-.913-.362-1.379-1.175-.467-.81-.608-1.602-.312-1.765.294-.164.911.361 1.378 1.174M59.494 4.232c.48.816.648 1.596.375 1.744-.272.148-.882-.394-1.363-1.209-.48-.815-.648-1.595-.375-1.743.272-.147.882.393 1.363 1.208M54.494 6.232c.48.816.648 1.596.375 1.744-.272.148-.882-.394-1.363-1.209-.48-.815-.648-1.595-.375-1.743.272-.147.882.393 1.363 1.208M50.494 9.232c.48.816.648 1.596.375 1.744-.272.148-.882-.394-1.363-1.209-.48-.815-.648-1.595-.375-1.743.272-.147.882.393 1.363 1.208M47.948 13.032c.79.786 1.23 1.634.983 1.892-.248.26-1.09-.169-1.88-.955-.79-.788-1.23-1.636-.982-1.894s1.09.17 1.88.957M46.948 21.032c.79.786 1.23 1.634.983 1.892-.248.26-1.09-.169-1.88-.955-.79-.788-1.23-1.636-.982-1.894s1.09.17 1.88.957M46.948 17.032c.79.786 1.23 1.634.983 1.892-.248.26-1.09-.169-1.88-.955-.79-.788-1.23-1.636-.982-1.894s1.09.17 1.88.957" transform="translate(24 4)"/>
        </g>
    </g>
</svg>
