<?xml version="1.0" encoding="UTF-8"?>
<svg width="130px" height="85px" viewBox="0 0 130 85" version="1.1" xmlns="http://www.w3.org/2000/svg" xmlns:xlink="http://www.w3.org/1999/xlink">
    <!-- Generator: Sketch 64 (93537) - https://sketch.com -->
    <title>Ilustración toallas sanitarias</title>
    <desc>Created with Sketch.</desc>
    <defs>
        <polygon id="path-1" points="0 0.361102097 38.6367365 0.361102097 38.6367365 47.999964 0 47.999964"></polygon>
        <polygon id="path-3" points="0 0.361102097 38.6367365 0.361102097 38.6367365 47.999964 0 47.999964"></polygon>
        <polygon id="path-5" points="0.149479382 0.142 23.5007206 0.142 23.5007206 8.7943504 0.149479382 8.7943504"></polygon>
    </defs>
    <g id="Ilustración-toallas-sanitarias" stroke="none" stroke-width="1" fill="none" fill-rule="evenodd">
        <rect id="Rectangle-Copy-17" fill="#8E968B" fill-rule="nonzero" x="26" y="0" width="85" height="85" rx="8"></rect>
        <ellipse id="Oval" fill="#61705A" fill-rule="nonzero" cx="42.7599832" cy="70.5" rx="21.5" ry="2.5"></ellipse>
        <g id="Group-43" transform="translate(45.724390, 51.582469) rotate(27.000000) translate(-45.724390, -51.582469) translate(26.224390, 26.582469)">
            <g id="Group-3" transform="translate(0.000000, 2.000000)">
                <mask id="mask-2" fill="white">
                    <use xlink:href="#path-1"></use>
                </mask>
                <g id="Clip-2"></g>
                <path d="M34.3387328,18.231616 C34.3387328,18.231616 40.4125033,8.311616 35.6174213,3.404736 C30.8223393,-1.501504 23.4698803,-0.328384 20.8057328,5.858496 C18.1422246,12.044736 19.101241,16.418496 15.7977492,16.738496 C12.4942574,17.058496 10.4700934,16.631616 8.97786393,19.298496 C7.48627377,21.964736 3.99673279,25.538496 6.34056885,26.818496 C8.68504426,28.098496 11.2961262,28.723136 10.0167984,30.498496 C5.46147049,36.818496 -3.40943115,36.178496 1.3767,44.190016 C3.93791311,48.478016 15.6206508,50.338496 21.6848311,43.298496 C27.7490115,36.258496 27.3590115,34.650176 28.7975361,34.385856 C31.8881262,33.959616 32.2077984,36.258496 34.5516344,33.804736 C36.8961098,31.351616 39.4534869,25.428416 38.3877,24.069696 C37.3225525,22.711616 32.593323,21.821376 34.3387328,18.231616" id="Fill-1" fill="#7A99A5" mask="url(#mask-2)"></path>
            </g>
            <g id="Group-6">
                <mask id="mask-4" fill="white">
                    <use xlink:href="#path-3"></use>
                </mask>
                <g id="Clip-5"></g>
                <path d="M34.3387328,18.231616 C34.3387328,18.231616 40.4125033,8.311616 35.6174213,3.404736 C30.8223393,-1.501504 23.4698803,-0.328384 20.8057328,5.858496 C18.1422246,12.044736 19.101241,16.418496 15.7977492,16.738496 C12.4942574,17.058496 10.4700934,16.631616 8.97786393,19.298496 C7.48627377,21.964736 3.99673279,25.538496 6.34056885,26.818496 C8.68504426,28.098496 11.2961262,28.723136 10.0167984,30.498496 C5.46147049,36.818496 -3.40943115,36.178496 1.3767,44.190016 C3.93791311,48.478016 15.6206508,50.338496 21.6848311,43.298496 C27.7490115,36.258496 27.3590115,34.650176 28.7975361,34.385856 C31.8881262,33.959616 32.2077984,36.258496 34.5516344,33.804736 C36.8961098,31.351616 39.4534869,25.428416 38.3877,24.069696 C37.3225525,22.711616 32.593323,21.821376 34.3387328,18.231616" id="Fill-4" fill="#B0C2CB" mask="url(#mask-4)"></path>
            </g>
            <path d="M16.5119476,24.9686634 C16.5119476,24.9686634 20.0386827,18.5672928 21.1608256,12.3551443 C22.2829686,6.14299574 23.88603,1.61067602 29.8173571,2.02644974 C35.7486843,2.44222346 38.6341948,7.43794423 32.8631738,18.7777541 C27.0921528,30.1175639 23.88603,43.9552342 13.4661309,45.7251688 C3.04623191,47.4951033 -0.96142157,40.2544619 4.32868102,37.1973022 C9.61878361,34.1401425 11.8630696,31.0829828 16.5119476,24.9686634" id="Fill-7" fill="#F2F2F2"></path>
            <path d="M17.7136475,25.9061587 C17.7136475,25.9061587 21.6957515,17.006494 22.5603828,12.1295939 C23.4256457,7.25269384 24.6616453,3.69411916 29.2336438,4.02079528 C33.806274,4.3474714 36.0306944,8.26952169 31.5818536,17.1724144 C27.1330129,26.0746616 20.8721728,43.3949521 12.8391227,44.784294 C4.80670413,46.173636 1.71702089,40.4890841 5.79512487,38.0893703 C9.87322886,35.689011 14.1300696,30.7062317 17.7136475,25.9061587 Z" id="Stroke-9" stroke="#E6E6E6"></path>
            <line x1="5.5" y1="38" x2="5.5" y2="44" id="Stroke-11" stroke="#E6E6E6"></line>
            <line x1="7.5" y1="35" x2="7.5" y2="45" id="Stroke-13" stroke="#E6E6E6"></line>
            <line x1="9.5" y1="34" x2="9.5" y2="45" id="Stroke-15" stroke="#E6E6E6"></line>
            <line x1="11.5" y1="34" x2="11.5" y2="45" id="Stroke-17" stroke="#E6E6E6"></line>
            <line x1="13.5" y1="33" x2="13.5" y2="45" id="Stroke-19" stroke="#E6E6E6"></line>
            <line x1="14.5" y1="31" x2="14.5" y2="45" id="Stroke-21" stroke="#E6E6E6"></line>
            <line x1="16.5" y1="28" x2="16.5" y2="42" id="Stroke-23" stroke="#E6E6E6"></line>
            <line x1="18.5" y1="24" x2="18.5" y2="41" id="Stroke-25" stroke="#E6E6E6"></line>
            <line x1="20.5" y1="20" x2="20.5" y2="39" id="Stroke-27" stroke="#E6E6E6"></line>
            <line x1="22.5" y1="15" x2="22.5" y2="36" id="Stroke-29" stroke="#E6E6E6"></line>
            <line x1="24.5" y1="7" x2="24.5" y2="33" id="Stroke-31" stroke="#E6E6E6"></line>
            <line x1="25.5" y1="5" x2="25.5" y2="29" id="Stroke-33" stroke="#E6E6E6"></line>
            <line x1="27.5" y1="4" x2="27.5" y2="26" id="Stroke-35" stroke="#E6E6E6"></line>
            <line x1="29.5" y1="4" x2="29.5" y2="23" id="Stroke-37" stroke="#E6E6E6"></line>
            <line x1="31.5" y1="4" x2="31.5" y2="17" id="Stroke-39" stroke="#E6E6E6"></line>
            <line x1="33.5" y1="6" x2="33.5" y2="14" id="Stroke-41" stroke="#E6E6E6"></line>
        </g>
        <g id="Group-30" transform="translate(61.259983, 8.000000)">
            <path d="M0,62.7165 C0,64.2365 6.872,65.4695 15.35,65.4695 C23.828,65.4695 30.7,64.2365 30.7,62.7165 C30.7,61.1965 23.828,59.9635 15.35,59.9635 C6.872,59.9635 0,61.1965 0,62.7165" id="Fill-1" fill="#61705A"></path>
            <path d="M18.1361,4.3512 L2.7481,55.2642 C2.7481,55.2642 3.7661,67.9472 24.0481,64.2432 C44.1671,11.3662 41.4871,4.0692 41.4871,4.0692 L18.1361,4.3512 Z" id="Fill-3" fill="#EAE3C3"></path>
            <path d="M27.09,11.1 L13.962,64.719 C13.962,64.719 26.654,66.46 30.058,63.125 C33.462,59.79 43.174,5.737 43.174,5.737 L27.09,11.1 Z" id="Fill-5" fill="#D6D1BD"></path>
            <g id="Group-9" transform="translate(18.000000, 0.858500)">
                <mask id="mask-6" fill="white">
                    <use xlink:href="#path-5"></use>
                </mask>
                <g id="Clip-8"></g>
                <path d="M0.149479382,4.609 C0.1786,6.997 5.4296,8.87 11.8776,8.792 C18.3256,8.715 23.5296,6.716 23.5007206,4.327 C23.4716,1.939 18.2216,0.066 11.7726,0.144 C5.3246,0.222 0.1206,2.221 0.149479382,4.609" id="Fill-7" fill="#F7F3E2" mask="url(#mask-6)"></path>
            </g>
            <path d="M24.624163,5.0413 C24.6352,5.9913 27.1012,6.7313 30.1312,6.6953 C33.1612,6.6583 35.6072,5.8583 35.596237,4.9093 C35.5842,3.9593 33.1192,3.2193 30.0892,3.2553 C27.0592,3.2923 24.6132,4.0913 24.624163,5.0413" id="Fill-10" fill="#9BA498"></path>
            <path d="M23.4621,64.7314 C23.4621,64.7314 19.6771,53.4514 27.5901,39.9034 C35.5031,26.3544 43.1711,6.3794 42.1971,4.6304 C57.6621,15.5894 57.6401,17.9154 57.1791,20.9384 C56.7181,23.9614 39.0691,61.4194 39.6351,69.8584 C33.8571,63.1004 23.4621,64.7314 23.4621,64.7314" id="Fill-12" fill="#F7F3E2"></path>
            <path d="M49.267,40.3511 L33.432,45.0291 C25.504,47.0301 23.462,64.7481 23.462,64.7481 C23.462,64.7481 33.418,63.4721 39.258,69.4721 L39.634,69.4721 C39.616,64.4721 44.599,51.6371 49.267,40.3511" id="Fill-14" fill="#EAE3C3"></path>
            <path d="M30.5043,37.6473 C30.5043,37.6473 51.6023,34.3613 53.0273,30.7583 C54.4533,27.1553 42.0083,9.5043 42.0083,9.5043 C42.0083,9.5043 33.3583,35.1263 30.5043,37.6473" id="Fill-16" fill="#EAE3C3"></path>
            <path d="M2.7479,55.2643 C2.7479,55.2643 2.8909,57.1073 4.0529,59.0983 L20.8579,6.7383 L19.8229,4.3313 L18.1359,4.3513 L2.7479,55.2643 Z" id="Fill-18" fill="#F7F3E2"></path>
            <path d="M45.5272,39.2339 C46.3612,38.0229 49.8952,33.4199 46.7452,31.3809 C43.5952,29.3419 38.4072,32.0749 39.9312,34.8519 C41.4562,37.6299 43.8872,41.6159 45.5272,39.2339" id="Fill-20" fill="#F7931E"></path>
            <path d="M29.6314,65.4673 C29.6314,65.4673 24.0054,53.8123 31.9284,53.7413 C39.8524,53.6713 41.5994,58.1143 41.1264,53.6203 C40.6544,49.1263 40.9794,46.3173 43.8624,46.4263 L46.7454,46.5363 C46.7454,46.5363 39.1504,66.2613 39.6344,69.8583 C34.3584,64.1593 29.6314,65.4673 29.6314,65.4673" id="Fill-22" fill="#F7931E"></path>
            <path d="M39.05,46.4234 C39.659,46.8044 40.298,48.5914 39.05,48.7694 C37.802,48.9474 36.712,44.9604 39.05,46.4234" id="Fill-24" fill="#F7931E"></path>
            <path d="M41.606,60.5127 C41.606,60.5127 35.618,58.2327 35.596,60.8977 C35.574,63.5637 39.932,65.2677 39.932,65.2677 L41.606,60.5127 Z" id="Fill-26" fill="#F7F3E2"></path>
            <path d="M54.3895,27.5851 C54.3895,27.5851 48.7645,24.4091 51.5265,22.3301 C54.2895,20.2521 46.0515,14.0871 52.5765,12.6241 L58.5665,18.6471 L54.3895,27.5851 Z" id="Fill-28" fill="#F7931E"></path>
        </g>
    </g>
</svg>