<svg xmlns="http://www.w3.org/2000/svg" xmlns:xlink="http://www.w3.org/1999/xlink" width="130" height="85" viewBox="0 0 130 85">
  <defs>
    <polygon id="itoallas-sanitarias-a" points="0 .361 38.637 .361 38.637 48 0 48"/>
    <polygon id="itoallas-sanitarias-c" points="0 .361 38.637 .361 38.637 48 0 48"/>
  </defs>
  <g fill="none" fill-rule="evenodd">
    <rect width="85" height="85" x="26" fill="#8E968B" fill-rule="nonzero" rx="8"/>
    <ellipse cx="65.76" cy="65.046" fill="#61705A" fill-rule="nonzero" rx="21.5" ry="2.5"/>
    <g transform="rotate(27 .11 138.081)">
      <g transform="translate(0 2)">
        <mask id="itoallas-sanitarias-b" fill="#fff">
          <use xlink:href="#itoallas-sanitarias-a"/>
        </mask>
        <path fill="#7A99A5" d="M34.3387328,18.231616 C34.3387328,18.231616 40.4125033,8.311616 35.6174213,3.404736 C30.8223393,-1.501504 23.4698803,-0.328384 20.8057328,5.858496 C18.1422246,12.044736 19.101241,16.418496 15.7977492,16.738496 C12.4942574,17.058496 10.4700934,16.631616 8.97786393,19.298496 C7.48627377,21.964736 3.99673279,25.538496 6.34056885,26.818496 C8.68504426,28.098496 11.2961262,28.723136 10.0167984,30.498496 C5.46147049,36.818496 -3.40943115,36.178496 1.3767,44.190016 C3.93791311,48.478016 15.6206508,50.338496 21.6848311,43.298496 C27.7490115,36.258496 27.3590115,34.650176 28.7975361,34.385856 C31.8881262,33.959616 32.2077984,36.258496 34.5516344,33.804736 C36.8961098,31.351616 39.4534869,25.428416 38.3877,24.069696 C37.3225525,22.711616 32.593323,21.821376 34.3387328,18.231616" mask="url(#itoallas-sanitarias-b)"/>
      </g>
      <mask id="itoallas-sanitarias-d" fill="#fff">
        <use xlink:href="#itoallas-sanitarias-c"/>
      </mask>
      <path fill="#B0C2CB" d="M34.3387328,18.231616 C34.3387328,18.231616 40.4125033,8.311616 35.6174213,3.404736 C30.8223393,-1.501504 23.4698803,-0.328384 20.8057328,5.858496 C18.1422246,12.044736 19.101241,16.418496 15.7977492,16.738496 C12.4942574,17.058496 10.4700934,16.631616 8.97786393,19.298496 C7.48627377,21.964736 3.99673279,25.538496 6.34056885,26.818496 C8.68504426,28.098496 11.2961262,28.723136 10.0167984,30.498496 C5.46147049,36.818496 -3.40943115,36.178496 1.3767,44.190016 C3.93791311,48.478016 15.6206508,50.338496 21.6848311,43.298496 C27.7490115,36.258496 27.3590115,34.650176 28.7975361,34.385856 C31.8881262,33.959616 32.2077984,36.258496 34.5516344,33.804736 C36.8961098,31.351616 39.4534869,25.428416 38.3877,24.069696 C37.3225525,22.711616 32.593323,21.821376 34.3387328,18.231616" mask="url(#itoallas-sanitarias-d)"/>
      <path fill="#F2F2F2" d="M16.5119476,24.9686634 C16.5119476,24.9686634 20.0386827,18.5672928 21.1608256,12.3551443 C22.2829686,6.14299574 23.88603,1.61067602 29.8173571,2.02644974 C35.7486843,2.44222346 38.6341948,7.43794423 32.8631738,18.7777541 C27.0921528,30.1175639 23.88603,43.9552342 13.4661309,45.7251688 C3.04623191,47.4951033 -0.96142157,40.2544619 4.32868102,37.1973022 C9.61878361,34.1401425 11.8630696,31.0829828 16.5119476,24.9686634"/>
      <path stroke="#E6E6E6" d="M17.7136475,25.9061587 C17.7136475,25.9061587 21.6957515,17.006494 22.5603828,12.1295939 C23.4256457,7.25269384 24.6616453,3.69411916 29.2336438,4.02079528 C33.806274,4.3474714 36.0306944,8.26952169 31.5818536,17.1724144 C27.1330129,26.0746616 20.8721728,43.3949521 12.8391227,44.784294 C4.80670413,46.173636 1.71702089,40.4890841 5.79512487,38.0893703 C9.87322886,35.689011 14.1300696,30.7062317 17.7136475,25.9061587 Z"/>
      <line x1="5.5" x2="5.5" y1="38" y2="44" stroke="#E6E6E6"/>
      <line x1="7.5" x2="7.5" y1="35" y2="45" stroke="#E6E6E6"/>
      <line x1="9.5" x2="9.5" y1="34" y2="45" stroke="#E6E6E6"/>
      <line x1="11.5" x2="11.5" y1="34" y2="45" stroke="#E6E6E6"/>
      <line x1="13.5" x2="13.5" y1="33" y2="45" stroke="#E6E6E6"/>
      <line x1="14.5" x2="14.5" y1="31" y2="45" stroke="#E6E6E6"/>
      <line x1="16.5" x2="16.5" y1="28" y2="42" stroke="#E6E6E6"/>
      <line x1="18.5" x2="18.5" y1="24" y2="41" stroke="#E6E6E6"/>
      <line x1="20.5" x2="20.5" y1="20" y2="39" stroke="#E6E6E6"/>
      <line x1="22.5" x2="22.5" y1="15" y2="36" stroke="#E6E6E6"/>
      <line x1="24.5" x2="24.5" y1="7" y2="33" stroke="#E6E6E6"/>
      <line x1="25.5" x2="25.5" y1="5" y2="29" stroke="#E6E6E6"/>
      <line x1="27.5" x2="27.5" y1="4" y2="26" stroke="#E6E6E6"/>
      <line x1="29.5" x2="29.5" y1="4" y2="23" stroke="#E6E6E6"/>
      <line x1="31.5" x2="31.5" y1="4" y2="17" stroke="#E6E6E6"/>
      <line x1="33.5" x2="33.5" y1="6" y2="14" stroke="#E6E6E6"/>
    </g>
  </g>
</svg>
