<svg xmlns="http://www.w3.org/2000/svg" xmlns:xlink="http://www.w3.org/1999/xlink" width="130" height="85" viewBox="0 0 130 85">
    <defs>
        <path id="prefix__a" d="M0.145 0.09L24.765 0.09 24.765 7 0.145 7z"/>
        <path id="prefix__c" d="M0.031 0.476L8.615 0.476 8.615 11.734 0.031 11.734z"/>
    </defs>
    <g fill="none" fill-rule="evenodd">
        <rect width="85" height="85" x="27" fill="#FFF" fill-rule="nonzero" rx="8"/>
        <g transform="translate(10 16)">
            <path fill="#B3B3B3" d="M4 52c0 1.657 6.492 3 14.5 3S33 53.657 33 52s-6.492-3-14.5-3S4 50.343 4 52"/>
            <path fill="#B3B3B3" d="M0 50.5c0 .828 21.042 1.5 47 1.5 25.957 0 47-.672 47-1.5S72.957 49 47 49c-25.958 0-47 .672-47 1.5"/>
            <g transform="translate(36 48)">
                <mask id="prefix__b" fill="#fff">
                    <use xlink:href="#prefix__a"/>
                </mask>
                <path fill="#B3B3B3" d="M.145 3.545C.145 5.453 5.655 7 12.455 7c6.798 0 12.31-1.547 12.31-3.455 0-1.908-5.512-3.455-12.31-3.455C5.655.09.145 1.637.145 3.545" mask="url(#prefix__b)"/>
            </g>
            <path fill="#397260" d="M29.925 23.781c1.826 3.28 3.556 7.373 8.864 9.241L86.75 49.899c.531.187 1.126.113 1.574-.215 1.133-.83 3.45-3.503 5.984-9.503l1.263-3.327c2.524-6.65 2.598-10.07 2.314-11.682-.13-.738-.68-1.343-1.413-1.601L48.752 6.778c-5.308-1.867-9.366.259-12.975 1.588 0 0-4.518 2.456-9.22.802L3.344 1 0 9.81l23.212 8.168c2.743.965 5.495 3.617 6.713 5.803"/>
            <path fill="#205141" d="M95.332 25.034c1.378.488.556 6.016-1.836 12.349-2.393 6.332-5.45 11.07-6.828 10.583-1.378-.487-.556-6.016 1.836-12.348 2.393-6.333 5.45-11.071 6.828-10.584"/>
            <path fill="#397260" d="M94.33 29.044c1.15.42.782 4.325-.823 8.721-1.606 4.396-3.84 7.619-4.99 7.198-1.15-.421-2.344-4.897-.738-9.293 1.605-4.396 5.4-7.047 6.551-6.626"/>
            <path fill="#2C5B4B" d="M31.532 14L93 35.753C92.173 43.828 86.884 47 86.884 47L36.56 29.732s-7.604-5.7-5.029-15.732"/>
            <path fill="#205141" d="M31 22c1.824 3.16 3.498 7.074 8.714 8.867l46.365 15.938c.523.18 1.279.327 1.721.006 1.12-.812 3.807-3.126 6.108-9.049L95 34.952c-2.301 5.923-4.998 8.262-6.117 9.074-.443.32-1.21.2-1.731.02L40.786 28.108C35.57 26.314 32.824 25.16 31 22"/>
            <path fill="#6EBAAD" d="M35.055 9.393c3.566-1.318 6.884-1.623 12.109.183l46.478 15.971c.522.18.907 1.296 1.025 1.813.3 1.31.792 4.67-1.514 10.64l1.094-2.833c2.306-5.968 1.78-9.243 1.481-10.553-.119-.517-.857-.717-1.38-.897L47.907 7.654c-5.225-1.807-9.34.563-12.906 1.882"/>
            <path stroke="#4E968F" stroke-linecap="round" stroke-width="2.647" d="M45 20c.746-2.013 1.504-4.435 2-7M35 11.706s4.123-1.77 9 .294"/>
            <path stroke="#4E968F" stroke-linecap="round" stroke-width="4" d="M58 18L60 19M65 21L88 29"/>
            <mask id="prefix__d" fill="#fff">
                <use xlink:href="#prefix__c"/>
            </mask>
            <path fill="#4E968F" d="M8.578 2.847L5.474 11.34c-.114.311-.458.471-.77.357l-4.28-1.564c-.31-.113-.47-.458-.357-.77L3.171.87c.114-.31.458-.47.77-.357l4.28 1.564c.311.114.471.458.357.77" mask="url(#prefix__d)"/>
            <path fill="#205141" d="M7.963 5.235l-2.49 6.393c-.115.294-.462.445-.775.337L.396 10.49c-.313-.106-.473-.431-.36-.725l2.492-6.393c.114-.294.46-.445.773-.338L7.604 4.51c.313.108.474.433.36.726"/>
            <path fill="#397260" d="M8.961 4.394L7.738 7.602c-.12.314-.484.476-.812.36l-4.51-1.579c-.329-.115-.497-.463-.378-.776l1.224-3.21c.12-.313.483-.475.812-.36l4.51 1.58c.329.114.497.462.377.777M10.967 3.9l-3.342 8.757c-.104.271-.418.41-.7.311l-.566-.198c-.283-.099-.43-.399-.326-.67l3.342-8.757c.104-.27.418-.41.7-.311l.566.198c.284.099.43.4.326.67"/>
            <path fill="#4E968F" d="M10.967 3.9l-3.342 8.757c-.104.271-.418.41-.7.311l-.566-.198c-.283-.099-.43-.399-.326-.67l3.342-8.757c.104-.27.418-.41.7-.311l.566.198c.284.099.43.4.326.67"/>
            <path fill="#205141" d="M8.973 6.97L7.33 12.63c-.085.292-.342.442-.574.336l-.463-.214c-.232-.106-.351-.43-.267-.723L7.67 6.37c.085-.292.342-.442.574-.336l.463.214c.232.106.351.43.267.722"/>
            <path fill="#397260" d="M10.965 5.824L9.71 8.686c-.11.248-.44.376-.737.285l-.596-.181c-.297-.091-.45-.366-.342-.614L9.29 5.314c.11-.248.44-.376.737-.285l.595.181c.299.091.452.366.343.614"/>
            <path fill="#205141" d="M11 6.564L9.189 13 8 12.436 9.811 6zM7.979 3.697L6.009 10 5 9.57l1.97-6.305c.066-.209.265-.317.444-.24l.359.153c.18.076.271.309.206.519"/>
            <path fill="#6EBAAD" d="M10 6.176l16.862 5.671c.578.194 1.21.205 1.791.023 1.188-.374 3.332-1.15 5.347-2.406-2.599 1.293-4.884.674-6.198.232L10.864 4 10 6.176z"/>
            <path fill="#205141" d="M23.743 16.415L8 10.45 8.863 8l15.277 6.303S26.99 14.717 29 21c0 0-1.969-3.339-5.257-4.585"/>
            <path fill="#205141" d="M29.64 20c4.43-2.783 3.205-8 3.205-8s-8.265 1.393-3.205 8"/>
            <path fill="#D35313" d="M48.412 18H59l-1.764 15L39 25.388s8.236-.21 9.412-7.388"/>
            <path fill="#F7931E" d="M56.933 29.45c-4.29 0-7.88-2.867-8.853-6.725-.22.015-.441.215-.666.215-4.066 0-7.507-2.299-8.685-5.94H35s.466 7.664 3.256 34.128c-.006.037-.021.077-.021.115 0 1.522 4.52 2.757 10.097 2.757 5.248 0 9.559-1.093 10.047-2.49.065-.027.101-.23.101-.23L61 28.521c-1.225.592-2.603.928-4.067.928"/>
            <path fill="#F7931E" d="M55.402 30.47c-3.795 0-6.97-2.632-7.83-6.173-.196.014-.392.177-.59.177-3.597 0-6.64-3.027-7.683-5.474H36s.413 7.057 2.88 31.348c-.004.034-.018.08-.018.115 0 1.398 3.998 2.537 8.931 2.537 4.643 0 8.456-1 8.889-2.284.057-.024.09-.21.09-.21L59 29.619c-1.084.543-2.303.852-3.598.852"/>
            <path fill="#DB730B" d="M41 46.5c0 .828 3.805 1.5 8.5 1.5s8.5-.672 8.5-1.5-3.805-1.5-8.5-1.5-8.5.672-8.5 1.5"/>
            <path fill="#F7931E" d="M60.473 17.467L60.473 17 63 17 61.748 28.946 59 31 60.473 17.425z"/>
            <path fill="#F46C21" d="M58.917 17L57 29.958 57.824 30 60 17z"/>
            <path fill="#F46C21" d="M49 23.018L50.602 23s.851 7 7.398 7c-6.464 0-9-4.29-9-6.982M40 16h1.636s.307 7 7.364 7c-6.443 0-9-4.21-9-7"/>
            <path fill="#FFA852" d="M42 52l-1.934-.683c-.319-.163-.53-.46-.566-.795l-3.5-32.5L38.27 18 42 52z"/>
            <path fill="#F46C21" d="M55 29.023L55.926 35.956 57.918 37 58 36.391 56.922 35.769 57.918 29z"/>
            <path fill="#D35313" d="M59 37L58 45 58.358 37.36zM54 29.221L54 36 53 29z"/>
            <path fill="#FFA852" d="M40 22L43.124 51.884 44 52 41.003 22.614z"/>
            <path fill="#D35313" d="M55 29.138L55.601 35.34 56.413 36 58 17z"/>
            <path fill="#205141" d="M61.988 17L63 42 60 41.038z"/>
            <path fill="#ABEBFF" d="M27.823 29L17.5 30.349 7.177 29S5 30.15 5 32.733v16.536c0 1.235.767 2.325 1.882 2.652C10.567 53 17.5 53 17.5 53s7.039 0 10.7-1.104c1.065-.32 1.8-1.354 1.8-2.536V32.733C30 30.15 27.823 29 27.823 29"/>
            <path fill="#73C9DD" d="M17.5 49C11.7 49 7 49.641 7 50.432c0 .047.02.093.051.14.513-.62 4.876-1.105 10.185-1.105 5.654 0 10.237.55 10.237 1.226 0 .106-.124.209-.335.307.552-.174.862-.366.862-.568C28 49.642 23.3 49 17.5 49"/>
            <path fill="#FFF" d="M10.623 51.966c-1.115-.313-2.098-1.357-2.098-2.541V33.578c0-1.777 1.335-2.843 1.968-3.305L8.245 30S6 31.102 6 33.578v15.847c0 1.184.943 2.228 2.058 2.541C11.742 53 18.76 53 18.76 53s.438 0 1.239-.02c-2.186-.054-6.681-.257-9.377-1.014"/>
            <path fill="#4DB0C1" d="M24.725 51.966c1.141-.313 2.336-1.357 2.336-2.541V33.578c0-1.777-1.556-2.843-2.204-3.305L26.93 30S29 31.102 29 33.578v15.847c0 1.184-.832 2.228-1.973 2.541C23.257 53 16.14 53 16.14 53s-.32 0-1.139-.02c2.236-.054 6.966-.257 9.725-1.014"/>
            <path fill="#ABEBFF" d="M8 32c0 1.105 4.701 2 10.5 2S29 33.105 29 32s-4.701-2-10.5-2S8 30.895 8 32"/>
            <path fill="#4DB0C1" d="M7 30.5c0 1.38 4.701 2.5 10.5 2.5S28 31.88 28 30.5 23.299 28 17.5 28 7 29.12 7 30.5"/>
            <path fill="#ABEBFF" d="M8 30.5c0 1.38 4.701 2.5 10.5 2.5 5.8 0 10.5-1.12 10.5-2.5S24.3 28 18.5 28C12.701 28 8 29.12 8 30.5"/>
            <path fill="#FFF" d="M8 29.5c0 1.38 4.477 2.5 10 2.5s10-1.12 10-2.5S23.523 27 18 27 8 28.12 8 29.5"/>
            <path fill="#ABEBFF" d="M8 28.5c0 1.38 4.701 2.5 10.5 2.5 5.8 0 10.5-1.12 10.5-2.5S24.3 26 18.5 26C12.701 26 8 27.12 8 28.5"/>
            <path fill="#4DB0C1" d="M8 27.5c0 1.38 4.701 2.5 10.5 2.5S29 28.88 29 27.5 24.299 25 18.5 25 8 26.12 8 27.5"/>
            <path fill="#ABEBFF" d="M8 27.5c0 1.38 4.701 2.5 10.5 2.5 5.8 0 10.5-1.12 10.5-2.5S24.3 25 18.5 25C12.701 25 8 26.12 8 27.5"/>
            <path fill="#73C9DD" d="M8 27.5c0 .828 4.477 1.5 10 1.5s10-.672 10-1.5S23.523 26 18 26s-10 .672-10 1.5"/>
            <path fill="#73C9DD" d="M8 27.5c0 .828 4.477 1.5 10 1.5s10-.672 10-1.5S23.523 26 18 26s-10 .672-10 1.5"/>
            <path fill="#73C9DD" d="M8 27.5c0 .828 4.477 1.5 10 1.5s10-.672 10-1.5S23.523 26 18 26s-10 .672-10 1.5"/>
            <path fill="#4DB0C1" d="M8 28.003c1.399.58 5.118.997 9.5.997s8.101-.416 9.5-.997C25.601 27.418 21.882 27 17.5 27s-8.101.418-9.5 1.003"/>
            <path stroke="#FFF" stroke-linecap="round" stroke-width="1.734" d="M17 35.984c-2.909.096-6.815-.207-10-1.984M21 35.237s-.782.314-2 .526"/>
        </g>
    </g>
</svg>
