<svg width="167" height="24" viewBox="0 0 167 24" fill="none" xmlns="http://www.w3.org/2000/svg">
    <path fill-rule="evenodd" clip-rule="evenodd" d="M5.718 19.161c.995 0 1.537-.362 1.9-.905.316-.453.428-.883.428-3.622 0-2.716-.112-3.17-.429-3.622-.362-.543-.904-.905-1.899-.905h-1.74v9.054h1.74zM2.43 22.692c-.588 0-1.322 0-1.876-.554C0 21.583 0 20.848 0 20.259V9.01c0-.588 0-1.324.554-1.879.554-.554 1.288-.554 1.876-.554h3.56c2.418 0 4.113.928 5.22 2.716.792 1.29.792 2.558.792 5.342s0 4.052-.791 5.342c-1.108 1.788-2.803 2.716-5.221 2.716H2.43zM22.309 4.199c-.249.396-.486.77-.758.962a1.28 1.28 0 0 1-.78.249 1.62 1.62 0 0 1-.858-.26c-.543-.34-.791-.838-.746-1.336.034-.385.147-.611.542-1.245l.848-1.358c.249-.396.486-.77.757-.962.249-.17.475-.249.78-.249.294 0 .588.09.859.26.543.34.791.838.746 1.336-.034.385-.147.611-.543 1.245l-.847 1.358zm.203 10.435c0-2.943-.226-3.486-.587-3.961-.294-.385-.86-.702-1.583-.702s-1.288.317-1.582.702c-.361.475-.587 1.018-.587 3.961 0 2.943.226 3.463.587 3.939.294.384.859.724 1.582.724.724 0 1.289-.34 1.583-.724.361-.476.587-.996.587-3.939zm-2.17 8.194c-1.966 0-3.333-.611-4.486-1.765-1.639-1.641-1.662-3.713-1.662-6.429s.023-4.787 1.662-6.428c1.153-1.155 2.52-1.766 4.486-1.766 1.967 0 3.334.611 4.487 1.766 1.639 1.64 1.661 3.712 1.661 6.428 0 2.716-.022 4.788-1.661 6.429-1.153 1.154-2.52 1.765-4.487 1.765zM41.273 22.172c-.407.407-.882.61-1.492.61-.904 0-1.458-.565-2.34-1.878L33.16 14.59v5.523c0 .905-.012 1.222-.25 1.698-.282.565-.948.973-1.74.973-.79 0-1.457-.408-1.74-.974-.237-.475-.248-.792-.248-1.697V8.93c0-.77.067-1.381.52-1.834.406-.407.88-.61 1.491-.61.904 0 1.458.565 2.34 1.878l4.283 6.315V9.156c0-.905.01-1.222.248-1.698.283-.565.95-.973 1.74-.973.792 0 1.458.408 1.741.973.237.476.248.793.248 1.698v11.182c0 .77-.067 1.381-.52 1.834zM50.72 19.161c.995 0 1.538-.362 1.9-.905.316-.453.43-.883.43-3.622 0-2.716-.114-3.17-.43-3.622-.362-.543-.904-.905-1.9-.905h-1.74v9.054h1.74zm-3.288 3.531c-.587 0-1.322 0-1.876-.554-.553-.555-.553-1.29-.553-1.879V9.01c0-.588 0-1.324.553-1.879.554-.554 1.289-.554 1.876-.554h3.56c2.419 0 4.114.928 5.221 2.716.791 1.29.791 2.558.791 5.342s0 4.052-.79 5.342c-1.108 1.788-2.803 2.716-5.222 2.716h-3.56zM62.147 22.693c-.588 0-1.323 0-1.877-.555-.553-.555-.553-1.29-.553-1.879V9.01c0-.588 0-1.324.553-1.878.554-.555 1.289-.555 1.877-.555h6.272c.813 0 1.118.023 1.514.215.497.238.86.849.86 1.55 0 .702-.363 1.313-.86 1.551-.396.192-.7.215-1.514.215h-4.724v2.694H67.4c.814 0 1.12.022 1.515.215.497.237.859.849.859 1.55 0 .702-.362 1.313-.86 1.55-.394.193-.7.216-1.514.216h-3.706v2.83h4.724c.813 0 1.118.022 1.514.214.497.238.86.85.86 1.55 0 .703-.363 1.314-.86 1.552-.396.192-.7.215-1.514.215h-6.272zM85.517 13.582c1.085 0 1.718-.793 1.718-1.63 0-.849-.633-1.652-1.718-1.652H83.28v3.282h2.238zm-.893 3.304H83.28v3.418c0 .906-.01 1.223-.248 1.698-.283.566-.95.973-1.74.973-.792 0-1.458-.407-1.741-.973-.237-.475-.249-.792-.249-1.698V9.202c0-.589 0-1.324.554-1.88.554-.554 1.289-.554 1.876-.554h3.967c3.571 0 5.492 2.535 5.492 5.184 0 1.709-.904 3.305-2.565 4.187l1.898 3.34c.452.791.588 1.142.588 1.64 0 .68-.339 1.211-.972 1.573a2.01 2.01 0 0 1-.994.283c-1.017 0-1.503-.792-1.955-1.584l-2.566-4.505zM96.468 22.885c-.587 0-1.322 0-1.876-.555-.553-.554-.553-1.29-.553-1.878V9.201c0-.59 0-1.325.553-1.88.554-.554 1.289-.554 1.876-.554h6.272c.814 0 1.119.023 1.515.215.497.238.858.849.858 1.55 0 .702-.361 1.314-.858 1.551-.396.193-.701.215-1.515.215h-4.724v2.694h3.707c.814 0 1.119.022 1.515.215.497.237.859.849.859 1.55 0 .702-.362 1.313-.859 1.551-.396.192-.701.215-1.515.215h-3.707v2.83h4.724c.814 0 1.119.022 1.515.215.497.237.858.848.858 1.55 0 .702-.361 1.313-.858 1.55-.396.193-.701.216-1.515.216h-6.272zM108.877 8.398c1.153-1.155 2.52-1.766 4.441-1.766 1.967 0 3.063.328 4.058 1.222 1.22 1.098 1.525 2.287 1.525 2.988 0 .702-.192 1.144-.553 1.506a1.913 1.913 0 0 1-1.368.554c-.441 0-.791-.113-1.062-.305-.43-.295-.712-.725-1.051-1.325-.452-.803-.927-1.109-1.639-1.109-.678 0-1.13.317-1.424.702-.463.611-.61 1.313-.61 3.961 0 2.649.147 3.35.61 3.962.294.384.746.701 1.424.701.712 0 1.187-.305 1.639-1.109.339-.6.621-1.03 1.051-1.324.271-.193.621-.306 1.062-.306.52 0 1.006.193 1.368.555.361.362.553.804.553 1.505 0 .702-.305 1.89-1.525 2.988-.995.894-2.091 1.222-4.058 1.222-1.921 0-3.288-.61-4.441-1.765-1.639-1.641-1.661-3.712-1.661-6.429 0-2.716.022-4.787 1.661-6.428zM121.399 9.349c0-.906.011-1.223.249-1.698.282-.566.949-.973 1.74-.973s1.458.407 1.741.973c.237.475.248.792.248 1.698v10.955c0 .906-.011 1.223-.248 1.698-.283.566-.95.973-1.741.973-.791 0-1.458-.407-1.74-.973-.238-.475-.249-.792-.249-1.698V9.35zM129.728 8.398c1.153-1.155 2.52-1.766 4.441-1.766 1.967 0 3.063.328 4.058 1.222 1.22 1.098 1.525 2.287 1.525 2.988 0 .702-.192 1.144-.553 1.506a1.913 1.913 0 0 1-1.368.554c-.441 0-.791-.113-1.062-.305-.43-.295-.712-.725-1.051-1.325-.452-.803-.927-1.109-1.639-1.109-.678 0-1.13.317-1.424.702-.463.611-.61 1.313-.61 3.961 0 2.649.147 3.35.61 3.962.294.384.746.701 1.424.701.712 0 1.187-.305 1.639-1.109.339-.6.621-1.03 1.051-1.324.271-.193.621-.306 1.062-.306.52 0 1.006.193 1.368.555.361.362.553.804.553 1.505 0 .702-.305 1.89-1.525 2.988-.995.894-2.091 1.222-4.058 1.222-1.921 0-3.288-.61-4.441-1.765-1.639-1.641-1.661-3.712-1.661-6.429 0-2.716.022-4.787 1.661-6.428zM144.68 22.885c-.588 0-1.322 0-1.876-.555-.554-.554-.554-1.29-.554-1.878V9.348c0-.906.011-1.223.249-1.698.282-.566.949-.974 1.74-.974s1.458.408 1.74.974c.238.475.249.792.249 1.698v10.005h4.476c.813 0 1.118.022 1.514.215.497.237.859.848.859 1.55 0 .702-.362 1.313-.859 1.55-.396.193-.701.216-1.492.216h-6.046zM163.022 14.826c0-2.942-.226-3.486-.588-3.96-.293-.386-.858-.703-1.582-.703-.723 0-1.288.317-1.582.702-.362.476-.588 1.019-.588 3.961 0 2.943.226 3.464.588 3.94.294.384.859.724 1.582.724.724 0 1.289-.34 1.582-.725.362-.475.588-.996.588-3.939zm-2.17 8.195c-1.966 0-3.334-.612-4.487-1.766-1.638-1.641-1.661-3.712-1.661-6.428 0-2.717.023-4.788 1.661-6.429 1.153-1.154 2.521-1.766 4.487-1.766 1.966 0 3.334.612 4.487 1.766 1.638 1.641 1.661 3.712 1.661 6.428 0 2.717-.023 4.788-1.661 6.429-1.153 1.154-2.521 1.766-4.487 1.766z" fill="#fff"/>
</svg>
