<svg width="200" height="100" viewBox="0 0 200 100" fill="none" xmlns="http://www.w3.org/2000/svg">
<rect width="200" height="100" fill="white"/>
<mask id="mask0_1705_5378" style="mask-type:luminance" maskUnits="userSpaceOnUse" x="0" y="24" width="200" height="53">
<path d="M200 24H0V76.5554H200V24Z" fill="white"/>
</mask>
<g mask="url(#mask0_1705_5378)">
<path d="M146.784 74.661V71.7722H151.245V70.0344H146.784V67.348H152.296V65.6102H144.881V76.4016H152.296V74.6638L146.784 74.661ZM130.975 67.3822C131.232 67.3679 131.485 67.405 131.725 67.4933C131.964 67.5816 132.183 67.7212 132.371 67.9007C132.557 68.0801 132.705 68.2938 132.807 68.5331C132.91 68.7724 132.961 69.0288 132.961 69.2909C132.961 69.5501 132.91 69.8094 132.807 70.0487C132.705 70.288 132.559 70.5045 132.371 70.6811C132.186 70.8606 131.967 70.9973 131.725 71.0885C131.485 71.1768 131.229 71.2167 130.975 71.1996H128.127V67.3793H130.975V67.3822ZM126.224 76.4016H128.127V72.9545H130.958C133.334 72.9545 134.873 71.5101 134.873 69.2596C134.873 67.0546 133.32 65.6102 130.958 65.6102H126.221L126.224 76.4016ZM106.626 65.6102V72.2252C106.626 74.8803 108.515 76.5583 111.196 76.5583C113.877 76.5583 115.765 74.8803 115.765 72.2423V65.613H113.877V72.2423C113.877 73.7009 112.871 74.7578 111.196 74.7578C109.552 74.7578 108.532 73.7009 108.532 72.228V65.613L106.626 65.6102ZM91.2455 74.755C90.294 74.7179 89.3966 74.3049 88.7385 73.6069C88.0805 72.9089 87.7101 71.9773 87.7101 71.0059C87.7101 70.0373 88.0776 69.1057 88.7385 68.4049C89.3966 67.7069 90.2968 67.2939 91.2455 67.2568C93.2397 67.2568 94.7638 68.7952 94.7638 71.0144C94.7866 71.4987 94.7154 71.983 94.5473 72.4389C94.3821 72.8947 94.1257 73.3078 93.7952 73.6582C93.4648 74.0086 93.0688 74.2878 92.6301 74.4758C92.1942 74.6638 91.7213 74.7578 91.2455 74.755ZM91.2455 65.4535C90.1686 65.4592 89.1203 65.7868 88.2286 66.3993C87.3369 67.0118 86.6418 67.8807 86.2344 68.8949C85.8242 69.9091 85.7216 71.023 85.9324 72.0998C86.1432 73.1739 86.6646 74.1624 87.4252 74.9373C88.1859 75.7122 89.1573 76.2392 90.2114 76.4529C91.2654 76.6665 92.3594 76.5554 93.3536 76.1367C94.3479 75.7179 95.1969 75.0057 95.7951 74.0969C96.3934 73.1853 96.7124 72.1141 96.7153 71.0173C96.7324 70.2823 96.6013 69.5501 96.3307 68.8664C96.0629 68.1827 95.6584 67.5645 95.1484 67.0432C94.6385 66.5218 94.0288 66.1144 93.3565 65.8438C92.6842 65.5675 91.9663 65.4364 91.2455 65.4535ZM72.164 67.3822C73.4431 67.3822 74.1439 68.1571 74.1439 69.1371C74.1439 70.1626 73.4574 70.9375 72.164 70.9375H69.62V67.3793H72.164V67.3822ZM67.7198 76.4016H69.6228V72.7067H71.7993L74.4943 76.4016H76.7478L73.6853 72.2879C74.3832 72.1055 74.9986 71.6868 75.4316 71.0999C75.8646 70.513 76.0868 69.7923 76.0612 69.0601C76.0612 66.9634 74.5228 65.613 72.1469 65.613H67.7169L67.7198 76.4016ZM57.501 70.5472H52.9485V72.1454H55.7205V74.2878C55.0026 74.6296 54.2134 74.792 53.4215 74.7692C51.2449 74.7692 49.6296 73.3704 49.6296 70.9973C49.6154 70.5045 49.698 70.0145 49.8746 69.5558C50.0513 69.0972 50.3191 68.6812 50.6581 68.3308C50.9999 67.9804 51.4045 67.7041 51.8546 67.5218C52.3019 67.3366 52.7833 67.2483 53.2676 67.2597C53.8146 67.2426 54.3587 67.3394 54.8715 67.5417C55.3815 67.744 55.8458 68.0488 56.239 68.4391L57.3671 66.9947C56.2475 65.9606 54.7804 65.4108 53.2705 65.4563C50.1026 65.4563 47.6981 67.801 47.6981 71.0002C47.6981 74.3704 50.0741 76.5583 53.4243 76.5583C54.8715 76.5725 56.2931 76.1509 57.5038 75.3475L57.501 70.5472Z" fill="black"/>
<path d="M108.809 58.4111H134.616V55.1976H113.23V44.9105H129.292V41.6599H113.23V32.1847H134.613V28.9797H108.806V58.4111H108.809Z" fill="black"/>
<path d="M122.221 24.2251L118.728 28.2249L129.696 24.2251H122.221Z" fill="black"/>
<path d="M173.91 28.9826V58.4083H200V55.1948H177.941V28.9797H173.91V28.9826Z" fill="black"/>
<path d="M151.339 28.9827L136.665 58.4112H141.624L145.379 50.7934H162.982L166.768 58.4112H171.68L156.988 28.9827H151.339ZM147.237 47.1041L154.151 33.048L161.15 47.1041H147.237Z" fill="black"/>
<path d="M94.8037 46.107C101.416 44.3094 102.06 39.2897 102.026 37.4978C101.632 32.2417 98.1568 28.9855 91.915 28.9855H73.7223V58.4112H77.8702V46.0643H89.7128L98.4246 58.4054H103.652C103.652 58.4054 97.3848 50.0982 94.8037 46.1013V46.107ZM91.3481 42.583H77.8702V32.4668H91.821C95.0288 32.4668 96.8378 33.9937 97.4873 35.9366C97.6811 36.6489 97.7323 37.3953 97.6355 38.1303C97.5386 38.8624 97.2993 39.5689 96.929 40.2071C95.7638 42.1728 93.5502 42.5915 91.3481 42.5915" fill="black"/>
<path d="M48.6582 57.2403C40.5589 57.2403 33.887 50.6053 33.887 42.6115C33.887 34.6262 40.2427 27.675 48.9716 27.675C50.9059 27.6579 52.8232 28.034 54.6151 28.7775C56.407 29.5211 58.0366 30.6179 59.4097 32.0081C60.7829 33.3955 61.874 35.0478 62.6175 36.8682C63.3611 38.6886 63.7428 40.6401 63.7428 42.6115C63.74 50.6025 56.7546 57.2403 48.6582 57.2403ZM48.7978 24C37.0919 24 29.1123 32.4155 29.1123 42.6001C29.1123 53.3231 37.9266 60.8925 48.7978 60.8925C59.669 60.8925 68.4747 53.4314 68.4747 42.6001C68.4747 32.4155 60.3954 24 48.7978 24Z" fill="black"/>
<path d="M18.6684 39.3923H21.6597L27.0925 28.9827H22.7223L18.6684 39.3923Z" fill="black"/>
<path d="M0 28.9826V58.4083H26.0868V55.1948H4.03681V28.9797H0V28.9826Z" fill="black"/>
</g>
</svg>
