<svg width="200" height="130" viewBox="0 0 200 130" fill="none" xmlns="http://www.w3.org/2000/svg">
<g clip-path="url(#clip0_1687_16)">
<rect width="200" height="130" fill="white"/>
<path opacity="0.997" fill-rule="evenodd" clip-rule="evenodd" d="M44.7165 -0.111694C81.3488 -0.111694 117.981 -0.111694 154.613 -0.111694C160.455 0.667504 163.88 3.94357 164.888 9.71648C164.888 46.4232 164.888 83.1301 164.888 119.837C164.117 125.192 161.139 128.543 155.954 129.888C118.726 129.888 81.4978 129.888 44.2698 129.888C39.1739 128.962 36.0467 125.983 34.8883 120.954C34.8883 83.8002 34.8883 46.6465 34.8883 9.49312C35.7715 4.1954 39.5696 0.712009 44.7165 -0.111694Z" fill="#DB0007"/>
<path fill-rule="evenodd" clip-rule="evenodd" d="M118.472 32.3657C125.876 32.3657 131.882 63.6021 131.882 102.179H142.686C142.686 60.6468 131.786 27.0275 118.44 27.0275C110.814 27.0275 104.077 37.1006 99.6283 52.9252C95.1796 37.1006 88.443 27.0275 80.8803 27.0275C67.5344 27.0275 56.6667 60.6153 56.6667 102.147H67.4706C67.4706 63.5705 73.4129 32.3661 80.8166 32.3661C88.2206 32.3661 94.2263 61.219 94.2263 96.8089H104.967C104.967 61.2193 111.004 32.3661 118.408 32.3661" fill="#FFCC00"/>
</g>
<defs>
<clipPath id="clip0_1687_16">
<rect width="200" height="130" fill="white"/>
</clipPath>
</defs>
</svg>
