<?xml version="1.0" encoding="UTF-8"?>
<svg width="200px" height="130px" viewBox="0 0 200 130" version="1.1" xmlns="http://www.w3.org/2000/svg" xmlns:xlink="http://www.w3.org/1999/xlink">
    <title>nestle_uy</title>
    <g id="nestle_uy" stroke="none" stroke-width="1" fill="none" fill-rule="evenodd">
        <g id="Nestle-Copy" transform="translate(34.000000, 0.000000)" fill="#655748">
            <path d="M77.5391476,13.9285714 C78.1777946,13.9285714 78.7368421,13.4313513 78.7368421,12.7681775 C78.7368421,12.1050037 78.1777946,11.6071429 77.5391476,11.6071429 C76.9005007,11.6071429 76.4210526,12.1050037 76.4210526,12.7681775 C76.4210526,13.4313513 76.9005007,13.9285714 77.5391476,13.9285714" id="Fill-2"></path>
            <path d="M56.7368421,11.6071429 C57.4123428,11.6071429 57.8947368,11.0269726 57.8947368,10.4468024 C57.8947368,9.76943869 57.4123428,9.28571429 56.7368421,9.28571429 C56.0613414,9.28571429 55.5789474,9.76943869 55.5789474,10.4468024 C55.5789474,11.0269726 56.0613414,11.6071429 56.7368421,11.6071429" id="Fill-3"></path>
            <path d="M42.4354761,41.7857143 L41.6842105,41.1814594 C43.811346,39.5688154 45.9384815,37.1510173 46.3136309,35.740051 C46.5640527,34.3298635 49.0663376,34.6319909 48.5654939,36.0421785 C47.9399227,37.95695 45.1872159,40.1738489 42.4354761,41.7857143" id="Fill-4"></path>
            <path d="M29.1727458,11.3946434 C25.9128825,12.7779712 25.4777861,16.0775619 27.7599424,18.0990958 C30.4771951,20.440555 35.1507018,18.4181988 34.7156054,14.694234 C38.4114051,14.9072435 40.8027555,11.0755404 40.258465,8.52189406 C41.8888166,7.13856617 41.9980107,4.15890093 40.0417567,2.98776007 C37.8679545,1.71134813 35.9117006,2.13654464 34.6072513,4.58409743 C31.2381939,4.37108796 27.9774906,6.92555671 29.1727458,11.3946434 L27.6515882,10.7564374 C25.5861402,6.39344425 29.1727458,2.03045112 33.6287043,3.09467602 C34.6072513,0.966226215 37.8679545,-1.26831711 41.5629143,0.860132697 C44.3885211,2.56256357 45.0411658,7.03165022 41.9980107,9.16010003 C43.4108141,13.2039902 40.4760132,16.6096744 36.1284088,16.1836554 C35.5857982,21.5047799 30.5855492,22.1429859 27.2164918,19.6954331 C25.3694319,18.2060117 24.6084332,16.2897489 24.2816909,14.8003275 C23.8474344,13.2039902 23.8474344,11.8206623 22.3262769,10.2243249 C21.1301817,9.05400651 18.9563795,9.05400651 18.9563795,9.05400651 C18.9563795,5.22312583 15.3697739,1.71134813 10.8054613,3.41377901 C9.17510962,2.03045112 7.10966156,1.92353517 5.69685813,3.62678848 C4.93669932,4.58409743 4.39240882,7.13856617 7.00130743,8.3088846 C6.8929533,11.8206623 9.60936608,14.0552056 13.6310681,13.7361026 C13.7394222,15.5454495 15.8048703,17.3547963 17.7611243,17.5669833 L17.6527701,18.5251147 C15.6956762,18.3121052 14.6096151,18.9503112 13.3051658,20.5466486 C8.63165907,20.3344615 5.37095579,22.4620889 5.47930992,25.7616796 C2.21944659,26.2929696 1.56680196,29.6986538 3.41470181,31.5080006 C5.26260166,33.316525 7.97985439,32.5722255 8.95756141,30.4437757 C12.3266188,31.0819817 15.2614198,28.7413448 15.3697739,26.0807825 C18.412929,26.0807825 19.8265723,24.8035482 20.3691829,22.0368924 L21.456924,22.1429859 C21.7819864,25.1226512 20.3691829,27.9962229 16.6742232,27.6771199 C16.5658691,31.2949911 13.0876176,33.2104315 9.71856016,32.040113 C8.19656265,34.9136848 4.60995703,35.9770872 1.67599605,33.2104315 C-1.2588049,30.5498692 -0.171903803,25.9738666 3.63225002,24.8035482 C3.63225002,21.2917705 6.34950276,17.9930023 11.4572659,19.2702366 C11.4572659,19.2702366 12.1099106,17.6738993 13.7394222,17.5669833 C12.6525211,17.1417868 11.8923623,16.6096744 11.6748141,15.4385335 C7.76230619,16.2897489 4.50160291,12.7779712 5.37095579,9.26701598 C1.8927043,7.45766916 1.78435017,4.05198498 3.52389589,2.03045112 C5.37095579,-0.097998689 8.41411086,-0.524017623 11.0230095,1.71134813 C15.6956762,-0.73702709 20.8042793,2.3495541 20.478377,7.45766916 C23.7390803,7.24465969 25.6953343,9.90522195 25.2602378,12.7779712 C25.8036884,11.5015593 26.4554931,10.9694469 27.6515882,10.7564374 L29.1727458,11.3946434" id="Fill-5"></path>
            <path d="M36.3266436,4.64285714 L37.0526316,5.20230003 C35.6006556,8.55809267 33.1125842,11.91475 30.9354216,13.9285714 L30.1052632,13.1451785 C31.6614096,10.4603714 34.8754689,5.98482833 36.3266436,4.64285714" id="Fill-6"></path>
            <path d="M13.5137569,20.8928571 L13.8947368,21.8534163 C12.2766752,23.8942564 9.23104182,26.7768619 7.5181029,27.8571429 L6.94736842,26.8965837 C8.46981736,24.7350937 11.5154507,21.9731381 13.5137569,20.8928571" id="Fill-7"></path>
            <path d="M18.5263158,13.0241369 L17.6647622,13.9285714 C15.1874834,12.5719196 10.340308,8.95418148 9.26315789,7.59752968 L10.0173294,6.96428571 C12.3872262,7.95958307 16.9105906,11.3962945 18.5263158,13.0241369" id="Fill-8"></path>
            <path d="M14.8785321,54.5791126 C15.1956152,55.9203093 14.8785321,57.468028 16.1468645,58.9128845 C16.5701868,59.4287907 19.0022469,62.5234308 20.8001408,64.0711495 C18.3672635,65.0000997 13.6093825,66.960065 10.2252559,67.3731089 C9.48566769,67.4759712 8.7452623,67.8890151 8.11027887,68.3012617 C7.68777381,69.0236899 7.26445152,70.2620244 7.05279038,71.7068808 C6.94736842,72.7378959 6.94736842,73.8733681 6.94736842,75.0080428 C6.94736842,76.0398553 7.47611267,79.3418147 8.63902312,81.508302 C9.8027508,83.6747892 10.9656612,84.7066017 12.3402328,85.3261676 C12.6573159,85.222508 13.2922994,85.1196457 14.2435487,85.1196457 C16.781848,85.015986 18.7905858,86.4608424 19.7426523,87.5955172 C20.0597354,88.1114234 20.8001408,88.2142857 21.6459681,88.2142857 C23.7609451,88.2142857 26.086766,87.4926549 28.201743,86.6673644 C28.7304873,86.3579801 29.9996369,85.4290299 31.2687865,84.5000797 C32.6433581,83.4682673 39.8332992,77.4847117 43.0057647,76.0398553 C44.6982366,76.8651458 47.4473798,77.9998206 50.3019449,77.9998206 C50.4081841,77.9998206 50.9369284,78.1034803 51.5710946,77.8969583 C52.4169219,77.6904363 53.5806496,77.3810521 55.0606432,77.0716678 C57.5981252,76.5557615 60.5589295,76.1427176 61.5109961,76.1427176 C63.8376342,76.2463773 70.7104922,76.3492396 72.4029641,76.3492396 C74.0946188,76.3492396 76.5266789,76.2463773 77.4787454,76.1427176 C78.958739,75.6268114 82.2374436,74.8015209 85.3036699,73.4603241 C88.3698962,72.1191274 94.8202492,67.6824932 95.8777376,66.6506807 C96.4064819,66.2376367 96.9352261,65.7225279 97.2523092,65.3094839 C97.3585484,65.102962 97.4639704,65.0000997 97.4639704,64.89644 C97.4639704,64.7935777 97.3585484,60.4606032 97.3585484,60.4606032 C97.3585484,60.4606032 98.9447812,58.8092248 99.5789474,58.1904563 C99.5789474,58.1904563 99.5789474,58.0867966 99.5789474,57.9839343 C99.2618643,57.1586438 99.0502031,54.4762503 99.1556251,51.7938568 L97.6756315,51.0714286 C97.5693923,54.3725906 96.3010599,57.2615061 95.1373323,59.1186091 C92.8115113,59.4287907 88.2644743,60.7699875 86.6782415,62.6270904 L87.6303081,62.8336124 C89.1103016,62.0075245 90.6965344,61.4924157 92.5998502,61.4924157 C94.1860829,61.4924157 94.9264883,61.9046622 94.9264883,62.3177062 C94.9264883,62.6270904 94.608588,63.3495187 94.503166,63.6589029 C94.3977441,63.8646275 94.2915049,64.2776715 93.9744218,64.4841934 C91.7540229,66.8572027 89.3219628,68.8179653 86.2549193,70.4685463 C84.2461814,71.6032211 82.2374436,72.3256493 79.2766393,73.2538021 C78.3245728,73.4603241 77.0554231,73.7697084 76.3150178,74.07989 C75.1521073,74.07989 69.2304986,73.8733681 65.7409501,73.8733681 C62.2514015,73.8733681 55.0606432,74.3884769 52.8402442,74.9051805 C51.7827557,75.2145648 51.4656726,75.6268114 50.3019449,75.6268114 C48.081546,75.6268114 45.1207417,74.4921366 43.323665,73.6668461 C43.0057647,73.6668461 42.3715985,73.9762303 41.7374323,74.2856146 C40.4682826,74.9051805 37.6129003,78.8259085 35.9212456,77.587574 C35.0754182,79.3418147 31.3742085,80.8887361 30.211298,82.6429768 C30.31672,81.8176862 31.7967136,75.8333333 31.9029527,74.5957963 C31.9029527,74.3884769 32.0091919,74.1827523 31.7967136,73.9762303 C30.5283811,71.8097431 26.7209322,70.4685463 24.6067725,70.0555024 C24.0780282,69.9526401 23.7609451,69.8489804 23.3376228,69.7461181 L19.9543134,68.8179653 L16.8872699,69.7461181 L20.4822405,70.3648867 L15.9352034,73.3574618 C16.781848,73.0480775 21.6459681,71.7068808 21.9630512,71.6032211 C22.3863735,71.5003588 22.9151178,71.3966991 23.4430448,71.6032211 C24.1834502,71.8097431 25.9813441,72.222787 27.1442545,72.6350336 C27.7792379,72.8415556 28.8367264,73.9762303 29.1538095,74.5957963 C29.2592315,74.9051805 29.2592315,75.4210868 29.3646535,76.6586238 C29.3646535,77.3810521 29.2592315,78.5157268 29.0475704,79.3418147 C28.5188261,81.508302 27.4613376,83.158883 27.1442545,83.7776515 C26.7209322,84.6037394 26.1930052,84.9131237 25.5580218,85.1196457 C24.6067725,85.6355519 23.3376228,85.8412765 22.0684732,85.9449362 C21.1172239,85.9449362 20.4822405,85.8412765 20.0597354,85.3261676 C18.8960077,83.6747892 15.8297814,82.1270705 12.7635551,82.7466364 C10.8602393,81.6111643 8.95692345,77.9998206 8.95692345,75.1109051 C8.95692345,73.3574618 9.8027508,70.5714086 10.331495,69.2302119 C13.3977213,68.8179653 19.6364131,66.5478184 22.5972174,65.2066216 C23.2322009,65.2066216 25.0292775,64.5870557 26.7209322,64.5870557 C30.7400423,64.5870557 34.7575179,67.9918774 37.1903952,70.3648867 C37.6129003,69.7461181 38.3533056,68.7143056 40.4682826,68.7143056 C43.323665,68.7143056 45.0153197,71.2938368 45.7557251,73.8733681 L47.2357187,72.8415556 C47.0240575,71.3966991 46.1782302,69.7461181 45.0153197,68.5077837 C44.0632532,67.5796309 42.1599373,66.7543404 40.6799438,66.7543404 C39.7278772,66.7543404 38.8820499,66.960065 38.2478837,66.960065 C36.2383287,66.960065 35.3925013,66.0319122 33.8062686,65.0000997 C32.2200358,63.9682872 29.1538095,62.3177062 26.9334106,62.3177062 C25.5580218,62.3177062 24.9238556,62.8336124 23.7609451,62.8336124 C22.0684732,62.8336124 21.434307,62.2140465 20.6939016,61.1830314 C20.2713965,60.7699875 18.5789246,59.325131 18.1564196,58.7063625 C17.8393365,58.2933186 17.4160142,56.9521218 17.204353,56.230491 L14.8785321,54.5791126" id="Fill-9"></path>
            <path d="M16.5289875,54.8080023 C17.0528278,55.3319499 17.4722239,55.8567086 18.1005084,56.3814673 C18.7287929,56.8015987 19.4623313,57.220919 20.0914255,57.6410503 C21.1382965,58.165809 22.2912309,58.795195 23.3389116,59.2153264 C24.3865922,59.4253921 25.6431613,59.5300194 26.7960957,59.5300194 C28.4720609,59.5300194 30.462978,59.2153264 32.1389431,60.054778 C33.291068,60.4749094 33.291068,61.7336814 34.2343044,62.0491854 C35.5961273,62.5731331 39.3674537,62.6785714 41.462815,62.6785714 C45.6535375,62.6785714 50.1584023,62.1538128 52.8820481,61.5244268 L51.6246694,60.054778 C49.7390062,60.369471 44.290905,60.9996681 41.7769572,60.9996681 C38.3197731,60.9996681 34.9670331,60.369471 34.9670331,59.0052607 C34.9670331,57.9557433 36.0147137,56.4869057 38.110075,56.4869057 C40.3106901,56.4869057 43.6626205,57.851116 44.290905,58.0611817 C44.9199991,58.165809 45.1296972,58.165809 45.5482837,57.9557433 L46.8056624,57.3263573 C45.1296972,56.4869057 39.1577557,54.4924983 37.063204,54.4924983 C36.1199676,54.4924983 35.4908734,54.5971256 34.8625889,55.4373883 C34.1298602,56.4869057 31.9292451,57.4309847 28.5765051,57.4309847 C26.6908419,57.4309847 23.9671961,57.0116644 23.4433558,56.8015987 C22.3956752,56.3814673 20.4055677,55.2273226 19.148189,54.2824326 C17.4722239,53.1282879 16.0051471,51.7640776 15.0627204,50.1898016 C14.7485781,49.7704812 14.53888,49.2449115 14.53888,48.7209639 C14.53888,48.3008325 14.7485781,47.9861395 14.7485781,47.6714465 C15.0627204,48.0907668 15.3768626,48.4054598 15.7954491,48.7209639 C17.5766681,50.5044945 20.1958697,51.7640776 22.9195155,52.2888363 C23.7583077,52.4989019 24.3865922,52.6035293 25.2245748,52.6035293 C26.3766996,52.6035293 27.4243803,51.9741433 28.1579186,51.3439462 L27.0057938,50.0851742 C26.6908419,50.1898016 25.9573035,50.1898016 25.5387171,50.1898016 C21.5576926,50.1898016 16.5289875,47.6714465 15.3768626,44.6275218 C15.2716088,44.3128288 15.0627204,44.2082015 15.2716088,43.8926974 C15.3768626,43.5780044 15.4813068,43.0532458 15.5865607,42.5284871 C15.7954491,42.7385528 16.3192894,43.1586841 16.8439394,43.5780044 C18.3102065,44.5228945 21.1382965,45.7824775 21.7673906,46.2017978 C23.1292135,45.7824775 24.1768942,45.2577188 25.0148767,44.8375875 C25.853669,44.4174561 27.0057938,43.9981358 28.2623628,43.9981358 C31.1965163,43.9981358 34.5484466,45.6770391 37.6914886,47.2513152 L39.7868498,46.4118635 C36.9579502,44.4174561 30.9860086,41.6890354 27.6340783,41.6890354 C25.6431613,41.6890354 23.7583077,43.1586841 22.3956752,43.1586841 C20.8249638,43.1586841 16.2148452,40.8495837 16.2148452,38.9606147 C16.2148452,37.4917771 19.148189,36.6515143 24.07245,36.1267556 C23.2336577,37.2817114 22.3956752,38.6459217 21.6629464,39.9055048 L22.9195155,40.6395181 C30.462978,29.6203969 38.4250269,22.4838411 45.0244433,18.0765171 C47.4347565,16.502241 47.9577872,15.557351 48.7957698,13.8784476 C50.891131,9.57575092 52.8820481,6.42719886 56.2339784,6.42719886 C57.8054994,6.42719886 59.0628781,7.26665053 60.0061145,8.31616788 L62.415618,9.05099224 L59.9008606,10.7298956 L62.415618,11.7794129 C59.1673223,12.7234919 54.6632671,15.9774824 52.7776039,20.6994994 C49.3196101,20.8049378 47.6436449,23.7434241 46.4915201,26.0517135 C45.6535375,27.7314279 44.500603,28.3608139 42.6149398,29.5157696 L28.2623628,39.5900007 L30.2532799,39.9055048 L43.5581762,30.9846072 C46.1773778,29.2010766 47.4347565,27.8360552 48.063041,26.6819105 C49.2151659,24.1635555 50.5769888,22.2737754 53.1961904,22.2737754 C54.4535691,22.2737754 55.8153919,22.9039725 56.9675168,23.9526788 L59.2725761,24.6875031 L56.7578187,26.2625902 L58.85318,27.5213622 C52.7776039,29.4103312 49.0054678,33.8184663 46.8056624,42.2137941 L48.3771833,42.5284871 C49.2151659,39.8000664 50.0531485,37.2817114 51.4149714,34.972611 C54.9774094,34.972611 58.5390377,34.8679837 62.1006661,34.8679837 C71.4253476,34.8679837 79.1776985,35.287304 83.3684211,36.4422597 L81.9013443,33.9230936 C77.3964795,33.083642 70.9015073,32.768949 62.1006661,32.768949 C59.0628781,32.768949 56.1295342,32.8735763 53.0917462,32.8735763 C55.0818536,30.8799799 57.8054994,29.0956382 62.1006661,27.8360552 L59.0628781,26.1571518 L62.415618,24.2681828 L57.8054994,22.5892795 C57.0727706,21.8544551 56.02509,21.1196308 54.7677113,20.8049378 C56.2339784,16.2921753 61.2626835,13.668382 66.0816906,11.8840402 L62.7297603,10.5198299 L66.0816906,8.63086088 L60.8440971,6.95195754 C59.4814645,5.3776815 58.2248955,4.64285714 56.1295342,4.64285714 C51.3105272,4.64285714 49.3196101,8.84092656 47.3295027,12.5142373 C46.3862662,14.5078336 45.7579817,15.3472853 43.9767627,16.502241 C40.3106901,18.9159687 35.4908734,22.6939068 30.9860086,27.4167349 C28.681759,25.7370205 23.7583077,20.6994994 22.500929,17.9710787 C21.9770887,18.6004647 21.4532484,20.0701134 21.4532484,20.0701134 C21.9770887,20.5948721 27.6340783,26.2625902 29.7294396,28.7809452 C29.6241857,28.8855725 29.4152973,29.0956382 29.3100435,29.3057039 C27.0057938,29.7250242 21.1382965,30.3552213 19.148189,30.0397172 L18.1005084,32.0341246 C19.5675852,31.9294973 25.329019,31.1946729 27.8437764,31.0892346 C27.110238,31.9294973 26.3766996,32.8735763 25.6431613,33.8184663 C18.1005084,34.657918 13.1770571,36.232194 13.1770571,38.9606147 C13.1770571,39.3807461 13.2815013,39.9055048 13.2815013,40.4294524 C13.2815013,41.5844081 12.8621052,42.0037284 12.0241227,42.5284871 C11.5002823,42.8439911 11.5002823,43.1586841 11.7099804,43.4733771 C11.9196785,43.7880701 13.0718033,45.4669735 13.0718033,45.7824775 C13.0718033,46.4118635 12.547963,46.9366222 12.1293765,47.4613809 C11.7099804,47.8815122 11.7099804,47.9861395 12.0241227,48.5108982 L14.2247378,53.1282879 L16.5289875,54.8080023" id="Fill-10"></path>
            <path d="M111.396017,29.2675468 C110.968641,29.6988736 110.541265,30.3450312 110.114714,30.8837734 L108.940667,29.1592987 C112.99744,23.6644613 123.886455,21.0789984 130.291321,20.5402562 L130.291321,17.6308817 C129.437394,17.8465451 128.583466,18.1696239 127.729539,18.3852873 C126.661924,18.6009508 125.594309,18.9240296 124.740382,18.8166142 C123.779198,18.8166142 123.031702,18.4927027 122.711583,17.9547932 C121.857656,16.7690607 122.711583,14.9380034 125.487877,13.2135287 L123.24539,11.2742233 C121.537536,13.5366075 119.936113,16.0146551 118.228259,17.416051 C116.626836,18.8166142 115.025414,19.4627718 113.74411,18.4927027 C112.99744,17.9547932 112.783752,17.7391298 112.676495,16.3385666 C112.783752,14.2910131 113.957798,11.166808 115.025414,9.11925453 L112.463632,8.79617574 C112.036256,11.9212136 110.754953,14.5066766 109.367218,16.6616454 C107.765795,19.3553564 105.63139,21.2946618 103.388903,22.8026403 L101.894737,21.4020772 C103.709023,20.3245927 105.95151,18.6009508 107.445676,16.2303185 C109.260787,13.4291922 110.754953,9.98107552 110.754953,6.96428571 L118.228259,7.61127596 C117.160644,9.01183916 115.45279,12.1360443 114.811726,14.2910131 C114.491606,15.4759129 114.491606,16.445982 114.918982,16.7690607 C115.665653,17.3078029 117.054212,16.3385666 118.441947,14.9380034 C120.36349,12.7830346 122.285032,9.65799673 123.031702,8.58051232 L128.583466,13.1061134 C126.128116,14.3992612 123.779198,15.9072398 124.206574,16.7690607 C124.63395,17.5234664 126.234548,17.3078029 127.943227,16.7690607 C129.330962,16.3385666 130.825128,15.6915763 132,14.9380034 L132,22.3721462 C129.330962,22.3721462 124.846813,22.9108884 120.576352,24.2040362 C121.644793,25.6045994 124.526694,26.1425089 126.341805,26.4664204 L125.487877,32.5 C120.790041,30.4524466 117.160644,29.3757948 111.396017,29.2675468 L113.317559,27.5439048 C117.480763,27.6513202 121.751224,28.944468 124.100143,30.1293678 L124.419437,27.8669836 C122.285032,27.5439048 119.615994,26.359005 118.441947,24.9576092 C116.626836,25.6045994 114.811726,26.4664204 113.317559,27.5439048 L111.396017,29.2675468" id="Fill-11"></path>
            <path d="M88.8781044,47.5390056 L90.5730767,43.7726249 C88.7716569,41.6800115 86.7589797,39.0642448 84.9583787,36.2398636 L83.4746639,33.7284042 C79.9782718,27.2419496 81.2499104,24.1030295 79.4484907,21.1735325 C77.8591471,18.8714961 70.4430294,20.3366489 69.2770195,20.5452633 L71.3961442,17.0934216 L67.1578947,17.4071519 L70.7607343,13.2219251 C71.184068,12.5936559 71.2905155,12.1756184 71.7138491,10.7104656 C72.3500779,8.40923778 74.2563075,4.64285714 79.9782718,4.64285714 C86.2291985,4.64285714 88.2426945,9.66496752 90.8907816,11.8618881 C94.0694687,14.372539 98.0956419,17.8251894 101.698482,21.2778397 L103.181378,22.6378767 C105.088426,24.521067 106.889846,26.5093732 108.691266,28.810601 L109.856457,30.4851769 C117.484651,41.3662813 126.808636,62.1864906 131.046885,71.707558 C131.36459,72.6495575 131.682295,73.5907483 132,74.3233247 C129.139837,72.7538647 126.066778,70.8706744 122.782462,68.6729452 L120.981043,67.418024 C119.815852,66.5811404 118.649842,65.7442568 117.484651,64.9073731 L115.577602,63.3371045 C114.412411,62.5002209 113.246401,61.55903 112.187658,60.6170306 L116.001755,82.2749321 C116.213831,83.6349691 117.379022,83.425546 118.226508,82.2749321 C119.073994,81.1243182 119.498147,80.8097793 119.073994,79.3454351 L115.577602,63.3371045 L117.484651,64.9073731 L120.875414,78.4034357 C121.193119,79.6591654 121.7229,80.0772029 123.206615,80.0772029 C124.689511,80.1823187 124.901587,79.6591654 124.689511,78.717166 L120.981043,67.418024 L122.782462,68.6729452 L126.278855,78.8222818 C127.232788,81.4380485 126.278855,81.7517788 124.689511,81.7517788 C123.206615,81.7517788 121.7229,81.3329327 120.875414,81.856086 C120.027928,82.4835466 118.968365,83.9486994 117.591098,85.2044291 C116.531536,86.3550431 114.835745,86.14562 114.51804,83.9486994 L110.27979,58.9432633 C107.631703,56.5369196 104.982797,54.0254602 102.651596,51.4096934 C101.698482,50.9916559 100.532472,50.4685026 99.4729092,50.050465 L97.9900132,49.3178886 C97.3537845,49.0033498 96.9304509,48.8990425 96.8240033,48.7947353 C95.6588123,50.1547723 94.4936212,51.7242323 93.2219826,52.770539 C92.5865727,53.3979996 92.0567915,53.7117299 91.1028579,53.7117299 C90.7851529,53.7117299 90.3618193,53.7117299 90.0432955,53.5031154 C89.6199618,53.2936923 89.3014381,52.8748462 88.8781044,52.2473857 C88.5603995,51.8285395 88.136247,51.201079 87.7129133,50.5736184 C86.8654272,49.2127728 86.0171223,47.4346983 85.1696361,46.0738528 C84.32215,44.5052013 83.4746639,43.3537788 83.3682163,43.1443558 C83.2625876,42.8306255 82.839254,42.5168952 82.839254,42.5168952 C82.3094728,43.1443558 81.990949,44.5052013 81.990949,45.342085 L80.508053,44.8189316 C80.6136817,43.7726249 81.0378342,42.4125879 81.3555391,41.7843188 C81.3555391,41.2611654 80.7201293,40.5293976 80.1903481,40.5293976 C79.4484907,40.5293976 78.7066332,41.2611654 78.3889283,42.7263182 L76.7995847,43.4588946 C76.9060323,41.052551 77.7535184,38.4367843 80.1903481,38.4367843 C82.0973966,38.4367843 83.3682163,39.9011285 84.2165213,41.2611654 C85.1696361,42.622011 88.2426945,46.7021219 88.8781044,47.5390056 L90.0432955,49.0033498 C90.2553717,49.9453492 90.6795242,50.4685026 90.8907816,50.7822329 C91.3149341,51.4096934 91.7382677,51.4096934 92.3744965,50.7822329 C92.6922014,50.5736184 93.5396875,49.841042 94.4936212,48.8990425 C95.2354786,48.1664661 95.9765172,47.1201595 96.295041,46.7021219 C97.1425271,47.0158522 98.8374994,47.8527359 100.109138,48.3758892 C94.4936212,41.4705885 88.9837331,33.1009436 86.653351,27.450564 C85.6994173,25.0442204 87.6064658,24.3124526 88.4539519,26.6136804 C90.9972291,32.8915205 98.3077182,44.0863552 103.711159,49.9453492 C109.856457,56.6412269 121.193119,66.4760246 128.610055,70.347521 C127.550493,68.2549077 126.173226,65.3254107 124.477435,61.8727603 C115.471973,56.8506499 106.465693,47.6441214 102.227444,39.692514 L104.028864,39.9011285 C107.949408,46.8064292 117.379022,56.0137663 122.994539,58.629533 C117.908803,47.9578517 111.233724,34.4609806 106.147988,28.7062938 C99.6849855,21.4872628 92.6922014,15.8376918 89.3014381,13.0125021 C86.0171223,10.083005 84.639855,6.52604746 79.9782718,6.52604746 C76.0577273,6.52604746 73.9386026,9.35042865 73.197564,12.0713112 C72.9854878,12.6987718 72.879859,13.0125021 72.5613353,13.5356554 L70.6542868,15.732576 L74.68046,15.3145385 L72.3500779,18.45265 C72.3500779,18.45265 78.6010045,17.0934216 80.825758,20.0229186 C83.1569589,23.1610301 81.6732441,26.7187962 85.5937886,33.7284042 C87.2887609,36.763017 91.4205628,42.2031649 92.7986489,43.4588946 L90.0432955,49.0033498 L88.8781044,47.5390056" id="Fill-12"></path>
            <path d="M26.4128882,49.4898999 L25.4736842,48.8771611 C25.9960912,48.4694571 27.0384867,47.7549894 28.0816884,47.3464968 C28.6032892,47.1422505 29.2296939,47.0405217 29.6464909,47.0405217 C30.6896926,47.0405217 31.6288966,47.4490143 32.4632967,47.9592357 C33.8192976,48.6737034 35.3841001,49.4898999 36.6361033,49.4898999 C37.0529003,49.4898999 37.4705034,49.3873825 37.9912981,49.3873825 C39.2433013,49.3873825 40.3913069,49.8976039 41.0169054,49.8976039 C41.4345086,49.8976039 41.642504,49.5916288 41.9561094,49.1831362 C42.5817079,48.2652108 43.5201057,47.5507431 44.6681113,47.1422505 C45.8153106,46.6328177 47.3801132,46.4285714 48.9449157,46.4285714 C50.3009166,46.4285714 51.448116,46.6328177 52.0745207,46.7345466 C52.0745207,46.7345466 51.1353167,47.8567182 50.9265151,48.1626934 C49.5705142,48.1626934 47.1713116,48.0609645 45.6065091,48.6737034 C44.5633074,49.0814073 44.2505081,49.6933576 44.2505081,50.4078253 C44.2505081,51.5307856 45.6065091,52.0402184 46.96251,52.4487109 C47.901714,52.6529572 48.8401118,52.7546861 49.5705142,52.7546861 C50.6137159,52.7546861 52.4913176,52.3461935 54.3689194,51.9384895 C56.6641243,51.5307856 58.7505277,50.9180467 59.3761262,50.7138004 L60.2105263,52.1427358 C57.707326,52.9589324 55.0993218,53.7751289 52.7001192,54.1836215 C51.3441183,54.4895966 50.092115,54.6938429 48.9449157,54.6938429 C46.96251,54.6938429 44.8769129,53.8776463 43.2073065,53.0606612 C41.7473078,52.4487109 40.4953046,51.7342433 39.2433013,51.7342433 C37.9912981,51.7342433 36.740101,52.1427358 35.5920955,52.8564149 C34.966497,53.1631786 33.1936991,54.3878678 31.6288966,54.999818 C30.3768933,55.4083106 29.4376893,55.7142857 28.1864923,55.7142857 C27.1432906,55.7142857 26.4128882,55.5100394 25.8912874,55.1015469 L27.7688891,53.9793752 C28.0816884,54.1836215 28.4992915,54.2853503 28.7072869,54.2853503 C29.0208924,54.2853503 29.3336916,54.1836215 30.064094,53.8776463 C30.480891,53.7751289 31.1064895,53.3666363 31.5240927,53.1631786 C32.2544951,52.6529572 32.4632967,52.3461935 32.7760959,52.1427358 C33.4016945,51.7342433 33.610496,51.122293 32.8800936,50.5103427 C32.4632967,50.203579 32.1504974,49.8976039 31.7328942,49.5916288 C31.0024918,49.1831362 30.5856949,48.8771611 29.3336916,48.8771611 C27.9776907,48.8771611 26.934489,49.1831362 26.4128882,49.4898999" id="Fill-13"></path>
            <path d="M54.7239288,48.75 C54.7239288,48.75 53.5759499,48.4873245 53.2631579,48.4873245 C53.9935434,47.6112882 55.0367208,46.9105945 55.7671063,46.4725763 C57.3318725,45.59654 58.8966387,45.071189 61.3997809,44.9831792 C62.0253649,44.8958464 63.3821405,44.8085135 64.1117198,44.8085135 C64.8421053,44.8958464 65.989278,44.8958464 67.0324555,45.071189 C67.7628409,45.1585219 68.4932264,45.3338645 69.1188104,45.4211974 C69.4316024,45.5092072 70.6835766,45.5092072 71.10117,45.4211974 C72.8739268,45.1585219 74.9602817,44.6331709 76.0034592,44.1071429 L76.4210526,45.5092072 C74.125901,46.5599092 71.5179573,47.5239553 69.0148151,47.5239553 C67.8668362,47.5239553 66.5116729,47.4366225 65.2596987,47.3486127 C63.1733438,47.17327 61.2949794,46.9105945 60.6693954,46.9105945 C58.8966387,46.9105945 56.3926903,47.6112882 54.7239288,48.75" id="Fill-14"></path>
            <path d="M53.186742,59.2051838 L50.9473684,58.0908292 C54.0406217,56.5312494 58.7328388,54.8597175 60.7595667,54.5255834 C62.6791475,54.1914492 64.9185211,53.9684061 66.1985164,53.5223198 C66.838102,55.0827607 68.0109502,56.6423404 69.6107383,56.6423404 C70.251148,56.6423404 71.2105263,56.1971153 72.2770517,55.751029 C73.4498999,55.1938517 74.5164253,54.6366744 75.1560108,54.4136312 C75.7964206,54.0794971 77.8231485,53.1881856 79.6355822,52.2968742 C80.2751678,51.96274 82.0884258,51.0714286 82.1955728,51.0714286 L83.3684211,51.7396969 C83.0486283,53.3001378 82.4082185,55.3058038 81.768633,56.7542926 C81.5551631,57.3114699 81.2353703,57.756695 81.0219004,58.0908292 C80.4894619,58.6480065 79.6355822,59.5401791 78.5690569,60.3203996 C77.3962086,61.2108499 75.9027434,62.1030225 74.4101024,62.9943339 C73.2372542,63.6626022 72.0635818,64.4428227 70.7835865,65 L70.251148,63.7745544 C72.0635818,62.6601998 73.9831626,61.322802 75.6900977,59.9854043 C76.4360061,59.428227 77.1827387,58.7599587 77.7160014,58.2027814 C78.1429412,57.8686472 78.3564112,57.5336519 78.5690569,57.1995177 C79.1023196,56.5312494 79.955375,54.9716697 80.1688449,54.3025402 C79.4221123,54.6366744 76.862946,55.9740721 75.6900977,56.5312494 C74.3029554,57.3114699 72.1707288,58.4258245 70.8907335,59.0940928 C70.0376781,59.5401791 69.1846226,59.7623611 68.5442129,59.7623611 C67.1578947,59.7623611 66.5183092,58.7599587 66.1985164,58.0908292 C65.3446368,56.5312494 64.4915813,56.4201585 62.0387378,56.4201585 C59.2661015,56.3082063 55.4269398,57.5336519 53.186742,59.2051838" id="Fill-15"></path>
            <path d="M65.3714519,50.6162189 C65.3714519,50.6162189 65.0540076,49.5242786 64.8421053,49.0690689 C64.8421053,49.0690689 65.2659099,48.9776048 65.7944384,48.9776048 C66.5356874,48.9776048 68.6530741,49.1598294 69.4998652,49.1598294 C72.6759453,49.1598294 73.8401807,48.3401706 74.793332,47.6119758 C75.6401231,46.9752452 76.4869142,46.4285714 78.6043009,46.4285714 C80.5097853,46.4285714 82.7335323,47.0660057 83.3684211,47.3389908 L83.2620608,48.8868443 C82.3097277,48.4316347 81.039132,48.1586496 79.8748966,48.1586496 C79.1336476,48.1586496 78.3923986,48.1586496 77.8630519,48.4316347 C77.3345234,48.7046197 76.9107188,49.0690689 76.3813721,49.4328145 C75.8520254,49.7972637 75.1107764,50.1610092 74.052083,50.5254584 C73.0997499,50.889204 71.8291542,51.0714286 69.9236698,51.0714286 C67.4888387,51.0714286 66.1127009,50.707683 65.3714519,50.6162189" id="Fill-16"></path>
            <path d="M44,65.3370651 L45.4774349,64.6606357 C46.7436911,65.2246174 48.7478495,65.9019184 50.1192874,65.9019184 C50.9631864,65.9019184 51.5967222,65.5637038 52.1242611,65.3370651 C52.5458029,65.1121697 57.504831,62.5180283 59.9313466,61.6158319 C60.670064,61.2767456 61.5139631,61.1642979 61.8303233,61.1642979 C62.4630437,61.1642979 62.4630437,61.3900649 62.6742223,61.7282796 C63.0965796,62.5180283 66.788536,68.0445258 67.1057116,68.3827405 C70.1649476,67.3680965 73.3301806,65.9019184 75.1231603,64.096654 C77.0229524,62.1798136 78.6055689,59.9238869 80.1873701,58.1186225 C80.7149089,57.4421931 81.4536263,56.8782114 81.7699865,56.6524444 C83.352603,55.7502481 88.3116311,55.6378004 90.3157895,55.7502481 L89.1555302,57.5546408 C85.4627584,57.5546408 83.4577847,58.0061748 82.508704,58.6826042 C82.1923438,59.0216905 81.5596233,59.6981199 81.0320845,60.4878686 C79.7658282,62.1798136 78.3943903,64.548188 77.8668515,64.9988504 C78.9219291,65.7885991 80.0821884,66.4659001 81.9811652,66.4659001 C85.0404012,66.4659001 87.2565535,64.4348687 88.4168128,63.307777 L89.4718904,63.870887 C88.733173,64.9988504 87.7840923,66.0143661 86.7290146,66.8041148 C85.4627584,67.7063111 83.8801419,68.3827405 83.0362428,68.6085075 C81.2432631,68.2702928 77.3393127,67.3680965 76.3894166,67.2547771 C73.013005,68.7218269 67.4220718,71.0902013 65.6282767,71.654183 C65.3119165,71.7666306 64.8903747,71.87995 64.3620205,71.87995 C62.885401,71.9923976 60.8804272,71.9923976 58.9814505,71.87995 C57.7160096,71.87995 56.4497534,71.87995 55.8170329,71.7666306 L54.1284194,69.9622379 C55.6058543,70.3004526 56.1333931,70.3004526 57.504831,70.3004526 C60.670064,70.3004526 62.779404,69.7364709 63.4129398,69.6231515 C64.0456602,69.3982562 64.1516572,69.0600415 63.9404786,68.4951882 C63.6241184,67.7063111 63.2017612,66.8041148 62.4630437,65.9019184 C62.0415019,65.4503844 61.1976028,64.6606357 60.8804272,64.4348687 C60.4588854,64.096654 60.0365282,63.9842064 58.7710873,64.4348687 C57.7160096,64.7739551 54.233601,66.8041148 52.7569815,67.7063111 C52.0182641,68.0445258 51.3855436,68.2702928 50.1192874,67.9320782 C48.6426679,67.5929918 45.2662563,66.2401331 44,65.3370651" id="Fill-17"></path>
            <path d="M54.4210526,27.8571429 C54.9996272,27.8571429 55.5789474,27.2769726 55.5789474,26.6968024 C55.5789474,26.0194387 54.9996272,25.5357143 54.4210526,25.5357143 C53.7462975,25.5357143 53.2631579,26.0194387 53.2631579,26.6968024 C53.2631579,27.2769726 53.7462975,27.8571429 54.4210526,27.8571429" id="Fill-18"></path>
            <path d="M101.894737,99.3289359 C101.894737,98.3608225 100.983621,97.5 99.8445061,97.5 L96.9975992,97.5 C95.8584843,97.5 94.9473684,98.3608225 94.9473684,99.3289359 L95.0609278,128.171064 C95.0609278,129.140009 95.8584843,130 96.9975992,130 L99.8445061,130 C100.983621,130 101.894737,129.140009 101.894737,128.171064 L101.894737,99.3289359" id="Fill-19"></path>
            <path d="M106.526316,100.143808 L106.526316,101.233943 C106.526316,101.779713 106.941427,102.142857 107.563292,102.142857 L125.812956,102.142857 C126.643179,102.142857 127.368421,101.506477 127.368421,100.779486 L127.368421,98.8710477 C127.368421,98.1440569 126.643179,97.4170662 125.812956,97.5076766 C125.812956,97.5076766 108.185158,99.0529709 107.563292,99.1435814 C106.941427,99.1435814 106.526316,99.5980384 106.526316,100.143808" id="Fill-20"></path>
            <path d="M91.0070938,130 C86.4441645,130 83.6450229,126.449419 83.6450229,122.467179 L83.6450229,110.952119 L82.2971397,110.952119 C81.674485,110.952119 81.0526316,110.30671 81.0526316,109.660469 L81.0526316,107.723411 C81.0526316,106.969879 81.674485,106.431761 82.2971397,106.431761 L83.6450229,106.431761 L83.6450229,99.3289359 C83.6450229,98.3608225 84.3710528,97.5 85.4080093,97.5 L88.0004007,97.5 C88.9331808,97.5 89.6592106,98.3608225 89.6592106,99.3289359 L89.6592106,106.431761 L93.7028603,106.431761 C94.4288902,106.431761 94.9473684,106.969879 94.9473684,107.723411 L94.9473684,109.660469 C94.9473684,110.30671 94.4288902,110.952119 93.7028603,110.952119 L89.6592106,110.952119 L89.6592106,121.606357 C89.6592106,123.650706 90.9029174,125.157769 93.0810069,125.157769 L93.4953087,125.157769 C94.2213386,125.157769 94.843192,125.695888 94.843192,126.55671 L94.843192,128.601059 C94.843192,129.354591 94.2213386,130 93.4953087,130 L91.0070938,130" id="Fill-21"></path>
            <path d="M57.8947368,118.242186 C57.8947368,112.514338 54.3314854,106.785714 46.2631505,106.785714 C38.8232436,106.785714 34.7368421,112.413373 34.7368421,118.242186 C34.7368421,124.47253 39.1374576,130 46.3676186,130 C51.2930038,130 56.1131111,127.588479 57.0565629,123.468312 C57.161031,122.965815 56.7415391,122.161975 56.0086431,122.161975 L52.4453917,122.161975 C51.8169637,122.161975 51.2930038,122.463318 50.9787898,122.965815 C49.93087,124.372341 48.4634583,125.075993 46.3676186,125.075993 C43.2246689,125.075993 41.1288292,122.764661 40.9190833,120.151986 L55.9033652,120.151986 C57.265499,120.151986 57.8947368,119.448334 57.8947368,118.242186 Z M41.0235513,115.830665 C41.2332973,113.318179 43.5388829,111.408378 46.2631505,111.408378 C49.0926961,111.408378 51.3974719,113.318179 51.7116858,115.830665 L41.0235513,115.830665 L41.0235513,115.830665 Z" id="Fill-22"></path>
            <path d="M127.368421,118.242186 C127.368421,112.514338 123.80517,106.785714 115.736835,106.785714 C108.296928,106.785714 104.210526,112.413373 104.210526,118.242186 C104.210526,124.47253 108.611142,130 115.841303,130 C120.766688,130 125.586795,127.588479 126.530247,123.468312 C126.634715,122.965815 126.215223,122.161975 125.482327,122.161975 L121.919076,122.161975 C121.290648,122.161975 120.766688,122.463318 120.452474,122.965815 C119.404554,124.372341 117.937142,125.075993 115.736835,125.075993 C112.697543,125.075993 110.602513,122.764661 110.392767,120.151986 L125.377049,120.151986 C126.739183,120.151986 127.368421,119.448334 127.368421,118.242186 Z M110.497236,115.830665 C110.706981,113.318179 113.011757,111.408378 115.736835,111.408378 C118.56638,111.408378 120.871156,113.318179 121.080902,115.830665 L110.497236,115.830665 L110.497236,115.830665 Z" id="Fill-23"></path>
            <path d="M77.3725136,98.0345748 L28.8828832,98.0345748 C27.7286386,98.0345748 26.8891142,98.99714 26.8891142,100.065463 L26.9937506,119.523325 C26.9937506,119.523325 16.6031155,100.279458 16.0783114,99.3177196 C15.5535072,98.3551544 14.3992626,97.5 12.9294866,97.5 L8.94113743,97.5 C7.7868928,97.5 6.94736842,98.4625651 6.94736842,99.5308885 L6.94736842,127.969111 C6.94736842,129.145672 7.7868928,130 8.94113743,130 L11.4605217,130 C12.6147663,130 13.4542907,129.145672 13.4542907,127.969111 L13.3496543,108.084085 C13.3496543,108.084085 23.8449258,127.434537 24.3697299,128.183107 C24.8945341,129.252256 25.9441423,130 27.4139183,130 L31.0867361,130 C32.2417919,130 33.0813163,129.145672 33.0813163,127.969111 L33.0813163,102.845748 L77.3725136,102.845748 C78.1074016,102.845748 78.7368421,102.203763 78.7368421,101.456019 L78.7368421,99.4243041 C78.7368421,98.6757341 78.1074016,98.0345748 77.3725136,98.0345748" id="Fill-24"></path>
            <path d="M70.5792488,111.208001 C72.6945304,111.208001 74.2816048,111.910876 74.9169251,113.21799 C75.1278809,113.820676 75.6569057,113.920865 76.3977039,113.920865 L79.3600793,113.920865 C79.7836262,113.920865 80.4181289,113.519333 80.4181289,112.91587 C80.4181289,109.700509 76.2922261,106.785714 70.5792488,106.785714 C64.6536805,106.785714 60.7395511,109.499355 60.7395511,113.71971 C60.7395511,117.036814 63.490153,118.945837 66.7697797,119.849866 C68.3568541,120.151986 71.0019781,120.754672 72.2718011,121.15698 C73.5408065,121.458323 74.8106296,121.859855 74.8106296,122.965815 C74.8106296,124.77465 72.9063038,125.277147 70.6847267,125.277147 C68.6741054,125.277147 66.6643018,124.47253 66.135277,123.066004 C65.8180256,122.262164 65.1827053,122.161975 64.3364291,122.161975 L61.3740538,122.161975 C60.845029,122.161975 60.2105263,122.663695 60.2105263,123.267158 L60.2105263,123.66869 C60.2105263,126.783862 64.6536805,130 70.7902046,130 C75.022403,130 81.0526316,128.291354 81.0526316,122.86485 C81.0526316,119.648712 78.8310545,117.438345 75.1278809,116.53354 C73.75258,116.232197 70.3674754,115.328168 69.6266771,115.227202 C68.2513762,114.82567 66.9815531,114.423362 66.9815531,113.418367 C66.9815531,111.709721 68.5686275,111.208001 70.5792488,111.208001" id="Fill-25"></path>
        </g>
    </g>
</svg>