<svg width="200" height="48" viewBox="0 0 200 48" fill="none" xmlns="http://www.w3.org/2000/svg">
<path d="M23.8696 0.639706C21.1992 0.639706 18.6095 1.16249 16.1716 2.19328C13.8171 3.18912 11.7017 4.61637 9.88611 6.432C8.06913 8.24898 6.64323 10.363 5.64738 12.7189C4.61659 15.1567 4.09381 17.7465 4.09381 20.4155C4.09381 23.0859 4.61659 25.6756 5.64738 28.1135C6.64323 30.4694 8.06913 32.5833 9.88611 34.4003C11.7017 36.216 13.8171 37.6419 16.1716 38.6391C18.6095 39.6698 21.1992 40.1926 23.8696 40.1926C26.54 40.1926 29.1297 39.6698 31.5676 38.6391C33.9221 37.6419 36.0375 36.216 37.8531 34.4003C39.6701 32.5833 41.096 30.4694 42.0918 28.1135C43.1226 25.6756 43.6454 23.0859 43.6454 20.4155C43.6454 17.7465 43.1226 15.1567 42.0918 12.7189C41.096 10.363 39.6701 8.24898 37.8531 6.432C36.0375 4.61637 33.9221 3.18912 31.5676 2.19328C29.1297 1.16249 26.54 0.639706 23.8696 0.639706ZM23.8696 40.8323C21.1132 40.8323 18.4402 40.2921 15.923 39.2277C13.4918 38.1996 11.308 36.7267 9.43321 34.8519C7.55844 32.9771 6.08684 30.7946 5.05874 28.3634C3.99301 25.8463 3.4541 23.1719 3.4541 20.4155C3.4541 17.6605 3.99301 14.9861 5.05874 12.4689C6.08684 10.0377 7.55844 7.85521 9.43321 5.98044C11.308 4.10568 13.4918 2.63274 15.923 1.60464C18.4402 0.540256 21.1132 0 23.8696 0C26.626 0 29.299 0.540256 31.8162 1.60464C34.2474 2.63274 36.4312 4.10568 38.306 5.98044C40.1808 7.85521 41.6524 10.0377 42.6805 12.4689C43.7462 14.9861 44.2851 17.6605 44.2851 20.4155C44.2851 23.1719 43.7462 25.8463 42.6805 28.3634C41.6524 30.7946 40.1808 32.9771 38.306 34.8519C36.4312 36.7267 34.2474 38.1996 31.8162 39.2277C29.299 40.2921 26.626 40.8323 23.8696 40.8323Z" fill="url(#paint0_linear_593_10588)"/>
<path d="M20.6456 2.93646C17.9752 2.93646 15.3855 3.45924 12.9476 4.49003C10.5931 5.48588 8.47774 6.91177 6.66211 8.72875C4.84513 10.5457 3.41923 12.6597 2.42338 15.0156C1.39259 17.4535 0.869809 20.0432 0.869809 22.7122C0.869809 25.3826 1.39259 27.9723 2.42338 30.4102C3.41923 32.7661 4.84513 34.8801 6.66211 36.6971C8.47774 38.5127 10.5931 39.9386 12.9476 40.9345C15.3855 41.9666 17.9752 42.4894 20.6456 42.4894C23.316 42.4894 25.9057 41.9666 28.3436 40.9345C30.6981 39.9386 32.8135 38.5127 34.6291 36.6971C36.4461 34.8801 37.872 32.7661 38.8678 30.4102C39.8986 27.9723 40.4214 25.3826 40.4214 22.7122C40.4214 20.0432 39.8986 17.4535 38.8678 15.0156C37.872 12.6597 36.4461 10.5457 34.6291 8.72875C32.8135 6.91177 30.6981 5.48588 28.3436 4.49003C25.9057 3.45924 23.316 2.93646 20.6456 2.93646ZM20.6456 43.1291C17.8892 43.1291 15.2162 42.5888 12.699 41.5244C10.2678 40.4963 8.08398 39.0234 6.20921 37.1486C4.33444 35.2739 2.86284 33.0913 1.83474 30.6602C0.769015 28.143 0.230103 25.4686 0.230103 22.7122C0.230103 19.9572 0.769015 17.2828 1.83474 14.7656C2.86284 12.3345 4.33444 10.152 6.20921 8.2772C8.08398 6.40243 10.2678 4.92949 12.699 3.90139C15.2162 2.83701 17.8892 2.29675 20.6456 2.29675C23.402 2.29675 26.075 2.83701 28.5922 3.90139C31.0234 4.92949 33.2072 6.40243 35.082 8.2772C36.9568 10.152 38.4284 12.3345 39.4565 14.7656C40.5222 17.2828 41.0611 19.9572 41.0611 22.7122C41.0611 25.4686 40.5222 28.143 39.4565 30.6602C38.4284 33.0913 36.9568 35.2739 35.082 37.1486C33.2072 39.0234 31.0234 40.4963 28.5922 41.5244C26.075 42.5888 23.402 43.1291 20.6456 43.1291Z" fill="url(#paint1_linear_593_10588)"/>
<path d="M25.0676 2.79803C22.3972 2.79803 19.8075 3.32082 17.3696 4.3516C15.0151 5.34879 12.8997 6.77469 11.0841 8.59033C9.26712 10.4073 7.84122 12.5213 6.84538 14.8772C5.81459 17.3151 5.29181 19.9048 5.29181 22.5738C5.29181 25.2442 5.81459 27.8339 6.84538 30.2718C7.84122 32.6277 9.26712 34.7417 11.0841 36.5587C12.8997 38.3743 15.0151 39.8002 17.3696 40.7974C19.8075 41.8282 22.3972 42.351 25.0676 42.351C27.738 42.351 30.3277 41.8282 32.7656 40.7974C35.1201 39.8002 37.2355 38.3743 39.0511 36.5587C40.8681 34.7417 42.294 32.6277 43.2898 30.2718C44.3206 27.8339 44.8434 25.2442 44.8434 22.5738C44.8434 19.9048 44.3206 17.3151 43.2898 14.8772C42.294 12.5213 40.8681 10.4073 39.0511 8.59033C37.2355 6.77469 35.1201 5.34879 32.7656 4.3516C30.3277 3.32082 27.738 2.79803 25.0676 2.79803ZM25.0676 42.9907C22.3112 42.9907 19.6382 42.4504 17.121 41.386C14.6898 40.3579 12.506 38.885 10.6312 37.0102C8.75643 35.1354 7.28484 32.9529 6.25674 30.5218C5.19101 28.0046 4.6521 25.3302 4.6521 22.5738C4.6521 19.8188 5.19101 17.1444 6.25674 14.6272C7.28484 12.1961 8.75643 10.0135 10.6312 8.13877C12.506 6.264 14.6898 4.79107 17.121 3.76297C19.6382 2.69858 22.3112 2.15833 25.0676 2.15833C27.824 2.15833 30.497 2.69858 33.0142 3.76297C35.4454 4.79107 37.6292 6.264 39.504 8.13877C41.3788 10.0135 42.8504 12.1961 43.8785 14.6272C44.9442 17.1444 45.4831 19.8188 45.4831 22.5738C45.4831 25.3302 44.9442 28.0046 43.8785 30.5218C42.8504 32.9529 41.3788 35.1354 39.504 37.0102C37.6292 38.885 35.4454 40.3579 33.0142 41.386C30.497 42.4504 27.824 42.9907 25.0676 42.9907Z" fill="url(#paint2_linear_593_10588)"/>
<path d="M22.9256 2.93646C20.2553 2.93646 17.6655 3.45924 15.2277 4.49003C12.8731 5.48588 10.7578 6.91177 8.94214 8.72875C7.12516 10.5457 5.69926 12.6597 4.70341 15.0156C3.67262 17.4535 3.14984 20.0432 3.14984 22.7122C3.14984 25.3826 3.67262 27.9723 4.70341 30.4102C5.69926 32.7661 7.12516 34.8801 8.94214 36.6971C10.7578 38.5127 12.8731 39.9386 15.2277 40.9345C17.6655 41.9666 20.2553 42.4894 22.9256 42.4894C25.596 42.4894 28.1857 41.9666 30.6236 40.9345C32.9782 39.9386 35.0935 38.5127 36.9091 36.6971C38.7261 34.8801 40.152 32.7661 41.1479 30.4102C42.1786 27.9723 42.7014 25.3826 42.7014 22.7122C42.7014 20.0432 42.1786 17.4535 41.1479 15.0156C40.152 12.6597 38.7261 10.5457 36.9091 8.72875C35.0935 6.91177 32.9782 5.48588 30.6236 4.49003C28.1857 3.45924 25.596 2.93646 22.9256 2.93646ZM22.9256 43.1291C20.1692 43.1291 17.4962 42.5888 14.979 41.5244C12.5479 40.4963 10.364 39.0234 8.48924 37.1486C6.61447 35.2739 5.14287 33.0913 4.11477 30.6602C3.04904 28.143 2.51013 25.4686 2.51013 22.7122C2.51013 19.9572 3.04904 17.2828 4.11477 14.7656C5.14287 12.3345 6.61447 10.152 8.48924 8.2772C10.364 6.40243 12.5479 4.92949 14.979 3.90139C17.4962 2.83701 20.1692 2.29675 22.9256 2.29675C25.682 2.29675 28.3551 2.83701 30.8722 3.90139C33.3034 4.92949 35.4873 6.40243 37.362 8.2772C39.2368 10.152 40.7084 12.3345 41.7365 14.7656C42.8022 17.2828 43.3411 19.9572 43.3411 22.7122C43.3411 25.4686 42.8022 28.143 41.7365 30.6602C40.7084 33.0913 39.2368 35.2739 37.362 37.1486C35.4873 39.0234 33.3034 40.4963 30.8722 41.5244C28.3551 42.5888 25.682 43.1291 22.9256 43.1291Z" fill="url(#paint3_linear_593_10588)"/>
<path d="M24.1003 5.07867C21.4299 5.07867 18.8402 5.60146 16.4023 6.63224C14.0478 7.62809 11.9325 9.05399 10.1168 10.871C8.29984 12.6879 6.87394 14.8019 5.87809 17.1578C4.84731 19.5957 4.32452 22.1854 4.32452 24.8545C4.32452 27.5248 4.84731 30.1146 5.87809 32.5524C6.87394 34.907 8.29984 37.0223 10.1168 38.8393C11.9325 40.6549 14.0478 42.0808 16.4023 43.0767C18.8402 44.1088 21.4299 44.6316 24.1003 44.6316C26.7707 44.6316 29.3604 44.1088 31.7983 43.0767C34.1528 42.0808 36.2682 40.6549 38.0838 38.8393C39.9008 37.0223 41.3267 34.907 42.3225 32.5524C43.3533 30.1146 43.8761 27.5248 43.8761 24.8545C43.8761 22.1854 43.3533 19.5957 42.3225 17.1578C41.3267 14.8019 39.9008 12.6879 38.0838 10.871C36.2682 9.05399 34.1528 7.62809 31.7983 6.63224C29.3604 5.60146 26.7707 5.07867 24.1003 5.07867ZM24.1003 45.2713C21.3439 45.2713 18.6709 44.731 16.1537 43.6667C13.7226 42.6386 11.5387 41.1656 9.66392 39.2908C7.78915 37.4161 6.31756 35.2336 5.28946 32.8024C4.22373 30.2852 3.68481 27.6108 3.68481 24.8545C3.68481 22.0994 4.22373 19.425 5.28946 16.9079C6.31756 14.4767 7.78915 12.2942 9.66392 10.4194C11.5387 8.54464 13.7226 7.07171 16.1537 6.04361C18.6709 4.97922 21.3439 4.43896 24.1003 4.43896C26.8567 4.43896 29.5298 4.97922 32.0469 6.04361C34.4781 7.07171 36.6619 8.54464 38.5367 10.4194C40.4115 12.2942 41.8831 14.4767 42.9112 16.9079C43.9769 19.425 44.5158 22.0994 44.5158 24.8545C44.5158 27.6108 43.9769 30.2852 42.9112 32.8024C41.8831 35.2336 40.4115 37.4161 38.5367 39.2908C36.6619 41.1656 34.4781 42.6386 32.0469 43.6667C29.5298 44.731 26.8567 45.2713 24.1003 45.2713Z" fill="url(#paint4_linear_593_10588)"/>
<path d="M20.4155 5.07867C17.7451 5.07867 15.1554 5.60146 12.7175 6.63224C10.363 7.62809 8.24764 9.05399 6.432 10.871C4.61502 12.6879 3.18912 14.8019 2.19328 17.1578C1.16249 19.5957 0.639706 22.1854 0.639706 24.8545C0.639706 27.5248 1.16249 30.1146 2.19328 32.5524C3.18912 34.907 4.61502 37.0223 6.432 38.8393C8.24764 40.6549 10.363 42.0808 12.7175 43.0767C15.1554 44.1088 17.7451 44.6316 20.4155 44.6316C23.0859 44.6316 25.6756 44.1088 28.1135 43.0767C30.468 42.0808 32.5834 40.6549 34.399 38.8393C36.216 37.0223 37.6419 34.907 38.6377 32.5524C39.6685 30.1146 40.1913 27.5248 40.1913 24.8545C40.1913 22.1854 39.6685 19.5957 38.6377 17.1578C37.6419 14.8019 36.216 12.6879 34.399 10.871C32.5834 9.05399 30.468 7.62809 28.1135 6.63224C25.6756 5.60146 23.0859 5.07867 20.4155 5.07867ZM20.4155 45.2713C17.6591 45.2713 14.9861 44.731 12.4689 43.6667C10.0377 42.6386 7.85387 41.1656 5.9791 39.2908C4.10433 37.4161 2.63274 35.2336 1.60464 32.8024C0.538913 30.2852 0 27.6108 0 24.8545C0 22.0994 0.538913 19.425 1.60464 16.9079C2.63274 14.4767 4.10433 12.2942 5.9791 10.4194C7.85387 8.54464 10.0377 7.07171 12.4689 6.04361C14.9861 4.97922 17.6591 4.43896 20.4155 4.43896C23.1719 4.43896 25.8449 4.97922 28.3621 6.04361C30.7933 7.07171 32.9771 8.54464 34.8519 10.4194C36.7267 12.2942 38.1983 14.4767 39.2264 16.9079C40.2921 19.425 40.831 22.0994 40.831 24.8545C40.831 27.6108 40.2921 30.2852 39.2264 32.8024C38.1983 35.2336 36.7267 37.4161 34.8519 39.2908C32.9771 41.1656 30.7933 42.6386 28.3621 43.6667C25.8449 44.731 23.1719 45.2713 20.4155 45.2713Z" fill="url(#paint5_linear_593_10588)"/>
<path d="M20.4155 7.37542C17.7451 7.37542 15.1554 7.89821 12.7175 8.929C10.363 9.92618 8.24764 11.3521 6.432 13.1677C4.61502 14.9847 3.18912 17.0987 2.19328 19.4546C1.16249 21.8924 0.639706 24.4822 0.639706 27.1512C0.639706 29.8216 1.16249 32.4113 2.19328 34.8492C3.18912 37.2051 4.61502 39.3191 6.432 41.136C8.24764 42.9517 10.363 44.3776 12.7175 45.3748C15.1554 46.4056 17.7451 46.9283 20.4155 46.9283C23.0859 46.9283 25.6756 46.4056 28.1135 45.3748C30.468 44.3776 32.5834 42.9517 34.399 41.136C36.216 39.3191 37.6419 37.2051 38.6377 34.8492C39.6685 32.4113 40.1913 29.8216 40.1913 27.1512C40.1913 24.4822 39.6685 21.8924 38.6377 19.4546C37.6419 17.0987 36.216 14.9847 34.399 13.1677C32.5834 11.3521 30.468 9.92618 28.1135 8.929C25.6756 7.89821 23.0859 7.37542 20.4155 7.37542ZM20.4155 47.568C17.6591 47.568 14.9861 47.0278 12.4689 45.9634C10.0377 44.9353 7.85387 43.4624 5.9791 41.5876C4.10433 39.7128 2.63274 37.5303 1.60464 35.0992C0.538913 32.582 0 29.9076 0 27.1512C0 24.3962 0.538913 21.7218 1.60464 19.2046C2.63274 16.7735 4.10433 14.5909 5.9791 12.7162C7.85387 10.8414 10.0377 9.36846 12.4689 8.34036C14.9861 7.27597 17.6591 6.73572 20.4155 6.73572C23.1719 6.73572 25.8449 7.27597 28.3621 8.34036C30.7933 9.36846 32.9771 10.8414 34.8519 12.7162C36.7267 14.5909 38.1983 16.7735 39.2264 19.2046C40.2921 21.7218 40.831 24.3962 40.831 27.1512C40.831 29.9076 40.2921 32.582 39.2264 35.0992C38.1983 37.5303 36.7267 39.7128 34.8519 41.5876C32.9771 43.4624 30.7933 44.9353 28.3621 45.9634C25.8449 47.0278 23.1719 47.568 20.4155 47.568Z" fill="url(#paint6_linear_593_10588)"/>
<path d="M62.9093 21.2095C64.983 21.2095 66.724 19.543 66.724 17.3579C66.724 15.321 64.983 13.7659 62.9093 13.7659H58.6135V21.2095H62.9093ZM53.7983 9.91425C53.7983 9.54391 54.0949 9.21045 54.5021 9.21045H63.2059C67.7605 9.21045 71.5016 12.9138 71.5016 17.3947C71.5016 21.9871 67.7605 25.7281 63.2427 25.7281H58.6135V34.431C58.6135 34.8013 58.2801 35.1348 57.9097 35.1348H54.5021C54.0949 35.1348 53.7983 34.8013 53.7983 34.431V9.91425Z" fill="#5FA83D"/>
<path d="M87.4265 26.2836L83.7231 18.1362H83.6117L79.9829 26.2836H87.4265ZM71.4275 34.1721L82.9456 9.2473C83.0562 9.02526 83.2413 8.84009 83.5748 8.84009H83.9451C84.3155 8.84009 84.4638 9.02526 84.5744 9.2473L95.9811 34.1721C96.2039 34.653 95.9073 35.1348 95.3518 35.1348H92.1302C91.5747 35.1348 91.315 34.9127 91.0561 34.3941L89.2413 30.3942H78.1681L76.3532 34.3941C76.205 34.7644 75.8715 35.1348 75.2791 35.1348H72.0567C71.5012 35.1348 71.2054 34.653 71.4275 34.1721Z" fill="#5FA83D"/>
<path d="M111.129 8.84009C114.462 8.84009 117.647 10.1363 120.165 12.2845C120.462 12.5803 120.499 13.0252 120.202 13.321L117.906 15.7282C117.61 16.0248 117.276 16.0248 116.944 15.7282C115.351 14.3214 113.388 13.5807 111.351 13.5807C106.722 13.5807 103.055 17.543 103.055 22.1722C103.055 26.7645 106.722 30.6531 111.388 30.6531C113.462 30.6531 115.054 30.0238 115.795 29.7272V26.5794H112.832C112.425 26.5794 112.128 26.2836 112.128 25.9132V22.9874C112.128 22.5802 112.425 22.2836 112.832 22.2836H119.943C120.314 22.2836 120.61 22.6171 120.61 22.9874V32.4679C120.61 32.7645 120.462 32.9496 120.314 33.0611C120.314 33.0611 116.499 35.4683 111.129 35.4683C103.759 35.4683 97.8336 29.6166 97.8336 22.2099C97.8336 14.8023 103.759 8.84009 111.129 8.84009Z" fill="#5FA83D"/>
<path d="M126.572 9.91425C126.572 9.54391 126.869 9.21045 127.276 9.21045H142.349C142.757 9.21045 143.053 9.54391 143.053 9.91425V12.9515C143.053 13.3218 142.757 13.6545 142.349 13.6545H131.387V19.7282H140.535C140.905 19.7282 141.238 20.0616 141.238 20.432V23.5061C141.238 23.9133 140.905 24.2099 140.535 24.2099H131.387V30.6908H142.349C142.757 30.6908 143.053 31.0242 143.053 31.3946V34.431C143.053 34.8013 142.757 35.1348 142.349 35.1348H127.276C126.869 35.1348 126.572 34.8013 126.572 34.431V9.91425Z" fill="#5FA83D"/>
<path d="M156.849 10.103H161.742V23.2286C161.742 25.3115 161.802 26.6615 161.924 27.2787C162.133 28.2705 162.629 29.0695 163.411 29.6757C164.205 30.2708 165.285 30.5683 166.651 30.5683C168.04 30.5683 169.087 30.2873 169.792 29.7253C170.498 29.1522 170.922 28.4524 171.065 27.6258C171.208 26.7993 171.28 25.4272 171.28 23.5096V10.103H176.173V22.8319C176.173 25.7413 176.041 27.7967 175.777 28.9979C175.512 30.1992 175.022 31.2131 174.305 32.0396C173.6 32.8662 172.652 33.5274 171.462 34.0233C170.272 34.5082 168.718 34.7507 166.8 34.7507C164.486 34.7507 162.728 34.4862 161.527 33.9572C160.337 33.4172 159.394 32.7229 158.7 31.8743C158.006 31.0147 157.548 30.1165 157.328 29.1797C157.008 27.7911 156.849 25.7413 156.849 23.0302V10.103Z" fill="#03ACB7"/>
<path d="M181.948 16.5005H186.891L191.09 28.9648L195.19 16.5005H200L193.801 33.3951L192.693 36.4534C192.286 37.4783 191.894 38.2608 191.52 38.8008C191.156 39.3408 190.732 39.7761 190.247 40.1067C189.773 40.4483 189.183 40.7128 188.478 40.9002C187.784 41.0875 186.996 41.1812 186.114 41.1812C185.221 41.1812 184.345 41.0875 183.486 40.9002L183.072 37.2634C183.8 37.4067 184.455 37.4783 185.04 37.4783C186.12 37.4783 186.919 37.1587 187.437 36.5195C187.954 35.8913 188.351 35.0868 188.627 34.106L181.948 16.5005Z" fill="#03ACB7"/>
<circle cx="150.029" cy="33.0873" r="2.27317" fill="#03ACB7"/>
<defs>
<linearGradient id="paint0_linear_593_10588" x1="42.3552" y1="12.9555" x2="3.77776" y2="27.3212" gradientUnits="userSpaceOnUse">
<stop stop-color="#5FA83D"/>
<stop offset="1" stop-color="#04AAB4"/>
</linearGradient>
<linearGradient id="paint1_linear_593_10588" x1="39.1312" y1="15.2522" x2="0.553764" y2="29.6179" gradientUnits="userSpaceOnUse">
<stop stop-color="#5FA83D"/>
<stop offset="1" stop-color="#04AAB4"/>
</linearGradient>
<linearGradient id="paint2_linear_593_10588" x1="43.5532" y1="15.1138" x2="4.97576" y2="29.4795" gradientUnits="userSpaceOnUse">
<stop stop-color="#5FA83D"/>
<stop offset="1" stop-color="#04AAB4"/>
</linearGradient>
<linearGradient id="paint3_linear_593_10588" x1="41.4112" y1="15.2522" x2="2.83379" y2="29.6179" gradientUnits="userSpaceOnUse">
<stop stop-color="#5FA83D"/>
<stop offset="1" stop-color="#04AAB4"/>
</linearGradient>
<linearGradient id="paint4_linear_593_10588" x1="42.5859" y1="17.3944" x2="4.00848" y2="31.7602" gradientUnits="userSpaceOnUse">
<stop stop-color="#5FA83D"/>
<stop offset="1" stop-color="#04AAB4"/>
</linearGradient>
<linearGradient id="paint5_linear_593_10588" x1="38.9011" y1="17.3944" x2="0.323662" y2="31.7602" gradientUnits="userSpaceOnUse">
<stop stop-color="#5FA83D"/>
<stop offset="1" stop-color="#04AAB4"/>
</linearGradient>
<linearGradient id="paint6_linear_593_10588" x1="38.9011" y1="19.6912" x2="0.323662" y2="34.0569" gradientUnits="userSpaceOnUse">
<stop stop-color="#5FA83D"/>
<stop offset="1" stop-color="#04AAB4"/>
</linearGradient>
</defs>
</svg>
