<svg width="200" height="100" viewBox="0 0 200 100" fill="none" xmlns="http://www.w3.org/2000/svg">
<rect width="200" height="100" fill="white"/>
<path d="M49.6171 71.8691H56.5028V65.8301H63.8893C68.7697 65.8301 70.5359 62.9542 70.5359 59.2322C70.5359 54.918 68.7203 52.4694 63.8399 52.4694H49.6171V71.8691ZM56.5028 57.0301H60.9632C62.6893 57.0301 63.3551 57.6297 63.3551 59.1007C63.3551 60.5136 62.6893 61.1052 60.9632 61.1052H56.5028V57.0301Z" fill="#14579A"/>
<path d="M72.8042 52.4694H91.3579V57.1936H79.7066V59.8065H90.5279V64.5314H79.7066V67.1362H91.3579V71.8691H72.8042V52.4694Z" fill="#14579A"/>
<path d="M94.2585 71.8691H101.136V65.8301H108.525C113.413 65.8301 115.171 62.9542 115.171 59.2322C115.171 54.918 113.348 52.4694 108.475 52.4694H94.2585V71.8691ZM101.136 57.0301H105.583C107.333 57.0301 107.983 57.6297 107.983 59.1007C107.983 60.5136 107.333 61.1052 105.583 61.1052H101.136V57.0301Z" fill="#14579A"/>
<path d="M122.016 63.6273C118.639 63.0691 117.25 60.8909 117.25 58.1799C117.25 53.1512 121.671 51.7877 127.341 51.7877C135.109 51.7877 138.314 54.0553 138.553 58.1559H130.541C130.541 57.3666 130.122 56.8738 129.497 56.602C128.874 56.3069 128.089 56.1914 127.341 56.1914C125.287 56.1914 124.58 56.7583 124.58 57.5723C124.58 58.1225 124.793 58.4677 125.492 58.5825L133.704 59.9387C137.188 60.5136 139.333 62.3132 139.333 65.5831C139.333 70.3167 135.865 72.5436 128.113 72.5436C122.822 72.5436 117.028 71.7296 116.996 66.0191H125.319C125.336 66.6681 125.558 67.1115 126.043 67.4073C126.552 67.6864 127.316 67.818 128.401 67.818C130.541 67.818 131.133 67.1609 131.133 66.2408C131.133 65.6659 130.812 65.107 129.884 64.934L122.016 63.6273Z" fill="#14579A"/>
<path d="M148.471 52.4694H141.592V71.8691H148.471V52.4694Z" fill="#14579A"/>
<path d="M174.196 64.3104C173.753 66.8651 172.964 68.9278 171.256 70.3414C169.57 71.7543 166.942 72.5436 162.726 72.5436C158.552 72.5436 150.804 72.2144 150.804 62.1736C150.804 52.1249 158.552 51.7877 162.726 51.7877C166.884 51.7877 173.293 52.396 174.196 60.0696H166.415C166.226 58.69 165.396 56.6688 162.726 56.6688C159.916 56.6688 158.141 58.2293 158.141 62.1736C158.141 66.1093 159.867 67.6544 162.382 67.6544C164.558 67.6544 165.857 66.6434 166.415 64.3104H174.196Z" fill="#14579A"/>
<path d="M176.037 62.1729C176.037 72.2137 183.769 72.5429 187.952 72.5429C192.143 72.5429 199.874 72.2137 199.874 62.1729C199.874 52.1242 192.143 51.787 187.952 51.787C183.769 51.787 176.037 52.1242 176.037 62.1729ZM183.359 62.1729C183.359 58.2293 185.134 56.6681 187.952 56.6681C190.754 56.6681 192.545 58.2293 192.545 62.1729C192.545 66.1092 190.754 67.6537 187.952 67.6537C185.134 67.6537 183.359 66.1092 183.359 62.1729Z" fill="#14579A"/>
<path d="M31.8854 54.0967C31.1542 54.9754 30.2421 55.8715 29.1657 56.7262C27.1845 45.362 18.8371 35.4281 12.9297 32.5281L12.7895 32.6183C18.7383 37.4907 25.821 46.9566 28.5821 57.1776C27.2586 58.1391 25.7388 59.0513 24.0541 59.7744C18.4432 53.3822 13.2168 41.0524 11.5321 33.2259L11.3592 33.2793C11.4006 40.8762 16.7912 53.7681 23.3724 60.0455C21.9101 60.6285 20.3489 61.0725 18.6976 61.3356C12.3948 58.8456 7.90096 50.8428 7.90096 42.667C7.90096 37.3098 9.53558 34.0105 9.84808 33.3328L9.70852 33.2793C9.32991 33.8543 6.93875 37.1662 6.93875 42.9301C6.93875 52.1983 11.5081 59.2569 17.5711 61.4918C15.5091 61.7215 13.3069 61.6481 11.072 61.1793L11.0306 61.3356C11.6717 61.5653 13.8825 62.4854 17.2426 62.4854C24.8267 62.4854 29.9629 57.7692 32.0329 54.1875L31.8854 54.0967ZM32.5504 52.8887C32.9945 43.4309 24.8434 32.7906 13.7263 31.4718L13.7423 31.3442C24.7039 31.3442 33.1173 41.4838 33.1173 49.4953C33.1013 51.1553 32.9698 52.1823 32.7394 52.9381L32.5504 52.8887Z" fill="#14579A"/>
<path d="M18.7797 30.6705C18.7797 33.5792 13.1928 37.1289 8.52596 37.1289C6.46266 37.1289 5.34554 36.3236 5.34554 34.9848C5.34554 32.0347 10.9986 28.5431 15.3783 28.5431C18.2208 28.5431 18.7797 29.9928 18.7797 30.6705ZM16.4794 28.0002C10.7268 28.0002 3.97267 32.1662 3.97267 35.9536C3.97267 37.4247 5.31215 38.6613 8.09794 38.6613C14.5476 38.6613 20.5626 34.2289 20.5626 30.7854C20.5626 28.9618 18.8204 28.0002 16.4794 28.0002Z" fill="#00A9E0"/>
<path d="M1.67968 37.7038C1.5241 37.9869 0.87439 39.257 0.87439 40.555C0.87439 42.9662 3.30762 45.2098 7.78545 45.2098C16.4046 45.2098 26.3632 38.8583 26.3632 32.9789C26.3632 30.342 23.8659 28.9037 22.1311 28.5959L22.0904 28.7067C22.6326 28.879 24.6131 29.7831 24.6131 32.1409C24.6131 36.8371 15.813 43.2253 7.05428 43.2253C3.70158 43.2253 1.5902 41.574 1.5902 39.1621C1.5902 38.3976 1.7538 37.8968 1.7952 37.7532L1.67968 37.7038Z" fill="#F08E30"/>
<path d="M29.9215 33.4236C30.1599 33.6005 31.5815 34.7831 31.5815 37.014C31.5815 44.6389 19.6177 52.1335 9.05147 52.1335C2.7407 52.1335 -0.127222 49.0272 0.00432205 46.2621H0.119841C0.357554 47.7044 2.41151 50.2599 7.925 50.2599C18.5086 50.2599 30.3322 42.5108 30.3322 35.7119C30.3322 34.5494 30.0043 33.8135 29.8227 33.497L29.9215 33.4236Z" fill="#09AA57"/>
<path d="M33.9153 40.531C33.964 40.6953 34.2271 41.4264 34.2271 42.5729C34.2271 51.0565 22.1318 58.3115 11.6062 58.3115C6.19157 58.3115 3.36504 55.6906 2.75674 54.6229L2.85556 54.5488C4.35129 55.8469 7.30869 56.8491 10.7515 56.8491C20.0371 56.8491 33.9153 49.7825 33.7837 40.5637L33.9153 40.531Z" fill="#EB2C30"/>
</svg>
