<?xml version="1.0" encoding="UTF-8"?>
<svg width="130px" height="85px" viewBox="0 0 130 85" version="1.1" xmlns="http://www.w3.org/2000/svg" xmlns:xlink="http://www.w3.org/1999/xlink">
    <!-- Generator: Sketch 64 (93537) - https://sketch.com -->
    <title>PLA</title>
    <desc>Created with Sketch.</desc>
    <defs>
        <polygon id="path-1" points="0 0.230682347 23.6181726 0.230682347 23.6181726 25.9375362 0 25.9375362"></polygon>
        <polygon id="path-3" points="0.234879227 0.00365595454 25.9762567 0.00365595454 25.9762567 28.5797101 0.234879227 28.5797101"></polygon>
        <polygon id="path-5" points="0.12845039 0.24384265 27.4121417 0.24384265 27.4121417 19.5322376 0.12845039 19.5322376"></polygon>
    </defs>
    <g id="PLA" stroke="none" stroke-width="1" fill="none" fill-rule="evenodd">
        <g id="Group-10-Copy-10" transform="translate(43.000000, 10.000000)">
            <g id="Group-3" transform="translate(0.000000, 23.000000)">
                <mask id="mask-2" fill="white">
                    <use xlink:href="#path-1"></use>
                </mask>
                <g id="Clip-2"></g>
                <path d="M19.9855283,19.0257056 L10.2092391,19.0257056 C8.47743933,19.0257056 7.58360718,17.8551536 7.30428463,17.3534885 C7.02496208,16.8518234 6.41045248,15.5140497 7.30428463,14.0090544 L10.2092391,8.93666253 C10.3768327,8.60221912 10.8237487,8.49073798 11.1589358,8.65795969 L12.6672776,9.49406823 C13.2259226,9.77277108 13.8404323,9.32684652 13.6728387,8.71370026 L11.4941229,0.742798828 C11.3823938,0.352614842 10.9913423,0.185393134 10.6561552,0.241133703 L2.66753033,2.41501591 C2.05302073,2.58223762 1.99715622,3.36260559 2.4999368,3.69704901 L4.00827856,4.53315755 C4.34346562,4.70037926 4.45519464,5.14630381 4.28760111,5.48074723 L1.38264661,10.553139 C-0.460882204,13.7860921 -0.460882204,17.5764508 1.38264661,20.8094038 C3.22617543,24.0423569 6.57804601,25.9375362 10.2651036,25.9375362 L20.1531218,25.9375362 C22.1083797,25.9375362 23.6725859,24.3210597 23.6167214,22.3143992 C23.4491279,20.4192198 21.8849216,19.0257056 19.9855283,19.0257056" id="Fill-1" fill="#FFFFFF" mask="url(#mask-2)"></path>
            </g>
            <g id="Group-6" transform="translate(26.000000, 23.000000)">
                <mask id="mask-4" fill="white">
                    <use xlink:href="#path-3"></use>
                </mask>
                <g id="Clip-5"></g>
                <path d="M24.5301993,9.99314783 L19.5977355,1.75546667 C18.5994988,0.0743072464 16.3681461,-0.486079227 14.6652717,0.466577778 C12.9036775,1.41923478 12.3164795,3.54870338 13.3147162,5.17382415 L18.3058998,13.4115053 C19.2454167,14.9245488 18.5994988,16.2694763 18.3058998,16.7738242 C18.0123007,17.278172 17.0727838,18.4549836 15.2524698,18.4549836 L8.61713164,18.4549836 C8.206093,18.4549836 7.91249396,18.1187517 7.91249396,17.7825198 L7.91249396,16.0453217 C7.91249396,15.4288966 7.14913647,15.0926647 6.67937802,15.5409739 L0.455078502,21.5371092 C0.161479469,21.8173024 0.161479469,22.2656116 0.455078502,22.4897662 L6.62065821,28.3738242 C7.09041667,28.8221333 7.85377415,28.4859014 7.85377415,27.8694763 L7.85377415,26.1322783 C7.85377415,25.7400077 8.206093,25.4598145 8.55841184,25.4598145 L15.1350302,25.4598145 C19.0105374,25.4598145 22.5337258,23.5545005 24.4714795,20.3042589 C26.4679529,17.110056 26.4679529,13.2433894 24.5301993,9.99314783" id="Fill-4" fill="#FFFFFF" mask="url(#mask-4)"></path>
            </g>
            <g id="Group-9" transform="translate(13.000000, 0.000000)">
                <mask id="mask-6" fill="white">
                    <use xlink:href="#path-5"></use>
                </mask>
                <g id="Clip-8"></g>
                <path d="M15.8805938,8.91608116 L18.6671155,14.2096629 C18.8219223,14.5475511 18.7187178,14.941754 18.4607065,15.1670128 L17.0674457,16.068048 C16.5514231,16.4059362 16.6546276,17.194342 17.2222524,17.3632861 L24.6529771,19.5032447 C25.0141928,19.6158741 25.3238064,19.3906153 25.4270109,18.9964124 L27.3878965,10.830781 C27.5427033,10.2113193 26.9234762,9.76080166 26.459056,10.0423752 L25.0657951,10.9434104 C24.7561816,11.1123545 24.3949658,10.9997251 24.1885568,10.7181516 L21.402035,5.42456977 C19.6991606,2.21463188 16.6030254,0.243617391 13.1972766,0.243617391 C9.79152778,0.243617391 6.69539251,2.15831718 4.99251812,5.42456977 L0.554724235,13.8717747 C-0.32251409,15.5612157 0.193508454,17.6448596 1.74157609,18.6022095 C2.25759863,18.9400977 2.77362118,19.0527271 3.34124597,19.0527271 C4.42489332,19.0527271 5.50854066,18.4332654 6.12776771,17.3069714 L10.5655616,8.85976646 C11.3911977,7.33926957 12.7328563,7.17032547 13.2488788,7.17032547 C13.7649014,7.17032547 15.10656,7.39558427 15.8805938,8.91608116" id="Fill-7" fill="#FFFFFF" mask="url(#mask-6)"></path>
            </g>
        </g>
        <text font-family="PTSans-Bold, PT Sans" font-size="12" font-weight="bold" letter-spacing="0.1" fill="#FFFFFF">
            <tspan x="59.436" y="76">PLA</tspan>
        </text>
        <text id="7" font-family="PTSans-Bold, PT Sans" font-size="12" font-weight="bold" letter-spacing="0.1" fill="#FFFFFF">
            <tspan x="65.548" y="43">7</tspan>
        </text>
    </g>
</svg>