<svg width="74" height="150" viewBox="0 0 74 150" fill="none" xmlns="http://www.w3.org/2000/svg">
<path d="M44.9567 26.6309L44.9098 26.7495C44.0021 27.6954 43.0054 28.6723 42.1374 29.639C42.1964 29.7571 42.2962 29.8661 42.4051 29.9256C42.4438 29.6884 42.5702 29.4812 42.591 29.2348C42.8272 28.909 43.1835 29.1167 43.4904 29.1859C43.9624 29.077 44.4058 29.2939 44.8885 29.2842C45.2457 29.4609 45.2743 29.9154 45.6001 30.0926C45.6882 30.2209 45.6214 30.3695 45.5009 30.4678C45.6001 31.207 45.9549 30.2698 46.3316 30.4479C46.487 30.507 46.6854 30.4871 46.8031 30.6546C46.8617 30.9606 47.2373 30.902 47.2576 31.1973C47.2276 31.345 47.0703 31.3842 46.9701 31.4636C47.0592 31.7598 46.6637 31.9457 46.8031 32.2623C47.3753 32.3707 47.3946 31.71 47.6604 31.4142C47.5118 30.902 47.4053 30.3792 47.1095 29.9256C46.7827 29.8559 46.5857 29.4715 46.2614 29.4023C45.6296 29.1554 46.3587 28.7609 46.2803 28.3862C45.9457 27.7554 45.4128 27.1924 44.9567 26.6309Z" fill="#0468B1"/>
<path d="M48.6489 37.1149C48.2331 38.4355 47.7495 39.7275 46.9212 40.8816C46.5954 41.2955 46.2798 41.8682 45.8547 42.0846L46.7522 42.8741C46.8031 42.8247 46.7745 42.7458 46.7827 42.6766C46.7827 42.559 46.8418 42.4205 46.9904 42.4399C47.4242 42.4302 47.4338 42.894 47.6793 43.1297C47.6309 43.5054 47.9567 43.8011 47.8482 44.1463C50.3331 41.5225 51.5762 38.3077 51.8033 34.7472L51.9393 34.5893C51.0544 34.6789 50.1172 34.6194 49.1993 34.6295L48.9825 34.5598C49.0425 35.162 48.8818 35.7439 48.844 36.336L49.1698 36.6903C49.2594 36.8288 49.2289 37.035 49.1006 37.1444C48.9631 37.233 48.7854 37.2233 48.6489 37.1149Z" fill="#0468B1"/>
<path d="M45.1949 46.4937L45.3333 46.3058C45.9263 45.843 46.5663 45.4093 47.0891 44.8371H47.1579C47.0398 44.7974 46.8921 44.9155 46.7527 44.8555C46.4768 44.7282 46.4288 44.4823 46.4288 44.1952L45.2147 42.9433L45.1465 42.7555C45.0574 42.9927 44.8807 43.1394 44.7011 43.318C44.7137 43.4753 44.6537 43.7121 44.841 43.821C45.2341 43.9493 45.7482 44.2058 45.8353 44.6681C45.678 45.1019 44.8488 45.4974 45.3619 45.9718C45.5304 46.2071 45.1266 46.2961 45.1949 46.4937Z" fill="#0468B1"/>
<path d="M38.1145 41.2864C38.3701 41.3362 38.192 41.6122 38.3784 41.7099C38.784 41.5821 39.0919 42.0546 39.4158 41.7598C39.3964 41.2956 39.9197 41.3362 40.2034 41.2167C40.6473 40.9514 41.1517 40.596 41.1014 40.004L41.0331 39.9159C40.7267 39.9159 40.5699 40.1521 40.3433 40.339C40.0674 40.4978 39.9279 40.0442 39.7019 40.1521C39.7116 40.201 39.7609 40.2214 39.8016 40.2407C39.8597 40.3095 39.8795 40.4586 39.8016 40.5268C39.4647 40.8328 39.3083 40.3787 38.9917 40.4087V40.5268C39.0024 40.596 38.9733 40.7045 38.8726 40.6653C38.6761 40.339 38.2714 40.4586 38.0739 40.1715C37.9456 40.1032 37.8275 40.1918 37.7384 40.2702C37.6721 40.4184 37.356 40.2509 37.432 40.507C37.187 40.596 37.158 40.8618 36.9798 41.0206C36.6748 40.9707 36.5374 41.3159 36.2488 41.3062C36.2793 41.3658 36.2488 41.464 36.3389 41.4737C36.5161 41.5531 36.6928 41.5715 36.9111 41.5434C37.2069 41.0695 37.7006 41.464 38.1145 41.2864Z" fill="#0468B1"/>
<path d="M36.3389 50.0435L36.4376 49.8954L36.1322 49.9743C32.2856 49.7085 28.8824 48.3482 26.0723 45.6344L26.0432 45.7535L24.011 47.7949C27.0879 50.4574 30.5598 52.1745 34.524 52.7152C35.1558 52.8241 35.8751 52.7651 36.4865 52.9534L36.3389 52.7152V50.0435Z" fill="#0468B1"/>
<path d="M38.1431 30.4871C38.3702 30.6154 38.497 30.3792 38.6853 30.3293C38.9632 30.3589 39.1776 30.5961 39.3476 30.7728C39.5228 30.8517 39.6913 30.7432 39.85 30.6847C39.9595 29.8656 40.9848 29.9837 41.2893 29.2145L41.1009 29.2842C41.0235 29.1748 40.826 29.2246 40.8371 29.0465C41.0032 28.8896 41.22 28.6428 41.4272 28.5735C40.5404 28.0212 39.6225 27.5482 38.6166 27.2916C38.2225 27.2021 37.8081 27.1924 37.4315 27.0544C37.6208 27.617 37.4528 28.4457 37.5724 29.0959L38.2811 29.3331C38.4902 28.9879 38.9424 28.9192 39.1384 28.5934C39.2696 28.4845 39.4158 28.5934 39.5146 28.712C39.5441 28.9787 39.4749 29.2445 39.3965 29.501C39.1302 30.0335 38.497 30.1023 38.1431 30.4871Z" fill="#0468B1"/>
<path d="M44.4852 40.4575C44.5249 40.7838 44.1304 40.9314 44.1803 41.2572C44.0515 41.4044 43.8351 41.4247 43.6376 41.4247C42.8587 41.128 42.0382 40.9411 41.1711 40.8612C41.0927 40.8913 41.0433 40.961 41.0545 41.0496C41.4088 41.2369 41.8421 41.2461 42.2173 41.4044C42.5508 41.4935 42.7793 41.9074 43.2039 41.7796C43.5582 41.5821 44.1498 41.8972 44.386 41.523C44.3473 41.1585 44.6615 40.8913 44.8202 40.5771L44.9388 40.5471C45.1368 40.7547 45.1267 41.0597 45.2148 41.2863C45.4907 40.991 45.7085 40.6652 45.9545 40.3592C46.6046 39.4114 47.1579 38.3972 47.3946 37.3109C47.1289 37.3216 46.8612 37.3709 46.6157 37.4494C46.3311 37.43 45.9845 37.597 45.739 37.4005C45.6485 37.3216 45.5904 37.4402 45.6001 37.5191C45.5009 37.6662 45.4026 37.8536 45.1765 37.7853C44.9964 37.7059 44.9964 37.5191 44.9388 37.3811C44.9485 37.49 44.9098 37.5878 44.8885 37.6866C44.6818 37.903 44.6135 38.1111 44.4654 38.3483C44.2582 38.5739 43.9227 38.4945 43.7073 38.6823C43.6666 39.1558 43.1438 39.0566 42.849 39.2061C42.8267 39.2652 42.8974 39.2744 42.9265 39.3233C43.0644 39.3625 43.2523 39.3625 43.3496 39.226C43.7654 39.3335 43.6778 38.8106 43.9126 38.6339C44.1202 38.6034 44.3182 38.4263 44.5346 38.5647C44.751 38.8305 44.8009 39.2148 44.7689 39.5605C44.5346 39.7972 44.6537 40.1826 44.4852 40.4575Z" fill="#0468B1"/>
<path d="M39.9197 39.4419C40.1564 39.1955 40.657 39.2057 40.6783 38.8508C40.3331 38.8009 40.1564 38.9883 39.9197 39.1761C39.8892 39.2541 39.7803 39.3925 39.9197 39.4419Z" fill="#0468B1"/>
<path d="M37.4828 48.9785C38.2113 48.7326 39.059 48.7713 39.8505 48.6435C39.6912 48.583 39.5339 48.5438 39.4158 48.387C38.952 48.3574 38.7351 47.8743 38.5875 47.5083C38.5187 47.2426 38.6945 47.0267 38.8044 46.7991C38.6083 46.3944 37.9959 46.6902 37.6391 46.543C37.5414 46.4637 37.4726 46.3446 37.3342 46.3262L37.4828 46.543C37.4828 47.3515 37.5811 48.1798 37.4828 48.9785Z" fill="#0468B1"/>
<path d="M47.9174 45.4282C47.641 45.9719 47.0301 46.316 46.5663 46.7295C45.9263 47.3714 44.8807 47.5084 44.5549 48.4364C44.2102 48.7515 44.0916 49.2448 43.6085 49.422C43.4304 49.8954 42.9264 49.8664 42.6398 50.2115C41.8125 50.9503 41.28 49.7381 40.5311 49.5895L39.0203 49.8557C38.4974 49.8557 37.9766 50.0436 37.4828 49.8761C37.552 50.8815 37.552 51.9664 37.4828 52.9728L37.6721 52.8537C42.4249 52.6475 46.5256 50.8433 50.0479 47.6468L47.9668 45.6645L47.9174 45.4282Z" fill="#0468B1"/>
<path d="M46.1917 34.4911L46.4981 34.7961C46.8031 35.0037 46.5954 35.4481 46.9212 35.6248C47.3051 35.8228 47.443 36.2663 47.6115 36.6012C47.6715 36.5127 47.6715 36.4047 47.7006 36.3156C47.838 35.7735 47.8172 35.162 47.9857 34.6295C47.3941 34.6596 46.7135 34.7191 46.1917 34.4911Z" fill="#0468B1"/>
<path d="M40.5791 23.8207C39.5828 23.4654 38.4907 23.3173 37.4034 23.1493L37.5022 23.3666L37.4828 26.0393L37.7384 25.9895C39.3771 26.217 40.8744 26.7398 42.1679 27.7946L42.2361 28.0018C42.6805 27.3803 43.35 26.8473 43.8733 26.2557L44.3676 25.9696L44.1304 25.8713C43.0451 24.9642 41.8619 24.2734 40.5791 23.8207Z" fill="#0468B1"/>
<path d="M35.9148 41.0497C35.9845 40.7839 35.8751 40.4479 36.0136 40.2214C36.1123 40.0035 36.3786 40.0137 36.5751 40.0534C36.6928 40.0437 36.7644 39.8951 36.6928 39.7973C36.4076 39.7383 36.5374 39.4226 36.4376 39.2445C36.4468 39.1462 36.6148 39.1651 36.5751 39.0368C36.3786 38.8795 36.6749 38.7023 36.5064 38.5338C36.5533 38.5014 36.5911 38.4448 36.6395 38.4089C36.0421 38.6602 35.406 38.2971 34.8789 38.0614C34.6228 37.9132 34.2486 37.7651 34.189 37.4495C33.764 38.1412 32.9561 38.771 32.3635 39.4125C33.4198 40.2795 34.6029 40.8226 35.9148 41.0497Z" fill="#0468B1"/>
<path d="M22.2363 34.8265L22.4513 36.6414C22.5418 37.3419 22.8482 38.0119 22.8264 38.7022C22.9363 38.5541 22.8666 38.2592 23.1334 38.2292C23.024 38.0119 23.3401 37.825 23.1634 37.6377C23.251 37.1642 23.3105 36.6811 23.7254 36.3364C24.2284 36.3156 24.2676 35.6548 24.7696 35.6253C25.0271 35.6151 25.184 35.9608 25.2934 36.0784C24.9768 35.695 24.9966 35.0637 25.076 34.6295L24.8587 34.7283C23.9432 34.7079 22.9847 34.7868 22.1172 34.6595L22.2363 34.8265Z" fill="#0468B1"/>
<path d="M33.5773 36.7889L33.2419 36.621C33.1837 36.8679 33.0149 37.085 32.8369 37.2633L32.8672 37.2828C33.1039 37.1149 33.2721 36.8082 33.5773 36.7889Z" fill="#0468B1"/>
<path d="M25.4512 44.9252C25.1162 44.688 24.8194 44.3031 24.5333 43.9773C24.209 43.8897 23.8725 43.6632 23.705 43.3475C23.6068 43.2386 23.6963 43.0416 23.5859 42.9622L23.4673 43.1103C23.1241 43.2788 22.9954 42.923 22.7586 42.7749C22.4517 42.6069 22.6008 42.025 22.1864 42.1339C22.0286 42.1238 21.9788 41.9471 21.8805 41.8483C21.4961 41.8875 21.3988 41.4634 21.1907 41.2572C21.1514 41.3448 21.1907 41.4634 21.0721 41.5225C20.678 41.6116 20.5396 41.128 20.2738 40.9314C20.2036 40.961 20.1557 41.0394 20.0555 41.02C19.8197 40.8123 19.6619 40.517 19.6517 40.1917C19.3269 39.8258 19.4736 39.2444 19.5336 38.8009C19.5927 38.6823 19.7602 38.6136 19.7311 38.4655C19.8197 38.2588 20.0366 38.2389 20.2433 38.2287C20.3222 38.268 20.4011 38.3478 20.4418 38.4156C20.5691 38.3367 20.8557 38.4263 20.7472 38.1406C20.9152 37.992 21.1616 37.9422 21.3882 37.9029C21.5455 38.1009 21.6249 38.3275 21.8316 38.5144L21.6941 38.2985C21.4559 37.3312 21.2696 36.3447 21.2212 35.2995C21.2304 35.2404 21.0924 35.2114 21.1708 35.1518L21.1907 35.1819C21.2008 34.9645 21.181 34.7767 21.2212 34.629L20.9539 34.7283L18.212 34.7075C18.3703 37.8642 19.2083 40.733 20.6281 43.3679C21.3286 44.6681 22.3544 45.8426 23.251 47.0557L25.2144 45.0244L25.4512 44.9252Z" fill="#0468B1"/>
<path d="M36.1031 46.2076C33.7059 46.0885 31.6049 45.2114 29.7417 43.821C29.8007 44.0573 30.1159 44.2059 30.0278 44.5017C29.8598 44.7679 29.5146 44.7771 29.2372 44.7679C28.6757 44.6784 28.2618 45.1024 27.7288 45.162C27.2457 45.3101 27.0787 44.719 26.6348 44.7679C29.3762 47.1637 32.5126 48.6634 36.1806 48.8595L36.458 49.0478L36.3389 48.7133V46.1079L36.1031 46.2076Z" fill="#0468B1"/>
<path d="M28.6075 21.8964C27.9951 22.321 27.4326 22.8728 26.8028 23.248C27.5318 23.7113 28.1331 24.4805 28.7939 25.0914L28.8631 25.2798C30.54 23.6716 32.5809 22.7344 34.7816 22.2818C35.3035 22.2314 35.8263 22.0547 36.3389 22.1632C36.2997 21.226 36.2199 20.2495 36.3186 19.3225C33.4591 19.491 30.8953 20.359 28.6075 21.8964Z" fill="#0468B1"/>
<path d="M31.3489 36.3359C31.2497 36.2856 31.239 36.2967 31.1606 36.3848C31.1122 36.3848 31.0522 36.395 31.0144 36.365C31.0144 35.803 30.3827 36.1384 30.1454 35.8422C30.4233 36.3548 30.569 36.9367 30.8551 37.4489C31.0328 37.9029 31.4264 38.2592 31.6045 38.7022C31.7928 38.3478 32.167 38.0608 32.4347 37.7354C32.4517 37.5878 32.425 37.459 32.3456 37.3506C32.2546 37.1444 32.334 36.8486 32.1762 36.6704C31.9211 36.759 32.2663 37.0161 32.1569 37.1637C32.0479 37.233 31.9308 37.1444 31.9211 37.0451C31.6931 37.0059 31.5149 36.8084 31.4467 36.6012C31.634 36.4826 31.3983 36.4328 31.3489 36.3359Z" fill="#0468B1"/>
<path d="M26.2601 32.1926C26.1507 32.666 26.2102 33.2184 26.0224 33.6623C26.3671 33.5045 26.871 33.564 27.2559 33.6134C27.0293 33.4948 27.2167 33.2087 27.0874 33.0509C27.0588 32.8045 27.0182 32.4985 27.2559 32.3407C27.2263 31.936 27.6586 31.7293 27.7007 31.3638C27.8077 30.9504 28.2807 31.2263 28.5087 31.0095C28.6559 30.9301 28.5276 30.7926 28.5276 30.6842C28.7251 30.4179 29.031 30.4276 29.2673 30.2795C29.4353 30.0229 29.6516 29.747 29.9285 29.5887C30.5206 29.6095 30.5298 28.7802 31.0913 28.7609C30.3231 28.179 29.5936 27.4001 28.9119 26.7291C27.5516 28.3562 26.6246 30.1517 26.2601 32.1926Z" fill="#0468B1"/>
<path d="M26.0723 24.0764L25.0078 25.428C23.2621 27.8247 22.4324 30.5957 22.1865 33.6135L24.8887 33.5641L25.1457 33.6624C25.0368 33.5936 25.0663 33.475 25.0271 33.3772C25.244 30.5661 26.2296 28.0605 28.1732 25.9697C27.4239 25.3186 26.7239 24.6297 26.0912 23.8885L26.0723 24.0764Z" fill="#0468B1"/>
<path d="M26.6348 36.198C26.6643 36.0194 26.3981 35.971 26.4271 35.7933C26.6154 35.4283 26.4368 34.8362 26.9214 34.6779C26.5762 34.738 26.2693 34.8067 25.973 34.5894L26.1216 34.8266C26.1405 35.4772 26.3981 36.0988 26.2606 36.7591C26.3671 36.5722 26.3981 36.3156 26.6348 36.198Z" fill="#0468B1"/>
<path d="M27.6586 34.678L27.5807 35.2013C27.4616 35.5067 27.0787 35.2802 26.9 35.4869C26.7722 35.6844 26.9102 35.8916 27.0186 36.0489C26.7422 36.6807 27.6397 36.8782 27.6315 37.4489C27.9065 37.8043 27.5913 38.3179 27.9859 38.6335C28.073 39.274 27.8978 40.1424 28.4593 40.6449L28.5581 41.2573C28.6757 41.6804 28.0546 41.5715 28.1325 41.9471C28.2516 41.8876 28.2807 42.0454 28.2918 42.0841V42.0657C29.0513 41.1881 29.9285 40.2605 30.827 39.4812L30.4518 39.1065C29.7504 38.0608 29.198 36.9469 28.9332 35.7236L28.6457 35.5755C28.6355 35.8916 28.4874 36.1385 28.5087 36.4532L28.4094 36.5722C28.2022 36.5621 28.073 36.3946 27.8978 36.2857C27.8576 36.1777 27.7482 35.9991 27.9166 35.9115C28.0164 35.9018 28.0846 35.9303 28.1529 35.9797C28.241 35.8713 28.2022 35.7139 28.2516 35.5755C28.2807 35.3397 28.073 35.1219 28.2206 34.9152C28.4094 34.8953 28.5479 35.1219 28.6263 35.2507C28.8137 35.3092 28.9618 35.1519 29.1201 35.0827C29.1201 34.9152 29.3558 34.6886 29.0988 34.5889C29.2372 34.205 29.1399 33.8008 29.0799 33.4256C28.972 33.0998 28.6074 33.1594 28.3407 33.1884C27.5424 33.446 28.4685 34.0472 28.271 34.541C28.1626 34.8261 27.8668 34.5594 27.6586 34.678Z" fill="#0468B1"/>
<path d="M34.4059 42.5193C34.6237 42.2855 34.8745 42.1349 35.1446 42.0357C34.2713 42.2129 33.4948 41.5826 32.7493 41.2364C32.3238 40.9203 31.7729 40.6647 31.5149 40.1913C30.935 40.9014 30.2442 41.6421 29.5543 42.2032C29.8593 42.2225 30.0278 42.559 30.2824 42.7057C31.7623 43.9391 33.6071 44.5307 35.3233 44.9548L34.8484 44.7379C34.4945 44.3327 33.991 43.8597 33.9717 43.2977C34.3265 43.1786 34.2858 42.7846 34.4059 42.5193Z" fill="#0468B1"/>
<path d="M48.2239 23.1788C48.4306 23.2282 48.4906 23.475 48.6281 23.6232C49.3484 24.0075 49.5358 24.7768 50.1665 25.211C50.5194 25.9512 51.34 26.5219 51.37 27.3696C52.2273 29.2643 52.8092 31.2665 52.8678 33.4953L52.7889 33.6134C52.8784 33.6134 52.9588 33.5742 53.0246 33.5248L55.8653 33.4754C55.6779 33.199 55.7578 32.7948 55.7099 32.4588C55.3337 28.071 53.4598 24.313 50.5194 20.9999C49.9792 21.7294 49.2395 22.41 48.5589 23.11L48.2239 23.1788Z" fill="#0468B1"/>
<path d="M21.2405 33.643L21.1703 33.2587C21.3591 30.1125 22.3636 27.3111 24.1301 24.8064C24.573 24.3039 24.8974 23.6722 25.4507 23.298C24.8093 22.6958 24.1398 21.9953 23.4674 21.3345L23.3991 21.0682C20.588 24.195 18.8525 27.7652 18.3505 31.8383C18.2416 32.4299 18.3113 33.0418 18.1917 33.643C19.1783 33.5641 20.2539 33.5641 21.2405 33.643Z" fill="#0468B1"/>
<path d="M26.2107 22.5568L26.2606 22.4203C29.14 19.7965 32.4918 18.3559 36.3389 18.1787L36.2484 17.9425L36.2198 15.5752L36.2997 15.2988C32.334 15.4566 28.8137 16.8082 25.6889 19.0573C25.0867 19.4707 24.5532 20.102 23.9432 20.4573H24.0313C24.8093 21.0285 25.5504 21.8476 26.2107 22.5568Z" fill="#0468B1"/>
<path d="M36.3389 27.1339C34.752 27.3411 33.2905 27.8833 32.1287 29.1163H32.3456C32.5809 29.353 32.9662 29.3031 33.1443 29.6197C33.2329 29.7969 32.9754 29.7766 32.9856 29.9252C33.0354 29.9639 33.1042 29.9741 33.1443 30.0428C33.3302 30.1125 33.2905 29.9349 33.3598 29.856C33.6067 29.6096 33.6468 30.0927 33.8831 30.0927C34.0506 29.9838 34.2858 29.9741 34.4059 30.1614C34.5627 30.023 34.8982 30.1517 34.9481 29.8957C35.2545 29.5699 35.0865 29.0674 35.5406 28.8587C35.6979 28.9478 35.5304 29.0959 35.5895 29.2344C35.8945 29.3632 36.2406 28.9788 36.4865 29.2843C36.2619 28.6428 36.3185 27.8446 36.3389 27.1339Z" fill="#0468B1"/>
<path d="M60.0386 46.7493C58.7258 47.6081 57.3936 48.4069 56.1325 49.3823V49.2647C58.0664 46.0498 57.1181 41.6417 58.3119 38.1112L58.7553 36.9266C58.5094 39.1263 59.4674 40.9906 59.3967 43.1995C59.327 44.5312 58.8947 45.7138 58.1942 46.7793H58.3119C59.2592 45.5376 59.998 44.2146 61.1036 43.0315C62.8193 41.3749 64.5659 39.6787 64.7924 37.3807C65.3724 41.2166 63.222 44.5796 60.0386 46.7493ZM55.8454 52.7153C54.1501 53.1708 52.3367 53.3175 50.6884 53.8795C53.4792 51.4833 53.3218 47.7756 55.1861 44.9548C55.7791 44.1565 56.2705 43.3186 56.9603 42.559C55.828 44.8372 56.3189 47.7858 55.0191 49.9937C54.5151 50.8719 53.7953 51.7205 53.0062 52.4103C53.2638 52.4006 53.4908 52.175 53.7154 52.0264C55.8357 49.9143 58.5975 49.3232 60.8858 47.6081C61.8036 46.8781 62.6421 45.922 63.0453 44.886C62.6106 48.387 59.13 51.6716 55.8454 52.7153ZM54.002 56.0986C50.6782 57.3519 47.3356 55.813 44.1497 55.3008L43.5383 55.2209V55.2021C45.0574 54.8574 46.5368 54.4028 47.7495 53.3083C49.5358 51.5922 51.1226 49.8267 53.105 48.4751C51.6348 50.3597 51.4789 53.0416 49.0512 54.2542C48.4509 54.6483 47.6894 54.718 47.0703 55.0142C47.9571 55.0346 48.7641 54.718 49.6423 54.6299C52.8973 54.1177 56.6253 54.6405 58.9039 51.8686C58.0563 53.8001 55.9355 55.4189 54.002 56.0986ZM50.8278 59.1566C47.8676 60.2613 44.7815 59.1072 42.4728 57.3519C41.5356 56.7599 40.7074 55.9025 39.4952 55.981C39.059 55.9713 38.6364 55.9911 38.2612 56.0986C40.5099 57.1447 42.591 58.5839 44.5046 60.4283C44.1802 60.7943 43.7654 61.1395 43.3708 61.4541C41.5356 59.4727 39.4952 57.5688 37.2161 56.4544C36.7722 56.513 36.3476 56.7802 35.9444 56.9971C34.0893 58.1705 32.2546 59.679 30.8759 61.5233L29.6918 60.5464C31.5856 58.6333 33.6764 57.1447 35.9652 56.0797C33.7171 55.3691 32.2469 57.2532 30.54 58.2097C28.5479 59.5996 25.6889 60.2526 23.2824 59.2951C21.9885 58.8018 20.7361 58.081 19.7999 56.9085C21.6941 58.2097 24.5145 58.3487 26.6643 57.5C29.5539 56.2467 32.5519 54.6599 36.0339 55.4189C36.5751 55.4286 37.1077 55.9713 37.6208 55.508C40.2034 54.8371 43.1341 55.3008 45.3619 56.4835L47.6604 57.4013C49.7918 58.1899 52.5512 57.974 54.3772 56.6713C53.4405 57.8452 52.1591 58.6832 50.8278 59.1566ZM15.1841 52.1944C17.8074 55.1812 22.0979 54.1859 25.5983 54.9649C26.0912 55.0346 26.5452 55.2311 27.0685 55.1527C26.6532 54.8864 26.0723 54.9164 25.6192 54.6788C22.8768 53.7125 22.4721 50.744 20.983 48.7428C22.8865 50.0048 24.4849 51.7113 26.2398 53.3572C27.5028 54.4624 29.0204 54.975 30.6189 55.3008C30.234 55.4383 29.7306 55.3991 29.3167 55.508C26.4465 56.2172 23.251 57.3718 20.2036 56.3363C18.2222 55.7147 16.1798 54.1463 15.1841 52.1944ZM10.9729 45.2801C12.6106 48.9873 16.7119 49.2947 19.4659 51.553C19.9679 51.9964 20.4994 52.3808 21.0721 52.6475L21.1016 52.618C20.4699 52.0453 19.7403 51.3947 19.2964 50.6545C17.6888 48.417 18.2518 45.2801 17.0483 42.8742C18.1438 44.186 19.1391 45.5459 19.7999 47.0354C20.7869 49.4622 21.1612 52.205 23.4393 54.0383C20.9733 53.2299 18.0847 53.4559 15.9141 51.9369C13.5377 50.4768 11.4169 48.0031 10.9729 45.2801ZM9.2181 37.7854C9.45531 41.0496 12.9655 42.7749 14.593 45.4781C14.9778 46.03 15.3123 46.6414 15.825 47.1046C15.7456 46.759 15.4217 46.4637 15.3022 46.1079C14.7314 44.9746 14.5242 43.623 14.6627 42.2526C14.8205 40.5863 15.5195 39.0368 15.2528 37.2829C16.6838 40.369 16.2495 44.2146 17.0483 47.5582C17.255 48.2883 17.6796 48.9389 17.9555 49.6389C15.018 47.6371 11.0131 45.7342 9.71091 42.0657C9.15904 40.8022 9.09805 39.2357 9.2181 37.7854ZM9.31686 31.7686C9.48387 31.0395 9.61215 30.2897 9.92827 29.6192C9.32654 32.6961 11.3985 34.9157 12.0786 37.5879C12.3637 38.5841 12.4325 39.6588 12.8381 40.596C12.8764 40.6159 12.9074 40.5771 12.935 40.5471C11.9208 37.706 13.3798 35.0725 14.8481 32.8539C15.2044 32.2527 15.4111 31.5817 15.5888 30.8914C15.7456 32.1738 15.4218 33.6527 15.2339 34.9849C14.8776 36.6807 14.3451 38.2879 13.8819 39.9347C13.5769 40.961 13.6558 42.1243 13.8136 43.1995L13.6655 43.0813C12.5898 41.099 10.4598 39.5509 9.82854 37.3807C9.30718 35.6549 8.96105 33.6527 9.31686 31.7686ZM10.4506 28.4555C10.3915 26.1279 11.3583 24.224 12.7186 22.489C12.7588 22.4692 12.7888 22.4295 12.8381 22.4391C11.3384 24.7183 12.5811 27.5875 12.5114 30.1812L12.3134 32.8341C12.3434 32.8539 12.3434 32.9333 12.4126 32.9028C12.5017 32.608 12.522 32.2919 12.5811 31.9859C12.935 29.8463 14.7905 28.3277 16.4175 26.8473C16.7617 26.4634 17.0677 26.0689 17.2448 25.6153C17.1161 26.6808 16.7816 27.7555 16.3391 28.7411C15.0751 31.207 12.7379 33.2281 12.3134 36.0489C12.1062 33.3472 10.2628 31.3252 10.4506 28.4555ZM14.4047 20.5948C15.1061 19.7181 16.0027 19.1057 17.0086 18.8501C15.0567 20.1915 15.1841 22.5974 14.5635 24.5992C14.3659 25.3389 14.0208 26.0195 13.8518 26.779L13.9027 26.8183C14.227 25.96 14.7992 25.1515 15.5103 24.4506C16.9002 23.1692 18.9518 22.3704 19.6314 20.4766C19.6019 23.1101 17.4036 25.1815 15.3022 26.6604C14.4342 27.42 13.5962 28.288 13.1238 29.2644C13.0734 28.6031 13.2225 27.9326 13.1722 27.223C12.9456 24.9245 12.7781 22.3007 14.4047 20.5948ZM22.3351 16.1672C20.8843 17.4385 19.8788 19.0471 18.8031 20.5459C17.8374 21.7396 16.6054 22.5277 15.5103 23.5545C16.1019 22.3307 16.1213 20.8707 16.9597 19.7471C18.153 17.666 20.3619 16.937 22.3351 16.1672ZM28.0348 16.3643C30.767 15.0127 33.7558 14.2938 37.0089 14.2343C44.446 14.2435 51.5457 18.6134 54.7819 25.4967C56.833 29.4517 57.4163 34.8958 56.0831 39.3625C54.733 44.6392 50.2943 49.9743 45.1266 52.1445C39.3083 54.9949 31.042 54.2837 25.8549 50.5654C18.6463 45.6248 15.6967 37.1149 17.8771 28.712C19.1982 23.721 23.1726 18.6821 28.0348 16.3643ZM55.4712 17.9724C56.9206 19.264 57.5717 20.9409 57.9958 22.6754L58.2339 23.2282C56.1325 21.7193 54.2295 19.6885 52.8881 17.5484L51.2504 15.8918C52.6916 16.5027 54.2397 16.8672 55.4712 17.9724ZM60.6012 22.7257C61.0654 24.7967 60.3935 26.8192 60.8166 28.909L60.7972 28.9289C59.6707 26.7103 57.2769 25.6647 55.6305 23.889C54.6739 22.8342 54.2591 21.5523 54.0218 20.1915C54.9687 22.4692 57.5126 22.9717 58.9732 24.8848C59.4674 25.3287 59.6247 25.9411 59.9399 26.4436L59.9883 26.3942C59.1498 24.5997 58.8652 22.5776 58.2833 20.664C57.9871 19.8357 57.4052 19.0176 56.6253 18.4957C58.5394 18.8888 60.2057 20.891 60.6012 22.7257ZM61.8332 23.1788C63.5783 25.5461 63.9627 29.3133 62.6905 32.0256C62.2171 33.1792 61.8821 34.4025 61.6947 35.6752C61.6061 35.4583 61.5868 35.1621 61.5088 34.9157C60.8166 32.2624 58.3012 30.3696 57.2667 27.8634C56.9414 27.0448 56.6655 26.1976 56.5067 25.3089C57.6124 27.3512 60.333 28.4061 61.0736 30.6547C61.3796 31.2269 61.3592 31.9366 61.5471 32.548C61.5868 32.548 61.6265 32.5189 61.6265 32.4792C61.2997 30.1614 61.3989 27.7356 61.7141 25.4473C61.6947 24.2051 61.5771 23.0017 60.8858 22.0446C61.3307 22.3022 61.5272 22.7945 61.8332 23.1788ZM63.4709 38.5338C62.4349 40.0035 61.1811 41.3749 60.2255 42.8742C60.333 41.6901 60.4729 40.232 60.0081 39.1065C59.2104 36.6904 58.5094 34.2346 58.2833 31.5817L58.3119 30.5661C58.9141 33.2775 61.5771 35.1422 61.4081 38.1809C61.4682 38.9186 61.2397 39.5412 61.1036 40.1918L61.1525 40.2402L61.2707 40.1032C61.6662 38.6137 61.8632 37.0452 62.4746 35.6549C63.3518 33.6527 64.4361 31.6311 63.9937 29.2145C65.3244 32.0653 64.9197 35.8713 63.4709 38.5338ZM0.000976562 73.9921H73.9791V0H0.000976562V73.9921Z" fill="#0468B1"/>
<path d="M52.938 34.6296L52.769 34.51L52.8673 34.7772C52.71 38.0613 51.6154 40.961 49.7415 43.5349C49.377 43.9692 49.0328 44.5017 48.5778 44.8076C49.3271 45.3987 50.1583 46.2865 50.777 46.9677L50.8564 46.8195C53.8732 43.3771 55.5903 39.3926 55.7791 34.7772L55.8958 34.541L55.7477 34.6097L52.938 34.6296Z" fill="#0468B1"/>
<path d="M36.2019 23.2282C33.6967 23.4053 31.5256 24.4505 29.6221 26.0194C30.3734 26.5423 31.042 27.3802 31.7236 27.9819C31.773 27.9132 31.8223 27.8435 31.8727 27.7651C32.8094 27.0941 33.7752 26.4837 34.8794 26.2068C35.3717 26.1579 35.8548 25.9207 36.3689 26.0393C36.2619 25.1122 36.2619 24.0864 36.3689 23.1299L36.2019 23.2282Z" fill="#0468B1"/>
<path d="M37.8372 17.4501C37.9166 17.2909 38.1436 17.3504 38.2613 17.3998L39.6821 16.7884C40.2538 16.8378 40.886 16.907 41.2205 17.3795V17.4501C40.8666 17.7445 40.4126 17.9817 39.9391 17.7837C39.288 17.9125 38.3784 18.2876 37.8566 17.6172C37.8372 17.5683 37.7772 17.499 37.8372 17.4501ZM46.3093 19.2437C46.5063 19.3033 46.6854 19.3923 46.7527 19.5995C46.7033 19.8251 46.9604 20.0134 46.8031 20.1916C46.2715 20.3295 46.2217 19.7268 45.8073 19.5792C45.7482 19.4998 45.7284 19.402 45.739 19.2945C45.9264 19.0665 46.1026 19.4417 46.3093 19.2437ZM37.432 17.9226C37.432 17.8345 37.4727 17.7551 37.523 17.6864C37.661 17.607 37.7772 17.7256 37.8372 17.8239C37.8474 17.9613 37.9074 18.1986 37.7902 18.2775C37.9074 18.2973 37.9664 18.2092 38.0739 18.2092C40.3332 18.3767 42.4254 19.037 44.2989 20.1025V20.0531C44.6823 19.8653 45.1765 19.6189 45.5696 19.9548C46.0445 19.7772 46.1321 20.3591 46.517 20.4273C46.9817 20.7037 47.5036 21.2169 47.5626 21.7591C47.6507 21.9377 47.9267 22.0645 47.9668 22.2523C48.2829 21.5819 48.9132 21.1079 49.4564 20.5266L49.7919 20.3881C46.8142 17.5484 43.2736 15.9804 39.3277 15.4378C38.6945 15.3289 38.0061 15.3884 37.4034 15.201C37.523 15.9804 37.4935 17.0454 37.432 17.9226Z" fill="#0468B1"/>
<path d="M37.432 22.1632C37.8081 22.0349 38.192 22.1927 38.5686 22.2029C40.5011 22.518 42.3252 23.1401 43.8733 24.3324C43.6879 24.1358 43.4599 23.9088 43.4192 23.6232C43.4507 23.584 43.4904 23.5738 43.5383 23.584C43.5581 23.2771 43.2328 23.1202 43.1835 22.8433C43.2328 22.7847 43.303 22.7252 43.3998 22.7542C43.7353 23.0708 44.0214 23.4155 44.2678 23.7708C44.4852 23.6823 44.6619 23.8207 44.8207 23.9383C45.1072 24.1063 44.9291 24.4713 45.1469 24.6688C45.1866 25.2502 45.8953 25.5755 45.8547 26.1579C45.8663 26.2954 46.0333 26.1874 46.0933 26.2557L46.6854 26.9857C46.5765 27.1242 46.6636 27.2916 46.7827 27.3904C47.0494 27.5085 47.1985 27.1735 47.4643 27.2229C47.8487 27.4398 47.4052 27.6954 47.4435 27.9321C47.5911 27.9423 47.7785 27.8145 47.8961 27.9626C47.946 28.179 47.7213 28.317 47.6313 28.4554C47.6313 28.6723 47.808 28.6234 47.9668 28.6723C48.1444 28.6626 48.2524 28.8795 48.2035 29.0271C48.6973 29.5403 48.0568 30.0926 48.2926 30.6348C48.4509 30.9901 48.2524 31.3343 48.0365 31.6015C48.0452 32.0353 47.6507 32.301 47.4933 32.666L46.9908 32.7638C46.7251 33.0311 47.2164 33.3573 46.9511 33.5248L48.0568 33.5442L47.9372 33.4256C47.7785 32.9909 47.8177 32.41 48.0854 32.0256C48.2524 31.6703 48.2926 31.2462 48.6087 30.9407C48.6769 30.9214 48.8047 30.7926 48.8648 30.9407C48.8822 31.2748 48.8541 31.6601 48.6973 31.9559C49.0124 32.41 48.9732 33.0025 49.0032 33.564C49.9791 33.505 50.9357 33.4846 51.8918 33.4953L51.8032 33.308C51.6541 31.4829 51.2804 29.7571 50.5194 28.1993C50.3146 28.2085 50.1665 28.376 49.9293 28.317C49.8499 28.2874 49.8015 28.2085 49.8102 28.1199C49.4157 27.7457 49.1702 27.252 48.7253 26.917C48.2238 26.9663 47.9958 26.3845 47.5422 26.3254C47.1385 26.1579 47.4149 25.5068 46.8321 25.6835C46.5469 25.5659 46.2715 25.349 46.2115 25.0237C46.2115 24.5101 46.1127 23.9572 45.6489 23.6232C45.2941 23.4944 45.1469 23.9684 44.7916 23.889C44.5936 23.7912 44.6822 23.5341 44.6222 23.3661C44.5549 23.2185 44.3859 23.1101 44.4174 22.913C44.8807 22.3021 43.8563 22.3108 44.08 21.7096C44.0214 21.2753 43.578 21.1078 43.35 20.7627C41.8227 20.0724 40.2944 19.5994 38.5686 19.3917C38.1436 19.3336 37.7495 19.4213 37.3831 19.2242L37.4828 19.4116C37.4624 20.3289 37.5225 21.3049 37.432 22.1632Z" fill="#0468B1"/>
<path d="M36.4376 31.5527C36.1419 32.0455 35.6471 32.1539 35.1853 32.2919C35.0565 32.4507 35.0865 32.7949 34.7816 32.7653C34.6823 32.9822 34.3459 33.1105 34.4756 33.4261C34.3168 33.7616 34.3962 34.1958 34.3071 34.5599C33.7248 34.9253 33.8937 34.0772 33.597 33.8996L33.4992 34.067C33.3816 34.0961 33.3017 34.0274 33.2237 33.9489C33.1337 33.9189 32.9856 33.8899 32.9081 33.9688C32.7784 34.1852 32.5809 34.3628 32.6312 34.6596C32.5712 34.8368 32.2749 34.7772 32.3146 34.965C32.6394 34.9549 32.9957 34.8958 33.3099 34.8266C33.5389 34.8856 33.7248 34.7191 33.9518 34.708C34.0312 34.7477 34.1198 34.8266 34.0893 34.9452H34.1687C34.3265 34.8266 34.3962 34.6489 34.3265 34.4713C34.3459 34.2646 34.5734 34.2646 34.7123 34.205C34.8401 34.2646 34.7607 34.3924 34.7816 34.4911C35.224 34.6596 34.6731 34.9849 34.6131 35.2211C34.494 35.4085 34.6131 35.833 34.2389 35.774C34.1687 35.7536 34.1198 35.6849 34.1401 35.6055H34.0893C34.0801 35.7633 34.1997 35.9802 34.357 36.0489C34.6334 35.8233 34.6421 35.4375 35.0362 35.3881C35.2434 35.1722 34.9481 34.8368 35.2545 34.6596C35.7691 34.6489 36.3186 34.4325 36.7252 34.8464C36.6928 35.0236 36.625 35.1035 36.7721 35.2507C36.6748 35.4772 36.6061 35.7241 36.4188 35.9114C36.4667 36.0392 36.427 36.198 36.3186 36.2861C36.1806 36.8879 35.4903 36.6013 35.0865 36.8085C35.7071 37.2829 36.458 37.4596 37.265 37.4005C37.6905 37.3811 37.5017 36.8578 37.7185 36.6216C37.8565 35.9303 38.4902 36.4047 38.8726 36.2179C39.0203 35.9206 39.1703 35.6355 39.2086 35.2995C38.9636 35.1427 38.8634 34.8464 38.9428 34.5599C38.7753 34.3328 38.7952 33.9189 38.4302 33.8802C38.3701 33.8008 38.419 33.702 38.4689 33.643C38.4597 33.4261 38.6761 33.3579 38.7351 33.1889C38.5086 33.0417 38.5681 32.7155 38.5875 32.5296C38.2026 32.637 38.1615 32.1345 37.8768 32.0256C37.8081 31.7986 37.5622 31.7599 37.3656 31.7206C36.8912 31.9467 36.8109 31.3644 36.458 31.2269C36.4188 31.1184 36.3389 30.9606 36.458 30.872C36.6342 30.7239 36.8714 30.8522 37.0776 30.8425L36.9111 30.7539C36.7518 30.5763 36.4076 30.6847 36.2019 30.7539C36.3979 30.9505 36.3186 31.3048 36.4376 31.5527Z" fill="#0468B1"/>
<path d="M17.3455 84.5555C15.9978 84.5555 14.9672 84.6969 14.4352 84.8053V94.1101C15.1071 94.2897 15.9978 94.3589 16.9917 94.3589C20.7594 94.3589 22.9978 92.5135 22.9978 89.2813C22.9978 86.0795 20.7594 84.5555 17.3455 84.5555Z" fill="#0468B1"/>
<path d="M24.239 94.0772C22.6067 95.8112 19.9417 96.7034 16.9249 96.7034C15.9978 96.7034 15.1478 96.669 14.4352 96.4918V106.084H11.3423V82.4584C12.8367 82.1728 14.79 81.9589 17.2753 81.9589C20.3358 81.9589 22.5713 82.6695 23.9931 83.947C25.306 85.0837 26.1212 86.823 26.1212 88.9588C26.1212 91.1237 25.4846 92.8282 24.239 94.0772ZM0.00195312 112.11H35.866V76.2446H0.00195312V112.11Z" fill="#0468B1"/>
<path d="M53.7343 122.235C52.1368 122.235 50.9285 122.375 50.1123 122.552V141.49C50.8878 141.632 52.0245 141.632 53.2371 141.632C59.8435 141.667 63.4341 137.937 63.4341 131.47C63.4699 125.752 60.2695 122.235 53.7343 122.235Z" fill="#0468B1"/>
<path d="M63.2584 140.673C60.9807 142.915 57.2861 144.118 52.6325 144.118C50.395 144.118 48.5811 144.05 46.9822 143.838V120.281C48.9031 119.992 51.1401 119.781 53.591 119.781C58.0335 119.781 61.1932 120.777 63.2956 122.729C65.4571 124.687 66.7007 127.492 66.7007 131.365C66.7007 135.271 65.4571 138.472 63.2584 140.673ZM38.0744 150H73.9394V114.135H38.0744V150Z" fill="#0468B1"/>
<path d="M26.7539 134.106C26.7539 141.454 22.8787 144.442 17.6941 144.442C12.7892 144.442 9.0932 141.674 9.0932 134.21V120.102H12.2229V134.314C12.2229 139.643 14.6022 141.923 17.8011 141.923C21.3165 141.923 23.6261 139.577 23.6261 134.314V120.102H26.7539V134.106ZM0 149.999H35.864V114.135H0V149.999Z" fill="#0468B1"/>
<path d="M47.018 82.2043H50.4323L58.0718 94.3201C59.8159 97.124 61.2305 99.6122 62.3318 102.1L62.4407 102.067C62.157 98.8687 62.0873 95.9554 62.0873 92.2603V82.2043H65.0001V106.153H61.8729L54.2697 94.0026C52.6025 91.3347 51.004 88.5982 49.8291 86.0083L49.7202 86.0431C49.9022 89.0648 49.9371 91.9365 49.9371 95.9177V106.153H47.018V82.2043ZM38.071 112.107H73.9345V76.2422H38.071V112.107Z" fill="#0468B1"/>
</svg>
