<?xml version="1.0" encoding="UTF-8"?>
<svg width="130px" height="85px" viewBox="0 0 130 85" version="1.1" xmlns="http://www.w3.org/2000/svg" xmlns:xlink="http://www.w3.org/1999/xlink">
    <!-- Generator: Sketch 64 (93537) - https://sketch.com -->
    <title>RA</title>
    <desc>Created with Sketch.</desc>
    <defs>
        <polygon id="path-1" points="0.0904444444 0.0413937587 39.4994286 0.0413937587 39.4994286 12.211746 0.0904444444 12.211746"></polygon>
    </defs>
    <g id="RA" stroke="none" stroke-width="1" fill="none" fill-rule="evenodd">
        <g id="Rainforest-Allinace" transform="translate(30.000000, 10.000000)">
            <path d="M36.0550317,9.92504139e-15 C37.1592222,1.89636508 38.1949683,3.86187302 39.2324603,5.82528571 C40.785381,4.23011111 42.1142857,2.41109524 43.6457302,0.794444444 C44.2407778,2.93507937 44.9040952,5.00831746 45.4989683,7.14930159 C47.3574444,5.88901587 49.0086667,4.42165079 50.8390317,3.13325397 C50.9904127,5.33552381 51.2170476,7.46236508 51.3244286,9.70880952 C51.8608095,9.59793651 52.3737937,9.33987302 52.8687937,9.09106349 C54.3148571,8.36401587 55.8660317,7.60815873 57.4144127,6.92860317 C57.1034444,9.10346032 56.8303651,11.3169048 56.5317937,13.5039841 C58.6284286,13.1144444 60.8280794,12.4457143 63.0191746,12.003619 C62.3078413,14.1164921 61.5436032,16.1768095 60.8123651,18.270127 C62.8662222,18.2605238 65.4480794,18.1735714 67.4322698,18.0936032 C66.4581587,20.0032381 65.1161587,21.9266667 63.9899683,23.8307143 C66.198,24.211873 68.3426508,24.6562381 70.5655238,25.022381 C69.100254,26.6903651 67.5089206,28.2322857 66.0199048,29.8766984 C67.9815714,30.7984286 70.089381,31.5738413 72.1100635,32.4362063 C70.3937143,33.8092857 68.4168571,34.9213333 66.6818254,36.2757302 C68.4734286,37.5587143 70.3701429,38.7364127 72.1100635,40.0710794 C70.0853651,40.9149365 68.057,41.755127 66.0199048,42.5864127 C67.4586349,44.2956032 69.1033968,45.7989365 70.5655238,47.4849048 C68.3885714,47.8676349 66.2329206,48.2714921 64.0781429,48.6765714 C63.5868095,48.3883016 63.0787143,48.1169683 62.5777778,47.838127 C64.2342381,43.8837143 65.2811587,39.5353968 64.9167619,34.3339683 C64.5754127,29.4632381 63.0940794,25.3474921 61.2097619,22.0214762 C57.3931111,15.2845873 51.3115079,10.3059524 42.9836349,8.20844444 C38.388254,7.0508254 33.121873,7.13446032 28.729381,8.29679365 C24.5540952,9.40133333 20.9062857,11.3378571 18.0496032,13.6365079 C15.125873,15.9889365 12.6342857,18.8985238 10.7237778,22.3303492 C8.67568254,26.0092381 7.16728571,30.6419841 7.14912698,36.1432063 C7.13393651,40.7991746 8.20914286,44.4707302 9.57646032,47.838127 C9.07290476,48.114 8.57580952,48.3966825 8.07592063,48.6765714 C5.92201587,48.270619 3.7677619,47.8657143 1.58871429,47.4849048 C3.05904762,45.8219841 4.66260317,44.2921111 6.13415873,42.6305873 C4.14455556,41.7224762 2.05647619,40.9124921 4.96252069e-14,40.0710794 C1.78339683,38.7652222 3.67155556,37.5643016 5.4722381,36.2757302 C3.70525397,34.9534603 1.82146032,33.7481746 4.96252069e-14,32.480381 C2.00007937,31.5679048 4.1632381,30.8183333 6.13415873,29.8766984 C4.68879365,28.2329841 2.95306349,26.6440952 1.63288889,25.022381 C3.81420635,24.6440159 5.95903175,24.2293333 8.12009524,23.8307143 C7.12957143,21.9966825 5.7035873,19.9808889 4.72196825,18.1377778 C6.67734921,18.1484286 9.46034921,18.2233333 11.2976984,18.3144762 C10.7246508,16.2391429 9.80973016,14.1241746 9.13506349,12.003619 C11.3394286,12.476619 13.4559683,13.0372698 15.6224444,13.5481587 C15.3416825,11.3280794 15.0555079,9.1137619 14.7396508,6.92860317 C16.8160317,7.80930159 18.7214762,8.8605873 20.7856349,9.75298413 C20.9970794,7.58126984 21.1381587,5.33936508 21.315381,3.13325397 C23.1144921,4.43788889 24.8215873,5.83471429 26.6110952,7.14930159 C27.3000794,5.0875873 27.8909365,2.92757143 28.5086825,0.794444444 C30.0313968,2.40480952 31.3809048,4.18873016 32.8776032,5.82528571 C33.9728889,3.91984127 34.9962381,1.94211111 36.0550317,9.92504139e-15" id="Fill-1" fill="#FFFFFF"></path>
            <path d="M44.3076508,13.1952857 C44.418873,13.6333651 44.1761746,14.4737302 44.175127,15.0926984 C43.8531587,14.9732698 43.526127,14.859254 43.2041587,14.7398254 C43.5500476,14.2029206 43.967873,13.738127 44.3076508,13.1952857" id="Fill-2" fill="#FFFFFF"></path>
            <path d="M26.257873,15.2693968 C26.0904286,14.9070952 25.9598254,14.5083016 25.7724762,14.1660794 C26.0418889,14.036873 26.3280635,13.8072698 26.6550952,13.9012063 C27.3250476,14.093619 26.9831746,15.3257937 26.257873,15.2693968" id="Fill-3" fill="#FFFFFF"></path>
            <path d="M22.5510476,15.9754921 C23.2129683,15.838254 24.5018889,17.0662381 24.3162857,18.0496032 C24.2675714,18.3074921 23.9866349,18.6177619 23.6541905,18.6673492 C23.0299841,18.7604127 21.6296667,17.5664762 21.9773016,16.4608889 C22.0534286,16.2183651 22.2205238,16.0439365 22.5510476,15.9754921" id="Fill-4" fill="#FFFFFF"></path>
            <path d="M51.8536508,43.4250317 C51.5058413,43.4346349 51.3569048,43.2453651 51.0155556,43.2485079 C51.4653333,42.0273333 51.9311746,40.7502857 52.2070476,39.3208095 C53.1411746,34.4794127 51.6497143,29.8445714 49.6475397,26.9639683 C47.0133016,23.1747302 42.4682063,19.8148413 36.0992063,19.8148413 C29.7696667,19.8148413 25.2663016,23.0202063 22.5510476,26.9639683 C21.2090476,28.9130635 20.0680159,31.481127 19.7264921,34.5104921 C19.3682063,37.6910635 20.0577143,40.745746 21.1828571,43.2041587 C20.898254,43.2726032 20.6534603,43.3808571 20.3444127,43.4250317 C19.0233651,40.9524762 18.4859365,37.696127 18.7996984,34.4663175 C19.0970476,31.4083175 20.2829524,28.6364921 21.624254,26.6110952 C24.3798413,22.4497778 29.1651905,19.1845238 35.4371111,18.8880476 C38.9026349,18.7242698 41.9885714,19.7193333 44.3516508,21.0063333 C46.7154286,22.2938571 48.7586349,24.1062381 50.2211111,26.1696984 C51.6785238,28.2258254 52.9047619,30.9178571 53.3101905,34.1132698 C53.7377937,37.4815397 53.1217937,40.8651746 51.8536508,43.4250317" id="Fill-5" fill="#FFFFFF"></path>
            <path d="M55.2077778,21.0063333 C55.2870476,20.9939365 55.2985714,21.0480635 55.2517778,21.0505079 C54.8819683,21.5631429 54.5311905,22.0949841 54.0606349,22.506873 C53.9029683,22.2083016 53.6290159,22.0261905 53.4868889,21.7126032 C54.0681429,21.484746 54.6733175,21.2808095 55.2077778,21.0063333" id="Fill-6" fill="#FFFFFF"></path>
            <path d="M42.9836349,28.2438095 C43.9092063,27.6047619 43.0611587,26.380619 42.1891905,26.3903968 C41.1763175,26.4015714 40.534127,27.1883333 40.6446508,28.2879841 C41.415873,28.1004603 42.2677619,28.7381111 42.9836349,28.2438095 Z M29.0824286,27.6702381 C30.0617778,27.6379365 29.7886984,26.6400794 30.6267937,26.5669206 C31.6040476,26.4815397 31.7491429,27.7330952 31.1123651,28.0674603 C30.7593175,28.2527143 30.2129841,28.0751429 29.7883492,28.1998095 C29.1672857,28.3820952 28.6701905,29.1763651 28.8617302,29.8766984 C28.9118413,30.0600317 29.1487778,30.503873 29.656,30.4504444 C29.9379841,30.4207619 30.7252698,29.5845873 30.9800159,29.347127 C32.2144603,28.1954444 33.3389048,26.7437937 35.0400635,26.1696984 C36.0300635,25.8355079 37.9065238,25.9002857 38.6587143,25.2429048 C39.3766825,24.6159048 39.5037937,23.4245873 40.7771746,23.3454921 C41.9758254,23.2707619 42.5029524,24.318381 43.3365079,24.6693333 C44.046619,24.9680794 45.2985238,24.6719524 45.8963651,25.2429048 C46.6448889,25.958254 45.9541587,27.4200317 45.4549683,27.9349365 C45.6391746,29.2118095 44.7067937,29.6587937 43.9546032,30.2739206 C42.6050952,31.3774127 40.6350476,32.4412698 40.9095238,34.9960635 C41.6456508,35.0515873 41.8886984,35.0549048 42.3215397,34.8635397 C43.2795873,34.4403016 42.7915714,33.0956825 43.7340794,33.054127 C44.7027778,33.0115238 44.6018571,34.0516349 44.0427778,34.4663175 C43.823127,34.6290476 43.3356349,34.7671587 43.4690317,35.1282381 C43.6310635,35.5670159 44.6931746,35.1900476 44.9695714,35.0400635 C45.3786667,34.8177937 45.4760952,34.4675397 45.8520159,34.3781429 C47.0616667,34.090746 47.2835873,35.8835714 46.3817619,36.0992063 C45.7613968,36.247619 45.4415238,35.816 44.7045238,35.8785079 C44.277619,35.9148254 43.5378254,36.0850635 43.513381,36.4964286 C43.4782857,37.080127 44.6531905,37.0953175 44.8813968,37.4232222 C45.2726825,37.9861429 44.7796032,38.8851746 43.9546032,38.6147143 C43.5383492,38.4781746 43.3613016,37.928873 43.1601587,37.5113968 C42.5762857,36.9940476 42.2389524,36.6500794 41.2625714,36.6287778 C40.6668254,36.6156825 39.6958571,37.1162698 39.2766349,36.7613016 C38.7339683,36.301746 39.2266984,34.9251746 38.7027143,34.3781429 C38.018619,35.1502381 37.1775556,35.7653651 36.2315556,36.2757302 C36.7131111,36.5982222 37.3418571,36.7948254 37.4230476,37.4232222 C37.6184286,38.9361587 35.3910159,39.2190159 34.2897937,39.6295079 C34.5614762,40.6682222 36.022381,40.5791746 36.6729524,40.0710794 C37.114873,39.7257143 37.2404127,39.2115079 37.6879206,39.1882857 C38.0259524,39.1708254 38.3845873,39.4311587 38.4381905,39.6295079 C38.8027619,40.9807619 36.9249048,40.2201905 36.6729524,41.041873 C36.9919524,41.4244286 37.5517302,41.756873 38.3498413,41.7479683 C38.7495079,41.7436032 39.1313651,41.5419365 39.4971587,41.615619 C40.2895079,41.7750317 40.4583492,42.9041905 39.6296825,43.2485079 C38.6045873,43.2607302 37.9971429,42.3676349 36.9378254,42.2333651 C36.4770476,42.1750476 35.9026032,42.187619 35.8343333,42.4982381 C35.685746,43.1756984 37.1862857,42.9736825 36.8936508,44.1309524 C36.7242857,44.8002063 35.5863968,44.8155714 35.2607619,44.2193016 C35.1193333,43.9603651 35.1402857,43.6033016 35.0400635,43.3368571 C34.8628413,42.8654286 34.559381,42.3332381 34.1132698,42.0126667 C33.3123651,41.4373492 31.9204286,41.1529206 31.1123651,40.8653492 C30.4282698,40.622127 28.8163333,39.9897143 28.6410317,39.1882857 C28.316619,37.7060794 30.0539206,37.9330635 30.4062698,36.9818254 C28.9649206,36.6272063 27.3253968,35.7341111 27.9791111,33.8483968 C26.9894603,33.7256508 26.532873,32.7890794 26.522746,31.8184603 C26.5122698,30.8281111 27.0751905,29.8237937 27.1406667,28.9940794 C27.1768095,28.5327778 27.0470794,27.831746 26.7874444,27.5818889 C26.312873,27.1247778 25.5905397,27.4505873 25.5959221,26.5669206 C25.6003175,25.836381 26.4902698,25.387127 27.0083175,25.905 C27.3124762,26.2091587 27.0830476,27.5158889 27.6260635,27.5378889 C27.9723016,27.5516825 28.2576032,26.5473651 28.3763333,25.9491746 C28.5860317,24.8910794 28.345254,23.4340159 29.3913016,23.3454921 C29.9165079,23.3007937 30.3882857,23.7140794 30.3180952,24.3604603 C30.2589048,24.9027778 29.6624603,25.4613333 29.3913016,25.905 C29.0736984,26.4244444 28.6583175,26.9168254 29.0824286,27.6702381 L29.0824286,27.6702381 Z" id="Fill-7" fill="#FFFFFF"></path>
            <path d="M42.8071111,27.7144127 C42.5045238,27.3994286 41.7937143,27.3856349 41.3949206,27.6258889 C41.3097143,26.7188254 43.0639524,26.5353175 42.8071111,27.7144127" id="Fill-8" fill="#FFFFFF"></path>
            <path d="M23.9630635,28.4203333 C24.022254,28.6560476 23.7046508,28.5149683 23.5658413,28.5526825 C23.5658413,29.008746 23.5658413,29.4648095 23.5658413,29.920873 C23.4776667,29.920873 23.3894921,29.920873 23.3011429,29.920873 C23.2585397,29.6741587 23.3278571,29.0836508 23.3011429,28.5970317 C23.2342698,28.4872063 22.9210317,28.6239206 22.859746,28.5086825 C22.836,28.2794286 23.2423016,28.3876825 23.4334921,28.3763333 C23.6311429,28.3642857 23.9190635,28.2256508 23.9630635,28.4203333" id="Fill-9" fill="#FFFFFF"></path>
            <path d="M24.5368095,28.3763333 C24.6592063,28.7981746 24.7835238,29.2180952 24.8898571,29.656 C25.0499683,29.2570317 25.187381,28.8355397 25.2870794,28.3763333 C25.4194286,28.3763333 25.5519524,28.3763333 25.6843016,28.3763333 C25.6504286,28.9396032 25.7410476,29.3785556 25.7284762,29.920873 C25.6642222,29.9449683 25.5002698,29.8693651 25.5077778,29.9650476 C25.4051111,29.6556508 25.4927619,29.1561111 25.4636032,28.773381 C25.2378413,29.0625238 25.1599683,29.499381 25.066381,29.920873 C24.9486984,29.920873 24.8310159,29.920873 24.7135079,29.920873 C24.6515238,29.4679524 24.4734286,29.1311429 24.4044603,28.6852063 C24.2623333,29.0136349 24.4907143,29.7129206 24.2279365,29.920873 C23.9517143,29.8817619 24.1334762,29.5514127 24.1397619,29.347127 C24.1479683,29.0763175 24.1333016,28.7597619 24.1397619,28.5086825 C24.1914444,28.5015238 24.1769524,28.4281905 24.1837619,28.3763333 C24.301619,28.3763333 24.419127,28.3763333 24.5368095,28.3763333" id="Fill-10" fill="#FFFFFF"></path>
            <path d="M12.7980635,28.5526825 C13.3578413,28.4931429 14.1021746,28.631254 14.6954762,28.6852063 C14.6469365,29.0337143 14.4794921,29.2634921 14.4307778,29.612 C13.8161746,29.3293175 13.3709365,28.8770952 12.7980635,28.5526825" id="Fill-11" fill="#FFFFFF"></path>
            <path d="M13.1067619,33.5836984 C12.6606508,33.5740952 12.3011429,33.4775397 11.8712698,33.4513492 C11.5791587,32.1222698 13.5076508,32.231746 13.1067619,33.5836984" id="Fill-12" fill="#FFFFFF"></path>
            <path d="M12.798013,51.5449524 C12.7888095,53.2784127 14.0524127,54.9580952 15.666619,55.0756032 C16.920619,55.166746 17.777746,54.5743175 18.5791746,53.8399365 C18.4899524,53.340746 18.2746667,52.967619 18.0936032,52.5600952 C17.6192063,53.0999683 17.3068413,53.6152222 16.5492381,53.7075873 C14.0064921,54.0171587 13.4245397,49.0765873 16.6374127,49.7797143 C16.5082063,49.3500159 16.3971587,48.9019841 16.1520159,48.5882222 C14.3082063,48.7319206 12.8074921,49.7142381 12.798013,51.5449524 Z M56.7083175,55.0756032 C58.1535079,54.876381 59.3945873,52.8267143 59.312,51.280254 C59.203746,49.249619 56.7879365,49.0537143 55.3403016,48.2351746 C54.4997619,50.1013333 53.6504921,51.9589365 52.8247937,53.8399365 C54.1805873,54.2027619 54.9738095,55.3142857 56.7083175,55.0756032 Z M18.1377778,47.6616032 C18.8147143,49.5295079 19.4591746,51.4298889 19.9913651,53.4425397 C21.3122381,53.1305238 22.4625238,52.6482698 23.7425397,52.2950476 C23.6849206,51.8821111 23.6276508,51.4688254 23.4334921,51.1920794 C22.7263492,51.3088889 21.9800952,51.768619 21.1386825,51.8981746 C21.0368889,51.3822222 20.8437778,50.9572381 20.6974603,50.4858095 C21.362,50.2530635 22.1436984,50.1374762 22.6833968,49.7797143 C22.5217143,49.5 22.572873,49.007619 22.3303492,48.8089206 C21.7091111,49.0559841 21.043,49.2574762 20.3885873,49.4708413 C20.2450635,49.0554603 20.0802381,48.661381 19.9913651,48.191 C20.6649841,47.9378254 21.397619,47.7438413 22.1096508,47.5290794 C22.0190317,47.1638095 22.0132698,46.7136825 21.8006032,46.4699365 C20.572619,46.8598254 19.3238571,47.2294603 18.1377778,47.6616032 Z M49.5151905,46.3375873 C48.9796825,48.3470952 48.3319048,50.2439841 47.7497778,52.2070476 C49.0285714,52.5464762 50.1816508,53.0112698 51.5007778,53.3101905 C51.5982063,52.9222222 51.8009206,52.6393651 51.8536508,52.2070476 C51.0567619,52.0186508 50.2541111,51.8354921 49.5591905,51.5449524 C49.7035873,51.0714286 49.8277302,50.5781746 50.0004127,50.1329365 C50.6485397,50.3234286 51.2491746,50.5612381 51.9421746,50.7065079 C52.1269048,50.4351746 52.2084444,50.0604762 52.3393968,49.7358889 C51.721127,49.4566984 50.8966508,49.3837143 50.3094603,49.0737937 C50.4491429,48.6690635 50.5326032,48.2084603 50.7063333,47.838127 C51.4787778,47.9924762 52.0726032,48.325619 52.8687937,48.455873 C52.9773968,48.1229048 53.1137619,47.817873 53.2220159,47.4849048 C52.0233651,47.0655079 50.7716349,46.6990159 49.5151905,46.3375873 Z M45.5873175,45.4549683 C45.2491111,47.5290794 44.8106825,49.5033175 44.3958254,51.5007778 C44.9526349,51.5620635 45.4031111,51.7291587 45.9845397,51.7656508 C46.3051111,49.6885714 46.7765397,47.7621746 47.1760317,45.7638413 C46.6394762,45.6676349 46.1044921,45.5705556 45.5873175,45.4549683 Z M28.3763333,45.9845397 C27.5162381,44.735254 25.3359683,45.7411429 23.9630635,45.8963651 C24.3993968,47.8725238 24.784746,49.8996667 25.1545556,51.9421746 C25.6607302,51.8452698 26.133381,51.7148413 26.6550952,51.6333016 C26.6156349,50.9471111 26.2086349,50.0260794 26.213873,49.2944921 C26.8113651,49.2017778 27.1095873,49.8118413 27.4053651,50.1769365 C27.7322222,50.580619 27.9943016,51.0698571 28.3763333,51.3686032 C28.8158095,51.1459841 29.5110794,51.1793333 29.920873,50.9270317 C29.845619,50.7000476 29.6107778,50.5731111 29.4353016,50.3976349 C28.8681905,49.8305238 28.300381,49.2152222 27.8465873,48.5882222 C28.7753016,48.2356984 28.8982222,46.7426667 28.3763333,45.9845397 Z M39.8502063,44.7046984 C39.7120952,46.8172222 39.4515873,48.8073492 39.2324603,50.8388571 C39.8079524,50.8372857 40.3211111,50.8976984 40.8211746,50.9712063 C40.9685397,50.2067937 40.8573175,49.1832698 41.0860476,48.5000476 C41.7481429,48.5145397 42.3091429,48.630127 42.9396349,48.6765714 C43.0482381,48.3437778 43.1083016,47.962619 43.1601587,47.5730794 C42.667254,47.4883968 41.7799206,47.5062063 41.1740476,47.3967302 C41.2000635,46.8928254 41.2211905,46.3847302 41.3509206,45.9845397 C42.0086508,46.1062381 42.7547302,46.1399365 43.4248571,46.2492381 C43.5486508,45.9024762 43.6275714,45.5106667 43.6457302,45.057746 C42.3318413,44.9887778 41.1557143,44.7820476 39.8502063,44.7046984 Z M29.8766984,44.8812222 C29.8766984,45.2637778 29.8766984,45.6461587 29.8766984,46.0287143 C30.4024286,46.024873 30.8581429,45.9510159 31.3330635,45.8963651 C31.4662857,47.528381 31.5743651,49.1855397 31.6419365,50.8830317 C32.0836825,50.9090476 32.7581746,50.7960794 33.2748254,50.7506825 C33.1601111,49.1144762 32.8901746,47.3993492 32.9217778,45.7638413 C33.4106667,45.7673333 33.8737143,45.7449841 34.2897937,45.6754921 C34.2340952,45.3365873 34.376746,44.661746 34.1574444,44.5723492 C32.8547302,44.6236825 31.2523968,44.7562063 29.8766984,44.8812222 Z M35.8785079,45.5873175 C35.8842698,47.3141429 35.8945714,49.0455079 35.7903333,50.6625079 C36.2317302,50.7653492 36.8639683,50.6773492 37.3790476,50.7065079 C37.5719841,48.8204444 37.2611905,46.6103175 37.5113968,44.7930476 C37.5793175,44.3015397 37.7863968,43.746127 37.4672222,43.2485079 C38.1280952,43.4456349 38.6709365,44.1436984 39.4531587,44.1309524 C40.3062698,44.1171587 41.0657937,43.4733968 41.041873,42.4098889 C51.0227143,43.3883651 58.8622222,46.5076508 65.5786825,50.7506825 C64.3926032,54.330746 62.6484921,57.3526032 60.5476667,60.0180952 C54.1540476,56.0387143 46.5099206,52.7807937 36.143381,52.7807937 C25.8213651,52.7807937 18.0819048,55.9933175 11.738746,60.0180952 C9.56580952,57.4250635 7.89328571,54.3314444 6.66373016,50.7948571 C13.422619,46.4238413 21.845127,43.1140635 32.1273333,42.3658889 C32.6878095,42.3250317 33.3366349,42.4559841 33.6720476,42.7189365 C34.6283492,43.4688571 34.2496349,45.4361111 35.8785079,45.5873175 L35.8785079,45.5873175 Z" id="Fill-13" fill="#FFFFFF"></path>
            <path d="M25.9931746,48.2793492 C25.8971429,47.728127 25.7860952,47.1919206 25.6843016,46.6466349 C27.3739365,45.7804286 27.728381,48.3570476 25.9931746,48.2793492" id="Fill-14" fill="#FFFFFF"></path>
            <path d="M54.7225556,53.4425397 C55.1597619,52.1883651 55.7551587,51.0920317 56.2669206,49.9120635 C57.1580952,50.1659365 57.8036032,50.575381 57.6794603,51.6333016 C57.5252857,52.9443968 56.2442222,54.4396984 54.7225556,53.4425397" id="Fill-15" fill="#FFFFFF"></path>
            <g id="Group-19" transform="translate(16.238095, 53.753683)">
                <mask id="mask-2" fill="white">
                    <use xlink:href="#path-1"></use>
                </mask>
                <g id="Clip-17"></g>
                <path d="M19.6404127,4.72004762 C19.6639841,4.89063492 19.5616667,4.93533333 19.5962381,5.11692063 C19.7207302,5.26585714 19.9693651,5.016 20.0816349,5.16109524 C20.0929841,6.10098413 20.0564921,6.82785714 20.1259841,7.67695238 C20.337254,7.70611111 20.6110317,7.63155556 20.6997302,7.67695238 C20.6728413,6.66442857 20.5968889,5.3624127 20.611381,4.58752381 C20.2829524,4.62680952 19.9920635,4.70380952 19.6404127,4.72004762 Z M23.0385397,7.50007937 C24.2076825,7.1444127 24.1390635,4.61511111 22.9503651,4.411 C21.8728889,4.22609524 21.0946825,5.50977778 21.8910476,6.2204127 C22.2942063,6.58009524 23.0474444,6.38052381 23.3474127,6.1762381 C23.4223175,6.9792381 22.692127,7.27222222 21.9793968,7.01485714 C21.9760794,7.29107937 22.0199048,7.24620635 22.0235714,7.50007937 C22.4370317,7.54268254 22.7804762,7.57847619 23.0385397,7.50007937 Z M15.5803651,4.14647619 C15.5136667,4.27061905 15.4738571,4.4221746 15.4920159,4.63169841 C15.7202222,4.71236508 16.117619,4.62401587 16.2864603,4.76404762 C16.1843175,5.66220635 15.996619,6.47498413 15.9334127,7.41190476 C16.149746,7.40160317 16.2676032,7.48977778 16.5071587,7.45607937 C16.6856032,6.61955556 16.6817619,5.60057143 16.9042063,4.80822222 C17.1657619,4.84069841 17.4023492,4.89849206 17.6986508,4.89639683 C17.6839841,4.72004762 17.7773968,4.65142857 17.7428254,4.4551746 C17.0264286,4.34779365 16.2545079,4.2957619 15.5803651,4.14647619 Z M26.2159683,3.88125397 C25.2025714,3.3605873 23.8389206,4.81119048 25.0683016,5.46996825 C24.4563175,6.01769841 25.0450794,6.85544444 25.5980476,6.92650794 C26.8503016,7.08696825 27.6929365,5.56949206 26.3924921,5.02892063 C26.7790635,4.6915873 26.532873,4.04433333 26.2159683,3.88125397 Z M12.9766825,4.72004762 C13.0580476,5.3624127 14.0850635,5.55011111 14.08,6.08806349 C14.0719683,6.90450794 12.8851905,6.28414286 12.6236349,6.04388889 C12.5735238,6.19980952 12.4869206,6.31906349 12.4912857,6.52946032 C13.3052857,7.41050794 15.1875079,6.86103175 14.6093968,5.64684127 C14.3893968,5.18431746 13.5254603,5.00534921 13.550254,4.54334921 C13.5879683,3.84493651 14.641873,4.43334921 14.9182698,4.58752381 C14.9456825,4.42357143 15.0235556,4.31007937 15.0507937,4.14647619 C14.3045397,3.49625397 12.8392698,3.63646032 12.9766825,4.72004762 Z M10.8142222,2.73393651 C10.516873,3.77544444 10.033746,4.6308254 9.75507937,5.69084127 C10.3791111,5.86107937 10.8760317,6.15842857 11.5203175,6.3087619 C11.5726984,6.16977778 11.669254,6.07514286 11.6968413,5.91136508 C11.2870476,5.71807937 10.7642857,5.6377619 10.417,5.38179365 C10.5666349,5.14887302 10.623381,4.8232381 10.7702222,4.58752381 C11.2037619,4.66888889 11.4990159,4.88836508 11.9173651,4.98474603 C11.9496667,4.82585714 12.0769524,4.76177778 12.0498889,4.54334921 C11.6900317,4.38847619 11.2729048,4.29087302 10.9465714,4.10195238 C11.0588413,3.84668254 11.1058095,3.5257619 11.2997937,3.35203175 C11.6647143,3.51633333 12.0149683,3.69565079 12.4471111,3.79307937 C12.5309206,3.68569841 12.6442381,3.608 12.6236349,3.39603175 C12.0095556,3.18633333 11.4799841,2.89230159 10.8142222,2.73393651 Z M26.9660635,3.44020635 C26.9369048,3.64588889 27.0357302,3.7235873 27.0544127,3.88125397 C27.5792698,3.75920635 27.9525714,3.48525397 28.4664286,3.35203175 C28.476381,4.30292063 28.4487937,5.21714286 28.378254,6.08806349 C28.5736349,6.17833333 28.7670952,5.92987302 28.9961746,5.91136508 C28.9293016,4.88347619 28.9708571,3.63453968 28.952,2.68993651 C28.226,2.87606349 27.6681429,3.22998413 26.9660635,3.44020635 Z M37.2927937,3.70507937 C36.8994127,4.25979365 36.2832381,4.62768254 35.7040794,5.02892063 C31.7229524,7.78887302 26.5407302,10.0599365 19.8611111,10.0599365 C12.1509841,10.0599365 6.65290476,7.16833333 2.29690476,3.79307937 C6.63020635,1.79736508 12.0291111,0.374873016 18.1400476,0.0862539683 C25.6860476,-0.270285714 32.1247143,1.55030159 37.2927937,3.70507937 L37.2927937,3.70507937 Z" id="Fill-16" fill="#FFFFFF" mask="url(#mask-2)"></path>
                <path d="M1.0172381,4.19030159 C1.04657143,4.19030159 1.07607937,4.19030159 1.1054127,4.19030159 C5.54138095,7.87687302 11.6256032,11.2879206 19.8169365,11.2070794 C28.0506984,11.1258889 33.933254,7.99001587 38.4844603,4.19030159 C38.8617778,4.29838095 39.1542381,4.49149206 39.4994286,4.63169841 C34.7755397,8.75687302 28.5580952,12.222746 19.7727619,12.2222222 C11.0150159,12.221873 4.78203175,8.76892063 0.0904444444,4.63169841 C0.398793651,4.48398413 0.715174603,4.34465079 1.0172381,4.19030159" id="Fill-18" fill="#FFFFFF" mask="url(#mask-2)"></path>
            </g>
            <path d="M41.3949206,58.6944286 C41.1022857,57.891254 42.2956984,57.8107619 42.3215397,58.385381 C42.3386508,58.7653175 41.754254,58.9978889 41.3949206,58.6944286" id="Fill-20" fill="#FFFFFF"></path>
            <path d="M38.5703651,59.6650476 C37.7333175,58.6432698 39.6261905,58.1812698 39.4971587,59.2681746 C39.4549048,59.6252381 39.0379524,59.7905873 38.5703651,59.6650476" id="Fill-21" fill="#FFFFFF"></path>
            <path d="M41.9684921,59.2681746 C43.0471905,58.9276984 42.845873,60.4504127 41.9244921,60.238619 C41.5854127,60.1610952 41.4645873,59.4270635 41.9684921,59.2681746" id="Fill-22" fill="#FFFFFF"></path>
            <path d="M55.2077778,40.0269048 C53.7009524,44.3701587 60.6122698,46.0559524 61.4744603,42.0126667 C59.6973492,41.3697778 58.0632381,42.4315397 57.5467619,43.4690317 C57.6319683,41.4569048 56.7313651,40.4304127 55.2077778,40.0269048 Z M14.4307778,43.557381 C13.9010317,42.3486032 12.1825873,41.360873 10.4590794,42.0570159 C10.9752063,43.9488413 12.9442063,44.8164444 14.9163492,44.0869524 C16.0098889,43.6822222 16.9288254,42.560746 16.9462857,41.2183968 C16.951873,40.7859048 16.897746,40.2893333 16.6374127,40.0269048 C15.2159683,40.4913492 14.2167143,41.603746 14.4307778,43.557381 Z M59.312,37.290873 C57.7950476,37.6964762 56.999381,40.4344286 58.2088571,41.7479683 C59.630127,41.2376032 60.3749841,38.7322222 59.312,37.290873 Z M12.6657143,37.290873 C11.5662381,38.6927619 12.3231429,41.3469048 13.8130317,41.7479683 C14.8885873,40.3223333 14.1510635,37.7259841 12.6657143,37.290873 Z M56.7083175,32.480381 C56.7493492,33.3661429 56.9401905,34.1022698 56.9731905,34.9960635 C57.134,35.0721905 57.3389841,34.9569524 57.6794603,34.9960635 C57.6789365,34.3971746 57.4376349,33.7055714 57.5025873,33.319 C57.9116825,33.3160317 58.2245714,33.2170317 58.6059048,33.1864762 C58.6036349,33.7038254 58.740873,34.0813175 58.738254,34.5988413 C59.0029524,34.628 59.169,34.5586825 59.4003492,34.5546667 C59.3549524,34.0556508 59.2325556,33.6336349 59.2236508,33.0983016 C59.6014921,33.1080794 59.853619,32.9926667 60.2387937,33.0099524 C60.3013016,33.5026825 60.348619,34.1591905 60.4154921,34.5104921 C60.6168095,34.4912857 60.9012381,34.5550159 61.0330635,34.4663175 C60.9653175,33.5926032 60.8492063,32.7676032 60.7241905,31.9508095 C59.4427778,32.1846032 58.0403651,32.2975714 56.7083175,32.480381 Z M11.7829206,31.6861111 C11.1443968,32.0943333 11.3017143,33.4974444 11.121,34.2897937 C12.4919841,34.4486825 13.8483016,34.6222381 15.1810476,34.8193651 C15.1923968,34.4776667 15.289127,34.2215238 15.2693968,33.8483968 C14.7427937,33.7864127 14.1618889,33.7790794 13.6806825,33.6720476 C13.6494286,33.5084444 13.7559365,33.4826032 13.7246825,33.319 C14.2862063,33.0712381 14.9139048,32.8901746 15.4899206,32.6569048 C15.4799683,32.2792381 15.573381,32.0049365 15.5782698,31.6419365 C14.8885873,31.8938889 14.3342222,32.2808095 13.5925079,32.480381 C13.5481587,31.6284921 12.4130635,31.283127 11.7829206,31.6861111 Z M58.6059048,28.0232857 C56.551873,27.8506032 55.221746,30.1014127 56.7083175,31.6419365 C56.9339048,31.5586508 57.2471429,31.5628413 57.4144127,31.4212381 C57.1097302,31.0992698 56.8223333,30.8343968 56.8406667,30.2739206 C56.8961905,28.6057619 60.3068889,28.5016984 59.6210476,30.7153175 C59.8564127,30.6273175 60.1932222,30.6400635 60.3713279,30.494619 C60.3741111,29.1580317 59.8166032,28.1250794 58.6059048,28.0232857 Z M12.5331905,27.6702381 C12.4577619,28.1242063 12.2672698,28.4632857 12.1801429,28.9059048 C13.340381,29.7462698 14.4578413,30.6294127 15.6224444,31.4654127 C15.7167302,31.1919841 15.8127619,30.920127 15.8871429,30.6269683 C15.5697143,30.4148254 15.1923968,30.2625714 14.9605238,29.9650476 C15.0935714,29.5391905 15.1986825,29.0852222 15.4015714,28.729381 C15.7696349,28.7585397 16.1183175,28.8070794 16.5048889,28.8175556 C16.6304286,28.5310317 16.699746,28.1884603 16.8139365,27.8907619 C15.3965079,27.8078254 13.9806508,27.7233175 12.5331905,27.6702381 Z M13.5039841,25.5519524 C14.7986667,26.0666825 15.9163016,26.7582857 17.1669841,27.3171905 C17.3211587,27.0301429 17.4487937,26.716381 17.6082063,26.4343968 C16.3128254,25.8910317 15.1628889,25.2022222 13.9012063,24.6251587 C13.8077937,24.9731429 13.573127,25.1796984 13.5039841,25.5519524 Z M16.6374127,20.3885873 C16.5387619,20.6429841 16.326619,20.7840635 16.2401905,21.0505079 C16.9859206,21.5404444 17.776,21.9860317 18.4468254,22.5510476 C17.401127,22.4785873 16.2531111,22.508619 15.2252222,22.4185238 C15.0481746,22.6975397 14.8115873,22.9168413 14.6954762,23.2569683 C15.8621746,23.9735397 16.9124127,24.8062222 18.0496032,25.5519524 C18.1596032,25.3089048 18.3754127,25.1716667 18.4468254,24.8898571 C17.6694921,24.3136667 16.8135873,23.8163968 16.0194921,23.2569683 C17.1355556,23.3334444 18.5336032,23.3605079 19.5941429,23.3454921 C19.7514603,23.1640794 19.8923651,22.9667778 19.9913651,22.7275714 C18.867619,21.9537302 17.8051587,21.1186032 16.6374127,20.3885873 Z M55.2517778,20.3002381 C53.9309048,20.7737619 52.6601429,21.2975714 51.2800794,21.7126032 C51.4457778,21.9883016 51.5987302,22.276746 51.8981746,22.4185238 C52.2019841,22.2516032 52.5463016,22.1251905 52.8687937,21.9773016 C53.1472857,22.331746 53.4373016,22.6739683 53.7075873,23.0364444 C53.4870635,23.375 53.1792381,23.6260794 53.0014921,24.0074127 C53.2590317,24.2057619 53.3999365,24.520746 53.6632381,24.7135079 C54.4520952,23.5309206 55.3361111,22.4436667 56.1345714,21.2712063 C55.8112063,20.9766508 55.6414921,20.528619 55.2517778,20.3002381 Z M50.0004127,20.6974603 C50.3124286,20.8561746 50.4529841,21.1865238 50.7948571,21.315381 C51.2807778,20.6714444 52.1504762,19.777127 52.8247937,19.0645714 C52.9882222,18.8920635 53.5389206,18.4641111 53.5308889,18.3144762 C53.5244286,18.1941746 52.787254,17.7068571 52.7364444,17.6525556 C51.9077778,18.7508095 50.8746508,19.6446032 50.0004127,20.6974603 Z M19.5059683,17.4316825 C18.9653968,18.0679365 18.2886349,18.5681746 17.7847302,19.2410952 C18.7736825,20.1499048 19.710254,21.1109206 20.6091111,22.1096508 C20.9123968,21.9273651 21.1206984,21.6504444 21.315381,21.3595556 C20.9263651,20.9687937 20.5076667,20.6077143 20.1237143,20.2120635 C20.4586032,19.9436984 20.7157937,19.5978095 21.0505079,19.3294444 C20.9946349,19.0911111 20.7641587,19.0270317 20.6974603,18.7996984 C20.2503016,19.0293016 20.0629524,19.5187143 19.6383175,19.7706667 C19.479254,19.4441587 19.1248095,19.313381 18.9763968,18.9763968 C19.2573333,18.5659048 19.7411587,18.3586508 19.9913651,17.917254 C19.7811429,17.8037619 19.7392381,17.522127 19.5059683,17.4316825 Z M47.7939524,18.9322222 C48.4268889,19.3289206 48.9396984,19.845746 49.6033651,20.2120635 C49.7819841,20.0669683 49.9342381,19.8958571 50.0445873,19.6824921 C49.6859524,19.4380476 49.2988571,19.2218889 48.9854444,18.9322222 C49.6127937,17.9708571 50.3986825,17.1678571 51.0155556,16.1961905 C50.7723333,15.9831746 50.4954127,15.8042063 50.2211111,15.6224444 C49.4582698,16.7718571 48.5721587,17.7981746 47.7939524,18.9322222 Z M21.2270317,16.2401905 C20.5780317,17.513746 21.7798254,19.4279206 23.124619,19.461619 C23.9071905,19.4815238 24.9846667,18.8842063 25.1545556,18.0054286 C25.4351429,16.5560476 24.0695714,15.0548095 22.859746,15.1812222 C22.0832857,15.2622381 21.4637937,15.7755714 21.2270317,16.2401905 Z M47.3527302,13.945381 C46.956381,14.682381 46.3377619,15.7898889 45.8520159,16.6374127 C45.7690794,16.7823333 45.3563175,17.4287143 45.366619,17.4758571 C45.3879206,17.5713651 45.7079683,17.6597143 45.8520159,17.7407302 C46.3924127,18.0440159 46.8521429,18.3806508 47.3527302,18.5791746 C47.4564444,18.3593492 47.6408254,18.2198413 47.7057778,17.9614286 C47.2896984,17.788746 46.9033016,17.5867302 46.5582857,17.3435079 C47.091,16.3316825 47.7035079,15.3998254 48.2353492,14.3867778 C47.9331111,14.247619 47.696873,14.0422857 47.3527302,13.945381 Z M27.2730159,13.1952857 C26.4670476,12.8155238 25.3673968,13.7901587 24.6691587,13.945381 C25.2032698,15.2060159 25.8154286,16.3886032 26.3020476,17.6965556 C26.6234921,17.5619365 26.9920794,17.4744603 27.2288413,17.2553333 C26.9669365,16.8111429 26.7362857,16.3356984 26.522746,15.8431429 C27.2962381,15.5288571 27.6990476,16.6040635 28.3763333,16.8139365 C28.6797937,16.6908413 28.9066032,16.4909206 29.2587778,16.4167143 C28.7323492,15.9283492 28.0201429,15.6254127 27.4935397,15.136873 C28.2017302,14.6636984 27.8465873,13.4653968 27.2730159,13.1952857 Z M43.9546032,12.5331905 C43.1454921,13.7248571 42.1836032,14.7635714 41.3509206,15.9313175 C41.6315079,16.0036032 41.8555238,16.1326349 42.1451905,16.1961905 C42.4158254,15.9222381 42.5754127,15.5379365 42.8512857,15.2693968 C43.2464127,15.4478413 43.7304127,15.5375873 44.0869524,15.7547937 C44.0572698,16.1371746 44.0003492,16.4919683 43.9546032,16.8581111 C44.2685397,16.9705556 44.539873,17.1259524 44.9252222,17.1669841 C44.9896508,15.730873 45.1207778,14.3616349 45.2342698,12.9745873 C44.8098095,12.8254762 44.4139841,12.6475556 43.9546032,12.5331905 Z M28.9059048,12.2684921 C29.2634921,13.5582857 29.6004762,14.8688571 29.8766984,16.2401905 C30.7037937,16.0228095 31.556381,15.8310952 32.3922063,15.6224444 C32.3462857,15.3739841 32.3475079,15.0787302 32.2156825,14.9163492 C31.7301111,15.0926984 31.1966984,15.221381 30.6711429,15.3575714 C30.5761587,14.9964921 30.4649365,14.6516508 30.4062698,14.2544286 C30.8478413,14.1074127 31.4264762,14.0976349 31.7742857,13.8572063 C31.7283651,13.8020317 31.7149206,13.4858254 31.6419365,13.3276349 C31.1067778,13.3660476 30.7607143,13.5935556 30.229746,13.6365079 C30.1497778,13.319254 30.0708571,13.0009524 30.0092222,12.6657143 C30.4949683,12.5337143 30.9859524,12.4067778 31.5095873,12.3124921 C31.4306667,12.111873 31.4792063,11.7841429 31.3330635,11.6505714 C30.559746,11.8922222 29.7188571,12.0664762 28.9059048,12.2684921 Z M36.540254,11.2093492 C36.4746032,11.4082222 36.441254,11.6395714 36.4520794,11.9154444 C36.8098413,11.9109048 37.1616667,11.912127 37.4230476,12.003619 C37.3598413,13.1326032 37.1894286,14.3873016 37.1583492,15.401746 C37.4818889,15.401746 37.8056032,15.401746 38.1291429,15.401746 C38.2454286,14.2970317 38.2197619,13.0501905 38.3941905,12.003619 C38.6936349,12.0422063 38.9754444,12.0987778 39.3208095,12.0917937 C39.3688254,11.8897778 39.3887302,11.6598254 39.4089841,11.429873 C38.4600159,11.3492063 37.4907937,11.2884444 36.540254,11.2093492 Z M33.010127,13.1069365 C33.4007143,13.6597302 34.7254286,13.5888413 34.7751905,14.2544286 C34.7987619,14.5669683 34.5920317,14.751 34.3781429,14.828 C33.791127,15.0394444 33.2577143,14.620746 33.010127,14.6954762 C33.0731587,14.7887143 33.0474921,15.1311111 33.054127,15.401746 C33.891,15.587873 34.8017302,15.5847302 35.3049365,15.1812222 C35.7768889,14.8021587 35.9125556,13.7870159 35.3931111,13.2834603 C34.9721429,12.8754127 33.7860635,12.9389683 33.7602222,12.3566667 C33.7294921,11.6622698 34.8663333,11.844381 35.3049365,12.0477937 C35.3136667,11.761619 35.2623333,11.4963968 35.2607619,11.3416984 C33.8349524,10.7585238 32.1650476,11.9116032 33.010127,13.1069365 Z M55.0756032,27.5378889 C55.2465397,27.6903175 55.3156825,27.9448889 55.4286508,28.1556349 C56.6241587,27.4977302 57.9163968,26.936381 59.0474762,26.213873 C58.9263016,25.9816508 58.8383016,25.7167778 58.6499048,25.5519524 C57.9305397,26.0239048 57.1739841,26.4590159 56.3552698,26.831619 C56.8759365,25.9109365 57.3616825,24.9549841 57.8999841,24.0514127 C57.7597778,23.7503968 57.6604286,23.4081746 57.4144127,23.2129683 C56.2093016,23.8170952 55.1024921,24.5196984 53.8397619,25.066381 C53.9860794,25.302619 54.0274603,25.6439683 54.2813333,25.7724762 C55.1276349,25.3096032 55.9447778,24.817746 56.7966667,24.3604603 C56.2169841,25.4134921 55.6072698,26.4364921 55.0756032,27.5378889 Z M61.2981111,47.0878571 C58.543746,45.8555079 55.8358254,44.5768889 52.7364444,43.6897302 C53.9619841,40.9386825 54.6270476,37.4628571 54.1929841,33.936746 C53.7840635,30.6163175 52.5152222,27.8268571 51.0155556,25.6843016 C48.050619,21.4487778 43.1102222,17.8289048 35.9668571,17.8289048 C28.8489841,17.8289048 23.9050952,21.4231111 20.9181587,25.6843016 C19.4300159,27.807127 18.0991905,30.6215556 17.7407302,33.936746 C17.3586984,37.4679206 17.9532222,40.8770476 19.1529206,43.6897302 C16.1389206,44.6329365 13.3133175,45.7643651 10.7237778,47.1320317 C8.84679365,43.1854762 8.01515873,38.035381 8.60566667,32.8334286 C9.1518254,28.0197937 11.0459206,23.826 13.2392857,20.6092857 C16.5546508,15.7467619 21.4480794,11.7469524 27.7584127,9.84115873 C29.9966508,9.16526984 32.4597778,8.73155556 35.1282381,8.60566667 C40.6381905,8.34515873 45.407127,9.98852381 49.0737937,11.959619 C52.7926667,13.9586508 55.9566508,16.7117937 58.2970317,19.9913651 C60.6258889,23.254873 62.5343016,27.3212063 63.239873,32.3040317 C63.9948571,37.6364127 63.0856984,43.0213492 61.2981111,47.0878571 L61.2981111,47.0878571 Z" id="Fill-23" fill="#FFFFFF"></path>
        </g>
    </g>
</svg>