<svg width="200" height="100" viewBox="0 0 200 100" fill="none" xmlns="http://www.w3.org/2000/svg">
<rect width="200" height="100" fill="white"/>
<g clip-path="url(#clip0_0_13768)">
<path d="M17.8174 64.4483H21.6124C22.1415 64.4483 22.6417 64.4964 23.1131 64.5926C23.5844 64.6888 23.9933 64.8572 24.3396 65.0977C24.6955 65.3285 24.9745 65.646 25.1765 66.05C25.3881 66.4444 25.494 66.9446 25.494 67.5507C25.494 68.1471 25.3978 68.6473 25.2054 69.0513C25.013 69.4554 24.7484 69.7776 24.4117 70.0181C24.0751 70.2586 23.6758 70.4318 23.2141 70.5376C22.7523 70.6338 22.2521 70.6819 21.7134 70.6819H20.0685V74.6644H17.8174V64.4483ZM20.0685 68.7772H21.5691C21.7711 68.7772 21.9635 68.7579 22.1463 68.7195C22.3387 68.681 22.507 68.6185 22.6513 68.5319C22.8053 68.4357 22.9255 68.3106 23.0121 68.1567C23.1083 67.9932 23.1564 67.7912 23.1564 67.5507C23.1564 67.2909 23.0938 67.0841 22.9688 66.9302C22.8534 66.7667 22.6994 66.6416 22.507 66.555C22.3243 66.4685 22.1174 66.4156 21.8866 66.3963C21.6557 66.3675 21.4344 66.353 21.2228 66.353H20.0685V68.7772Z" fill="#023F88"/>
<path d="M27.2671 64.4483H31.2208C31.7403 64.4483 32.2309 64.5012 32.6926 64.6071C33.164 64.7033 33.5728 64.8716 33.9191 65.1121C34.275 65.343 34.554 65.6604 34.756 66.0644C34.9677 66.4588 35.0735 66.9543 35.0735 67.5507C35.0735 68.2722 34.8859 68.8878 34.5107 69.3977C34.1356 69.8979 33.5872 70.2153 32.8658 70.35L35.4631 74.6644H32.7647L30.6292 70.5809H29.5181V74.6644H27.2671V64.4483ZM29.5181 68.6762H30.8456C31.0476 68.6762 31.2593 68.6714 31.4805 68.6618C31.7114 68.6425 31.9182 68.5992 32.101 68.5319C32.2838 68.4549 32.4329 68.3395 32.5483 68.1856C32.6734 68.0317 32.7359 67.8152 32.7359 67.5362C32.7359 67.2765 32.683 67.0697 32.5772 66.9158C32.4713 66.7619 32.3367 66.6464 32.1731 66.5695C32.0096 66.4829 31.822 66.4252 31.6104 66.3963C31.3988 66.3675 31.1919 66.353 30.9899 66.353H29.5181V68.6762Z" fill="#023F88"/>
<path d="M36.4362 69.5564C36.4362 68.7387 36.5708 67.998 36.8402 67.3342C37.1192 66.6705 37.5039 66.1077 37.9945 65.646C38.4852 65.1746 39.0671 64.8139 39.7405 64.5638C40.4139 64.3137 41.1498 64.1886 41.9482 64.1886C42.7467 64.1886 43.4826 64.3137 44.156 64.5638C44.8293 64.8139 45.4113 65.1746 45.9019 65.646C46.3925 66.1077 46.7725 66.6705 47.0419 67.3342C47.3208 67.998 47.4603 68.7387 47.4603 69.5564C47.4603 70.3741 47.3208 71.1148 47.0419 71.7785C46.7725 72.4423 46.3925 73.0099 45.9019 73.4812C45.4113 73.943 44.8293 74.2989 44.156 74.549C43.4826 74.7991 42.7467 74.9242 41.9482 74.9242C41.1498 74.9242 40.4139 74.7991 39.7405 74.549C39.0671 74.2989 38.4852 73.943 37.9945 73.4812C37.5039 73.0099 37.1192 72.4423 36.8402 71.7785C36.5708 71.1148 36.4362 70.3741 36.4362 69.5564ZM38.7737 69.5564C38.7737 70.0374 38.8459 70.4799 38.9902 70.8839C39.1441 71.2783 39.3605 71.6246 39.6395 71.9228C39.9185 72.2114 40.2504 72.4375 40.6352 72.601C41.0296 72.7645 41.4673 72.8463 41.9482 72.8463C42.4292 72.8463 42.8621 72.7645 43.2469 72.601C43.6413 72.4375 43.978 72.2114 44.257 71.9228C44.5359 71.6246 44.7476 71.2783 44.8919 70.8839C45.0458 70.4799 45.1227 70.0374 45.1227 69.5564C45.1227 69.085 45.0458 68.6473 44.8919 68.2433C44.7476 67.8393 44.5359 67.493 44.257 67.2044C43.978 66.9062 43.6413 66.6753 43.2469 66.5118C42.8621 66.3482 42.4292 66.2665 41.9482 66.2665C41.4673 66.2665 41.0296 66.3482 40.6352 66.5118C40.2504 66.6753 39.9185 66.9062 39.6395 67.2044C39.3605 67.493 39.1441 67.8393 38.9902 68.2433C38.8459 68.6473 38.7737 69.085 38.7737 69.5564Z" fill="#023F88"/>
<path d="M51.3279 66.4396H48.4131V64.4483H56.4937V66.4396H53.5789V74.6644H51.3279V66.4396Z" fill="#023F88"/>
<path d="M58.0841 64.4483H65.0247V66.5262H60.3351V68.4309H64.7649V70.5087H60.3351V72.5866H65.2844V74.6644H58.0841V64.4483Z" fill="#023F88"/>
<path d="M76.6965 73.943C76.0327 74.2893 75.3401 74.5394 74.6186 74.6933C73.8971 74.8472 73.1612 74.9242 72.4109 74.9242C71.6125 74.9242 70.8766 74.7991 70.2032 74.549C69.5298 74.2989 68.9478 73.943 68.4572 73.4812C67.9666 73.0099 67.5818 72.4423 67.3028 71.7785C67.0335 71.1148 66.8988 70.3741 66.8988 69.5564C66.8988 68.7387 67.0335 67.998 67.3028 67.3342C67.5818 66.6705 67.9666 66.1077 68.4572 65.646C68.9478 65.1746 69.5298 64.8139 70.2032 64.5638C70.8766 64.3137 71.6125 64.1886 72.4109 64.1886C73.2286 64.1886 73.9789 64.2896 74.6619 64.4916C75.3545 64.684 75.9606 65.0207 76.48 65.5017L74.8928 67.2332C74.5849 66.9158 74.2386 66.6753 73.8539 66.5118C73.4691 66.3482 72.9881 66.2665 72.4109 66.2665C71.9299 66.2665 71.4922 66.3482 71.0978 66.5118C70.713 66.6753 70.3811 66.9062 70.1022 67.2044C69.8232 67.493 69.6068 67.8393 69.4528 68.2433C69.3085 68.6473 69.2364 69.085 69.2364 69.5564C69.2364 70.0374 69.3085 70.4799 69.4528 70.8839C69.6068 71.2783 69.8232 71.6246 70.1022 71.9228C70.3811 72.2114 70.713 72.4375 71.0978 72.601C71.4922 72.7645 71.9299 72.8463 72.4109 72.8463C72.9015 72.8463 73.3248 72.7934 73.6807 72.6876C74.0366 72.5722 74.3204 72.4567 74.532 72.3413V70.6819H72.6995V68.604H76.6965V73.943Z" fill="#023F88"/>
<path d="M79.1253 64.4483H86.0659V66.5262H81.3763V68.4309H85.8061V70.5087H81.3763V72.5866H86.3256V74.6644H79.1253V64.4483Z" fill="#023F88"/>
<path d="M93.2053 64.4483H95.4563V72.5866H99.6265V74.6644H93.2053V64.4483Z" fill="#023F88"/>
<path d="M100.681 69.5564C100.681 68.7387 100.816 67.998 101.085 67.3342C101.364 66.6705 101.749 66.1077 102.24 65.646C102.73 65.1746 103.312 64.8139 103.986 64.5638C104.659 64.3137 105.395 64.1886 106.193 64.1886C106.992 64.1886 107.728 64.3137 108.401 64.5638C109.075 64.8139 109.657 65.1746 110.147 65.646C110.638 66.1077 111.018 66.6705 111.287 67.3342C111.566 67.998 111.706 68.7387 111.706 69.5564C111.706 70.3741 111.566 71.1148 111.287 71.7785C111.018 72.4423 110.638 73.0099 110.147 73.4812C109.657 73.943 109.075 74.2989 108.401 74.549C107.728 74.7991 106.992 74.9242 106.193 74.9242C105.395 74.9242 104.659 74.7991 103.986 74.549C103.312 74.2989 102.73 73.943 102.24 73.4812C101.749 73.0099 101.364 72.4423 101.085 71.7785C100.816 71.1148 100.681 70.3741 100.681 69.5564ZM103.019 69.5564C103.019 70.0374 103.091 70.4799 103.235 70.8839C103.389 71.2783 103.606 71.6246 103.885 71.9228C104.164 72.2114 104.496 72.4375 104.88 72.601C105.275 72.7645 105.712 72.8463 106.193 72.8463C106.674 72.8463 107.107 72.7645 107.492 72.601C107.887 72.4375 108.223 72.2114 108.502 71.9228C108.781 71.6246 108.993 71.2783 109.137 70.8839C109.291 70.4799 109.368 70.0374 109.368 69.5564C109.368 69.085 109.291 68.6473 109.137 68.2433C108.993 67.8393 108.781 67.493 108.502 67.2044C108.223 66.9062 107.887 66.6753 107.492 66.5118C107.107 66.3482 106.674 66.2665 106.193 66.2665C105.712 66.2665 105.275 66.3482 104.88 66.5118C104.496 66.6753 104.164 66.9062 103.885 67.2044C103.606 67.493 103.389 67.8393 103.235 68.2433C103.091 68.6473 103.019 69.085 103.019 69.5564Z" fill="#023F88"/>
<path d="M118.227 64.4483H122.036C122.479 64.4483 122.921 64.482 123.364 64.5493C123.816 64.6071 124.22 64.7321 124.576 64.9245C124.932 65.1073 125.22 65.367 125.441 65.7037C125.663 66.0404 125.773 66.4877 125.773 67.0456C125.773 67.6228 125.61 68.1038 125.283 68.4886C124.965 68.8638 124.542 69.1331 124.013 69.2967V69.3255C124.35 69.3736 124.653 69.4698 124.922 69.6141C125.201 69.7488 125.437 69.9267 125.629 70.148C125.831 70.3596 125.985 70.6097 126.091 70.8983C126.197 71.1869 126.25 71.4948 126.25 71.8218C126.25 72.3605 126.134 72.8126 125.903 73.1782C125.672 73.5341 125.374 73.8227 125.009 74.044C124.643 74.2652 124.229 74.4239 123.768 74.5201C123.316 74.6163 122.863 74.6644 122.411 74.6644H118.227V64.4483ZM120.478 68.5319H122.108C122.281 68.5319 122.45 68.5126 122.613 68.4742C122.786 68.4357 122.94 68.3732 123.075 68.2866C123.21 68.2 123.315 68.0846 123.392 67.9403C123.479 67.796 123.522 67.6228 123.522 67.4208C123.522 67.2092 123.474 67.036 123.378 66.9013C123.291 66.7571 123.176 66.6464 123.032 66.5695C122.887 66.4925 122.724 66.4396 122.541 66.4107C122.358 66.3723 122.18 66.353 122.007 66.353H120.478V68.5319ZM120.478 72.7597H122.498C122.671 72.7597 122.844 72.7405 123.017 72.702C123.2 72.6635 123.364 72.5962 123.508 72.5C123.652 72.4038 123.768 72.2788 123.854 72.1248C123.95 71.9709 123.998 71.7833 123.998 71.5621C123.998 71.3216 123.936 71.1292 123.811 70.9849C123.695 70.831 123.546 70.7156 123.364 70.6386C123.181 70.5616 122.984 70.5087 122.772 70.4799C122.56 70.451 122.363 70.4366 122.18 70.4366H120.478V72.7597Z" fill="#023F88"/>
<path d="M136.558 70.7252C136.558 71.3312 136.467 71.8892 136.284 72.399C136.102 72.9088 135.827 73.3513 135.462 73.7265C135.106 74.1017 134.659 74.3951 134.12 74.6067C133.581 74.8184 132.961 74.9242 132.258 74.9242C131.547 74.9242 130.921 74.8184 130.383 74.6067C129.844 74.3951 129.392 74.1017 129.026 73.7265C128.67 73.3513 128.401 72.9088 128.218 72.399C128.035 71.8892 127.944 71.3312 127.944 70.7252V64.4483H130.195V70.6386C130.195 70.956 130.243 71.2494 130.339 71.5188C130.445 71.7882 130.589 72.0238 130.772 72.2258C130.955 72.4182 131.171 72.5722 131.422 72.6876C131.681 72.7934 131.96 72.8463 132.258 72.8463C132.557 72.8463 132.831 72.7934 133.081 72.6876C133.331 72.5722 133.548 72.4182 133.73 72.2258C133.913 72.0238 134.053 71.7882 134.149 71.5188C134.255 71.2494 134.307 70.956 134.307 70.6386V64.4483H136.558V70.7252Z" fill="#023F88"/>
<path d="M139.087 64.4483H146.027V66.5262H141.338V68.4309H145.768V70.5087H141.338V72.5866H146.287V74.6644H139.087V64.4483Z" fill="#023F88"/>
<path d="M148.45 64.4483H151.509L155.852 71.5477H155.881V64.4483H158.132V74.6644H155.188L150.73 67.392H150.701V74.6644H148.45V64.4483Z" fill="#023F88"/>
<path d="M160.028 69.5564C160.028 68.7387 160.163 67.998 160.432 67.3342C160.711 66.6705 161.096 66.1077 161.587 65.646C162.077 65.1746 162.659 64.8139 163.333 64.5638C164.006 64.3137 164.742 64.1886 165.541 64.1886C166.339 64.1886 167.075 64.3137 167.748 64.5638C168.422 64.8139 169.004 65.1746 169.494 65.646C169.985 66.1077 170.365 66.6705 170.634 67.3342C170.913 67.998 171.053 68.7387 171.053 69.5564C171.053 70.3741 170.913 71.1148 170.634 71.7785C170.365 72.4423 169.985 73.0099 169.494 73.4812C169.004 73.943 168.422 74.2989 167.748 74.549C167.075 74.7991 166.339 74.9242 165.541 74.9242C164.742 74.9242 164.006 74.7991 163.333 74.549C162.659 74.2989 162.077 73.943 161.587 73.4812C161.096 73.0099 160.711 72.4423 160.432 71.7785C160.163 71.1148 160.028 70.3741 160.028 69.5564ZM162.366 69.5564C162.366 70.0374 162.438 70.4799 162.582 70.8839C162.736 71.2783 162.953 71.6246 163.232 71.9228C163.511 72.2114 163.843 72.4375 164.227 72.601C164.622 72.7645 165.06 72.8463 165.541 72.8463C166.022 72.8463 166.454 72.7645 166.839 72.601C167.234 72.4375 167.57 72.2114 167.849 71.9228C168.128 71.6246 168.34 71.2783 168.484 70.8839C168.638 70.4799 168.715 70.0374 168.715 69.5564C168.715 69.085 168.638 68.6473 168.484 68.2433C168.34 67.8393 168.128 67.493 167.849 67.2044C167.57 66.9062 167.234 66.6753 166.839 66.5118C166.454 66.3482 166.022 66.2665 165.541 66.2665C165.06 66.2665 164.622 66.3482 164.227 66.5118C163.843 66.6753 163.511 66.9062 163.232 67.2044C162.953 67.493 162.736 67.8393 162.582 68.2433C162.438 68.6473 162.366 69.085 162.366 69.5564Z" fill="#023F88"/>
<path d="M170.264 54.6085H175.253L175.26 48.6252L177.17 46.6871L182.148 54.6085H188.145L180.723 43.52L187.381 36.6314H181.491L175.253 43.2997L175.26 29.6824H170.244L170.264 54.6085Z" fill="#023F88"/>
<path fill-rule="evenodd" clip-rule="evenodd" d="M140.648 33.9629C143.643 33.8393 145.512 35.0441 145.54 37.7931C145.567 40.5728 143.502 41.7297 140.765 41.6676H137.054V33.9629H140.648ZM137.04 54.6084V46.0037H139.856C145.881 46.1138 150.652 44.4061 150.652 37.7413C150.652 32.3143 146.459 29.4344 140.39 29.6822H131.728V54.6084H137.04Z" fill="#023F88"/>
<path fill-rule="evenodd" clip-rule="evenodd" d="M158.271 51.4654C156.753 51.6166 154.794 51.1831 154.722 49.2639C154.66 47.4012 157.283 46.8763 158.608 46.6045C159.683 46.3873 160.684 46.1138 161.424 45.8039C161.858 45.6284 161.948 45.4839 161.948 45.4839V47.9678C161.851 49.8371 160.602 51.2346 158.271 51.4654ZM155.341 42.2614C155.341 42.2614 155.035 39.5076 158.905 39.5624C160.512 39.6005 161.975 40.3938 161.879 41.8052C161.803 42.8466 160.939 43.117 159.187 43.3753C156.346 43.7297 154.333 44.193 152.973 44.8592C151.22 45.718 149.74 47.5426 149.874 49.7681C150.095 53.2143 153.661 55.2282 157.142 55.0767C161.197 54.9047 161.941 52.4758 161.941 52.4758C162.003 52.87 162.016 52.87 162.096 53.4448C162.213 54.2539 162.375 54.6188 162.375 54.6188H167.476C167.194 54.371 167.077 54.2814 166.922 53.975C166.736 53.569 166.702 53.197 166.702 52.7631V42.4542C166.702 37.3938 162.646 36.0958 158.643 36.027C151.124 35.9065 151.131 41.2804 150.979 42.1394L155.341 42.2614Z" fill="#023F88"/>
<path d="M58.8101 54.6085V34.0992H66.427V29.6443H46.0173V34.0992H53.5084V54.6085H58.8101Z" fill="#023F88"/>
<path fill-rule="evenodd" clip-rule="evenodd" d="M75.593 43.4782H67.668C67.668 43.4782 68.0106 40.0357 71.5668 40.0084C75.0663 39.9774 75.593 43.4782 75.593 43.4782ZM62.6195 46.1824C62.955 52.8423 68.5904 55.3314 71.9557 55.2384C79.2436 55.0247 80.6622 49.274 80.6622 49.274L75.5584 48.9779C75.5584 48.9779 74.7458 51.276 71.9352 51.2587C67.6351 51.245 67.5252 46.9693 67.5252 46.9693H80.8547C80.8547 46.9693 81.3455 36.2473 71.4703 36.1027C65.8675 36.0198 62.3473 40.7295 62.6195 46.1824Z" fill="#023F88"/>
<path d="M94.851 54.6086H99.8118V46.453C99.8118 44.1619 100.254 42.0978 102.309 41.0738C103.359 40.5555 104.206 40.4904 105.38 40.6435V36.3817C105.217 36.2851 104.643 36.2232 104.084 36.1956C102.487 36.1096 100.958 37.0409 100.051 38.676C99.9545 38.8208 99.92 38.9171 99.7634 39.2802L99.6017 36.7173H94.851V54.6086Z" fill="#023F88"/>
<path d="M81.2027 40.1012L83.6795 40.1047V49.2844C83.6795 50.7716 83.8361 52.6411 85.2564 53.6928C86.6817 54.7428 88.6198 54.6153 90.4477 54.605H91.9899L91.997 50.9096H90.8386C90.0331 50.9096 89.5477 50.8577 89.1584 50.5478C88.5321 50.0676 88.5648 49.2742 88.5648 48.8403V40.1012H91.8884V36.7H88.5785V31.0181L83.6795 31.0008V36.6862L81.2027 36.7V40.1012Z" fill="#023F88"/>
<path fill-rule="evenodd" clip-rule="evenodd" d="M113.809 51.4549C112.288 51.6029 110.329 51.1831 110.253 49.2569C110.184 47.3945 112.821 46.8661 114.15 46.594C115.227 46.3772 116.223 46.1035 116.952 45.7972C117.39 45.6217 117.486 45.4737 117.486 45.4737V47.9678C117.39 49.8336 116.14 51.2279 113.809 51.4549ZM110.876 42.2547C110.876 42.2547 110.566 39.4938 114.436 39.5488C116.047 39.5864 117.514 40.38 117.41 41.7985C117.352 42.8329 116.471 43.1032 114.722 43.3613C111.861 43.7265 109.864 44.193 108.497 44.8487C106.752 45.7042 105.265 47.5289 105.408 49.7614C105.619 53.2107 109.189 55.2284 112.677 55.0767C116.729 54.9047 117.472 52.4656 117.472 52.4656C117.541 52.87 117.548 52.87 117.637 53.4413C117.748 54.2503 117.91 54.6188 117.91 54.6188H123.018C122.736 54.371 122.619 54.2814 122.461 53.975C122.285 53.5654 122.244 53.197 122.244 52.7631V42.4404C122.244 37.3695 118.175 36.0821 114.178 36.0133C106.656 35.8963 106.656 41.2701 106.508 42.1257V42.1324L110.876 42.2547Z" fill="#023F88"/>
<path d="M30.3053 46.5664L36.1818 39.2628L30.1366 39.2527L27.2567 42.8608L30.3053 46.5664Z" fill="#FF0000"/>
<path d="M19.382 42.9156C20.5542 42.9156 21.5644 43.4339 22.2943 44.3029C22.5611 44.6144 22.6436 44.6973 22.8399 44.9554C23.544 45.8451 23.7815 46.1686 24.1929 46.6869C23.7815 47.1807 23.544 47.5181 22.8399 48.4082C22.6436 48.6663 22.5611 48.7475 22.2943 49.0639C21.5644 49.9332 20.5542 50.4378 19.382 50.4378C17.306 50.4378 15.6347 48.754 15.6347 46.6869C15.621 44.6144 17.306 42.9156 19.382 42.9156Z" fill="#023F88"/>
<path d="M16.4661 54.4982C15.7431 54.3191 15.0478 53.92 14.8223 53.7822C12.4537 52.3037 10.8839 49.7268 10.8839 46.6732C10.8839 41.9877 14.6933 38.1975 19.3941 38.1975C21.6955 38.1975 24.0091 39.0872 25.8369 41.2151L25.9455 41.3423L26.0211 41.2839L16.843 25.4495L0 54.581H16.4661V54.4982Z" fill="#023F88"/>
<path d="M22.4388 54.5052V54.581H33.7307V54.4946C33.7307 54.4946 33.5673 54.4671 33.3846 54.4431C32.6395 54.3435 32.0386 54.1368 31.6101 53.9612C29.9042 53.2623 28.4705 51.875 27.2567 50.4378C27.2567 50.4378 26.3478 51.6166 25.5423 52.4997C24.3428 53.8062 23.0519 54.3502 22.4388 54.5052Z" fill="#023F88"/>
<path d="M192.976 30.3827H193.874C194.628 30.3827 195.465 30.3344 195.465 29.4376C195.465 28.5408 194.628 28.496 193.874 28.5101H192.976V30.3827ZM191.75 27.4701H194.329C195.937 27.4701 196.69 28.195 196.69 29.4859C196.69 30.6514 195.998 31.2175 195.089 31.3279L196.835 34.1611H195.544L193.874 31.4205H192.976V34.1611H191.75V27.4701ZM193.998 35.6707C196.663 35.6707 198.815 33.5156 198.815 30.8562C198.815 28.195 196.663 26.0399 193.998 26.0399C191.341 26.0399 189.182 28.195 189.182 30.8562C189.182 33.5156 191.341 35.6707 193.998 35.6707ZM193.998 25C197.228 25 199.858 27.6302 199.858 30.8562C199.858 34.08 197.228 36.7102 193.998 36.7102C190.772 36.7102 188.142 34.08 188.142 30.8562C188.142 27.6302 190.772 25 193.998 25Z" fill="#023F88"/>
</g>
<defs>
<clipPath id="clip0_0_13768">
<rect width="200" height="49.8322" fill="white" transform="translate(0 25)"/>
</clipPath>
</defs>
</svg>
