<?xml version="1.0" encoding="UTF-8"?>
<svg width="130px" height="85px" viewBox="0 0 130 85" version="1.1" xmlns="http://www.w3.org/2000/svg" xmlns:xlink="http://www.w3.org/1999/xlink">
    <title>tetra-pak</title>
    <g id="tetra-pak" stroke="none" stroke-width="1" fill="none" fill-rule="evenodd">
        <g id="Group-34" transform="translate(39.000000, 11.000000)" fill="#FFFFFF">
            <path d="M31.8909,-1.04449782e-12 C49.47525,-1.04449782e-12 63.77955,14.30745 63.77955,31.89135 C63.77955,49.47525 49.47525,63.78075 31.8909,63.78075 C14.307195,63.78075 4.50000045e-05,49.47525 4.50000045e-05,31.89135 C4.50000045e-05,14.30745 14.307195,-1.04449782e-12 31.8909,-1.04449782e-12 Z M35.39145,55.314615 L34.1523,55.373115 L34.31355,58.780215 C34.3461,59.471265 33.89445,60.018015 33.24315,60.048765 C32.5839,60.079815 32.0826,59.578365 32.0499,58.887315 L32.0499,58.887315 L31.88895,55.480065 L30.64995,55.538715 L30.81315,58.993515 C30.87585,60.319815 31.7325,61.266315 33.29715,61.192365 C34.85385,61.118865 35.61735,60.095865 35.55465,58.769415 L35.55465,58.769415 L35.39145,55.314615 Z M24.90075,54.48591 L23.70165,59.98596 L25.95435,60.47706 C26.93325,60.69051 28.1037,60.54696 28.35435,59.39721 C28.5102,58.68261 28.1454,58.04151 27.44325,57.79071 L27.44325,57.79071 L27.4467,57.77526 C28.0527,57.72036 28.52475,57.38376 28.65855,56.77011 C28.9194,55.57371 27.9147,55.14321 26.95155,54.93306 L26.95155,54.93306 L24.90075,54.48591 Z M40.8861,53.75715 L37.2432,54.91965 L38.9544,60.28185 L42.7338,59.0757 L42.38565,57.9852 L39.78795,58.81425 L39.43995,57.7236 L41.76495,56.98155 L41.4168,55.89105 L39.0918,56.63295 L38.77275,55.6332 L41.2341,54.8478 L40.8861,53.75715 Z M25.4097,57.97401 L26.32635,58.17381 C26.7225,58.26021 27.2865,58.47276 27.17295,58.99326 C27.06795,59.47491 26.6052,59.54481 26.2245,59.46186 L26.2245,59.46186 L25.137,59.22471 L25.4097,57.97401 Z M47.02185,50.13315 L45.9858,50.81445 L48.13425,54.08235 L48.12105,54.09105 L43.9731,52.1376 L42.56505,53.0634 L45.65685,57.7662 L46.69305,57.0849 L44.4921,53.7372 L44.50545,53.7285 L48.7587,55.72665 L50.11365,54.83565 L47.02185,50.13315 Z M25.88895,55.77561 L26.71245,55.95516 C27.093,56.03811 27.50265,56.24946 27.40275,56.70786 C27.30615,57.15066 26.8839,57.22131 26.511,57.14001 L26.511,57.14001 L25.6332,56.94861 L25.88895,55.77561 Z M18.04995,50.77344 C16.63455,49.73289 14.9208,49.90344 13.85205,51.35709 C12.78345,52.81089 13.13175,54.49749 14.547,55.53789 C15.9624,56.57859 17.67615,56.40789 18.7449,54.95424 C19.81365,53.50044 19.4652,51.81384 18.04995,50.77344 Z M14.8896,52.11984 C15.51105,51.27459 16.5201,51.06924 17.37195,51.69549 C18.22365,52.32174 18.3288,53.34609 17.70735,54.19149 C17.0859,55.03689 16.07685,55.24209 15.225,54.61584 C14.3733,53.98959 14.26815,52.96524 14.8896,52.11984 Z M31.8909,10.4337 C20.05815,10.4337 10.435995,20.061 10.435995,31.89135 C10.435995,43.72095 20.05815,53.34405 31.8909,53.34405 C43.7205,53.34405 53.3445,43.72095 53.3445,31.89135 C53.3445,20.061 43.7205,10.4337 31.8909,10.4337 Z M12.59583,45.48495 L8.21568,49.02069 L10.43808,51.77394 L11.32908,51.05469 L9.88563,49.26669 L13.37493,46.45005 L12.59583,45.48495 Z M54.189,46.28985 C52.7961,45.1422 51.09225,45.3969 49.9749,46.75305 C48.85755,48.1092 48.9333,49.830345 50.3262,50.977995 C51.7191,52.125795 53.42295,51.871095 54.54045,50.514945 C55.65765,49.158645 55.5819,47.43765 54.189,46.28985 Z M50.85855,47.48115 C51.531,46.665 52.55985,46.61655 53.37,47.2839 C54.17985,47.9514 54.3291,48.970695 53.65665,49.786845 C52.98435,50.602845 51.9552,50.651445 51.14535,49.983945 C50.3352,49.316595 50.1861,48.2973 50.85855,47.48115 Z M53.49375,41.4459 L52.6917,43.5894 L53.28645,43.8117 L53.5623,43.0746 L55.5198,43.80705 L55.77,43.1379 L53.8125,42.40545 L54.0882,41.66835 L53.49375,41.4459 Z M54.82395,37.89 L54.48795,38.7882 L55.9209,40.0164 L54.0336,40.00245 L53.6976,40.90065 L56.24985,41.85555 L56.5002,41.1864 L54.83985,40.5654 L54.8445,40.5531 L56.73195,40.56705 L56.89425,40.1334 L55.461,38.90505 L55.46565,38.89275 L57.12585,39.5139 L57.3762,38.84475 L54.82395,37.89 Z M58.27545,26.33175 C57.3759,26.34765 56.6853,27.07515 56.7009,27.96375 C56.71665,28.8453 57.4323,29.5494 58.3311,29.5341 C59.21505,29.5188 59.913,28.7895 59.89815,27.90825 C59.8824,27.0195 59.1597,26.3166 58.27545,26.33175 Z M5.5068,26.33175 C4.62285,26.3166 3.9,27.0195 3.88515,27.90825 C3.86925,28.7895 4.5672,29.5188 5.4513,29.5341 C6.351,29.5494 7.0656,28.8453 7.08135,27.96375 C7.0971,27.07515 6.4065,26.34765 5.5068,26.33175 Z M51.6666,9.81375 L47.6655,13.77255 L50.4558,16.5924 L51.26955,15.78735 L49.3515,13.8489 L50.1654,13.04385 L51.882,14.77875 L52.69575,13.9734 L50.97915,12.23865 L51.7251,11.5005 L53.54235,13.3371 L54.3561,12.5319 L51.6666,9.81375 Z M13.607655,10.7319 C12.657855,9.79275 11.710305,10.2198 10.888605,11.05095 L10.888605,11.05095 L9.418605,12.53775 L13.421205,16.4949 L14.293155,15.61305 L12.732855,14.0703 L13.370055,13.4259 C14.202855,12.5835 14.546055,11.65965 13.607655,10.7319 Z M11.483955,11.94135 C11.819355,11.60205 12.289455,11.23965 12.702255,11.64765 C13.075305,12.01665 12.875205,12.43365 12.567855,12.7446 L12.567855,12.7446 L11.986605,13.3326 L11.036805,12.3936 Z M19.4415,6.8622 C18.76395,5.7387 17.7279,5.8992 16.7406,6.49455 L16.7406,6.49455 L14.87484,7.6197 L17.78205,12.44055 L18.8442,11.80005 L17.68215,9.873 L18.20655,9.5568 L20.3763,10.8762 L21.64965,10.10835 L19.19625,8.81145 C19.8033,8.2782 19.848,7.5363 19.4415,6.8622 Z M46.91025,6.25395 C45.38715,5.3784 43.7031,5.73975 42.8037,7.30425 C41.90445,8.8686 42.43935,10.5057 43.9626,11.3814 C44.6793,11.7933 45.4545,12.05565 46.27875,12.0894 L46.27875,12.0894 L47.74455,9.5394 L45.83565,8.44215 L45.26505,9.4344 L46.1403,9.93765 L45.68475,10.7301 C45.4215,10.72545 45.00165,10.6584 44.5329,10.389 C43.6164,9.86205 43.39725,8.8557 43.92015,7.94595 C44.4432,7.03635 45.42315,6.7194 46.33965,7.24635 C46.884,7.5594 47.1444,7.92 47.2596,8.3895 L47.2596,8.3895 L48.49305,7.99845 C48.2652,7.26225 47.682,6.69765 46.91025,6.25395 Z M37.40145,2.78745 L36.01095,8.2419 L39.85545,9.22185 L40.1382,8.11245 L37.49565,7.43895 L37.77855,6.32955 L40.1436,6.9324 L40.4265,5.823 L38.06115,5.22015 L38.3205,4.20315 L40.8243,4.8414 L41.1072,3.732 L37.40145,2.78745 Z M27.93195,5.26725 C27.4689,3.5232 25.9362,2.73735 24.23805,3.1881 C22.54005,3.63885 21.5988,5.08125 22.0617,6.82545 C22.5246,8.5695 24.0573,9.35535 25.75545,8.9046 C27.45345,8.454 28.39485,7.01145 27.93195,5.26725 Z M17.17365,7.45905 C17.56185,7.22505 18.04275,7.0371 18.3342,7.52055 C18.6504,8.04495 18.1548,8.36235 17.7666,8.59635 L17.7666,8.59635 L17.1402,8.9742 L16.47915,7.87785 Z M30.02475,2.30175 L30.0066,3.39885 L31.61235,3.4251 L31.53795,7.95615 L32.778,7.9764 L32.85255,3.4455 L34.45815,3.4719 L34.47615,2.37495 L30.02475,2.30175 Z M24.53175,4.2945 C25.5537,4.02315 26.418,4.5834 26.6871,5.5977 C26.95635,6.61185 26.4837,7.527 25.46175,7.7982 C24.4398,8.0694 23.5755,7.50915 23.3064,6.495 C23.03715,5.4807 23.5098,4.5657 24.53175,4.2945 Z" id="Combined-Shape"></path>
            <polygon id="Fill-5" points="41.67105 29.4171 46.04565 23.9538 41.54235 23.9538 39.3957 26.6484"></polygon>
            <path d="M33.52605,26.6883 C34.3989,26.6883 35.14875,27.0753 35.69685,27.71775 C35.89125,27.957 35.9559,28.0185 36.1041,28.2129 C36.6216,28.87845 36.80565,29.11635 37.11045,29.50005 C36.80565,29.86935 36.62985,30.12345 36.1041,30.79095 C35.95035,30.9816 35.89125,31.0491 35.69685,31.2795 C35.14875,31.929 34.3989,32.30895 33.52605,32.30895 C31.9797,32.30895 30.7262929,31.0491 30.7262929,29.5023 C30.72285,27.957 31.9797,26.6883 33.52605,26.6883" id="Fill-6"></path>
            <path d="M31.35495,35.34465 C30.807,35.2026 30.28965,34.91085 30.12675,34.8069 C28.3614,33.7014 27.1914,31.7775 27.1914,29.4948 C27.1914,25.99125 30.0258,23.1615 33.52605,23.1615 C35.25525,23.1615 36.96945,23.81955 38.33775,25.42095 L38.41545,25.5117 L38.4711,25.4682 L31.629,13.64145 L19.0743,35.4039 L31.3503,35.4039 L31.35495,35.34465" id="Fill-7"></path>
            <path d="M35.8023,35.34465 L35.8053,35.4039 L44.22495,35.4039 L44.22495,35.34045 C44.22495,35.34045 44.0991,35.3181 43.96665,35.29695 C43.40295,35.2236 42.9558,35.0715 42.64215,34.9386 C41.37015,34.4166 40.30305,33.3798 39.3957,32.30895 C39.3957,32.30895 38.72085,33.19155 38.12025,33.8469 C37.22595,34.8249 36.26055,35.22915 35.8023,35.34465" id="Fill-8"></path>
            <polygon id="Fill-9" points="43.8408 43.4211 45.0054 43.4211 45.0054 42.01905 45.45435 41.56785 46.61505 43.4211 48.0192 43.4211 46.28445 40.82685 47.83695 39.2217 46.46505 39.2217 45.0054 40.77645 45.0054 37.5981 43.839 37.5981"></polygon>
            <path d="M36.9261,38.59815 C37.62405,38.56815 38.0601,38.84865 38.0673,39.4929 C38.07585,40.14075 37.59075,40.41435 36.95385,40.395 L36.0846,40.395 L36.0846,38.59815 L36.9261,38.59815 Z M36.0819,43.42095 L36.0819,41.40855 L36.73815,41.40855 C38.1498,41.4339 39.2634,41.0349 39.2634,39.48 C39.2634,38.2137 38.2794,37.54155 36.8649,37.5939 L34.84515,37.5939 L34.84515,43.42095 L36.0819,43.42095 L36.0819,43.42095 Z" id="Fill-10"></path>
            <path d="M41.03985,42.68475 C40.68615,42.71895 40.227,42.6198 40.21125,42.16995 C40.1955,41.7369 40.8102,41.61285 41.1231,41.54985 C41.37015,41.499 41.60445,41.43405 41.78025,41.3661 C41.87745,41.32305 41.9043,41.28825 41.9043,41.28825 L41.9043,41.86725 C41.87745,42.3051 41.58675,42.6324 41.03985,42.68475 M40.3566,40.5357 C40.3566,40.5357 40.28445,39.89565 41.1897,39.90585 C41.56365,39.918 41.9052,40.0998 41.88495,40.4289 C41.86455,40.67415 41.6637,40.73565 41.25165,40.7967 C40.58805,40.87965 40.1196,40.98615 39.8031,41.1408 C39.3957,41.343 39.0459,41.7636 39.081,42.28935 C39.13095,43.09185 39.9669,43.56405 40.77675,43.5297 C41.721,43.48905 41.9043,42.918 41.9043,42.918 C41.9118,43.01415 41.91435,43.01505 41.9367,43.1457 C41.95995,43.33545 42.00045,43.42155 42.00045,43.42155 L43.19205,43.42155 C43.128,43.365 43.09665,43.34325 43.06215,43.26885 C43.02165,43.1745 43.01145,43.0869 43.01145,42.98925 L43.01145,40.5774 C43.01145,39.39435 42.06165,39.0954 41.12955,39.0792 C39.3735,39.0504 39.3735,40.3044 39.33375,40.5039 L40.3566,40.5357" id="Fill-11"></path>
            <polygon id="Fill-12" points="17.81535 43.4211 17.81535 38.63025 19.58985 38.63025 19.58985 37.5897 14.824515 37.5897 14.824515 38.63025 16.5768 38.63025 16.5768 43.4211"></polygon>
            <path d="M21.73275,40.81845 L19.88145,40.81845 C19.88145,40.81845 19.96185,40.0158 20.79045,40.01115 C21.61155,40.00335 21.73275,40.81845 21.73275,40.81845 M18.70305,41.4474 C18.77895,43.0077 20.09715,43.58895 20.88285,43.5687 C22.5861,43.51725 22.91655,42.1737 22.91655,42.1737 L21.7254,42.1032 C21.7254,42.1032 21.5355,42.64035 20.87745,42.63405 C19.8777,42.63405 19.84995,41.63865 19.84995,41.63865 L22.96185,41.63865 C22.96185,41.63865 23.07675,39.13005 20.77005,39.09705 C19.46385,39.07905 18.63735,40.17525 18.70305,41.4474" id="Fill-13"></path>
            <path d="M26.2287,43.4211 L27.3885,43.4211 L27.3885,41.50995 C27.3885,40.98135 27.49305,40.4964 27.96975,40.25805 C28.21695,40.13445 28.4151,40.12185 28.6899,40.158 L28.6899,39.16335 C28.65105,39.1389 28.51515,39.1245 28.3863,39.1209 C28.01055,39.10005 27.65685,39.3144 27.444,39.6975 C27.42465,39.7305 27.41265,39.75675 27.3774,39.8409 L27.33675,39.23745 L26.2287,39.23745 L26.2287,43.4211" id="Fill-14"></path>
            <path d="M23.04075,40.02975 L23.6211,40.02975 L23.6211,42.17595 C23.6211,42.5217 23.6544,42.9618 23.98665,43.20675 C24.3228,43.4511 24.7764,43.4214 25.2039,43.4148 L25.56225,43.4148 L25.56495,42.5568 L25.2918,42.5568 C25.1031,42.5568 24.9939,42.5439 24.8985,42.47115 C24.7542,42.3582 24.76515,42.1737 24.76515,42.07305 L24.76515,40.02975 L25.5372,40.02975 L25.5372,39.23595 L24.76515,39.23595 L24.76515,37.91145 L23.6211,37.90455 L23.6211,39.22905 L23.04075,39.23595 L23.04075,40.02975" id="Fill-15"></path>
            <path d="M30.65625,42.68175 C30.30255,42.7188 29.84535,42.6198 29.82585,42.16995 C29.8101,41.7348 30.4266,41.6127 30.735,41.547 C30.9867,41.496 31.22265,41.43315 31.39305,41.35815 C31.4949,41.3229 31.51425,41.28585 31.51425,41.28585 L31.51425,41.8671 C31.4931,42.3033 31.20135,42.62685 30.65625,42.68175 M29.9703,40.53165 C29.9703,40.53165 29.89725,39.88635 30.8043,39.9021 C31.1793,39.91215 31.52265,40.0926 31.4994,40.42875 C31.48365,40.66755 31.281,40.73295 30.87285,40.79445 C30.20355,40.8795 29.73615,40.9851 29.4168,41.1408 C29.0067,41.3415 28.6632,41.7636 28.69185,42.28935 C28.7457,43.0917 29.5779,43.56405 30.39135,43.52955 C31.34115,43.48905 31.51425,42.91785 31.51425,42.91785 C31.52895,43.01415 31.53195,43.01505 31.5495,43.1457 C31.57725,43.3353 31.617,43.42155 31.617,43.42155 L32.81115,43.42155 C32.74455,43.365 32.71575,43.3431 32.67795,43.2687 C32.63625,43.1715 32.62695,43.08675 32.62695,42.98925 L32.62695,40.5774 C32.62695,39.39285 31.6782,39.0921 30.74325,39.07395 C28.9872,39.04695 28.9872,40.30155 28.95015,40.50375 L29.9703,40.53165" id="Fill-16"></path>
        </g>
    </g>
</svg>