<?xml version="1.0" encoding="UTF-8"?>
<svg width="200px" height="130px" viewBox="0 0 200 130" version="1.1" xmlns="http://www.w3.org/2000/svg" xmlns:xlink="http://www.w3.org/1999/xlink">
    <title>unilever</title>
    <g id="unilever" stroke="none" stroke-width="1" fill="none" fill-rule="evenodd">
        <g id="Group-26" transform="translate(42.000000, 0.000000)" fill="#234A8D">
            <path d="M15.0718239,114.294389 C14.8747639,113.68043 14.3202256,112.305754 14.1642756,111.285631 C13.8300333,109.037589 15.0016688,107.550714 16.0843815,107.211869 C17.2877432,106.869883 17.758721,107.47711 18.2270177,108.900257 C18.8316031,111.055396 18.9017582,113.881941 18.6948676,117.930121 C18.4339083,123.458894 15.6795372,130.135249 8.83159145,129.997916 C2.9229202,129.863276 0.30930619,126.023339 0.0322604237,120.155722 C-0.0915164753,117.392907 0.105543497,114.630092 1.24813386,110.719693 C1.85003813,108.631425 2.38804314,107.883275 4.26346424,107.47711 C5.74387169,107.211869 5.60668936,108.759333 5.27289389,110.585502 C4.53738207,114.630092 4.19643703,116.584169 4.47035486,121.169114 C4.73444204,126.023339 6.95348926,127.910096 9.36646852,127.910096 C12.9926401,127.980109 14.603974,124.948911 15.2724587,120.565028 C15.8104637,117.054063 15.409641,115.371959 15.0718239,114.294389 Z M92.3683971,119.084436 C93.7755215,119.084436 94.1799189,120.762949 93.8421019,121.77679 C93.5047316,122.783898 92.3044978,123.935071 90.4196929,124.273915 C90.0215514,123.260524 89.8182355,119.084436 92.3683971,119.084436 Z M66.1192044,121.370625 C66.1192044,120.222594 65.5173002,119.282806 64.7849163,119.282806 C64.1736282,119.282806 62.7665038,119.951069 62.7665038,122.109351 C62.7665038,123.800879 63.3652801,124.606476 63.6418791,124.948911 C65.5776246,124.338094 66.1192044,122.717026 66.1192044,121.370625 Z M45.2402311,107.614892 C45.1481804,106.533732 44.3041739,105.801738 43.1615836,105.801738 C41.8911947,105.801738 40.6905141,107.138266 40.8116099,108.829795 C40.8942768,109.942371 41.5471217,110.857026 42.8335971,110.857026 C44.3041739,110.857026 45.3769666,109.168639 45.2402311,107.614892 Z M56.1603028,111.576453 C56.0427818,109.693287 55.5874437,108.83922 54.5811419,108.909681 C53.2441727,108.986426 52.6266287,113.216819 52.9005466,117.655006 C53.0752642,120.548872 53.5024508,120.999916 53.9064014,120.971193 C54.6419133,120.926313 56.415453,115.7494 56.1603028,111.576453 Z M100.68692,118.671988 C99.8593572,122.138074 97.3382407,127.241384 93.5748867,127.241384 C92.7026394,127.241384 91.1583327,126.902539 91.1583327,126.023339 C91.1583327,125.076819 97.0674508,124.948911 97.0674508,120.424105 C97.0674508,118.74245 95.5267189,116.379067 93.2406444,116.379067 C90.222633,116.379067 87.2743298,119.68538 87.2743298,124.273915 C87.2743298,128.37999 89.8182355,129.729084 92.3683971,129.729084 C96.7966609,129.729084 99.48043,126.087069 100.888001,123.052729 C101.568998,125.076819 101.960437,129.729084 103.645054,129.729084 C104.319794,129.729084 104.787644,129.393382 105.596439,127.573945 C107.605467,123.052729 109.553725,117.859659 112.244197,117.859659 C113.243796,117.859659 112.641891,119.68538 115.055317,119.68538 C116.197908,119.68538 117,118.74245 117,117.658148 C117,116.104401 115.59645,114.89623 113.443984,114.89623 C107.137171,114.89623 105.797074,124.405414 104.787644,124.405414 C103.113304,124.405414 103.645054,116.782538 102.438564,116.782538 C101.365682,116.782538 100.830358,118.074186 100.68692,118.671988 Z M46.9883006,126.761616 C47.9941554,126.761616 49.7225635,126.432645 51.08545,124.24205 C50.3057002,122.509232 49.7516086,118.998266 49.6756445,117.722327 C49.2739281,111.183304 51.7829797,105.03429 54.5239454,104.864643 C56.5392299,104.743467 58.150117,106.655357 58.3346652,109.753875 C58.8284323,117.901398 56.1285766,121.297022 54.7786488,124.235767 C55.0078818,125.370783 56.9244129,127.30242 58.7328068,127.30242 C59.4075473,127.30242 60.2100863,126.963127 60.416977,126.697886 C60.2802415,126.227992 60.1430591,125.620316 60.1430591,124.741116 C60.1430591,120.021531 63.1641985,116.043813 65.7845153,116.043813 C67.866827,116.043813 69.0733166,118.803038 69.0733166,120.628758 C69.0733166,122.783898 67.2586669,124.539605 64.5780256,126.227992 C65.0494503,126.697886 65.9185697,127.033589 66.6603374,127.033589 C70.4866969,127.033589 72.4925976,122.381324 73.9730051,118.131633 C74.243795,117.326036 74.7214755,116.178004 75.6540473,116.178004 C77.2680623,116.178004 77.9432496,126.832078 80.6207629,126.832078 C81.7602253,126.832078 82.6959251,124.466002 82.6959251,122.652848 C82.6959251,121.303754 82.2280752,121.169114 82.2280752,119.212344 C82.2280752,117.054063 83.3746872,115.244499 84.9185471,115.244499 C85.8609495,115.244499 86.194745,116.178004 86.194745,117.326036 C86.194745,121.636315 83.1038973,129.665355 78.5451539,129.665355 C75.1160423,129.665355 75.3832574,123.730418 74.1798957,123.730418 C72.8299679,123.730418 70.9487377,129.729084 64.3108105,129.729084 C63.2312257,129.729084 62.0886354,129.19187 61.1556167,128.111159 C59.5447296,129.19187 58.1979297,129.665355 56.6540699,129.665355 C54.1740634,129.665355 53.0976066,127.104051 52.0948796,127.104051 C50.8821341,127.104051 49.544718,129.729084 45.511021,129.729084 C42.2857615,129.729084 41.7540123,125.418805 40.611422,125.418805 C39.6019923,125.418805 38.0643883,129.729084 36.386474,129.729084 C33.5597135,129.729084 32.9640651,122.253416 30.4746748,122.253416 C28.5290986,122.253416 22.3782357,129.841284 20.7101521,129.671638 C20.0380927,129.601176 19.7552379,129.099417 19.8249462,128.427563 C19.9205717,127.490917 20.7199828,124.990201 21.0408196,123.817036 C21.5855274,121.767365 22.0824224,119.51304 22.3594681,118.799896 C22.639195,118.083611 23.3840906,117.562554 23.979739,117.62 C24.2818083,117.645582 24.3778806,118.211519 24.4699313,118.671988 C24.8077484,120.341077 25.2787262,122.042031 25.8136032,122.042031 C26.7560057,122.042031 29.8696426,116.043813 31.6780365,116.043813 C33.8997648,116.043813 34.1642989,125.486125 37.1854383,125.486125 C38.1979959,125.486125 38.9330608,124.273915 39.6019923,122.783898 C39.6721474,120.283631 40.3468879,116.71836 42.3559166,116.71836 C43.7661689,116.71836 44.4413563,119.883749 43.4287987,122.652848 C43.4287987,125.956019 45.5811762,126.761616 46.9883006,126.761616 Z" id="Fill-1"></path>
            <path d="M93.7433484,21.0321344 C93.2473471,21.0321344 92.5337309,21.0321344 92.1418452,20.2422456 C91.8210083,19.6013586 91.9286987,18.5587952 91.3241133,18.1019164 C91.9286987,18.2742558 92.5654571,18.2742558 93.0717359,18.2742558 C94.6763671,18.2742558 96.2077152,17.1711043 97.3824786,17.1711043 C98.1626753,17.1711043 98.4106759,17.6701704 98.4106759,18.1705829 C98.4106759,19.7454236 95.2496731,21.0321344 93.7433484,21.0321344 Z M94.5329289,25.074031 C98.2328304,25.074031 101.619938,22.1052162 101.619938,19.4958905 C101.619938,18.2742558 101.043951,17.2765724 99.5854393,17.0992962 C99.8370148,17.4188421 99.942024,17.6701704 99.942024,18.2455325 C99.942024,20.2090344 96.9530577,22.3960389 93.7116222,22.3960389 C92.5337309,22.3960389 92.1807209,23.2195877 92.1807209,23.6477433 C92.1807209,24.6472218 93.141891,25.074031 94.5329289,25.074031 Z M94.2402434,26.5770636 C94.7080933,29.9744829 99.8370148,34.55494 101.221797,34.4508183 C102.151687,34.3677902 102.508272,30.0157725 102.508272,26.5770636 C102.508272,24.608625 102.616409,23.0705859 101.584637,22.7124432 C99.942024,26.0443375 95.6348561,26.7193334 94.2402434,26.5770636 Z" id="Fill-2"></path>
            <path d="M14.065969,49.0794682 C15.2755866,49.0794682 15.0307139,41.6423963 16.988355,41.6423963 C17.4468211,41.6423963 17.5902593,42.1060072 17.5902593,42.6750861 C17.5902593,44.3603317 16.7752085,46.8287341 16.7752085,48.1877018 C16.7752085,48.8671856 16.947245,49.0794682 17.2721035,49.0794682 C18.1278175,49.0794682 19.6243114,40.8843724 21.0828234,40.8843724 C21.5506732,40.8843724 21.7606918,41.3560617 21.7606918,41.8196725 C21.7606918,43.5385781 19.5894573,48.4753828 19.5894573,49.8662154 C19.5894573,50.0789468 19.6564845,50.2593645 19.83433,50.2593645 C20.7257918,50.2593645 22.5091622,46.4001297 23.0753186,44.4657998 C23.3970492,43.4663213 23.8237891,42.9259656 24.2188027,42.9259656 C24.5749406,42.9259656 24.8966711,43.3177683 24.8966711,44.1458051 C24.8966711,46.075647 23.1101728,50.6224441 21.5506732,53.6617206 C20.3379277,56.0215132 18.452676,59.4238692 18.452676,61.3137678 C18.452676,62.2822791 18.6247124,63.2866945 20.0161972,64.5033925 C17.7368255,64.3593275 16.8069347,64.1452497 15.953455,62.3558824 C12.1458631,69.9724745 22.9703094,69.2211825 19.2614709,75.9841562 C18.5898583,74.7688046 13.2504714,73.5188954 13.2504714,66.4327855 C13.2504714,60.3129429 18.5898583,56.7333107 18.5898583,54.1939979 C18.5898583,53.6935854 18.4115659,53.2685714 17.949972,52.8749734 C16.7752085,51.8696605 16.7372265,51.0492533 15.8135916,51.0492533 C15.1325952,51.0492533 14.3139697,52.6258892 15.1705773,54.0167217 C15.4570069,54.4803325 15.7054544,54.764872 15.7054544,55.1997596 C15.7054544,56.197443 14.1361242,58.8835135 13.0373249,58.8835135 C11.9295887,58.8835135 11.076109,56.1269813 11.076109,51.6919355 C11.076109,47.7541606 11.9648897,43.7845208 13.069498,43.7845208 C13.3912285,43.7845208 13.4962378,43.9990474 13.4962378,44.2880749 C13.4962378,44.7521345 13.3559276,45.677561 13.3559276,47.2568897 C13.3559276,48.9389937 13.7473664,49.0794682 14.065969,49.0794682 Z" id="Fill-3"></path>
            <path d="M23.1490486,59.5612022 C24.6446488,59.5612022 25.8900143,58.4454843 25.8900143,55.9865068 L25.8900143,52.3377593 C25.8900143,50.9437852 25.9981515,49.3738813 26.9249142,48.2532266 C26.819905,48.7231207 26.819905,49.2235331 26.819905,49.687144 C26.819905,52.7663637 28.5290986,54.8784185 28.5290986,57.8472333 C28.5290986,58.95218 28.2046869,59.5612022 27.3512072,59.5612022 C26.5361565,59.5612022 26.6063116,58.8099102 26.4280193,58.8099102 C26.2881558,58.8099102 26.0745625,59.2717259 26.0745625,59.7725872 C26.0745625,60.5270207 26.6063116,61.706917 28.0965497,61.706917 C29.3821315,61.706917 30.4139035,60.5270207 30.4139035,59.2048546 C30.4139035,55.9865068 27.9213853,52.4113626 27.9213853,48.9740001 C27.9213853,47.4696211 28.3155053,46.4705913 28.6372358,45.677561 C28.6372358,52.7986773 34.6576191,57.9895031 34.6576191,60.9556251 C34.6576191,61.6395969 34.1544682,62.176811 33.4100194,62.176811 C32.585138,62.176811 32.1968271,61.524704 32.1968271,61.0274332 C32.1968271,60.7796953 32.1583981,60.7092337 32.0533889,60.7092337 C31.8402424,60.7092337 31.200356,61.4255191 31.200356,62.3558824 C31.200356,63.5312907 32.1583981,64.9652081 33.9417686,64.9652081 C35.9726928,64.9652081 37.077301,63.2449561 37.077301,61.706917 C37.077301,57.9544966 29.7740172,52.2610144 29.7740172,46.1842567 C29.7740172,45.1434885 29.9523095,43.4663213 30.7007799,42.1764689 C25.9981515,45.2152965 24.5400864,49.2603348 24.5400864,52.7986773 C24.5400864,55.8778971 24.4319492,57.4154873 22.8653001,57.4154873 C22.0475682,57.4154873 21.833528,56.6641954 21.5506732,56.6641954 C21.3339519,56.6641954 21.2226868,57.3068776 21.2226868,57.4890906 C21.2226868,58.8099102 22.1905596,59.5612022 23.1490486,59.5612022 Z" id="Fill-4"></path>
            <path d="M77.1121123,19.2768759 C77.5674505,18.9743844 79.5760323,19.4608841 82.1708787,18.1705829 C82.4957372,17.9915115 82.810765,17.9179082 83.0940667,17.9179082 C84.3421131,17.9179082 84.0235105,19.3518256 85.1669946,19.3518256 C86.0517536,19.3518256 87.1983656,18.6018801 87.8762341,18.6018801 C88.9361575,18.6018801 90.4706336,21.9642929 90.4706336,23.5341967 C90.4706336,25.3635073 87.7363706,26.4698003 84.4855514,26.4698003 C79.7547715,26.4698003 76.8989658,22.319294 76.8989658,19.6395067 C76.8989658,19.4240824 77.0071031,19.3518256 77.1121123,19.2768759 Z M84.8801182,23.8223266 C86.4498952,23.8223266 87.6246586,23.1091827 87.6246586,22.6760903 C87.6246586,22.5333718 87.4115121,22.4265573 86.9494713,22.4265573 C86.4847494,22.4265573 85.5579866,22.3960389 83.810364,22.1052162 C82.3111889,21.8556832 81.1712797,21.2866042 80.7476677,21.2866042 C80.6046764,21.2866042 80.5282654,21.3570659 80.5282654,21.4656756 C80.5282654,22.3960389 82.2410338,23.8223266 84.8801182,23.8223266 Z" id="Fill-5"></path>
            <path d="M23.9002001,73.045411 C22.7223087,73.3366824 20.833929,75.1911258 20.833929,78.129871 C20.833929,81.6372463 24.5749406,87.0414318 30.738762,87.0414318 C35.9378386,87.0414318 37.2207393,83.42796 37.2207393,80.9914225 C37.2207393,75.5874166 33.9064676,71.7986434 29.6019807,71.7986434 C27.246198,71.7986434 25.1446718,73.5188954 25.1446718,76.0546178 C25.1446718,78.4175521 26.9249142,81.9603826 31.1655019,81.9603826 C33.1615719,81.9603826 34.3332074,80.5278117 34.3332074,78.8843045 C34.3332074,77.2695206 32.8751424,75.0569345 30.738762,75.0569345 C30.0926198,75.0569345 29.6341537,75.4788069 29.6341537,76.1600859 C29.6341537,77.0168459 30.8084703,77.8834796 32.2669822,77.8834796 C32.6231201,77.8834796 32.9099965,77.8098763 33.0561158,77.7394146 C33.1267178,77.8453315 33.1615719,78.0239541 33.1615719,78.168019 C33.1615719,78.986631 32.3719915,79.4951219 31.1655019,79.4951219 C29.3472773,79.4951219 27.5996547,78.129871 27.5996547,75.9841562 C27.5996547,74.6987917 28.707391,73.7648381 30.3057663,73.7648381 C33.4797277,73.7648381 35.3681074,76.5913831 35.3681074,79.4152354 C35.3681074,81.9603826 33.9766227,83.42796 31.1306477,83.42796 C25.4284203,83.42796 22.6521536,78.2734871 23.9002001,73.045411 Z" id="Fill-6"></path>
            <path d="M64.5556832,94.0090584 C66.2684517,94.0090584 66.176401,93.8649935 66.7139591,93.8649935 C67.2488362,93.8649935 67.2841372,94.1881298 67.2841372,94.4089396 C67.2841372,95.1920963 65.5365146,96.1610564 62.4385174,96.1610564 C60.6207397,96.1610564 59.5192593,95.1920963 59.1944008,94.1208097 C57.4114772,95.262558 54.7120684,96.3046726 52.0376831,96.3046726 C44.7370803,96.3046726 42.8845378,93.1168431 40.6047192,92.0841534 C38.8570967,91.2974062 36.1858393,92.8323037 32.4484025,88.6467909 C32.9417227,88.752259 33.6227191,88.790407 34.1544682,88.790407 C37.4338858,88.790407 39.1752525,87.1823551 39.1752525,84.6015731 C39.1752525,84.2883104 39.1439731,83.9270261 39.1019694,83.610173 C40.1046963,84.003771 42.3845149,85.7143289 42.9193919,88.752259 C42.9895471,89.116685 44.453868,89.4330893 45.3769666,89.4330893 C46.6603141,89.4330893 48.2930967,88.9026071 48.545119,86.7887571 C52.8205608,86.433756 55.7085395,83.8947125 56.3135717,80.668735 C57.8408982,81.1704939 59.5862865,82.5649168 60.0161543,83.2812023 C60.6207397,83.0666757 61.3339091,82.9612076 62.1552157,82.9612076 C63.295125,82.9612076 64.5717698,83.1752854 66.1062458,83.6456282 C66.176401,83.1752854 66.2492372,82.5999232 66.9659814,82.5999232 C68.0290328,82.5999232 67.7457312,83.7861028 68.099188,84.4642402 C68.2774803,84.8187925 69.175198,85.0333192 69.175198,85.7529258 C69.175198,86.433756 68.5992109,86.6801474 68.2426262,86.6801474 C68.099188,86.6801474 67.9208956,86.645141 67.8158863,86.6132762 C67.1089728,86.8592188 67.0709907,92.0136917 64.0717468,92.0136917 C61.8687862,92.0136917 59.8342872,90.18483 58.9464002,87.9049238 C58.6975058,87.2173615 58.1657567,86.7887571 57.6630527,86.7887571 C57.0933215,86.7887571 56.7751657,86.8973668 56.0995315,87.645966 C54.1740634,89.7562256 50.9741848,91.5819457 47.0137709,91.5819457 C45.8037065,91.5819457 44.8425364,91.473336 44.5941783,91.473336 C44.453868,91.473336 44.453868,91.5052008 44.453868,91.5500809 C44.453868,91.7964723 45.6607151,92.761842 48.2930967,92.761842 C54.5650554,92.761842 56.0995315,89.2190114 57.0933215,89.2190114 C57.2430155,89.2190114 57.6630527,89.2190114 57.9074785,89.7948224 C59.3726932,93.2259017 62.5627411,94.0090584 64.5556832,94.0090584 Z M61.798631,86.8592188 C61.798631,87.645966 62.4385174,88.2949314 63.2218419,88.2949314 C64.0051665,88.2949314 64.6508619,87.645966 64.6508619,86.8592188 C64.6508619,86.0760621 64.0051665,85.4297894 63.2218419,85.4297894 C62.4385174,85.4297894 61.798631,86.0760621 61.798631,86.8592188 Z" id="Fill-7"></path>
            <path d="M90.0059117,69.0039631 C89.5058888,69.0039631 88.9710117,69.4002539 88.9710117,70.3723556 C88.9710117,71.4405006 89.7927652,72.1181893 90.2574871,72.3358575 C90.5054878,72.476332 90.8973735,72.620397 91.2861312,72.620397 C92.3174564,72.620397 93.141891,72.3358575 93.141891,71.4692239 C93.141891,70.3723556 91.5372598,69.0039631 90.0059117,69.0039631 Z M86.1634656,71.2228324 C85.4149952,71.2228324 81.2762889,76.7709033 78.6112874,76.7709033 C77.9714011,76.7709033 77.4396519,75.5555518 77.4396519,74.6314717 C77.4396519,74.1229808 77.7582546,73.7648381 78.8950359,73.5188954 C85.0235564,72.1181893 83.6673727,67.5040721 88.9008566,67.5040721 C91.7857073,67.5040721 94.9949697,69.4738572 94.9949697,73.908903 C94.9949697,78.6316299 88.3029739,84.4929634 87.3033749,84.4929634 C86.4847494,84.4929634 85.5932876,83.3162087 85.5932876,82.52632 C85.5932876,82.2835189 85.6987437,81.9603826 86.4145942,81.6727016 C89.8276193,80.3105923 91.7857073,77.1609109 91.7857073,75.5555518 C91.7857073,75.1911258 91.6069681,74.8361247 91.145821,74.8361247 C90.5412356,74.8361247 87.9490703,80.7773447 85.0584105,80.7773447 C83.0627873,80.7773447 81.0314162,78.9516246 81.0314162,78.0975574 C81.0314162,76.6618448 86.8064799,74.0143711 86.8064799,72.0127212 C86.8064799,71.2546973 86.4498952,71.2228324 86.1634656,71.2228324 Z" id="Fill-8"></path>
            <path d="M15.6706003,24.3240855 C15.6706003,24.3240855 14.6325723,25.107691 13.3559276,25.107691 C11.8245794,25.107691 10.6113871,23.967738 10.6113871,22.3560956 C10.6113871,21.2498026 11.1811183,20.0999759 12.4993199,19.5308969 C12.4675937,19.7454236 12.4675937,19.9244949 12.4675937,20.1385727 C12.4675937,22.1788195 13.604375,23.7200001 15.6706003,24.3240855 Z M23.2920399,31.1925272 C22.5091622,32.1246857 21.6936646,33.6995264 21.6936646,35.3080271 C21.6936646,37.2360738 22.8653001,38.8539993 24.6835246,38.8539993 C26.4280193,38.8539993 27.246198,37.3478251 27.246198,35.8066444 C27.246198,33.4118453 25.0718355,31.7265997 23.2920399,31.1925272 Z M11.4648668,32.6250982 C11.4040954,32.7323615 11.3598575,32.8759776 11.3598575,33.0182474 C11.3598575,33.3400373 11.7195701,33.6995264 12.034598,33.6995264 C12.3210276,33.6995264 12.4993199,33.6259231 12.6458861,33.6259231 C13.4962378,33.6259231 14.45428,34.2318037 15.8484458,34.2318037 C16.6634965,34.2318037 17.6318162,33.9809243 18.8414337,33.3763901 C21.4076819,32.0878841 22.4037061,28.9031962 22.4037061,28.3691237 C22.4037061,27.6847031 21.8563173,27.7776048 21.4076819,27.147489 C20.9518969,26.5241052 21.1239334,25.9774663 20.833929,25.6817068 C20.6690421,25.5138554 20.1591885,25.5075722 19.5193022,25.4353154 C19.2994529,25.4083873 19.0165982,25.3971673 18.7328497,25.3971673 C17.5580862,25.3971673 16.1603457,25.5439251 14.5977182,26.540262 C11.5091047,28.5208183 11.9648897,31.7970614 11.4648668,32.6250982 Z M19.83433,28.1900524 C20.0859054,28.5244087 20.7677955,28.9382027 20.7677955,29.1971605 C20.7677955,29.6962266 20.4777911,30.3389088 19.9080599,30.3389088 C18.6595666,30.3389088 17.6666703,28.4395854 17.6666703,27.3714404 C17.6666703,26.6856733 18.0549812,26.6134165 18.5898583,26.6134165 C18.8414337,26.6134165 18.949571,26.6488717 19.1216074,26.7543398 C19.4464659,26.9334112 19.4464659,27.6465551 19.83433,28.1900524 Z M16.5584872,32.5514949 C15.3868518,32.5514949 14.1008232,31.0839175 14.1008232,29.7599563 C14.1008232,29.0472612 14.6325723,28.1550459 15.0307139,28.1550459 C15.1705773,28.1550459 15.2438604,28.260514 15.2755866,28.5100471 C15.4954358,30.2621639 16.6353451,31.2661305 17.7019713,31.7634014 C17.8096617,31.8352094 17.8798168,31.8706647 17.8798168,31.9474095 C17.8798168,32.1920058 17.2019484,32.5514949 16.5584872,32.5514949 Z M19.5894573,23.5341967 C19.7681965,22.9606298 19.9080599,22.2488323 19.9080599,21.4656756 C19.9080599,19.7454236 19.1216074,17.1360979 16.7019255,17.1360979 C15.3135687,17.1360979 14.3139697,18.2455325 14.3139697,19.5663522 C14.3139697,22.3960389 17.1317932,23.5341967 19.5894573,23.5341967 Z M10.3602585,37.8468911 C10.3602585,40.5661729 11.1811183,41.8564741 12.6458861,41.8564741 C13.7790926,41.8564741 15.3135687,41.0284374 17.1317932,39.4553919 C15.7403085,39.781221 14.6710013,39.9939524 13.7093843,39.9939524 C12.4296116,39.9939524 11.4300126,39.4953351 10.3602585,37.8468911 Z M11.6078581,34.6653449 C11.5792599,34.8457627 11.5792599,35.0234877 11.5792599,35.202559 C11.5792599,36.8792774 12.4675937,37.8132311 13.6392292,37.8132311 C14.5271162,37.8132311 15.565591,37.2710802 16.4883321,36.0929791 C16.0973401,36.1647871 15.6352993,36.1997936 15.2085594,36.1997936 C13.8872298,36.1997936 12.4675937,35.8420996 11.6078581,34.6653449 Z M20.3379277,34.1599956 C19.5193022,34.3790102 17.8096617,35.3798352 17.8096617,37.1656121 C17.8096617,38.4541181 18.8034517,39.2808085 20.0510513,39.2808085 C20.6909376,39.2808085 21.1556596,39.1322556 21.4358333,38.9195242 C20.442937,37.9555008 20.0859054,36.8792774 20.0859054,35.8066444 C20.0859054,35.0553525 20.1940427,34.5948833 20.3379277,34.1599956 Z M21.6208284,24.3528087 C21.6208284,25.1444927 22.2607147,25.7921117 23.0440393,25.7921117 C23.8237891,25.7921117 24.4699313,25.1444927 24.4699313,24.3528087 C24.4699313,23.569652 23.8237891,22.9283162 23.0440393,22.9283162 C22.2607147,22.9283162 21.6208284,23.569652 21.6208284,24.3528087 Z M23.4672043,27.5760934 C23.4672043,28.3691237 24.1169213,29.011806 24.8966711,29.011806 C25.6764209,29.011806 26.319882,28.3691237 26.319882,27.5760934 C26.319882,26.7911414 25.6764209,26.1498056 24.8966711,26.1498056 C24.1169213,26.1498056 23.4672043,26.7911414 23.4672043,27.5760934 Z" id="Fill-9"></path>
            <path d="M79.0380273,45.1434885 C79.0380273,44.4303446 79.6810415,43.8231176 80.3879551,43.8231176 C81.1712797,43.8231176 81.7794398,44.4303446 81.7794398,45.1434885 C81.7794398,45.9652421 81.1712797,46.5423994 80.3879551,46.5423994 C79.6810415,46.5423994 79.0380273,45.9652421 79.0380273,45.1434885 Z M66.5329857,34.123194 C66.5329857,34.9112876 67.1791279,35.5571114 67.9588777,35.5571114 C68.7453302,35.5571114 69.3852165,34.9112876 69.3852165,34.123194 C69.3852165,33.3400373 68.7453302,32.6955598 67.9588777,32.6955598 C67.1791279,32.6955598 66.5329857,33.3400373 66.5329857,34.123194 Z M65.3264961,39.167262 C65.3264961,40.2802871 66.2492372,41.2057135 67.3538455,41.2057135 C68.4589006,41.2057135 69.3852165,40.2802871 69.3852165,39.167262 C69.3852165,38.0609689 68.4589006,37.1319521 67.3538455,37.1319521 C66.2492372,37.1319521 65.3264961,38.0609689 65.3264961,39.167262 Z M69.8119564,36.8792774 C69.8119564,38.0995658 70.7798292,39.0586523 71.9831909,39.0586523 C73.1928084,39.0586523 74.1575533,38.0995658 74.1575533,36.8792774 C74.1575533,35.6643747 73.1928084,34.7016978 71.9831909,34.7016978 C70.7798292,34.7016978 69.8119564,35.6643747 69.8119564,36.8792774 Z M69.9969515,32.2288074 C69.9969515,32.9832409 70.5948341,33.5909167 71.3401766,33.5909167 C72.0882002,33.5909167 72.6963603,32.9832409 72.6963603,32.2288074 C72.6963603,31.4770667 72.0882002,30.8698397 71.3401766,30.8698397 C70.5948341,30.8698397 69.9969515,31.4770667 69.9969515,32.2288074 Z M76.436925,28.7945865 C76.436925,29.5458785 77.0419572,30.1598374 77.7935556,30.1598374 C78.5415791,30.1598374 79.1528672,29.5458785 79.1528672,28.7945865 C79.1528672,28.0459874 78.5415791,27.4324773 77.7935556,27.4324773 C77.0419572,27.4324773 76.436925,28.0459874 76.436925,28.7945865 Z M73.7629865,33.1973187 C73.7629865,34.4508183 74.7974396,35.4870985 76.0490609,35.4870985 C77.2966606,35.4870985 78.3284326,34.4508183 78.3284326,33.1973187 C78.3284326,31.9474095 77.2966606,30.9079878 76.0490609,30.9079878 C74.7974396,30.9079878 73.7629865,31.9474095 73.7629865,33.1973187 Z M70.095258,41.5719347 C70.095258,42.3555402 70.7418471,42.9964272 71.515341,42.9964272 C72.3013467,42.9964272 72.9448078,42.3555402 72.9448078,41.5719347 C72.9448078,40.7851875 72.3013467,40.1362221 71.515341,40.1362221 C70.7418471,40.1362221 70.095258,40.7851875 70.095258,41.5719347 Z M74.7625855,38.7036512 C74.7625855,39.4953351 75.4055998,40.1362221 76.1889243,40.1362221 C76.9718021,40.1362221 77.6085605,39.4953351 77.6085605,38.7036512 C77.6085605,37.916904 76.9718021,37.2710802 76.1889243,37.2710802 C75.4055998,37.2710802 74.7625855,37.916904 74.7625855,38.7036512 Z M73.4479586,43.752656 C73.4479586,45.108482 74.549439,46.2210583 75.9051759,46.2210583 C77.2555505,46.2210583 78.3632868,45.108482 78.3632868,43.752656 C78.3632868,42.3905467 77.2555505,41.2824584 75.9051759,41.2824584 C74.549439,41.2824584 73.4479586,42.3905467 73.4479586,43.752656 Z M78.5733053,40.7084427 C78.5733053,41.6423963 79.3280316,42.3905467 80.2516665,42.3905467 C81.1712797,42.3905467 81.922878,41.6423963 81.922878,40.7084427 C81.922878,39.781221 81.1712797,39.0299291 80.2516665,39.0299291 C79.3280316,39.0299291 78.5733053,39.781221 78.5733053,40.7084427 Z M78.468296,36.1997936 C78.468296,37.0282792 79.1528672,37.7046214 79.9616621,37.7046214 C80.7767129,37.7046214 81.4581561,37.0282792 81.4581561,36.1997936 C81.4581561,35.3798352 80.7767129,34.7016978 79.9616621,34.7016978 C79.1528672,34.7016978 78.468296,35.3798352 78.468296,36.1997936 Z" id="Fill-10"></path>
            <path d="M82.0980424,83.1371374 C81.1712797,83.8565644 79.0031731,85.4652447 75.4055998,85.4652447 C73.4796849,85.4652447 72.6230772,84.8542478 72.3402224,84.8542478 C71.9831909,84.8542478 71.5886241,85.21257 71.1967384,85.6761809 C70.3499614,86.6801474 69.2453531,88.5444644 69.2453531,90.5779791 C69.2453531,92.0136917 70.3499614,93.4368379 72.4099307,93.4368379 C79.080031,93.4368379 84.0588115,89.2576083 84.0588115,85.8552523 C84.0588115,83.9270261 82.9189022,83.1371374 82.0980424,83.1371374 Z M80.2516665,82.7471298 C80.5345212,82.4944551 80.6046764,82.1008572 80.6046764,81.707708 L80.6046764,80.8859544 C80.6046764,79.8465326 79.0380273,79.2393057 76.8989658,79.2393057 C74.2978636,79.2393057 72.9099536,80.4223436 72.9099536,80.9214096 L72.9099536,82.5649168 C72.9099536,83.2457471 74.4792839,83.9270261 76.4020708,83.9270261 C77.9365469,83.9270261 79.3280316,83.5302865 80.2516665,82.7471298 Z M79.9616621,86.2901399 C80.1368265,86.2901399 80.3526541,86.3924664 80.3526541,87.0414318 C80.3526541,87.8250373 79.9965162,88.8676007 78.7198715,89.6826223 C77.8252818,90.2934397 76.6156642,90.7987889 74.8327406,90.8275122 C75.1160423,89.9703034 75.3323167,89.0753953 75.3323167,88.2181865 C75.3323167,87.9305054 75.2974626,87.7164276 75.2621616,87.3995745 L75.7273304,87.3995745 C78.5415791,87.3995745 79.7547715,86.2901399 79.9616621,86.2901399 Z" id="Fill-11"></path>
            <path d="M66.3542465,42.5727596 C66.7461322,45.6102409 70.8146833,44.0757923 70.8146833,47.7541606 C70.8146833,48.2900283 70.671692,49.0794682 70.671692,49.7576057 C70.671692,50.550636 70.7418471,51.2283246 71.3401766,51.2283246 C71.9452088,51.2283246 72.0882002,50.800169 72.0882002,50.2274997 C72.0882002,49.6521376 71.9452088,48.9389937 71.9452088,48.5458445 C71.9452088,47.2905497 72.8362237,47.0046638 73.3746756,47.0046638 C74.7246034,47.0046638 75.7621845,48.4017796 77.7935556,48.4017796 C77.3283868,50.6929057 72.6230772,50.0789468 72.6230772,52.5859459 C72.6230772,53.8376503 73.8711237,54.1253314 74.6893024,54.1253314 C75.4440287,54.1253314 75.6920294,54.0167217 75.6920294,53.3758347 C75.6920294,53.0172431 75.6223211,52.6258892 75.6223211,52.3669313 C75.6223211,52.2291496 75.7273304,52.0819431 75.9051759,52.0819431 C76.6858193,52.0819431 80.5282654,55.0193418 80.5282654,55.9129035 C80.5282654,56.7333107 76.472226,57.5595523 75.2974626,57.5595523 C74.9377499,57.5595523 74.8675948,57.3068776 74.8675948,57.1695447 C74.8675948,56.9168701 75.472627,56.1637829 75.472627,55.7338321 C75.472627,55.4142862 74.9377499,55.1997596 73.514539,55.1997596 C72.8362237,55.1997596 72.3402224,55.2715677 72.3402224,55.8074354 C72.3402224,56.7763955 73.9095526,57.9544966 73.9095526,58.8449167 C73.9095526,59.5612022 73.4796849,59.9960898 72.3402224,59.9960898 C71.3719028,59.9960898 69.9169657,59.2385147 69.9169657,57.9895031 C69.9169657,56.9855365 70.9487377,55.9865068 70.9487377,55.378831 C70.9487377,55.1997596 70.8146833,54.9152202 70.3816876,54.9152202 C69.0670608,54.9152202 68.7073481,58.4181075 64.0368927,58.8099102 C64.7880442,58.1322216 65.4315053,57.3791345 65.4315053,55.8424418 C65.4315053,55.0911499 65.2527661,54.4803325 65.2527661,53.6617206 C65.2527661,52.5859459 65.7496611,52.0469366 66.4592558,52.0469366 C67.7805853,52.0469366 68.4204717,53.908112 69.2802073,53.908112 C69.7449292,53.908112 70.2418242,53.4826492 70.2418242,52.8368254 C70.2418242,50.1157484 65.0396196,50.5120392 65.0396196,46.6846691 C65.0396196,45.6439009 65.3962043,44.3603317 66.3542465,42.5727596 Z M83.3456421,53.0526984 C83.3456421,53.94626 83.6325185,54.9825402 84.5235334,54.9825402 C85.2720039,54.9825402 85.9118902,53.8376503 85.9118902,52.5859459 C85.9118902,51.1583118 85.6638896,50.0421451 85.6638896,49.4748614 C85.6638896,49.2235331 85.7715799,49.1162698 85.9118902,49.1162698 C86.4498952,49.1530715 86.9494713,50.6224441 87.5223304,50.6224441 C88.1626636,50.6224441 89.1148967,49.4376109 89.5058888,49.4376109 C89.6144728,49.4376109 89.6466459,49.5785343 89.6466459,49.6166823 C89.6466459,50.1507548 88.8311483,51.3337927 88.8311483,51.7974036 C88.8311483,52.1910016 90.8973735,52.2610144 90.8973735,52.6258892 C90.8973735,53.1613081 88.7292669,53.1613081 87.6943669,53.6267141 C86.6983427,54.0553185 86.0897357,54.5920838 86.0897357,55.3088181 C86.0897357,56.0215132 86.8064799,56.1637829 87.802951,56.1637829 C90.187332,56.1637829 91.8558624,54.8784185 92.3938674,54.8784185 C92.5020047,54.8784185 92.5654571,54.9506754 92.5654571,55.0543483 C92.5654571,55.4142862 91.3589675,56.5905921 91.3589675,57.1345383 C91.3589675,57.7404188 93.571312,58.4454843 93.5302019,58.8099102 C93.4984757,58.9153783 93.3554844,58.95218 93.10659,58.95218 C92.715598,58.95218 92.1105658,58.8449167 91.6422691,58.8449167 C91.3589675,58.8449167 91.1109668,58.8835135 91.0023827,59.0239881 C90.7543821,59.3085275 91.0761127,61.2082997 90.5760897,61.2082997 C90.1113678,61.2082997 88.9008566,56.9855365 86.1634656,56.9855365 C85.7715799,56.9855365 85.4851504,57.3068776 85.4851504,57.8472333 C85.4851504,59.2717259 86.8766351,60.9219651 88.1979646,61.706917 C88.7958473,62.0969246 89.7927652,62.4968058 89.7927652,62.7108836 C89.7927652,63.1376928 87.5223304,62.74589 87.5223304,63.4590339 C87.5223304,64.1084481 87.802951,65.0774082 87.802951,65.6428967 C87.802951,65.8224169 87.7680968,66.0364947 87.5513756,66.0364947 C87.1282105,66.0364947 86.0897357,64.0729928 85.5932876,64.0729928 C85.1669946,64.0729928 84.2402318,65.2497476 83.845665,65.2497476 C83.7375278,65.2497476 83.6673727,65.1442795 83.6673727,65.0370162 C83.6673727,64.2103258 84.9882554,62.3558824 84.9882554,60.5270207 C84.9882554,59.6698119 84.8801182,57.8122269 83.845665,57.8122269 C82.9926322,57.8122269 82.0278873,59.1662578 81.6011474,60.5270207 C81.3527,61.3137678 81.5309923,64.3593275 80.9612611,64.3593275 C80.4232561,64.3593275 80.5635664,62.3190808 79.853078,62.3190808 C79.3280316,62.3190808 78.1849944,63.2866945 77.7935556,63.2866945 C77.7234004,63.2866945 77.6532453,63.2449561 77.6532453,63.1744944 C77.6532453,62.74589 78.6814425,61.3505695 78.6814425,61.0642348 C78.6814425,60.5270207 76.3319157,60.456559 76.3319157,60.0279546 C76.3319157,59.7725872 77.2555505,59.599799 78.1152861,59.4512461 C79.926808,59.1330466 82.5976185,57.8122269 82.5976185,55.9497051 C82.5976185,53.8726568 80.6046764,52.9808903 79.2900495,52.1205399 C78.6112874,51.6919355 77.8663918,51.3337927 77.8663918,51.0492533 C77.8663918,50.7647138 78.7198715,50.7647138 79.080031,50.7647138 C79.6108864,50.7647138 80.1368265,50.7265658 80.1368265,50.2948198 C80.1368265,49.9716835 80.0666714,49.3290012 80.0666714,48.830384 C80.0666714,48.4753828 80.1046535,48.1877018 80.2516665,48.1877018 C80.7767129,48.1877018 81.5309923,49.936677 81.8844491,49.936677 C82.4510524,49.936677 83.2437607,48.5103893 83.7723819,48.5103893 C83.9506743,48.5103893 84.0235105,48.618999 84.0235105,48.9389937 C84.0235105,50.2593645 83.3456421,51.7623972 83.3456421,53.0526984 Z" id="Fill-12"></path>
            <path d="M67.3927213,62.9604166 C69.0322066,63.1744944 69.4200707,63.7503053 69.4200707,64.2103258 C69.4200707,65.0002145 68.7073481,65.2497476 68.0290328,65.2497476 C67.5325847,65.2497476 66.9659814,65.1442795 66.3542465,65.1442795 C65.5713688,65.1442795 64.7880442,65.3215556 64.1450299,66.0746427 C64.6128798,66.1419628 65.2876203,66.4646503 65.2876203,67.1845262 C65.2876203,69.2597794 59.5514324,67.5426689 59.5514324,72.8694812 C59.5514324,75.6964751 62.4702436,78.7725532 66.8891235,78.7725532 C69.175198,78.7725532 70.6368378,78.0239541 70.6368378,77.1609109 C70.6368378,76.4827734 69.4200707,76.9463843 69.4200707,76.3773053 C69.4200707,76.1277723 69.8472574,75.6610199 69.8472574,75.2647291 C69.8472574,75.0919409 69.7069471,74.7688046 69.4200707,74.7688046 C68.7833123,74.7688046 67.5678857,75.8050848 65.1097748,75.8050848 C63.1869878,75.8050848 61.2990549,74.6987917 61.2990549,73.1957591 C61.2990549,72.8694812 61.4420463,72.6904098 61.6525117,72.6904098 C61.8687862,72.6904098 62.1552157,72.8376164 62.4067912,72.8376164 C62.6136818,72.8376164 62.6516639,72.6904098 62.6516639,72.2972607 C62.6516639,71.9072531 62.6516639,70.7910864 63.3299791,70.7910864 C64.0051665,70.7910864 65.2876203,73.3043688 70.210098,73.3043688 C71.8433274,73.3043688 75.011033,72.9816813 76.1889243,71.9072531 C76.1540702,75.833808 73.0877992,81.0268777 66.675977,81.0268777 C60.0161543,81.0268777 56.4534351,75.6610199 56.4534351,70.7210736 C56.4534351,65.2497476 60.9040413,60.2792828 66.9977076,60.2792828 C68.560782,60.2792828 69.8852395,60.8129066 69.8852395,61.4923904 C69.8852395,62.4263441 67.5678857,61.8541235 67.3927213,62.9604166 Z M78.3284326,64.85974 C78.5733053,65.2497476 78.6814425,65.6428967 78.6814425,65.9996931 C78.6814425,67.0054548 78.0067021,67.9326765 78.0067021,68.9653663 C78.0067021,70.1551362 78.8950359,71.1173643 80.2516665,71.1173643 C81.7092847,71.1173643 82.7057557,69.9406096 82.7057557,68.5403523 C82.7057557,66.6473121 80.9934342,65.0370162 78.3284326,64.85974 Z M66.5329857,67.1459294 C66.8891235,67.5040721 66.9977076,67.8590732 66.9977076,68.2234992 C66.9977076,68.7575717 66.7461322,69.3297922 66.7461322,69.9406096 C66.7461322,70.7910864 67.3927213,71.5428271 68.3154624,71.5428271 C69.3150614,71.5428271 69.9969515,70.75608 69.9969515,69.8288583 C69.9969515,68.466749 68.5992109,67.1459294 66.5329857,67.1459294 Z M71.2668935,61.0642348 C75.011033,61.7773787 77.0419572,64.6070654 77.0419572,67.2545391 C77.0419572,69.080708 75.9051759,70.75608 73.9095526,70.75608 C72.0882002,70.75608 70.7798292,69.5088636 70.7798292,67.5040721 C70.7798292,65.9996931 71.9452088,64.4311356 71.9452088,62.8836717 C71.9452088,62.2822791 71.7695975,61.6683202 71.2668935,61.0642348 Z M73.1199722,65.8224169 C73.1199722,66.3273174 73.4796849,66.7177738 73.9828357,66.7177738 C74.549439,66.7177738 74.9024489,66.2137709 74.9024489,65.6428967 C74.9024489,64.8947464 74.2277084,63.8526318 73.5878221,63.8526318 C73.2978177,63.8526318 73.402827,64.2825826 73.3331187,64.7479887 C73.2978177,65.1074778 73.1199722,65.5360822 73.1199722,65.8224169 Z" id="Fill-13"></path>
            <path d="M33.8014583,29.011806 C35.0142038,29.011806 36.3989858,22.4265573 36.3989858,21.3153274 C36.3989858,21.0321344 36.2939765,20.8131198 36.0459758,20.8131198 C34.9444955,20.8131198 33.4100194,27.0774761 33.4100194,28.4745918 C33.4100194,28.7241249 33.4797277,29.011806 33.8014583,29.011806 Z M42.5279531,30.9784494 C43.4162869,30.9784494 44.4158859,27.545575 44.4158859,25.3971673 C44.4158859,24.9299661 44.3452839,24.433144 44.1325843,24.433144 C43.3809859,24.433144 42.1329394,27.9759746 42.1329394,29.9008796 C42.1329394,30.6553131 42.3148066,30.9784494 42.5279531,30.9784494 Z M36.7207163,27.7982496 C37.11573,27.7982496 37.615306,27.3714404 38.5389409,26.3306722 C38.609096,25.865715 38.609096,25.4353154 38.609096,24.8931644 C38.609096,24.1818158 38.3253475,23.3937222 37.8986077,23.3937222 C36.8257256,23.3937222 36.2939765,26.2570689 36.2939765,27.0070144 C36.2939765,27.4324773 36.5075698,27.7982496 36.7207163,27.7982496 Z M41.6043182,26.3306722 C41.6043182,25.72165 41.455071,25.5793803 41.3152076,25.5793803 C40.958176,25.5793803 40.5667372,26.0061895 39.999687,26.9684176 C40.0698422,28.260514 40.2834355,28.8327346 40.6395734,28.8327346 C41.0314591,28.8327346 41.6043182,27.5760934 41.6043182,26.3306722 Z M44.3452839,22.1052162 C46.6924872,22.1052162 47.7622413,24.1481557 47.7622413,26.4347939 C47.7622413,27.4324773 47.4784928,28.9031962 47.0137709,28.9031962 C46.55173,28.9031962 46.62546,28.0827891 46.55173,27.3265604 C46.4855965,26.3643322 46.3037294,26.1498056 45.9788709,26.1498056 C45.3769666,26.1498056 44.9859746,27.5760934 44.9859746,28.9031962 C44.9859746,29.7280914 45.125838,30.6553131 45.7657244,30.6553131 C46.122756,30.6553131 46.4467208,30.4793833 46.6603141,30.2621639 C46.5204507,31.9088127 45.3041304,33.3400373 43.5914513,33.3400373 C40.4617279,33.3400373 39.2869645,29.659425 38.9272518,27.5074269 C37.039319,29.5090768 35.2979523,30.9784494 32.1583981,30.9784494 C29.2391401,30.9784494 27.9213853,28.8327346 27.9213853,26.7911414 C27.9213853,26.1821193 28.1376597,24.608625 28.8825554,24.608625 C29.7740172,24.608625 28.9942674,27.545575 30.738762,27.545575 C31.1655019,27.545575 31.9483796,27.1842906 32.3719915,26.0061895 C32.6231201,25.2867624 32.7701331,24.5386121 32.7701331,23.8954811 C32.7701331,22.9283162 32.5560929,22.319294 31.8402424,22.319294 C31.235657,22.319294 30.4871866,22.7829048 30.2356112,23.0337843 C31.0922188,20.4581186 33.1615719,19.1408894 35.4409436,19.1408894 C38.2520645,19.1408894 39.7454305,21.6429518 39.7454305,24.433144 C39.7454305,24.8231516 39.7168322,25.256244 39.6435492,25.6480468 C40.8531667,23.6477433 42.5279531,22.1052162 44.3452839,22.1052162 Z" id="Fill-14"></path>
            <path d="M37.6854612,31.7265997 C36.1509851,31.7265997 36.08083,33.5909167 36.08083,37.3478251 C34.9444955,34.8776275 33.0561158,32.2288074 30.8468992,32.2288074 C29.3472773,32.2288074 28.780674,33.2359156 28.780674,34.9786076 C28.780674,35.3430336 28.8155282,35.8784525 28.8825554,36.1997936 C29.0639757,35.593913 29.6341537,35.3430336 30.3437484,35.3430336 C31.8782244,35.3430336 33.7313031,36.5197883 34.9444955,38.1314306 C33.5498828,37.8850392 32.1968271,37.6323645 31.0604926,37.6323645 C30.3437484,37.6323645 29.703862,37.7046214 29.1721129,37.9555008 C28.1376597,38.4177653 26.746175,39.9571507 26.746175,42.2832834 C26.746175,42.6400797 26.784604,43.0395121 26.8547591,43.4663213 C28.0965497,40.6702946 31.4135025,39.4181414 33.5498828,39.4181414 C33.9766227,39.4181414 34.2983533,39.4553919 34.543226,39.4953351 C33.4480015,40.4943649 33.1968729,42.2482769 33.1267178,43.426378 C33.0918636,43.9990474 32.8751424,44.0371954 32.4801287,44.0371954 C32.4801287,45.2152965 33.4100194,46.9692086 33.4100194,47.8596287 C33.4100194,48.1877018 33.234855,48.4753828 33.0561158,48.5458445 C33.0561158,50.1157484 34.619637,51.2637799 34.619637,52.2610144 C34.619637,52.5136891 34.543226,52.7282157 34.4382167,52.8368254 C34.543226,53.4826492 36.2720809,54.5633606 36.4946112,55.1073067 C36.771657,55.765697 37.077301,55.8778971 37.2524655,55.8778971 C37.8637535,55.8778971 38.8191146,55.1647532 38.8191146,54.5171342 C38.8191146,54.3030564 38.6403754,54.0553185 38.500512,53.94626 C37.8253246,53.4476428 37.4687399,52.3669313 37.1823103,51.6551339 C36.9307349,51.6551339 36.6125791,51.5546026 36.5008671,51.1327302 C36.3038071,50.3890679 36.2939765,49.0094553 36.0079938,48.1877018 C35.5490808,48.0786433 35.3359343,47.9027135 35.3359343,46.9342022 C35.3359343,46.4705913 35.619236,44.6448712 35.619236,43.9990474 C35.4060895,43.9990474 35.1192131,43.8549824 35.1192131,43.426378 C35.1192131,42.2832834 36.2559944,41.3834385 36.577725,39.9221443 C38.609096,41.4278697 39.1019694,42.9627672 39.1019694,44.3217349 C39.1019694,45.0362252 39.000088,45.7206458 38.8570967,46.3615328 C40.3535907,45.6102409 42.5976614,44.5008063 42.5976614,42.2482769 C42.5976614,40.9229693 41.9899481,39.4553919 37.9687628,38.8813761 C39.2136814,38.4177653 40.7803305,38.1695786 42.1012132,38.1695786 C44.377457,38.1695786 45.6960161,38.8813761 45.9788709,40.4943649 C46.4467208,39.781221 46.8037523,38.9563258 46.8037523,38.2032387 C46.8037523,36.4493266 45.3389845,35.3080271 43.4864421,35.3080271 C41.3152076,35.3080271 39.3919737,36.4493266 37.3288765,37.8468911 C38.2520645,35.9157029 38.8919508,34.7721594 40.034988,34.7721594 C40.2132804,34.7721594 40.3915727,34.8089611 40.5667372,34.8457627 C40.1399973,33.2677804 38.5389409,31.7265997 37.6854612,31.7265997 Z" id="Fill-15"></path>
            <path d="M97.7010813,57.5182626 C99.48043,57.5182626 100.903641,59.8506784 100.903641,62.5672674 C100.903641,65.4638254 99.5505852,68.6135068 97.1371591,70.75608 C97.0960491,65.9341682 91.2159761,67.4690657 91.2159761,63.9661783 C91.2159761,62.4613505 92.2857302,61.4591792 93.571312,61.4591792 C94.7080933,61.4591792 95.602683,61.7773787 96.2425694,62.4263441 C95.602683,61.8204635 95.2778245,60.9556251 95.2778245,60.1307299 C95.2778245,58.7731086 96.1375601,57.5182626 97.7010813,57.5182626 Z" id="Fill-16"></path>
            <path d="M65.8930993,23.5341967 C66.8256711,24.433144 67.637594,24.8231516 68.634065,24.8231516 C69.0322066,24.8231516 69.4933538,24.7208251 69.7449292,24.7208251 C70.059957,24.7208251 70.2798063,24.8599532 70.2798063,25.107691 C70.2798063,25.5075722 69.9169657,26.1498056 69.4933538,26.506602 C69.9169657,26.6856733 70.3816876,26.7543398 70.8848385,26.7543398 C72.9099536,26.7543398 75.2210516,25.4658338 75.2210516,22.2488323 C75.6540473,22.8197065 75.9051759,24.0045396 75.9051759,24.5386121 C75.9051759,28.4395854 73.0498171,29.9376812 70.4232445,29.9376812 C68.7073481,29.9376812 67.8507405,29.3730903 67.637594,29.3730903 C66.9659814,29.3730903 66.9977076,30.7257748 66.5329857,30.6939099 C65.7143601,30.5516402 64.9694645,28.7241249 64.9694645,26.7911414 C64.9694645,25.6480468 65.2527661,24.433144 65.8930993,23.5341967 Z M71.2668935,20.9284615 C70.9835919,20.4581186 69.9169657,20.2090344 69.4200707,20.2090344 C67.8507405,20.2090344 66.7872422,21.3153274 66.5678398,22.319294 C66.4244016,21.9642929 66.3193923,21.5294052 66.3193923,21.1043912 C66.3193923,19.5308969 67.3927213,17.6028503 69.9969515,17.6028503 C72.2696204,17.6028503 73.1579543,18.8146115 73.4796849,18.8146115 C73.8393975,18.8146115 74.1959822,18.4551223 74.4792839,18.4551223 C74.8675948,18.4551223 74.8675948,19.0672861 74.8675948,19.4958905 C74.8675948,20.9284615 74.2277084,23.3937222 72.6230772,24.2890791 C72.3402224,23.6814033 71.7695975,22.9969826 70.8499843,22.5719686 C70.5948341,22.4665005 70.4929528,22.2488323 70.4929528,22.0347545 C70.4929528,21.6429518 70.8499843,21.1411929 71.2668935,20.9284615 Z" id="Fill-17"></path>
            <path d="M41.1364684,13.1260661 C41.1364684,14.3795657 45.5910068,20.4953691 46.4467208,20.4953691 C47.1572091,20.4953691 47.6920862,19.2432159 47.6920862,18.1705829 C47.6920862,17.8873898 47.6183562,17.6028503 47.4784928,17.3856309 C46.8386065,16.4902741 42.3148066,12.9088467 41.3152076,12.9088467 C41.2066235,12.9088467 41.1364684,13.020598 41.1364684,13.1260661 Z M14.9605588,9.43961936 C14.9605588,10.1590464 12.2477445,12.5538455 11.2897024,12.5538455 C10.9362456,12.5538455 10.8249804,12.1288315 10.8249804,11.7320919 C10.8249804,11.0126649 11.1529669,10.0149815 11.5350219,9.69543561 C11.9997438,9.26054799 13.069498,9.04916299 13.8872298,9.04916299 C14.3841248,9.04916299 14.9605588,9.1582215 14.9605588,9.43961936 Z M47.4784928,11.5112821 C47.4784928,9.3722993 41.6968158,5.46818439 41.6333634,3.789222 C41.6333634,3.63259065 41.7129023,3.48224251 41.840254,3.34805118 C42.8335971,2.29920458 46.9436157,1.53489746 46.9436157,0.636399004 C46.9436157,0.172788164 46.0870081,0.172788164 45.6607151,0.172788164 C42.3496607,0.172788164 37.5071688,1.39442292 37.5071688,2.56758724 C37.5071688,3.789222 41.8500846,6.76297362 41.8500846,8.22740941 C41.8500846,8.61786578 41.6043182,8.76013552 41.2066235,8.76013552 C39.999687,8.76013552 37.3606027,7.29569973 36.116131,7.29569973 C35.5490808,7.29569973 35.3359343,7.6901953 35.3359343,8.26106945 C35.3359343,9.97997508 37.3606027,13.2382662 37.3606027,14.2004943 C37.3606027,14.3028208 37.3288765,14.4500273 37.1823103,14.4500273 C36.542424,14.4500273 33.5177098,10.8703951 32.4484025,10.8703951 C32.0533889,10.8703951 32.0185347,11.412546 32.0185347,12.197498 L32.0185347,13.4110543 C32.0185347,14.2372959 31.9832337,14.7377084 31.5922417,14.7377084 C30.6686069,14.7377084 30.2356112,12.1288315 29.3472773,12.1288315 C28.4240893,12.1288315 28.2395411,16.7779551 27.3512072,16.7779551 C26.319882,16.7779551 27.210897,11.6553471 26.211298,11.6553471 C25.1133924,11.6553471 23.8586432,15.0577031 23.0753186,15.0577031 C22.7924638,15.0577031 22.7223087,14.7731636 22.7223087,14.5236306 C22.7223087,13.4828624 23.3268941,11.8056952 23.3268941,10.7999335 C23.3268941,10.3026626 23.1839027,10.0149815 22.7571628,10.0149815 C21.6525546,10.0149815 19.2328726,11.8056952 18.3096846,11.8056952 C18.1631185,11.8056952 17.9848261,11.7320919 17.9848261,11.5848854 C17.9848261,10.7281254 21.8657011,8.01153641 21.8657011,6.79483845 C21.8657011,5.61539093 16.5236331,6.40483088 16.5236331,5.04137519 C16.5236331,3.8964853 20.3379277,2.71344738 20.3379277,1.53489746 C20.3379277,0.500861276 15.8135916,0.0323136307 14.065969,0.0323136307 C11.9648897,0.0323136307 10.8249804,0.280051466 10.8249804,0.889073644 C10.8249804,1.82302733 15.6004451,2.1075668 15.6004451,2.92617878 C15.6004451,3.71876033 10.6529439,5.82946874 10.6529439,7.04751309 C10.6529439,8.11879971 17.6318162,7.11483316 17.6318162,8.22740941 C17.6318162,9.43961936 11.5350219,14.6995604 11.5350219,16.4503308 C11.5350219,16.8484168 11.8245794,17.0274882 12.2195931,17.0274882 C14.065969,17.0274882 18.8731599,13.4828624 20.1940427,13.4828624 C20.6560835,13.4828624 20.6909376,14.0600198 20.6909376,14.5523538 C20.6909376,15.4876539 20.3759098,16.9184297 20.3759098,17.9560563 C20.3759098,18.7778098 20.5828004,19.3518256 21.2959699,19.3518256 C22.6172994,19.3518256 23.8237891,17.0992962 24.7183788,17.0992962 C25.858288,17.0992962 25.1804196,23.7200001 26.8896133,23.7200001 C28.3476783,23.7200001 28.9589664,16.5620821 29.8790264,16.5620821 C30.8084703,16.5620821 31.5564939,18.6341937 32.4131015,18.6341937 C33.4797277,18.6341937 32.9828327,15.0222479 34.122742,15.0222479 C35.3681074,15.0222479 38.9272518,19.3168191 40.5314362,19.3168191 C41.0314591,19.3168191 41.2066235,18.9250164 41.2066235,18.4183207 C41.2066235,16.5234853 38.573795,12.2342996 38.573795,10.8703951 C38.573795,10.5135988 38.6788043,10.4130675 39.0702432,10.4130675 C40.4617279,10.4130675 44.5240231,12.3397677 46.4467208,12.3397677 C47.0866071,12.3397677 47.4784928,11.9847666 47.4784928,11.5112821 Z M43.7755527,4.43190421 C43.7755527,5.07952322 46.016853,6.47215095 47.051753,6.47215095 C47.6536572,6.47215095 47.8319496,5.65039737 47.8319496,4.78870055 C47.8319496,3.71876033 47.3703556,3.6806123 46.4467208,3.6806123 C45.2688294,3.6806123 43.7755527,4.0037486 43.7755527,4.43190421 Z M35.4060895,0.786747147 C35.4060895,0.572669344 34.3332074,0.350513133 32.8751424,0.350513133 C30.5568949,0.350513133 30.8817534,2.28663817 29.0992767,2.28663817 C27.246198,2.28663817 27.707792,0.280051466 25.3582651,0.280051466 C23.9350542,0.280051466 22.6172994,0.530930904 22.6172994,0.860350417 C22.6172994,1.28581322 24.288511,1.10808825 24.288511,2.28663817 C24.288511,3.54013776 20.6909376,3.8964853 20.6909376,4.64463561 C20.6909376,4.89551505 20.9746861,5.00771516 21.3339519,5.00771516 C22.1172765,5.00771516 23.3621951,4.64463561 24.2567848,4.64463561 C24.7536798,4.64463561 25.2184017,4.75189891 25.2184017,5.22179296 C25.2184017,6.11400821 23.2920399,7.72744574 23.2920399,8.44193602 C23.2920399,8.65915542 23.4672043,8.72647549 23.6450498,8.72647549 C24.3617941,8.72647549 25.5714116,6.90389696 26.7148957,6.90389696 C28.6023817,6.90389696 27.3512072,10.9453448 28.3861072,10.9453448 C29.4558614,10.9453448 28.9942674,6.97076822 30.5189128,6.97076822 C31.7700872,6.97076822 32.69685,9.72415883 33.5498828,9.72415883 C33.7630294,9.72415883 33.9417686,9.54822907 33.9417686,9.29869603 C33.9417686,8.54560892 32.8751424,7.00622345 32.8751424,6.0067449 C32.8751424,5.40086433 33.3050101,5.10690005 33.8716134,5.10690005 C34.6893453,5.10690005 35.7979752,5.61539093 36.3989858,5.61539093 C36.6125791,5.61539093 36.8257256,5.54492927 36.8257256,5.29225463 C36.8257256,4.43190421 33.6580201,3.50333613 33.6580201,2.39524787 C33.6580201,1.28581322 35.4060895,1.28581322 35.4060895,0.786747147 Z" id="Fill-18"></path>
            <path d="M98.5541141,6.57761905 C98.5541141,9.75916527 96.2425694,12.197498 92.0690089,12.8769818 C92.5337309,12.9088467 92.9635987,12.9088467 93.3903385,12.9088467 C98.2609818,12.9088467 100.050161,10.6962606 100.050161,8.83194359 C100.050161,7.794317 99.48043,6.86530012 98.5541141,6.57761905 Z M92.5337309,10.1940529 C92.5337309,7.65518887 86.4847494,7.00622345 86.4847494,6.43534931 C86.4847494,5.97173847 89.8656014,5.18678653 91.6069681,5.14504809 C88.9361575,1.71755923 85.1321404,2.07076517 85.1321404,1.46488459 C85.1321404,1.10808825 87.9812433,0.388661169 90.6140718,0.388661169 C92.8206073,0.388661169 94.8899604,0.889073644 94.8899604,2.56758724 C94.8899604,3.50333613 94.14149,4.47050105 94.14149,5.8999304 C94.14149,6.69296076 94.5329289,7.3706494 95.561573,7.3706494 C96.6693092,7.3706494 96.9208846,6.18446987 96.9208846,4.93097028 C96.9208846,3.8964853 96.7394644,3.11153335 96.7394644,2.60618407 C96.7394644,1.10808825 97.7676616,0.102775298 99.2355573,0.102775298 C100.442047,0.102775298 100.725349,0.636399004 102.508272,0.636399004 C101.549783,1.21535155 101.196773,2.25432454 101.196773,2.75339061 C101.196773,4.25283284 102.151687,5.29225463 102.151687,8.36833275 C102.151687,14.0182813 96.8824557,16.0230728 90.4357795,16.0230728 C88.6591118,16.0230728 86.7716258,15.8794567 84.9185471,15.5949172 C84.6289896,15.5630524 84.5619624,15.4876539 84.5619624,15.3085825 C84.5619624,14.8467669 87.0897816,14.5940923 87.0897816,12.3061077 C87.0897816,11.412546 86.8064799,10.5521956 86.8064799,10.2290593 C86.8064799,10.0468463 86.9494713,9.94451984 87.0897816,9.94451984 C87.6246586,9.94451984 88.6975407,12.019773 90.684227,12.019773 C91.2159761,12.019773 92.5337309,11.8407016 92.5337309,10.1940529 Z M98.3409676,2.28663817 C98.3409676,2.78705065 98.7292785,3.18199502 99.2355573,3.18199502 C99.7324523,3.18199502 100.120316,2.78705065 100.120316,2.28663817 C100.120316,1.78443049 99.7324523,1.39442292 99.2355573,1.39442292 C98.7292785,1.39442292 98.3409676,1.78443049 98.3409676,2.28663817 Z" id="Fill-19"></path>
            <path d="M95.1728152,35.3430336 C95.1728152,34.5948833 93.2853292,34.5244216 93.10659,32.4110204 C93.0717359,32.0878841 92.9635987,31.5156635 92.5654571,31.5156635 C91.9286987,31.5156635 92.4255937,33.4818582 91.7119774,33.4818582 C90.0791948,33.4818582 89.5416366,30.2621639 88.9361575,30.2621639 C88.7958473,30.2621639 88.6278324,30.3707736 88.6278324,30.799378 C88.6278324,31.1925272 88.6975407,31.4402651 88.6975407,31.9088127 C88.6975407,32.3724235 88.5858287,32.6955598 88.1626636,32.6955598 C87.1983656,32.6955598 86.3448859,30.4443769 85.5200045,30.4443769 C85.3448401,30.4443769 85.1669946,30.5516402 85.1669946,30.7257748 C85.1669946,31.1557256 85.8765892,31.9474095 85.8765892,32.3405587 C85.8765892,33.1973187 83.5587886,32.7323615 83.5587886,33.453135 C83.5587886,33.7663977 83.8805192,33.8785978 84.3103869,33.8785978 C85.0584105,33.8785978 86.2336208,33.5523199 86.8413341,33.5523199 C87.1983656,33.5523199 87.7363706,33.6259231 87.7363706,34.0881876 C87.7363706,34.5948833 86.4498952,35.2375655 86.4498952,35.7011763 C86.4498952,35.9157029 86.6666165,36.0207222 86.8413341,36.0207222 C87.802951,36.0207222 89.5058888,34.3408622 90.7190811,34.3408622 C90.9322276,34.3408622 91.4639767,34.4508183 91.4639767,34.7721594 C91.4639767,35.2375655 90.2574871,36.0579726 90.2574871,36.7388029 C90.2574871,36.9129375 90.3624964,37.1319521 90.5760897,37.1319521 C91.2159761,37.1319521 92.0690089,35.4516433 93.2853292,35.4516433 C93.7433484,35.4516433 94.4247917,35.627573 94.7818232,35.627573 C95.064678,35.627573 95.1728152,35.4516433 95.1728152,35.3430336 Z M96.1027059,52.6945556 C96.6693092,50.9020467 97.3824786,49.6521376 98.5541141,47.7205005 C97.3824786,47.1132735 94.2849282,45.8243187 94.2849282,43.7109175 C94.2849282,41.2456568 97.3440497,39.3158149 97.9839361,39.3158149 C98.2609818,39.3158149 98.3409676,39.5590648 98.3409676,40.030754 C98.3409676,41.3179136 97.7328075,43.3945132 97.7328075,44.5008063 C97.7328075,45.5016312 98.3726938,46.4705913 98.942425,46.4705913 C99.5505852,46.4705913 101.221797,44.3217349 101.221797,42.2114753 C101.221797,38.4177653 97.9079719,37.2710802 96.8824557,37.2710802 C95.9244136,37.2710802 94.1799189,38.8539993 90.0791948,38.8539993 C82.4229009,38.8539993 80.6775126,31.2279825 80.6775126,27.9055129 C80.6775126,27.7601016 80.7065577,27.7215047 80.7476677,27.7215047 C80.923279,27.7215047 81.6713026,28.6536632 84.0936657,28.6536632 C85.3448401,28.6536632 86.4847494,28.3341173 88.3029739,28.3341173 C92.5654571,28.3341173 94.4632206,31.2979953 97.0960491,35.0935005 C98.6944244,36.0929791 102.508272,37.7046214 102.508272,42.2482769 C102.508272,46.2578599 98.2609818,48.4753828 97.2359125,52.7663637 C98.8727168,52.5859459 99.8370148,49.6521376 101.511801,49.6521376 C102.365281,49.6521376 102.756273,50.3361094 102.756273,51.407396 C102.756273,52.9808903 101.868386,55.3438246 100.159192,56.8051187 C100.194046,56.6641954 100.194046,56.485124 100.194046,56.2710462 C100.194046,55.2715677 99.7990327,53.8376503 98.6595703,53.8376503 C96.8824557,53.8376503 96.3162993,55.7706338 95.3131255,57.3791345 C94.2849282,53.7321822 92.8934435,50.4352943 90.4004785,48.4336444 C87.8762341,46.4001297 83.5275092,47.5032811 83.5275092,43.7845208 C83.5275092,42.7836958 84.1642676,41.3560617 84.1642676,40.2098254 C84.1642676,39.8130858 84.0936657,39.4553919 83.8805192,39.167262 C87.3033749,40.4575632 86.0897357,42.7486894 88.1979646,45.108482 C89.5058888,46.6142075 93.141891,48.0467784 95.2496731,54.2307995 C95.2778245,54.0553185 95.3131255,53.5881173 95.3131255,53.2685714 C95.3131255,47.9686872 88.340956,42.7836958 87.7363706,40.6348394 C91.7857073,41.1020406 92.5020047,42.1060072 94.4247917,47.4696211 C94.8166774,48.5777093 96.1027059,51.3337927 96.1027059,52.6945556 Z" id="Fill-20"></path>
            <path d="M76.6156642,14.8467669 C74.1195712,14.8467669 72.4832138,13.5896769 72.4832138,12.9501363 C72.4832138,12.6274488 72.6963603,12.4102294 72.9796619,12.4102294 C73.7629865,12.4102294 75.472627,13.6251321 76.0490609,13.6251321 C76.1889243,13.6251321 76.2970616,13.5627489 76.2970616,13.3387975 C76.2970616,12.6979105 75.6920294,11.6266238 75.6920294,11.0844729 C75.6920294,10.9453448 75.7970386,10.8398767 76.010632,10.8398767 C76.9718021,10.8398767 78.3981409,11.2366163 79.1528672,11.2366163 C79.3981868,11.2366163 79.467895,11.0844729 79.467895,10.9453448 C79.467895,10.1590464 77.1505413,8.61786578 77.1505413,8.15380614 C77.1505413,7.72744574 80.0318172,7.07982672 80.0318172,6.40483088 C80.0318172,5.6854038 76.1187692,6.18446987 76.1187692,5.50633243 C76.1187692,5.00771516 76.8636648,4.14736474 76.8636648,3.75421557 C76.8636648,3.5751442 76.7238014,3.50333613 76.472226,3.50333613 C76.1540702,3.50333613 74.4408549,4.18102477 73.7308134,4.18102477 C73.3746756,4.18102477 72.9448078,4.1092167 72.9448078,3.61015063 C72.9448078,2.78705065 74.3358456,1.8930402 76.5106549,1.8930402 C80.0318172,1.8930402 82.1328966,4.33137291 82.1328966,8.40333918 C82.1328966,13.5627489 78.5415791,14.8467669 76.6156642,14.8467669 Z M69.668965,8.04833804 C69.668965,7.65518887 68.2774803,6.90389696 68.2774803,6.47215095 C68.2774803,6.40483088 68.3476355,6.36668285 68.4589006,6.36668285 C68.8503395,6.36668285 69.5282079,6.51029898 70.059957,6.51029898 C70.5318285,6.51029898 70.5948341,4.50864908 70.9487377,4.50864908 C71.1967384,4.50864908 71.6234782,6.40483088 72.0216198,6.40483088 C72.4832138,6.40483088 73.3331187,5.86447517 73.6959593,5.86447517 C73.7629865,5.86447517 73.8393975,5.8999304 73.8393975,5.97173847 C73.8393975,6.22127151 72.9448078,7.19157803 72.9448078,7.4761175 C72.9448078,7.794317 74.9377499,8.18926138 74.9377499,8.47380085 C74.9377499,8.83194359 72.9099536,8.79693715 72.9099536,9.11962466 C72.9099536,9.3722993 73.6548493,10.3731243 73.6548493,10.6962606 C73.6548493,10.7662734 73.6195483,10.7999335 73.5467121,10.7999335 C73.2629636,10.7999335 72.1646112,10.3026626 71.8433274,10.3026626 C71.4451859,10.3026626 70.8146833,11.7639568 70.4929528,11.7639568 C70.3816876,11.7639568 70.3182352,11.6266238 70.3182352,11.4444109 L70.2418242,10.0149815 C70.2418242,9.87450698 70.174797,9.72415883 69.9969515,9.72415883 C69.5635089,9.72415883 68.7453302,9.69543561 68.4906268,9.69543561 C68.3154624,9.69543561 68.2426262,9.65683877 68.2426262,9.5850307 C68.2426262,9.29869603 69.668965,8.29787108 69.668965,8.04833804 Z M68.634065,13.9096716 C69.207371,13.9096716 69.3150614,15.3085825 69.4200707,16.1289897 C69.4933538,16.5620821 69.5635089,16.600679 69.7449292,16.600679 C70.174797,16.600679 70.8499843,14.952235 71.3017477,14.952235 C71.9831909,14.952235 73.8009686,16.8484168 76.8288107,16.8484168 C81.1332976,16.8484168 85.2018487,13.8042035 85.2018487,8.44193602 C85.2018487,3.25200789 81.5662933,0.214526604 76.5455091,0.214526604 C74.1575533,0.214526604 72.4099307,1.39442292 71.4836148,1.39442292 C70.9196926,1.42942936 70.059957,0 69.6341109,0 C69.4584996,0 69.2802073,0.350513133 69.2802073,0.965818517 C69.2802073,1.35762129 69.2802073,2.60618407 68.8503395,2.60618407 C67.9937318,2.60618407 64.6830349,0.145860139 64.6830349,1.03628018 C64.6830349,1.85623856 66.8891235,4.35830094 66.8891235,5.00771516 C66.8891235,5.65039737 64.7147611,6.25807314 64.7147611,6.69296076 C64.7147611,7.4761175 67.0330086,7.62018244 67.0330086,8.61786578 C67.0330086,9.62003714 64.6128798,10.4130675 64.6128798,11.1567298 C64.6128798,11.7639568 67.0330086,11.3420844 67.0330086,12.0920299 C67.0330086,12.8401802 65.2527661,15.3453842 65.2527661,16.0634649 C65.2527661,16.2344578 65.2876203,16.2344578 65.4315053,16.2344578 C66.1062458,16.2344578 68.1376169,13.9096716 68.634065,13.9096716 Z" id="Fill-21"></path>
            <path d="M52.4988302,76.7323065 C52.4988302,77.061726 52.3938209,77.4198687 52.1078382,77.7748699 C51.7159525,77.061726 50.6082163,76.6973 50.1113213,76.6973 C46.4467208,76.6973 47.8319496,82.0308443 43.9194378,82.0308443 C42.2795056,82.0308443 42.1329394,81.8100345 41.5283541,81.8100345 C41.2799066,81.8100345 41.1364684,81.9253762 41.1364684,82.1363124 C41.1364684,83.0666757 42.4577979,85.3561862 46.122756,85.3561862 C49.7927187,85.3561862 53.3237116,83.1052725 53.3237116,80.3105923 C53.3237116,79.8465326 53.2155744,79.351057 52.9988531,78.8461565 C53.1391634,78.6316299 53.5024508,78.4875649 53.8170318,78.4875649 C54.3872099,78.4875649 54.7120684,79.1369792 55.2469455,79.1369792 C55.8166767,79.1369792 56.2434165,78.7020915 56.2434165,78.129871 C56.2434165,77.6694018 55.9913943,77.3462655 55.568676,77.1259044 C55.8515308,76.9113778 56.0646773,76.5563767 56.0646773,76.1600859 C56.0646773,75.5555518 55.6383843,74.9864728 54.9252149,74.9864728 C54.6003564,74.9864728 54.3872099,75.0919409 54.1392093,75.3351907 C54.07531,74.6987917 53.7151505,74.0879744 53.0372821,74.0879744 C52.4988302,74.0879744 52.1078382,74.4779819 52.1078382,75.0919409 C52.1078382,75.6610199 52.4988302,76.1277723 52.4988302,76.7323065 Z" id="Fill-22"></path>
            <path d="M32.9828327,70.0846746 C35.8328293,70.7910864 37.2524655,72.3358575 37.5424698,74.158436 C37.8253246,75.9074113 38.1823562,77.3462655 38.8570967,78.0594093 C39.7454305,79.0602343 41.4930531,79.9493079 43.0275292,79.9493079 C44.3073019,79.9493079 45.3389845,79.5269867 45.3389845,78.3439488 C45.3389845,77.061726 43.5914513,74.158436 41.0314591,74.158436 C40.7803305,74.158436 40.4617279,74.1965841 40.1046963,74.1965841 C39.7834126,74.1965841 39.3186907,74.1229808 39.035389,73.8734478 C38.465211,73.3748305 38.2873655,70.6887599 37.2207393,69.080708 C36.0459758,67.2899943 34.7626284,66.7877866 33.0150058,66.7877866 C31.7700872,66.7877866 30.3817305,67.4690657 30.3817305,68.466749 C30.3817305,69.080708 30.7007799,69.5088636 32.9828327,70.0846746 Z M42.9193919,78.0975574 C41.8500846,78.0975574 40.2485814,76.9463843 40.2485814,76.3068437 C40.2485814,75.766488 40.7450295,75.4788069 41.1364684,75.4788069 C42.0310581,75.4788069 43.6294334,76.5913831 43.6294334,77.5221952 C43.6294334,77.7748699 43.4511411,78.0975574 42.9193919,78.0975574 Z" id="Fill-23"></path>
            <path d="M39.6435492,50.2274997 C39.6435492,47.9350271 45.0561298,46.7196756 45.0561298,43.8967209 C45.0561298,43.426378 44.8805185,42.6046245 44.5561962,41.9973975 C46.4467208,43.0395121 47.8319496,44.7884873 47.8319496,46.2210583 C47.8319496,48.686319 45.2688294,49.8294137 45.2688294,51.369248 C45.2688294,53.1613081 48.010242,53.4476428 48.010242,55.6633705 C48.010242,57.4890906 45.4091397,59.599799 45.4091397,61.9577964 C45.4091397,63.7839654 46.6924872,65.2852028 48.6532562,65.5360822 C48.010242,65.678352 47.4436387,65.7901033 46.8386065,65.7901033 C43.2375477,65.7901033 39.5349651,62.8194933 39.5349651,59.2717259 C39.5349651,57.5182626 40.2834355,55.9865068 41.4202169,54.8784185 C42.4229438,55.7338321 43.4162869,56.3060527 44.0561733,56.3060527 C44.6290324,56.3060527 44.8805185,56.0215132 44.8805185,55.5929088 C44.8805185,54.2662547 39.6435492,53.0526984 39.6435492,50.2274997 Z M51.005911,68.2876777 C49.7837817,68.853615 49.2967174,68.7575717 49.2967174,70.0142129 C49.2967174,70.4778237 49.1881333,71.0823579 49.1881333,71.4050454 C49.1881333,71.8336498 49.2578416,72.0831829 49.7578645,72.0831829 C51.0380841,72.0831829 53.0694551,69.9024616 53.0694551,68.0412862 C53.0694551,67.5426689 52.7857066,67.3250007 52.4639761,67.3250007 C52.1806744,67.3250007 51.8589439,67.9008117 51.005911,68.2876777 Z M50.8660476,65.7133584 C50.8660476,64.1084481 47.551329,64.0729928 47.551329,61.6395969 C47.551329,61.0274332 47.9400868,59.9960898 48.7229645,58.8835135 C49.047823,60.7410985 49.7927187,61.706917 51.4009247,62.3190808 C54.5650554,63.4958355 54.9949232,65.2852028 54.9949232,67.1845262 C54.9949232,70.4010789 52.7508525,74.4075203 46.9815978,74.4075203 C42.3496607,74.4075203 39.035389,70.2574627 39.035389,66.7559218 C39.035389,65.7901033 39.2869645,64.7093919 39.8884219,64.7093919 C40.4232989,64.7093919 40.6047192,65.1442795 41.0314591,65.5760255 C42.6329624,67.1845262 44.377457,67.6131306 46.9114427,67.6131306 C49.1881333,67.6131306 50.8660476,66.6854601 50.8660476,65.7133584 Z" id="Fill-24"></path>
            <path d="M25.6353109,66.4902319 C25.7242336,67.2419727 25.1924845,67.9102365 24.4507168,68.0031382 C23.7058212,68.0861663 23.0342086,67.5489521 22.9515417,66.8039434 C22.8590442,66.0557931 23.3939213,65.3776557 24.135689,65.291486 C24.8805846,65.2084579 25.5521972,65.7420816 25.6353109,66.4902319 Z M18.9781692,67.9008117 C19.1314381,69.118856 20.2641978,70.0460777 21.5506732,69.9024616 C22.0091393,69.8575815 22.4385602,69.7233902 22.7223087,69.5443188 C23.0051635,70.6887599 23.9640993,71.4274854 25.2563838,71.2546973 C26.5710106,71.0854995 27.4597913,70.0460777 27.3159063,68.7257069 C27.2810521,68.3644225 27.210897,68.1436127 27.1027598,67.9008117 C27.1027598,67.9008117 27.2810521,67.8783717 27.4088506,67.85279 C28.6944324,67.6131306 29.5639986,66.5737088 29.4558614,65.3215556 C29.3124232,64.0361912 28.1631301,63.0802463 26.9628963,63.222516 C26.5013023,63.2866945 26.0745625,63.4590339 25.7814302,63.7117085 C25.4632744,62.6404219 24.4605475,61.706917 23.0914052,61.93401 C21.8464866,62.1418046 21.0318827,63.1987296 21.1556596,64.5366037 C21.174874,64.7511303 21.2226868,65.0002145 21.3339519,65.2497476 C21.3339519,65.2497476 21.1239334,65.2784708 20.980942,65.3009108 C19.9393393,65.4561958 18.8123886,66.5063888 18.9781692,67.9008117 Z" id="Fill-25"></path>
        </g>
    </g>
</svg>