<svg xmlns="http://www.w3.org/2000/svg" width="156" height="164" viewBox="0 0 156 164">
  <g fill="none" fill-rule="evenodd">
    <path fill="#69B482" d="M124.983277,107 L104,164 L131.275812,164 C132.43633,164 133.376588,163.412724 133.376588,162.689324 L154,108.895254 C154,108.443237 144.327759,107.811486 124.983277,107 Z"/>
    <polygon fill="#89CE9E" points="24.026 164 104.974 164 126 108 3 108"/>
    <rect width="54" height="37" x="39" y="112" fill="#69B482"/>
    <polygon fill="#08492C" points="130 98 156 99.649 156 109.612 130 108"/>
    <rect width="130" height="10" y="98" fill="#0D744E"/>
    <path fill="#89CE9E" d="M64.3081211 137.042418L59.7548823 137.042418C58.9483085 137.042418 58.5320124 136.541537 58.4019199 136.326874 58.2718273 136.11221 57.9856238 135.539775 58.4019199 134.895785L59.7548823 132.725302C59.8329378 132.582193 60.0410859 132.53449 60.1971969 132.606044L60.8996966 132.963816C61.1598817 133.083074 61.4460853 132.892262 61.3680298 132.629896L60.353308 129.219135C60.301271 129.052175 60.1191414 128.980621 59.9630304 129.004472L56.2423837 129.934679C55.9561802 130.006234 55.9301617 130.340154 56.1643282 130.483263L56.8668279 130.841035C57.022939 130.91259 57.074976 131.103402 56.9969205 131.24651L55.6439581 133.416994C54.7853473 134.800379 54.7853473 136.422279 55.6439581 137.805665 56.5025688 139.18905 58.0636793 140 59.7809008 140L64.3861767 140C65.2968244 140 66.0253427 139.308307 65.9993241 138.449654 65.9212686 137.638704 65.1927504 137.042418 64.3081211 137.042418M76.4382362 132.544481L74.5220746 128.796945C74.1342801 128.032141 73.2674451 127.777207 72.6059131 128.210595 71.9215697 128.643984 71.6934552 129.612735 72.0812498 130.352045L74.0202228 134.099581C74.385206 134.787904 74.1342801 135.399747 74.0202228 135.629188 73.9061656 135.858629 73.5411824 136.393992 72.8340276 136.393992L70.2563341 136.393992C70.0966539 136.393992 69.9825967 136.241031 69.9825967 136.08807L69.9825967 135.297773C69.9825967 135.017346 69.6860479 134.864385 69.5035563 135.068332L67.0855429 137.796131C66.9714857 137.923598 66.9714857 138.127546 67.0855429 138.22952L69.4807449 140.906332C69.6632364 141.110279 69.9597852 140.957319 69.9597852 140.676891L69.9597852 139.886594C69.9597852 139.70814 70.0966539 139.580672 70.2335226 139.580672L72.7884047 139.580672C74.2939602 139.580672 75.662647 138.713895 76.4154248 137.235275 77.1910139 135.782149 77.1910139 134.023101 76.4382362 132.544481M67.7734649 123.596924L68.794779 125.79245C68.8515186 125.93259 68.8136922 126.096086 68.7191261 126.189513L68.208469 126.563219C68.0193368 126.703359 68.0571633 127.030352 68.2652087 127.100422L70.9887129 127.987975C71.1211054 128.034688 71.2345848 127.941262 71.2724112 127.777765L71.9911137 124.391051C72.0478534 124.134127 71.8208947 123.947274 71.6506757 124.064058L71.1400186 124.437764C71.0265393 124.507834 70.8941467 124.461121 70.8184938 124.344337L69.7971798 122.148812C69.1730434 120.817483 68.03825 120 66.7899773 120 65.5417046 120 64.4069112 120.794126 63.7827748 122.148812L62.1562376 125.65231C61.8347128 126.353009 62.023845 127.217206 62.5912417 127.614269 62.780374 127.754409 62.9695062 127.801122 63.1775517 127.801122 63.5747293 127.801122 63.971907 127.544199 64.1988657 127.077066L65.8254029 123.573568C66.1280145 122.942938 66.6197583 122.872868 66.8088905 122.872868 66.9980227 122.872868 67.4897666 122.966295 67.7734649 123.596924"/>
  </g>
</svg>
