<svg xmlns="http://www.w3.org/2000/svg" xmlns:xlink="http://www.w3.org/1999/xlink" width="1200" height="600" viewBox="0 0 1200 600">
    <defs>
        <path id="prefix__a" d="M0 443.12L668.303 443.12 668.303 0 0 0z"/>
    </defs>
    <g fill="none" fill-rule="evenodd" transform="translate(265.52 110.64)">
        <path fill="#0D633E" d="M0 420.06c0 11.828 139.645 21.415 311.903 21.415 172.26 0 311.905-9.587 311.905-21.415s-139.645-21.415-311.905-21.415C139.645 398.645 0 408.232 0 420.06"/>
        <path fill="#0D633E" d="M401.206 429.762c0 7.377 59.792 13.358 133.547 13.358 73.758 0 133.55-5.981 133.55-13.358 0-7.376-59.792-13.357-133.55-13.357-73.755 0-133.547 5.981-133.547 13.357"/>
        <path fill="#08492C" d="M563.15 420.827c-3.391 0-6.345-2.308-7.164-5.598l-8.08-32.483c-1.16-4.657 2.363-9.164 7.162-9.164h8.081c4.077 0 7.38 3.305 7.38 7.382v32.483c0 4.075-3.303 7.38-7.38 7.38"/>
        <path fill="#69B482" d="M418.73 420.827c-3.391 0-6.345-2.308-7.164-5.598l-8.08-32.483c-1.16-4.657 2.363-9.164 7.162-9.164h8.081c4.077 0 7.38 3.305 7.38 7.382v32.483c0 4.075-3.303 7.38-7.38 7.38"/>
        <path fill="#0D633E" d="M426.24 399.413L426.24 373.067 400.699 373.067 407.201 396.775z"/>
        <path fill="#69B482" d="M40.892 194.435h240.401c2.18 0 3.947-1.766 3.947-3.947V36.513c0-2.179-1.766-3.947-3.947-3.947H40.892c-2.18 0-3.947 1.768-3.947 3.947v153.975c0 2.18 1.766 3.947 3.947 3.947"/>
        <path fill="#89CE9E" d="M51.782 180.701h99.908c2.18 0 3.947-1.766 3.947-3.946V50.246c0-2.178-1.766-3.946-3.947-3.946H51.782c-2.18 0-3.946 1.768-3.946 3.946v126.509c0 2.18 1.766 3.946 3.946 3.946M166.749 180.701h99.908c2.18 0 3.946-1.766 3.946-3.946V50.246c0-2.178-1.766-3.946-3.946-3.946h-99.908c-2.18 0-3.947 1.768-3.947 3.946v126.509c0 2.18 1.766 3.946 3.947 3.946"/>
        <mask id="prefix__b" fill="#fff">
            <use xlink:href="#prefix__a"/>
        </mask>
        <path fill="#69B482" d="M47.836 66.274L270.605 66.274 270.605 50.069 47.836 50.069zM47.836 87.322L270.605 87.322 270.605 71.117 47.836 71.117zM47.836 108.372L270.605 108.372 270.605 92.167 47.836 92.167zM47.836 129.421L270.605 129.421 270.605 113.216 47.836 113.216zM47.836 150.469L270.605 150.469 270.605 134.264 47.836 134.264z" mask="url(#prefix__b)"/>
        <path stroke="#0D633E" stroke-linecap="round" stroke-width="3" d="M220.092 79.255c0-42.318-34.673-76.295-76.993-76.295-42.318 0-76.992 34.636-76.992 76.956V392.8" mask="url(#prefix__b)"/>
        <path fill="#08492C" d="M37.493 410.617L95.505 410.617 95.505 402.724 37.493 402.724z" mask="url(#prefix__b)"/>
        <path fill="#0D633E" d="M37.493 402.724c0 2 12.987 3.621 29.006 3.621 16.02 0 29.006-1.622 29.006-3.62 0-2-12.986-11.898-29.006-11.898s-29.006 9.898-29.006 11.897" mask="url(#prefix__b)"/>
        <path fill="#08492C" d="M37.493 410.618c0 1.999 12.987 3.62 29.006 3.62 16.02 0 29.006-1.621 29.006-3.62 0-2-12.986-3.622-29.006-3.622s-29.006 1.623-29.006 3.622" mask="url(#prefix__b)"/>
        <path fill="#89CE9E" d="M44.476 297.294h218.018c2.326 0 4.21-1.885 4.21-4.211 0-2.327-1.884-4.211-4.21-4.211H44.476c-2.327 0-4.211 1.884-4.211 4.21 0 2.327 1.884 4.212 4.211 4.212" mask="url(#prefix__b)"/>
        <path fill="#69B482" d="M132.928 297.295L266.706 297.295 266.706 288.872 132.928 288.872z" mask="url(#prefix__b)"/>
        <path fill="#89CE9E" d="M71.387 414.63c1.501 0 2.796-1.06 3.094-2.532l24.007-111.023c.395-1.956-1.099-3.781-3.092-3.781h-4.002c-1.541 0-2.857 1.113-3.112 2.632L68.275 410.95c-.324 1.926 1.16 3.68 3.112 3.68" mask="url(#prefix__b)"/>
        <path fill="#69B482" d="M95.395 298.08h-4.001c-1.542 0-3.071.72-3.327 2.24L76.96 360.364v38.28l21.314-97.176c.394-1.955-.886-3.388-2.88-3.388" mask="url(#prefix__b)"/>
        <path fill="#08492C" d="M85.89 345.537h57.433c1.346 0 2.437-1.091 2.437-2.437v-.328c0-1.346-1.091-2.437-2.437-2.437H85.89c-1.346 0-2.437 1.091-2.437 2.437v.328c0 1.346 1.091 2.437 2.437 2.437" mask="url(#prefix__b)"/>
        <path fill="#08492C" d="M134.505 345.537h69c1.346 0 2.437-1.091 2.437-2.437v-.328c0-1.346-1.091-2.437-2.437-2.437h-69c-1.346 0-2.437 1.091-2.437 2.437v.328c0 1.346 1.091 2.437 2.437 2.437" mask="url(#prefix__b)"/>
        <path fill="#89CE9E" d="M143.706 414.63c1.73 0 3.15-1.371 3.209-3.102l4.108-114.234h-10.528v114.125c0 1.775 1.439 3.211 3.211 3.211" mask="url(#prefix__b)"/>
        <path fill="#69B482" d="M140.107 363.3L145.76 390.826 147.682 390.826 151.015 298.079 140.107 298.079zM211.98 414.635c2.946 0 5.514-2.007 6.224-4.864l7.021-28.227c1.007-4.045-2.054-7.962-6.224-7.962h-7.02c-3.543 0-6.414 2.873-6.414 6.413v28.226c0 3.543 2.871 6.414 6.413 6.414" mask="url(#prefix__b)"/>
        <path fill="#0D633E" d="M205.227 392.8L205.227 373.067 228.84 373.067 223.533 392.8z" mask="url(#prefix__b)"/>
        <path fill="#08492C" d="M349.674 414.635c2.946 0 5.514-2.007 6.224-4.864l7.021-28.227c1.007-4.045-2.054-7.962-6.224-7.962h-7.02c-3.543 0-6.414 2.873-6.414 6.413v28.226c0 3.543 2.871 6.414 6.413 6.414M426.11 382.356L403.389 382.356 401.206 373.583 426.11 373.583zM205.567 382.356L226.115 382.356 228.298 373.583 205.567 373.583z" mask="url(#prefix__b)"/>
        <path fill="#0D633E" d="M447.636 95.716h107.69c2.181 0 3.947-1.766 3.947-3.947V24.676c0-2.18-1.766-3.947-3.946-3.947H447.636c-2.18 0-3.947 1.767-3.947 3.947V91.77c0 2.181 1.766 3.947 3.947 3.947" mask="url(#prefix__b)"/>
        <path fill="#69B482" d="M447.636 91.767h107.69c2.181 0 3.947-1.766 3.947-3.947V20.727c0-2.18-1.766-3.947-3.946-3.947H447.636c-2.18 0-3.947 1.767-3.947 3.947V87.82c0 2.181 1.766 3.947 3.947 3.947" mask="url(#prefix__b)"/>
        <path fill="#89CE9E" d="M454.122 85.565h94.72c2.18 0 3.946-1.766 3.946-3.947V26.93c0-2.18-1.766-3.947-3.946-3.947h-94.72c-2.18 0-3.947 1.767-3.947 3.947v54.69c0 2.18 1.766 3.946 3.947 3.946" mask="url(#prefix__b)"/>
        <path fill="#69B482" d="M461.941 79.253L530.394 79.253 540.267 64.66 461.941 64.66zM465.148 53.709L487.407 53.709 487.407 34.966 480.36 34.966z" mask="url(#prefix__b)"/>
        <path fill="#89CE9E" d="M471.808 53.709L494.067 53.709 494.067 34.966 487.02 34.966z" mask="url(#prefix__b)"/>
        <path fill="#69B482" d="M469.835 62.095L502.053 62.095 502.053 34.966 491.853 34.966zM529.25 45.091h2.736c4.03 0 7.296-3.266 7.296-7.295 0-4.03-3.266-7.298-7.296-7.298h-2.737c-4.03 0-7.295 3.268-7.295 7.298s3.266 7.295 7.295 7.295M507.147 31.68L507.147 61.28 528.853 61.28z" mask="url(#prefix__b)"/>
        <path fill="#0D633E" d="M621.686 55.214s8.612 51.533-37.17 59.091c8.756-4.466-13.268-46.413 37.17-59.091" mask="url(#prefix__b)"/>
        <path fill="#0D633E" d="M648.74 107.411s-14.174 69.752-76.097 57.042c13.316-1.411 5.754-65.511 76.098-57.042M529.584 76.93s56.575 9.56 47.985 59.792c-1.491-10.694-52.934-2.891-47.985-59.792" mask="url(#prefix__b)"/>
        <path fill="#0D633E" d="M575.837 61.01s31.107 25.067 8.79 52.65c2.734-7.001-31.166-19.777-8.79-52.65M622.629 172.81s-52.274 7.886-45.18 54.297c1.55-9.825 48.81-1.8 45.18-54.296" mask="url(#prefix__b)"/>
        <path fill="#0D633E" d="M538.151 133.724s59.968 6.356 54.22 59.603c-2.262-11.118-55.716.406-54.22-59.603M651.245 214.215s-75.938 8.05-68.658 75.476c2.863-14.08 70.552.514 68.658-75.476" mask="url(#prefix__b)"/>
        <path fill="#0D633E" d="M599.177 207.96H456.854c-10.742 0-20.062 7.413-22.478 17.88l-29.408 127.377c-3.337 14.456 7.642 28.26 22.48 28.26H569.77c10.74 0 20.062-7.414 22.478-17.883l29.406-127.374c3.34-14.457-7.64-28.26-22.478-28.26" mask="url(#prefix__b)"/>
        <path fill="#08492C" d="M575.876 216.115h-35.17c-2.654 0-4.957 1.83-5.555 4.418l-7.268 31.476c-.825 3.574 1.889 6.984 5.555 6.984h35.17c2.657 0 4.96-1.831 5.556-4.418l7.267-31.477c.825-3.572-1.888-6.983-5.555-6.983" mask="url(#prefix__b)"/>
        <path fill="#0D633E" d="M397.309 258.564h-173.32c-7.61 0-14.212 5.25-15.923 12.667l-20.83 90.226c-2.364 10.242 5.412 20.02 15.922 20.02h173.32c7.61 0 14.212-5.253 15.923-12.667l20.83-90.227c2.365-10.241-5.412-20.02-15.922-20.02" mask="url(#prefix__b)"/>
        <path fill="#0D633E" d="M437.301 207.96H336.485c-7.609 0-14.211 5.25-15.922 12.666l-20.83 90.227c-2.367 10.242 5.412 20.02 15.922 20.02h100.816c7.609 0 14.212-5.253 15.922-12.667l20.831-90.229c2.364-10.24-5.413-20.017-15.923-20.017" mask="url(#prefix__b)"/>
        <path fill="#08492C" d="M431.054 216.115h-75.78c-7.767 0-14.599 5.36-16.477 12.925l-22.865 92.082c-2.595 10.452 5.168 20.43 15.893 20.43h75.78c7.767 0 14.599-5.36 16.477-12.926l22.865-92.082c2.597-10.45-5.168-20.43-15.893-20.43" mask="url(#prefix__b)"/>
        <path fill="#69B482" d="M381.95 292.166H534.2c5.872 0 11.733-4.225 13.09-9.436l25.421-97.692c1.356-5.212-2.307-9.437-8.181-9.437H412.28c-5.873 0-11.733 4.225-13.09 9.437l-25.42 97.692c-1.355 5.211 2.305 9.436 8.18 9.436" mask="url(#prefix__b)"/>
        <path fill="#89CE9E" d="M341.1 292.166h152.248c5.872 0 11.733-4.225 13.09-9.436l25.421-97.692c1.356-5.212-2.307-9.437-8.181-9.437H371.43c-5.874 0-11.735 4.225-13.09 9.437L332.92 282.73c-1.356 5.211 2.305 9.436 8.18 9.436" mask="url(#prefix__b)"/>
        <path fill="#0D633E" d="M399.393 303.631L572.993 303.631 572.993 258.994 399.393 258.994z" mask="url(#prefix__b)"/>
        <path fill="#69B482" d="M439.608 258.994H399.39c-4.665 0-8.446 3.78-8.446 8.446v62.07c0 6.126-5.01 11.138-11.137 11.138h-134.23c-6.125 0-11.138-5.012-11.138-11.137V267.44c0-4.665-3.78-8.446-8.446-8.446h-30.008c-5.048 0-9.178 4.13-9.178 9.176v103.278c0 5.515 4.513 10.029 10.028 10.029H441.31c4.128 0 7.475-3.347 7.475-7.477V268.17c0-5.046-4.128-9.176-9.176-9.176" mask="url(#prefix__b)"/>
        <path fill="#89CE9E" d="M245.099 336.14h134.354c3.021 0 5.472-2.452 5.472-5.473V303c0-3.023-2.45-5.474-5.472-5.474H245.1c-3.023 0-5.472 2.45-5.472 5.474v27.668c0 3.021 2.449 5.472 5.472 5.472" mask="url(#prefix__b)"/>
        <path fill="#69B482" d="M453.65 230.366c-.947 4.099 1.61 7.424 5.71 7.424s8.19-3.325 9.136-7.424c.947-4.099-1.61-7.424-5.709-7.424-4.098 0-8.19 3.325-9.136 7.424M396.46 230.366c-.947 4.099 1.61 7.424 5.71 7.424s8.19-3.325 9.136-7.424c.947-4.099-1.61-7.424-5.71-7.424-4.098 0-8.189 3.325-9.136 7.424" mask="url(#prefix__b)"/>
        <path fill="#FFF" d="M229.893 126.4c0 5.413-4.388 9.801-9.801 9.801s-9.802-4.388-9.802-9.801 4.389-9.802 9.802-9.802c5.413 0 9.801 4.389 9.801 9.802" mask="url(#prefix__b)"/>
        <path fill="#89CE9E" d="M256.72 126.4c1.335-3.947 2.093-8.16 2.093-12.53 0-22.337-18.912-40.286-41.598-38.645-17.042 1.234-31.417 13.936-34.99 30.644-1.554 7.266-.893 14.222 1.24 20.53h73.254z" mask="url(#prefix__b)"/>
        <path fill="#69B482" d="M217.606 75.207c-.13.008-.259.008-.39.018-17.043 1.234-31.418 13.936-34.99 30.644-1.555 7.266-.894 14.222 1.24 20.53h64.316c1.176-3.946 1.845-8.159 1.845-12.53 0-20.582-14.157-37.424-32.021-38.662" mask="url(#prefix__b)"/>
        <path fill="#F2F0B8" d="M492.372 382.128L637.687 382.128 637.687 363.381 492.372 363.381zM492.372 406.307L637.687 406.307 637.687 387.561 492.372 387.561zM492.372 430.487L637.687 430.487 637.687 411.74 492.372 411.74z" mask="url(#prefix__b)"/>
        <path fill="#B2A672" d="M639.66 382.128L656.506 382.128 656.506 363.381 639.66 363.381zM639.66 406.307L656.506 406.307 656.506 387.561 639.66 387.561zM639.66 430.487L656.506 430.487 656.506 411.74 639.66 411.74z" mask="url(#prefix__b)"/>
        <path fill="#DDD09B" d="M637.687 382.128L654.533 382.128 654.533 363.381 637.687 363.381zM637.687 406.307L654.533 406.307 654.533 387.561 637.687 387.561zM637.687 430.487L654.533 430.487 654.533 411.74 637.687 411.74z" mask="url(#prefix__b)"/>
        <path fill="#F2F0B8" d="M488.406 432.462L496.335 432.462 496.335 359.928 488.406 359.928zM633.722 432.462L641.651 432.462 641.651 359.928 633.722 359.928z" mask="url(#prefix__b)"/>
        <path fill="#E6E6E6" d="M463.368 429.697L510.071 429.697 510.071 427.996 463.368 427.996zM465.73 427.996L512.433 427.996 512.433 426.295 465.73 426.295zM464.649 426.295L511.352 426.295 511.352 424.594 464.649 424.594zM463.368 424.594L510.071 424.594 510.071 422.893 463.368 422.893z" mask="url(#prefix__b)"/>
        <path fill="#FFF" d="M463.763 422.893L510.466 422.893 510.466 421.192 463.763 421.192z" mask="url(#prefix__b)"/>
        <path fill="#E6E6E6" d="M465.237 421.192L511.94 421.192 511.94 419.491 465.237 419.491z" mask="url(#prefix__b)"/>
        <path fill="#FFF" d="M461.796 419.6L508.498 419.6 508.498 417.899 461.796 417.899z" mask="url(#prefix__b)"/>
        <path fill="#E6E6E6" d="M463.763 417.899L510.466 417.899 510.466 416.198 463.763 416.198z" mask="url(#prefix__b)"/>
        <path fill="#FFF" d="M464.649 416.198L511.352 416.198 511.352 414.497 464.649 414.497z" mask="url(#prefix__b)"/>
        <path fill="#FFF2E1" d="M507.713 331.627L531.049 430.293 591.09 430.293 568.959 331.627z" mask="url(#prefix__b)"/>
        <path fill="#C6B29E" d="M503.681 333.6L527.486 432.267 588.73 432.267 566.155 333.6z" mask="url(#prefix__b)"/>
        <path fill="#C6B29E" d="M503.681 337.547L527.486 432.267 588.73 432.267 566.155 337.547z" mask="url(#prefix__b)"/>
        <path fill="#E5D8CA" d="M505.353 331.627L528.69 430.293 588.73 430.293 566.599 331.627z" mask="url(#prefix__b)"/>
        <path fill="#EFE1D0" d="M507.713 331.627L531.049 430.293 591.09 430.293 568.959 331.627z" mask="url(#prefix__b)"/>
        <path fill="#FFF2E1" d="M510.073 331.627L533.409 430.293 593.45 430.293 571.319 331.627z" mask="url(#prefix__b)"/>
        <path stroke="#998675" d="M518.987 342.48L552.533 342.48" mask="url(#prefix__b)"/>
        <path stroke="#998675" stroke-width="1.196" d="M520.299 348.541L569.852 348.032" mask="url(#prefix__b)"/>
        <path stroke="#998675" d="M520.96 354.32L564.373 354.32M526.88 358.267L572.267 358.267M526.88 362.213L572.267 362.213" mask="url(#prefix__b)"/>
        <path fill="#2968CE" d="M606.844 333.705l-3.61-4.365c-.29-.369-.733-.586-1.205-.586h-20.38c-.459 0-.895.205-1.185.56l-3.6 4.383c-.224.274-.346.618-.346.973v38.918c0 .847.686 1.533 1.533 1.533h27.587c.847 0 1.533-.686 1.533-1.533v-38.936c0-.343-.116-.677-.327-.947" mask="url(#prefix__b)"/>
        <path fill="#CCC" d="M603.081 377.565h-22.354c-.996 0-1.936-.471-2.533-1.27l-1.735-2.325h30.654l-1.368 2.137c-.582.91-1.586 1.458-2.664 1.458" mask="url(#prefix__b)"/>
        <path fill="#7699DC" d="M601.867 373.272V335.31c0-.343-.533-.674-.744-.945l-4.612-6.705c-.29-.371-.943-1.952-1.413-1.952h3.33c.469 0 .913 1.58 1.205 1.952l5.776 6.022c.503.504.323 1.8.323 2.143l.521 37.342c0 .846-.047 1.241-.894 1.241l-3.796.154c.846 0 .304-.442.304-1.289" mask="url(#prefix__b)"/>
        <path fill="#999" d="M585.266 376.958s-1.636-2.771-1.788-2.923h-5.664l.922 1.39c.635.956 1.709 1.533 2.857 1.533h3.673z" mask="url(#prefix__b)"/>
        <path fill="#FFF" d="M599.483 377.169l2.009-3.282h4.763l-1.429 2.092c-.37.544-.947.913-1.596 1.024l-3.747.166z" mask="url(#prefix__b)"/>
        <path fill="#1755AF" d="M581.968 329.32c.055-.07.14-.11.229-.11h4.752c.246 0 .382.283.229.475l-3.452 4.317c-.043.052-.065.117-.065.182v39.557c0 .162-.13.292-.292.292h-5.26c-.163 0-.295-.13-.295-.292V334.55c0-.302.109-.592.308-.819l3.846-4.41z" mask="url(#prefix__b)"/>
        <path fill="#134B8E" d="M583.677 334.09l3.47-3.95c.317-.36.06-.93-.423-.93h-4.176c-.223 0-.436.096-.584.264l-4.15 4.71s3.096-.095 5.863-.095" mask="url(#prefix__b)"/>
        <path fill="#CCC" d="M583.034 318.359c1.284-.782 2.964-.286 3.619 1.067.201.413.065.912-.318 1.167l-2.682 1.784c-.39.26-.911.189-1.22-.164-1.037-1.192-.751-3.033.6-3.854m2.467 6.165l1.992-1.317c.408-.27.953.042.929.531-.036.718-.444 1.397-1.129 1.749-.533.272-1.138.296-1.671.098-.46-.17-.531-.791-.12-1.061m-3.635-1.705l2.744 3.155c.84.963 2.226 1.231 3.363.65 1.344-.69 1.892-2.327 1.233-3.687l-1.823-3.761c-.858-1.77-3.053-2.418-4.734-1.395-1.766 1.073-2.141 3.479-.783 5.038" mask="url(#prefix__b)"/>
        <path fill="#999" d="M583.034 318.49c1.284-.781 2.964-.286 3.619 1.068.201.412.065.911-.318 1.166l-2.682 1.784c-.39.26-.911.19-1.22-.164-1.037-1.192-.751-3.033.6-3.854m2.467 6.165l1.992-1.316c.408-.27.953.041.929.53-.036.719-.444 1.398-1.129 1.749-.533.272-1.138.296-1.671.098-.46-.17-.531-.79-.12-1.061m-3.635-1.705l2.744 3.155c.84.963 2.226 1.232 3.363.65 1.344-.69 1.892-2.327 1.233-3.685l-1.823-3.763c-.858-1.77-3.053-2.417-4.734-1.395-1.766 1.073-2.141 3.479-.783 5.038" mask="url(#prefix__b)"/>
        <path fill="#666" d="M587.973 326.754c-1.137.582-2.524.313-3.363-.65l-.813-.933 1.476-.201c-.092.286.026.627.348.748.532.197 1.138.173 1.671-.1.454-.232.772-.617.955-1.055l1.224-.166c-.042.967-.577 1.885-1.498 2.357" mask="url(#prefix__b)"/>
        <path fill="#E6E6E6" d="M601.595 328.684h-19.5c-.575 0-1.039-.464-1.039-1.038v-.322c0-.574.464-1.038 1.038-1.038h19.5c.573 0 1.039.464 1.039 1.038v.322c0 .574-.466 1.038-1.038 1.038" mask="url(#prefix__b)"/>
        <path fill="#999" d="M592.026 328.684h-9.932c-.574 0-1.038-.464-1.038-1.038v-.322c0-.574.464-1.038 1.038-1.038h9.932c.572 0 1.038.464 1.038 1.038v.322c0 .574-.466 1.038-1.038 1.038" mask="url(#prefix__b)"/>
        <path fill="#CCC" d="M599.184 328.684H584.09c-.573 0-1.038-.464-1.038-1.038v-.322c0-.574.465-1.038 1.038-1.038h15.094c.572 0 1.038.464 1.038 1.038v.322c0 .574-.466 1.038-1.038 1.038" mask="url(#prefix__b)"/>
        <path fill="#B3B3B3" d="M601.867 325.707v2.172c0 .805-1.139.774-1.595.774l-16.416.031c-.456 0-1.723 0-1.723-.805v-2.172h19.734z" mask="url(#prefix__b)"/>
        <path fill="#397260" d="M553.31 342.178c-1.884 4.75-4.703 10.126-2.136 17.14l23.198 63.404c.257.702.841 1.237 1.567 1.399 1.837.409 6.619.38 15.077-2.374l4.568-1.671c9.13-3.341 12.781-6.295 14.231-8.012.663-.785.83-1.877.474-2.846l-23.082-63.083c-2.567-7.015-8.258-9.231-12.732-11.702 0 0-6.431-2.388-8.706-8.602l-11.227-30.685-12.096 4.426 11.226 30.685c1.326 3.625.892 8.754-.363 11.921" mask="url(#prefix__b)"/>
        <path fill="#205141" d="M607.664 409c.668 1.827-5.826 5.882-14.504 9.059-8.681 3.175-16.259 4.268-16.926 2.441-.669-1.827 5.824-5.883 14.504-9.06 8.679-3.175 16.257-4.268 16.926-2.44" mask="url(#prefix__b)"/>
        <path fill="#397260" d="M602.882 412.153c.555 1.515-3.688 4.461-9.476 6.579-5.788 2.119-10.93 2.606-11.485 1.09-.554-1.517 2.935-6.52 8.723-8.638 5.787-2.118 11.684-.547 12.238.969" mask="url(#prefix__b)"/>
        <path fill="#2C5B4B" d="M565.118 335.568l29.83 81.524c-9.16 6.299-17.007 3.741-17.007 3.741l-24.987-66.264s-.54-12.746 12.164-19.001" mask="url(#prefix__b)"/>
        <path fill="#205141" d="M555.178 341.215c-1.843 4.72-4.628 9.975-2.098 16.89l22.49 61.463c.253.69.742 1.59 1.466 1.748 1.832.395 6.62 1.013 14.97-2.042l3.96-1.448c-8.347 3.052-13.173 2.448-15.005 2.054-.724-.156-1.249-1.044-1.503-1.735l-22.488-61.463c-2.53-6.915-3.635-10.747-1.792-15.467" mask="url(#prefix__b)"/>
        <path fill="#6EBAAD" d="M572.137 335.01c4.454 2.417 7.613 5.497 10.143 12.41l22.618 61.416c.253.692-.61 2.086-1.061 2.674-1.145 1.484-4.316 5.014-12.663 8.069l3.96-1.449c8.347-3.055 11.398-6.541 12.543-8.025.452-.588.035-1.514-.22-2.205l-22.487-61.463c-2.53-6.915-8.578-8.937-13.032-11.355" mask="url(#prefix__b)"/>
        <path stroke="#4E968F" stroke-linecap="round" stroke-width="1.111" d="M570.834 354.377c2.522-.846 5.44-2.005 8.268-3.54M570.407 337.732s4.732 2.676 6.94 8.706" mask="url(#prefix__b)"/>
        <path stroke="#4E968F" stroke-linecap="round" stroke-width="1.679" d="M584.375 366.505L585.23 368.838M587.506 375.061L598.89 406.173" mask="url(#prefix__b)"/>
        <path fill="#4E968F" d="M555.959 303.09l-9.57 3.502c-1.025.375-2.157-.152-2.532-1.176l-1.376-3.755c-.373-1.024.152-2.157 1.176-2.532l9.57-3.503c1.025-.373 2.158.152 2.533 1.176l1.373 3.756c.375 1.024-.15 2.156-1.174 2.531" mask="url(#prefix__b)"/>
        <path fill="#205141" d="M553.595 303.955l-7.207 2.636c-1.024.375-2.157-.15-2.532-1.174l-1.375-3.757c-.373-1.023.152-2.157 1.176-2.53l7.207-2.639c1.024-.373 2.157.152 2.531 1.176l1.374 3.756c.375 1.024-.15 2.157-1.174 2.532" mask="url(#prefix__b)"/>
        <path fill="#397260" d="M553.595 303.955l-2.234.816c-1.024.375-2.157-.151-2.532-1.174l-1.373-3.757c-.375-1.022.15-2.157 1.174-2.53l2.234-.819c1.024-.373 2.157.152 2.531 1.176l1.374 3.756c.375 1.024-.15 2.157-1.174 2.532" mask="url(#prefix__b)"/>
        <path fill="#397260" d="M557.734 304.796l-11.602 4.244c-.461.17-.974-.069-1.144-.53l-.146-.401c-.17-.464.067-.977.53-1.147l11.602-4.244c.464-.17.975.069 1.144.532l.146.401c.17.462-.067.975-.53 1.145" mask="url(#prefix__b)"/>
        <path fill="#4E968F" d="M557.734 304.796l-11.602 4.244c-.461.17-.974-.069-1.144-.53l-.146-.401c-.17-.464.067-.977.53-1.147l11.602-4.244c.464-.17.975.069 1.144.532l.146.401c.17.462-.067.975-.53 1.145" mask="url(#prefix__b)"/>
        <path fill="#205141" d="M552.954 306.545l-6.822 2.496c-.462.17-.975-.07-1.144-.533l-.146-.4c-.17-.462.069-.975.53-1.145l6.822-2.496c.462-.17.975.069 1.145.532l.146.401c.17.462-.067.975-.531 1.145" mask="url(#prefix__b)"/>
        <path fill="#397260" d="M554.908 305.83l-3.923 1.434c-.461.17-.974-.07-1.144-.53l-.146-.401c-.17-.464.069-.977.53-1.145l3.924-1.437c.463-.17.975.07 1.144.533l.146.4c.17.463-.067.976-.53 1.145" mask="url(#prefix__b)"/>
        <path fill="#205141" d="M555.36 308.02L546.695 311.191 545.935 309.113 554.6 305.942zM556.123 303.03l-8.858 3.241-.616-1.683 8.859-3.242c.375-.136.791.057.927.432l.119.324c.138.375-.056.79-.43.927" mask="url(#prefix__b)"/>
        <path fill="#6EBAAD" d="M553.903 306.614l8.057 22.02c.276.756.797 1.395 1.486 1.81 1.405.842 4.055 2.271 7.114 3.131-3.592-1.409-4.847-4.256-5.474-5.973-.63-1.715-8.095-22.119-8.095-22.119l-3.088 1.13z" mask="url(#prefix__b)"/>
        <path fill="#205141" d="M555.497 330.967l-7.89-21.562 3.235-1.184 7.138 21.361s2.101 3.337-2.465 10.796c0 0 1.63-4.906-.018-9.41M557.17 339.318c7.01 2.007 11.744-4.183 11.744-4.183s-8.839-7.32-11.744 4.183" mask="url(#prefix__b)"/>
        <path fill="#89D7F5" d="M619.627 307.168V303.2l-5.92-.723-5.92.723v3.968s-18.623 38.79-18.623 81.187 6.23 42.655 9.478 42.655c3.246 0 4.724-3.506 4.904-4.77.182-1.262 1.658-3.066 3.102 1.264 1.443 4.33 7.897 3.427 7.897 3.427s6.453.902 7.898-3.427c1.442-4.33 3.044-2.526 3.224-1.263.182 1.263 1.975 4.77 5.221 4.77 3.249 0 8.081-.26 8.081-42.656 0-42.397-19.342-81.187-19.342-81.187" mask="url(#prefix__b)"/>
        <path fill="#4DB0C1" d="M619.627 307.168V303.2l-7.274-.723-1.054.166 8.328.557v3.968s17.172 38.79 17.172 81.187c0 33.444-4.35 40.664-7.77 42.223.561.265 1.17.432 1.863.432 3.249 0 8.08-.258 8.08-42.655s-19.345-81.187-19.345-81.187M602.148 427.504c-1.442-4.33-3.09-2.526-3.27-1.263-.142.992-1.298 3.364-3.362 4.337.913.418 1.762.432 2.449.432 2.113 0 3.615-1.486 4.46-2.871-.103-.2-.2-.407-.277-.635M621.317 426.24c-.18-1.262-1.804-3.066-3.248 1.264-.898 2.695-3.752 3.362-5.78 3.482 1.24.073 2.172-.055 2.172-.055s5.794.8 7.651-2.766c-.462-.752-.732-1.478-.795-1.924" mask="url(#prefix__b)"/>
        <g fill="#FFF" mask="url(#prefix__b)">
            <g>
                <path d="M19.733 6.128V2.16l8.253-.723 3.524.166-5.857.557v3.968S6.5 44.918 6.5 87.315c0 33.444 3.359 40.664 6.779 42.223-.56.265-1.666.432-2.359.432-3.248 0-9.304-.258-9.304-42.655S19.733 6.128 19.733 6.128M39.17 126.464c1.442-4.33 3.09-2.526 3.27-1.263.142.992 1.298 3.364 3.362 4.337-.913.418-1.762.432-2.449.432-2.113 0-3.615-1.486-4.46-2.871.103-.2.2-.406.277-.635M20.001 125.2c.18-1.262 1.804-3.066 3.248 1.264.898 2.695 3.752 3.362 5.78 3.483-1.24.073-2.173-.056-2.173-.056s-5.793.8-7.65-2.766c.462-.752.732-1.478.795-1.924" transform="translate(588.053 301.04)"/>
            </g>
        </g>
        <path fill="#009245" d="M609.003 303.606h10.25c.794 0 1.438-.645 1.438-1.44v-8.635c0-.796-.644-1.441-1.439-1.441h-10.25c-.795 0-1.44.645-1.44 1.44v8.636c0 .795.645 1.44 1.44 1.44" mask="url(#prefix__b)"/>
        <path fill="#4DB0C1" d="M609.454 310.727L620.69 310.727 620.69 303.958 609.454 303.958z" mask="url(#prefix__b)"/>
        <path fill="#006837" d="M610.05 300.882L620.692 300.882 620.692 295.692 610.05 295.692z" mask="url(#prefix__b)"/>
        <path fill="#FFF" d="M603.055 304.008L626.149 304.008 626.149 300.882 603.055 300.882z" mask="url(#prefix__b)"/>
        <path fill="#89D7F5" d="M603.055 304.44L626.149 304.44 626.149 301.314 603.055 301.314z" mask="url(#prefix__b)"/>
        <path stroke="#FFF" stroke-linecap="round" stroke-width="1.097" d="M599.362 352.756c-3.023 18.8-4.967 42.188-1.835 64.465M605.816 322.397c-1.415 5.297-3.313 13.062-5.068 22.403M608.012 314.745s-.377 1.176-1 3.335" mask="url(#prefix__b)"/>
        <path fill="#C69C6D" d="M506.002 366.882h137.003v61.741c0 2.179-1.767 3.947-3.947 3.947h-129.11c-2.18 0-3.946-1.768-3.946-3.947v-61.741z" mask="url(#prefix__b)"/>
        <path fill="#DDB287" d="M508.172 366.882h61.712c1.2 0 2.171.97 2.171 2.17V430.4c0 1.198-.97 2.171-2.17 2.171h-59.952c-2.171 0-3.931-1.76-3.931-3.93v-59.588c0-1.2.973-2.17 2.17-2.17" mask="url(#prefix__b)"/>
        <path fill="#A0815F" d="M503.2 403.741L503.2 420.427 565.133 420.427 572.267 389.88 572.267 366.881z" mask="url(#prefix__b)"/>
        <path fill="#DDB287" d="M508.363 366.549L574.417 366.549 563.177 404.058 497.123 404.058z" mask="url(#prefix__b)"/>
        <path fill="#736357" d="M505.265 369.243L571.318 369.243 560.832 402.034 563.176 404.392 497.123 404.392 494.776 402.036z" mask="url(#prefix__b)"/>
        <path fill="#C69C6D" d="M506.002 366.882L572.055 366.882 560.815 402.031 494.762 402.031z" mask="url(#prefix__b)"/>
        <path fill="#A0815F" d="M643.005 367.094L574.418 366.549 572.056 375.042 572.213 390.355 581.529 417.688 643.005 416.946z" mask="url(#prefix__b)"/>
        <path fill="#C69C6D" d="M640.033 366.549L576.346 366.561 573.984 367.32 585.114 404.149 651.163 403.857z" mask="url(#prefix__b)"/>
        <path fill="#736357" d="M589.946 400.657L585.113 404.148 653.034 403.741 653.811 400.86z" mask="url(#prefix__b)"/>
        <path fill="#DDB287" d="M642.395 365.789L576.345 366.561 587.996 401.576 654.045 400.804z" mask="url(#prefix__b)"/>
        <path fill="#0D633E" d="M140.107 301.533L151.023 301.533 151.023 297.295 140.107 297.295zM87.636 301.533L98.552 301.533 98.552 297.295 87.636 297.295z" mask="url(#prefix__b)"/>
        <path fill="#69B482" d="M151.035 288.871L165.055 288.871 169.006 255.324 147.086 255.324z" mask="url(#prefix__b)"/>
        <path fill="#89CE9E" d="M151.035 288.871L165.055 288.871 169.006 255.324 147.086 255.324z" mask="url(#prefix__b)"/>
        <path fill="#69B482" d="M150.228 288.871L161.385 288.871 164.527 255.324 147.086 255.324zM87.338 288.87h51.743c2.18 0 3.946-1.765 3.946-3.946v-11.561c0-2.181-1.766-3.947-3.946-3.947H87.338c-2.18 0-3.947 1.766-3.947 3.947v11.561c0 2.18 1.766 3.947 3.947 3.947" mask="url(#prefix__b)"/>
        <path fill="#89CE9E" d="M83.391 286.189h30.076c2.18 0 3.946-1.766 3.946-3.947v-6.198c0-2.178-1.766-3.947-3.946-3.947H83.39v14.092z" mask="url(#prefix__b)"/>
        <path fill="#89D7F5" d="M132.213 226.687v-2.002l-2.96-.366-2.96.366v2.002s-9.077 19.58-9.077 40.979c0 21.4 3.305 21.53 4.945 21.53 1.638 0 2.465-1.77 2.556-2.407.09-.637.876-1.547 1.604.638.73 2.186 4.008 1.73 4.008 1.73s3.268.456 3.996-1.73c.728-2.185 1.543-1.275 1.634-.638.09.638.998 2.408 2.636 2.408 1.64 0 3.73-.13 3.73-21.531 0-21.4-10.112-40.979-10.112-40.979" mask="url(#prefix__b)"/>
        <path fill="#4DB0C1" d="M132.213 226.687v-2.002l-3.32-.366-.707.085 4.027.28v2.003s9.018 19.58 9.018 40.979c0 16.882-2.02 20.526-3.747 21.314.284.134.679.217 1.028.217 1.64 0 3.771-.13 3.771-21.531 0-21.4-10.07-40.979-10.07-40.979M124.091 287.427c-.728-2.186-1.559-1.274-1.65-.637-.073.501-.657 1.7-1.697 2.188.46.212.888.22 1.236.22 1.067 0 1.825-.75 2.251-1.449-.051-.103-.1-.205-.14-.322M133.767 286.79c-.091-.637-.91-1.549-1.64.637-.452 1.36-1.893 1.698-2.917 1.759.626.037 1.096-.028 1.096-.028s2.926.403 3.861-1.397c-.233-.379-.369-.746-.4-.97" mask="url(#prefix__b)"/>
        <g fill="#FFF" mask="url(#prefix__b)">
            <g>
                <path d="M9.867 2.608V.605L14.354.24l2.098.084-2.639.28v2.004S3.988 22.187 3.988 43.586c0 16.882 1.618 20.526 3.343 21.314-.282.134-.88.217-1.23.217-1.64 0-5.037-.13-5.037-21.531 0-21.399 8.803-40.978 8.803-40.978M20.321 63.348c.729-2.187 1.56-1.275 1.65-.638.073.501.657 1.7 1.697 2.189-.46.21-.888.219-1.235.219-1.068 0-1.825-.75-2.252-1.449.052-.102.1-.205.14-.321M10.646 62.71c.09-.637.91-1.549 1.64.638.451 1.36 1.892 1.697 2.916 1.758-.625.037-1.095-.028-1.095-.028s-2.926.403-3.862-1.397c.233-.379.37-.746.4-.97" transform="translate(116.427 224.08)"/>
            </g>
        </g>
        <path fill="#009245" d="M128.264 224.89h3.748c.795 0 1.438-.646 1.438-1.44v-2.933c0-.795-.643-1.44-1.438-1.44h-3.748c-.795 0-1.44.645-1.44 1.44v2.932c0 .795.645 1.44 1.44 1.44" mask="url(#prefix__b)"/>
        <path fill="#4DB0C1" d="M127.779 228.484L133.451 228.484 133.451 225.069 127.779 225.069z" mask="url(#prefix__b)"/>
        <path fill="#006837" d="M128.079 223.514L133.451 223.514 133.451 220.893 128.079 220.893z" mask="url(#prefix__b)"/>
        <path fill="#FFF" d="M124.549 225.092L136.205 225.092 136.205 223.514 124.549 223.514z" mask="url(#prefix__b)"/>
        <path fill="#89D7F5" d="M124.549 225.309L136.205 225.309 136.205 223.731 124.549 223.731z" mask="url(#prefix__b)"/>
        <path stroke="#FFF" stroke-linecap="round" stroke-width=".554" d="M122.685 249.698c-1.525 9.49-2.506 21.295-.926 32.539M125.943 234.375c-.715 2.673-1.672 6.592-2.558 11.307M127.05 230.512s-.19.594-.504 1.683" mask="url(#prefix__b)"/>
    </g>
</svg>
