<svg xmlns="http://www.w3.org/2000/svg" width="1200" height="600" viewBox="0 0 1200 600">
    <g fill="none" fill-rule="evenodd">
        <g fill="#0D633E">
            <path d="M633.578 55.516c0 30.308 24.57 54.876 54.876 54.876 30.309 0 54.879-24.568 54.879-54.876 0-30.308-24.57-54.876-54.879-54.876-30.306 0-54.876 24.568-54.876 54.876M80 54.876c0 30.309 24.57 54.877 54.876 54.877 30.309 0 54.879-24.568 54.879-54.877C189.755 24.568 165.185 0 134.876 0 104.57 0 80 24.568 80 54.876" transform="translate(0 74) translate(0 308)"/>
            <path d="M727.36 74.495c0 19.826 16.072 35.898 35.898 35.898 19.826 0 35.9-16.072 35.9-35.898 0-19.827-16.074-35.9-35.9-35.9-19.826 0-35.898 16.073-35.898 35.9M1048 62.899c0 19.826 16.073 35.899 35.899 35.899s35.899-16.073 35.899-35.9c0-19.825-16.073-35.898-35.9-35.898C1064.074 27 1048 43.073 1048 62.899M608.272 74.495c0 19.826 16.073 35.898 35.899 35.898s35.899-16.072 35.899-35.898c0-19.827-16.073-35.9-35.9-35.9-19.825 0-35.898 16.073-35.898 35.9" transform="translate(0 74) translate(0 308)"/>
            <path d="M641.944 110.003L763.258 110.003 763.258 74.556 641.944 74.556zM576.071 55.664c0 30.225-24.503 54.728-54.728 54.728-30.228 0-54.73-24.503-54.73-54.728 0-30.226 24.502-54.729 54.73-54.729 30.225 0 54.728 24.503 54.728 54.729" transform="translate(0 74) translate(0 308)"/>
            <path d="M482.542 74.591c0 19.773-16.03 35.802-35.802 35.802-19.773 0-35.803-16.029-35.803-35.802s16.03-35.802 35.803-35.802c19.772 0 35.802 16.03 35.802 35.802M96.604 74.591c0 19.773-16.029 35.802-35.802 35.802S25 94.364 25 74.591 41.03 38.79 60.802 38.79c19.773 0 35.802 16.03 35.802 35.802M601.309 74.591c0 19.773-16.03 35.802-35.802 35.802-19.773 0-35.802-16.029-35.802-35.802s16.029-35.802 35.802-35.802 35.802 16.03 35.802 35.802" transform="translate(0 74) translate(0 308)"/>
            <path d="M446.741 109.943L567.729 109.943 567.729 74.591 446.741 74.591z" transform="translate(0 74) translate(0 308)"/>
            <path d="M488.574 110.453H230V16.426h46.423c18.618 0 36.313 8.104 48.475 22.202 12.161 14.095 29.856 22.2 48.475 22.2h35.687c15.876 0 31.183 5.898 42.954 16.548l36.56 33.077zM0 110.453h230V16.426h-41.293c-16.56 0-32.3 8.104-43.118 22.202-10.818 14.095-26.557 22.2-43.118 22.2H70.727c-14.121 0-27.737 5.898-38.207 16.548L0 110.453zM710.173 110.453h258.574V16.426h-46.423c-18.618 0-36.313 8.104-48.474 22.202-12.162 14.095-29.857 22.2-48.475 22.2h-35.688c-15.876 0-31.183 5.898-42.954 16.548l-36.56 33.077zM1199.747 110.453h-231V16.426h41.472c16.633 0 32.441 8.104 43.306 22.202 10.865 14.095 26.673 22.2 43.306 22.2h31.882c14.182 0 27.857 5.898 38.373 16.548l32.661 33.077z" transform="translate(0 74) translate(0 308)"/>
        </g>
        <g>
            <path fill="#0D633E" d="M.246 465.263c0 9.285 52.763 16.811 117.85 16.811 65.086 0 117.851-7.526 117.851-16.81 0-9.285-52.765-16.812-117.851-16.812-65.087 0-117.85 7.527-117.85 16.811" transform="translate(0 74) translate(478.898 .001)"/>
            <g>
                <path fill="#0D633E" d="M12.515 280.877h125.973c5.468 0 9.903-4.434 9.903-9.902v-27.816c0-5.47-4.435-9.904-9.903-9.904H12.515c-5.47 0-9.903 4.434-9.903 9.904v27.816c0 5.468 4.433 9.902 9.903 9.902" transform="translate(0 74) translate(478.898 .001) translate(43.709 183.067)"/>
                <path fill="#08492C" d="M9.902 284.826H141.1c5.47 0 9.904-4.434 9.904-9.902v-24.878c0-5.47-4.434-9.904-9.904-9.904H9.902c-5.47 0-9.902 4.434-9.902 9.904v24.878c0 5.468 4.432 9.902 9.902 9.902" transform="translate(0 74) translate(478.898 .001) translate(43.709 183.067)"/>
                <path fill="#69B482" d="M8.95 103.824h128.23c5.332 0 3.95-.096 12.468-.096l-10.15-98.13c-.692-3.227-4.295-5.593-8.52-5.593H19.358c-4.272 0-7.9 2.42-8.536 5.69L.411 103.824h8.538z" transform="translate(0 74) translate(478.898 .001) translate(43.709 183.067)"/>
                <path fill="#0D633E" d="M14.873 103.824h128.231c5.332 0-7.9-.096.62-.096l-10.151-98.13c-.689-3.227-4.294-5.593-8.517-5.593H25.282s-1.215-.268-1.85 3.002L6.333 103.824h8.539z" transform="translate(0 74) translate(478.898 .001) translate(43.709 183.067)"/>
                <path fill="#0D633E" d="M11.046 103.824h128.23c5.333 0 0-.094 8.518-.094l-10.15-95.916c-.69-3.152-4.293-5.464-8.518-5.464H21.456c-4.273 0-7.902 2.364-8.538 5.559l-10.41 95.915h8.538z" transform="translate(0 74) translate(478.898 .001) translate(43.709 183.067)"/>
                <path fill="#08492C" d="M21.456 3.007c-2.04 0-3.923.31-5.415 1.579 23.416 44.75 52.97 81.301 58.346 81.301 5.414 0 35.342-36.945 58.833-82.112-1.226-.699-2.617-.768-4.093-.768H21.456z" transform="translate(0 74) translate(478.898 .001) translate(43.709 183.067)"/>
                <path fill="#A84705" d="M29.46 87.322c-.196 1.69-1.724 2.905-3.415 2.71l-2.68-.309c-1.69-.193-2.904-1.722-2.71-3.414l1.753-15.257c.196-1.691 1.725-2.905 3.416-2.71l2.68.308c1.691.193 2.905 1.723 2.71 3.414l-1.755 15.258zm21.276 36.617c1.393-12.108 5.207-45.288 5.993-52.108.963-8.379-9.153-19.315-10.868-21.363-1.714-2.047-.315-5.346-.315-5.346l-4.555-.525-1.371-.158-5.4-.62s-.408 3.413-2.543 5.019c-2.135 1.604-15.49 9.84-16.455 18.22-.833 7.254-5.094 44.303-6.224 54.13-.125 1.076-.21 1.822-.249 2.169-.018.146-.041.365-.041.365-.16 2.53 1.543 4 3.826 4.262l14.135 1.626c1.381.158 2.672-.367 3.574-1.29.667 1.103 1.805 1.908 3.186 2.068l13.172 1.513c2.368.273 3.38-1.403 3.653-3.77l.25-2.17.232-2.022z" transform="translate(0 74) translate(478.898 .001) translate(43.709 183.067)"/>
                <path fill="#FF7300" d="M32.12 87.688c-.196 1.691-1.723 2.905-3.415 2.71l-2.68-.308c-1.69-.194-2.904-1.723-2.71-3.414l1.754-15.258c.195-1.691 1.724-2.905 3.415-2.71l2.68.308c1.691.194 2.905 1.723 2.71 3.414l-1.755 15.258zm21.276 36.617c1.393-12.108 5.207-45.288 5.993-52.108.963-8.378-9.152-19.315-10.867-21.363-1.715-2.046-.316-5.346-.316-5.346l-4.554-.525-1.372-.157-5.399-.62s-.408 3.412-2.544 5.018c-2.135 1.604-15.49 9.841-16.455 18.22-.833 7.254-4.922 43.048-6.05 52.875l-.251 2.169-.042.365c-.157 2.53 1.546 4 3.829 4.263l14.133 1.626c1.381.157 2.674-.368 3.573-1.291.667 1.105 1.808 1.908 3.19 2.068l13.171 1.514c2.368.272 3.38-1.403 3.653-3.771l.249-2.17c.084-.735-.01-.161.059-.767z" transform="translate(0 74) translate(478.898 .001) translate(43.709 183.067)"/>
                <path fill="#89D7F5" d="M11.202 63.916c-.775-1.955-.813-2.048-.813-2.048L6.573 62.95l-3.52 1.827.813 2.049s-1.141 23.624 7.542 45.505c8.682 21.882 12.213 20.635 13.888 19.97 1.677-.665 1.853-2.83 1.687-3.519-.166-.688.292-1.947 1.924-.01 1.632 1.94 4.811.14 4.811.14s3.532-.862 3.39-3.393c-.142-2.53 1.064-1.93 1.415-1.315.351.614 2 2.055 3.675 1.39 1.677-.665 4.207-1.824-4.476-23.704-8.683-21.882-26.52-37.975-26.52-37.975" transform="translate(0 74) translate(478.898 .001) translate(43.709 183.067)"/>
                <g fill="#4DB0C1">
                    <path d="M7.81 3.682l-.814-2.048-3.988 1.152-1.383.648 3.538-1.072s.035.093.81 2.048c0 0 17.639 16.172 26.321 38.054 6.85 17.26 6.498 21.713 5.052 23.218.343.022.9-.098 1.257-.24 1.677-.665 4.308-1.865-4.375-23.745C25.545 19.814 7.81 3.682 7.81 3.682M23.258 69.436c-1.632-1.94-2.112-.671-1.946.018.13.54.018 2.003-.848 2.926.558.03.998-.138 1.353-.278 1.092-.432 1.561-1.506 1.715-2.394-.095-.083-.187-.17-.274-.272M32.892 64.858c-.35-.615-1.559-1.213-1.417 1.317.087 1.574-1.249 2.504-2.27 2.981.654-.215 1.11-.473 1.11-.473s3.154-.774 3.382-2.994c-.392-.294-.68-.614-.805-.83" transform="translate(0 74) translate(478.898 .001) translate(43.709 183.067) translate(3.393 60.234)"/>
                </g>
                <g fill="#FFF">
                    <path d="M2.446 4.62l-.813-2.048L6.27.3l.979-.29-3.781 1.833s.035.092.81 2.048c0 0-.802 23.49 7.88 45.37 6.85 17.262 10.63 20.076 12.714 20.18-.234.25-.487.45-.846.592-1.675.665-5.237 1.926-13.92-19.956C1.423 28.198 2.446 4.62 2.446 4.62M38.173 62.327c-.143-2.53 1.077-1.936 1.428-1.322.277.483 1.36 1.472 2.625 1.551-.387.403-.823.584-1.176.724-1.092.432-2.171-.025-2.89-.568.013-.124.02-.25.013-.385M28.02 65.601c-.165-.688.305-1.951 1.935-.014 1.016 1.208 2.626.967 3.698.614-.626.292-1.133.417-1.133.417s-2.828 1.6-4.515.14c.083-.484.075-.914.016-1.157" transform="translate(0 74) translate(478.898 .001) translate(43.709 183.067) translate(1.42 62.207)"/>
                </g>
                <path fill="#009245" d="M4.122 64.598l7-2.778c.74-.292 1.1-1.131.809-1.87L10.52 56.4c-.293-.738-1.13-1.1-1.87-.807l-7 2.778c-.74.294-1.1 1.13-.809 1.869l1.41 3.552c.293.738 1.13 1.101 1.87.807" transform="translate(0 74) translate(478.898 .001) translate(43.709 183.067)"/>
                <path fill="#4DB0C1" d="M6.184 67.091L13.002 64.386 11.938 61.708 5.12 64.411zM4.491 62.824L11.308 60.119 10.245 57.441 3.427 60.144z" transform="translate(0 74) translate(478.898 .001) translate(43.709 183.067)"/>
                <path fill="#006837" d="M3.975 63.029L11.462 60.059 10.398 57.379 2.911 60.349z" transform="translate(0 74) translate(478.898 .001) translate(43.709 183.067)"/>
                <path fill="#FFF" d="M1.828 65.748L13.747 61.018 13.106 59.406 1.189 64.136z" transform="translate(0 74) translate(478.898 .001) translate(43.709 183.067)"/>
                <path fill="#89D7F5" d="M1.917 65.971L13.835 61.241 13.194 59.629 1.277 64.359z" transform="translate(0 74) translate(478.898 .001) translate(43.709 183.067)"/>
                <path stroke="#FFF" stroke-linecap="round" stroke-width=".609" d="M9.905 91.664c2.29 10.32 6.076 22.79 12.255 33.645M7.019 74.674c.353 3.023.965 7.42 1.973 12.6M6.585 70.275s.045.684.168 1.926" transform="translate(0 74) translate(478.898 .001) translate(43.709 183.067)"/>
                <path fill="#A84705" d="M40.29 100.839v18.898l1.974 1.36V95.439s-1.973-4.5-1.973 5.4M34.934 44.662l12.592 1.69c1.089.146 2.09-.62 2.236-1.707l.649-4.85c.146-1.088-.618-2.089-1.705-2.235l-12.594-1.689c-1.087-.146-2.088.618-2.234 1.707l-.651 4.85c-.146 1.088.62 2.088 1.707 2.234" transform="translate(0 74) translate(478.898 .001) translate(43.709 183.067)"/>
                <path fill="#C18421" d="M52.75 55.446s1.032 2.566-1.342 3.004c-2.374.436-3.585 1.707-3.585 1.707l-3.252-.81s5.428-4.426 8.18-3.9" transform="translate(0 74) translate(478.898 .001) translate(43.709 183.067)"/>
                <path fill="#FED434" d="M46.484 78.93s1.19 5.286-3.477 5.718c-1.763.164-4.537-1.005-5.905-5.575-2.877 6.97 1.725 11.37 1.725 11.37s7.617 1.443 9.6-1.937c1.982-3.38.52-6.658-1.943-9.577" transform="translate(0 74) translate(478.898 .001) translate(43.709 183.067)"/>
                <path fill="#E8BB3A" d="M47.1 79.702c-.197-.26-.402-.519-.617-.773 0 0 1.19 5.286-3.477 5.719-1.762.163-4.537-1.005-5.904-5.575-2.877 6.97 1.725 11.37 1.725 11.37s3.548.671 6.43.022c1.63-2.934 1.871-7.789 1.844-10.763" transform="translate(0 74) translate(478.898 .001) translate(43.709 183.067)"/>
                <path fill="#FED434" d="M41.57 84.497c-1.596-.462-3.433-1.97-4.467-5.425-1.7 4.119-.79 7.327.24 9.275 1.313-.6 3.006-2.472 4.227-3.85" transform="translate(0 74) translate(478.898 .001) translate(43.709 183.067)"/>
                <path fill="#C18421" d="M31.359 88.209c.181 1.529.594 3.167 1.434 4.601 2.804 1.8 7.773 3.26 13.598 1.202-1.089-.331-2.29-.791-3.674-1.346-4.56-1.82-5.288-7.13-4.594-11.743.198-1.312.521-2.332.997-3.26-2.508 3.292-6.05 7.996-7.761 10.546M38.442 74.09c.34.385 11.477-9.628 7.848-13.582-4.465 7.784-7.848 13.582-7.848 13.582" transform="translate(0 74) translate(478.898 .001) translate(43.709 183.067)"/>
                <path fill="#684F2B" d="M113.42 115.712s-2.91-.487-3.599-.996c-.688-.51 28.166-51.467 28.166-51.467l2.384-3.015h2.14l1.265.375-2.433 1.016s3.018-.758 3.6-.272c.584.487.584 2.638 1.557 3.027.973.389 2.433.833 2.433.833s-2.562.95-1.234 1.047c1.33.097 2.4.087 2.499.573.096.487-.389 1.162.485 1.65.876.485 4.671 3.79 4.671 5.542l-.195 1.263s-1.654-.972-1.75-.195c-.097.778-1.167 1.362-1.167 1.362s-25.491 27.534-26.563 28.021c-1.07.485-1.654.874-1.993 1.166-.341.292-10.265 10.07-10.265 10.07" transform="translate(0 74) translate(478.898 .001) translate(43.709 183.067)"/>
                <path fill="#E8B65D" d="M109.918 114.788s-4.475-3.21-4.087-3.892c.39-.68 1.362-1.752.585-1.752-.778 0-1.557-.193-1.362-.582.193-.39 4.087-4.476 1.946-3.406-2.141 1.07-4.28 2.919-4.184 2.433.097-.487-.78-1.557-1.557-1.849-.777-.292-4.087-5.352-4.087-5.352.585-.485 31.232-30.16 36.389-34.928 5.156-4.767 6.421-6.324 6.81-6.324.388 0 1.265 1.071 1.265 1.071s-2.726 2.53-2.043 2.14c.681-.39 3.404-1.07 3.988-.39.584.682.876 2.335.681 3.407-.193 1.07 1.946.874 1.946.874s-6.13 6.616-3.307 4.475c2.821-2.139 5.545-2.918 5.545-2.918s-1.07 1.168 0 1.46c1.071.292 3.891 2.822 3.794 3.6-.096.779-19.555 20.917-21.501 21.793-1.946.876-20.225 20.58-20.82 20.14" transform="translate(0 74) translate(478.898 .001) translate(43.709 183.067)"/>
                <path stroke="#BC8C3F" stroke-width=".604" d="M114.567 105.156L143.289 75.579M103.67 103.599L118.032 88.811M128.577 74.022L140.394 61.855" transform="translate(0 74) translate(478.898 .001) translate(43.709 183.067)"/>
                <path fill="#E6E6E6" d="M3.64 140.614L38.051 140.614 38.051 139.361 3.64 139.361zM5.38 139.359L39.791 139.359 39.791 138.106 5.38 138.106zM4.583 138.106L38.994 138.106 38.994 136.852 4.583 136.852zM3.64 136.852L38.051 136.852 38.051 135.599 3.64 135.599z" transform="translate(0 74) translate(478.898 .001) translate(43.709 183.067)"/>
                <path fill="#FFF" d="M3.93 135.599L38.341 135.599 38.341 134.346 3.93 134.346z" transform="translate(0 74) translate(478.898 .001) translate(43.709 183.067)"/>
                <path fill="#E6E6E6" d="M5.017 134.346L39.428 134.346 39.428 133.093 5.017 133.093z" transform="translate(0 74) translate(478.898 .001) translate(43.709 183.067)"/>
                <path fill="#FFF" d="M2.482 133.172L36.893 133.172 36.893 131.919 2.482 131.919z" transform="translate(0 74) translate(478.898 .001) translate(43.709 183.067)"/>
                <path fill="#E6E6E6" d="M3.93 131.919L38.341 131.919 38.341 130.666 3.93 130.666z" transform="translate(0 74) translate(478.898 .001) translate(43.709 183.067)"/>
                <path fill="#FFF" d="M4.583 130.666L38.994 130.666 38.994 129.413 4.583 129.413z" transform="translate(0 74) translate(478.898 .001) translate(43.709 183.067)"/>
                <path fill="#FFF2E1" d="M36.312 64.181L53.506 137.194 97.744 137.194 81.438 64.181z" transform="translate(0 74) translate(478.898 .001) translate(43.709 183.067)"/>
                <path fill="#C6B29E" d="M33.342 66.154L50.881 139.167 96.005 139.167 79.372 66.154z" transform="translate(0 74) translate(478.898 .001) translate(43.709 183.067)"/>
                <path fill="#C6B29E" d="M33.342 68.127L50.881 139.167 96.005 139.167 79.372 68.127z" transform="translate(0 74) translate(478.898 .001) translate(43.709 183.067)"/>
                <path fill="#E5D8CA" d="M34.573 64.181L51.767 137.194 96.005 137.194 79.7 64.181z" transform="translate(0 74) translate(478.898 .001) translate(43.709 183.067)"/>
                <path fill="#EFE1D0" d="M36.312 64.181L53.506 137.194 97.744 137.194 81.438 64.181z" transform="translate(0 74) translate(478.898 .001) translate(43.709 183.067)"/>
                <path fill="#FFF2E1" d="M38.051 64.181L55.244 137.194 99.483 137.194 83.177 64.181z" transform="translate(0 74) translate(478.898 .001) translate(43.709 183.067)"/>
                <path stroke="#998675" d="M44.238 73.061L67.918 73.061" transform="translate(0 74) translate(478.898 .001) translate(43.709 183.067)"/>
                <path stroke="#998675" stroke-width=".881" d="M45.586 76.87L82.094 76.495" transform="translate(0 74) translate(478.898 .001) translate(43.709 183.067)"/>
                <path stroke="#998675" d="M46.211 80.954L77.784 80.954M48.184 84.901L81.731 84.901M48.184 88.847L81.731 88.847" transform="translate(0 74) translate(478.898 .001) translate(43.709 183.067)"/>
                <path fill="#2968CE" d="M105.404 69.886l-2.658-3.216c-.215-.273-.543-.432-.888-.432H86.841c-.34 0-.659.151-.874.414l-2.65 3.228c-.166.204-.257.456-.257.717V99.27c0 .624.505 1.13 1.129 1.13h20.327c.624 0 1.129-.506 1.129-1.13V70.583c0-.253-.085-.497-.24-.697" transform="translate(0 74) translate(478.898 .001) translate(43.709 183.067)"/>
                <path fill="#CCC" d="M102.632 102.202h-16.47c-.735 0-1.426-.347-1.866-.935l-1.279-1.713h22.585l-1.008 1.575c-.429.669-1.167 1.073-1.962 1.073" transform="translate(0 74) translate(478.898 .001) translate(43.709 183.067)"/>
                <path fill="#7699DC" d="M103.438 99.039v-27.97c0-.253-1.244-.5-1.4-.697l-3.822-4.846c-.213-.274-1.119-1.346-1.466-1.346h2.453c.347 0 .673 1.072.888 1.346l4.256 4.389c.371.37.24 1.304.24 1.557l.384 27.502c0 .623-.036.908-.66.908l-1.947.11c.624 0 1.074-.33 1.074-.953" transform="translate(0 74) translate(478.898 .001) translate(43.709 183.067)"/>
                <path fill="#999" d="M89.506 101.754s-1.206-2.04-1.319-2.153h-4.171l.679 1.022c.467.707 1.259 1.131 2.105 1.131h2.706z" transform="translate(0 74) translate(478.898 .001) translate(43.709 183.067)"/>
                <path fill="#FFF" d="M99.98 101.91l1.48-2.42h3.51l-1.052 1.544c-.273.4-.7.673-1.177.754l-2.76.122z" transform="translate(0 74) translate(478.898 .001) translate(43.709 183.067)"/>
                <path fill="#1755AF" d="M87.076 66.655c.041-.051.103-.08.168-.08h3.502c.182 0 .282.208.168.348l-2.544 3.181c-.03.038-.047.087-.047.135v29.146c0 .118-.097.215-.215.215h-3.876c-.12 0-.217-.097-.217-.215V70.507c0-.221.081-.436.227-.602l2.834-3.25z" transform="translate(0 74) translate(478.898 .001) translate(43.709 183.067)"/>
                <path fill="#134B8E" d="M88.335 70.17l2.556-2.91c.235-.266.045-.686-.31-.686h-3.078c-.164 0-.32.07-.429.193l-3.058 3.473s2.28-.07 4.32-.07" transform="translate(0 74) translate(478.898 .001) translate(43.709 183.067)"/>
                <path fill="#CCC" d="M87.861 58.58c.947-.577 2.185-.212 2.668.785.148.305.048.672-.235.86l-1.977 1.314c-.286.192-.67.14-.898-.12-.763-.878-.552-2.234.442-2.84m1.818 4.543l1.466-.971c.302-.2.702.032.685.39-.026.531-.328 1.03-.831 1.29-.393.2-.839.218-1.231.072-.338-.124-.391-.584-.09-.781m-2.677-1.257l2.023 2.324c.617.71 1.64.908 2.476.478.99-.507 1.395-1.713.91-2.713l-1.344-2.773c-.633-1.304-2.25-1.78-3.489-1.028-1.3.791-1.577 2.563-.576 3.712" transform="translate(0 74) translate(478.898 .001) translate(43.709 183.067)"/>
                <path fill="#999" d="M87.861 58.676c.947-.576 2.185-.211 2.668.785.148.306.048.673-.235.86l-1.977 1.315c-.286.191-.67.14-.898-.12-.763-.879-.552-2.234.442-2.84m1.818 4.543l1.466-.971c.302-.2.702.031.685.39-.026.531-.328 1.03-.831 1.289-.393.201-.839.219-1.231.073-.338-.124-.391-.584-.09-.781m-2.677-1.258l2.023 2.325c.617.71 1.64.908 2.476.478.99-.508 1.395-1.713.91-2.714l-1.344-2.772c-.633-1.305-2.25-1.78-3.489-1.028-1.3.791-1.577 2.563-.576 3.711" transform="translate(0 74) translate(478.898 .001) translate(43.709 183.067)"/>
            </g>
            <path fill="#666" d="M135.21 247.831c-.838.429-1.86.231-2.477-.477l-.6-.689 1.087-.148c-.07.211.018.462.256.55.393.147.84.129 1.232-.072.333-.172.568-.454.704-.776l.9-.124c-.031.712-.424 1.389-1.103 1.736" transform="translate(0 74) translate(478.898 .001)"/>
            <path fill="#E6E6E6" d="M145.127 249.253h-14.131c-.488 0-.882-.394-.882-.884 0-.487.394-.882.882-.882h14.13c.488 0 .885.395.885.882 0 .49-.397.884-.884.884" transform="translate(0 74) translate(478.898 .001)"/>
            <path fill="#999" d="M138.077 249.253h-7.08c-.488 0-.885-.394-.885-.884 0-.487.397-.882.884-.882h7.08c.488 0 .885.395.885.882 0 .49-.397.884-.884.884" transform="translate(0 74) translate(478.898 .001)"/>
            <path fill="#CCC" d="M143.35 249.253h-10.883c-.487 0-.884-.394-.884-.884 0-.487.397-.882.884-.882h10.883c.488 0 .884.395.884.882 0 .49-.396.884-.884.884" transform="translate(0 74) translate(478.898 .001)"/>
            <path fill="#B3B3B3" d="M147.146 247.247v1.413c0 .594-1.689.57-2.024.57l-12.294.024c-.336 0-1.468 0-1.468-.594v-1.413h15.786z" transform="translate(0 74) translate(478.898 .001)"/>
            <path fill="#397260" d="M108.881 265.153c-1.25 3.155-3.124 6.725-1.419 11.386l15.41 42.117c.172.465.56.82 1.042.93 1.22.271 4.397.252 10.015-1.578l3.035-1.11c6.064-2.22 8.489-4.182 9.452-5.323.44-.52.55-1.247.316-1.89l-15.333-41.904c-1.705-4.66-5.486-6.133-8.458-7.773 0 0-4.272-1.586-5.784-5.715l-7.457-20.382-8.035 2.94s6.577 17.973 7.457 20.383c.882 2.407.592 5.815-.24 7.919" transform="translate(0 74) translate(478.898 .001)"/>
            <path fill="#205141" d="M144.987 309.54c.444 1.213-3.87 3.907-9.635 6.016-5.765 2.11-10.799 2.836-11.243 1.622-.444-1.213 3.87-3.907 9.634-6.016 5.766-2.11 10.8-2.836 11.244-1.622" transform="translate(0 74) translate(478.898 .001)"/>
            <path fill="#397260" d="M141.811 311.634c.37 1.007-2.449 2.964-6.295 4.371-3.844 1.407-7.26 1.73-7.629.724-.369-1.008 1.95-4.331 5.794-5.738 3.846-1.407 7.761-.363 8.13.643" transform="translate(0 74) translate(478.898 .001)"/>
            <path fill="#2C5B4B" d="M116.725 260.761s17 46.464 19.817 54.154c-6.086 4.186-11.298 2.487-11.298 2.487l-16.6-44.02s-.357-8.465 8.081-12.62" transform="translate(0 74) translate(478.898 .001)"/>
            <path fill="#205141" d="M110.122 264.513c-1.223 3.135-3.074 6.626-1.393 11.22l14.938 40.826c.17.46.494 1.058.975 1.162 1.218.263 4.399.673 9.944-1.355l2.63-.963c-5.543 2.028-8.75 1.626-9.967 1.363-.48-.102-.829-.692-.998-1.152l-14.939-40.826c-1.68-4.594-2.413-7.14-1.19-10.275" transform="translate(0 74) translate(478.898 .001)"/>
            <path fill="#6EBAAD" d="M121.388 260.39c2.96 1.605 5.058 3.651 6.74 8.245l15.022 40.797c.17.46-.404 1.385-.704 1.776-.76.984-2.868 3.33-8.413 5.36l2.63-.964c5.546-2.028 7.572-4.345 8.332-5.33.302-.39.024-1.006-.144-1.464l-14.938-40.828c-1.681-4.594-5.699-5.938-8.657-7.542" transform="translate(0 74) translate(478.898 .001)"/>
            <path stroke="#4E968F" stroke-linecap="round" stroke-width=".738" d="M120.522 273.256c1.676-.563 3.613-1.332 5.492-2.352M120.239 262.199s3.143 1.778 4.61 5.782" transform="translate(0 74) translate(478.898 .001)"/>
            <path stroke="#4E968F" stroke-linecap="round" stroke-width="1.115" d="M129.518 281.312L130.084 282.861M131.597 286.995L139.159 307.662" transform="translate(0 74) translate(478.898 .001)"/>
            <path fill="#4E968F" d="M110.02 239.415l-5.113 1.87c-1.025.375-2.157-.152-2.532-1.174l-.458-1.25c-.375-1.025.152-2.158 1.174-2.533l5.115-1.87c1.024-.375 2.157.152 2.532 1.174l.456 1.25c.375 1.025-.15 2.158-1.175 2.533" transform="translate(0 74) translate(478.898 .001)"/>
            <path fill="#205141" d="M108.449 239.99l-3.544 1.296c-1.022.375-2.155-.152-2.53-1.176l-.458-1.25c-.375-1.024.152-2.156 1.174-2.531l3.544-1.297c1.025-.375 2.157.152 2.532 1.174l.456 1.252c.375 1.024-.15 2.156-1.174 2.531" transform="translate(0 74) translate(478.898 .001)"/>
            <path fill="#397260" d="M108.449 239.99l-.24.086c-1.023.375-2.156-.15-2.53-1.174l-.458-1.251c-.375-1.024.151-2.157 1.174-2.532l.24-.087c1.025-.375 2.157.152 2.532 1.174l.456 1.252c.375 1.024-.15 2.156-1.174 2.531" transform="translate(0 74) translate(478.898 .001)"/>
            <path fill="#397260" d="M111.688 240.369l-7.44 2.723c-.38.138-.803-.057-.943-.438-.14-.38.057-.803.438-.943l7.44-2.721c.38-.14.802.055.943.436.138.383-.058.803-.438.943" transform="translate(0 74) translate(478.898 .001)"/>
            <path fill="#4E968F" d="M111.688 240.369l-7.44 2.723c-.38.138-.803-.057-.943-.438-.14-.38.057-.803.438-.943l7.44-2.721c.38-.14.802.055.943.436.138.383-.058.803-.438.943" transform="translate(0 74) translate(478.898 .001)"/>
            <path fill="#205141" d="M108.512 241.53l-4.264 1.562c-.38.138-.803-.058-.943-.439-.14-.38.057-.803.438-.94l4.264-1.562c.381-.14.803.056.944.436.138.383-.058.804-.439.944" transform="translate(0 74) translate(478.898 .001)"/>
            <path fill="#397260" d="M109.81 241.056l-2.34.856c-.38.138-.803-.057-.94-.438-.14-.38.054-.803.437-.941l2.339-.857c.38-.14.803.056.943.436.138.383-.057.804-.438.944" transform="translate(0 74) translate(478.898 .001)"/>
            <path fill="#205141" d="M110.243 242.462L104.487 244.568 103.984 243.188 109.738 241.083zM110.643 239.186l-5.776 2.114-.41-1.117 5.778-2.114c.308-.114.649.046.763.354.113.31-.047.65-.355.763" transform="translate(0 74) translate(478.898 .001)"/>
            <path fill="#6EBAAD" d="M109.276 241.528l5.351 14.628c.184.502.53.926.987 1.2.933.56 2.694 1.51 4.726 2.082-2.386-.935-3.22-2.828-3.637-3.968l-5.375-14.692-2.052.75z" transform="translate(0 74) translate(478.898 .001)"/>
            <path fill="#205141" d="M110.335 257.705l-5.241-14.322 2.149-.787 4.742 14.19s1.395 2.216-1.638 7.171c0 0 1.083-3.26-.012-6.252M111.446 263.253c4.655 1.332 7.8-2.779 7.8-2.779s-5.87-4.862-7.8 2.779" transform="translate(0 74) translate(478.898 .001)"/>
            <path fill="#89D7F5" d="M162.933 253.134v-2.924l-4.933-.531-4.934.53v2.925s-13.377 28.58-13.377 59.818 4.762 31.427 7.155 31.427c2.392 0 3.568-2.583 3.7-3.513.133-.93 1.265-2.259 2.327.93 1.064 3.19 5.841 2.526 5.841 2.526s4.766.665 5.83-2.526c1.063-3.189 2.249-1.86 2.381-.93.134.93 1.458 3.513 3.85 3.513 2.394 0 6.183-.19 6.183-31.427 0-31.238-14.023-59.818-14.023-59.818" transform="translate(0 74) translate(478.898 .001)"/>
            <path fill="#4DB0C1" d="M162.933 253.134v-2.924l-5.586-.531-.664.122 6.25.409v2.924s12.424 28.58 12.424 59.818c0 24.64-3.317 29.96-5.837 31.11.412.195.805.317 1.316.317 2.392 0 6.151-.19 6.151-31.427 0-31.238-14.054-59.818-14.054-59.818M149.6 341.796c-1.064-3.19-2.277-1.86-2.41-.931-.104.732-.957 2.48-2.476 3.197.673.308 1.298.317 1.804.317 1.557 0 2.664-1.093 3.285-2.113-.075-.148-.148-.302-.203-.47M163.723 340.866c-.132-.932-1.33-2.26-2.393.931-.661 1.985-2.765 2.477-4.259 2.566.914.053 1.6-.042 1.6-.042s4.27.59 5.638-2.036c-.339-.555-.538-1.09-.586-1.42" transform="translate(0 74) translate(478.898 .001)"/>
            <g fill="#FFF">
                <path d="M13.218 3.913V.99l6.425-.531 3.202.122-3.707.409v2.924S4.59 32.493 4.59 63.731c0 24.641 2.258 29.961 4.778 31.11-.413.195-1.336.317-1.847.317-2.392 0-7.254-.19-7.254-31.427 0-31.238 12.95-59.818 12.95-59.818M28.226 92.576c1.064-3.191 2.278-1.861 2.41-.932.104.732.957 2.48 2.476 3.197-.673.308-1.298.318-1.803.318-1.557 0-2.664-1.094-3.286-2.114.075-.148.148-.302.203-.47M14.103 91.645c.132-.931 1.33-2.26 2.393.932.662 1.985 2.765 2.476 4.259 2.565-.914.053-1.6-.042-1.6-.042s-4.27.59-5.638-2.036c.34-.555.538-1.09.586-1.419" transform="translate(0 74) translate(478.898 .001) translate(139.849 249.22)"/>
            </g>
            <path fill="#009245" d="M155.03 250.51h6.792c.797 0 1.44-.645 1.44-1.44v-5.605c0-.795-.643-1.44-1.44-1.44h-6.793c-.795 0-1.44.645-1.44 1.44v5.604c0 .796.645 1.44 1.44 1.44" transform="translate(0 74) translate(478.898 .001)"/>
            <path fill="#4DB0C1" d="M154.984 255.756L163.264 255.756 163.264 250.77 154.984 250.77z" transform="translate(0 74) translate(478.898 .001)"/>
            <path fill="#006837" d="M155.422 248.502L163.264 248.502 163.264 244.678 155.422 244.678z" transform="translate(0 74) translate(478.898 .001)"/>
            <path fill="#FFF" d="M150.268 250.805L167.282 250.805 167.282 248.502 150.268 248.502z" transform="translate(0 74) translate(478.898 .001)"/>
            <path fill="#89D7F5" d="M150.268 251.123L167.282 251.123 167.282 248.82 150.268 248.82z" transform="translate(0 74) translate(478.898 .001)"/>
            <path stroke="#FFF" stroke-linecap="round" stroke-width=".808" d="M147.547 286.723c-2.228 13.85-3.658 31.084-1.352 47.496M152.302 264.355c-1.044 3.901-2.44 9.624-3.733 16.507M153.92 258.717s-.278.866-.736 2.457" transform="translate(0 74) translate(478.898 .001)"/>
            <path fill="#C69C6D" d="M78.76 277.397h100.942v44.452c0 2.18-1.766 3.946-3.946 3.946H82.707c-2.18 0-3.947-1.766-3.947-3.946v-44.452z" transform="translate(0 74) translate(478.898 .001)"/>
            <path fill="#DDB287" d="M80.93 277.397h44.328c1.198 0 2.17.971 2.17 2.171v44.057c0 1.2-.972 2.17-2.17 2.17H82.69c-2.17 0-3.93-1.76-3.93-3.93v-42.297c0-1.2.972-2.17 2.17-2.17" transform="translate(0 74) translate(478.898 .001)"/>
            <path fill="#A0815F" d="M76.106 304.555L76.106 316.314 122.328 316.314 127.413 294.343 127.413 277.398z" transform="translate(0 74) translate(478.898 .001)"/>
            <path fill="#DDB287" d="M80.5 277.152L129.168 277.152 120.886 304.789 72.218 304.789z" transform="translate(0 74) translate(478.898 .001)"/>
            <path fill="#736357" d="M78.217 279.137L126.885 279.137 119.158 303.299 120.886 305.035 72.218 305.035 70.489 303.299z" transform="translate(0 74) translate(478.898 .001)"/>
            <path fill="#C69C6D" d="M78.76 277.397L127.429 277.397 119.147 303.295 70.478 303.295z" transform="translate(0 74) translate(478.898 .001)"/>
            <path fill="#A0815F" d="M179.703 277.553L129.167 277.153 127.429 283.408 127.543 294.692 134.409 314.83 179.703 314.285z" transform="translate(0 74) translate(478.898 .001)"/>
            <path fill="#C69C6D" d="M177.514 277.152L130.59 277.162 128.849 277.72 137.05 304.856 185.715 304.641z" transform="translate(0 74) translate(478.898 .001)"/>
            <path fill="#736357" d="M140.61 302.283L137.05 304.856 187.092 304.554 187.664 302.433z" transform="translate(0 74) translate(478.898 .001)"/>
            <path fill="#DDB287" d="M179.253 276.592L130.589 277.161 139.173 302.96 187.837 302.392z" transform="translate(0 74) translate(478.898 .001)"/>
            <path fill="#69B482" d="M50.954 273.558h132.562c4.855 0 8.55 4.358 7.758 9.147L176.11 463.289c-.628 3.796-3.91 6.579-7.758 6.579h-102c-3.89 0-7.196-2.846-7.776-6.694L43.179 282.592c-.716-4.755 2.966-9.034 7.775-9.034" transform="translate(0 74) translate(478.898 .001)"/>
            <path fill="#69B482" d="M52.928 273.558h132.563c4.854 0 8.55 4.358 7.757 9.147l-15.163 180.584c-.627 3.796-3.91 6.579-7.757 6.579h-102c-3.891 0-7.196-2.846-7.777-6.694L45.153 282.592c-.716-4.755 2.966-9.034 7.775-9.034" transform="translate(0 74) translate(478.898 .001)"/>
            <path fill="#89CE9E" d="M185.491 272.9h-1.973c4.854 0 8.548 4.687 7.757 9.477l-27.011 180.93c-.628 3.795-3.91 6.927-7.757 6.927h13.82c3.849 0 7.13-2.966 7.76-6.763l15.161-181.002c.793-4.79-2.903-9.568-7.757-9.568" transform="translate(0 74) translate(478.898 .001)"/>
            <path fill="#0D633E" d="M50.955 272.9h1.974c-4.855 0-8.549 4.687-7.757 9.477l27.01 180.93c.628 3.795 3.91 6.927 7.758 6.927H66.119c-3.848 0-7.13-2.966-7.76-6.763L43.2 282.47c-.794-4.79 2.902-9.568 7.756-9.568" transform="translate(0 74) translate(478.898 .001)"/>
            <path fill="#FFF" d="M30.109 87.839c-.072-1.107-.109-2.204-.109-3.292C30 37.852 69.443 0 118.096 0c48.654 0 88.095 37.852 88.095 84.547 0 1.088-.035 2.185-.107 3.292.072 1.527.107 3.065.107 4.61 0 51.058-78.96 127.374-88.095 127.374C108.96 219.823 30 143.507 30 92.45c0-1.545.037-3.083.109-4.61m87.987 34.285c18.071 0 32.721-14.216 32.721-31.753 0-17.535-14.65-31.751-32.721-31.751-18.07 0-32.72 14.216-32.72 31.75 0 17.538 14.65 31.754 32.72 31.754" transform="translate(0 74) translate(478.898 .001)"/>
            <path fill="#89CE9E" d="M46.896 288.278h144.977c1.328 0 2.406-1.077 2.406-2.405v-10.568c0-1.328-1.078-2.405-2.406-2.405H46.896c-1.328 0-2.405 1.077-2.405 2.405v10.568c0 1.328 1.077 2.405 2.405 2.405" transform="translate(0 74) translate(478.898 .001)"/>
            <path fill="#0D633E" d="M191.874 288.687H46.897c-.414 0-.783-.18-1.125-.086l.766 5.93.087.076h145.263l.777-6.002c-.25-.046-.51.082-.791.082" transform="translate(0 74) translate(478.898 .001)"/>
            <path fill="#FFF" d="M128.73 386.413v-5.458l-7.536 13.29 7.536 13.29v-5.576h9.613s1.126.296 2.194-1.662l8.842-15.25s-1.247 1.366-3.086 1.366H128.73z" transform="translate(0 74) translate(478.898 .001)"/>
            <path fill="#FFF" d="M139.914 384.71l-8.416-14.577 13.55-7.825 6.465 11.201s1.82 3.726 0 7.445c-1.837 3.762-4.805 3.756-4.805 3.756h-6.794zM104.646 375.825l4.73 2.725-7.755-13.164-15.278-.105 4.833 2.785-4.8 8.327s-.818.829.346 2.733l8.8 15.272s-.561-1.76.357-3.355l8.767-15.218z" transform="translate(0 74) translate(478.898 .001)"/>
            <path fill="#FFF" d="M100.54 386.366l16.832-.016.015 15.646-12.933.012c-2.364 0-4.442-.998-6.45-3.716-1.563-2.111-1.619-4.718-.857-6.04l3.392-5.886zM125.935 360.094l-4.726 2.73 15.278-.126 7.737-13.174-4.829 2.79-4.809-8.32s-.307-1.126-2.537-1.07l-17.626-.026s1.806.397 2.725 1.99l8.787 15.206z" transform="translate(0 74) translate(478.898 .001)"/>
            <path fill="#FFF" d="M118.865 351.263l-8.41 14.58-13.553-7.818 6.46-11.202s2.317-3.438 6.447-3.726c4.178-.29 5.656 2.283 5.656 2.283l3.4 5.883z" transform="translate(0 74) translate(478.898 .001)"/>
        </g>
        <g fill="#69B482" transform="translate(0 74) translate(310.884 27.9)">
            <path d="M98.63 131.386c-10.35 0-19.87 2.842-27.477 8.762h-.038c-4.154 1.973-9.786 4.446-15.352 4.446-4.034 0-6.89-1.216-11.069-2.915-4.014-1.697-8.572-2.417-13.41-2.417-10.885 0-20.36 2.885-25.364 14.699h132.042c-7.732-16.245-22.437-22.575-39.333-22.575"/>
            <circle cx="541.703" cy="79.583" r="36.507" fill-rule="nonzero"/>
            <path d="M498.681 196.374c-5.223 0-10.028 1-13.867 4.947h-.02c-2.095 0-4.937 2.046-7.747 2.046-2.036 0-3.477-.71-5.586-1.569-2.025-.856-4.326-1.598-6.767-1.598-5.493 0-10.275 1.12-12.8 7.04h66.637c-3.901-7.892-11.323-10.866-19.85-10.866M46.788 247.68c-5.224 0-10.029 1-13.867 4.948h-.02c-2.095 0-4.937 2.046-7.747 2.046-2.036 0-3.477-.71-5.586-1.569-2.025-.856-4.326-1.598-6.767-1.598-5.494 0-10.275 1.12-12.801 7.04h66.637c-3.9-7.893-11.322-10.867-19.85-10.867M505.916 2.015l-1.146.424-1.216.495c-.454.172-.953.438-1.478.647-1.056.492-2.22 1.027-3.431 1.628-.606.298-1.218.636-1.851.928-.608.373-1.271.62-1.887 1.002-.633.35-1.287.648-1.91 1.015-.614.375-1.29.633-1.89 1.002-.612.345-1.242.641-1.844.934-.584.32-1.16.603-1.714.856-1.14.466-2.057.953-2.803 1.202-.722.272-1.193.39-1.193.39s.084-.46.339-1.2c.266-.728.623-1.813 1.324-2.91.343-.555.738-1.145 1.18-1.75.472-.579 1.008-1.159 1.585-1.74.558-.603 1.25-1.108 1.937-1.633.667-.552 1.473-.949 2.234-1.403 1.571-.83 3.296-1.413 4.965-1.699 1.672-.29 3.29-.245 4.632-.02 1.353.265 2.425.69 3.127 1.09.709.4 1.04.742 1.04.742"/>
            <path d="M461.845 2.015s.332-.342 1.04-.742c.703-.4 1.774-.825 3.128-1.09 1.342-.225 2.96-.27 4.631.02 1.67.286 3.394.868 4.965 1.7.762.453 1.567.85 2.234 1.402.687.525 1.38 1.03 1.938 1.632.576.582 1.113 1.162 1.584 1.74.442.606.837 1.196 1.18 1.751.701 1.097 1.058 2.182 1.325 2.91.254.74.339 1.2.339 1.2s-.472-.118-1.194-.39c-.746-.249-1.663-.736-2.802-1.202-.554-.253-1.13-.537-1.715-.856-.602-.293-1.231-.589-1.843-.934-.6-.369-1.277-.627-1.89-1.002-.624-.367-1.277-.665-1.91-1.015-.616-.382-1.28-.63-1.887-1.002-.633-.292-1.245-.63-1.851-.928-1.212-.601-2.376-1.136-3.432-1.628-.525-.209-1.024-.475-1.478-.647l-1.215-.495-1.147-.424M448.69 24.934s-1.04.38-2.28.922c-.596.284-1.29.618-2.034.975-.718.357-1.468.738-2.218 1.144-.768.407-1.535.815-2.256 1.196-.742.385-1.456.756-2.115 1.054-.663.292-1.218.57-1.658.72-.432.16-.708.233-.708.233s.055-.27.201-.712c.162-.429.365-1.082.793-1.72.383-.682.934-1.402 1.634-2.077.33-.357.742-.657 1.149-.969.397-.328.874-.564 1.326-.833 1.857-1.014 4.1-1.328 5.693-1.01.801.138 1.439.402 1.855.637.42.243.618.44.618.44"/>
            <path d="M422.543 24.934s.197-.197.618-.44c.416-.235 1.053-.499 1.855-.637 1.592-.318 3.836-.004 5.693 1.01.452.269.93.505 1.326.833.406.312.819.612 1.148.969.7.675 1.251 1.395 1.634 2.078.428.637.632 1.29.793 1.719.146.442.202.712.202.712s-.277-.073-.709-.233c-.44-.15-.994-.428-1.657-.72-.66-.298-1.374-.67-2.116-1.054-.72-.38-1.488-.79-2.255-1.196-.75-.406-1.5-.787-2.218-1.144-.744-.357-1.439-.691-2.035-.975-1.24-.543-2.279-.922-2.279-.922M174.396 99.921s-1.04.379-2.279.922c-.596.284-1.29.617-2.034.974-.719.358-1.469.738-2.218 1.145-.768.406-1.536.815-2.256 1.196-.742.385-1.456.756-2.115 1.053-.663.293-1.218.57-1.658.72-.432.16-.708.234-.708.234s.055-.27.2-.713c.163-.428.366-1.081.794-1.719.383-.682.934-1.403 1.634-2.077.33-.358.742-.658 1.149-.97.396-.327.874-.564 1.326-.832 1.857-1.014 4.1-1.328 5.693-1.01.8.138 1.438.402 1.855.637.42.243.617.44.617.44"/>
            <path d="M148.25 99.921s.197-.197.617-.44c.417-.235 1.054-.5 1.855-.637 1.593-.318 3.836-.004 5.693 1.01.452.268.93.505 1.326.833.407.311.82.611 1.149.969.7.674 1.25 1.395 1.634 2.077.428.638.631 1.291.793 1.72.146.441.201.712.201.712s-.276-.073-.708-.233c-.44-.15-.995-.428-1.658-.72-.659-.298-1.373-.67-2.115-1.054-.72-.381-1.488-.79-2.256-1.196-.75-.407-1.5-.787-2.218-1.145-.744-.357-1.438-.69-2.034-.974-1.24-.543-2.28-.922-2.28-.922M95.463 25.76s-.34.127-.935.346c-.57.225-1.34.55-2.199.933-.86.401-1.81.837-2.798 1.329-.49.244-.994.499-1.51.755-.495.306-1.037.507-1.539.82-.517.283-1.05.526-1.559.826-.5.306-1.051.515-1.54.817-1.021.533-2.01 1.034-2.904 1.46-.929.381-1.677.778-2.285.981-.59.223-.975.32-.975.32s.07-.377.277-.981c.219-.592.509-1.478 1.081-2.374.54-.923 1.29-1.92 2.254-2.847.456-.492 1.022-.902 1.58-1.33.545-.452 1.202-.776 1.824-1.145 1.282-.679 2.687-1.154 4.05-1.387 1.365-.237 2.685-.2 3.778-.016 1.105.215 1.98.56 2.551.888.579.326.849.606.849.606"/>
            <path d="M59.511 25.76s.273-.28.849-.605c.572-.328 1.448-.673 2.551-.888 1.096-.184 2.414-.221 3.777.016 1.364.233 2.769.708 4.052 1.387.621.369 1.278.693 1.823 1.145.56.428 1.125.838 1.58 1.33.964.927 1.714 1.924 2.254 2.847.572.896.865 1.782 1.082 2.374.207.604.276.98.276.98s-.385-.096-.975-.319c-.608-.203-1.356-.6-2.285-.98-.894-.427-1.883-.928-2.9-1.461-.492-.302-1.043-.511-1.544-.817-.51-.3-1.042-.543-1.557-.827-.503-.312-1.046-.513-1.541-.819-.515-.256-1.02-.51-1.51-.755-.988-.492-1.938-.928-2.798-1.329-.858-.382-1.628-.708-2.198-.933l-.936-.345"/>
        </g>
    </g>
</svg>
