<svg xmlns="http://www.w3.org/2000/svg" xmlns:xlink="http://www.w3.org/1999/xlink" width="1200" height="600" viewBox="0 0 1200 600">
    <defs>
        <path id="prefix__a" d="M.405 2.155l1.823.779c-3.955 3.29-3.165 16.842 9.629 13.092l-.963-1.84C2.262 16.91.783 7.533 3.396 4.986c0 .863.07 1.096.07 1.096h2.062L5.494 1.66.954.14l-.55 2.016z"/>
        <path id="prefix__c" d="M.046.656l.971 1.848c8.708-2.735 10.2 6.677 7.563 9.234 0-.866-.07-1.1-.07-1.1H6.429l.035 4.44 4.58 1.525.555-2.024-1.839-.78C13.271 10.89 13.073.003 4.175.003c-1.21 0-2.583.201-4.13.652z"/>
        <path id="prefix__e" d="M.046.656l.971 1.848c8.708-2.735 10.2 6.677 7.563 9.234 0-.866-.07-1.1-.07-1.1H6.429l.035 4.44 4.58 1.525.555-2.024-1.839-.78C13.271 10.89 13.073.003 4.175.003c-1.211 0-2.583.201-4.13.652z"/>
        <path id="prefix__g" d="M.091.1v1.534l3.881.802s.239-1.042.239-1.603C3.32.174 1.998.044 1.094.044.504.044.09.1.09.1z"/>
        <path id="prefix__i" d="M.091.1v1.534l3.881.802s.239-1.042.239-1.603C3.319.174 1.998.044 1.094.044.504.044.091.1.091.1z"/>
        <path id="prefix__k" d="M.063 2.028l.85 1.45S3.78 2.214 4.123 1.56C4.464.534 2.896.067 2.896.067L.063 2.028z"/>
        <path id="prefix__m" d="M.012 3.708l1.294 1.197 1.437-2.864S2.339.917 1.976.003C.924.512.012 3.708.012 3.708z"/>
        <path id="prefix__o" d="M0.028 0.708L1.376 3.417 2.983 2.857 1.507 0.007z"/>
        <path id="prefix__q" d="M.72.029S-.351.827.256 1.86c1.843.464 3.067.965 3.64 1.522.268-.772.653-.92.886-1.522C2.874.208 1.52.009.98.009c-.17 0-.26.02-.26.02z"/>
        <path id="prefix__s" d="M.72.029S-.351.827.256 1.86c1.843.464 3.067.965 3.64 1.522.268-.772.653-.92.886-1.522C2.874.208 1.52.009.98.009c-.17 0-.26.02-.26.02z"/>
        <path id="prefix__u" d="M.005 1.591c.234.817.407 1.184.466 1.465 1.27.157 3.726-1.221 3.726-1.221L3.451.128S.011 1.174.005 1.59z"/>
        <path id="prefix__w" d="M.027 3.636s1.31.468 1.747.73L2.984.855l-1.48-.73L.028 3.637z"/>
        <path id="prefix__y" d="M0.051 1.003L1.53 3.849 3.008 3.149 1.485 0.07z"/>
    </defs>
    <g fill="none" fill-rule="evenodd">
        <rect width="1200" height="490" fill="#08492C" rx="52"/>
        <g>
            <path fill="#69B482" d="M502.595 76c-10.896 0-20.917 3.862-28.924 9.603h-.04c-4.373 1.914-10.3 4.475-16.162 4.475-4.246 0-7.252-1.34-11.651-3.108-4.225-1.767-9.022-2.89-14.117-2.89-11.458 0-21.432 3.437-26.701 14.92h139c-8.139-15.31-23.618-23-41.405-23M146.003 78.421c-18.11 0-32.79-14.614-32.79-32.642 0-5.326 1.308-10.338 3.58-14.779C104.624 35.772 96 47.55 96 61.357 96 79.385 110.68 94 128.79 94c12.76 0 23.79-7.272 29.21-17.864-3.72 1.459-7.757 2.285-11.997 2.285" transform="translate(282 158)"/>
            <path fill="#0D633E" d="M510 224.499C510 188.325 480.899 159 445.001 159c-35.9 0-65.001 29.325-65.001 65.499C380 260.673 409.101 290 445.001 290 480.899 290 510 260.673 510 224.499" transform="translate(282 158)"/>
            <path fill="#0D633E" d="M544 274.5c0-19.606-15.893-35.5-35.499-35.5S473 254.894 473 274.5s15.895 35.5 35.501 35.5C528.107 310 544 294.106 544 274.5M584.443 241h-14.886c-4.725 0-8.557 3.78-8.557 8.445v78.11c0 4.665 3.832 8.445 8.557 8.445h14.886c4.725 0 8.557-3.78 8.557-8.445v-78.11c0-4.665-3.832-8.445-8.557-8.445M628.443 260h-14.886c-4.725 0-8.557 3.8-8.557 8.49v59.02c0 4.69 3.832 8.49 8.557 8.49h14.886c4.725 0 8.557-3.8 8.557-8.49v-59.02c0-4.69-3.832-8.49-8.557-8.49M446.861 287h-3.722c-1.18 0-2.139.905-2.139 2.02v58.96c0 1.115.958 2.02 2.139 2.02h3.722c1.18 0 2.139-.905 2.139-2.02v-58.96c0-1.115-.958-2.02-2.139-2.02M225.861 221h-3.722c-1.18 0-2.139.905-2.139 2.02v58.96c0 1.115.958 2.02 2.139 2.02h3.722c1.18 0 2.139-.905 2.139-2.02v-58.96c0-1.115-.958-2.02-2.139-2.02" transform="translate(282 158)"/>
            <path fill="#0D633E" d="M578.861 287h-3.722c-1.18 0-2.139.905-2.139 2.02v58.96c0 1.115.958 2.02 2.139 2.02h3.722c1.18 0 2.139-.905 2.139-2.02v-58.96c0-1.115-.958-2.02-2.139-2.02M622.861 287h-3.722c-1.18 0-2.139.905-2.139 2.02v58.96c0 1.115.958 2.02 2.139 2.02h3.722c1.18 0 2.139-.905 2.139-2.02v-58.96c0-1.115-.958-2.02-2.139-2.02M23.443 261H8.557C3.832 261 0 264.802 0 269.49v59.02C0 333.2 3.832 337 8.557 337h14.886c4.725 0 8.557-3.8 8.557-8.49v-59.02c0-4.688-3.832-8.49-8.557-8.49" transform="translate(282 158)"/>
            <path fill="#0D633E" d="M17.861 289H14.14c-1.18 0-2.139.905-2.139 2.02v58.96c0 1.115.958 2.02 2.139 2.02h3.722c1.18 0 2.139-.905 2.139-2.02v-58.96c0-1.115-.958-2.02-2.139-2.02M230 291.5c0 31.756-25.744 57.5-57.501 57.5C140.744 349 115 323.256 115 291.5s25.744-57.5 57.499-57.5C204.256 234 230 259.744 230 291.5" transform="translate(282 158)"/>
            <path fill="#0D633E" d="M131 311.5c0 20.71-16.79 37.5-37.5 37.5S56 332.21 56 311.5 72.79 274 93.5 274s37.5 16.79 37.5 37.5M256 311.5c0 20.71-16.79 37.5-37.5 37.5S181 332.21 181 311.5s16.79-37.5 37.5-37.5 37.5 16.79 37.5 37.5" transform="translate(282 158)"/>
            <path fill="#0D633E" d="M94 348L221 348 221 311 94 311zM409 320c0 17.12 13.88 31 31 31 17.12 0 31-13.88 31-31 0-17.12-13.88-31-31-31-17.12 0-31 13.88-31 31" transform="translate(282 158)"/>
            <path fill="#0D633E" d="M462 331.5c0 11.322 9.178 20.5 20.499 20.5 11.323 0 20.501-9.178 20.501-20.5s-9.178-20.5-20.501-20.5C471.178 311 462 320.178 462 331.5M395 331.5c0 11.322 9.178 20.5 20.499 20.5 11.323 0 20.501-9.178 20.501-20.5s-9.178-20.5-20.501-20.5C404.178 311 395 320.178 395 331.5" transform="translate(282 158)"/>
            <path fill="#0D633E" d="M414 351L483 351 483 331 414 331zM488 331.5c0 11.322 9.177 20.5 20.499 20.5S529 342.822 529 331.5s-9.18-20.5-20.501-20.5C497.177 311 488 320.178 488 331.5" transform="translate(282 158)"/>
            <path fill="#0D633E" d="M523 338.5c0 7.456 6.044 13.5 13.499 13.5 7.457 0 13.501-6.044 13.501-13.5s-6.044-13.5-13.501-13.5c-7.455 0-13.499 6.044-13.499 13.5M479 338.5c0 7.456 6.044 13.5 13.499 13.5 7.457 0 13.501-6.044 13.501-13.5s-6.044-13.5-13.501-13.5c-7.455 0-13.499 6.044-13.499 13.5" transform="translate(282 158)"/>
            <path fill="#0D633E" d="M492 351L537 351 537 338 492 338z" transform="translate(282 158)"/>
            <path fill="#69B482" d="M599.957 125c-5.8 0-11.136.091-15.4 4.065h-.02c-2.328 0-5.483 2.722-8.604 2.722-2.26 0-3.86-.62-6.203-1.6-2.249-.979-4.804-.528-7.516-.528-6.1 0-11.41-.594-14.214 9.341h74c-4.333-9.935-12.574-14-22.043-14M60.957 175c-5.8 0-11.136 1.084-15.4 5.056h-.02c-2.328 0-5.483 2.469-8.604 2.469-2.26 0-3.86-.747-6.203-1.724-2.249-.98-4.804-1.333-7.516-1.333-6.1 0-11.41.588-14.214 8.532h74c-4.333-7.944-12.574-13-22.043-13M138 174s.67.687 1.145 1.718c.53 1.032.848 2.407.855 3.783-.002 1.374-.316 2.749-.85 3.781-.477 1.03-1.15 1.718-1.15 1.718s-.673-.687-1.15-1.718c-.534-1.032-.848-2.407-.85-3.781.007-1.376.325-2.75.855-3.783C137.33 174.688 138 174 138 174" transform="translate(282 158)"/>
            <path fill="#69B482" d="M144 179s-.687.668-1.72 1.143c-1.03.532-2.404.848-3.78.857-1.374-.002-2.749-.319-3.78-.852C133.686 179.672 133 179 133 179s.687-.672 1.72-1.148c1.031-.535 2.406-.85 3.78-.852 1.376.007 2.75.325 3.78.857 1.033.475 1.72 1.143 1.72 1.143M186.5 77s.502.5.858 1.25c.194.375.353.813.46 1.281.113.469.184.97.182 1.469.004 1-.265 2-.638 2.75-.358.75-.862 1.25-.862 1.25s-.504-.5-.862-1.25C185.265 83 184.996 82 185 81c-.002-.5.069-1 .181-1.469.108-.468.267-.906.461-1.28.356-.752.858-1.251.858-1.251" transform="translate(282 158)"/>
            <path fill="#69B482" d="M191 80.5s-.562.502-1.407.857c-.42.194-.913.354-1.44.46-.529.113-1.09.183-1.653.183-1.124.004-2.251-.266-3.093-.638-.845-.358-1.407-.862-1.407-.862s.562-.504 1.407-.862c.842-.372 1.969-.642 3.093-.638.562 0 1.124.07 1.652.183.528.106 1.02.266 1.441.46.845.355 1.407.857 1.407.857M547.5 191s.502.5.858 1.25c.194.375.353.813.46 1.281.113.469.184.97.182 1.469.004 1-.265 2-.638 2.75-.358.75-.862 1.25-.862 1.25s-.504-.5-.862-1.25c-.373-.75-.642-1.75-.638-2.75-.002-.5.069-1 .181-1.469.108-.468.267-.906.461-1.28.356-.752.858-1.251.858-1.251" transform="translate(282 158)"/>
            <path fill="#69B482" d="M552 194.5s-.562.502-1.407.857c-.42.194-.913.354-1.44.46-.529.113-1.09.183-1.653.183-1.124.004-2.251-.266-3.093-.638-.845-.358-1.407-.862-1.407-.862s.562-.504 1.407-.862c.842-.372 1.969-.642 3.093-.638.562 0 1.124.07 1.652.183.528.106 1.02.266 1.441.46.845.355 1.407.857 1.407.857M571 170s.335.437.572 1.093c.255.657.42 1.532.428 2.406-.005.876-.17 1.751-.425 2.408-.239.656-.575 1.093-.575 1.093s-.336-.437-.575-1.093c-.255-.657-.42-1.532-.425-2.408.007-.874.173-1.75.428-2.406.237-.656.572-1.093.572-1.093" transform="translate(282 158)"/>
            <path fill="#69B482" d="M574 173s-.438.336-1.094.572c-.656.253-1.531.421-2.405.428-.876-.005-1.751-.17-2.407-.425-.656-.238-1.094-.575-1.094-.575s.438-.337 1.094-.575c.656-.255 1.531-.42 2.407-.425.874.007 1.75.175 2.405.428.656.236 1.094.572 1.094.572M582 27s.335.437.572 1.093c.255.657.42 1.532.428 2.406-.005.876-.17 1.751-.425 2.408C582.336 33.563 582 34 582 34s-.336-.437-.575-1.093c-.255-.657-.42-1.532-.425-2.408.007-.874.173-1.75.428-2.406.237-.656.572-1.093.572-1.093" transform="translate(282 158)"/>
            <path fill="#69B482" d="M586 30s-.438.336-1.094.572c-.656.253-1.531.421-2.405.428-.876-.005-1.751-.17-2.407-.425C579.438 30.337 579 30 579 30s.438-.337 1.094-.575c.656-.255 1.531-.42 2.407-.425.874.007 1.75.175 2.405.428.656.236 1.094.572 1.094.572M60 0s.335.437.572 1.093c.255.657.42 1.532.428 2.406-.005.876-.17 1.751-.425 2.408C60.336 6.563 60 7 60 7s-.336-.437-.575-1.093c-.255-.657-.42-1.532-.425-2.408.007-.874.173-1.75.428-2.406C59.665.437 60 0 60 0" transform="translate(282 158)"/>
            <path fill="#69B482" d="M64 3s-.438.336-1.094.572c-.656.253-1.531.421-2.405.428-.876-.005-1.751-.17-2.407-.425C57.438 3.337 57 3 57 3s.438-.337 1.094-.575c.656-.255 1.531-.42 2.407-.425.874.007 1.75.175 2.405.428C63.562 2.664 64 3 64 3" transform="translate(282 158)"/>
        </g>
        <path fill="#0D633E" d="M444 545.5c0 3.59 70.962 6.5 158.499 6.5C690.036 552 761 549.09 761 545.5s-70.964-6.5-158.501-6.5S444 541.91 444 545.5"/>
        <path fill="#0D633E" d="M519.159 545H690.84c12.79 0 23.159-10.39 23.159-23.205v-383.59C714 125.39 703.63 115 690.841 115H519.16C506.369 115 496 125.39 496 138.205v383.59C496 534.61 506.37 545 519.159 545"/>
        <path fill="#FFF" d="M517.159 545H688.84c12.79 0 23.159-10.39 23.159-23.205v-383.59C712 125.39 701.63 115 688.841 115H517.16C504.369 115 494 125.39 494 138.205v383.59C494 534.61 504.37 545 517.159 545"/>
        <path fill="#0D744E" d="M681.512 125l-23.382.006c-1.993.002-3.783 1.398-4.092 3.366-1.554 9.854-9.831 13.218-20.14 13.218h-60.181c-10.307 0-19.085-3.371-20.737-13.226-.331-1.976-2.14-3.364-4.143-3.364h-22.732C514.497 125 505 134.499 505 146.107v368.666c0 11.171 9.054 20.227 20.223 20.227h156.554c11.169 0 20.223-9.056 20.223-20.227V145.227c0-11.453-9.035-20.227-20.488-20.227"/>
        <path fill="#FFF" d="M562.149 530h80.702c.634 0 1.149-.418 1.149-.932v-.136c0-.514-.515-.932-1.149-.932H562.15c-.634 0-1.149.418-1.149.932v.136c0 .514.515.932 1.149.932"/>
        <g>
            <path fill="#FFF" d="M8.038 27.365c1.396 0 2.157-.514 2.664-1.285.444-.643.603-1.253.603-5.142 0-3.856-.159-4.498-.603-5.141-.507-.772-1.268-1.286-2.664-1.286H5.595v12.854h2.443zm-4.615 5.013c-.825 0-1.856 0-2.633-.787-.777-.787-.777-1.832-.777-2.667V12.953c0-.836 0-1.88.777-2.667.777-.788 1.808-.788 2.633-.788h4.996c3.393 0 5.773 1.318 7.327 3.857 1.11 1.831 1.11 3.63 1.11 7.583 0 3.953 0 5.752-1.11 7.584-1.554 2.539-3.934 3.856-7.327 3.856H3.423zM31.32 6.124c-.348.563-.682 1.093-1.062 1.366-.349.241-.666.353-1.094.353-.413 0-.825-.128-1.206-.37-.761-.481-1.11-1.188-1.047-1.895.048-.546.207-.868.762-1.768l1.19-1.928c.348-.562.681-1.092 1.062-1.365.349-.241.666-.354 1.094-.354.413 0 .825.129 1.205.37.762.482 1.11 1.189 1.047 1.896-.047.546-.206.867-.76 1.767l-1.19 1.928zm.286 14.814c0-4.177-.317-4.949-.825-5.623-.412-.547-1.205-.996-2.22-.996-1.015 0-1.808.45-2.22.996-.508.674-.825 1.446-.825 5.623 0 4.178.317 4.917.824 5.592.413.546 1.206 1.028 2.221 1.028 1.015 0 1.808-.482 2.22-1.028.508-.675.825-1.414.825-5.592zm-3.045 11.633c-2.76 0-4.679-.868-6.297-2.506-2.3-2.33-2.331-5.27-2.331-9.127 0-3.856.032-6.796 2.331-9.126 1.618-1.639 3.537-2.507 6.297-2.507s4.679.868 6.296 2.507c2.3 2.33 2.332 5.27 2.332 9.126s-.032 6.797-2.332 9.127c-1.617 1.638-3.536 2.506-6.296 2.506zM57.934 31.64c-.57.577-1.237.867-2.093.867-1.269 0-2.046-.804-3.283-2.667l-6.011-8.966v7.841c0 1.285-.016 1.735-.35 2.41-.396.803-1.331 1.382-2.442 1.382-1.11 0-2.045-.579-2.442-1.382-.333-.675-.349-1.125-.349-2.41V12.84c0-1.092.095-1.96.73-2.603.57-.578 1.237-.867 2.093-.867 1.269 0 2.046.803 3.283 2.667l6.01 8.966v-7.841c0-1.286.017-1.736.35-2.41.397-.804 1.332-1.382 2.442-1.382s2.046.578 2.443 1.382c.333.674.349 1.124.349 2.41v15.874c0 1.093-.095 1.96-.73 2.603M71.194 27.365c1.396 0 2.157-.514 2.664-1.285.445-.643.603-1.253.603-5.142 0-3.856-.158-4.498-.603-5.141-.507-.772-1.268-1.286-2.664-1.286h-2.442v12.854h2.442zm-4.615 5.013c-.825 0-1.856 0-2.633-.787-.777-.787-.777-1.832-.777-2.667V12.953c0-.836 0-1.88.777-2.667.777-.788 1.808-.788 2.633-.788h4.996c3.394 0 5.773 1.318 7.327 3.857 1.11 1.831 1.11 3.63 1.11 7.583 0 3.953 0 5.752-1.11 7.584-1.554 2.539-3.933 3.856-7.327 3.856h-4.996zM87.228 32.378c-.824 0-1.855 0-2.632-.787-.778-.787-.778-1.832-.778-2.667V12.953c0-.836 0-1.88.778-2.667.777-.788 1.808-.788 2.632-.788h8.803c1.142 0 1.57.033 2.125.305.698.338 1.206 1.206 1.206 2.202s-.508 1.864-1.206 2.201c-.555.273-.983.305-2.125.305H89.4v3.824h5.202c1.142 0 1.57.033 2.126.306.697.337 1.205 1.205 1.205 2.201s-.508 1.864-1.205 2.2c-.555.274-.984.306-2.126.306h-5.202v4.017h6.63c1.142 0 1.57.033 2.125.305.698.338 1.206 1.205 1.206 2.202 0 .996-.508 1.864-1.206 2.201-.555.273-.983.305-2.125.305h-8.803zM8.736 50.632c1.522 0 2.41-1.125 2.41-2.314 0-1.205-.888-2.346-2.41-2.346h-3.14v4.66h3.14zm-1.253 4.69H5.595v4.853c0 1.286-.015 1.736-.348 2.41-.397.804-1.333 1.382-2.443 1.382S.758 63.39.362 62.586c-.334-.675-.35-1.125-.35-2.41V44.412c0-.835 0-1.88.778-2.667.777-.787 1.808-.787 2.633-.787h5.566c5.012 0 7.709 3.599 7.709 7.359 0 2.426-1.27 4.691-3.6 5.945l2.664 4.74c.634 1.124.824 1.622.824 2.33 0 .963-.475 1.719-1.363 2.233-.445.257-.92.401-1.396.401-1.428 0-2.11-1.124-2.744-2.25l-3.6-6.394zM24.104 63.839c-.824 0-1.855 0-2.633-.788-.776-.787-.776-1.831-.776-2.667v-15.97c0-.836 0-1.88.776-2.668.778-.787 1.809-.787 2.633-.787h8.803c1.142 0 1.57.032 2.125.305.698.337 1.205 1.205 1.205 2.201 0 .997-.507 1.864-1.205 2.202-.555.273-.983.305-2.125.305h-6.63v3.824h5.202c1.142 0 1.57.032 2.126.305.697.337 1.205 1.205 1.205 2.202 0 .996-.508 1.863-1.205 2.2-.555.274-.984.306-2.126.306h-5.202v4.017h6.63c1.142 0 1.57.032 2.125.305.698.338 1.205 1.205 1.205 2.201 0 .997-.507 1.864-1.205 2.202-.555.273-.983.305-2.125.305h-8.803zM41.519 43.273c1.618-1.64 3.537-2.507 6.233-2.507 2.76 0 4.298.466 5.694 1.735 1.713 1.559 2.14 3.246 2.14 4.242s-.269 1.623-.776 2.137c-.508.514-1.19.787-1.92.787-.618 0-1.11-.16-1.49-.434-.603-.417-1-1.028-1.475-1.88-.635-1.14-1.3-1.574-2.3-1.574-.952 0-1.586.45-1.998.996-.65.868-.857 1.864-.857 5.624s.207 4.756.857 5.623c.412.547 1.046.997 1.998.997 1 0 1.665-.434 2.3-1.575.475-.851.872-1.462 1.475-1.88.38-.273.872-.434 1.49-.434.73 0 1.412.273 1.92.787.507.515.777 1.141.777 2.138 0 .996-.428 2.683-2.141 4.241-1.396 1.27-2.935 1.736-5.694 1.736-2.696 0-4.615-.868-6.233-2.507-2.3-2.33-2.331-5.27-2.331-9.126s.031-6.797 2.33-9.126M59.092 44.622c0-1.285.016-1.735.35-2.41.396-.803 1.331-1.382 2.442-1.382 1.11 0 2.046.579 2.442 1.382.333.675.35 1.125.35 2.41v15.554c0 1.285-.017 1.735-.35 2.41-.396.803-1.332 1.381-2.442 1.381s-2.046-.578-2.443-1.381c-.333-.675-.349-1.125-.349-2.41V44.622zM70.781 43.273c1.618-1.64 3.537-2.507 6.233-2.507 2.76 0 4.298.466 5.694 1.735 1.713 1.559 2.141 3.246 2.141 4.242s-.27 1.623-.777 2.137c-.508.514-1.19.787-1.92.787-.618 0-1.11-.16-1.49-.434-.603-.417-1-1.028-1.475-1.88-.634-1.14-1.3-1.574-2.3-1.574-.952 0-1.586.45-1.998.996-.65.868-.857 1.864-.857 5.624s.207 4.756.857 5.623c.412.547 1.046.997 1.998.997 1 0 1.666-.434 2.3-1.575.476-.851.872-1.462 1.475-1.88.38-.273.872-.434 1.49-.434.73 0 1.412.273 1.92.787.507.515.777 1.141.777 2.138 0 .996-.428 2.683-2.141 4.241-1.396 1.27-2.934 1.736-5.694 1.736-2.696 0-4.615-.868-6.233-2.507-2.3-2.33-2.331-5.27-2.331-9.126s.031-6.797 2.331-9.126M91.764 63.839c-.824 0-1.855 0-2.633-.788-.777-.787-.777-1.831-.777-2.667V44.622c0-1.285.016-1.735.35-2.41.396-.803 1.332-1.382 2.442-1.382s2.046.579 2.442 1.382c.333.675.349 1.125.349 2.41v14.204h6.281c1.142 0 1.57.032 2.125.305.698.338 1.205 1.205 1.205 2.201 0 .997-.507 1.864-1.205 2.202-.555.273-.983.305-2.094.305h-8.485zM117.506 52.399c0-4.178-.318-4.949-.825-5.624-.412-.546-1.205-.996-2.22-.996-1.016 0-1.809.45-2.221.996-.508.675-.825 1.446-.825 5.624 0 4.177.317 4.917.825 5.591.412.546 1.205 1.029 2.22 1.029 1.016 0 1.809-.483 2.22-1.029.508-.674.826-1.414.826-5.591m-3.046 11.633c-2.76 0-4.678-.868-6.296-2.507-2.3-2.33-2.331-5.27-2.331-9.126s.031-6.797 2.33-9.126c1.619-1.64 3.538-2.507 6.297-2.507 2.76 0 4.679.868 6.297 2.507 2.3 2.33 2.331 5.27 2.331 9.126s-.032 6.796-2.331 9.126c-1.618 1.639-3.537 2.507-6.297 2.507" transform="translate(540.966 307.903)"/>
            <path fill="#7DBD20" d="M109.88 15.494l1.846.776c-4.004 3.28-3.204 16.792 9.75 13.053l-.974-1.835c-8.741 2.717-10.238-6.633-7.592-9.172 0 .86.07 1.093.07 1.093h2.089l-.035-4.41-4.596-1.515-.557 2.01z" transform="translate(540.966 307.903)"/>
            <g transform="translate(540.966 307.903) translate(109.676 13.576)">
                <mask id="prefix__b" fill="#fff">
                    <use xlink:href="#prefix__a"/>
                </mask>
                <path fill="#7DBD20" d="M-446.853 115.937L210.438 115.937 210.438 -210.347 -446.853 -210.347z" mask="url(#prefix__b)"/>
                <path fill="#7DBD20" d="M-3.995 20.914L15.975 20.914 15.975 -4.099 -3.995 -4.099z" mask="url(#prefix__b)"/>
            </g>
            <path fill="#7DBD20" d="M127.606 27.275l-1.846-.776c4.007-3.28 3.205-16.789-9.756-13.05l.975 1.834c8.746-2.716 10.244 6.63 7.596 9.17 0-.86-.07-1.093-.07-1.093h-2.091l.036 4.41 4.598 1.515.558-2.01z" transform="translate(540.966 307.903)"/>
            <g transform="translate(540.966 307.903) translate(115.812 12.8)">
                <mask id="prefix__d" fill="#fff">
                    <use xlink:href="#prefix__c"/>
                </mask>
                <path fill="#7DBD20" d="M-457.035 117.067L206.004 117.067 206.004 -210.44 -457.035 -210.44z" mask="url(#prefix__d)"/>
            </g>
            <g transform="translate(540.966 307.903) translate(115.812 12.8)">
                <mask id="prefix__f" fill="#fff">
                    <use xlink:href="#prefix__e"/>
                </mask>
                <path fill="#7DBD20" d="M-4.109 20.857L16.036 20.857 16.036 -4.249 -4.109 -4.249z" mask="url(#prefix__f)"/>
            </g>
            <path fill="#7DBD20" d="M109.101 19.061c0 .592-.233 1.69-.233 1.69l-3.794-.844v-1.618s2.588-.374 4.027.772" transform="translate(540.966 307.903)"/>
            <g transform="translate(540.966 307.903) translate(104.883 18.424)">
                <mask id="prefix__h" fill="#fff">
                    <use xlink:href="#prefix__g"/>
                </mask>
                <path fill="#7DBD20" d="M-462.187 107.933L224.554 107.933 224.554 -208.911 -462.187 -208.911z" mask="url(#prefix__h)"/>
            </g>
            <g transform="translate(540.966 307.903) translate(104.883 18.424)">
                <mask id="prefix__j" fill="#fff">
                    <use xlink:href="#prefix__i"/>
                </mask>
                <path fill="#7DBD20" d="M-4.212 6.551L8.514 6.551 8.514 -4.071 -4.212 -4.071z" mask="url(#prefix__j)"/>
            </g>
            <path fill="#7DBD20" d="M105.841 27.69l.834 1.401s2.81-1.22 3.145-1.852c.335-.994-1.202-1.445-1.202-1.445l-2.777 1.897z" transform="translate(540.966 307.903)"/>
            <g transform="translate(540.966 307.903) translate(105.841 25.6)">
                <mask id="prefix__l" fill="#fff">
                    <use xlink:href="#prefix__k"/>
                </mask>
                <path fill="#7DBD20" d="M-456.299 102.711L220.321 102.711 220.321 -220.444 -456.299 -220.444z" mask="url(#prefix__l)"/>
                <path fill="#7DBD20" d="M-4.176 7.674L8.411 7.674 8.411 -4.13 -4.176 -4.13z" mask="url(#prefix__l)"/>
            </g>
            <path fill="#7DBD20" d="M114.591 35.685l-1.272-1.23s.896-3.288 1.93-3.812c.358.94.755 2.096.755 2.096l-1.413 2.946z" transform="translate(540.966 307.903)"/>
            <g transform="translate(540.966 307.903) translate(113.128 30.643)">
                <mask id="prefix__n" fill="#fff">
                    <use xlink:href="#prefix__m"/>
                </mask>
                <path fill="#7DBD20" d="M-470.599 96.874L215.859 96.874 215.859 -223.414 -470.599 -223.414z" mask="url(#prefix__n)"/>
                <path fill="#7DBD20" d="M-4.289 9.065L7.044 9.065 7.044 -4.157 -4.289 -4.157z" mask="url(#prefix__n)"/>
            </g>
            <path fill="#7DBD20" d="M121.564 31.32L122.876 33.94 124.44 33.398 123.003 30.643z" transform="translate(540.966 307.903)"/>
            <g transform="translate(540.966 307.903) translate(121.564 30.643)">
                <mask id="prefix__p" fill="#fff">
                    <use xlink:href="#prefix__o"/>
                </mask>
                <path fill="#7DBD20" d="M-473.009 97.745L204.813 97.745 204.813 -225.41 -473.009 -225.41z" mask="url(#prefix__p)"/>
                <path fill="#7DBD20" d="M-4.219 7.614L7.231 7.614 7.231 -4.19 -4.219 -4.19z" mask="url(#prefix__p)"/>
            </g>
            <path fill="#7DBD20" d="M128.457 26.052c-.593-1.01.455-1.79.455-1.79s1.515-.336 3.965 1.79c-.227.589-.604.732-.866 1.488-.559-.545-1.754-1.035-3.554-1.488" transform="translate(540.966 307.903)"/>
            <g transform="translate(540.966 307.903) translate(128.275 24.049)">
                <mask id="prefix__r" fill="#fff">
                    <use xlink:href="#prefix__q"/>
                </mask>
                <path fill="#7DBD20" d="M-473.465 106.207L195.438 106.207 195.438 -222.823 -473.465 -222.823z" mask="url(#prefix__r)"/>
            </g>
            <g transform="translate(540.966 307.903) translate(128.275 24.049)">
                <mask id="prefix__t" fill="#fff">
                    <use xlink:href="#prefix__s"/>
                </mask>
                <path fill="#7DBD20" d="M-4.122 7.657L8.972 7.657 8.972 -4.264 -4.122 -4.264z" mask="url(#prefix__t)"/>
            </g>
            <path fill="#7DBD20" d="M127.892 15.993c.234.81.41 1.172.468 1.45 1.278.155 3.75-1.208 3.75-1.208l-.75-1.69s-3.464 1.036-3.468 1.448" transform="translate(540.966 307.903)"/>
            <g transform="translate(540.966 307.903) translate(127.892 14.352)">
                <mask id="prefix__v" fill="#fff">
                    <use xlink:href="#prefix__u"/>
                </mask>
                <path fill="#7DBD20" d="M-472.193 118.956L195.318 118.956 195.318 -218.511 -472.193 -218.511z" mask="url(#prefix__v)"/>
                <path fill="#7DBD20" d="M-4.177 7.451L8.38 7.451 8.38 -4.255 -4.177 -4.255z" mask="url(#prefix__v)"/>
            </g>
            <path fill="#7DBD20" d="M121.18 11.063s1.36.492 1.813.767l1.256-3.693-1.535-.767-1.533 3.693z" transform="translate(540.966 307.903)"/>
            <g transform="translate(540.966 307.903) translate(120.989 7.37)">
                <mask id="prefix__x" fill="#fff">
                    <use xlink:href="#prefix__w"/>
                </mask>
                <path fill="#7DBD20" d="M-447.733 118.064L194.414 118.064 194.414 -197.257 -447.733 -197.257z" mask="url(#prefix__x)"/>
                <path fill="#7DBD20" d="M-3.997 8.461L7.007 8.461 7.007 -3.97 -3.997 -3.97z" mask="url(#prefix__x)"/>
            </g>
            <path fill="#7DBD20" d="M111.785 9.879L113.273 8.921 114.853 12.082 113.32 12.8z" transform="translate(540.966 307.903)"/>
            <g transform="translate(540.966 307.903) translate(111.785 8.921)">
                <mask id="prefix__z" fill="#fff">
                    <use xlink:href="#prefix__y"/>
                </mask>
                <path fill="#7DBD20" d="M-438.749 119.184L203.398 119.184 203.398 -203.395 -438.749 -203.395z" mask="url(#prefix__z)"/>
                <path fill="#7DBD20" d="M-3.972 8.038L7.032 8.038 7.032 -4.119 -3.972 -4.119z" mask="url(#prefix__z)"/>
            </g>
        </g>
    </g>
</svg>
