<svg xmlns="http://www.w3.org/2000/svg" width="1200" height="600" viewBox="0 0 1200 600">
    <g fill="none" fill-rule="evenodd">
        <g>
            <g fill="#0D633E">
                <path d="M71.834 176.733L137.966 176.733 137.966 17.103 71.834 17.103z" transform="translate(0 276.025) translate(230 39)"/>
                <path d="M110.601 175.593L240.586 175.593 240.586 57.011 110.601 57.011zM0 175.593L66.133 175.593 66.133 59.291 0 59.291z" transform="translate(0 276.025) translate(230 39)"/>
                <path d="M148.228 142.527L182.435 142.527 182.435 26.225 148.228 26.225zM190.416 152.789L224.622 152.789 224.622 36.487 190.416 36.487zM197.257 36.487L218.921 36.487 218.921 28.505 197.257 28.505zM153.649 26.225L177.593 26.225 177.593 15.963 153.649 15.963z" transform="translate(0 276.025) translate(230 39)"/>
                <path d="M218.921 166.471L253.128 166.471 253.128 50.169 218.921 50.169z" transform="translate(0 276.025) translate(230 39)"/>
                <path d="M250.847 175.593L285.054 175.593 285.054 62.712 250.847 62.712z" transform="translate(0 276.025) translate(230 39)"/>
                <path d="M258.829 64.992L277.072 64.992 277.072 51.31 258.829 51.31zM222.342 53.59L248.567 53.59 248.567 39.908 222.342 39.908z" transform="translate(0 276.025) translate(230 39)"/>
                <path d="M241.63 22.804L229.277 22.804 222.342 41.048 248.567 41.048zM37.627 175.593L167.612 175.593 167.612 84.593 37.627 84.593z" transform="translate(0 276.025) translate(230 39)"/>
                <path d="M156.21 175.593L286.194 175.593 286.194 78.675 156.21 78.675zM236.025 18.243V0v18.243zM232.604 21.664h10.262-10.262z" transform="translate(0 276.025) translate(230 39)"/>
            </g>
            <g fill="#0D633E">
                <path d="M71.834 177.733L137.966 177.733 137.966 15.733 71.834 15.733z" transform="translate(0 276.025) translate(914 38)"/>
                <path d="M110.601 176.593L240.586 176.593 240.586 58.011 110.601 58.011zM0 176.593L66.133 176.593 66.133 60.291 0 60.291z" transform="translate(0 276.025) translate(914 38)"/>
                <path d="M148.228 143.527L182.435 143.527 182.435 27.225 148.228 27.225zM190.416 153.789L224.622 153.789 224.622 37.487 190.416 37.487zM197.257 37.487L218.921 37.487 218.921 29.505 197.257 29.505z" transform="translate(0 276.025) translate(914 38)"/>
                <path d="M88.937 15.823L118.582 15.823 118.582 0.823 88.937 0.823z" transform="translate(0 276.025) translate(914 38) matrix(1 0 0 -1 0 16.646)"/>
                <path d="M218.921 167.471L253.128 167.471 253.128 51.169 218.921 51.169z" transform="translate(0 276.025) translate(914 38)"/>
                <path d="M250.847 176.593L285.054 176.593 285.054 63.712 250.847 63.712z" transform="translate(0 276.025) translate(914 38)"/>
                <path d="M258.829 65.992L277.072 65.992 277.072 52.31 258.829 52.31zM222.342 54.59L248.567 54.59 248.567 40.908 222.342 40.908z" transform="translate(0 276.025) translate(914 38)"/>
                <path d="M241.63 23.804L229.277 23.804 222.342 42.048 248.567 42.048zM37.627 176.593L167.612 176.593 167.612 71.593 37.627 71.593z" transform="translate(0 276.025) translate(914 38)"/>
                <path d="M156.21 176.593L286.194 176.593 286.194 79.675 156.21 79.675zM236.025 19.243V1v18.243zM232.604 22.664h10.262-10.262z" transform="translate(0 276.025) translate(914 38)"/>
            </g>
            <g fill="#0D633E">
                <path d="M71.834 199.733L137.966 199.733 137.966 0.733 71.834 0.733z" transform="translate(0 276.025) translate(0 16)"/>
                <path d="M110.601 198.593L240.586 198.593 240.586 80.011 110.601 80.011zM0 198.593L66.133 198.593 66.133 82.291 0 82.291z" transform="translate(0 276.025) translate(0 16)"/>
                <path d="M148.228 165.527L182.435 165.527 182.435 49.225 148.228 49.225zM190.416 175.789L224.622 175.789 224.622 59.487 190.416 59.487zM197.257 59.487L218.921 59.487 218.921 51.505 197.257 51.505z" transform="translate(0 276.025) translate(0 16)"/>
                <path d="M218.921 189.471L253.128 189.471 253.128 73.169 218.921 73.169z" transform="translate(0 276.025) translate(0 16)"/>
                <path d="M250.847 198.593L285.054 198.593 285.054 85.712 250.847 85.712z" transform="translate(0 276.025) translate(0 16)"/>
                <path d="M258.829 87.992L277.072 87.992 277.072 74.31 258.829 74.31zM222.342 76.59L248.567 76.59 248.567 62.908 222.342 62.908z" transform="translate(0 276.025) translate(0 16)"/>
                <path d="M241.63 45.804L229.277 45.804 222.342 64.048 248.567 64.048zM37.627 198.593L167.612 198.593 167.612 101.675 37.627 101.675z" transform="translate(0 276.025) translate(0 16)"/>
                <path d="M156.21 198.593L286.194 198.593 286.194 101.675 156.21 101.675zM236.025 41.243V23v18.243zM232.604 44.664h10.262-10.262z" transform="translate(0 276.025) translate(0 16)"/>
            </g>
            <g>
                <path fill="#69B482" d="M434.53 71.62c0 39.555-31.93 71.62-71.317 71.62-39.389 0-71.319-32.065-71.319-71.62 0-39.554 31.93-71.62 71.319-71.62C402.6 0 434.53 32.066 434.53 71.62" transform="translate(0 276.025) translate(472.325 .686)"/>
                <path fill="#0D633E" d="M282.391 214.97L349.137 214.97 349.137 56.062 282.391 56.062z" transform="translate(0 276.025) translate(472.325 .686)"/>
                <path fill="#0D633E" d="M322.165 214.97L452.452 214.97 452.452 97.134 322.165 97.134zM211.989 214.911L278.735 214.911 278.735 99.218 211.989 99.218z" transform="translate(0 276.025) translate(472.325 .686)"/>
                <path fill="#0D633E" d="M358.873 180.939L392.873 180.939 392.873 65.246 358.873 65.246zM402.682 190.121L436.735 190.121 436.735 74.428 402.682 74.428z" transform="translate(0 276.025) translate(472.325 .686)"/>
                <path fill="#0D633E" d="M409.112 74.84L429.93 74.84 429.93 67.539 409.112 67.539zM301.266 56.614L330.262 56.614 330.262 51.808 301.266 51.808zM364.272 65.199L387.473 65.199 387.473 54.461 364.272 54.461z" transform="translate(0 276.025) translate(472.325 .686)"/>
                <path fill="#0D633E" d="M387.474 54.525L364.273 54.525 375.873 40.081zM431.025 203.894L465.079 203.894 465.079 88.201 431.025 88.201z" transform="translate(0 276.025) translate(472.325 .686)"/>
                <path fill="#0D633E" d="M463.026 215.169L497.08 215.169 497.08 102.89 463.026 102.89zM470.738 102.89L489.368 102.89 489.368 90.05 470.738 90.05zM434.282 91.183L460.225 91.183 460.225 78.343 434.282 78.343z" transform="translate(0 276.025) translate(472.325 .686)"/>
                <path fill="#0D633E" d="M453.363 61.813L441.144 61.813 434.282 78.787 460.225 78.787zM249.021 215.147L379.308 215.147 379.308 117.641 249.021 117.641z" transform="translate(0 276.025) translate(472.325 .686)"/>
                <path fill="#0D633E" d="M366.967 215.147L497.254 215.147 497.254 117.641 366.967 117.641zM447.615 40.081L447.615 57.822M453.504 59.793L443.69 59.793M70.402 214.97L137.147 214.97 137.147 87.619 70.402 87.619z" transform="translate(0 276.025) translate(472.325 .686)"/>
                <path fill="#0D633E" d="M110.176 214.97L240.463 214.97 240.463 116.858 110.176 116.858zM0 214.911L66.745 214.911 66.745 99.218 0 99.218z" transform="translate(0 276.025) translate(472.325 .686)"/>
                <path fill="#0D633E" d="M146.883 180.939L180.884 180.939 180.884 102.721 146.883 102.721zM190.692 190.121L224.746 190.121 224.746 74.428 190.692 74.428z" transform="translate(0 276.025) translate(472.325 .686)"/>
                <path fill="#0D633E" d="M197.123 74.84L217.941 74.84 217.941 67.539 197.123 67.539zM89.277 88.173L118.272 88.173 118.272 83.367 89.277 83.367zM152.283 102.676L175.484 102.676 175.484 91.938 152.283 91.938z" transform="translate(0 276.025) translate(472.325 .686)"/>
                <path fill="#0D633E" d="M175.484 92.001L152.283 92.001 164.506 77.13zM219.036 203.894L253.09 203.894 253.09 88.201 219.036 88.201z" transform="translate(0 276.025) translate(472.325 .686)"/>
                <path fill="#0D633E" d="M251.037 215.169L285.09 215.169 285.09 102.89 251.037 102.89zM258.749 102.89L277.378 102.89 277.378 90.05 258.749 90.05zM222.291 91.183L248.234 91.183 248.234 78.343 222.291 78.343z" transform="translate(0 276.025) translate(472.325 .686)"/>
                <path fill="#0D633E" d="M241.373 61.813L229.154 61.813 222.292 78.787 248.235 78.787zM37.031 215.147L167.319 215.147 167.319 117.641 37.031 117.641z" transform="translate(0 276.025) translate(472.325 .686)"/>
                <path fill="#0D633E" d="M154.978 215.147L285.265 215.147 285.265 117.641 154.978 117.641zM235.626 40.081L235.626 57.822M241.515 59.793L231.7 59.793" transform="translate(0 276.025) translate(472.325 .686)"/>
            </g>
        </g>
        <g fill="#08492C">
            <path d="M767.624 80.922H888.58V1.972h-26.805c-10.75 0-20.97 6.805-27.99 18.64-7.024 11.837-17.24 18.642-27.99 18.642h-20.607c-9.167 0-18.005 4.952-24.803 13.893-7.41 9.75-2.71 27.775 7.24 27.775M978.501 80.922H888.58V1.972h19.927c7.992 0 15.59 6.805 20.809 18.64 5.221 11.837 12.816 18.642 20.809 18.642h15.319c6.814 0 13.385 4.952 18.439 13.893 5.508 9.75 2.015 27.775-5.382 27.775M269.956 78.95H149V0h26.805c10.75 0 20.97 6.805 27.99 18.64 7.023 11.837 17.24 18.642 27.99 18.642h20.607c9.167 0 18.005 4.951 24.803 13.893 7.41 9.75 2.71 27.774-7.24 27.774M12.283 78.95H149V0h-30.298c-12.151 0-23.701 6.805-31.637 18.64-7.939 11.837-19.487 18.642-31.638 18.642H32.136c-10.361 0-20.352 4.951-28.035 13.893-8.375 9.75-3.064 27.774 8.182 27.774" transform="translate(81 429.045)"/>
        </g>
        <g fill="#69B482">
            <path d="M105.958 0c-10.295 0-19.764 2.839-27.33 8.752h-.038c-4.132 1.971-9.734 4.441-15.271 4.441-4.012 0-6.852-1.214-11.01-2.911-3.992-1.695-8.527-2.415-13.34-2.415-10.827 0-20.25 2.882-25.228 14.684h131.341C137.392 6.324 122.764 0 105.958 0M596.142 108.285c-5.196 0-9.975 1-13.793 4.942h-.02c-2.084 0-4.91 2.044-7.706 2.044-2.026 0-3.458-.71-5.557-1.567-2.014-.855-4.302-1.597-6.73-1.597-5.465 0-10.221 1.12-12.733 7.034h66.283c-3.88-7.885-11.262-10.856-19.744-10.856M49.215 134.443c-5.494 0-10.549.469-14.586 4.411h-.02c-2.204 0-5.194 2.11-8.15 2.11-2.141 0-3.656-.777-5.876-1.684-2.13-.905-4.55-.834-7.118-.834-5.778 0-10.807.408-13.465 8.293H70.094c-4.104-7.885-11.909-12.296-20.88-12.296M528.75 71.832l-1.14.423-1.21.495c-.45.172-.947.438-1.47.647-1.05.49-2.208 1.025-3.413 1.626-.603.298-1.211.635-1.841.927-.605.372-1.264.619-1.877 1-.63.35-1.28.647-1.9 1.014-.61.375-1.283.633-1.88 1.002-.609.344-1.235.64-1.833.932-.581.32-1.155.603-1.706.855-1.133.466-2.045.953-2.787 1.2-.719.273-1.188.391-1.188.391s.084-.46.336-1.198c.267-.728.622-1.812 1.319-2.908.341-.554.734-1.143 1.174-1.748.469-.578 1.003-1.157 1.576-1.739.555-.601 1.244-1.106 1.927-1.63.664-.552 1.465-.948 2.222-1.402 1.563-.83 3.278-1.411 4.939-1.697 1.662-.29 3.272-.244 4.607-.02 1.346.265 2.412.688 3.11 1.088.703.4 1.035.742 1.035.742" transform="translate(302.208 96.377)"/>
            <path d="M484.913 71.832s.332-.341 1.034-.742c.7-.4 1.765-.823 3.112-1.088 1.334-.224 2.944-.27 4.606.02 1.661.286 3.377.867 4.939 1.697.758.454 1.558.85 2.222 1.402.683.524 1.372 1.029 1.927 1.63.574.582 1.108 1.161 1.577 1.739.44.605.832 1.194 1.173 1.748.697 1.096 1.053 2.18 1.32 2.908.25.739.335 1.198.335 1.198s-.469-.118-1.187-.39c-.742-.248-1.655-.735-2.788-1.2-.551-.253-1.124-.537-1.705-.856-.6-.292-1.225-.588-1.834-.932-.596-.37-1.27-.627-1.88-1.002-.62-.367-1.27-.664-1.9-1.013-.613-.382-1.272-.629-1.877-1.001-.63-.292-1.238-.63-1.84-.927-1.206-.601-2.364-1.135-3.414-1.626-.522-.21-1.019-.475-1.47-.647l-1.21-.495-1.14-.423M471.827 94.727s-1.034.378-2.267.92c-.593.284-1.284.617-2.024.974-.714.357-1.46.737-2.206 1.143-.763.407-1.527.815-2.243 1.195-.739.384-1.45.755-2.105 1.053-.66.291-1.21.57-1.648.72-.43.159-.705.232-.705.232s.055-.27.2-.712c.161-.428.363-1.08.79-1.717.38-.682.928-1.401 1.624-2.075.328-.357.738-.657 1.143-.968.394-.328.87-.564 1.319-.832 1.847-1.013 4.079-1.327 5.663-1.01.797.138 1.43.403 1.845.637.418.243.614.44.614.44" transform="translate(302.208 96.377)"/>
            <path d="M445.82 94.727s.195-.197.614-.44c.414-.234 1.048-.499 1.845-.636 1.584-.318 3.815-.004 5.663 1.009.449.268.924.504 1.319.832.404.311.814.61 1.142.968.697.674 1.244 1.393 1.625 2.075.426.637.628 1.29.79 1.717.145.442.2.712.2.712s-.275-.073-.705-.233c-.438-.15-.99-.428-1.649-.72-.656-.297-1.366-.668-2.104-1.052-.717-.38-1.48-.788-2.244-1.195-.746-.406-1.492-.786-2.206-1.143-.74-.357-1.43-.69-2.024-.974-1.232-.542-2.267-.92-2.267-.92" transform="translate(302.208 96.377)"/>
        </g>
        <g>
            <path stroke="#FFF" stroke-linecap="round" stroke-width="11.61" d="M276.072 277.876L182.242 185.439" transform="translate(472.486 166.27)"/>
            <path stroke="#0D633E" stroke-linecap="square" stroke-width="11.61" d="M192.041 195.094L182.242 185.441" transform="translate(472.486 166.27)"/>
            <path fill="#0D633E" d="M.038 114.616c.6 62.695 51.696 113.03 114.125 112.427 62.429-.604 112.55-51.914 111.95-114.61C225.512 49.74 174.417-.595 111.988.006 49.558.61-.562 51.921.038 114.616" transform="translate(472.486 166.27)"/>
            <path fill="#FFF" d="M.005 111.226c.583 60.822 50.151 109.655 110.716 109.07 60.564-.586 109.19-50.366 108.607-111.188C218.745 48.286 169.177-.547 108.612.038 48.048.625-.578 50.405.005 111.227" transform="translate(472.486 166.27)"/>
            <path fill="#0D633E" d="M24.092 114.384c.446 46.544 38.378 83.913 84.725 83.465 46.347-.447 83.56-38.541 83.114-85.086-.446-46.544-38.38-83.912-84.727-83.465-46.347.448-83.557 38.541-83.112 85.086" transform="translate(472.486 166.27)"/>
            <path fill="#69B482" d="M117.338 29.832c-41.52 5.427-73.403 41.256-72.99 84.357.413 43.098 32.975 78.306 74.592 82.93 41.519-5.426 73.403-41.257 72.99-84.356-.413-43.098-32.975-78.306-74.592-82.93" transform="translate(472.486 166.27)"/>
            <path fill="#FFF" d="M71.257 171.395c0 6.435.634 12.719 1.806 18.808 10.878 5.013 22.995 7.77 35.756 7.646 46.347-.447 83.557-38.541 83.111-85.086-.135-14.143-3.749-27.43-9.993-39.075-4.114-.528-8.3-.832-12.558-.832-54.19 0-98.122 44.118-98.122 98.54" opacity=".3" transform="translate(472.486 166.27)"/>
            <path stroke="#FFF" stroke-linecap="round" stroke-width="3.87" d="M156.236 68.568c-10.204-13.357-26.32-21.903-44.374-21.729M172.78 111.89c-.068-7.092-1.458-13.86-3.933-20.07" opacity=".7" transform="translate(472.486 166.27)"/>
            <path fill="#69B482" d="M264.223 290.007L211.459 232.989 202.367 223.165 220.186 204.923 230.142 213.862 287.923 265.745 300.55 277.083 275.755 302.467z" transform="translate(472.486 166.27)"/>
            <path fill="#08492C" d="M295.066 296.793c-6.937 6.864-15.727 9.2-19.633 5.218-3.904-3.98-1.446-12.771 5.49-19.635 6.937-6.862 15.727-9.2 19.633-5.218 3.906 3.982 1.447 12.771-5.49 19.635" transform="translate(472.486 166.27)"/>
            <path fill="#0D633E" d="M67.734 372.363c0 7.498 27.201 13.575 60.754 13.575 33.556 0 60.757-6.077 60.757-13.575 0-7.499-27.201-13.576-60.757-13.576-33.553 0-60.754 6.077-60.754 13.576" transform="translate(472.486 166.27)"/>
        </g>
    </g>
</svg>
