<svg xmlns="http://www.w3.org/2000/svg" width="1200" height="600" viewBox="0 0 1200 600">
  <g fill="none" fill-rule="evenodd">
    <rect width="1200" height="490" fill="#08492C" rx="52"/>
    <g transform="translate(282 158)">
      <path fill="#69B482" d="M502.595497 76C491.69927 76 481.678304 79.8620403 473.671213 85.6034282L473.630548 85.6034282C469.258115 87.5172242 463.330738 90.0778832 457.469198 90.0778832 453.222632 90.0778832 450.217311 88.738226 445.817768 86.9698785 441.592502 85.2034448 436.795993 84.0800466 431.701276 84.0800466 420.243487 84.0800466 410.268995 87.5172242 405 99L444.96768 99 458.400616 99 461.190995 99 472.950865 99 544 99C535.861233 83.6896322 520.381502 76 502.595497 76M146.003255 78.4214529C127.893643 78.4214529 113.213058 63.8069056 113.213058 45.7787556 113.213058 40.452608 114.521018 35.4413541 116.793452 31 104.623994 35.7717028 96 47.5502744 96 61.3573028 96 79.3854528 110.680585 94 128.790197 94 141.549595 94 152.579924 86.7284659 158 76.1360584 154.279884 77.5946153 150.24345 78.4214529 146.003255 78.4214529"/>
      <path fill="#0D633E" d="M510,224.499029 C510,188.325287 480.89857,159 445.000963,159 C409.10143,159 380,188.325287 380,224.499029 C380,260.672772 409.10143,290 445.000963,290 C480.89857,290 510,260.672772 510,224.499029"/>
      <path fill="#0D633E" d="M544 274.5C544 254.893753 528.106682 239 508.500972 239 488.895261 239 473 254.893753 473 274.5 473 294.106247 488.895261 310 508.500972 310 528.106682 310 544 294.106247 544 274.5M584.442565 241L569.557435 241C564.832183 241 561 244.780097 561 249.44543L561 327.55457C561 332.219903 564.832183 336 569.557435 336L584.442565 336C589.167817 336 593 332.219903 593 327.55457L593 249.44543C593 244.780097 589.167817 241 584.442565 241M628.442565 260L613.557435 260C608.832183 260 605 263.800388 605 268.490764L605 327.509236C605 332.199612 608.832183 336 613.557435 336L628.442565 336C633.167817 336 637 332.199612 637 327.509236L637 268.490764C637 263.800388 633.167817 260 628.442565 260M446.861083 287L443.138917 287C441.958121 287 441 287.904574 441 289.019379L441 347.980621C441 349.095426 441.958121 350 443.138917 350L446.861083 350C448.041879 350 449 349.095426 449 347.980621L449 289.019379C449 287.904574 448.041879 287 446.861083 287M225.861083 221L222.138917 221C220.958121 221 220 221.904574 220 223.019379L220 281.980621C220 283.095426 220.958121 284 222.138917 284L225.861083 284C227.041879 284 228 283.095426 228 281.980621L228 223.019379C228 221.904574 227.041879 221 225.861083 221"/>
      <path fill="#0D633E" d="M578.861083 287L575.138917 287C573.958121 287 573 287.904574 573 289.019379L573 347.980621C573 349.095426 573.958121 350 575.138917 350L578.861083 350C580.041879 350 581 349.095426 581 347.980621L581 289.019379C581 287.904574 580.041879 287 578.861083 287M622.861083 287L619.138917 287C617.958121 287 617 287.904574 617 289.019379L617 347.980621C617 349.095426 617.958121 350 619.138917 350L622.861083 350C624.041879 350 625 349.095426 625 347.980621L625 289.019379C625 287.904574 624.041879 287 622.861083 287M23.4425649 261L8.55743511 261C3.83218321 261 0 264.802327 0 269.490764L0 328.509236C0 333.199612 3.83218321 337 8.55743511 337L23.4425649 337C28.1678168 337 32 333.199612 32 328.509236L32 269.490764C32 264.802327 28.1678168 261 23.4425649 261"/>
      <path fill="#0D633E" d="M17.8610827 289L14.1389173 289C12.9581205 289 12 289.904574 12 291.019379L12 349.980621C12 351.095426 12.9581205 352 14.1389173 352L17.8610827 352C19.0418795 352 20 351.095426 20 349.980621L20 291.019379C20 289.904574 19.0418795 289 17.8610827 289M230 291.5C230 323.256125 204.255693 349 172.499034 349 140.744307 349 115 323.256125 115 291.5 115 259.743875 140.744307 234 172.499034 234 204.255693 234 230 259.743875 230 291.5"/>
      <path fill="#0D633E" d="M131 311.5C131 332.210451 114.210451 349 93.5 349 72.7895494 349 56 332.210451 56 311.5 56 290.789549 72.7895494 274 93.5 274 114.210451 274 131 290.789549 131 311.5M256 311.5C256 332.210451 239.210451 349 218.5 349 197.789549 349 181 332.210451 181 311.5 181 290.789549 197.789549 274 218.5 274 239.210451 274 256 290.789549 256 311.5"/>
      <polygon fill="#0D633E" points="94 348 221 348 221 311 94 311"/>
      <path fill="#0D633E" d="M409,320 C409,337.120236 422.879764,351 440,351 C457.120236,351 471,337.120236 471,320 C471,302.879764 457.120236,289 440,289 C422.879764,289 409,302.879764 409,320"/>
      <path fill="#0D633E" d="M462 331.5C462 342.821883 471.177682 352 482.499027 352 493.822318 352 503 342.821883 503 331.5 503 320.178117 493.822318 311 482.499027 311 471.177682 311 462 320.178117 462 331.5M395 331.5C395 342.821883 404.177682 352 415.499027 352 426.822318 352 436 342.821883 436 331.5 436 320.178117 426.822318 311 415.499027 311 404.177682 311 395 320.178117 395 331.5"/>
      <polygon fill="#0D633E" points="414 351 483 351 483 331 414 331"/>
      <path fill="#0D633E" d="M488,331.5 C488,342.822176 497.177388,352 508.499025,352 C519.820663,352 529,342.822176 529,331.5 C529,320.177824 519.820663,311 508.499025,311 C497.177388,311 488,320.177824 488,331.5"/>
      <path fill="#0D633E" d="M523 338.5C523 345.955517 529.044044 352 536.499019 352 543.955956 352 550 345.955517 550 338.5 550 331.044483 543.955956 325 536.499019 325 529.044044 325 523 331.044483 523 338.5M479 338.5C479 345.955517 485.044044 352 492.499019 352 499.955956 352 506 345.955517 506 338.5 506 331.044483 499.955956 325 492.499019 325 485.044044 325 479 331.044483 479 338.5"/>
      <polygon fill="#0D633E" points="492 351 537 351 537 338 492 338"/>
      <path fill="#69B482" d="M599.957241 125C594.156312 125 588.820925 125.091399 584.557638 129.065285L584.536389 129.065285C582.208677 129.065285 579.054192 131.787397 575.932547 131.787397 573.672444 131.787397 572.072987 131.167471 569.729821 130.187908 567.481309 129.208345 564.925655 129.659381 562.213532 129.659381 556.113188 129.659381 550.804845 129.065285 548 139L569.277801 139 576.428997 139 577.914483 139 584.175159 139 622 139C617.667171 129.065285 609.426491 125 599.957241 125M60.9572413 175C55.156312 175 49.8209251 176.084326 45.5576381 180.056218L45.5363893 180.056218C43.208677 180.056218 40.0541923 182.524748 36.9325467 182.524748 34.6724444 182.524748 33.0729874 181.778032 30.7298214 180.800947 28.4813094 179.821876 25.9256552 179.468378 23.2135324 179.468378 17.1131878 179.468378 11.8048449 180.056218 9 188L30.277801 188 37.4289966 188 38.9144826 188 45.1751592 188 83 188C78.6671713 180.056218 70.4264906 175 60.9572413 175M138 174C138 174 138.67033 174.687138 139.145055 175.717845 139.674725 176.750483 139.993407 178.124759 140 179.500965 139.997802 180.875241 139.683516 182.249517 139.149451 183.282155 138.672527 184.312862 138 185 138 185 138 185 137.327473 184.312862 136.850549 183.282155 136.316484 182.249517 136.002198 180.875241 136 179.500965 136.006593 178.124759 136.325275 176.750483 136.854945 175.717845 137.32967 174.687138 138 174 138 174"/>
      <path fill="#69B482" d="M144 179C144 179 143.312618 179.668113 142.280603 180.143167 141.250471 180.67462 139.875706 180.991323 138.500942 181 137.126177 180.997831 135.751412 180.681128 134.719397 180.147505 133.687382 179.672451 133 179 133 179 133 179 133.687382 178.327549 134.719397 177.852495 135.751412 177.316703 137.126177 177.002169 138.500942 177 139.875706 177.006508 141.250471 177.32538 142.280603 177.856833 143.312618 178.331887 144 179 144 179M186.5 77C186.5 77 187.002138 77.4993116 187.357729 78.2501147 187.551688 78.6245984 187.711166 79.0633318 187.818921 79.5314364 187.930986 79.9995411 188.002104 80.5006884 187.999949 81 188.004259 82.0004589 187.734872 83.0009179 187.36204 83.7498853 187.004293 84.5006884 186.5 85 186.5 85 186.5 85 185.995707 84.5006884 185.63796 83.7498853 185.265128 83.0009179 184.995741 82.0004589 185.000051 81 184.997896 80.5006884 185.069014 79.9995411 185.181079 79.5314364 185.288834 79.0633318 185.448312 78.6245984 185.642271 78.2501147 185.997862 77.4993116 186.5 77 186.5 77"/>
      <path fill="#69B482" d="M191 80.5C191 80.5 190.437752 81.0021111 189.593372 81.3574185 189.17219 81.5510291 188.680475 81.7105983 188.152485 81.8169778 187.624496 81.92974 187.062248 81.9999504 186.5 81.9999504 185.375504 82.0042056 184.248992 81.7340018 183.406628 81.3616737 182.562248 81.0042387 182 80.5 182 80.5 182 80.5 182.562248 79.9957613 183.406628 79.6383263 184.248992 79.2659982 185.375504 78.9957944 186.5 79.0000496 187.062248 79.0000496 187.624496 79.07026 188.152485 79.1830222 188.680475 79.2894017 189.17219 79.4489709 189.593372 79.6425815 190.437752 79.9978889 191 80.5 191 80.5M547.5 191C547.5 191 548.002138 191.499312 548.357729 192.250115 548.551688 192.624598 548.711166 193.063332 548.818921 193.531436 548.930986 193.999541 549.002104 194.500688 548.999949 195 549.004259 196.000459 548.734872 197.000918 548.36204 197.749885 548.004293 198.500688 547.5 199 547.5 199 547.5 199 546.995707 198.500688 546.63796 197.749885 546.265128 197.000918 545.995741 196.000459 546.000051 195 545.997896 194.500688 546.069014 193.999541 546.181079 193.531436 546.288834 193.063332 546.448312 192.624598 546.642271 192.250115 546.997862 191.499312 547.5 191 547.5 191"/>
      <path fill="#69B482" d="M552 194.5C552 194.5 551.437752 195.002111 550.593372 195.357418 550.17219 195.551029 549.680475 195.710598 549.152485 195.816978 548.624496 195.92974 548.062248 195.99995 547.5 195.99995 546.375504 196.004206 545.248992 195.734002 544.406628 195.361674 543.562248 195.004239 543 194.5 543 194.5 543 194.5 543.562248 193.995761 544.406628 193.638326 545.248992 193.265998 546.375504 192.995794 547.5 193.00005 548.062248 193.00005 548.624496 193.07026 549.152485 193.183022 549.680475 193.289402 550.17219 193.448971 550.593372 193.642582 551.437752 193.997889 552 194.5 552 194.5M571 170C571 170 571.334513 170.436882 571.571681 171.093194 571.826549 171.749506 571.99292 172.625247 572 173.499012 571.99469 174.374753 571.830088 175.250494 571.575221 175.906806 571.336283 176.563118 571 177 571 177 571 177 570.663717 176.563118 570.424779 175.906806 570.169912 175.250494 570.00531 174.374753 570 173.499012 570.00708 172.625247 570.173451 171.749506 570.428319 171.093194 570.665487 170.436882 571 170 571 170"/>
      <path fill="#69B482" d="M574 173C574 173 573.562138 173.335664 572.90631 173.571678 572.250482 173.825175 571.374759 173.993007 570.500964 174 569.625241 173.994755 568.749518 173.83042 568.09369 173.575175 567.437862 173.337413 567 173 567 173 567 173 567.437862 172.662587 568.09369 172.424825 568.749518 172.16958 569.625241 172.005245 570.500964 172 571.374759 172.006993 572.250482 172.174825 572.90631 172.428322 573.562138 172.664336 574 173 574 173M582 27C582 27 582.334513 27.4368822 582.571681 28.093194 582.826549 28.7495058 582.99292 29.6252471 583 30.4990116 582.99469 31.3747529 582.830088 32.2504942 582.575221 32.906806 582.336283 33.5631178 582 34 582 34 582 34 581.663717 33.5631178 581.424779 32.906806 581.169912 32.2504942 581.00531 31.3747529 581 30.4990116 581.00708 29.6252471 581.173451 28.7495058 581.428319 28.093194 581.665487 27.4368822 582 27 582 27"/>
      <path fill="#69B482" d="M586 30C586 30 585.562138 30.3356643 584.90631 30.5716783 584.250482 30.8251748 583.374759 30.993007 582.500964 31 581.625241 30.9947552 580.749518 30.8304196 580.09369 30.5751748 579.437862 30.3374126 579 30 579 30 579 30 579.437862 29.6625874 580.09369 29.4248252 580.749518 29.1695804 581.625241 29.0052448 582.500964 29 583.374759 29.006993 584.250482 29.1748252 584.90631 29.4283217 585.562138 29.6643357 586 30 586 30M60 0C60 0 60.3345133.436882237 60.5716814 1.09319401 60.8265487 1.74950579 60.9929204 2.62524711 61 3.49901158 60.9946903 4.37475289 60.8300885 5.25049421 60.5752212 5.90680599 60.3362832 6.56311776 60 7 60 7 60 7 59.6637168 6.56311776 59.4247788 5.90680599 59.1699115 5.25049421 59.0053097 4.37475289 59 3.49901158 59.0070796 2.62524711 59.1734513 1.74950579 59.4283186 1.09319401 59.6654867.436882237 60 0 60 0"/>
      <path fill="#69B482" d="M64,3 C64,3 63.5621383,3.33566434 62.9063103,3.57167832 C62.2504822,3.82517483 61.3747589,3.99300699 60.5009645,4 C59.6252411,3.99475524 58.7495178,3.83041958 58.0936897,3.57517483 C57.4378617,3.33741259 57,3 57,3 C57,3 57.4378617,2.66258741 58.0936897,2.42482517 C58.7495178,2.16958042 59.6252411,2.00524476 60.5009645,2 C61.3747589,2.00699301 62.2504822,2.17482517 62.9063103,2.42832168 C63.5621383,2.66433566 64,3 64,3"/>
    </g>
    <path fill="#0D633E" d="M444,545.5 C444,549.089919 514.962409,552 602.499032,552 C690.035656,552 761,549.089919 761,545.5 C761,541.910081 690.035656,539 602.499032,539 C514.962409,539 444,541.910081 444,545.5"/>
    <path fill="#0D633E" d="M519.158845,545 L690.841155,545 C703.630627,545 714,534.609827 714,521.794701 L714,138.205299 C714,125.390173 703.630627,115 690.841155,115 L519.158845,115 C506.369373,115 496,125.390173 496,138.205299 L496,521.794701 C496,534.609827 506.369373,545 519.158845,545"/>
    <path fill="#FFF" d="M517.158845,545 L688.841155,545 C701.630627,545 712,534.609827 712,521.794701 L712,138.205299 C712,125.390173 701.630627,115 688.841155,115 L517.158845,115 C504.369373,115 494,125.390173 494,138.205299 L494,521.794701 C494,534.609827 504.369373,545 517.158845,545"/>
    <path fill="#0D744E" d="M681.511907,125 L658.130082,125.0058 C656.137137,125.007734 654.347159,126.403646 654.037875,128.371844 C652.483726,138.226368 644.206529,141.590478 633.897726,141.590478 L573.716974,141.590478 C563.410105,141.590478 554.632255,138.218634 552.979522,128.36411 C552.648975,126.388179 550.839667,125 548.837057,125 L526.104727,125 C514.496934,125 505,134.498779 505,146.106893 L505,514.772802 C505,525.943969 514.054272,535 525.223269,535 L681.776731,535 C692.945728,535 702,525.943969 702,514.772802 L702,145.227198 C702,133.773755 692.965058,125 681.511907,125"/>
    <path fill="#FFF" d="M642.851064,530 C643.485493,530 644,529.582418 644,529.067504 L644,528.932496 C644,528.417582 643.485493,528 642.851064,528 L562.148936,528 C561.514507,528 561,528.417582 561,528.932496 L561,529.067504 C561,529.582418 561.514507,530 562.148936,530 L642.851064,530 Z"/>
    <path fill="#FFF" d="M8.03785211 27.3652991C9.43372104 27.3652991 10.1947944 26.8510513 10.7024037 26.0800248 11.14642 25.4371575 11.3049485 24.8267327 11.3049485 20.9382372 11.3049485 17.0821841 11.14642 16.4395469 10.7024037 15.7966796 10.1947944 15.025423 9.43372104 14.5114053 8.03785211 14.5114053L5.59542215 14.5114053 5.59542215 27.3652991 8.03785211 27.3652991zM3.42280871 32.3782372C2.59791513 32.3782372 1.56702527 32.3782372.789826522 31.5908743.0126277762 30.8035115.0126277762 29.7593699.0126277762 28.9239186L.0126277762 12.9527858C.0126277762 12.1173345.0126277762 11.0729628.789826522 10.2856 1.56702527 9.49823717 2.59791513 9.49823717 3.42280871 9.49823717L8.41850234 9.49823717C11.8123308 9.49823717 14.1916218 10.815954 15.7457922 13.3545204 16.8561735 15.1862549 16.8561735 16.985777 16.8561735 20.9382372 16.8561735 24.8906973 16.8561735 26.6902195 15.7457922 28.5221841 14.1916218 31.0607504 11.8123308 32.3782372 8.41850234 32.3782372L3.42280871 32.3782372zM31.3207006 6.12396637C30.9716198 6.68653274 30.6384373 7.21688673 30.2577871 7.48977168 29.9091605 7.73113451 29.5918763 7.8434177 29.1637584 7.8434177 28.7513116 7.8434177 28.3386376 7.71502832 27.9579874 7.47389558 27.1966869 6.99186018 26.8480604 6.28479823 26.9114264 5.57773628 26.9588941 5.03173628 27.1176498 4.71007257 27.6727269 3.81019646L28.8621453 1.88228496C29.2112261 1.31994867 29.5444086.789824779 29.9250588.516709735 30.2739125.27580708 30.5909696.163063717 31.0190876.163063717 31.4317615.163063717 31.843754.291683186 32.2244043.532815929 32.9859318 1.01462124 33.3347855 1.72168319 33.2714195 2.42851504 33.2239518 2.97497522 33.0651961 3.29617876 32.5101191 4.19582478L31.3207006 6.12396637zM31.6059612 20.9382142C31.6059612 16.7607274 31.2889041 15.9894708 30.7812947 15.3148513 30.3688479 14.7683912 29.575978 14.3185681 28.5609864 14.3185681 27.5457677 14.3185681 26.753125 14.7683912 26.340451 15.3148513 25.8330688 15.9894708 25.5157846 16.7607274 25.5157846 20.9382142 25.5157846 25.115931 25.8330688 25.8552053 26.340451 26.5298248 26.753125 27.0760549 27.5457677 27.5580903 28.5609864 27.5580903 29.575978 27.5580903 30.3688479 27.0760549 30.7812947 26.5298248 31.2889041 25.8552053 31.6059612 25.115931 31.6059612 20.9382142L31.6059612 20.9382142zM28.5609864 32.5712584C25.8010451 32.5712584 23.8823499 31.7033646 22.2643593 30.0646743 19.9647868 27.7347982 19.9329902 24.7944973 19.9329902 20.9382142 19.9329902 17.0821611 19.9647868 14.1418602 22.2643593 11.8119841 23.8823499 10.1732938 25.8010451 9.3054 28.5609864 9.3054 31.3207006 9.3054 33.239623 10.1732938 34.8573864 11.8119841 37.1571861 14.1418602 37.1887556 17.0821611 37.1887556 20.9382142 37.1887556 24.7944973 37.1571861 27.7347982 34.8573864 30.0646743 33.239623 31.7033646 31.3207006 32.5712584 28.5609864 32.5712584L28.5609864 32.5712584zM57.9342387 31.6394C57.3632633 32.2173823 56.6973526 32.5068336 55.8408895 32.5068336 54.5719797 32.5068336 53.794781 31.7033646 52.5578948 29.8398779L46.5469825 20.8740195 46.5469825 28.7149752C46.5469825 30.0002496 46.5310842 30.4503027 46.1979017 31.1251522 45.8013532 31.9283912 44.8656259 32.5068336 43.7554717 32.5068336 42.6453176 32.5068336 41.7095903 31.9283912 41.3130418 31.1251522 40.9798593 30.4503027 40.9641881 30.0002496 40.9641881 28.7149752L40.9641881 12.8402496C40.9641881 11.7477894 41.0593507 10.8798956 41.693692 10.2372584 42.2646674 9.65904602 42.9305782 9.36982478 43.7870412 9.36982478 45.055951 9.36982478 45.8331497 10.1732938 47.070263 12.0367805L53.0809482 21.0026389 53.0809482 13.1616832C53.0809482 11.8761788 53.0968465 11.4263558 53.430029 10.7515062 53.8265775 9.94826726 54.7623048 9.36982478 55.8722319 9.36982478 56.9828402 9.36982478 57.9183404 9.94826726 58.3148889 10.7515062 58.6480714 11.4263558 58.6637426 11.8761788 58.6637426 13.1616832L58.6637426 29.0364088C58.6637426 30.128869 58.56858 30.9967628 57.9342387 31.6394M71.1938125 27.3652991C72.5896815 27.3652991 73.3507548 26.8510513 73.8583642 26.0800248 74.3026075 25.4371575 74.4613632 24.8267327 74.4613632 20.9382372 74.4613632 17.0821841 74.3026075 16.4395469 73.8583642 15.7966796 73.3507548 15.025423 72.5896815 14.5114053 71.1938125 14.5114053L68.7516097 14.5114053 68.7516097 27.3652991 71.1938125 27.3652991zM66.5787691 32.3782372C65.7541027 32.3782372 64.7229857 32.3782372 63.945787 31.5908743 63.1688153 30.8035115 63.1688153 29.7593699 63.1688153 28.9239186L63.1688153 12.9527858C63.1688153 12.1173345 63.1688153 11.0729628 63.945787 10.2856 64.7229857 9.49823717 65.7541027 9.49823717 66.5787691 9.49823717L71.5746899 9.49823717C74.9687454 9.49823717 77.3475823 10.815954 78.9019798 13.3545204 80.0119068 15.1862549 80.0119068 16.985777 80.0119068 20.9382372 80.0119068 24.8906973 80.0119068 26.6902195 78.9019798 28.5221841 77.3475823 31.0607504 74.9687454 32.3782372 71.5746899 32.3782372L66.5787691 32.3782372zM87.2284992 32.3783062C86.4038327 32.3783062 85.3729429 32.3783062 84.5957441 31.5909434 83.8183183 30.8035805 83.8183183 29.7594389 83.8183183 28.9239876L83.8183183 12.9526248C83.8183183 12.1171735 83.8183183 11.0730319 84.5957441 10.285669 85.3729429 9.49830619 86.4038327 9.49830619 87.2284992 9.49830619L96.0309223 9.49830619C97.1726459 9.49830619 97.6009909 9.53051858 98.1558409 9.80340354 98.8542296 10.1409434 99.3616118 11.0086071 99.3616118 12.0048903 99.3616118 13.0011735 98.8542296 13.8686071 98.1558409 14.2061469 97.6009909 14.4790319 97.1726459 14.5112442 96.0309223 14.5112442L89.4011126 14.5112442 89.4011126 18.335315 94.6032568 18.335315C95.7452075 18.335315 96.1737797 18.3675274 96.7286296 18.6406425 97.426337 18.9779522 97.9341735 19.8456159 97.9341735 20.8421292 97.9341735 21.8381823 97.426337 22.7056159 96.7286296 23.0429257 96.1737797 23.3162708 95.7452075 23.3482531 94.6032568 23.3482531L89.4011126 23.3482531 89.4011126 27.3653681 96.0309223 27.3653681C97.1726459 27.3653681 97.6009909 27.3975805 98.1558409 27.6704655 98.8542296 28.0080053 99.3616118 28.8754389 99.3616118 29.8717221 99.3616118 30.8682354 98.8542296 31.735669 98.1558409 32.0732088 97.6009909 32.3460938 97.1726459 32.3783062 96.0309223 32.3783062L87.2284992 32.3783062zM8.73574115 50.6315947C10.2583421 50.6315947 11.1463746 49.506692 11.1463746 48.3178248 11.1463746 47.1126212 10.2583421 45.9718425 8.73574115 45.9718425L5.59537673 45.9718425 5.59537673 50.6315947 8.73574115 50.6315947zM7.48272962 55.322869L5.59537673 55.322869 5.59537673 60.1754354C5.59537673 61.4609398 5.57970557 61.9107628 5.24652306 62.5858425 4.84997454 63.3890814 3.91424724 63.9672938 2.80386598 63.9672938 1.69393896 63.9672938.758211658 63.3890814.361663145 62.5858425.028480632 61.9107628.0125823526 61.4609398.0125823526 60.1754354L.0125823526 44.413223C.0125823526 43.5777717.0125823526 42.5336301.789781098 41.7462673 1.56697984 40.9589044 2.59809682 40.9589044 3.42276329 40.9589044L8.98943227 40.9589044C14.0012513 40.9589044 16.6975995 44.5579487 16.6975995 48.3178248 16.6975995 50.7438779 15.4289168 53.0090991 13.0970934 54.2626212L15.7616451 59.0024442C16.3959864 60.1273469 16.5863115 60.6252584 16.5863115 61.3323204 16.5863115 62.2963912 16.1107259 63.0515416 15.2226934 63.5655593 14.77845 63.8227982 14.3024101 63.9672938 13.8268245 63.9672938 12.3993861 63.9672938 11.7173499 62.8428513 11.0830086 61.7179487L7.48272962 55.322869zM24.1044716 63.8388124C23.2798051 63.8388124 22.2489153 63.8388124 21.4714894 63.0514496 20.6945178 62.2640867 20.6945178 61.2199451 20.6945178 60.3844938L20.6945178 44.413131C20.6945178 43.5776796 20.6945178 42.5335381 21.4714894 41.7461752 22.2489153 40.9588124 23.2798051 40.9588124 24.1044716 40.9588124L32.9066676 40.9588124C34.0486183 40.9588124 34.4767362 40.9910248 35.0320404 41.2639097 35.7297478 41.6014496 36.23713 42.4691133 36.23713 43.4653965 36.23713 44.4616796 35.7297478 45.3291133 35.0320404 45.6666531 34.4767362 45.9395381 34.0486183 45.9717504 32.9066676 45.9717504L26.2773122 45.9717504 26.2773122 49.7958212 31.4794563 49.7958212C32.621407 49.7958212 33.049525 49.8280336 33.604602 50.1011487 34.3023094 50.4384584 34.8099187 51.3061221 34.8099187 52.3026354 34.8099187 53.2986885 34.3023094 54.1661221 33.604602 54.5036619 33.049525 54.776777 32.621407 54.8087593 31.4794563 54.8087593L26.2773122 54.8087593 26.2773122 58.8258743 32.9066676 58.8258743C34.0486183 58.8258743 34.4767362 58.8580867 35.0320404 59.1309717 35.7297478 59.4685115 36.23713 60.3359451 36.23713 61.3322283 36.23713 62.3287416 35.7297478 63.1961752 35.0320404 63.533715 34.4767362 63.8066 34.0486183 63.8388124 32.9066676 63.8388124L24.1044716 63.8388124zM41.5189472 43.2725133C43.1369378 41.633823 45.055633 40.7659292 47.7519812 40.7659292 50.5114683 40.7659292 52.0499675 41.2320885 53.4456093 42.5012566 55.1585354 44.0598761 55.5866533 45.747115 55.5866533 46.7431681 55.5866533 47.7392212 55.3172911 48.3659823 54.8099088 48.8802301 54.3022995 49.3942478 53.6202633 49.6671327 52.8905323 49.6671327 52.2720892 49.6671327 51.7803781 49.5067611 51.3995008 49.2334159 50.7971831 48.8158053 50.4004075 48.2051504 49.9248218 47.3535929 49.2904804 46.2128142 48.6243425 45.7790973 47.6250221 45.7790973 46.6733965 45.7790973 46.0390552 46.2289204 45.6268355 46.7753805 44.9765959 47.6428142 44.7703725 48.6388673 44.7703725 52.3987434 44.7703725 56.1588496 44.9765959 57.1546726 45.6268355 58.0223363 46.0390552 58.5687965 46.6733965 59.0186195 47.6250221 59.0186195 48.6243425 59.0186195 49.2904804 58.5849027 49.9248218 57.4441239 50.4004075 56.5925664 50.7971831 55.9816814 51.3995008 55.5640708 51.7803781 55.2909558 52.2720892 55.130354 52.8905323 55.130354 53.6202633 55.130354 54.3022995 55.4032389 54.8099088 55.9174867 55.3172911 56.4317345 55.5866533 57.0584956 55.5866533 58.0545487 55.5866533 59.0506018 55.1585354 60.7376106 53.4456093 62.2964602 52.0499675 63.5656283 50.5114683 64.0315575 47.7519812 64.0315575 45.055633 64.0315575 43.1369378 63.1638938 41.5189472 61.5252035 39.2191475 59.1953274 39.1875781 56.2550265 39.1875781 52.3987434 39.1875781 48.5426903 39.2191475 45.6023894 41.5189472 43.2725133M59.0924511 44.6222124C59.0924511 43.336708 59.1081222 42.886885 59.4413047 42.2118053 59.8378532 41.4087965 60.7733534 40.830354 61.8839618 40.830354 62.9938888 40.830354 63.9296161 41.4087965 64.3261646 42.2118053 64.6593472 42.886885 64.6752454 43.336708 64.6752454 44.6222124L64.6752454 60.1755044C64.6752454 61.4607788 64.6593472 61.9108319 64.3261646 62.5856814 63.9296161 63.3889204 62.9938888 63.9673628 61.8839618 63.9673628 60.7733534 63.9673628 59.8378532 63.3889204 59.4413047 62.5856814 59.1081222 61.9108319 59.0924511 61.4607788 59.0924511 60.1755044L59.0924511 44.6222124zM70.7810478 43.2725133C72.3988113 41.633823 74.3179607 40.7659292 77.0140818 40.7659292 79.7740231 40.7659292 81.3120681 41.2320885 82.707937 42.5012566 84.4206359 44.0598761 84.848981 45.747115 84.848981 46.7431681 84.848981 47.7392212 84.5793916 48.3659823 84.0720094 48.8802301 83.5644 49.3942478 82.8821367 49.6671327 82.1526328 49.6671327 81.5344169 49.6671327 81.0427058 49.5067611 80.6620556 49.2334159 80.0592837 48.8158053 79.662508 48.2051504 79.1871495 47.3535929 78.552581 46.2128142 77.886216 45.7790973 76.8873498 45.7790973 75.9354971 45.7790973 75.3011557 46.2289204 74.888709 46.7753805 74.2386964 47.6428142 74.0322459 48.6388673 74.0322459 52.3987434 74.0322459 56.1588496 74.2386964 57.1546726 74.888709 58.0223363 75.3011557 58.5687965 75.9354971 59.0186195 76.8873498 59.0186195 77.886216 59.0186195 78.552581 58.5849027 79.1871495 57.4441239 79.662508 56.5925664 80.0592837 55.9816814 80.6620556 55.5640708 81.0427058 55.2909558 81.5344169 55.130354 82.1526328 55.130354 82.8821367 55.130354 83.5644 55.4032389 84.0720094 55.9174867 84.5793916 56.4317345 84.848981 57.0584956 84.848981 58.0545487 84.848981 59.0506018 84.4206359 60.7376106 82.707937 62.2964602 81.3120681 63.5656283 79.7740231 64.0315575 77.0140818 64.0315575 74.3179607 64.0315575 72.3988113 63.1638938 70.7810478 61.5252035 68.4814752 59.1953274 68.4496787 56.2550265 68.4496787 52.3987434 68.4496787 48.5426903 68.4814752 45.6023894 70.7810478 43.2725133M91.7644373 63.8388124C90.9397708 63.8388124 89.9086539 63.8388124 89.1314551 63.0514496 88.3542564 62.2640867 88.3542564 61.2199451 88.3542564 60.3844938L88.3542564 44.6222814C88.3542564 43.336777 88.3703818 42.886954 88.7033372 42.2118743 89.1001128 41.4086354 90.035613 40.8301929 91.14554 40.8301929 92.2559213 40.8301929 93.1916486 41.4086354 93.5881971 42.2118743 93.9213796 42.886954 93.9368236 43.336777 93.9368236 44.6222814L93.9368236 58.8258743 100.218007 58.8258743C101.35973 58.8258743 101.788075 58.8580867 102.342925 59.1309717 103.040633 59.4685115 103.548469 60.3359451 103.548469 61.3322283 103.548469 62.3287416 103.040633 63.1961752 102.342925 63.533715 101.788075 63.8066 101.35973 63.8388124 100.249349 63.8388124L91.7644373 63.8388124zM117.505546 52.3988124C117.505546 48.2213257 117.188262 47.450069 116.680652 46.7754496 116.26866 46.2289894 115.475563 45.7789363 114.460344 45.7789363 113.445352 45.7789363 112.652255 46.2289894 112.239809 46.7754496 111.732426 47.450069 111.415369 48.2213257 111.415369 52.3988124 111.415369 56.5762991 111.732426 57.3155735 112.239809 57.990423 112.652255 58.536423 113.445352 59.0186885 114.460344 59.0186885 115.475563 59.0186885 116.26866 58.536423 116.680652 57.990423 117.188262 57.3155735 117.505546 56.5762991 117.505546 52.3988124M114.460344 64.0316265C111.700857 64.0316265 109.781708 63.1637327 108.163717 61.5250425 105.864371 59.1951664 105.832575 56.2550956 105.832575 52.3988124 105.832575 48.5425292 105.864371 45.6024584 108.163717 43.2725823 109.781708 41.633892 111.700857 40.7659982 114.460344 40.7659982 117.219831 40.7659982 119.138981 41.633892 120.756744 43.2725823 123.056317 45.6024584 123.088113 48.5425292 123.088113 52.3988124 123.088113 56.2550956 123.056317 59.1951664 120.756744 61.5250425 119.138981 63.1637327 117.219831 64.0316265 114.460344 64.0316265" transform="translate(540.966 307.903)"/>
  </g>
</svg>
