<svg xmlns="http://www.w3.org/2000/svg" width="9" height="11" viewBox="0 0 9 11">
  <path d="M4.5,0 C6.90762648,0 8.88081194,1.83056062 8.99479895,4.13997647 L9,4.35120491 C9,4.40897371 8.99785449,4.46773319 8.99426528,4.4771033 C8.99802421,4.56014186 9,4.63555435 9,4.70903488 C9,6.8374028 5.59498863,11 4.5,11 C3.40500923,11 0,6.83739967 0,4.70903488 L0.0027162471,4.5744469 C0.0036353997,4.55654635 0.0047946431,4.54215274 0.00620428,4.53312838 L0,4.35120491 C0,1.94318642 2.01941317,0 4.5,0 Z M4.4999948,1.04271926 C2.6504977,1.04271926 1.14695199,2.42814223 1.04545835,4.16393371 L1.03999713,4.35120491 C1.03999713,4.3851095 1.04138363,4.42310167 1.04466303,4.52436499 L1.03999713,4.70903488 C1.03999713,6.3020852 4.02994898,9.95728074 4.4999948,9.95728074 C4.97004926,9.95728074 7.96000287,6.30208809 7.96000287,4.70903488 L7.95580676,4.46836087 L7.96000287,4.35120491 C7.96000287,2.52886681 6.41555436,1.04271926 4.4999948,1.04271926 Z M4.4999948,2.6553993 C5.60023004,2.6553993 6.49819329,3.52897057 6.49819329,4.61496075 C6.49819329,5.70074955 5.60014622,6.57451177 4.4999948,6.57451177 C3.39976688,6.57451177 2.50180671,5.70094799 2.50180671,4.61496075 C2.50180671,3.52916588 3.39984941,2.6553993 4.4999948,2.6553993 Z M4.4999948,3.69811856 C3.96735361,3.69811856 3.54180384,4.11216476 3.54180384,4.61496075 C3.54180384,5.11791533 3.96723955,5.53179251 4.4999948,5.53179251 C5.03264424,5.53179251 5.45819616,5.1177483 5.45819616,4.61496075 C5.45819616,4.11200199 5.03275621,3.69811856 4.4999948,3.69811856 Z"/>
</svg>
