<svg xmlns="http://www.w3.org/2000/svg" width="29" height="29" viewBox="0 0 29 29">
    <g fill="#FFF">
        <path d="M4.478 5.43h8.003c.71 0 1.285-.577 1.285-1.287s-.575-1.285-1.285-1.285H4.478C2.027 2.858.03 4.85.026 7.302L0 24.516c-.002 1.189.46 2.307 1.3 3.15.839.841 1.956 1.306 3.145 1.308l17.24.026h.006c1.188 0 2.305-.462 3.145-1.301.843-.841 1.306-1.96 1.306-3.15v-8.03c0-.71-.575-1.285-1.285-1.285s-1.286.575-1.286 1.285v8.03c0 .502-.196.975-.552 1.33-.355.354-.826.55-1.328.55h-.003l-17.24-.026c-.502-.001-.973-.197-1.328-.553-.355-.356-.55-.828-.549-1.33l.026-17.214c.002-1.035.845-1.877 1.88-1.877z"/>
        <path d="M27.714 8.847c.71 0 1.286-.575 1.286-1.286V1.286C29 .576 28.424 0 27.714 0H21.44c-.71 0-1.286.576-1.286 1.286 0 .71.576 1.285 1.286 1.285h3.03L12.877 14.165c-.502.502-.502 1.316 0 1.818.251.251.58.377.91.377.329 0 .658-.126.909-.377L26.429 4.25V7.56c0 .71.575 1.286 1.285 1.286z"/>
    </g>
</svg>
