<?xml version="1.0" encoding="UTF-8" standalone="no"?>
<svg
   xmlns:dc="http://purl.org/dc/elements/1.1/"
   xmlns:cc="http://creativecommons.org/ns#"
   xmlns:rdf="http://www.w3.org/1999/02/22-rdf-syntax-ns#"
   xmlns:svg="http://www.w3.org/2000/svg"
   xmlns="http://www.w3.org/2000/svg"
   xmlns:sodipodi="http://sodipodi.sourceforge.net/DTD/sodipodi-0.dtd"
   xmlns:inkscape="http://www.inkscape.org/namespaces/inkscape"
   width="512"
   height="512"
   viewBox="0 0 512 512"
   version="1.1"
   id="svg275"
   sodipodi:docname="dr-close-session.svg"
   inkscape:version="1.0 (6e3e5246a0, 2020-05-07)">
  <metadata
     id="metadata281">
    <rdf:RDF>
      <cc:Work
         rdf:about="">
        <dc:format>image/svg+xml</dc:format>
        <dc:type
           rdf:resource="http://purl.org/dc/dcmitype/StillImage" />
        <dc:title></dc:title>
      </cc:Work>
    </rdf:RDF>
  </metadata>
  <defs
     id="defs279">
    <path
       id="prefix__a"
       d="M0 0.125L22.894 0.125 22.894 18.095 0 18.095z" />
    <path
       id="prefix__a-3"
       d="M0 0.005L11.387 0.005 11.387 18.346 0 18.346z" />
    <path
       id="prefix__a-7"
       d="M0 0.072L7.267 0.072 7.267 8.05 0 8.05z" />
    <path
       id="prefix__c"
       d="M0.072 0.001L7.993 0.001 7.993 8.87 0.072 8.87z" />
    <path
       id="prefix__e"
       d="M0.04 0.073L8.507 0.073 8.507 5.86 0.04 5.86z" />
    <path
       id="prefix__a-35"
       d="M0 0.125L22.894 0.125 22.894 18.095 0 18.095z" />
  </defs>
  <sodipodi:namedview
     inkscape:document-rotation="0"
     pagecolor="#ffffff"
     bordercolor="#666666"
     borderopacity="1"
     objecttolerance="10"
     gridtolerance="10"
     guidetolerance="10"
     inkscape:pageopacity="0"
     inkscape:pageshadow="2"
     inkscape:window-width="1533"
     inkscape:window-height="845"
     id="namedview277"
     showgrid="false"
     showguides="true"
     inkscape:guide-bbox="true"
     inkscape:object-paths="true"
     inkscape:snap-bbox="true"
     inkscape:snap-smooth-nodes="true"
     inkscape:snap-bbox-edge-midpoints="true"
     inkscape:zoom="0.90885417"
     inkscape:cx="178.45861"
     inkscape:cy="239.31434"
     inkscape:window-x="67"
     inkscape:window-y="27"
     inkscape:window-maximized="1"
     inkscape:current-layer="layer1">
    <sodipodi:guide
       position="48,175.67752"
       orientation="-1,0"
       id="guide285"
       inkscape:label=""
       inkscape:locked="false"
       inkscape:color="rgb(0,0,255)" />
    <sodipodi:guide
       position="337.78796,464"
       orientation="0,1"
       id="guide568"
       inkscape:label=""
       inkscape:locked="false"
       inkscape:color="rgb(0,0,255)" />
  </sodipodi:namedview>
  <g
     inkscape:groupmode="layer"
     id="layer1"
     inkscape:label="Layer 1"
     style="display:inline">
    <g
       transform="matrix(14.344828,0,0,14.344828,48.000043,48)"
       fill="#ffffff"
       id="g1346">
      <path
         d="m 4.478,5.43 h 8.003 c 0.71,0 1.285,-0.577 1.285,-1.287 0,-0.71 -0.575,-1.285 -1.285,-1.285 H 4.478 C 2.027,2.858 0.03,4.85 0.026,7.302 L 0,24.516 c -0.002,1.189 0.46,2.307 1.3,3.15 0.839,0.841 1.956,1.306 3.145,1.308 L 21.685,29 h 0.006 c 1.188,0 2.305,-0.462 3.145,-1.301 0.843,-0.841 1.306,-1.96 1.306,-3.15 v -8.03 c 0,-0.71 -0.575,-1.285 -1.285,-1.285 -0.71,0 -1.286,0.575 -1.286,1.285 v 8.03 c 0,0.502 -0.196,0.975 -0.552,1.33 -0.355,0.354 -0.826,0.55 -1.328,0.55 H 21.688 L 4.448,26.403 C 3.946,26.402 3.475,26.206 3.12,25.85 2.765,25.494 2.57,25.022 2.571,24.52 L 2.597,7.306 C 2.599,6.271 3.442,5.429 4.477,5.429 Z"
         id="path1342" />
      <path
         d="M 27.714,8.847 C 28.424,8.847 29,8.272 29,7.561 V 1.286 C 29,0.576 28.424,0 27.714,0 H 21.44 c -0.71,0 -1.286,0.576 -1.286,1.286 0,0.71 0.576,1.285 1.286,1.285 h 3.03 L 12.877,14.165 c -0.502,0.502 -0.502,1.316 0,1.818 0.251,0.251 0.58,0.377 0.91,0.377 0.329,0 0.658,-0.126 0.909,-0.377 L 26.429,4.25 v 3.31 c 0,0.71 0.575,1.286 1.285,1.286 z"
         id="path1344" />
    </g>
  </g>
  <inkscape:templateinfo>
    <inkscape:name>icon</inkscape:name>
    <inkscape:date>2020-05-20</inkscape:date>
  </inkscape:templateinfo>
</svg>
