<?xml version="1.0" encoding="UTF-8" standalone="no"?>
<svg
   xmlns:dc="http://purl.org/dc/elements/1.1/"
   xmlns:cc="http://creativecommons.org/ns#"
   xmlns:rdf="http://www.w3.org/1999/02/22-rdf-syntax-ns#"
   xmlns:svg="http://www.w3.org/2000/svg"
   xmlns="http://www.w3.org/2000/svg"
   xmlns:sodipodi="http://sodipodi.sourceforge.net/DTD/sodipodi-0.dtd"
   xmlns:inkscape="http://www.inkscape.org/namespaces/inkscape"
   width="512"
   height="512"
   viewBox="0 0 512 512"
   version="1.1"
   id="svg275"
   sodipodi:docname="dr-cards.svg"
   inkscape:version="1.0 (6e3e5246a0, 2020-05-07)">
  <metadata
     id="metadata281">
    <rdf:RDF>
      <cc:Work
         rdf:about="">
        <dc:format>image/svg+xml</dc:format>
        <dc:type
           rdf:resource="http://purl.org/dc/dcmitype/StillImage" />
        <dc:title />
      </cc:Work>
    </rdf:RDF>
  </metadata>
  <defs
     id="defs279" />
  <sodipodi:namedview
     inkscape:document-rotation="0"
     borderopacity="1"
     objecttolerance="10"
     gridtolerance="10"
     guidetolerance="10"
     inkscape:pageopacity="0"
     inkscape:pageshadow="2"
     inkscape:window-width="1533"
     inkscape:window-height="845"
     id="namedview277"
     showgrid="false"
     showguides="true"
     inkscape:guide-bbox="true"
     inkscape:object-paths="true"
     inkscape:snap-bbox="true"
     inkscape:snap-smooth-nodes="true"
     inkscape:snap-bbox-edge-midpoints="true"
     inkscape:zoom="0.90885417"
     inkscape:cx="329.91461"
     inkscape:cy="290.4413"
     inkscape:window-x="67"
     inkscape:window-y="27"
     inkscape:window-maximized="1"
     inkscape:current-layer="svg275">
    <sodipodi:guide
       position="48,175.67752"
       orientation="-1,0"
       id="guide285"
       inkscape:label=""
       inkscape:locked="false"
       inkscape:color="rgb(0,0,255)" />
  </sodipodi:namedview>
  <path
     id="path1703"
     d="M 66.427734,207.39844 C 56.251497,207.3993 48.00194,215.64798 48,225.82422 v 202.70312 c 8.58e-4,10.177 8.250732,18.42688 18.427734,18.42774 H 445.57227 c 10.177,-8.6e-4 18.42687,-8.25074 18.42773,-18.42774 V 225.82422 c -0.002,-10.17624 -8.25149,-18.42492 -18.42773,-18.42578 z" />
  <path
     id="path1701"
     d="m 183.84766,65.044922 a 18.42745,18.42745 0 0 0 -18.42774,18.427734 18.42745,18.42745 0 0 0 18.42774,18.427734 H 328.17188 A 18.42745,18.42745 0 0 0 346.59766,83.472656 18.42745,18.42745 0 0 0 328.17188,65.044922 Z" />
  <path
     id="path1127"
     d="m 115.97852,135.16211 a 18.42745,18.42745 0 0 0 -18.427739,18.42773 18.42745,18.42745 0 0 0 18.427739,18.42774 h 280.04296 a 18.42745,18.42745 0 0 0 18.42774,-18.42774 18.42745,18.42745 0 0 0 -18.42774,-18.42773 z" />
</svg>
