<svg width="22" height="30" viewBox="0 0 22 30" xmlns="http://www.w3.org/2000/svg">
    <path d="M5.368 23.571h10.714v2.143H5.368v-2.143zm2.143 4.286h6.428V30H7.511v-2.143zM10.725 0A10.714 10.714 0 0 0 .01 10.714a9.847 9.847 0 0 0 3.707 8.165c1.071.996 1.65 1.564 1.65 2.55H7.51c0-1.972-1.19-3.075-2.347-4.136a7.715 7.715 0 0 1-3.01-6.579 8.571 8.571 0 1 1 17.142 0 7.715 7.715 0 0 1-3.021 6.579c-1.146 1.071-2.336 2.143-2.336 4.136h2.143c0-.986.568-1.554 1.65-2.561a9.836 9.836 0 0 0 3.707-8.154A10.713 10.713 0 0 0 10.725 0z"/>
</svg>
