<?xml version="1.0" encoding="UTF-8"?>
<svg width="15px" height="15px" viewBox="0 0 15 15" version="1.1" xmlns="http://www.w3.org/2000/svg" xmlns:xlink="http://www.w3.org/1999/xlink">
    <title>editar</title>
    <g id="editar" stroke="none" stroke-width="1" fill="none" fill-rule="evenodd">
        <g id="Group-5-Copy-7" fill="#9CD060">
            <path d="M4.06521042,15 L0.433678275,15 C0.193809326,15 0,14.8055925 0,14.5663217 L0,10.9347896 C0,10.5483673 0.467176183,10.354558 0.740543041,10.6279248 L4.37207519,14.259457 C4.64544205,14.5328238 4.45163272,15 4.06521042,15" id="Fill-1"></path>
            <path d="M14.8281197,4.31639531 L5.81649499,13.3281179 C5.58732131,13.557294 5.21630613,13.557294 4.98713245,13.3281179 L1.67144067,10.0123901 C1.44285311,9.78380007 1.44285311,9.41278085 1.67144067,9.18360469 L10.6836515,0.171882123 C10.9122391,-0.057294041 11.2832543,-0.057294041 11.512428,0.171882123 L14.8281197,3.4876099 C15.0572934,3.71619993 15.0572934,4.08721915 14.8281197,4.31639531" id="Fill-3"></path>
        </g>
    </g>
</svg>