<?xml version="1.0" encoding="UTF-8" standalone="no"?>
<svg
   xmlns:dc="http://purl.org/dc/elements/1.1/"
   xmlns:cc="http://creativecommons.org/ns#"
   xmlns:rdf="http://www.w3.org/1999/02/22-rdf-syntax-ns#"
   xmlns:svg="http://www.w3.org/2000/svg"
   xmlns="http://www.w3.org/2000/svg"
   xmlns:sodipodi="http://sodipodi.sourceforge.net/DTD/sodipodi-0.dtd"
   xmlns:inkscape="http://www.inkscape.org/namespaces/inkscape"
   width="512"
   height="512"
   viewBox="0 0 512 512"
   version="1.1"
   id="svg275"
   sodipodi:docname="dr-empresas.svg"
   inkscape:version="1.0 (6e3e5246a0, 2020-05-07)"
   inkscape:export-filename="/home/bruno/Documentos/Trabajo/DataUy/DondeReciclo-3/src/assets/custom-icons/dr-empresas.png"
   inkscape:export-xdpi="96"
   inkscape:export-ydpi="96">
  <metadata
     id="metadata281">
    <rdf:RDF>
      <cc:Work
         rdf:about="">
        <dc:format>image/svg+xml</dc:format>
        <dc:type
           rdf:resource="http://purl.org/dc/dcmitype/StillImage" />
        <dc:title />
      </cc:Work>
    </rdf:RDF>
  </metadata>
  <defs
     id="defs279" />
  <sodipodi:namedview
     inkscape:document-rotation="0"
     pagecolor="#ffffff"
     bordercolor="#666666"
     borderopacity="1"
     objecttolerance="10"
     gridtolerance="10"
     guidetolerance="10"
     inkscape:pageopacity="0"
     inkscape:pageshadow="2"
     inkscape:window-width="1533"
     inkscape:window-height="845"
     id="namedview277"
     showgrid="false"
     showguides="true"
     inkscape:guide-bbox="true"
     inkscape:object-paths="true"
     inkscape:snap-bbox="true"
     inkscape:snap-smooth-nodes="true"
     inkscape:snap-bbox-edge-midpoints="true"
     inkscape:zoom="0.73347998"
     inkscape:cx="145.89957"
     inkscape:cy="249.33513"
     inkscape:window-x="67"
     inkscape:window-y="27"
     inkscape:window-maximized="1"
     inkscape:current-layer="layer1">
    <sodipodi:guide
       position="48,175.67752"
       orientation="-1,0"
       id="guide285"
       inkscape:label=""
       inkscape:locked="false"
       inkscape:color="rgb(0,0,255)" />
  </sodipodi:namedview>
  <g
     inkscape:groupmode="layer"
     id="layer1"
     inkscape:label="Layer 1">
    <g
       style="stroke:#ffffff;fill:none"
       id="g491"
       stroke="#ffffff"
       fill-rule="evenodd"
       fill="none"
       transform="matrix(10.073757,0,0,11.687277,52.006421,139.11753)">
      <path
         style="stroke:#ffffff;fill:none"
         id="path483"
         d="M 0,1 H 1.776 C 4.109,1 6,2.722 6,4.847 v 9.306 C 6,16.278 4.11,18 1.776,18 H 0.556 M 41,1 H 35.137 C 34.509,1 34,1.486 34,2.084 V 16.916 C 34,17.514 34.51,18 35.137,18 h 3.318 M 10,13.5 H 6"
         stroke-width="2" />
      <path
         style="stroke:#ffffff;fill:none"
         id="path485"
         d="m 35,3.664 h -5.712 c -0.247,0 -0.49,-0.065 -0.707,-0.189 L 22.8,0.188 c -0.458,-0.26 -1.017,-0.25 -1.465,0.029 L 15.7,3.725 C 14.953,4.19 14.77,5.219 15.311,5.922 v 0 c 0.392,0.511 1.063,0.705 1.658,0.475 l 4.15,-1.594 c 0.566,-0.217 1.204,-0.053 1.605,0.41 l 8.368,9.703 c 0.653,0.757 0.572,2.352 -0.33,2.76 l -9.185,2.234 c -0.505,0.121 -0.996,0.157 -1.413,-0.134 L 20.085,19.688 M 15,4.5 H 6 13.796 M 35,17.5 h -4 2.609"
         stroke-width="2" />
      <path
         style="stroke:#ffffff;fill:none"
         id="path487"
         d="m 19.624,19.228 v 0 c 0.405,-0.743 0.737,-1.233 -0.423,-2.993 l -4.17,-6.085 c -0.954,-0.71 -3.875,1.28 -4.595,2.222 v 0 c -0.719,0.942 -0.53,2.283 0.424,2.994 l 6.071,4.151 c 0.954,0.712 1.973,0.653 2.693,-0.289 z"
         stroke-width="2" />
      <path
         style="stroke:#ffffff;fill:none"
         id="path489"
         d="m 2,14 c 0,0.552 -0.447,1 -1,1 -0.553,0 -1,-0.448 -1,-1 0,-0.552 0.447,-1 1,-1 0.553,0 1,0.448 1,1 z m 38,0 c 0,0.552 -0.447,1 -1,1 -0.553,0 -1,-0.448 -1,-1 0,-0.552 0.447,-1 1,-1 0.553,0 1,0.448 1,1 z" />
    </g>
  </g>
</svg>
