<?xml version="1.0" encoding="UTF-8" standalone="no"?>
<svg
   xmlns:dc="http://purl.org/dc/elements/1.1/"
   xmlns:cc="http://creativecommons.org/ns#"
   xmlns:rdf="http://www.w3.org/1999/02/22-rdf-syntax-ns#"
   xmlns:svg="http://www.w3.org/2000/svg"
   xmlns="http://www.w3.org/2000/svg"
   xmlns:sodipodi="http://sodipodi.sourceforge.net/DTD/sodipodi-0.dtd"
   xmlns:inkscape="http://www.inkscape.org/namespaces/inkscape"
   inkscape:export-ydpi="96"
   inkscape:export-xdpi="96"
   inkscape:export-filename="/home/bruno/Documentos/Trabajo/DataUy/DondeReciclo-3/src/assets/custom-icons/dr-empresas.png"
   inkscape:version="1.0 (6e3e5246a0, 2020-05-07)"
   sodipodi:docname="dr-empresas.svg"
   id="svg275"
   version="1.1"
   viewBox="0 0 512 512"
   height="512"
   width="512">
  <metadata
     id="metadata281">
    <rdf:RDF>
      <cc:Work
         rdf:about="">
        <dc:format>image/svg+xml</dc:format>
        <dc:type
           rdf:resource="http://purl.org/dc/dcmitype/StillImage" />
        <dc:title />
      </cc:Work>
    </rdf:RDF>
  </metadata>
  <defs
     id="defs279" />
  <sodipodi:namedview
     inkscape:current-layer="layer1"
     inkscape:window-maximized="1"
     inkscape:window-y="27"
     inkscape:window-x="67"
     inkscape:cy="249.33513"
     inkscape:cx="145.89957"
     inkscape:zoom="0.73347998"
     inkscape:snap-bbox-edge-midpoints="true"
     inkscape:snap-smooth-nodes="true"
     inkscape:snap-bbox="true"
     inkscape:object-paths="true"
     inkscape:guide-bbox="true"
     showguides="true"
     showgrid="false"
     id="namedview277"
     inkscape:window-height="845"
     inkscape:window-width="1533"
     inkscape:pageshadow="2"
     inkscape:pageopacity="0"
     guidetolerance="10"
     gridtolerance="10"
     objecttolerance="10"
     borderopacity="1"
     bordercolor="#666666"
     pagecolor="#ffffff"
     inkscape:document-rotation="0">
    <sodipodi:guide
       inkscape:color="rgb(0,0,255)"
       inkscape:locked="false"
       inkscape:label=""
       id="guide285"
       orientation="-1,0"
       position="48,175.67752" />
  </sodipodi:namedview>
  <g
     inkscape:label="Layer 1"
     id="layer1"
     inkscape:groupmode="layer">
    <path
       d="m 274.0332,128.41602 c -4.77097,0.10661 -9.51388,1.59436 -13.45703,4.44336 v -0.002 l -56.76562,40.99805 c -2.73954,1.97869 -4.89842,4.3958 -6.68946,7.00391 h -6.13671 -69.6543 c -6.24803,-23.3551 -26.766889,-40.9043 -51.433596,-40.9043 H 52.005859 v 21.70117 h 17.890625 c 17.307655,0 31.701176,14.82236 31.701176,34.10937 v 108.76172 c 0,19.28997 -14.380794,34.11133 -31.701176,34.11133 H 57.607422 v 21.70117 h 12.289062 c 28.643062,0 51.635586,-23.66397 53.246096,-52.59375 h 19.60937 c 1.71977,7.25469 5.58919,14.00453 11.5586,19.16602 l 0.17383,0.15039 61.26953,48.60156 c 6.3142,5.36793 14.16258,8.80001 22.43359,7.90039 4.00849,-0.43598 7.76466,-1.91627 11.12891,-4.13867 7.60922,5.44897 16.92457,4.51676 22.95703,2.83984 l 0.0215,-0.006 93.63867,-26.42383 1.00391,-0.52539 c 0.46585,-0.24447 0.84588,-0.54858 1.28125,-0.81446 h 22.35742 0.73047 c 3.85112,3.58938 8.91974,5.84375 14.66211,5.84375 h 33.42383 v -21.70117 h -33.42383 c 0.18883,0 -0.60352,-0.14687 -0.60352,-1.81836 v -173.3457 c 0,-1.68193 0.77189,-1.81836 0.60352,-1.81836 h 59.0625 v -21.70117 h -59.0625 c -12.82101,0 -22.30469,11.22346 -22.30469,23.51953 v 7.61523 h -36.61718 c -0.27973,0 -0.59478,-0.0495 -1.12696,-0.40234 l -0.01,-0.008 -58.25,-38.42383 -0.004,-0.002 c -4.05376,-2.66986 -8.85207,-3.94451 -13.62305,-3.83789 z m 0.47657,21.4121 c 0.3264,-0.007 0.65092,0.18 1.21093,0.54883 l 58.20899,38.39844 c 3.83984,2.54563 8.42046,4.01563 13.11719,4.01563 h 36.61718 v 140.0039 h -3.54492 c 0.0262,-0.26809 0.1053,-0.54629 0.12695,-0.8125 0.70061,-8.61279 -0.72474,-17.48581 -6.31836,-25.00976 v -0.002 L 289.625,193.56055 l -0.008,-0.008 c -6.6052,-8.84797 -18.95036,-12.80656 -29.27344,-8.21484 l -0.002,0.002 -41.82227,18.63477 -0.0117,0.006 c -1.13603,0.50947 -1.70715,0.63952 -3.21093,-1.63477 l -0.004,-0.008 -0.006,-0.006 c -2.13084,-3.2124 -0.81707,-9.40409 1.23047,-10.88281 l 56.76562,-41 h 0.002 c 0.56989,-0.41176 0.8982,-0.61376 1.22461,-0.6211 z m -151.21094,52.73243 h 67.68555 1.57617 c 0.73004,4.08589 2.21339,8.09951 4.63476,11.7539 0,0 0.002,0.002 0.002,0.002 6.39457,9.66855 19.34053,14.33112 30.1914,9.46484 l 41.77539,-18.61523 c 1.0804,-0.48057 1.59049,-0.60531 3.06446,1.36914 l 84.2832,113.38281 v 0.002 c 0.98369,1.32302 2.43989,6.19154 2.10547,10.30274 -0.29864,3.67121 -1.65854,5.3906 -1.64063,5.59375 l -90.51562,25.54101 c -3.10354,0.86273 -3.72013,0.94277 -4.16406,0.6875 1.18198,-3.23395 2.12548,-7.03751 2.02539,-11.48242 -0.17657,-7.84025 -3.17907,-16.01509 -9.45508,-27.0625 l -0.0449,-0.0781 -42.95899,-72.72852 -1.34766,-1.16211 c -3.18672,-2.75155 -6.7734,-3.97581 -10.30664,-4.30273 -3.53324,-0.32693 -7.01336,0.24219 -9.98437,1.07617 -5.94203,1.66794 -11.4234,4.62785 -16.74219,8.08593 -10.63758,6.91619 -20.00223,15.14886 -25.40625,23.35157 l -0.002,0.004 -0.002,0.002 c -1.73177,2.63228 -3.09822,5.42189 -4.11915,8.29687 h -20.65429 z m 73.07031,64.57422 39.64258,67.11132 c 5.39552,9.5034 6.56267,14.47255 6.61523,16.80664 0.0473,2.10107 -0.6491,3.64722 -2.31054,7.1836 -2.16643,3.10951 -3.57649,3.65796 -4.47657,3.75586 -0.95141,0.10348 -2.9241,-0.1644 -6.17187,-2.97657 l -0.17578,-0.15234 -61.0293,-48.41211 c -5.00256,-4.37829 -6.41295,-14.45805 -2.26562,-20.76953 l 0.002,-0.002 c 8e-4,-0.001 0.001,-0.003 0.002,-0.004 1.85321,-2.80982 10.82113,-11.70307 19.10938,-17.0918 4.1455,-2.69526 8.27447,-4.68165 10.77929,-5.38476 0.21206,-0.0595 0.11168,-0.0245 0.2793,-0.0645 z M 62.080078,285.62695 c -8.970227,0 -15.498047,8.13738 -15.498047,17.11328 0,8.9759 6.527814,17.11133 15.498047,17.11133 8.970233,0 15.5,-8.13543 15.5,-17.11133 0,-8.9759 -6.529773,-17.11328 -15.5,-17.11328 z m 382.802732,0 c -8.97022,0 -15.49804,8.13738 -15.49804,17.11328 0,8.9759 6.52781,17.11133 15.49804,17.11133 8.97024,0 15.5,-8.13543 15.5,-17.11133 0,-8.9759 -6.52977,-17.11328 -15.5,-17.11328 z M 62.080078,296.47656 c 2.171349,0 4.648438,2.33681 4.648438,6.26367 0,3.92685 -2.477095,6.26172 -4.648438,6.26172 -2.171343,0 -4.648437,-2.33487 -4.648437,-6.26172 0,-3.92686 2.477088,-6.26367 4.648437,-6.26367 z m 382.802732,0 c 2.17135,0 4.64844,2.33682 4.64844,6.26367 0,3.92685 -2.47709,6.26172 -4.64844,6.26172 -2.17133,0 -4.64844,-2.33487 -4.64843,-6.26172 0,-3.92685 2.4771,-6.26367 4.64843,-6.26367 z m -182.61523,65.64844 0.53125,0.54492 -1.04688,0.81055 c 0.17752,-0.4377 0.34573,-0.89359 0.51563,-1.35547 z"
       id="path237" />
  </g>
</svg>
