<svg xmlns="http://www.w3.org/2000/svg" width="38" height="37" viewBox="0 0 38 37">
    <path fill="#9CD060" fill-rule="evenodd" d="M27.418.088c5.815 0 10.549 4.848 10.549 10.807v15.21c0 5.96-4.734 10.808-10.55 10.808l-1.988-.001V24.44h3.901l.584-5.017H25.43v-3.203c0-1.452.364-2.442 2.244-2.442h2.398V9.29c-.415-.06-1.838-.197-3.494-.197-3.458 0-5.825 2.338-5.825 6.63v3.7h-3.91v5.017h3.91v12.47l-10.188.002C4.84 36.913.167 32.219.018 26.393l-.004-.287V10.895C.014 4.936 4.748.088 10.564.088z"/>
</svg>
