<?xml version="1.0" encoding="UTF-8"?>
<svg width="38px" height="37px" viewBox="0 0 38 37" version="1.1" xmlns="http://www.w3.org/2000/svg" xmlns:xlink="http://www.w3.org/1999/xlink">
    <!-- Generator: Sketch 64 (93537) - https://sketch.com -->
    <title>dr-facebook</title>
    <desc>Created with Sketch.</desc>
    <g id="dr-facebook" stroke="none" stroke-width="1" fill="none" fill-rule="evenodd">
        <g id="Group-3" fill="#9CD060">
            <path d="M27.4178714,0.0877071429 C33.2334981,0.0877071429 37.9666596,4.93595714 37.9666596,10.8945286 L37.9666596,10.8945286 L37.9666596,26.1057786 C37.9666596,32.06435 33.2334981,36.9126 27.4178714,36.9126 L27.4178714,36.9126 L25.4294107,36.9117071 L25.4298031,24.4405609 L29.3300176,24.4405609 L29.9140193,19.4241379 L25.4298031,19.4241379 L25.4298031,16.2214687 C25.4298031,14.7690985 25.7938728,13.7793561 27.6739487,13.7793561 L30.0718954,13.7781953 L30.0718954,9.29146633 C29.6571796,9.2303329 28.2337335,9.09375 26.5776646,9.09375 C23.1203415,9.09375 20.7533645,11.4315231 20.7533645,15.7246629 L20.7533645,19.4241379 L16.8431373,19.4241379 L16.8431373,24.4405609 L20.7533645,24.4405609 L20.7524107,36.9117071 L10.5646981,36.9126 C4.84139676,36.9126 0.167375284,32.2194839 0.0180892896,26.3932143 L0.0144106667,26.1057786 L0.0144106667,10.8945286 C0.0144106667,4.93595714 4.74757215,0.0877071429 10.5646981,0.0877071429 L10.5646981,0.0877071429 Z" id="Combined-Shape"></path>
        </g>
    </g>
</svg>