<svg width="32" height="32" viewBox="0 0 32 32" xmlns="http://www.w3.org/2000/svg">
    <path d="M31.036 11.863 19.126 8.67 17.04.892c-.174-.65-.872-1.028-1.557-.847L.964 3.937c-.686.182-1.098.86-.924 1.51l5.168 19.282c.174.65.87 1.029 1.553.843l5.781-1.547-.787 2.941c-.175.65.238 1.328.923 1.509l12.976 3.478c.684.184 1.379-.193 1.555-.846l4.752-17.735c.172-.65-.24-1.328-.925-1.509zM2.613 5.81 15.14 2.455l4.637 17.31-12.528 3.353-4.636-17.31zM25.084 29.54 14.182 26.56l.857-3.204 6.242-1.675c.685-.18 1.1-.86.925-1.509l-2.413-9.003 9.515 2.61-4.224 15.762z"/>
</svg>
