<svg xmlns="http://www.w3.org/2000/svg" width="149" height="149" viewBox="0 0 149 149" style="background:#0d744e">
  <g fill="none" fill-rule="evenodd">
    <rect width="149" height="149" fill="#0D744E"/>
    <path stroke="#FFF" stroke-width="2" d="M95.9806727 112.67095L97.0261273 112.67095C97.8420364 112.67095 98.5034 112.009511 98.5034 111.193509L98.5034 106.148391C98.5034 105.332389 97.8420364 104.67095 97.0261273 104.67095L95.9806727 104.67095C95.1647636 104.67095 94.5034 105.332389 94.5034 106.148391L94.5034 111.193509C94.5034 112.009511 95.1647636 112.67095 95.9806727 112.67095M48.5034 107.67095C48.5034 109.880228 50.2945357 111.67095 52.5034 111.67095 54.7128183 111.67095 56.5034 109.880228 56.5034 107.67095 56.5034 105.461672 54.7128183 103.67095 52.5034 103.67095 50.2945357 103.67095 48.5034 105.461672 48.5034 107.67095M109 50L105.725572 100.047835C105.653745 101.145928 104.741587 102 103.640567 102L101.9994 101.99995 102 102.483078C102 102.740169 101.775585 102.953203 101.482012 102.993239L101.381806 103 92.6181941 103C92.2765732 103 92 102.768735 92 102.483078L92 102.483078 91.9994 101.99995 58.9994 101.99995 59 102.483078C59 102.740169 58.7678044 102.953203 58.4632399 102.993239L58.3592572 103 48.6407428 103C48.2866612 103 48 102.768735 48 102.483078L48 102.483078 47.9994 101.99995 47.6699069 102C46.5894815 102 45.6873689 101.177058 45.5889201 100.102062L41 50 109 50zM36.0088039 49.67095L112.997996 49.67095C113.277484 49.67095 113.5034 49.4302839 113.5034 49.1337488L113.5034 46.2081512C113.5034 45.9116161 113.277484 45.67095 112.997996 45.67095L36.0088039 45.67095C35.729821 45.67095 35.5034 45.9116161 35.5034 46.2081512L35.5034 49.1337488C35.5034 49.4302839 35.729821 49.67095 36.0088039 49.67095M110.787865 44.02604L105.911222 39.2884628C104.840271 38.2479041 103.442324 37.67095 101.991815 37.67095L46.3331955 37.67095C44.8826862 37.67095 43.4842335 38.2479041 42.413788 39.2884628L37.5371454 44.02604C37.4107944 44.1485219 37.2460328 44.2167464 37.0752062 44.2167464L36.1877169 44.2167464C35.8096748 44.2167464 35.5034 44.5422903 35.5034 44.9435796L35.5034 44.9435796C35.5034 45.3454061 35.8096748 45.67095 36.1877169 45.67095L112.819083 45.67095C113.197125 45.67095 113.5034 45.3454061 113.5034 44.9435796L113.5034 44.9435796C113.5034 44.5422903 113.197125 44.2167464 112.819083 44.2167464L111.249298 44.2167464C111.078472 44.2167464 110.914216 44.1485219 110.787865 44.02604"/>
  </g>
</svg>
