<svg xmlns="http://www.w3.org/2000/svg" xmlns:xlink="http://www.w3.org/1999/xlink" width="149" height="149" viewBox="0 0 149 149" style="background:#0d744e">
  <defs>
    <polygon id="programa-generico-a" points="0 .353 36.299 .353 36.299 39.679 0 39.679"/>
    <polygon id="programa-generico-c" points=".352 .006 38.964 .006 38.964 43.362 .352 43.362"/>
    <polygon id="programa-generico-e" points=".191 .366 40.76 .366 40.76 29.298 .191 29.298"/>
  </defs>
  <g fill="none" fill-rule="evenodd">
    <rect width="149" height="149" fill="#0D744E"/>
    <g transform="translate(36 35)">
      <g transform="translate(0 34)">
        <mask id="programa-generico-b" fill="#fff">
          <use xlink:href="#programa-generico-a"/>
        </mask>
        <path fill="#FFF" d="M30.7162197,29.1051547 L15.6908152,29.1051547 C13.0291721,29.1051547 11.6554209,27.314467 11.2261236,26.5470295 C10.7968263,25.7795919 9.85237235,23.7330917 11.2261236,21.4307791 L15.6908152,13.6711327 C15.9483936,13.1595076 16.6352692,12.9889659 17.1504259,13.2447785 L19.4686312,14.5238411 C20.3272257,14.9501953 21.2716797,14.2680285 21.0141014,13.3300493 L17.6655827,1.13631921 C17.4938638,0.539423332 16.8928476,0.283610813 16.3776908,0.368881653 L4.09978893,3.6944444 C3.15533493,3.95025692 3.06947548,5.14404868 3.84221057,5.65567372 L6.16041582,6.93473631 C6.67557255,7.19054883 6.84729146,7.87271555 6.58971309,8.38434059 L2.12502149,16.143987 C-0.708340495,21.0896957 -0.708340495,26.8881128 2.12502149,31.8338215 C4.95838347,36.7795302 10.1099507,39.6787388 15.7766747,39.6787388 L30.973798,39.6787388 C33.9788789,39.6787388 36.3829436,37.2058844 36.2970842,34.1361342 C36.0395058,31.2369256 33.6354411,29.1051547 30.7162197,29.1051547" mask="url(#programa-generico-b)"/>
      </g>
      <g transform="translate(39 34)">
        <mask id="programa-generico-d" fill="#fff">
          <use xlink:href="#programa-generico-c"/>
        </mask>
        <path fill="#FFF" d="M36.7952989,15.1620174 L29.3966033,2.66346667 C27.8992482,0.112742029 24.5522192,-0.737499517 21.9979076,0.707911111 C19.3555163,2.15332174 18.4747192,5.38423961 19.9720743,7.8499401 L27.4588496,20.3484908 C28.868125,22.644143 27.8992482,24.6847227 27.4588496,25.4499401 C27.0184511,26.2151575 25.6091757,28.0006647 22.8787047,28.0006647 L12.9256975,28.0006647 C12.3091395,28.0006647 11.8687409,27.4905198 11.8687409,26.9803749 L11.8687409,24.3446261 C11.8687409,23.4093604 10.7237047,22.8992155 10.019067,23.5794087 L0.682617754,32.6769932 C0.242219203,33.102114 0.242219203,33.7823072 0.682617754,34.1224039 L9.93098732,43.0499401 C10.635625,43.7301333 11.7806612,43.2199884 11.7806612,42.2847227 L11.7806612,39.6489739 C11.7806612,39.0538048 12.3091395,38.6286841 12.8376178,38.6286841 L22.7025453,38.6286841 C28.5158062,38.6286841 33.8005888,35.7378628 36.7072192,30.8064618 C39.7019293,25.960085 39.7019293,20.0934184 36.7952989,15.1620174" mask="url(#programa-generico-d)"/>
      </g>
      <g transform="translate(20)">
        <mask id="programa-generico-f" fill="#fff">
          <use xlink:href="#programa-generico-e"/>
        </mask>
        <path fill="#FFF" d="M23.6131778,13.3741217 L27.7565137,21.3144944 C27.986699,21.8213267 27.8332421,22.4126311 27.4495999,22.7505193 L25.377932,24.102072 C24.6106476,24.6089043 24.7641044,25.791513 25.6081173,26.0449292 L36.6570128,29.2548671 C37.1941119,29.4238112 37.6544826,29.085923 37.8079395,28.4946186 L40.7236202,16.2461714 C40.9538056,15.3169789 40.0330643,14.6412025 39.3425083,15.0635627 L37.2708404,16.4151155 C36.8104697,16.6685317 36.2733706,16.4995876 35.9664569,16.0772273 L31.823121,8.13685466 C29.2910825,3.32194783 24.687376,0.365426087 19.6232989,0.365426087 C14.5592217,0.365426087 9.95551526,3.23747578 7.4234767,8.13685466 L0.824830744,20.8076621 C-0.479552758,23.3418236 0.287731655,26.4672894 2.5895849,27.9033143 C3.35686931,28.4101466 4.12415372,28.5790907 4.96816658,28.5790907 C6.57946384,28.5790907 8.19076111,27.6498981 9.11150241,25.9604571 L15.7101484,13.2896497 C16.9378034,11.0089043 18.9327429,10.7554882 19.7000273,10.7554882 C20.4673117,10.7554882 22.4622512,11.0933764 23.6131778,13.3741217" mask="url(#programa-generico-f)"/>
      </g>
    </g>
  </g>
</svg>
