<svg xmlns="http://www.w3.org/2000/svg" width="38" height="37" viewBox="0 0 38 37">
    <path fill="#9CD060" d="M28 0c5.523 0 10 4.477 10 10v17c0 5.523-4.477 10-10 10H10C4.477 37 0 32.523 0 27V10C0 4.477 4.477 0 10 0h18zm-4.018 6h-9.963C9.597 6 6 9.77 6 14.402v9.197C6 28.232 9.597 32 14.02 32h9.962C28.402 32 32 28.232 32 23.6v-9.198C32 9.769 28.403 6 23.982 6zm0 1.867c3.438 0 6.236 2.932 6.236 6.535v9.197c0 3.603-2.798 6.535-6.236 6.535h-9.963c-3.439 0-6.237-2.932-6.237-6.535v-9.197c0-3.603 2.798-6.535 6.237-6.535zM19.5 12c-4.136 0-7.5 3.365-7.5 7.5 0 4.136 3.364 7.5 7.5 7.5s7.5-3.364 7.5-7.5c0-4.135-3.364-7.5-7.5-7.5zm0 1.873c3.103 0 5.628 2.524 5.628 5.627 0 3.103-2.525 5.628-5.628 5.628s-5.628-2.525-5.628-5.628 2.525-5.627 5.628-5.627zm6-3.873c-.829 0-1.5.671-1.5 1.5s.671 1.5 1.5 1.5 1.5-.671 1.5-1.5-.671-1.5-1.5-1.5z"/>
</svg>
