<?xml version="1.0" encoding="UTF-8" standalone="no"?>
<svg
   xmlns:dc="http://purl.org/dc/elements/1.1/"
   xmlns:cc="http://creativecommons.org/ns#"
   xmlns:rdf="http://www.w3.org/1999/02/22-rdf-syntax-ns#"
   xmlns:svg="http://www.w3.org/2000/svg"
   xmlns="http://www.w3.org/2000/svg"
   xmlns:sodipodi="http://sodipodi.sourceforge.net/DTD/sodipodi-0.dtd"
   xmlns:inkscape="http://www.inkscape.org/namespaces/inkscape"
   inkscape:version="1.0 (6e3e5246a0, 2020-05-07)"
   sodipodi:docname="dr-instagram.svg"
   id="svg275"
   version="1.1"
   viewBox="0 0 512 512"
   height="512"
   width="512">
  <metadata
     id="metadata281">
    <rdf:RDF>
      <cc:Work
         rdf:about="">
        <dc:format>image/svg+xml</dc:format>
        <dc:type
           rdf:resource="http://purl.org/dc/dcmitype/StillImage" />
        <dc:title />
      </cc:Work>
    </rdf:RDF>
  </metadata>
  <defs
     id="defs279">
    <path
       d="M0 0.125L22.894 0.125 22.894 18.095 0 18.095z"
       id="prefix__a" />
    <path
       d="M0 0.005L11.387 0.005 11.387 18.346 0 18.346z"
       id="prefix__a-3" />
    <path
       d="M0 0.072L7.267 0.072 7.267 8.05 0 8.05z"
       id="prefix__a-7" />
    <path
       d="M0.072 0.001L7.993 0.001 7.993 8.87 0.072 8.87z"
       id="prefix__c" />
    <path
       d="M0.04 0.073L8.507 0.073 8.507 5.86 0.04 5.86z"
       id="prefix__e" />
    <path
       d="M0 0.125L22.894 0.125 22.894 18.095 0 18.095z"
       id="prefix__a-35" />
  </defs>
  <sodipodi:namedview
     inkscape:current-layer="layer1"
     inkscape:window-maximized="1"
     inkscape:window-y="27"
     inkscape:window-x="67"
     inkscape:cy="239.31434"
     inkscape:cx="178.45861"
     inkscape:zoom="0.90885417"
     inkscape:snap-bbox-edge-midpoints="true"
     inkscape:snap-smooth-nodes="true"
     inkscape:snap-bbox="true"
     inkscape:object-paths="true"
     inkscape:guide-bbox="true"
     showguides="true"
     showgrid="false"
     id="namedview277"
     inkscape:window-height="845"
     inkscape:window-width="1533"
     inkscape:pageshadow="2"
     inkscape:pageopacity="0"
     guidetolerance="10"
     gridtolerance="10"
     objecttolerance="10"
     borderopacity="1"
     bordercolor="#666666"
     pagecolor="#ffffff"
     inkscape:document-rotation="0">
    <sodipodi:guide
       inkscape:color="rgb(0,0,255)"
       inkscape:locked="false"
       inkscape:label=""
       id="guide285"
       orientation="-1,0"
       position="48,175.67752" />
    <sodipodi:guide
       inkscape:color="rgb(0,0,255)"
       inkscape:locked="false"
       inkscape:label=""
       id="guide568"
       orientation="0,1"
       position="337.78796,464" />
  </sodipodi:namedview>
  <g
     style="display:inline"
     inkscape:label="Layer 1"
     id="layer1"
     inkscape:groupmode="layer">
    <path
       d="m 357.18918,48 c 62.09644,0 112.43243,50.335994 112.43243,112.43243 V 351.56757 C 469.62161,413.66401 419.28562,464 357.18918,464 H 154.81082 C 92.714381,464 42.378387,413.66401 42.378387,351.56757 V 160.43243 C 42.378387,98.335994 92.714381,48 154.81082,48 Z m -45.17535,67.45947 H 199.9974 c -49.71761,0 -90.15957,42.38701 -90.15957,94.46572 v 103.4041 c 0,52.08995 40.44196,94.45449 90.17083,94.45449 h 112.00517 c 49.69515,0 90.14834,-42.36454 90.14834,-94.44325 V 209.92519 c 0,-52.08995 -40.44196,-94.46572 -90.14834,-94.46572 z m 0,20.99114 c 38.65428,0 70.11286,32.96517 70.11286,73.47458 v 103.4041 c 0,40.50942 -31.45858,73.47459 -70.11286,73.47459 H 199.9974 c -38.66551,0 -70.12409,-32.96517 -70.12409,-73.47459 v -103.4041 c 0,-40.50941 31.45858,-73.47458 70.12409,-73.47458 z m -50.39222,46.46831 c -46.50204,0 -84.32431,37.8335 -84.32431,84.32433 0,46.50204 37.82227,84.32432 84.32431,84.32432 46.50207,0 84.32434,-37.82228 84.32434,-84.32432 0,-46.49083 -37.82227,-84.32433 -84.32434,-84.32433 z m 0,21.05859 c 34.88778,0 63.27698,28.37794 63.27698,63.26574 0,34.88778 -28.3892,63.27695 -63.27698,63.27695 -34.88777,0 -63.27695,-28.38917 -63.27695,-63.27695 0,-34.8878 28.38918,-63.26574 63.27695,-63.26574 z m 67.45947,-43.54508 c -9.32064,0 -16.86486,7.54423 -16.86486,16.86487 0,9.32065 7.54422,16.86487 16.86486,16.86487 9.32065,0 16.86487,-7.54422 16.86487,-16.86487 0,-9.32064 -7.54422,-16.86487 -16.86487,-16.86487 z"
       id="path711" />
  </g>
  <inkscape:templateinfo>
    <inkscape:name>icon</inkscape:name>
    <inkscape:date>2020-05-20</inkscape:date>
  </inkscape:templateinfo>
</svg>
