<?xml version="1.0" encoding="UTF-8"?>
<svg width="38px" height="37px" viewBox="0 0 38 37" version="1.1" xmlns="http://www.w3.org/2000/svg" xmlns:xlink="http://www.w3.org/1999/xlink">
    <!-- Generator: Sketch 64 (93537) - https://sketch.com -->
    <title>dr-instagram</title>
    <desc>Created with Sketch.</desc>
    <g id="dr-instagram" stroke="none" stroke-width="1" fill="none" fill-rule="evenodd">
        <path d="M28,0 C33.5228475,-1.01453063e-15 38,4.4771525 38,10 L38,27 C38,32.5228475 33.5228475,37 28,37 L10,37 C4.4771525,37 6.76353751e-16,32.5228475 0,27 L0,10 C-6.76353751e-16,4.4771525 4.4771525,1.01453063e-15 10,0 L28,0 Z M23.9817971,6 L14.0190892,6 C9.59742296,6 6,9.76907143 6,14.4017143 L6,14.4017143 L6,23.5992143 C6,28.2318571 9.59742296,32 14.0190892,32 L14.0190892,32 L23.9817971,32 C28.402577,32 32,28.2318571 32,23.5992143 L32,23.5992143 L32,14.4017143 C32,9.76907143 28.402577,6 23.9817971,6 L23.9817971,6 Z M23.9817971,7.86735714 C27.4196891,7.86735714 30.2176848,10.7988571 30.2176848,14.4017143 L30.2176848,14.4017143 L30.2176848,23.5992143 C30.2176848,27.2020714 27.4196891,30.1335714 23.9817971,30.1335714 L23.9817971,30.1335714 L14.0190892,30.1335714 C10.5803109,30.1335714 7.78231524,27.2020714 7.78231524,23.5992143 L7.78231524,23.5992143 L7.78231524,14.4017143 C7.78231524,10.7988571 10.5803109,7.86735714 14.0190892,7.86735714 L14.0190892,7.86735714 Z M19.5,12 C15.3639637,12 12,15.3646862 12,19.5004656 C12,23.6362451 15.3639637,27 19.5,27 C23.6360363,27 27,23.6362451 27,19.5004656 C27,15.3646862 23.6360363,12 19.5,12 Z M19.5,13.8727882 C22.6031914,13.8727882 25.1280268,16.3965357 25.1280268,19.5004656 C25.1280268,22.6034643 22.6031914,25.128143 19.5,25.128143 C16.3968086,25.128143 13.8719732,22.6034643 13.8719732,19.5004656 C13.8719732,16.3965357 16.3968086,13.8727882 19.5,13.8727882 Z M25.5,10 C24.6714542,10 24,10.6714542 24,11.5 C24,12.3285458 24.6714542,13 25.5,13 C26.3285458,13 27,12.3285458 27,11.5 C27,10.6714542 26.3285458,10 25.5,10 Z" id="Combined-Shape" fill="#9CD060" fill-rule="nonzero"></path>
    </g>
</svg>