<?xml version="1.0" encoding="UTF-8" standalone="no"?>
<svg
   xmlns:dc="http://purl.org/dc/elements/1.1/"
   xmlns:cc="http://creativecommons.org/ns#"
   xmlns:rdf="http://www.w3.org/1999/02/22-rdf-syntax-ns#"
   xmlns:svg="http://www.w3.org/2000/svg"
   xmlns="http://www.w3.org/2000/svg"
   xmlns:sodipodi="http://sodipodi.sourceforge.net/DTD/sodipodi-0.dtd"
   xmlns:inkscape="http://www.inkscape.org/namespaces/inkscape"
   width="512"
   height="512"
   viewBox="0 0 512 512"
   version="1.1"
   id="svg275"
   sodipodi:docname="dr-info.svg"
   inkscape:version="1.0 (6e3e5246a0, 2020-05-07)">
  <metadata
     id="metadata281">
    <rdf:RDF>
      <cc:Work
         rdf:about="">
        <dc:format>image/svg+xml</dc:format>
        <dc:type
           rdf:resource="http://purl.org/dc/dcmitype/StillImage" />
        <dc:title />
      </cc:Work>
    </rdf:RDF>
  </metadata>
  <defs
     id="defs279" />
  <sodipodi:namedview
     inkscape:document-rotation="0"
     pagecolor="#ffffff"
     bordercolor="#666666"
     borderopacity="1"
     objecttolerance="10"
     gridtolerance="10"
     guidetolerance="10"
     inkscape:pageopacity="0"
     inkscape:pageshadow="2"
     inkscape:window-width="1533"
     inkscape:window-height="845"
     id="namedview277"
     showgrid="false"
     showguides="true"
     inkscape:guide-bbox="true"
     inkscape:object-paths="true"
     inkscape:snap-bbox="true"
     inkscape:snap-smooth-nodes="true"
     inkscape:snap-bbox-edge-midpoints="true"
     inkscape:zoom="0.90885417"
     inkscape:cx="711.65892"
     inkscape:cy="200.27076"
     inkscape:window-x="67"
     inkscape:window-y="27"
     inkscape:window-maximized="1"
     inkscape:current-layer="svg275">
    <sodipodi:guide
       position="48,175.67752"
       orientation="-1,0"
       id="guide285"
       inkscape:label=""
       inkscape:locked="false"
       inkscape:color="rgb(0,0,255)" />
  </sodipodi:namedview>
  <g
     id="g273"
     transform="matrix(20.00577,0,0,20.00577,-239.84302,-229.84012)">
    <path
       transform="matrix(0.04998558,0,0,0.04998558,11.988692,11.488692)"
       d="M 256 48 C 141.12687 48 48 141.12687 48 256 C 48 370.87313 141.12687 464 256 464 C 370.87313 464 464 370.87313 464 256 C 464 141.12687 370.87313 48 256 48 z M 256.00391 118.73633 A 30.008655 30.008655 0 0 1 286.01172 148.74609 L 286.01172 155.89648 A 30.008655 30.008655 0 0 1 256.00391 185.9043 A 30.008655 30.008655 0 0 1 225.99414 155.89648 L 225.99414 148.74609 A 30.008655 30.008655 0 0 1 256.00391 118.73633 z M 256.00391 225.99414 A 30.008655 30.008655 0 0 1 286.01172 256.00391 L 286.01172 365.01953 A 30.008655 30.008655 0 0 1 256.00391 395.02734 A 30.008655 30.008655 0 0 1 225.99414 365.01953 L 225.99414 256.00391 A 30.008655 30.008655 0 0 1 256.00391 225.99414 z "
       style="stroke:none;stroke-width:20.0058;"
       id="path269" />
  </g>
</svg>
