<?xml version="1.0" encoding="UTF-8"?>
<svg width="25px" height="25px" viewBox="0 0 25 25" version="1.1" xmlns="http://www.w3.org/2000/svg" xmlns:xlink="http://www.w3.org/1999/xlink">
    <title>dr-locate</title>
    <g id="dr-locate" stroke="none" stroke-width="1" fill="none" fill-rule="evenodd">
        <path d="M13,2.5 C7.4771525,2.5 3,6.9771525 3,12.5 C3,18.0228475 7.4771525,22.5 13,22.5 C18.5228475,22.5 23,18.0228475 23,12.5 C23,6.9771525 18.5228475,2.5 13,2.5 Z M13,5.5 C16.8659932,5.5 20,8.63400675 20,12.5 C20,16.3659932 16.8659932,19.5 13,19.5 C9.13400675,19.5 6,16.3659932 6,12.5 C6,8.63400675 9.13400675,5.5 13,5.5 Z" id="Oval" fill="#4A4A4A" fill-rule="nonzero"></path>
        <polygon id="Path-5" fill="#4A4A4A" fill-rule="nonzero" points="25 11.5 25 14.5 17 14.5 17 11.5"></polygon>
        <polygon id="Path-5-Copy" fill="#4A4A4A" fill-rule="nonzero" points="8 11.5 8 14.5 0 14.5 0 11.5"></polygon>
        <polygon id="Path-5" fill="#4A4A4A" fill-rule="nonzero" transform="translate(13.000000, 21.000000) rotate(-270.000000) translate(-13.000000, -21.000000) " points="17 19.5 17 22.5 9 22.5 9 19.5"></polygon>
        <polygon id="Path-5-Copy" fill="#4A4A4A" fill-rule="nonzero" transform="translate(13.000000, 4.000000) rotate(-270.000000) translate(-13.000000, -4.000000) " points="17 2.5 17 5.5 9 5.5 9 2.5"></polygon>
    </g>
</svg>