<?xml version="1.0" encoding="UTF-8"?>
<svg width="38px" height="37px" viewBox="0 0 38 37" version="1.1" xmlns="http://www.w3.org/2000/svg" xmlns:xlink="http://www.w3.org/1999/xlink">
    <!-- Generator: Sketch 64 (93537) - https://sketch.com -->
    <title>dr-linked-in</title>
    <desc>Created with Sketch.</desc>
    <g id="dr-linked-in" stroke="none" stroke-width="1" fill="none" fill-rule="evenodd">
        <path d="M27,0 C33.0751322,-1.11598369e-15 38,4.92486775 38,11 L38,26 C38,32.0751322 33.0751322,37 27,37 L11,37 C4.92486775,37 7.43989126e-16,32.0751322 0,26 L0,11 C-7.43989126e-16,4.92486775 4.92486775,1.11598369e-15 11,0 L27,0 Z M12.6578248,14.3049358 L8.3422466,14.3049358 L8.3422466,29 L12.6578248,29 L12.6578248,14.3049358 Z M24.613651,14 C22.4292401,14 20.9641645,15.2135135 20.365549,16.3641771 L20.365549,16.3641771 L20.3039618,16.3641771 L20.3039618,14.3632326 L16,14.3632326 L16,29 L20.4846324,29 L20.4846324,21.7606684 C20.4846324,19.8512103 20.8410645,18.0012108 23.1773607,18.0012108 C25.4816731,18.0012108 25.5103841,20.1848266 25.5103841,21.8821478 L25.5103841,29 L30,29 L30,20.9727098 C30,17.0307316 29.1597962,14 24.613651,14 Z M10.5012141,7 C9.11658668,7 8,8.18656973 8,9.64838914 C8,11.1106625 9.11658668,12.2972322 10.5012141,12.2972322 C11.8803422,12.2972322 13,11.1106625 13,9.64838914 C13,8.18656973 11.8803422,7 10.5012141,7 Z" id="Combined-Shape" fill="#9CD060" fill-rule="nonzero"></path>
    </g>
</svg>