<?xml version="1.0" encoding="UTF-8" standalone="no"?>
<svg
   xmlns:dc="http://purl.org/dc/elements/1.1/"
   xmlns:cc="http://creativecommons.org/ns#"
   xmlns:rdf="http://www.w3.org/1999/02/22-rdf-syntax-ns#"
   xmlns:svg="http://www.w3.org/2000/svg"
   xmlns="http://www.w3.org/2000/svg"
   xmlns:sodipodi="http://sodipodi.sourceforge.net/DTD/sodipodi-0.dtd"
   xmlns:inkscape="http://www.inkscape.org/namespaces/inkscape"
   inkscape:version="1.0 (6e3e5246a0, 2020-05-07)"
   sodipodi:docname="dr-linked-in.svg"
   id="svg275"
   version="1.1"
   viewBox="0 0 512 512"
   height="512"
   width="512">
  <metadata
     id="metadata281">
    <rdf:RDF>
      <cc:Work
         rdf:about="">
        <dc:format>image/svg+xml</dc:format>
        <dc:type
           rdf:resource="http://purl.org/dc/dcmitype/StillImage" />
        <dc:title />
      </cc:Work>
    </rdf:RDF>
  </metadata>
  <defs
     id="defs279">
    <path
       d="M0 0.125L22.894 0.125 22.894 18.095 0 18.095z"
       id="prefix__a" />
    <path
       d="M0 0.005L11.387 0.005 11.387 18.346 0 18.346z"
       id="prefix__a-3" />
    <path
       d="M0 0.072L7.267 0.072 7.267 8.05 0 8.05z"
       id="prefix__a-7" />
    <path
       d="M0.072 0.001L7.993 0.001 7.993 8.87 0.072 8.87z"
       id="prefix__c" />
    <path
       d="M0.04 0.073L8.507 0.073 8.507 5.86 0.04 5.86z"
       id="prefix__e" />
  </defs>
  <sodipodi:namedview
     inkscape:current-layer="layer1"
     inkscape:window-maximized="1"
     inkscape:window-y="27"
     inkscape:window-x="67"
     inkscape:cy="239.31434"
     inkscape:cx="178.45861"
     inkscape:zoom="0.90885417"
     inkscape:snap-bbox-edge-midpoints="true"
     inkscape:snap-smooth-nodes="true"
     inkscape:snap-bbox="true"
     inkscape:object-paths="true"
     inkscape:guide-bbox="true"
     showguides="true"
     showgrid="false"
     id="namedview277"
     inkscape:window-height="845"
     inkscape:window-width="1533"
     inkscape:pageshadow="2"
     inkscape:pageopacity="0"
     guidetolerance="10"
     gridtolerance="10"
     objecttolerance="10"
     borderopacity="1"
     bordercolor="#666666"
     pagecolor="#ffffff"
     inkscape:document-rotation="0">
    <sodipodi:guide
       inkscape:color="rgb(0,0,255)"
       inkscape:locked="false"
       inkscape:label=""
       id="guide285"
       orientation="-1,0"
       position="48,175.67752" />
    <sodipodi:guide
       inkscape:color="rgb(0,0,255)"
       inkscape:locked="false"
       inkscape:label=""
       id="guide568"
       orientation="0,1"
       position="337.78796,464" />
  </sodipodi:namedview>
  <g
     style="display:inline"
     inkscape:label="Layer 1"
     id="layer1"
     inkscape:groupmode="layer">
    <path
       id="path570"
       d="m 345.94595,48 c 68.3027,0 123.67567,55.37297 123.67567,123.67568 V 340.32432 C 469.62162,408.62703 414.24865,464 345.94595,464 H 166.05405 C 97.751351,464 42.378378,408.62703 42.378378,340.32432 V 171.67568 C 42.378378,103.37297 97.751351,48 166.05405,48 Z M 172.68757,201.27914 h -58.24 v 195.2614 h 58.24 z m 155.94378,-7.11698 c -29.82832,0 -49.83005,16.37016 -58.00389,31.89708 h -0.84324 v -26.99502 h -58.75719 v 197.47632 h 61.2307 v -97.67005 c 0,-25.76952 4.85708,-50.72952 36.76541,-50.72952 31.44735,0 31.84086,29.4573 31.84086,52.37103 v 96.02854 h 61.29816 V 288.23438 c 0,-53.18054 -11.46811,-94.07222 -73.53081,-94.07222 z M 143.56757,104.21622 c -18.66379,0 -33.72973,15.76302 -33.72973,35.19135 0,19.42832 15.06594,35.19135 33.74097,35.19135 18.60757,0 33.71849,-15.76303 33.71849,-35.19135 0,-19.42833 -15.11092,-35.19135 -33.71849,-35.19135 z" />
  </g>
  <inkscape:templateinfo>
    <inkscape:name>icon</inkscape:name>
    <inkscape:date>2020-05-20</inkscape:date>
  </inkscape:templateinfo>
</svg>
