<svg xmlns="http://www.w3.org/2000/svg" width="38" height="37" viewBox="0 0 38 37">
    <path fill="#9CD060" d="M27 0c6.075 0 11 4.925 11 11v15c0 6.075-4.925 11-11 11H11C4.925 37 0 32.075 0 26V11C0 4.925 4.925 0 11 0h16zM11.59 13.633H6.41V31h5.18V13.633zM25.46 13c-2.653 0-4.432 1.456-5.159 2.837h-.075v-2.401H15V31h5.446v-8.687c0-2.292.432-4.512 3.27-4.512 2.797 0 2.832 2.62 2.832 4.658V31H32v-9.633C32 16.637 30.98 13 25.46 13zM9 5C7.34 5 6 6.402 6 8.13s1.34 3.13 3.001 3.13C10.656 11.26 12 9.858 12 8.13S10.656 5 9.001 5z"/>
</svg>
