<svg xmlns="http://www.w3.org/2000/svg" width="60" height="45" viewBox="0 0 60 45">
    <g fill="none" fill-rule="evenodd">
        <path fill="#08492C" d="M16.048 42.694c0 .812 5.55 1.47 12.397 1.47s12.397-.658 12.397-1.47c0-.812-5.55-1.47-12.397-1.47s-12.397.658-12.397 1.47" transform="translate(7)"/>
        <path fill="#FDE485" d="M11.142 16.891c-.014-.213-.021-.424-.021-.633C11.12 7.279 18.706 0 28.06 0 37.417 0 45 7.279 45 16.258c0 .209-.007.42-.021.633.014.294.02.589.02.886 0 9.818-15.182 24.493-16.94 24.493-1.755 0-16.94-14.675-16.94-24.493 0-.297.008-.592.022-.886m16.919 6.593c3.475 0 6.292-2.734 6.292-6.106s-2.817-6.106-6.292-6.106c-3.475 0-6.292 2.734-6.292 6.106s2.817 6.106 6.292 6.106" transform="translate(7)"/>
        <path fill="#0D633E" d="M18.531 31.34l2.03-2.256c.35-.388.206-1.07-.32-1.524-.288-.247-.645-.386-.974-.378l-.43.011.162-.179c.5-.556.295-1.533-.459-2.183-.362-.31-.804-.504-1.23-.536l-.405-.03c.354-.393.5-1.154-.219-1.902-.52-.54-1.688-1.36-2.697-.444l.005-.144 3.434-3.8c.59-.656.348-1.807-.54-2.572-.889-.765-2.087-.854-2.677-.199l-3.052 3.391c.342 4.254 3.252 9.277 6.578 13.602.265-.285.532-.567.794-.858" transform="translate(7)"/>
        <path fill="#69B482" d="M5.401 22.039l8.898-7.144c.793-.636 1.951-.51 2.588.283.636.793.51 1.95-.283 2.587l-4.61 3.69-.05.145c1.29-.885 2.186-.028 2.53.529.474.769.087 1.525-.389 1.907l.392.043c.412.045.79.252 1.048.575.54.672.433 1.655-.24 2.195l-.217.175.43.002c.328.002.638.152.843.408.378.47.303 1.157-.167 1.534l-2.728 2.19c-1.115.895-2.232 1.774-3.396 2.553-2.794 1.868-6.568 1.226-8.672-1.395-1.413-1.761-1.769-4.147-.93-6.244l2.996-7.494c.285-.712 1.085-1.068 1.804-.802.691.256 1.07 1 .871 1.709l-.718 2.554z" transform="translate(7)"/>
    </g>
</svg>
