<svg xmlns="http://www.w3.org/2000/svg" xmlns:xlink="http://www.w3.org/1999/xlink" width="18" height="18" viewBox="0 0 18 18">
    <defs>
        <path id="prefix__a" d="M0 0.072L7.267 0.072 7.267 8.05 0 8.05z"/>
        <path id="prefix__c" d="M0.072 0.001L7.993 0.001 7.993 8.87 0.072 8.87z"/>
        <path id="prefix__e" d="M0.04 0.073L8.507 0.073 8.507 5.86 0.04 5.86z"/>
    </defs>
    <g fill="none" fill-rule="evenodd">
        <g transform="translate(1 1) translate(0 7)">
            <mask id="prefix__b" fill="#fff">
                <use xlink:href="#prefix__a"/>
            </mask>
            <path fill="#FFF" d="M6.15 5.905H3.14c-.533 0-.808-.364-.894-.52-.085-.155-.275-.57 0-1.037l.894-1.575c.052-.103.19-.138.293-.086l.464.26c.172.086.36-.052.309-.243L3.537.231C3.502.109 3.382.058 3.279.075L.82.749c-.19.052-.206.295-.052.398l.464.26c.103.052.138.19.086.294L.425 3.275c-.567 1.003-.567 2.18 0 3.183C.993 7.461 2.024 8.05 3.158 8.05h3.043c.602 0 1.083-.502 1.066-1.125-.052-.588-.533-1.02-1.118-1.02" mask="url(#prefix__b)"/>
        </g>
        <g transform="translate(1 1) translate(8 7)">
            <mask id="prefix__d" fill="#fff">
                <use xlink:href="#prefix__c"/>
            </mask>
            <path fill="#FFF" d="M7.548 3.101L6.03.545c-.307-.522-.994-.696-1.518-.4-.542.295-.722.956-.415 1.46l1.536 2.557c.289.47.09.887 0 1.044-.09.156-.38.521-.94.521H2.651c-.126 0-.216-.104-.216-.208v-.54c0-.19-.235-.295-.38-.156L.14 6.683c-.09.088-.09.227 0 .297l1.897 1.826c.145.139.38.034.38-.157V8.11c0-.122.108-.209.216-.209h2.024c1.192 0 2.276-.591 2.873-1.6.614-.991.614-2.191.018-3.2" mask="url(#prefix__d)"/>
        </g>
        <g transform="translate(1 1) translate(4)">
            <mask id="prefix__f" fill="#fff">
                <use xlink:href="#prefix__e"/>
            </mask>
            <path fill="#FFF" d="M4.928 2.675l.865 1.588c.048.101.016.22-.064.287l-.432.27c-.16.102-.128.338.048.389l2.306.642c.112.034.208-.034.24-.152l.609-2.45c.048-.186-.144-.32-.289-.236l-.432.27c-.096.05-.208.017-.272-.068l-.865-1.588C6.114.664 5.152.073 4.096.073c-1.057 0-2.018.574-2.547 1.554L.172 4.162C-.1 4.668.06 5.293.54 5.58c.16.101.32.135.497.135.336 0 .673-.186.865-.524l1.377-2.534c.256-.456.673-.507.833-.507.16 0 .576.068.816.524" mask="url(#prefix__f)"/>
        </g>
    </g>
</svg>
