<?xml version="1.0" encoding="UTF-8" standalone="no"?>
<svg
   xmlns:dc="http://purl.org/dc/elements/1.1/"
   xmlns:cc="http://creativecommons.org/ns#"
   xmlns:rdf="http://www.w3.org/1999/02/22-rdf-syntax-ns#"
   xmlns:svg="http://www.w3.org/2000/svg"
   xmlns="http://www.w3.org/2000/svg"
   xmlns:sodipodi="http://sodipodi.sourceforge.net/DTD/sodipodi-0.dtd"
   xmlns:inkscape="http://www.inkscape.org/namespaces/inkscape"
   width="512"
   height="512"
   viewBox="0 0 512 512"
   version="1.1"
   id="svg275"
   sodipodi:docname="dr-marker.svg"
   inkscape:version="1.0 (6e3e5246a0, 2020-05-07)">
  <metadata
     id="metadata281">
    <rdf:RDF>
      <cc:Work
         rdf:about="">
        <dc:format>image/svg+xml</dc:format>
        <dc:type
           rdf:resource="http://purl.org/dc/dcmitype/StillImage" />
        <dc:title />
      </cc:Work>
    </rdf:RDF>
  </metadata>
  <defs
     id="defs279" />
  <sodipodi:namedview
     inkscape:document-rotation="0"
     pagecolor="#ffffff"
     bordercolor="#666666"
     borderopacity="1"
     objecttolerance="10"
     gridtolerance="10"
     guidetolerance="10"
     inkscape:pageopacity="0"
     inkscape:pageshadow="2"
     inkscape:window-width="1533"
     inkscape:window-height="845"
     id="namedview277"
     showgrid="false"
     showguides="true"
     inkscape:guide-bbox="true"
     inkscape:object-paths="true"
     inkscape:snap-bbox="true"
     inkscape:snap-smooth-nodes="true"
     inkscape:snap-bbox-edge-midpoints="true"
     inkscape:zoom="0.90885417"
     inkscape:cx="237.87408"
     inkscape:cy="327.33726"
     inkscape:window-x="67"
     inkscape:window-y="27"
     inkscape:window-maximized="1"
     inkscape:current-layer="layer1">
    <sodipodi:guide
       position="48,175.67752"
       orientation="-1,0"
       id="guide285"
       inkscape:label=""
       inkscape:locked="false"
       inkscape:color="rgb(0,0,255)" />
    <sodipodi:guide
       position="337.78796,464"
       orientation="0,1"
       id="guide568"
       inkscape:label=""
       inkscape:locked="false"
       inkscape:color="rgb(0,0,255)" />
  </sodipodi:namedview>
  <g
     inkscape:groupmode="layer"
     id="layer1"
     inkscape:label="Layer 1"
     style="display:inline">
    <path
       style="display:inline"
       id="path444"
       d="m 256,57.904782 c 87.51846,0 158.47617,68.223988 158.47617,152.374838 0,1.94134 -0.0594,3.88268 -0.19816,5.8438 0.13876,2.77335 0.19816,5.5863 0.19816,8.39926 0,92.03502 -142.03407,229.57254 -158.47617,229.57254 -16.44192,0 -158.476173,-137.53752 -158.476173,-229.57254 0,-2.81296 0.0594,-5.60609 0.19816,-8.39926 -0.138758,-1.96112 -0.19816,-3.90246 -0.19816,-5.8438 C 97.523827,126.12877 168.48154,57.904782 256,57.904782 Z m 0,79.238078 c -43.77904,0 -79.23808,35.45904 -79.23808,79.23811 0,43.77902 35.45904,79.23806 79.23808,79.23806 43.77904,0 79.23808,-35.45904 79.23808,-79.23806 0,-43.77907 -35.45904,-79.23811 -79.23808,-79.23811 z"
       stroke-width="19.8096"
       stroke="#9cd060"
       fill="#9cd060" />
  </g>
  <g
     inkscape:groupmode="layer"
     id="layer2"
     inkscape:label="Layer 2"
     style="display:none">
    <g
       id="g409"
       transform="matrix(9.5366212,0,0,9.5366212,160.0553,120.75863)"
       fill="none">
      <circle
         id="circle401"
         fill="#9cd060"
         r="3.5"
         cy="3.5"
         cx="14.5" />
      <circle
         id="circle403"
         fill="#9cd060"
         r="3.5"
         cy="11.5"
         cx="3.5" />
      <circle
         id="circle405"
         fill="#9cd060"
         r="3.5"
         cy="19.5"
         cx="14.5" />
      <path
         id="path407"
         d="M 16,3 5,10 M 16,20 5,13 Z"
         stroke-width="3"
         stroke="#9cd060" />
    </g>
    <g
       id="g430"
       transform="matrix(9.5366212,0,0,9.5366212,131.44553,139.83187)"
       fill="#9cd060">
      <rect
         id="rect424"
         rx="1.5"
         height="3"
         width="24"
         x="0"
         y="0" />
      <rect
         id="rect426"
         rx="1.5"
         y="16"
         height="3"
         width="24"
         x="0" />
      <rect
         id="rect428"
         rx="1.5"
         y="8"
         x="10"
         height="3"
         width="14" />
    </g>
  </g>
</svg>
