<svg width="30" height="24" viewBox="0 0 30 24" xmlns="http://www.w3.org/2000/svg">
    <path d="M25.125 24H4.875a4.875 4.875 0 0 1-4.867-4.599L0 19.125V3.375A3.375 3.375 0 0 1 3.144.008L3.375 0h18.75a3.375 3.375 0 0 1 3.367 3.144l.008.231V4.5h1.125a3.375 3.375 0 0 1 3.367 3.144l.008.231v11.25a4.875 4.875 0 0 1-4.599 4.867l-.276.008H4.875h20.25zm-20.25-2.25h20.25a2.625 2.625 0 0 0 2.616-2.41l.009-.215V7.875a1.125 1.125 0 0 0-.972-1.114l-.153-.011H25.5v11.625a1.125 1.125 0 0 1-.972 1.114l-.153.011a1.125 1.125 0 0 1-1.114-.972l-.011-.153v-15a1.125 1.125 0 0 0-.972-1.115l-.153-.01H3.375a1.125 1.125 0 0 0-1.115.972l-.01.153v15.75a2.625 2.625 0 0 0 2.409 2.616l.216.009h20.25-20.25zm10.494-6h4.509a1.125 1.125 0 0 1 .153 2.24l-.153.01h-4.509a1.125 1.125 0 0 1-.153-2.24l.153-.01h4.509-4.509zm-4.505-5.242a1.125 1.125 0 0 1 1.125 1.125v5.242A1.125 1.125 0 0 1 10.864 18H5.622a1.125 1.125 0 0 1-1.125-1.125v-5.242a1.125 1.125 0 0 1 1.125-1.125h5.242zm-1.125 2.25H6.747v2.992h2.992v-2.992zm5.63-2.25h4.509a1.125 1.125 0 0 1 .153 2.239l-.153.01h-4.509a1.125 1.125 0 0 1-.153-2.24l.153-.01h4.509-4.509zM5.622 5.253h14.256a1.125 1.125 0 0 1 .153 2.241l-.153.009H5.622a1.125 1.125 0 0 1-.153-2.24l.153-.01h14.256H5.622z"/>
</svg>
