<svg xmlns="http://www.w3.org/2000/svg" width="30" height="32" viewBox="0 0 30 32">
    <g fill="none" stroke="#FFF">
        <path stroke-width="2" d="M26 6H1v22c0 .828.336 1.578.879 2.121C2.422 30.664 3.172 31 4 31h22c.828 0 1.578-.336 2.121-.879.543-.543.879-1.293.879-2.121V9c0-.828-.336-1.578-.879-2.121C27.578 6.336 26.828 6 26 6zM19 1H3.5c-.69 0-1.315.28-1.768.732C1.28 2.185 1 2.81 1 3.5s.28 1.315.732 1.768C2.185 5.72 2.81 6 3.5 6H19V1z"/>
        <rect width="8" height="7" x="15.5" y="11.5" rx="1"/>
        <path stroke-linecap="round" d="M23 21.5L7 21.5M12.634 18.5L7 18.5M12.634 14.5L7 14.5M12.634 12L7 12M23 24.5L7 24.5"/>
    </g>
</svg>
