<svg xmlns="http://www.w3.org/2000/svg" xmlns:xlink="http://www.w3.org/1999/xlink" width="60" height="45" viewBox="0 0 60 45">
    <defs>
        <path id="prefix__a" d="M0 0.975L45.448 0.975 45.448 26.395 0 26.395z"/>
        <path id="prefix__c" d="M0.262 0.765L54.349 0.765 54.349 23.008 0.262 23.008z"/>
    </defs>
    <g fill="none" fill-rule="evenodd">
        <path fill="#08492C" d="M11.178 39.674c0 1.105 7.163 2 16 2s16-.895 16-2-7.163-2-16-2-16 .895-16 2M.13 14.063c-1.432 6.373 9.077 16.056 23.974 19.406 14.897 3.35 28.54-.9 29.974-7.273 1.433-6.373-9.646-13.523-24.543-16.873C14.638 5.972 1.564 7.69.13 14.063" transform="translate(3 2)"/>
        <g transform="translate(3 2) translate(0 6.674)">
            <mask id="prefix__b" fill="#fff">
                <use xlink:href="#prefix__a"/>
            </mask>
            <path fill="#0D633E" d="M26.101 1.963C12.678-.403 1.452 1.512.131 7.389c-1.322 5.878 7.518 14.567 20.586 18.51 13.5 2.032 23.258-2.474 24.58-8.352C46.617 11.67 39.244 5.572 26.1 1.963" mask="url(#prefix__b)"/>
        </g>
        <g transform="translate(3 2) translate(0 6.674)">
            <mask id="prefix__d" fill="#fff">
                <use xlink:href="#prefix__c"/>
            </mask>
            <path fill="#69B482" d="M.331 6.498c-1.056 4.694 10.165 11.216 25.062 14.566 14.897 3.35 27.83 2.26 28.885-2.433 1.055-4.694-9.746-13.08-24.643-16.43C14.738-1.148 1.387 1.805.331 6.499" mask="url(#prefix__d)"/>
        </g>
        <path fill="#0D633E" d="M45.427 19.605c0 3.014-9.228 4.79-18.798 2.637-9.57-2.152-16.606-7.773-15.858-10.432 1.404-4.99 11.432-2.706 21.002-.553 9.57 2.152 13.654 2.438 13.654 8.348" transform="translate(3 2)"/>
        <path fill="#FDE485" d="M43.938 18.797c-.602 2.671-8.382 4.35-17.074 2.396-8.69-1.955-14.953-7.027-14.403-9.475C14.305 3.523 22.846-1.535 31.538.42s14.244 10.182 12.4 18.377" transform="translate(3 2)"/>
        <path stroke="#FFF" stroke-linecap="round" stroke-linejoin="round" stroke-width="1.31" d="M25.42 3.585c.76-.26 1.553-.447 2.368-.554M16.894 12.319c.725-3.223 2.854-5.785 5.656-7.256" transform="translate(3 2)"/>
        <path fill="#FFF" d="M14.114 13.487C15.936 5.384 23.689.077 32.18.597 31.965.54 31.757.47 31.537.42c-8.692-1.955-17.232 3.103-19.075 11.298-.212.941.59 2.27 2.142 3.66-.428-.71-.61-1.358-.49-1.89" transform="translate(3 2)"/>
        <path fill="#FBB03B" d="M31.537.42c-.832-.187-1.66-.29-2.483-.353C36.334 2.869 40.726 10.29 39.06 17.7c-.542 2.41-6.94 4.004-14.57 2.856.77.234 1.558.453 2.375.637 8.692 1.955 16.472.275 17.073-2.396C45.78 10.603 40.228 2.375 31.537.42" transform="translate(3 2)"/>
    </g>
</svg>
