<?xml version="1.0" encoding="UTF-8"?>
<svg width="40px" height="40px" viewBox="0 0 40 40" version="1.1" xmlns="http://www.w3.org/2000/svg" xmlns:xlink="http://www.w3.org/1999/xlink">
    <title>dr-inicio</title>
    <g id="dr-inicio" stroke="none" stroke-width="1" fill="none" fill-rule="evenodd">
        <path d="M15.6356805,31.2638128 C16.105845,32.4875614 16.6275095,33.9894485 16.6275095,33.9894485 L14.769572,37.8209723 L14.5691984,37.629 L14.5625178,37.6424465 L12.8607946,36.0857959 C12.8607946,36.0857959 14.0596729,31.9293265 15.4434207,31.2670724 L15.4434207,31.2670724 L15.4796404,31.3578821 C15.531347,31.3215133 15.5833792,31.2900079 15.6356805,31.2638128 Z M25.8336409,31.2638128 L25.8541984,31.304 L25.9228235,31.2726488 L27.865392,34.978858 L25.7509282,35.7076755 L25.6711984,35.549 L25.6663443,35.5511863 L23.9412643,32.1450791 L25.8336409,31.2638128 Z M9.56088069,9.25101728 L15.5315884,11.2281525 L15.5764321,16.9797915 L12.8627959,16.9797915 C12.8524537,16.9411955 12.7722234,16.6097892 12.7722234,15.5539613 L12.7722234,15.5539613 L12.6707047,15.6559625 C9.37415051,19.1083198 11.3932342,31.0255909 22.6337153,27.5173103 L22.6337153,27.5173103 L23.8999609,29.9107003 L23.3998681,30.0502816 C7.05247411,34.4360792 6.08499537,17.120973 11.2348502,12.8850687 L11.2348502,12.8850687 L8.83718537,11.8730924 L9.56088069,9.25101728 Z M16.6275095,8.90435823 C33.676093,4.04340369 34.7300467,21.6103292 29.4596802,25.8756679 L29.4596802,25.8756679 L31.8886162,26.8844155 L31.1544952,29.4984238 L25.1057693,27.5269984 L25.0588405,21.7937106 L27.8102994,21.7937106 C27.8102994,21.7937106 27.9014667,22.0964545 27.9014667,23.2152908 C31.3846553,19.9126298 29.414246,7.75799982 17.9107266,11.290112 L17.9107266,11.290112 Z M7.06999781,24.7934457 L7.07960756,24.7963683 C7.23102102,24.8431917 9.11506513,25.4541371 8.6838597,26.7367608 L8.6838597,26.7367608 L8.62798443,26.8243458 C7.98593614,27.6947449 4.46182207,29.2284724 4.46182207,29.2284724 L4.46182207,29.2284724 L4.44719258,29.2069658 C4.38886887,29.2325089 4.35691312,29.2462253 4.35691312,29.2462253 L4.35691312,29.2462253 L3.2609922,27.4249537 L3.35319844,27.361 L3.34390231,27.3443068 L7.06999781,24.7934457 Z M34.0583248,22.7005661 L34.1332131,22.7017898 L34.1332131,22.7017898 L34.2146107,22.704496 C34.2430006,22.7058866 34.272553,22.7076854 34.3032555,22.7099527 L34.3989956,22.7185091 C34.4979426,22.7282974 34.6071284,22.7428453 34.7262113,22.7637866 L34.8484623,22.7866699 C35.7699636,22.9729135 37.2174706,23.5323368 39.0563575,25.1089603 L39.0563575,25.1089603 L38.975956,25.2933178 C38.6672701,25.9300197 38.2141949,26.1675129 37.8905402,27.088819 L37.8905402,27.088819 L37.7774452,26.9850187 C37.7447434,27.0606036 37.7129872,27.1414902 37.6824197,27.2286378 C36.9473305,26.5198972 35.3751135,25.8833021 33.0068186,25.2943112 C32.6512424,24.6945909 32.7450292,24.1573874 32.9520613,23.7505619 C33.1734227,23.125872 33.7163558,22.726593 33.7163558,22.726593 C33.7163558,22.726593 33.7686636,22.71516 33.8700767,22.707538 L33.95512,22.702494 L33.95512,22.702494 L34.0583248,22.7005661 Z M7.54836569,16.2035307 C7.54836569,16.9728105 7.24134587,18.4016924 7.24134587,18.4016924 L2.25219844,17.3027652 L2.25219844,15.1989202 L2.28461568,15.1946158 C2.63616414,15.149796 5.76321738,14.797787 7.54836569,16.2035307 Z M36.8033081,10.2452068 L37.784237,12.4651739 L37.7831984,12.465 L37.8121785,12.5276651 C37.8121785,12.5276651 34.760866,14.192013 33.0421505,14.1114884 L32.8801304,14.0981342 C32.8023369,13.7369939 32.5725747,13.2656075 32.2638128,12.2141241 C32.2639832,12.1997004 32.2674452,12.1846904 32.2740217,12.1691358 L32.2707816,12.1482575 C32.2770734,11.6063024 36.8033081,10.2452068 36.8033081,10.2452068 L36.8033081,10.2452068 Z M13.0318803,3.10897237 L15.0362094,7.11299349 L13.0915433,8.0223914 L11.1463007,4.32189852 L13.0318803,3.10897237 Z M25.4537073,1 L27.4720425,1.9976775 C27.4720425,1.9976775 26.0500268,6.13361519 25.8212483,6.80056413 C25.7425998,6.75324237 25.6432211,6.70104331 25.5299485,6.64607663 L25.5181531,6.67730214 L25.423689,6.62425141 C24.7754063,6.27698708 23.2201209,5.72861988 23.2201209,5.72861988 L23.2201209,5.72861988 L25.1639223,1.16328588 L25.3471984,1.253 L25.4537073,1 Z" id="Combined-Shape" fill="#FFFFFF"></path>
    </g>
</svg>