<svg xmlns="http://www.w3.org/2000/svg" width="29" height="37" viewBox="0 0 29 37">
    <defs>
        <linearGradient id="prefix__a" x1="50%" x2="50%" y1="-174.902%" y2="100%">
            <stop offset="0%" stop-color="#FFCD00"/>
            <stop offset="100%" stop-color="#FF9F00"/>
        </linearGradient>
    </defs>
    <g fill="none">
        <ellipse cx="14.5" cy="36" fill="#000" fill-opacity=".5" rx="3.5" ry="1"/>
        <path fill="url(#prefix__a)" d="M14.464 0c7.988 0 14.464 6.215 14.464 13.882 0 .179-.006.36-.018.542.012.25.018.502.018.755 0 8.383-12.964 20.913-14.464 20.913S0 23.562 0 15.179c0-.253.006-.505.018-.755-.012-.182-.018-.363-.018-.542C0 6.215 6.476 0 14.464 0zm0 9.625c-2.967 0-5.372 2.334-5.372 5.213 0 2.88 2.405 5.213 5.372 5.213s5.372-2.334 5.372-5.213c0-2.88-2.405-5.213-5.372-5.213z"/>
    </g>
</svg>
