<svg width="28" height="30" viewBox="0 0 28 30" xmlns="http://www.w3.org/2000/svg">
    <path d="M12.232 3.522c.172-.325.426-.597.738-.786a1.979 1.979 0 0 1 2.058 0c.311.19.566.461.737.786l2.663 5.049-1.646-.559a1.185 1.185 0 0 0-.918.067c-.286.146-.503.4-.604.709-.1.308-.077.644.066.935.143.29.393.511.696.614l4.812 1.632a1.183 1.183 0 0 0 1.001-.113 1.212 1.212 0 0 0 .566-.848l.802-4.897a1.246 1.246 0 0 0-.209-.913 1.212 1.212 0 0 0-.781-.496 1.183 1.183 0 0 0-.897.212 1.217 1.217 0 0 0-.487.795l-.28 1.708-2.665-5.052c-1.663-3.153-6.106-3.153-7.769 0L7.331 7.639a1.244 1.244 0 0 0-.078.922c.094.306.301.563.579.714.277.152.602.187.905.098.302-.09.558-.296.713-.575l2.782-5.276zM25.127 21.27l-3.065-5.812a1.24 1.24 0 0 1 .479-1.679 1.186 1.186 0 0 1 1.344.142c.122.104.223.233.296.378l3.066 5.812c1.577 2.99-.551 6.61-3.886 6.61h-5.655l1.153 1.176a1.224 1.224 0 0 1 .367.87 1.244 1.244 0 0 1-.352.876 1.204 1.204 0 0 1-.862.358 1.184 1.184 0 0 1-.854-.374L13.95 26.36a1.235 1.235 0 0 1 0-1.73l3.208-3.264a1.203 1.203 0 0 1 .858-.39 1.184 1.184 0 0 1 .872.359 1.227 1.227 0 0 1 .352.887 1.242 1.242 0 0 1-.382.874l-1.155 1.175h5.658c.347 0 .687-.092.988-.266.3-.174.552-.425.73-.727a2.066 2.066 0 0 0 .047-2.01h.001zM9.586 24.272c.319 0 .625.13.85.359a1.235 1.235 0 0 1 0 1.731c-.225.23-.531.359-.85.359h-4.95C1.3 26.72-.826 23.1.75 20.11l2.963-5.616-2.166.735c-.299.091-.621.06-.898-.087a1.218 1.218 0 0 1-.587-.698 1.244 1.244 0 0 1 .056-.917 1.21 1.21 0 0 1 .668-.619l4.811-1.634a1.182 1.182 0 0 1 .919.066 1.207 1.207 0 0 1 .603.708l1.604 4.896a1.244 1.244 0 0 1-.353 1.313 1.198 1.198 0 0 1-.873.296 1.185 1.185 0 0 1-.824-.418 1.23 1.23 0 0 1-.232-.415l-.651-1.987-2.92 5.533a2.07 2.07 0 0 0 .048 2.011c.177.303.43.553.73.727.302.174.642.265.988.266h4.95v.001z"/>
</svg>
