<svg width="40" height="22" viewBox="0 0 40 22" xmlns="http://www.w3.org/2000/svg">
    <path d="M1 2h1.687C4.904 2 6.7 3.722 6.7 5.847v9.306C6.7 17.278 4.904 19 2.687 19H1.528M39 2h-4.775c-.51 0-.925.486-.925 1.084v14.832c0 .598.415 1.084.925 1.084h2.702M10.5 14.5H6.7" stroke="#fff" stroke-width="2"/>
    <path d="M34.25 4.664h-5.426c-.235 0-.466-.065-.672-.189L22.66 1.188a1.3 1.3 0 0 0-1.392.029l-5.353 3.508c-.71.465-.883 1.494-.37 2.197.373.511 1.01.705 1.575.475l3.943-1.594c.538-.217 1.144-.053 1.525.41l7.95 9.703c.62.757.543 2.352-.314 2.76l-8.726 2.234c-.48.121-.946.157-1.342-.134l-.075-.088M15.25 5.5H6.7h7.406M34.25 18.5h-3.8 2.478" stroke="#fff" stroke-width="2"/>
    <path clip-rule="evenodd" d="M19.643 20.228c.385-.743.7-1.233-.402-2.993L15.28 11.15c-.906-.71-3.681 1.28-4.364 2.222-.684.942-.504 2.283.402 2.994l5.768 4.151c.905.712 1.874.653 2.558-.289z" stroke="#fff" stroke-width="2"/>
    <path clip-rule="evenodd" d="M2.9 15c0 .552-.425 1-.95 1-.525 0-.95-.448-.95-1s.425-1 .95-1c.525 0 .95.448.95 1zM39 15c0 .552-.425 1-.95 1-.525 0-.95-.448-.95-1s.425-1 .95-1c.525 0 .95.448.95 1z" stroke="#fff"/>
</svg>
