<svg xmlns="http://www.w3.org/2000/svg" width="18" height="18" viewBox="0 0 18 18">
    <g fill="none" stroke="#FFF" transform="translate(3)">
        <rect width="4.6" height="1" x="3.7" y=".5" rx=".5"/>
        <rect width="9.4" height="4.25" x="1.3" y="13.25" rx="2"/>
        <rect width="9.4" height="2" x="1.3" y="11" rx="1"/>
        <rect width="9.4" height="2" x="1.3" y="8.75" rx="1"/>
        <path d="M8.27 2.75l-4.393.007c-.45.043-.86.288-1.11.67L1.229 5.786c-.265.506-.209 1.103.028 1.85V9.25c0 .414.168.79.44 1.06.27.272.646.44 1.06.44H9.31c.414 0 .79-.168 1.06-.44.272-.27.44-.646.44-1.06l-.021-1.95c.154-.235.244-.517.244-.82 0-.258-.067-.513-.195-.738L9.5 3.39c-.278-.398-.736-.64-1.229-.64z"/>
    </g>
</svg>
