<svg xmlns="http://www.w3.org/2000/svg" width="18" height="18" viewBox="0 0 18 18">
    <g fill="none" fill-rule="evenodd" stroke="#FFF" stroke-width="1.167">
        <path d="M12.27 6.805l-2.22-2.219-7.337 7.337c-.525.525-.525 1.377 0 1.902l.317.317c.525.525 1.377.525 1.902 0l7.337-7.337zM15.718 2.934L14.08 1.296 11.496 3.88 13.134 5.518z" transform="translate(0 1)"/>
        <path d="M16.454 3.918L13.083.546c-.11-.11-.11-.288 0-.397l.065-.067c.11-.11.288-.11.398 0l3.372 3.372c.11.11.11.288 0 .397l-.067.067c-.109.11-.288.11-.397 0zM8.295 10.469L7.031 9.205c-.041-.042-.041-.108 0-.15l.025-.024c.041-.041.108-.041.149 0l1.264 1.264c.042.041.042.108 0 .149l-.025.025c-.04.04-.108.04-.149 0z" transform="translate(0 1)"/>
        <path stroke-linecap="round" d="M2.82 14.036L0.583 16.273" transform="translate(0 1)"/>
        <path d="M12.58 7.116l-2.84-2.84c-.232-.232-.232-.608 0-.841l.215-.214c.232-.232.608-.232.84 0l2.84 2.84c.232.232.232.608 0 .84l-.215.215c-.232.232-.608.232-.84 0z" transform="translate(0 1)"/>
    </g>
</svg>
