<?xml version="1.0" encoding="UTF-8" standalone="no"?>
<svg
   xmlns:dc="http://purl.org/dc/elements/1.1/"
   xmlns:cc="http://creativecommons.org/ns#"
   xmlns:rdf="http://www.w3.org/1999/02/22-rdf-syntax-ns#"
   xmlns:svg="http://www.w3.org/2000/svg"
   xmlns="http://www.w3.org/2000/svg"
   xmlns:sodipodi="http://sodipodi.sourceforge.net/DTD/sodipodi-0.dtd"
   xmlns:inkscape="http://www.inkscape.org/namespaces/inkscape"
   width="512"
   height="512"
   viewBox="0 0 512 512"
   version="1.1"
   id="svg275"
   sodipodi:docname="dr-residuos-peligrosos.svg"
   inkscape:version="1.0 (6e3e5246a0, 2020-05-07)">
  <metadata
     id="metadata281">
    <rdf:RDF>
      <cc:Work
         rdf:about="">
        <dc:format>image/svg+xml</dc:format>
        <dc:type
           rdf:resource="http://purl.org/dc/dcmitype/StillImage" />
        <dc:title></dc:title>
      </cc:Work>
    </rdf:RDF>
  </metadata>
  <defs
     id="defs279">
    <path
       id="prefix__a"
       d="M0 0.125L22.894 0.125 22.894 18.095 0 18.095z" />
    <path
       id="prefix__a-3"
       d="M0 0.005L11.387 0.005 11.387 18.346 0 18.346z" />
    <path
       id="prefix__a-7"
       d="M0 0.072L7.267 0.072 7.267 8.05 0 8.05z" />
    <path
       id="prefix__c"
       d="M0.072 0.001L7.993 0.001 7.993 8.87 0.072 8.87z" />
    <path
       id="prefix__e"
       d="M0.04 0.073L8.507 0.073 8.507 5.86 0.04 5.86z" />
    <path
       id="prefix__a-35"
       d="M0 0.125L22.894 0.125 22.894 18.095 0 18.095z" />
    <path
       id="prefix__a-6"
       d="M0 0.005L11.387 0.005 11.387 18.346 0 18.346z" />
  </defs>
  <sodipodi:namedview
     inkscape:document-rotation="0"
     pagecolor="#ffffff"
     bordercolor="#666666"
     borderopacity="1"
     objecttolerance="10"
     gridtolerance="10"
     guidetolerance="10"
     inkscape:pageopacity="0"
     inkscape:pageshadow="2"
     inkscape:window-width="1533"
     inkscape:window-height="845"
     id="namedview277"
     showgrid="false"
     showguides="true"
     inkscape:guide-bbox="true"
     inkscape:object-paths="true"
     inkscape:snap-bbox="true"
     inkscape:snap-smooth-nodes="true"
     inkscape:snap-bbox-edge-midpoints="true"
     inkscape:zoom="0.90885417"
     inkscape:cx="233.63604"
     inkscape:cy="251.3413"
     inkscape:window-x="67"
     inkscape:window-y="27"
     inkscape:window-maximized="1"
     inkscape:current-layer="layer1">
    <sodipodi:guide
       position="48,175.67752"
       orientation="-1,0"
       id="guide285"
       inkscape:label=""
       inkscape:locked="false"
       inkscape:color="rgb(0,0,255)" />
    <sodipodi:guide
       position="337.78796,464"
       orientation="0,1"
       id="guide568"
       inkscape:label=""
       inkscape:locked="false"
       inkscape:color="rgb(0,0,255)" />
  </sodipodi:namedview>
  <g
     inkscape:groupmode="layer"
     id="layer1"
     inkscape:label="Layer 1"
     style="display:inline">
    <g
       transform="matrix(23.857985,0,0,23.857985,46.29174,37.979903)"
       fill="none"
       fill-rule="evenodd"
       stroke="#ffffff"
       stroke-width="1.167"
       id="g1505">
      <path
         d="M 12.27,6.805 10.05,4.586 2.713,11.923 c -0.525,0.525 -0.525,1.377 0,1.902 l 0.317,0.317 c 0.525,0.525 1.377,0.525 1.902,0 L 12.269,6.805 Z M 15.718,2.934 14.08,1.296 11.496,3.88 13.134,5.518 Z"
         transform="translate(0,1)"
         id="path1497" />
      <path
         d="M 16.454,3.918 13.083,0.546 c -0.11,-0.11 -0.11,-0.288 0,-0.397 l 0.065,-0.067 c 0.11,-0.11 0.288,-0.11 0.398,0 l 3.372,3.372 c 0.11,0.11 0.11,0.288 0,0.397 l -0.067,0.067 c -0.109,0.11 -0.288,0.11 -0.397,0 z M 8.295,10.469 7.031,9.205 C 6.99,9.163 6.99,9.097 7.031,9.055 L 7.056,9.031 c 0.041,-0.041 0.108,-0.041 0.149,0 l 1.264,1.264 c 0.042,0.041 0.042,0.108 0,0.149 l -0.025,0.025 c -0.04,0.04 -0.108,0.04 -0.149,0 z"
         transform="translate(0,1)"
         id="path1499" />
      <path
         stroke-linecap="round"
         d="M 2.82,14.036 0.583,16.273"
         transform="translate(0,1)"
         id="path1501" />
      <path
         d="M 12.58,7.116 9.74,4.276 C 9.508,4.044 9.508,3.668 9.74,3.435 L 9.955,3.221 c 0.232,-0.232 0.608,-0.232 0.84,0 l 2.84,2.84 c 0.232,0.232 0.232,0.608 0,0.84 L 13.42,7.116 c -0.232,0.232 -0.608,0.232 -0.84,0 z"
         transform="translate(0,1)"
         id="path1503" />
    </g>
  </g>
  <inkscape:templateinfo>
    <inkscape:name>icon</inkscape:name>
    <inkscape:date>2020-05-20</inkscape:date>
  </inkscape:templateinfo>
</svg>
