<svg xmlns="http://www.w3.org/2000/svg" xmlns:xlink="http://www.w3.org/1999/xlink" width="30" height="31" viewBox="0 0 30 31">
    <defs>
        <path id="prefix__a" d="M0 0.005L11.387 0.005 11.387 18.346 0 18.346z"/>
    </defs>
    <g fill="none" fill-rule="evenodd">
        <path fill="#FFF" d="M30 15.998l-3.447 3.623-1.04 1.096-1.864-1.951-2.648-2.768h3c0-5.271-3.543-9.678-8.247-10.766l2.4-2.52C23.329 4.68 27 9.887 27 15.998h3z"/>
        <g transform="translate(0 .995)">
            <mask id="prefix__b" fill="#fff">
                <use xlink:href="#prefix__a"/>
            </mask>
            <path fill="#FFF" d="M5.252.005l4.71 1.328 1.425.392-.68 2.663-.96 3.8L8.244 5.46c-4.352 2.64-6.215 8.063-4.76 12.886l-3.28-.92C-.755 11.739 1.702 5.796 6.74 2.74L5.252.005z" mask="url(#prefix__b)"/>
        </g>
        <path fill="#FFF" d="M5.252 30.995l-1.264-4.943-.392-1.488 2.544-.712 3.615-1.032-1.503 2.728c4.35 2.64 9.758 1.624 13.013-2.112l.88 3.44c-4.207 3.72-10.35 4.455-15.39 1.4l-1.503 2.72z"/>
    </g>
</svg>
