<svg xmlns="http://www.w3.org/2000/svg" width="18" height="18" viewBox="0 0 18 18">
    <g fill="none" fill-rule="evenodd" stroke="#FFF" stroke-width="1.167">
        <path stroke-linejoin="round" d="M8.384 5.093c1.165-2.523 3.021-2.128 3.5-1.976.083-.008.166.02.247.091 0 0 1.731.456.525 2.857-1.207 2.4-1.828 2.934-1.682 4.534.036.392.102.79.206 1.172.56.291 1.092.298 1.455.191 1.503-.442.837-1.762.738-1.942l-.011-.02c1.13.687 1.936 1.555 1.533 2.71-.249.71-1.415 1.035-2.275 1.18.227.126.482.213.767.253 1.054.15 2.148.228 2.76.032.151-.048.258.153.144.268-1.642 1.658-3.766 1.912-5.338 1.131C10 15.1 9.508 14.068 9.257 13.2l-.058.213c-.78 2.177-2.907 3.07-6.062 2.332C-.02 15.007-.125 13.18.052 13.102c3.83 1.749 5.673-.273 6.275-1.244.603-.972.71-3.849 2.057-6.765z" transform="translate(1 1)"/>
        <path d="M13.771.916c-.87.31-1.443 2.004-1.443 2.004H11S12.881-.749 13.771.138c0 0 .871.468 0 .778z" transform="translate(1 1)"/>
    </g>
</svg>
