<svg xmlns="http://www.w3.org/2000/svg" width="18" height="18" viewBox="0 0 18 18">
    <g fill="none" stroke="#FFF" transform="translate(0 4)">
        <path d="M11.863.5H6c-.69 0-1.315.28-1.768.732C3.78 1.685 3.5 2.31 3.5 3L4 5.5l10.421.035-.058-2.592c-.016-.679-.3-1.29-.752-1.73C13.16.77 12.543.5 11.863.5z"/>
        <path d="M16 2.5c-.414 0-.79.168-1.06.44-.272.27-.44.646-.44 1.06v1.5h-11V4c0-.414-.168-.79-.44-1.06-.27-.272-.646-.44-1.06-.44-.414 0-.79.168-1.06.44C.667 3.21.5 3.585.5 4v4c0 .414.168.79.44 1.06.27.272.646.44 1.06.44l14.13-.005c.382-.033.723-.21.97-.475.248-.268.4-.626.4-1.02V4c0-.414-.168-.79-.44-1.06-.27-.272-.646-.44-1.06-.44z"/>
        <rect width="3" height="7" x=".5" y="2.5" rx="1.5"/>
        <rect width="3" height="7" x="14.5" y="2.5" rx="1.5"/>
        <rect width="1" height="1" x="3.5" y="10.5" rx=".5"/>
        <rect width="1" height="1" x="13.5" y="10.5" rx=".5"/>
    </g>
</svg>
