<?xml version="1.0" encoding="UTF-8" standalone="no"?>
<svg
   xmlns:dc="http://purl.org/dc/elements/1.1/"
   xmlns:cc="http://creativecommons.org/ns#"
   xmlns:rdf="http://www.w3.org/1999/02/22-rdf-syntax-ns#"
   xmlns:svg="http://www.w3.org/2000/svg"
   xmlns="http://www.w3.org/2000/svg"
   xmlns:sodipodi="http://sodipodi.sourceforge.net/DTD/sodipodi-0.dtd"
   xmlns:inkscape="http://www.inkscape.org/namespaces/inkscape"
   width="512"
   height="512"
   viewBox="0 0 512 512"
   version="1.1"
   id="svg275"
   sodipodi:docname="dr-residuos-mezclados.svg"
   inkscape:version="1.0 (6e3e5246a0, 2020-05-07)">
  <metadata
     id="metadata281">
    <rdf:RDF>
      <cc:Work
         rdf:about="">
        <dc:format>image/svg+xml</dc:format>
        <dc:type
           rdf:resource="http://purl.org/dc/dcmitype/StillImage" />
        <dc:title></dc:title>
      </cc:Work>
    </rdf:RDF>
  </metadata>
  <defs
     id="defs279">
    <path
       id="prefix__a"
       d="M0 0.125L22.894 0.125 22.894 18.095 0 18.095z" />
    <path
       id="prefix__a-3"
       d="M0 0.005L11.387 0.005 11.387 18.346 0 18.346z" />
    <path
       id="prefix__a-7"
       d="M0 0.072L7.267 0.072 7.267 8.05 0 8.05z" />
    <path
       id="prefix__c"
       d="M0.072 0.001L7.993 0.001 7.993 8.87 0.072 8.87z" />
    <path
       id="prefix__e"
       d="M0.04 0.073L8.507 0.073 8.507 5.86 0.04 5.86z" />
    <path
       id="prefix__a-35"
       d="M0 0.125L22.894 0.125 22.894 18.095 0 18.095z" />
  </defs>
  <sodipodi:namedview
     inkscape:document-rotation="0"
     pagecolor="#ffffff"
     bordercolor="#666666"
     borderopacity="1"
     objecttolerance="10"
     gridtolerance="10"
     guidetolerance="10"
     inkscape:pageopacity="0"
     inkscape:pageshadow="2"
     inkscape:window-width="1533"
     inkscape:window-height="845"
     id="namedview277"
     showgrid="false"
     showguides="true"
     inkscape:guide-bbox="true"
     inkscape:object-paths="true"
     inkscape:snap-bbox="true"
     inkscape:snap-smooth-nodes="true"
     inkscape:snap-bbox-edge-midpoints="true"
     inkscape:zoom="0.90885417"
     inkscape:cx="178.45861"
     inkscape:cy="239.31434"
     inkscape:window-x="67"
     inkscape:window-y="27"
     inkscape:window-maximized="1"
     inkscape:current-layer="layer1">
    <sodipodi:guide
       position="48,175.67752"
       orientation="-1,0"
       id="guide285"
       inkscape:label=""
       inkscape:locked="false"
       inkscape:color="rgb(0,0,255)" />
    <sodipodi:guide
       position="337.78796,464"
       orientation="0,1"
       id="guide568"
       inkscape:label=""
       inkscape:locked="false"
       inkscape:color="rgb(0,0,255)" />
  </sodipodi:namedview>
  <g
     inkscape:groupmode="layer"
     id="layer1"
     inkscape:label="Layer 1"
     style="display:inline">
    <g
       fill="none"
       stroke="#ffffff"
       transform="matrix(23.111111,0,0,23.111111,104.81796,48)"
       id="g1193">
      <path
         d="M 10.36,3.5 H 2.805 C 2.295,3.5 1.841,3.682 1.525,3.987 1.228,4.274 1.057,4.671 1.086,5.11 L 1.8,15.824 c 0.031,0.467 0.234,0.89 0.537,1.197 0.289,0.292 0.671,0.479 1.084,0.479 h 6.326 c 0.413,0 0.795,-0.187 1.084,-0.48 0.303,-0.306 0.505,-0.729 0.536,-1.196 L 12.08,5.11 C 12.109,4.67 11.938,4.274 11.64,3.987 11.325,3.682 10.871,3.5 10.36,3.5 Z"
         id="path1181" />
      <rect
         width="8"
         height="1"
         x="2.5"
         y="11"
         rx="0.5"
         transform="rotate(90,6.5,11)"
         id="rect1183" />
      <rect
         width="8"
         height="1"
         x="4.5"
         y="11"
         rx="0.5"
         transform="rotate(90,8.5,11)"
         id="rect1185" />
      <rect
         width="8"
         height="1"
         x="0.5"
         y="11"
         rx="0.5"
         transform="rotate(90,4.5,11)"
         id="rect1187" />
      <rect
         width="4.5999999"
         height="1"
         x="4.1999998"
         y="0.5"
         rx="0.5"
         id="rect1189" />
      <rect
         width="11"
         height="2"
         x="1"
         y="1.5"
         rx="1"
         id="rect1191" />
    </g>
  </g>
  <inkscape:templateinfo>
    <inkscape:name>icon</inkscape:name>
    <inkscape:date>2020-05-20</inkscape:date>
  </inkscape:templateinfo>
</svg>
