<?xml version="1.0" encoding="UTF-8" standalone="no"?>
<svg
   xmlns:dc="http://purl.org/dc/elements/1.1/"
   xmlns:cc="http://creativecommons.org/ns#"
   xmlns:rdf="http://www.w3.org/1999/02/22-rdf-syntax-ns#"
   xmlns:svg="http://www.w3.org/2000/svg"
   xmlns="http://www.w3.org/2000/svg"
   xmlns:xlink="http://www.w3.org/1999/xlink"
   xmlns:sodipodi="http://sodipodi.sourceforge.net/DTD/sodipodi-0.dtd"
   xmlns:inkscape="http://www.inkscape.org/namespaces/inkscape"
   inkscape:version="1.0 (6e3e5246a0, 2020-05-07)"
   sodipodi:docname="dr-search.svg"
   id="svg275"
   version="1.1"
   viewBox="0 0 512 512"
   height="512"
   width="512">
  <metadata
     id="metadata281">
    <rdf:RDF>
      <cc:Work
         rdf:about="">
        <dc:format>image/svg+xml</dc:format>
        <dc:type
           rdf:resource="http://purl.org/dc/dcmitype/StillImage" />
        <dc:title />
      </cc:Work>
    </rdf:RDF>
  </metadata>
  <defs
     id="defs279">
    <path
       d="M0 0.125L22.894 0.125 22.894 18.095 0 18.095z"
       id="prefix__a" />
    <path
       d="M0 0.005L11.387 0.005 11.387 18.346 0 18.346z"
       id="prefix__a-3" />
    <path
       d="M0 0.072L7.267 0.072 7.267 8.05 0 8.05z"
       id="prefix__a-7" />
    <path
       d="M0.072 0.001L7.993 0.001 7.993 8.87 0.072 8.87z"
       id="prefix__c" />
    <path
       d="M0.04 0.073L8.507 0.073 8.507 5.86 0.04 5.86z"
       id="prefix__e" />
  </defs>
  <sodipodi:namedview
     inkscape:current-layer="g38"
     inkscape:window-maximized="1"
     inkscape:window-y="27"
     inkscape:window-x="67"
     inkscape:cy="239.31434"
     inkscape:cx="178.45861"
     inkscape:zoom="0.90885417"
     inkscape:snap-bbox-edge-midpoints="true"
     inkscape:snap-smooth-nodes="true"
     inkscape:snap-bbox="true"
     inkscape:object-paths="true"
     inkscape:guide-bbox="true"
     showguides="true"
     showgrid="false"
     id="namedview277"
     inkscape:window-height="845"
     inkscape:window-width="1533"
     inkscape:pageshadow="2"
     inkscape:pageopacity="0"
     guidetolerance="10"
     gridtolerance="10"
     objecttolerance="10"
     borderopacity="1"
     bordercolor="#666666"
     pagecolor="#ffffff"
     inkscape:document-rotation="0">
    <sodipodi:guide
       inkscape:color="rgb(0,0,255)"
       inkscape:locked="false"
       inkscape:label=""
       id="guide285"
       orientation="-1,0"
       position="48,175.67752" />
    <sodipodi:guide
       inkscape:color="rgb(0,0,255)"
       inkscape:locked="false"
       inkscape:label=""
       id="guide568"
       orientation="0,1"
       position="337.78796,464" />
  </sodipodi:namedview>
  <g
     style="display:inline"
     inkscape:label="Layer 1"
     id="layer1"
     inkscape:groupmode="layer">
    <g
       style="display:inline"
       id="g38"
       fill="none"
       transform="matrix(9.4545455,0,0,9.4545455,48,48)">
      <path
         transform="matrix(0.10576923,0,0,0.10576923,-5.0769231,-5.0769231)"
         d="M 256 48 C 140.768 48 48 140.768 48 256 C 48 371.232 140.768 464 256 464 C 371.232 464 464 371.232 464 256 C 464 140.768 371.232 48 256 48 z M 246.54492 185.0918 C 280.31735 185.0918 308 212.77249 308 246.54492 C 308 258.32716 304.62241 269.3632 298.80078 278.74609 L 331.17383 311.12109 A 14.181818 14.181818 0 0 1 331.17383 331.17383 A 14.181818 14.181818 0 0 1 311.12109 331.17383 L 278.74609 298.80078 C 269.3632 304.62241 258.32716 308 246.54492 308 C 212.77249 308 185.0918 280.31735 185.0918 246.54492 C 185.0918 212.77249 212.77249 185.0918 246.54492 185.0918 z M 246.54492 213.45508 C 228.10133 213.45508 213.45508 228.10133 213.45508 246.54492 C 213.45508 264.98851 228.10133 279.63672 246.54492 279.63672 C 264.98851 279.63672 279.63672 264.98851 279.63672 246.54492 C 279.63672 228.10133 264.98851 213.45508 246.54492 213.45508 z "
         style="fill:#9cd060;stroke-width:9.45455"
         id="rect30" />
    </g>
  </g>
  <g
     style="display:none"
     inkscape:label="Layer 2"
     id="layer2"
     inkscape:groupmode="layer">
    <g
       id="g16"
       fill="none"
       transform="matrix(9.4545455,0,0,9.4545455,48,48)">
      <rect
         id="rect10"
         rx="22"
         fill="#9cd060"
         height="44"
         width="44"
         x="0"
         y="0" />
      <path
         id="path12"
         d="M 28,17 17,28"
         stroke-width="4"
         stroke-linecap="round"
         stroke="#ffffff" />
      <path
         id="path14"
         transform="rotate(90,22.5,22.5)"
         d="M 28,17 17,28"
         stroke-width="4"
         stroke-linecap="round"
         stroke="#ffffff" />
    </g>
    <path
       id="path53"
       d="m 331.63636,81.090909 c 57.43637,0 104,46.563641 104,104.000001 v 141.81818 c 0,57.43636 -46.56363,104 -104,104 H 180.36364 c -57.43637,0 -104.000004,-46.56364 -104.000004,-104 V 185.09091 c 0,-57.43636 46.563634,-104.000001 104.000004,-104.000001 z M 185.94182,209.98473 h -48.97455 v 164.19709 h 48.97455 z M 317.07636,204 c -25.08291,0 -41.90254,13.76582 -48.776,26.82255 h -0.70909 v -22.70037 h -49.40945 v 166.05964 h 51.48945 v -82.13164 c 0,-21.66982 4.08437,-42.65891 30.91637,-42.65891 26.44436,0 26.77527,24.77091 26.77527,44.03928 v 80.75127 h 51.54618 V 283.10618 C 378.90909,238.38618 369.26545,204 317.07636,204 Z M 161.45455,128.36364 c -15.69455,0 -28.36364,13.25527 -28.36364,29.59272 0,16.33746 12.66909,29.59273 28.37309,29.59273 15.64727,0 28.35418,-13.25527 28.35418,-29.59273 0,-16.33745 -12.70691,-29.59272 -28.35418,-29.59272 z"
       fill="#9cd060"
       style="stroke-width:9.45455" />
    <g
       id="g78"
       fill-rule="evenodd"
       fill="none"
       transform="matrix(9.4545455,0,0,9.4545455,76.363636,81.090909)">
      <rect
         id="rect67"
         rx="11"
         fill-rule="nonzero"
         fill="#9cd060"
         height="37"
         width="38"
         x="0"
         y="0" />
      <g
         id="g76"
         transform="translate(8,9)">
        <mask
           fill="#ffffff"
           id="prefix__b">
          <use
             id="use69"
             xlink:href="#prefix__a"
             x="0"
             y="0"
             width="100%"
             height="100%" />
        </mask>
        <path
           id="path72"
           mask="url(#prefix__b)"
           d="M 21.212,2.67 C 20.716,2.802 20.324,2.782 20.324,2.782 L 20.34,2.69 C 20.803,2.332 21.969,1.233 22.123,0.718 22.19,0.496 22.111,0.418 22.11,0.412 l -1.49,0.612 -1.246,0.545 c -0.86,-0.882 -2.162,-1.444 -3.618,-1.444 -2.591,0 -4.692,1.777 -4.692,3.97 0,0.4 0.062,1.133 0.192,1.498 0,0.115 0.005,-0.116 0,0 C 9.587,5.548 7.449,4.886 5.544,3.951 1.788,2.11 1.553,0.833 1.553,0.833 0.963,1.439 0.658,3.448 1.256,5.023 c 0.383,1.008 1.7,1.913 1.7,1.913 0,0 -0.589,0.01 -1.206,-0.19 C 1.134,6.543 0.901,6.343 0.901,6.343 c -0.367,0.866 0.37,2.412 1.64,3.52 0.74,0.648 2.094,1.053 2.094,1.053 l -2.114,0.058 c -0.119,1.99 4.31,3.172 4.31,3.172 -1.299,0.966 -2.805,1.555 -4.419,1.555 -0.836,0 -1.645,-0.122 -2.412,-0.343 2.133,1.701 4.874,2.876 7.854,2.724 7.907,-0.402 12.37,-6.983 12.582,-13.447 l 0.01,0.014 c 0,0 0.371,-0.18 1.163,-0.946 0.792,-0.767 1.285,-1.665 1.285,-1.665 0,0 -1.185,0.499 -1.682,0.631"
           fill="#ffffff" />
        <path
           id="path74"
           d="m 22.11,0.412 c 0.006,0.122 0,0.012 0,0"
           fill="#ffffff" />
      </g>
    </g>
    <path
       id="path94"
       d="m 341.09091,81.090909 c 52.21745,0 94.54545,42.328001 94.54545,94.545451 v 160.72728 c 0,52.21745 -42.328,94.54545 -94.54545,94.54545 H 170.90909 c -52.21745,0 -94.545454,-42.328 -94.545454,-94.54545 V 175.63636 c 0,-52.21745 42.328004,-94.545451 94.545454,-94.545451 z m -37.98836,56.727271 h -94.19564 c -41.808,0 -75.816,35.64364 -75.816,79.43709 v 86.95346 c 0,43.80291 34.008,79.42763 75.82545,79.42763 h 94.18619 c 41.78909,0 75.80654,-35.62472 75.80654,-79.41818 v -86.96291 c 0,-43.80291 -34.008,-79.43709 -75.80654,-79.43709 z m 0,17.65164 c 32.50472,0 58.95854,27.72073 58.95854,61.78545 v 86.95346 c 0,34.06472 -26.45382,61.78545 -58.95854,61.78545 h -94.19564 c -32.51418,0 -58.968,-27.72073 -58.968,-61.78545 v -86.95346 c 0,-34.06472 26.45382,-61.78545 58.968,-61.78545 z m -42.37528,39.07563 c -39.104,0 -70.90909,31.81455 -70.90909,70.9091 0,39.104 31.80509,70.90909 70.90909,70.90909 39.104,0 70.90909,-31.80509 70.90909,-70.90909 0,-39.09455 -31.80509,-70.9091 -70.90909,-70.9091 z m 0,17.70837 c 29.33746,0 53.21018,23.86327 53.21018,53.20073 0,29.33745 -23.87272,53.21018 -53.21018,53.21018 -29.33745,0 -53.21018,-23.87273 -53.21018,-53.21018 0,-29.33746 23.87273,-53.20073 53.21018,-53.20073 z m 56.72728,-36.61746 c -7.83782,0 -14.18182,6.344 -14.18182,14.18182 0,7.83782 6.344,14.18182 14.18182,14.18182 7.83781,0 14.18181,-6.344 14.18181,-14.18182 0,-7.83782 -6.344,-14.18182 -14.18181,-14.18182 z"
       fill="#9cd060"
       style="stroke-width:9.45455" />
    <path
       id="path105"
       d="m 335.67818,81.918182 c 54.97818,0 99.736,45.835638 99.736,102.175268 v 143.80364 c 0,56.34909 -44.75782,102.18473 -99.74545,102.18473 l -18.79564,-0.009 V 312.15527 h 36.88218 l 5.52146,-47.43345 h -42.39418 v -30.28291 c 0,-13.728 3.44145,-23.088 21.216,-23.088 h 22.672 v -42.432 c -3.92364,-0.56727 -17.37746,-1.86255 -33.03419,-1.86255 -32.69381,0 -55.07272,22.10473 -55.07272,62.68364 v 34.98182 h -36.96728 v 47.43345 h 36.96728 v 117.89818 l -96.32291,0.0189 C 122.21345,430.08182 78.032364,385.70218 76.623636,330.62 l -0.03782,-2.71345 v -143.8131 c 0,-56.33963 44.757824,-102.175268 99.745454,-102.175268 z"
       fill-rule="evenodd"
       fill="#9cd060"
       style="stroke-width:9.45455" />
    <g
       id="g128"
       transform="matrix(9.4545455,0,0,9.4545455,170.90909,199.27273)"
       stroke="#ffffff"
       fill="none">
      <path
         id="path116"
         d="M 11.863,0.5 H 6 C 5.31,0.5 4.685,0.78 4.232,1.232 3.78,1.685 3.5,2.31 3.5,3 L 4,5.5 14.421,5.535 14.363,2.943 C 14.347,2.264 14.063,1.653 13.611,1.213 13.16,0.77 12.543,0.5 11.863,0.5 Z" />
      <path
         id="path118"
         d="M 16,2.5 C 15.586,2.5 15.21,2.668 14.94,2.94 14.668,3.21 14.5,3.586 14.5,4 V 5.5 H 3.5 V 4 C 3.5,3.586 3.332,3.21 3.06,2.94 2.79,2.668 2.414,2.5 2,2.5 1.586,2.5 1.21,2.668 0.94,2.94 0.667,3.21 0.5,3.585 0.5,4 V 8 C 0.5,8.414 0.668,8.79 0.94,9.06 1.21,9.332 1.586,9.5 2,9.5 L 16.13,9.495 C 16.512,9.462 16.853,9.285 17.1,9.02 17.348,8.752 17.5,8.394 17.5,8 V 4 C 17.5,3.586 17.332,3.21 17.06,2.94 16.79,2.668 16.414,2.5 16,2.5 Z" />
      <rect
         id="rect120"
         rx="1.5"
         y="2.5"
         x="0.5"
         height="7"
         width="3" />
      <rect
         id="rect122"
         rx="1.5"
         y="2.5"
         x="14.5"
         height="7"
         width="3" />
      <rect
         id="rect124"
         rx="0.5"
         y="10.5"
         x="3.5"
         height="1"
         width="1" />
      <rect
         id="rect126"
         rx="0.5"
         y="10.5"
         x="13.5"
         height="1"
         width="1" />
    </g>
    <g
       id="g155"
       stroke="#ffffff"
       fill="none"
       transform="matrix(9.4545455,0,0,9.4545455,170.90909,164.12243)">
      <rect
         id="rect145"
         rx="2"
         y="4.5"
         x="0.5"
         height="10"
         width="17" />
      <rect
         id="rect147"
         rx="0.5"
         y="17.5"
         x="5.5"
         height="1"
         width="7" />
      <rect
         id="rect149"
         transform="rotate(30,6,2.5)"
         rx="0.5"
         y="2.5"
         x="2.5"
         height="1"
         width="7" />
      <rect
         id="rect151"
         transform="matrix(-0.8660254,0.5,0.5,0.8660254,21.1425,-5.6651158)"
         rx="0.5"
         y="2.5"
         x="8.5"
         height="1"
         width="7" />
      <rect
         id="rect153"
         transform="rotate(90,9,16.5)"
         rx="0.5"
         y="16"
         x="7.5"
         height="1"
         width="3" />
    </g>
    <g
       id="g175"
       stroke-width="1.167"
       stroke="#ffffff"
       fill-rule="evenodd"
       fill="none"
       transform="matrix(9.4545455,0,0,9.4545455,169.33576,170.90115)">
      <path
         id="path171"
         transform="translate(1,1)"
         d="m 8.384,5.093 c 1.165,-2.523 3.021,-2.128 3.5,-1.976 0.083,-0.008 0.166,0.02 0.247,0.091 0,0 1.731,0.456 0.525,2.857 -1.207,2.4 -1.828,2.934 -1.682,4.534 0.036,0.392 0.102,0.79 0.206,1.172 0.56,0.291 1.092,0.298 1.455,0.191 1.503,-0.442 0.837,-1.762 0.738,-1.942 L 13.362,10 c 1.13,0.687 1.936,1.555 1.533,2.71 -0.249,0.71 -1.415,1.035 -2.275,1.18 0.227,0.126 0.482,0.213 0.767,0.253 1.054,0.15 2.148,0.228 2.76,0.032 0.151,-0.048 0.258,0.153 0.144,0.268 -1.642,1.658 -3.766,1.912 -5.338,1.131 C 10,15.1 9.508,14.068 9.257,13.2 L 9.199,13.413 C 8.419,15.59 6.292,16.483 3.137,15.745 -0.02,15.007 -0.125,13.18 0.052,13.102 3.882,14.851 5.725,12.829 6.327,11.858 6.93,10.886 7.037,8.009 8.384,5.093 Z"
         stroke-linejoin="round" />
      <path
         id="path173"
         transform="translate(1,1)"
         d="M 13.771,0.916 C 12.901,1.226 12.328,2.92 12.328,2.92 H 11 c 0,0 1.881,-3.669 2.771,-2.782 0,0 0.871,0.468 0,0.778 z" />
    </g>
    <g
       id="g200"
       transform="matrix(9.4545455,0,0,9.4545455,194.15281,170.90909)"
       stroke="#ffffff"
       fill="none">
      <path
         id="path188"
         d="M 10.36,3.5 H 2.805 C 2.295,3.5 1.841,3.682 1.525,3.987 1.228,4.274 1.057,4.671 1.086,5.11 L 1.8,15.824 c 0.031,0.467 0.234,0.89 0.537,1.197 0.289,0.292 0.671,0.479 1.084,0.479 h 6.326 c 0.413,0 0.795,-0.187 1.084,-0.48 0.303,-0.306 0.505,-0.729 0.536,-1.196 L 12.08,5.11 C 12.109,4.67 11.938,4.274 11.64,3.987 11.325,3.682 10.871,3.5 10.36,3.5 Z" />
      <rect
         id="rect190"
         transform="rotate(90,6.5,11)"
         rx="0.5"
         y="11"
         x="2.5"
         height="1"
         width="8" />
      <rect
         id="rect192"
         transform="rotate(90,8.5,11)"
         rx="0.5"
         y="11"
         x="4.5"
         height="1"
         width="8" />
      <rect
         id="rect194"
         transform="rotate(90,4.5,11)"
         rx="0.5"
         y="11"
         x="0.5"
         height="1"
         width="8" />
      <rect
         id="rect196"
         rx="0.5"
         y="0.5"
         x="4.1999998"
         height="1"
         width="4.5999999" />
      <rect
         id="rect198"
         rx="1"
         y="1.5"
         x="1"
         height="2"
         width="11" />
    </g>
    <g
       id="g221"
       fill="#ffffff"
       transform="matrix(9.4545455,0,0,9.4545455,118.90909,118.90909)">
      <path
         id="path217"
         d="m 4.478,5.43 h 8.003 c 0.71,0 1.285,-0.577 1.285,-1.287 0,-0.71 -0.575,-1.285 -1.285,-1.285 H 4.478 C 2.027,2.858 0.03,4.85 0.026,7.302 L 0,24.516 c -0.002,1.189 0.46,2.307 1.3,3.15 0.839,0.841 1.956,1.306 3.145,1.308 L 21.685,29 h 0.006 c 1.188,0 2.305,-0.462 3.145,-1.301 0.843,-0.841 1.306,-1.96 1.306,-3.15 v -8.03 c 0,-0.71 -0.575,-1.285 -1.285,-1.285 -0.71,0 -1.286,0.575 -1.286,1.285 v 8.03 c 0,0.502 -0.196,0.975 -0.552,1.33 -0.355,0.354 -0.826,0.55 -1.328,0.55 H 21.688 L 4.448,26.403 C 3.946,26.402 3.475,26.206 3.12,25.85 2.765,25.494 2.57,25.022 2.571,24.52 L 2.597,7.306 C 2.599,6.271 3.442,5.429 4.477,5.429 Z" />
      <path
         id="path219"
         d="M 27.714,8.847 C 28.424,8.847 29,8.272 29,7.561 V 1.286 C 29,0.576 28.424,0 27.714,0 H 21.44 c -0.71,0 -1.286,0.576 -1.286,1.286 0,0.71 0.576,1.285 1.286,1.285 h 3.03 L 12.877,14.165 c -0.502,0.502 -0.502,1.316 0,1.818 0.251,0.251 0.58,0.377 0.91,0.377 0.329,0 0.658,-0.126 0.909,-0.377 L 26.429,4.25 v 3.31 c 0,0.71 0.575,1.286 1.285,1.286 z" />
    </g>
    <g
       id="g240"
       stroke="#ffffff"
       fill="none"
       transform="matrix(9.4545455,0,0,9.4545455,114.18182,104.72727)">
      <path
         id="path234"
         d="M 26,6 H 1 v 22 c 0,0.828 0.336,1.578 0.879,2.121 C 2.422,30.664 3.172,31 4,31 h 22 c 0.828,0 1.578,-0.336 2.121,-0.879 C 28.664,29.578 29,28.828 29,28 V 9 C 29,8.172 28.664,7.422 28.121,6.879 27.578,6.336 26.828,6 26,6 Z M 19,1 H 3.5 C 2.81,1 2.185,1.28 1.732,1.732 1.28,2.185 1,2.81 1,3.5 1,4.19 1.28,4.815 1.732,5.268 2.185,5.72 2.81,6 3.5,6 H 19 Z"
         stroke-width="2" />
      <rect
         id="rect236"
         rx="1"
         y="11.5"
         x="15.5"
         height="7"
         width="8" />
      <path
         id="path238"
         d="M 23,21.5 H 7 m 5.634,-3 H 7 m 5.634,-4 H 7 M 12.634,12 H 7 M 23,24.5 H 7"
         stroke-linecap="round" />
    </g>
    <g
       id="g268"
       fill-rule="evenodd"
       fill="none"
       transform="matrix(9.4545455,0,0,9.4545455,114.18182,104.74618)">
      <path
         id="path257"
         d="m 30,15.998 -3.447,3.623 -1.04,1.096 -1.864,-1.951 -2.648,-2.768 h 3 c 0,-5.271 -3.543,-9.678 -8.247,-10.766 l 2.4,-2.52 C 23.329,4.68 27,9.887 27,15.998 Z"
         fill="#ffffff" />
      <g
         id="g264"
         transform="translate(0,0.995)">
        <mask
           fill="#ffffff"
           id="prefix__b-6">
          <use
             id="use259"
             xlink:href="#prefix__a-3"
             x="0"
             y="0"
             width="100%"
             height="100%" />
        </mask>
        <path
           id="path262"
           mask="url(#prefix__b-6)"
           d="m 5.252,0.005 4.71,1.328 1.425,0.392 -0.68,2.663 -0.96,3.8 L 8.244,5.46 C 3.892,8.1 2.029,13.523 3.484,18.346 l -3.28,-0.92 C -0.755,11.739 1.702,5.796 6.74,2.74 Z"
           fill="#ffffff" />
      </g>
      <path
         id="path266"
         d="M 5.252,30.995 3.988,26.052 3.596,24.564 6.14,23.852 9.755,22.82 8.252,25.548 c 4.35,2.64 9.758,1.624 13.013,-2.112 l 0.88,3.44 c -4.207,3.72 -10.35,4.455 -15.39,1.4 l -1.503,2.72 z"
         fill="#ffffff" />
    </g>
    <g
       id="g292"
       stroke-width="1.167"
       stroke="#ffffff"
       fill-rule="evenodd"
       fill="none"
       transform="matrix(9.4545455,0,0,9.4545455,172.89587,169.60209)">
      <path
         id="path284"
         transform="translate(0,1)"
         d="M 12.27,6.805 10.05,4.586 2.713,11.923 c -0.525,0.525 -0.525,1.377 0,1.902 l 0.317,0.317 c 0.525,0.525 1.377,0.525 1.902,0 L 12.269,6.805 Z M 15.718,2.934 14.08,1.296 11.496,3.88 13.134,5.518 Z" />
      <path
         id="path286"
         transform="translate(0,1)"
         d="M 16.454,3.918 13.083,0.546 c -0.11,-0.11 -0.11,-0.288 0,-0.397 l 0.065,-0.067 c 0.11,-0.11 0.288,-0.11 0.398,0 l 3.372,3.372 c 0.11,0.11 0.11,0.288 0,0.397 l -0.067,0.067 c -0.109,0.11 -0.288,0.11 -0.397,0 z M 8.295,10.469 7.031,9.205 C 6.99,9.163 6.99,9.097 7.031,9.055 L 7.056,9.031 c 0.041,-0.041 0.108,-0.041 0.149,0 l 1.264,1.264 c 0.042,0.041 0.042,0.108 0,0.149 l -0.025,0.025 c -0.04,0.04 -0.108,0.04 -0.149,0 z" />
      <path
         id="path288"
         transform="translate(0,1)"
         d="M 2.82,14.036 0.583,16.273"
         stroke-linecap="round" />
      <path
         id="path290"
         transform="translate(0,1)"
         d="M 12.58,7.116 9.74,4.276 C 9.508,4.044 9.508,3.668 9.74,3.435 L 9.955,3.221 c 0.232,-0.232 0.608,-0.232 0.84,0 l 2.84,2.84 c 0.232,0.232 0.232,0.608 0,0.84 L 13.42,7.116 c -0.232,0.232 -0.608,0.232 -0.84,0 z" />
    </g>
    <g
       id="g311"
       transform="matrix(9.4545455,0,0,9.4545455,199.27273,180.36364)"
       stroke="#ffffff"
       fill="none">
      <rect
         id="rect307"
         rx="1"
         y="0.5"
         x="0.5"
         height="15"
         width="11" />
      <path
         id="path309"
         d="M 8.769,3.5 H 3.231 M 6.5,5.5 H 3.288 m 5.587,3 H 3.214 m 5.661,2 H 3.214 m 5.661,2 H 3.214"
         stroke-linecap="round" />
    </g>
    <g
       id="g350"
       fill-rule="evenodd"
       fill="none"
       transform="matrix(9.4545455,0,0,9.4545455,170.94322,171.18015)">
      <g
         id="g334"
         transform="translate(1,8)">
        <mask
           fill="#ffffff"
           id="prefix__b-5">
          <use
             id="use329"
             xlink:href="#prefix__a-7"
             x="0"
             y="0"
             width="100%"
             height="100%" />
        </mask>
        <path
           id="path332"
           mask="url(#prefix__b-5)"
           d="M 6.15,5.905 H 3.14 C 2.607,5.905 2.332,5.541 2.246,5.385 2.161,5.23 1.971,4.815 2.246,4.348 L 3.14,2.773 C 3.192,2.67 3.33,2.635 3.433,2.687 l 0.464,0.26 C 4.069,3.033 4.257,2.895 4.206,2.704 L 3.537,0.231 C 3.502,0.109 3.382,0.058 3.279,0.075 L 0.82,0.749 C 0.63,0.801 0.614,1.044 0.768,1.147 l 0.464,0.26 C 1.335,1.459 1.37,1.597 1.318,1.701 L 0.425,3.275 c -0.567,1.003 -0.567,2.18 0,3.183 C 0.993,7.461 2.024,8.05 3.158,8.05 H 6.201 C 6.803,8.05 7.284,7.548 7.267,6.925 7.215,6.337 6.734,5.905 6.149,5.905"
           fill="#ffffff" />
      </g>
      <g
         id="g341"
         transform="translate(9,8)">
        <mask
           fill="#ffffff"
           id="prefix__d">
          <use
             id="use336"
             xlink:href="#prefix__c"
             x="0"
             y="0"
             width="100%"
             height="100%" />
        </mask>
        <path
           id="path339"
           mask="url(#prefix__d)"
           d="M 7.548,3.101 6.03,0.545 C 5.723,0.023 5.036,-0.151 4.512,0.145 3.97,0.44 3.79,1.101 4.097,1.605 l 1.536,2.557 c 0.289,0.47 0.09,0.887 0,1.044 -0.09,0.156 -0.38,0.521 -0.94,0.521 H 2.651 C 2.525,5.727 2.435,5.623 2.435,5.519 V 4.979 C 2.435,4.789 2.2,4.684 2.055,4.823 L 0.14,6.683 C 0.05,6.771 0.05,6.91 0.14,6.98 L 2.037,8.806 C 2.182,8.945 2.417,8.84 2.417,8.649 V 8.11 c 0,-0.122 0.108,-0.209 0.216,-0.209 H 4.657 C 5.849,7.901 6.933,7.31 7.53,6.301 8.144,5.31 8.144,4.11 7.548,3.101"
           fill="#ffffff" />
      </g>
      <g
         id="g348"
         transform="translate(5,1)">
        <mask
           fill="#ffffff"
           id="prefix__f">
          <use
             id="use343"
             xlink:href="#prefix__e"
             x="0"
             y="0"
             width="100%"
             height="100%" />
        </mask>
        <path
           id="path346"
           mask="url(#prefix__f)"
           d="M 4.928,2.675 5.793,4.263 C 5.841,4.364 5.809,4.483 5.729,4.55 L 5.297,4.82 C 5.137,4.922 5.169,5.158 5.345,5.209 L 7.651,5.851 C 7.763,5.885 7.859,5.817 7.891,5.699 L 8.5,3.249 C 8.548,3.063 8.356,2.929 8.211,3.013 L 7.779,3.283 C 7.683,3.333 7.571,3.3 7.507,3.215 L 6.642,1.627 C 6.114,0.664 5.152,0.073 4.096,0.073 3.039,0.073 2.078,0.647 1.549,1.627 L 0.172,4.162 C -0.1,4.668 0.06,5.293 0.54,5.58 0.7,5.681 0.86,5.715 1.037,5.715 1.373,5.715 1.71,5.529 1.902,5.191 L 3.279,2.657 C 3.535,2.201 3.952,2.15 4.112,2.15 c 0.16,0 0.576,0.068 0.816,0.524"
           fill="#ffffff" />
      </g>
    </g>
    <g
       id="g380"
       transform="matrix(9.4545455,0,0,9.4545455,170.91259,174.75615)"
       stroke="#ffffff"
       fill="none">
      <path
         id="path374"
         d="M 16,5.5 8.5,6 8.663,14.647 c 0.19,0.161 0.474,0.3 0.82,0.42 0.772,0.27 1.84,0.433 3.017,0.433 1.213,0 2.308,-0.17 3.078,-0.52 0.308,-0.14 0.56,-0.306 0.727,-0.51 0.124,-0.151 0.195,-0.323 0.195,-0.518 z" />
      <ellipse
         id="ellipse376"
         ry="1"
         rx="4"
         fill="#4a4a4a"
         cy="5"
         cx="12.5" />
      <ellipse
         id="ellipse378"
         transform="rotate(30,4.533,3.619)"
         ry="1"
         rx="3.454"
         cy="3.619"
         cx="4.533" />
    </g>
    <g
       id="g404"
       transform="matrix(9.4545455,0,0,9.4545455,198.85909,170.90909)"
       stroke="#ffffff"
       fill="none">
      <rect
         id="rect394"
         rx="0.5"
         y="0.5"
         x="3.7"
         height="1"
         width="4.5999999" />
      <rect
         id="rect396"
         rx="2"
         y="13.25"
         x="1.3"
         height="4.25"
         width="9.3999996" />
      <rect
         id="rect398"
         rx="1"
         y="11"
         x="1.3"
         height="2"
         width="9.3999996" />
      <rect
         id="rect400"
         rx="1"
         y="8.75"
         x="1.3"
         height="2"
         width="9.3999996" />
      <path
         id="path402"
         d="M 8.27,2.75 3.877,2.757 C 3.427,2.8 3.017,3.045 2.767,3.427 L 1.229,5.786 C 0.964,6.292 1.02,6.889 1.257,7.636 V 9.25 c 0,0.414 0.168,0.79 0.44,1.06 0.27,0.272 0.646,0.44 1.06,0.44 H 9.31 c 0.414,0 0.79,-0.168 1.06,-0.44 0.272,-0.27 0.44,-0.646 0.44,-1.06 L 10.789,7.3 c 0.154,-0.235 0.244,-0.517 0.244,-0.82 0,-0.258 -0.067,-0.513 -0.195,-0.738 L 9.5,3.39 C 9.222,2.992 8.764,2.75 8.271,2.75 Z" />
    </g>
    <g
       id="g424"
       stroke="#9b9b9b"
       fill="none"
       transform="matrix(9.4545455,0,0,9.4545455,170.90815,170.93017)">
      <path
         id="path420"
         transform="translate(5)"
         d="M 4.645,0.566 C 4.462,0.504 4.2,0.489 3.853,0.5 H 3.837 C 3.592,0.5 3.399,0.517 3.274,0.593 3.25,0.607 3.242,0.63 3.242,0.657 v 3.808 c 0,1.133 -0.724,2.04 -1.498,2.932 C 1.147,8.085 0.5,8.76 0.5,9.645 l 0.012,6.908 c 0.085,0.258 0.491,0.422 0.935,0.576 0.67,0.232 1.568,0.371 2.553,0.371 0.985,0 1.882,-0.139 2.553,-0.371 0.45,-0.155 0.855,-0.322 0.947,-0.58 L 7.484,9.409 C 7.377,8.639 6.801,8.024 6.256,7.397 5.484,6.507 4.761,5.602 4.758,4.473 Z" />
      <path
         id="path422"
         transform="translate(5)"
         d="m 6.5,12.3 v 2.4 m 0,-4.478 v 0.528"
         stroke-linecap="round" />
    </g>
  </g>
</svg>
