<svg width="28" height="28" viewBox="0 0 28 28" xmlns="http://www.w3.org/2000/svg">
    <path fill-rule="evenodd" clip-rule="evenodd" d="M0 14C0 6.268 6.268 0 14 0s14 6.268 14 14-6.268 14-14 14S0 21.732 0 14zm4.974 7.053a11.455 11.455 0 1 1 18.135-.107 11.434 11.434 0 0 0-9.026-4.4 11.436 11.436 0 0 0-9.11 4.508zm1.807 1.84A11.407 11.407 0 0 0 14 25.455a11.408 11.408 0 0 0 7.323-2.647 8.898 8.898 0 0 0-7.24-3.716 8.9 8.9 0 0 0-7.302 3.803zM17.6 13.692a5.09 5.09 0 1 0-7.199-7.2 5.09 5.09 0 0 0 7.199 7.2zm-1.8-1.8a2.545 2.545 0 1 0-3.6-3.6 2.545 2.545 0 0 0 3.6 3.6z" />
</svg>
