<?xml version="1.0" encoding="UTF-8" standalone="no"?>
<svg
   xmlns:dc="http://purl.org/dc/elements/1.1/"
   xmlns:cc="http://creativecommons.org/ns#"
   xmlns:rdf="http://www.w3.org/1999/02/22-rdf-syntax-ns#"
   xmlns:svg="http://www.w3.org/2000/svg"
   xmlns="http://www.w3.org/2000/svg"
   xmlns:sodipodi="http://sodipodi.sourceforge.net/DTD/sodipodi-0.dtd"
   xmlns:inkscape="http://www.inkscape.org/namespaces/inkscape"
   inkscape:version="1.0 (6e3e5246a0, 2020-05-07)"
   sodipodi:docname="dr-share.svg"
   id="svg275"
   version="1.1"
   viewBox="0 0 512 512"
   height="512"
   width="512">
  <metadata
     id="metadata281">
    <rdf:RDF>
      <cc:Work
         rdf:about="">
        <dc:format>image/svg+xml</dc:format>
        <dc:type
           rdf:resource="http://purl.org/dc/dcmitype/StillImage" />
        <dc:title />
      </cc:Work>
    </rdf:RDF>
  </metadata>
  <defs
     id="defs279" />
  <sodipodi:namedview
     inkscape:current-layer="layer2"
     inkscape:window-maximized="1"
     inkscape:window-y="27"
     inkscape:window-x="67"
     inkscape:cy="282.07685"
     inkscape:cx="257.32925"
     inkscape:zoom="0.90885417"
     inkscape:snap-bbox-edge-midpoints="true"
     inkscape:snap-smooth-nodes="true"
     inkscape:snap-bbox="true"
     inkscape:object-paths="true"
     inkscape:guide-bbox="true"
     showguides="true"
     showgrid="false"
     id="namedview277"
     inkscape:window-height="845"
     inkscape:window-width="1533"
     inkscape:pageshadow="2"
     inkscape:pageopacity="0"
     guidetolerance="10"
     gridtolerance="10"
     objecttolerance="10"
     borderopacity="1"
     bordercolor="#666666"
     pagecolor="#ffffff"
     inkscape:document-rotation="0">
    <sodipodi:guide
       inkscape:color="rgb(0,0,255)"
       inkscape:locked="false"
       inkscape:label=""
       id="guide285"
       orientation="-1,0"
       position="48,175.67752" />
    <sodipodi:guide
       inkscape:color="rgb(0,0,255)"
       inkscape:locked="false"
       inkscape:label=""
       id="guide568"
       orientation="0,1"
       position="337.78796,464" />
  </sodipodi:namedview>
  <g
     style="display:inline"
     inkscape:label="Layer 2"
     id="layer2"
     inkscape:groupmode="layer">
    <path
       d="m 345.36328,48 a 63.30435,63.30435 0 0 0 -63.30469,63.30469 63.30435,63.30435 0 0 0 1.84571,15.17383 L 171.61719,197.93359 A 63.30435,63.30435 0 0 0 146.40625,192.69531 63.30435,63.30435 0 0 0 83.101562,256 a 63.30435,63.30435 0 0 0 63.304688,63.30469 63.30435,63.30435 0 0 0 25.21094,-5.23828 l 112.28711,71.45703 a 63.30435,63.30435 0 0 0 -1.84571,15.17187 63.30435,63.30435 0 0 0 63.30469,63.30469 63.30435,63.30435 0 0 0 63.30469,-63.30469 63.30435,63.30435 0 0 0 -63.30469,-63.30469 63.30435,63.30435 0 0 0 -26.72461,5.91993 L 207.5,272.58594 A 63.30435,63.30435 0 0 0 209.71094,256 63.30435,63.30435 0 0 0 207.49805,239.41602 l 111.14062,-70.72657 a 63.30435,63.30435 0 0 0 26.72461,5.91993 63.30435,63.30435 0 0 0 63.30469,-63.30469 A 63.30435,63.30435 0 0 0 345.36328,48 Z"
       id="circle401" />
  </g>
</svg>
