<svg xmlns="http://www.w3.org/2000/svg" xmlns:xlink="http://www.w3.org/1999/xlink" width="38" height="37" viewBox="0 0 38 37">
    <defs>
        <path id="prefix__a" d="M0 0.125L22.894 0.125 22.894 18.095 0 18.095z"/>
    </defs>
    <g fill="none" fill-rule="evenodd">
        <rect width="38" height="37" fill="#9CD060" fill-rule="nonzero" rx="11"/>
        <g transform="translate(8 9)">
            <mask id="prefix__b" fill="#fff">
                <use xlink:href="#prefix__a"/>
            </mask>
            <path fill="#FFF" d="M21.212 2.67c-.496.132-.888.112-.888.112l.016-.092c.463-.358 1.629-1.457 1.783-1.972.067-.222-.012-.3-.013-.306l-1.49.612-1.246.545C18.514.687 17.212.125 15.756.125c-2.591 0-4.692 1.777-4.692 3.97 0 .4.062 1.133.192 1.498 0 .115.005-.116 0 0-1.669-.045-3.807-.707-5.712-1.642C1.788 2.11 1.553.833 1.553.833c-.59.606-.895 2.615-.297 4.19.383 1.008 1.7 1.913 1.7 1.913s-.589.01-1.206-.19c-.616-.203-.849-.403-.849-.403-.367.866.37 2.412 1.64 3.52.74.648 2.094 1.053 2.094 1.053l-2.114.058c-.119 1.99 4.31 3.172 4.31 3.172-1.299.966-2.805 1.555-4.419 1.555-.836 0-1.645-.122-2.412-.343 2.133 1.701 4.874 2.876 7.854 2.724 7.907-.402 12.37-6.983 12.582-13.447l.01.014s.371-.18 1.163-.946c.792-.767 1.285-1.665 1.285-1.665s-1.185.499-1.682.631" mask="url(#prefix__b)"/>
            <path fill="#FFF" d="M22.11.412c.006.122 0 .012 0 0"/>
        </g>
    </g>
</svg>
