<?xml version="1.0" encoding="UTF-8"?>
<svg width="38px" height="37px" viewBox="0 0 38 37" version="1.1" xmlns="http://www.w3.org/2000/svg" xmlns:xlink="http://www.w3.org/1999/xlink">
    <!-- Generator: Sketch 64 (93537) - https://sketch.com -->
    <title>dr-twitter</title>
    <desc>Created with Sketch.</desc>
    <g id="dr-twitter" stroke="none" stroke-width="1" fill="none" fill-rule="evenodd">
        <path d="M27,0 C33.0751322,-1.11598369e-15 38,4.92486775 38,11 L38,26 C38,32.0751322 33.0751322,37 27,37 L11,37 C4.92486775,37 7.43989126e-16,32.0751322 0,26 L0,11 C-7.43989126e-16,4.92486775 4.92486775,1.11598369e-15 11,0 L27,0 Z M23.7559823,10.1247643 C21.1648885,10.1247643 19.0642219,11.9020415 19.0642219,14.0950452 C19.0642219,14.4386559 19.1094591,15.025487 19.204309,15.4160909 L19.2558885,15.5930061 L19.2558885,15.5930061 C17.5874302,15.548464 15.449149,14.8858999 13.5444615,13.9514432 C9.78803437,12.1085128 9.55276354,10.8327985 9.55276354,10.8327985 C8.96266979,11.439453 8.65839896,13.4482564 9.25639896,15.0230061 C9.63949271,16.0312357 10.955524,16.9364615 10.955524,16.9364615 L10.9157826,16.9363918 C10.7738035,16.9346495 10.2722323,16.9158501 9.75041979,16.7450696 C9.13373229,16.5432381 8.90109687,16.3432625 8.90109687,16.3432625 C8.53429479,17.2090501 9.27005521,18.754801 10.5410448,19.8637143 C11.2818365,20.5105031 12.6352427,20.916022 12.6352427,20.916022 L10.5209198,20.9735556 C10.4020865,22.9635678 14.8305448,24.145558 14.8305448,24.145558 C13.5324823,25.1117973 12.0264615,25.7005885 10.4123885,25.7005885 C9.57576354,25.7005885 8.76740937,25.5794896 8.00002396,25.357707 C10.1325552,27.0591233 12.8736281,28.2336899 15.8538052,28.0822002 C23.7605344,27.6799292 28.2239719,21.0985983 28.4364823,14.6353504 L28.4465448,14.6485739 L28.4640171,14.6393899 C28.5457847,14.5946651 28.9161581,14.3738104 29.6090031,13.7025177 C30.400826,12.935558 30.893649,12.0379878 30.893649,12.0379878 C30.893649,12.0379878 29.7093885,12.5367668 29.2122531,12.6694652 C28.7155969,12.8023956 28.3243573,12.7815165 28.3243573,12.7815165 L28.3404094,12.6903443 C28.8025656,12.3319194 29.9688573,11.2325177 30.1229094,10.7179634 C30.1897531,10.4957167 30.1106906,10.418928 30.1102115,10.4117363 L28.6207219,11.0239585 L27.3744094,11.5686716 C26.5140656,10.6868767 25.2119302,10.1247643 23.7559823,10.1247643 Z" id="Combined-Shape" fill="#9CD060" fill-rule="nonzero"></path>
    </g>
</svg>