<svg xmlns="http://www.w3.org/2000/svg" xmlns:xlink="http://www.w3.org/1999/xlink" width="38" height="38" viewBox="0 0 38 38">
    <defs>
        <rect id="i4xamyrvda" width="38" height="38" x="0" y="0" rx="11"/>
    </defs>
    <g fill="none" fill-rule="evenodd">
        <mask id="rh72dvqfsb" fill="#fff">
            <use xlink:href="#i4xamyrvda"/>
        </mask>
        <g fill-rule="nonzero" mask="url(#rh72dvqfsb)">
            <path fill="#F0F0F0" d="M0 0H37.926V38H0z"/>
            <g fill="#338AF3">
                <path d="M0 9.655H38V13.655H0zM0 18.655H38V22.655H0zM0 27.655H38V31.655H0zM0 .655H38V4.655H0z" transform="translate(0 3.345)"/>
            </g>
        </g>
        <path fill="#F0F0F0" fill-rule="nonzero" d="M0 0H16V22H0z" mask="url(#rh72dvqfsb)"/>
        <path fill="#FFDA44" fill-rule="nonzero" d="M13.741 11.51L11.289 12.722 12.595 15.218 9.932 14.683 9.595 17.51 7.741 15.431 5.886 17.51 5.549 14.683 2.887 15.218 4.192 12.722 1.741 11.51 4.192 10.297 2.887 7.802 5.549 8.337 5.886 5.51 7.741 7.589 9.595 5.51 9.932 8.337 12.595 7.802 11.289 10.298z" mask="url(#rh72dvqfsb)"/>
    </g>
</svg>
