<?xml version="1.0" encoding="UTF-8"?>
<svg width="30px" height="30px" viewBox="0 0 30 30" version="1.1" xmlns="http://www.w3.org/2000/svg" xmlns:xlink="http://www.w3.org/1999/xlink">
    <title>dr-user</title>
    <g id="dr-user">
        <path d="M14.9500001,0.0699999928 C23.1679972,0.0699999928 29.8300002,6.73200297 29.8300002,14.9500001 C29.8300002,23.1679972 23.1679972,29.8300002 14.9500001,29.8300002 C6.73200297,29.8300002 0.0699999928,23.1679972 0.0699999928,14.9500001 C0.0699999928,6.73200297 6.73200297,0.0699999928 14.9500001,0.0699999928 Z M14.9500001,19.1350001 C11.1020909,19.1350001 7.67370242,21.381179 6.09194199,24.7854021 L6.18991392,24.5824272 C8.50275334,26.6870402 11.576551,27.9700002 14.9500001,27.9700002 C18.3239337,27.9700002 21.3981299,26.6866716 23.7110829,24.5815202 C22.1309848,21.3778622 18.8955698,19.2486437 15.2451236,19.1394117 L15.2451236,19.1394117 Z M14.9500001,1.93000001 C7.75925261,1.93000001 1.93000001,7.75925261 1.93000001,14.9500001 C1.93000001,18.416599 3.28479003,21.5667698 5.49378456,23.8999268 C7.318662,20.4493487 10.9247724,18.2050001 14.9500001,18.2050001 C18.9749517,18.2050001 22.5811559,20.4491066 24.4063409,23.8985324 C26.6155943,21.5658765 27.9700002,18.4161075 27.9700002,14.9500001 C27.9700002,7.75925261 22.1407476,1.93000001 14.9500001,1.93000001 Z M14.9500001,6.11500004 C17.7749366,6.11500004 20.0650001,8.40506356 20.0650001,11.2300001 C20.0650001,14.0549366 17.7749366,16.3450001 14.9500001,16.3450001 C12.1250636,16.3450001 9.83500007,14.0549366 9.83500007,11.2300001 C9.83500007,8.40506356 12.1250636,6.11500004 14.9500001,6.11500004 Z M14.9500001,7.04500005 C12.6386884,7.04500005 10.7650001,8.91868838 10.7650001,11.2300001 C10.7650001,13.5413118 12.6386884,15.4150001 14.9500001,15.4150001 C17.2613118,15.4150001 19.1350001,13.5413118 19.1350001,11.2300001 C19.1350001,8.91868838 17.2613118,7.04500005 14.9500001,7.04500005 Z" id="Combined-Shape" fill-rule="nonzero"></path>
    </g>
</svg>
