<svg xmlns="http://www.w3.org/2000/svg" width="38" height="38" viewBox="0 0 38 38">
  <g fill="none">
    <rect width="37.926" height="38" fill="#F0F0F0" rx="11"/>
    <g fill="#338AF3" transform="translate(0 3.345)">
      <rect width="38" height="4" y="18.655"/>
      <path d="M34.4751316,31.6559036 L3.45079429,31.6559036 C2.27744272,30.5483576 1.34765801,29.1855285 0.750256414,27.6562328 L37.1756695,27.6562328 C36.5782679,29.1855285 35.6484832,30.5483576 34.4751316,31.6559036 Z"/>
      <polygon points="38 9.655 38 13.655 16 13.655 16 9.655"/>
      <path d="M35.4106396,0.6541058 C36.2877492,1.71586537 36.9694043,2.94504047 37.4005032,4.28652947 L37.5118221,4.65513336 L16,4.65427066 L16,0.653270655 L35.4106396,0.6541058 Z"/>
    </g>
    <polygon fill="#FFDA44" points="13.741 11.51 11.289 12.722 12.595 15.218 9.932 14.683 9.595 17.51 7.741 15.431 5.886 17.51 5.549 14.683 2.887 15.218 4.192 12.722 1.741 11.51 4.192 10.297 2.887 7.802 5.549 8.337 5.886 5.51 7.741 7.589 9.595 5.51 9.932 8.337 12.595 7.802 11.289 10.298"/>
  </g>
</svg>
