<svg xmlns="http://www.w3.org/2000/svg" xmlns:xlink="http://www.w3.org/1999/xlink" width="60" height="45" viewBox="0 0 60 45">
    <defs>
        <path id="prefix__a" d="M0.779 0L53.446 0 53.446 4 0.779 4z"/>
    </defs>
    <g fill="none" fill-rule="evenodd">
        <g transform="translate(0 3) translate(6 35.203)">
            <mask id="prefix__b" fill="#fff">
                <use xlink:href="#prefix__a"/>
            </mask>
            <path fill="#08492C" d="M.78 2c0 1.105 11.79 2 26.332 2 14.544 0 26.334-.895 26.334-2s-11.79-2-26.334-2C12.57 0 .78.895.78 2" mask="url(#prefix__b)"/>
        </g>
        <path fill="#FDE485" d="M32.514 33.295c-4.422-4.145-8.36-14.59-.795-22.842 4.539.881 4.772 6.351 4.772 6.351C35.108 9.17 45.65 0 45.65 0c5.62 4.468 12.37 12.033 12.014 23.09-.256 7.908-4.738 10.89-8.44 12.683-5.573 2.701-12.192 1.757-16.71-2.478" transform="translate(0 3)"/>
        <path fill="#FBB03B" d="M46.845 33.455c4.434-2.043 7.56-10.293-2.69-20.793-12.126 9.25-12.104 17.428-5.188 20.877 2.491 1.242 5.35 1.08 7.878-.084" transform="translate(0 3)"/>
        <path fill="#69B482" d="M2.862 7.9l34.82 16.525c.9.428 1.203 1.56.637 2.381-.439.636-1.266.873-1.974.566L.977 12.078C.149 11.72-.227 10.755.14 9.932l.55-1.23c.37-.829 1.352-1.19 2.171-.802" transform="translate(0 3)"/>
        <path fill="#FFF" d="M43.59 24.164c-3.033-1.37-6.314-.665-7.328 1.577-1.013 2.242.624 5.171 3.657 6.542 3.034 1.372 6.735-.247 7.328-1.576.532-1.17-.624-5.172-3.657-6.543" transform="translate(0 3)"/>
        <path fill="#08492C" d="M42.55 24.674c-2.662-1.203-5.56-.544-6.471 1.474-.913 2.017.505 4.628 3.167 5.831 2.662 1.204 5.938-.278 6.471-1.473.48-1.054-.505-4.629-3.167-5.832" transform="translate(0 3)"/>
        <path fill="#08492C" d="M38.32 26.806c.565-.82.262-1.953-.639-2.38l-6.277-2.98c-.783.77-1.744 1.683-2.778 2.588l7.72 3.338c.708.308 1.534.07 1.973-.566" transform="translate(0 3)"/>
    </g>
</svg>
