<svg xmlns="http://www.w3.org/2000/svg" width="18" height="18" viewBox="0 0 18 18">
    <g fill="none" stroke="#9B9B9B">
        <path d="M4.645.566C4.462.504 4.2.489 3.853.5h-.016c-.245 0-.438.017-.563.093-.024.014-.032.037-.032.064v3.808c0 1.133-.724 2.04-1.498 2.932C1.147 8.085.5 8.76.5 9.645l.012 6.908c.085.258.491.422.935.576.67.232 1.568.371 2.553.371.985 0 1.882-.139 2.553-.371.45-.155.855-.322.947-.58l-.016-7.14c-.107-.77-.683-1.385-1.228-2.012-.772-.89-1.495-1.795-1.498-2.924L4.645.566z" transform="translate(5)"/>
        <path stroke-linecap="round" d="M6.5 12.3L6.5 14.7M6.5 10.222L6.5 10.75" transform="translate(5)"/>
    </g>
</svg>
