<?xml version="1.0" encoding="UTF-8"?>
<svg width="38px" height="37px" viewBox="0 0 38 37" version="1.1" xmlns="http://www.w3.org/2000/svg" xmlns:xlink="http://www.w3.org/1999/xlink">
    <!-- Generator: Sketch 64 (93537) - https://sketch.com -->
    <title>dr-whatsapp</title>
    <desc>Created with Sketch.</desc>
    <g id="dr-whatsapp" stroke="none" stroke-width="1" fill="none" fill-rule="evenodd">
        <g id="Group-3" fill="#9CD060">
            <path d="M10.5646981,0.0877071429 C4.74757215,0.0877071429 0.0144106666,4.93595714 0.0144106666,10.8945286 L0.0144106666,26.1057786 C0.0144106666,32.06435 4.74757215,36.9126 10.5646981,36.9126 L27.4178714,36.9126 C33.2334981,36.9126 37.9666596,32.06435 37.9666596,26.1057786 L37.9666596,10.8945286 C37.9666596,4.93595714 33.2334981,0.0877071429 27.4178714,0.0877071429 L10.5646981,0.0877071429 Z M24.9705773,20.6682071 C24.644494,20.5057071 23.0563273,19.7289571 22.7605773,19.6217071 C22.4648273,19.5122905 22.2481607,19.4592071 22.031494,19.7842071 C21.8180773,20.1037905 21.196244,20.8285405 21.0088273,21.0430405 C20.819244,21.2542905 20.630744,21.2705405 20.308994,21.1242905 C19.983994,20.9617905 18.940744,20.6205405 17.705744,19.5155405 C16.743744,18.6542905 16.0980773,17.5980405 15.9074107,17.2730405 C15.7189107,16.9480405 15.8868273,16.7692905 16.048244,16.6067905 C16.1955773,16.4605405 16.3743273,16.2330405 16.5368273,16.0402071 C16.694994,15.8441238 16.746994,15.7141238 16.8585773,15.5028738 C16.9669107,15.2753738 16.9116607,15.0966238 16.831494,14.9352071 C16.750244,14.7727071 16.103494,13.1802071 15.8326607,12.5453738 C15.5726607,11.9127071 15.3050773,11.9928738 15.1046607,11.9928738 C14.9183273,11.9766238 14.702744,11.9766238 14.4860773,11.9766238 C14.2694107,11.9766238 13.919494,12.0567905 13.6226607,12.3655405 C13.3269107,12.6905405 12.4905773,13.4705405 12.4905773,15.0467905 C12.4905773,16.6230405 13.649744,18.1505405 13.8111607,18.3780405 C13.9725773,18.5892905 16.0915773,21.8392905 19.3361607,23.2367905 C20.1096607,23.5617905 20.711994,23.7567905 21.1821607,23.9182071 C21.9556607,24.1641238 22.6609107,24.1294571 23.2188273,24.0492905 C23.8406607,23.9507071 25.1330773,23.2682071 25.4028273,22.5044571 C25.6790773,21.7407071 25.6790773,21.1069571 25.5978273,20.9607071 C25.5176607,20.8144571 25.3053273,20.7332071 24.9803273,20.5869571 M19.080494,28.6502071 L19.0631607,28.6502071 C17.1456607,28.6502071 15.245494,28.1302071 13.5869107,27.1552071 L13.1969107,26.9233738 L9.13441067,27.9796238 L10.2231607,24.0308738 L9.964244,23.6246238 C8.891744,21.9172905 8.32191067,19.9510405 8.32191067,17.9262905 C8.32191067,12.0275405 13.1481607,7.21754048 19.0924107,7.21754048 C21.9675773,7.21754048 24.6661607,8.33879048 26.698494,10.3700405 C28.729744,12.3839571 29.8499107,15.0825405 29.8499107,17.9425405 C29.8455773,23.8402071 25.018244,28.6512905 19.086994,28.6512905 M28.2444107,8.82412381 C25.7744107,6.43645714 22.5244107,5.08770714 19.0631607,5.08770714 C11.9326607,5.08770714 6.12707733,10.8662071 6.12382733,17.9717905 C6.12382733,20.2424571 6.71857733,22.4567905 7.851744,24.4122071 L6.01441067,31.0877071 L12.8773273,29.2980405 C14.7688273,30.3196238 16.896494,30.8623738 19.0631607,30.8656238 L19.0696607,30.8656238 C26.2034107,30.8656238 32.0111607,25.0849571 32.0144107,17.9782905 C32.0144107,14.5376238 30.6710773,11.2995405 28.2281607,8.86637381" id="Combined-Shape"></path>
        </g>
    </g>
</svg>