<svg width="27" height="21" viewBox="0 0 27 21" fill="none" xmlns="http://www.w3.org/2000/svg">
<path d="M0 3.625C0 1.7793 1.47656 0.25 3.375 0.25H23.625C25.4707 0.25 27 1.7793 27 3.625V17.125C27 19.0234 25.4707 20.5 23.625 20.5H3.375C1.47656 20.5 0 19.0234 0 17.125V3.625ZM2.53125 3.625V4.83789L11.6016 12.2734C12.709 13.1699 14.2383 13.1699 15.3457 12.2734L24.4688 4.83789V3.625C24.4688 3.20312 24.0469 2.78125 23.625 2.78125H3.375C2.90039 2.78125 2.53125 3.20312 2.53125 3.625ZM2.53125 8.10742V17.125C2.53125 17.5996 2.90039 17.9688 3.375 17.9688H23.625C24.0469 17.9688 24.4688 17.5996 24.4688 17.125V8.10742L16.9805 14.2246C14.9238 15.9121 12.0234 15.9121 9.9668 14.2246L2.53125 8.10742Z" fill="white"/>
</svg>
