<svg width="29" height="24" viewBox="0 0 29 24" xmlns="http://www.w3.org/2000/svg">
<path d="M28.416 18.0332C28.6602 18.7168 28.5137 19.5469 28.0742 20.084C27.7324 20.4746 24.5098 23.8438 14.5 23.8438C4.44141 23.8438 1.21875 20.4746 0.876953 20.084C0.4375 19.5469 0.291016 18.7168 0.535156 18.0332C0.828125 17.3008 1.51172 16.8125 2.29297 16.8125H1.95117V14.4688C1.95117 8.95117 5.56445 4.26367 10.5938 2.65234V2.35938C10.5938 1.28516 11.4238 0.40625 12.498 0.40625H16.4531C17.5273 0.40625 18.4062 1.28516 18.4062 2.35938V2.65234C23.3867 4.26367 27 8.95117 27 14.4688V16.8125H26.6582C27.4395 16.8125 28.123 17.3008 28.416 18.0332ZM4.29492 14.4688V16.8125H24.6562V14.4688C24.6562 10.2695 22.0195 6.70508 18.3574 5.14258V14.0781C18.3574 14.7617 17.8691 15.25 17.1855 15.25C16.5508 15.25 16.0137 14.7617 16.0137 14.0781V2.75H12.8887V14.0781C12.8887 14.7617 12.4004 15.25 11.7168 15.25C11.082 15.25 10.5449 14.7617 10.5449 14.0781V5.14258C6.93164 6.70508 4.29492 10.2695 4.29492 14.4688ZM14.5 21.5C20.8965 21.5 24.1191 20.0352 25.4863 19.1562H3.46484C4.83203 20.0352 8.05469 21.5 14.5 21.5Z" />
</svg>
